<?xml version="1.0" encoding="UTF-8" standalone="no"?>
<svg
   width="800"
   height="800"
   viewBox="0 0 800 800"
   version="1.1"
   id="svg728"
   sodipodi:docname="brush.svg"
   inkscape:version="1.4.2 (f4327f4, 2025-05-13)"
   inkscape:export-filename="brush.svg"
   inkscape:export-xdpi="96"
   inkscape:export-ydpi="96"
   xmlns:inkscape="http://www.inkscape.org/namespaces/inkscape"
   xmlns:sodipodi="http://sodipodi.sourceforge.net/DTD/sodipodi-0.dtd"
   xmlns="http://www.w3.org/2000/svg"
   xmlns:svg="http://www.w3.org/2000/svg">
  <defs
     id="defs728" />
  <sodipodi:namedview
     id="namedview728"
     pagecolor="#ffffff"
     bordercolor="#000000"
     borderopacity="0.25"
     inkscape:showpageshadow="2"
     inkscape:pageopacity="0.0"
     inkscape:pagecheckerboard="0"
     inkscape:deskcolor="#d1d1d1"
     inkscape:zoom="0.20822611"
     inkscape:cx="2353.2111"
     inkscape:cy="669.9448"
     inkscape:window-width="1920"
     inkscape:window-height="991"
     inkscape:window-x="-9"
     inkscape:window-y="-9"
     inkscape:window-maximized="1"
     inkscape:current-layer="svg728">
    <inkscape:page
       x="0"
       y="0"
       width="800"
       height="800"
       id="page2"
       margin="0"
       bleed="0" />
  </sodipodi:namedview>
  <path
     fill-rule="evenodd"
     fill="#000000"
     fill-opacity="1"
     d="m 198.93837,179.22043 c -0.2969,-0.5625 -0.5,-0.9414 -0.7032,-1.3203 -0.539,0.4296 -1.3008,0.7578 -1.5664,1.3281 -0.3047,0.6406 0.02,1.5703 0.9453,1.3594 0.5352,-0.1172 0.918,-0.918 1.3243,-1.3672 m 22.4335,2.8476 c -0.5039,-0.3984 -1.0078,-0.9492 -1.6367,-1.2187 -0.2734,-0.1094 -1.0351,0.2617 -1.1601,0.582 -0.3399,0.8477 0.1445,1.4492 1.0273,1.5274 0.6367,0.062 1.4297,0.2304 1.7695,-0.8907 m 473.6797,145.8711 c -0.6484,-0.8398 -1.0039,-1.539 -1.5625,-1.9492 -0.6328,-0.4805 -1.5156,-0.5195 -1.9492,0.3008 -0.6562,1.2383 0.1133,1.8476 1.2344,1.9805 0.6406,0.078 1.3203,-0.1836 2.2773,-0.3321 m -598.78504,75.5313 c -1.0742,-0.1016 -2.043,0.098 -2.3594,1.2695 -0.3359,1.2695 0.418,1.9883 1.5625,1.8203 0.9102,-0.1406 2.0938,-0.4726 2.168,-1.7422 0.047,-0.8086 -0.5196,-1.2968 -1.3711,-1.3476 m -22.9961,7.289 c -0.668,0.4805 -2.0781,0.4297 -2.0977,1.6094 -0.012,0.7617 1.0977,0.9922 1.8203,0.7813 0.625,-0.1914 1.4493,-0.6094 1.6407,-1.1289 0.2812,-0.75 -0.3399,-1.2813 -1.3633,-1.2618 m 647.81244,110.3711 c 1.3086,0.6094 2.4336,1.3086 3.6055,0.2774 z m -613.7694,34.5078 c -0.4102,-0.2304 -0.78914,-0.5976 -1.18754,-0.6289 -0.6407,-0.039 -1.7071,-0.3984 -1.461,0.9102 0.047,0.2305 0.8828,0.4805 1.3242,0.4414 0.4453,-0.043 0.85554,-0.4531 1.32434,-0.7227 m 599.4295,79.7422 c -2.4453,0.1289 -3.7461,-0.332 -4.8086,0.6407 -0.4296,0.3984 -0.2656,0.9882 0.375,1.1289 1.2969,0.2812 2.4844,-0.082 4.4336,-1.7696 m -434.4062,35.0196 c 0.09,-0.9102 -0.4141,-1.7188 -1.1563,-1.7618 -0.664,-0.039 -1.4843,0.5 -2.0351,1.0118 -0.836,0.7578 -0.2188,1.3476 0.5625,1.5976 1.0273,0.3203 2.0234,0.2422 2.6289,-0.8476 m 144.5859,-519.1016 c -2.0859,-1.5586 -3.957,-1.668 -6.0117,-0.9883 0.031,1.7578 1.0078,1.6094 1.7031,1.6406 1.293,0.07 2.6368,0.4805 4.3086,-0.6523 m 144.9336,7.4297 c -0.3828,-0.2969 -0.7656,-0.8477 -1.1523,-0.8477 -0.9024,-0.012 -1.3789,0.5977 -0.8906,1.4375 0.1835,0.3203 0.871,0.4727 1.3281,0.4727 0.6406,-0.012 0.8789,-0.461 0.7148,-1.0625 m -297.1601,514.3906 c -1.2891,-1.418 -2.6993,-1.9609 -4.836,-0.9883 1.5352,1.5508 3.0703,1.5586 4.836,0.9883 m -127.9493,-259.6406 c -0.496,0.2226 -1.5703,0.3711 -1.7148,0.8203 -0.4219,1.332 0.6836,1.8008 1.7383,1.8203 0.6758,0.012 1.8047,-0.3008 1.9531,-0.7305 0.4883,-1.4179 -0.8164,-1.5273 -1.9766,-1.9101 m 27.9024,-149.1094 c -0.3984,-1.0195 -1.2031,-1.5976 -2.207,-1.8086 -1.4414,-0.3203 -1.6368,0.8399 -1.7071,1.7891 -0.086,1.1719 0.5664,1.8515 1.8047,1.6211 0.9492,-0.1719 1.9024,-0.4297 2.1094,-1.6016 m 12.457,-100.5508 c 0.8399,0.012 1.5469,-0.2304 1.3438,-1.1992 -0.074,-0.3789 -0.5821,-0.7695 -0.9844,-0.9297 -0.6875,-0.2812 -1.5039,-0.2109 -1.6367,0.6797 -0.1211,0.8203 0.5234,1.2695 1.2773,1.4492 m 463.3281,19.461 c -0.012,-1.3711 -0.9726,-1.6602 -2.0585,-1.5703 -0.7735,0.07 -1.4883,0.4921 -1.5469,1.4218 -0.078,1.1797 0.5195,2.1289 1.6289,2.1875 1.1172,0.051 1.7148,-0.9297 1.9765,-2.039 m -27.8007,-3.5078 c -0.5899,-0.3829 -1.0274,-0.2422 -1.2266,0.4179 -0.4375,1.4414 0.1445,2.5196 1.375,3.1797 0.6875,0.3711 1.7031,0.1602 1.8047,-0.6211 0.1758,-1.3867 -0.7149,-2.3672 -1.9531,-2.9765 m -275.0313,-24.211 c 0.2735,-1.1094 -0.5781,-1.3711 -1.2344,-1.3594 -0.9687,0.01 -2.1054,0.098 -2.8359,0.6289 -0.4766,0.3282 -0.09,1.5313 0.7266,1.7579 1.2773,0.3632 2.4765,0.043 3.3437,-1.0274 m -215.6523,250.7305 c -0.4571,0.4883 -1.2578,0.9375 -1.3789,1.5273 -0.3203,1.5703 0.8086,2.3008 2.1523,2.4922 0.6524,0.09 1.9805,-0.3789 1.9688,-0.4414 -0.2383,-1.5781 -1.0274,-2.8281 -2.7422,-3.5781 m -43.64454,83.957 c 1.586,-0.3086 2.043,-1.4883 2.1758,-2.8594 0.1211,-1.2578 -0.6211,-2.1679 -1.7539,-1.7695 -1.3008,0.4492 -1.7617,1.9219 -1.8789,3.2422 -0.078,0.8086 0.6055,1.3398 1.457,1.3867 m 57.96094,-114.668 c -0.1563,-1.0585 -0.4063,-2.1992 -1.6797,-2.2421 -1.1602,-0.039 -2.0508,0.9609 -2.1836,1.9218 -0.1523,1.0899 0.8672,1.8594 1.9492,2.0899 1.3633,0.289 1.7578,-0.6602 1.9141,-1.7696 m -2.0586,-9.8984 c 1.9961,2.0664 3.5586,3.2266 5.4531,0.9688 0.5039,-0.6094 0.7227,-1.6211 0.047,-2 -1.75,-0.961 -3.2539,0.4101 -5.5,1.0312 m 10.9063,-85.8828 c -0.7266,0.1211 -2.043,-0.3398 -2.0625,1.1914 -0.012,1.2188 1.0742,1.6602 2.1367,1.7891 0.9687,0.1093 2.2265,0.3086 2.2695,-1.1602 0.043,-1.2695 -1.1602,-1.4883 -2.3437,-1.8203 m 129.8125,-110.8789 c -0.5157,0.1992 -1.3516,0.3203 -1.3868,0.5508 -0.2461,1.7109 1.0196,2.1875 2.3399,2.4492 0.414,0.078 1.2929,-0.25 1.289,-0.332 -0.1523,-1.3789 -0.7578,-2.4297 -2.2421,-2.668 m -83.8594,-12.3789 c -0.7031,-1.3711 -1.9024,-1.6016 -3.2539,-1.3594 -1.2344,0.2188 -1.7735,1.0274 -1.3321,2.1992 0.4414,1.1797 1.5938,1.25 2.625,1.1797 1.1563,-0.09 1.8164,-0.8515 1.961,-2.0195 m 384.5156,-1.9024 c 0.168,-1.2382 -0.793,-2.3086 -1.5078,-2.3281 -0.6953,-0.031 -1.8086,0.8985 -1.9063,2.0781 -0.07,0.8399 0.3164,1.5625 1.1133,1.7813 1.2617,0.3516 1.6992,-0.7695 2.3008,-1.5313 m -339.1367,21.5508 c 0.3164,3.6016 0.3164,3.6016 4.5664,3.8594 -1.793,-1.5078 -3.1797,-2.6797 -4.5664,-3.8594 m 71.707,-17.25 c 3.5742,-0.059 5.5234,-0.031 7.4609,-0.1679 0.7149,-0.051 1.6211,-0.3008 1.5078,-1.3711 -0.086,-0.7891 -0.5546,-1.8008 -1.371,-1.25 -1.8829,1.289 -4.5977,-0.4805 -7.5977,2.789 m -192.9218,269.3711 c -0.1211,-0.9805 -0.8633,-1.6523 -1.5429,-1.3906 -1.586,0.6094 -4.004,-0.02 -4.461,2.4609 -0.1601,0.8672 0.8242,1.5196 1.5117,1.2071 1.5274,-0.6993 3.9375,0.1914 4.4922,-2.2774 m 586.3359,-203.8789 c -0.8555,0.019 -1.6993,0.4688 -1.6563,1.2266 0.1211,2.1914 1.6602,3.0117 3.6367,2.9609 0.8008,-0.02 1.2696,-0.7695 1.1758,-1.6211 -0.207,-1.8672 -1.4101,-2.5781 -3.1562,-2.5664 m -559.6407,173.0586 c -0.2695,-1.3398 -1.2773,-1.4102 -2.2968,-1.1914 -1.1914,0.2695 -2.9063,0.3906 -2.9102,1.8594 0,1.3711 1.4609,2.1601 2.8203,1.9609 1.3242,-0.1875 2.2188,-1.1797 2.3867,-2.6289 m -29.9764,-12.3008 c 0.6992,2.711 3.2148,2.3516 5.0663,2.75 2.1484,0.461 2.9258,-1.3906 2.4648,-2.9492 -0.8008,-2.6914 -1.8554,-0.1719 -2.5273,0.2695 -1.7538,1.1407 -3.3085,-2.1015 -5.0038,-0.07 m 33.2069,-109.4101 c -3.2305,-1.668 -5.2734,-0.1797 -7.418,0.4804 -0.8945,0.2696 -0.9179,1.0508 -0.6093,1.8008 0.3632,0.9102 1.5078,1.1407 1.8203,0.6407 1.3867,-2.211 3.6054,-2.4805 6.207,-2.9219 m 63.1914,-101.668 c 1.2695,0.039 2.0859,-0.6133 1.9492,-1.8398 -0.1445,-1.3321 -0.8125,-2.6133 -2.2461,-2.9336 -1.5,-0.3282 -1.6484,1.0508 -1.8125,2.0234 -0.2656,1.5586 0.6172,2.4297 2.1094,2.75 m -89.2148,342.6484 c 2.4609,-0.789 5.375,-0.3984 5.3437,-3.8007 -0.016,-1.6993 -1.6367,-2.0196 -2.9258,-1.8907 -4.1562,0.4024 -1.2695,3.6602 -2.4179,5.6914 m 151.9687,136.6094 c -2.5547,-1.7695 -5.168,-3.0391 -8.4101,-0.3086 3.2226,1.9297 5.8164,1.0781 8.4101,0.3086 M 103.72353,505.09963 c 0.2188,-1.5313 -0.9258,-1.4805 -1.8125,-1.8985 -2.9258,-1.3711 -3.5195,1.0079 -4.3555,2.7188 -0.5078,1.0312 0.035,1.9687 1.3399,2.0703 2.3203,0.1797 3.8359,-1.0195 4.8281,-2.8906 m 44.71874,9.5898 c -6.0547,-4.1484 -6.0547,-4.1484 -8.6993,4.1406 2.9141,-2.4492 5.0586,-4.8984 8.6993,-4.1406 m 106.5742,-367.4883 c -0.3281,-1.1132 -1.1641,-1.8007 -2.1836,-2.0507 -0.9961,-0.2305 -4.4844,4.3906 -4.3438,5.7382 0.09,0.8516 0.8282,1.2696 1.6172,1.3516 1.586,0.1406 4.9492,-3.3594 4.9102,-5.0391 m 414.082,41.0079 c 2.7774,2.0507 5.7266,2.8007 8.7891,3.1406 1.0625,0.1094 2.1797,-0.07 2.3789,-1.3399 0.2461,-1.5781 -1.0078,-2.7695 -2.1719,-2.539 -3.0156,0.5976 -5.9805,0.8593 -8.9961,0.7383 m -64.7344,-30.7774 c -2.5937,-1.6133 -4.9609,-2.4101 -6.5039,0.098 -0.4258,0.6797 0.8555,3.4414 1.8907,3.8398 4.0664,1.5625 1.5585,-3.9375 4.6132,-3.9375 m -458.9023,345.418 c -0.1016,-1.6797 -1.168,-2.211 -2.5547,-2.4492 -2.5586,-0.4493 -4.0781,0.7187 -4.4258,3.1484 -0.1953,1.3711 0.4492,2.6523 2.1524,2.5391 2.2226,-0.1368 4.0234,-1.0469 4.8281,-3.2383 m -30.8398,2.332 c -2.664,1.75 -5.7929,1.9297 -5.6171,5.2578 0.1523,2.8399 2.125,4.3711 5.3945,4.2188 0.07,-2.9883 0.1328,-5.7383 0.2226,-9.4766 m 135.0234,-351.4609 c -1.332,5.6601 2.8555,6.7109 5.6015,8.6679 1.6836,1.211 3.1602,0.1719 3.8907,-1.289 1.1328,-2.2617 -1.6836,-3.0196 -2.2852,-2.8203 -3.9258,1.332 -5.0547,-2.1094 -7.207,-4.5586 m 213.418,519.9492 c -1.6602,1.1094 -5.004,-0.7695 -5.3555,2.6601 -0.2617,2.5079 1.7461,2.8711 3.6836,2.6485 2.1211,-0.2383 4.1914,-0.8281 4.3281,-3.5195 0.094,-1.8399 -1.1992,-1.9688 -2.6562,-1.7891 m -178.5704,0.25 c 0.5352,0.1797 1.2696,0.3711 1.9454,0.6914 1.875,0.8789 2.0781,-0.5703 2.5625,-1.7422 0.8398,-2.0195 -0.7032,-1.9805 -1.9063,-2.3789 -1.2187,-0.4023 -2.6875,-1.6797 -3.5039,-1.3203 -1.7383,0.75 -4.4102,1.4805 -3.9063,4.1289 0.4102,2.1719 2.3555,1.4023 3.8477,0.9805 0.25,-0.07 0.4922,-0.1797 0.9609,-0.3594 m 201.2852,-533.6797 c -0.012,-1.9687 -1.1875,-3.4414 -3.4609,-4.7109 -1.961,-1.0977 -3.9063,-1.3985 -5.9141,-0.3203 -0.6875,0.371 -0.9805,1.0507 -0.7734,1.9296 0.582,2.4922 6.3437,6.25 8.582,5.4805 1.043,-0.3594 1.5859,-1.2305 1.5664,-2.3789 m 42.0469,530.9688 c -6.7539,-2.129 -18.9532,-0.9688 -23.7969,2.2109 8.1836,1.0703 15.4492,-1.6992 23.7969,-2.2109 M 87.91883,487.20143 c -1.9219,-3.0312 2.1172,-7.0429 -1.0273,-8.9101 -2.3867,-1.4297 -5.7344,-2.1094 -9.1367,0.5 3.6836,3.0469 6.9257,5.7305 10.164,8.4101 m 593.66794,-177.8515 c -1.082,-4.7305 -5.7149,-4.7617 -8.8711,-6.5899 -1.5742,-0.9101 -6.0977,3.3203 -6.1758,5.3711 -0.047,1.1602 0.3008,2.0078 1.4453,2.4571 1.043,0.4218 2.6094,0.5234 2.7617,-0.3985 0.9532,-5.9101 3.4415,-1.3281 5.4532,-1.039 1.7187,0.2382 3.5195,1.1875 5.3867,0.1992 m -556.543,180.8711 c 0.1992,-3.0196 -1.0469,-5.6914 -3.6484,-6.2813 -3.9141,-0.8984 -8.0819,-1.0195 -12.1171,-0.8594 -1.3281,0.051 -1.8438,2.3907 -1.875,3.9493 -0.012,0.539 1.0547,1.6406 1.4062,1.5586 5.5821,-1.3086 10.582,3.2617 16.2343,1.6328 m -61.58974,-66.2227 c 4.332,2.8125 8.3398,-2.457 13.0469,-1.2773 1.2539,0.3203 2.3867,-1.0508 2.3945,-2.5313 0.01,-1.289 -0.168,-2.6992 -1.5508,-3.3711 -2.7227,-1.3203 -6.9297,-2.2304 -8.1992,-0.5 -2.6602,3.6016 -5.9141,4.4024 -9.7031,5 -0.75,0.1211 -1.336,0.8321 -1.0625,1.7813 0.2265,0.8008 0.7382,1.4883 1.582,1.4687 1.0234,-0.02 2.0469,-0.3086 3.4922,-0.5703 m 630.11324,-90.5664 c -3.6133,2.7774 -7.9532,2.4492 -12.2618,2.418 -0.7578,0 -1.5117,0.4609 -2.2812,0.5508 -3.4258,0.4296 -4.1367,3.0195 -4.1641,5.6992 -0.023,2.1289 4.2774,4.082 6.9258,3.3515 0.9922,-0.2695 1.9766,-0.7031 2.8594,-1.2421 1.9297,-1.168 2.3867,-3.211 3.1328,-5.1797 1.1016,-2.9297 3.9062,1.3398 5.25,-0.9297 0.7148,-1.2188 2.2109,-2.4102 0.5391,-4.668 m -564.8321,81.1563 c -8.1211,1.582 -15.8124,-2.2696 -23.00774,3.1836 5.70314,2.5468 9.94534,6.5976 14.45304,10.289 0.8868,0.7305 1.6446,1.3477 2.6914,0.668 1.379,-0.8906 1.3516,-2.2774 0.5274,-3.4297 -1.125,-1.5703 -1.4961,-4.1406 -4.4844,-3.5391 -2.25,0.4414 -2.5195,-1.2617 -2.7108,-2.9297 3.5546,-2.2617 8.5741,1.5782 12.5311,-4.2421 m 287.5782,262.6406 c 1.0976,3.0312 3.621,3.4023 4.8046,3.2226 6.4766,-0.9414 12.9688,0.6485 19.3399,-0.3828 2.1015,-0.3476 4.164,-0.02 6.1836,-0.4883 1.3398,-0.3085 2.5312,-0.9609 2.3086,-2.5898 -0.2188,-1.5586 -1.4024,-2.0703 -2.8711,-1.9922 -1.543,0.09 -3.2031,-0.289 -4.4805,0.9805 -1.2969,1.3008 -2.7773,1.3594 -4.3242,0.6094 -7.1406,-3.4688 -13.668,1.4804 -20.9609,0.6406 m -296.2266,-211.2578 c 1.1719,-1.5508 3.5703,-1.3008 3.5156,-3.9727 -5.2109,-1.4687 -10.4022,-5.9297 -15.6952,0.4727 -0.2734,0.3281 -1.1133,0.6484 -1.33204,0.4883 -3.9297,-2.879 -6.0157,1.9726 -9.1992,2.1601 -1.7852,0.1016 -2.004,1.3789 -1.7305,2.8008 0.2383,1.2305 1.0976,1.5508 2.3047,1.5312 3.3945,-0.051 6.8281,1.1993 10.16404,0.1602 2.0664,-0.6406 3.625,-0.5703 4.8125,1.2578 1.2461,1.9219 1.7735,3.7188 -0.5312,5.4805 -2.3477,1.7812 0.043,3.2695 1.0547,3.0508 4.285,-0.9297 8.7147,1.5898 12.9452,-0.8907 1.5586,-0.9101 4.5586,0.5313 4.6523,-2.789 0.09,-3.0391 -0.4375,-5.7617 -4.0195,-6.7696 -2.1992,-0.6132 -4.7734,-0.3515 -6.9414,-2.9804 m 12.0898,-12.8907 c -1.2656,3 -0.098,5.1211 2.6641,6.2305 2.1133,0.8477 4.7734,0.1211 5.3398,-1.8125 0.6329,-2.168 2.0079,-5.2773 0.1094,-7.0664 -2.1992,-2.0625 -4.039,1.1992 -6.1484,1.7774 -0.7266,0.1992 -1.3672,0.7226 -2.043,1.1015 -2.5391,-0.6211 -4.5976,-2.75 -7.4219,-2.4414 -7.5781,0.8399 -15.1405,1.4024 -22.80064,0.9102 -6.1602,-0.3985 -9.1524,2.5117 -10.3399,9.7109 2.4063,-4.3008 5.4492,-4.9922 9.5039,-2.8711 1.0547,0.5625 2.9844,-0.5586 4.5156,-0.9101 5.79304,-1.3204 11.40234,-3.3711 17.62104,-2.1993 3.0547,0.5703 6.168,-0.9492 9,-2.4297 m 553.4844,-134.1718 c 0.8906,-0.1172 1.2969,0.5 1.7578,1.1015 0.4844,0.6211 1.1055,1.1797 1.7813,0.2696 0.2617,-0.3399 0.4101,-1.0196 0.2461,-1.3789 -0.3789,-0.8399 -1.0547,-0.5899 -1.793,-0.3008 -0.6797,0.2617 -1.4688,0.2383 -2.207,0.3398 -0.1407,-1 -0.035,-2.7187 -0.4649,-2.8711 -2.0703,-0.707 -4.2812,-1.0273 -6.4609,-1.3672 -0.1719,-0.031 -0.6094,0.7891 -0.6953,1.2579 -0.1446,0.8125 0.1211,1.4804 1.0898,1.6406 2.2305,0.3711 4.7266,-0.5391 6.7461,1.3086 m 38.4961,-87.7578 c 1.957,3.1093 4.4063,5.5 4.8438,9.9375 0.2851,2.9218 0.6757,5.8007 -0.629,7.9531 -3.5156,5.7695 -7.3867,10.9101 -14.0195,14.3594 -5.6406,2.9296 -11.8047,5.0312 -17.0469,8.8086 -2.1367,1.539 -4.5429,2.2812 -7.3242,2.5312 -4.8437,0.418 -5.8047,2.1406 -3.9297,6.8203 0.7149,1.7774 1.8438,3.1797 0.6211,5.0586 -2.5468,3.9492 -2.207,5.3516 1.5078,9.0391 3.0118,2.9922 5.9493,6 9.8282,7.9297 1.9804,0.9804 2.8476,2.5937 1.0078,4.3632 -0.875,0.8399 -1.086,1.5899 -1.1641,2.6797 -0.2578,3.4805 0.9688,4.5703 4.0508,3.4492 2.6484,-0.9687 2.7617,-1.0703 5.0859,1.668 2.3164,2.7227 5.5782,3.043 8.6211,3.4531 3.2422,0.4493 4.6016,1.918 4.5782,5 -0.016,2.3789 0.6015,5.0079 -0.2032,7.0782 -2.8984,7.4609 1.9453,13.6406 2.8282,20.4414 0.3867,2.9492 5.621,1.1992 5.0312,5 -0.3633,2.3398 -1.3477,4.5781 -1.668,6.9179 -0.2695,1.9493 10.086,12.3321 12.043,12.1914 1.5156,-0.1093 3.5039,0.1602 4.2148,-1.5585 0.7618,-1.8399 -0.746,-2.8907 -2.2031,-3.6211 -1.7148,-0.8594 -3.6758,-1.6211 -2.0625,-4.0313 1.6758,-2.5078 4.0938,-2.3711 6.2617,-0.9492 1.7071,1.1211 2.6993,3.0781 4.3594,4.4492 2.4141,1.9805 -1.0859,3.6289 -1.0195,5.5117 0.207,5.7696 -1.1602,11.6485 1.2383,17.3008 2.789,6.5586 -1.6602,19.168 -8.1328,22.5078 -3.0352,1.5586 -5.6094,3.6016 -8.2071,5.711 -8.5312,6.9296 -8.6328,7.3007 -4.2226,17.1679 0.3164,0.711 0.5976,1.4414 0.8867,2.1524 -4.9766,3.9687 -5.0625,4.0078 -2.1719,10.1093 0.832,1.7579 0.4102,2.9883 -0.5195,4.3711 -2.5313,3.75 -5.5664,6.9688 -9.4297,9.418 -2.8711,1.832 -5.6602,3.832 -7.5586,6.7813 -0.4414,0.6796 -0.7773,1.4492 -0.074,2.1484 0.8359,0.8398 1.4023,0.2422 1.8516,-0.4805 0.5703,-0.9297 1.3984,-0.9687 1.8789,-0.1797 2.8203,4.6914 6.8867,3.5118 11.125,2.7813 7.3867,-1.2813 12.5664,3.2617 17.2539,7.8203 2.3008,2.2305 4.3476,4.5781 7.3437,5.7695 1.9024,0.7618 4.4571,0.6407 4,3.7891 -0.3906,2.6719 -1.7578,4.3516 -4.625,4.5508 -0.9687,0.07 -2.0703,-0.2617 -2.8672,0.6914 0.293,5.5781 5.9805,-1.5703 6.9336,3.789 -5.2695,-0.6093 -10.3359,0.07 -15.4375,-1.2109 -2.7929,-0.7109 -4.1289,0.3594 -2.6953,3.3789 0.4453,0.9531 0.7344,1.9727 1.0391,2.9805 1.3672,4.5312 0.789,5.4726 -4.1992,6.4609 -1.3594,0.2617 -2.5469,0.6485 -3.5664,2.0508 1.3125,3.4805 5.375,1.8594 7.5585,3.7695 -1.7968,0.9414 -4.3867,-0.1289 -5.5351,2.3399 1.2422,1.8515 3.3359,0.2304 5.0156,1.3711 3.8789,2.6289 4.1563,3.0195 1.2461,7.3476 2.1524,2.5313 8.2422,-1.2968 8.0742,4.961 v -0.059 c -2.7851,7.6406 -8.25,12.7773 -16.3906,16.3281 3.5469,2.7422 6.6016,1.9609 9.4414,1.2617 2.7813,-0.6914 5.5391,-1.6797 8.1055,-2.9492 2.5312,-1.2617 3.3593,0.4297 4.289,1.9687 1.1328,1.8594 0.7422,3.5313 -1.2031,4.6797 -0.4414,0.2696 -0.9648,0.3985 -1.4648,0.5586 -9.0586,2.9219 -18.6368,2.4102 -27.9805,4.5313 1.9453,-3.1094 0.6914,-8.0703 7.1875,-7.5703 -2.8359,-3.4493 -5.5625,-3.2188 -7.9609,-3.5899 -1.3125,-0.1992 -2.8633,0.1914 -2.2813,2.0899 1.1367,3.7109 -0.039,2.8085 -2.2734,1.4492 -0.8633,-0.5274 -1.7813,0.8008 -1.6133,2.0312 0.3437,2.5391 0.75,5.0781 1.125,7.5586 -3.8125,1.6719 -7.5899,0.051 -11.1289,1.0625 -1.6875,0.4883 -3.2305,1.5391 -2.3672,3.2891 0.6875,1.4101 2.1914,3.2109 4.3242,1.3711 0.5781,-0.5 0.9649,-1.4219 1.6055,-1.6211 1.7031,-0.5 3.914,-1.3399 4.7461,0.9687 0.6133,1.6992 -0.793,2.7617 -2.5703,3.2227 -0.9766,0.2578 -1.8203,1.0273 -2.711,1.5781 -1.3281,0.1016 -2.6445,0.4219 -2.1679,2.1289 0.2968,1.0899 1.5507,1.5195 2.414,0.8008 1.3203,-1.0781 0.4688,-2.1875 -0.4804,-3.1211 5.2656,-0.6484 4.5,6.4023 8.8398,6.9336 -0.4336,1.1289 -2.3984,0.1484 -2.4766,2.1172 -0.1367,3.3711 -3.1797,5.3828 -4.4414,8.2695 -2.4336,-1.4375 -5.0078,-1.2187 -7.6758,-0.8789 -1.2421,0.1602 -2.6757,-0.7109 -3.832,-0.3984 -2.3476,0.6172 -4.2344,1.4492 -3.289,4.957 2.2578,8.3906 6.9531,13.9336 15.7695,15.3398 0.7539,0.1211 2.0664,0 2.039,0.5313 -0.2187,4.6719 6.875,4.7891 5.9961,10.082 -0.3359,2.0078 2.6875,2.1797 4.211,3.0586 1.8594,1.0586 2.8242,-0.2617 3.4531,-1.9609 0.4336,-1.168 1.3086,-1.7774 2.1406,-0.3985 0.711,1.168 1.3711,2.2305 2.7578,2.6485 1.0118,0.3008 2.0391,0.6094 2.5977,1.7695 -2.0156,2.9805 -2.8477,7.2422 -8.5625,4.9531 -2.7227,-1.0898 -4.3086,2.1602 -3.625,4.6368 1.4414,5.2421 -1.0469,6.4609 -5.5195,6.9726 -3.3789,0.3906 -6.6641,1.6094 -9.9844,2.4883 -2.4649,0.6523 -3.7656,1.0508 -4.3359,4.7617 -0.6915,4.5391 -6.5625,6.1485 -11.0938,7.2891 -3.5625,0.8906 -7.3242,0.9804 -12.3633,1.5898 3.5469,3.6914 6.4531,1.6289 9.1328,1.2305 1.2461,-0.1797 1.9649,0.5508 2.4024,1.5781 0.289,0.6719 0.6836,1.6133 -0.4258,1.8516 -3.9648,0.8594 -6.5938,5.1679 -11.2656,4.2695 -1.2657,-0.25 -2.6367,0.031 -4.0117,0.082 -0.168,1.6289 2.0078,1.3477 2.2031,3.4297 -1.4102,1.168 -3.4414,0.8398 -5.3047,0.7188 -14.2227,-0.9883 -28.4453,-1.8204 -42.7031,-2.2891 -8.9219,-0.3008 -17.7891,-2.1016 -26.7149,-2.5117 -7.5078,-0.3477 -15.0117,-1.0586 -22.6133,0.3906 -13.4257,2.5703 -26.6445,6.3594 -40.375,7.25 -1.2851,0.09 -2.6367,0.3789 -3.7929,0.9297 -4.8086,2.2695 -9.8477,2.8398 -15.0782,2.3984 -11.1601,-0.9375 -22,2.1016 -33.0351,2.793 -1.668,0.098 -3.1484,0.3906 -4.4336,-1.75 6.2344,-3.2305 13.7891,-1.8516 19.8594,-5.0899 -0.5274,-3.0312 -2.4102,-2.121 -3.7578,-2.0898 -6.6172,0.1602 -13.2383,0.3789 -19.8555,0.6172 -1.3164,0.051 -2.6758,0.07 -3.9375,0.4023 -1.8555,0.4883 -3.5625,1.3907 -3.5508,3.6797 0.016,2.9492 2.4063,2.0977 4.0664,2.4375 0.4961,0.1016 0.9453,0.4219 2.0742,0.961 -6.8164,3.5 -14.125,2.332 -20.6914,4.3515 -1.9609,0.5977 -6.0234,-2.0312 -5.2265,3.168 -3.0039,1.3828 -5.9375,0.4414 -9.1953,0.1328 1.1171,-1.4805 2.9335,-0.2305 3.7578,-2.5312 -7.6953,-0.3008 -15.1524,-0.5196 -22.6172,0.3984 -2.1016,0.2617 -4.2813,0.3516 -6.2617,1 -4.461,1.4922 -7.6133,-0.3867 -8.5196,-4.3399 -0.7422,-3.2382 -2.7617,-3.789 -4.9414,-4.0468 -3.9258,-0.4727 -8.0937,-1.1524 -11.8515,-0.3321 -7.2891,1.5899 -14.6758,0.6016 -21.8477,1.5508 -14.8125,1.961 -29.707,1.461 -44.5234,2.6211 -1.6914,0.1289 -2.9414,1.0977 -4.3164,1.8672 l 0.1718,-0.1172 c -1.7812,-0.3828 -2.2695,-1.793 -3.0468,-3.2305 -0.918,-1.7109 -3.8829,-2.75 -4.6875,-1.7617 -3.0079,3.6992 -6.2579,0.7188 -9.3164,0.9688 -2.7891,0.2422 -5.629,-1.2578 -8.4024,0.9023 -1.0117,0.7891 -3.4766,0.8985 -4.5508,0.1992 -4.1601,-2.6914 -8.1289,-4.2304 -12.6875,-0.9687 -0.5937,0.4297 -1.7734,0.09 -1.8281,-0.8906 -0.2422,-4.5508 -3.8906,-2.3711 -5.0312,-1.8321 -8.1719,3.8711 -13.961,-0.1484 -18.6055,-5.8593 -2.7774,-3.4102 -5.7969,-4.918 -9.8164,-5.7383 -6.3047,-1.3008 -11.7071,-4.1211 -15.418,-10.6016 9.2813,-0.02 17.2305,2.7891 26.2188,4.0703 -4.6836,-5.8086 -9.6875,-7.9804 -16.0196,-7.4414 -2.3047,0.1914 -4.8554,0.1211 -6.8984,-1.3789 -6.3477,-4.6601 -13.5938,-6.5195 -21.3008,-6.9492 -3.1172,-0.1719 -5.5351,-1.7617 -7.5391,-3.8516 -3.7812,-3.957 -3.6914,-4.039 -8.0898,-4.7382 2.582,-2.8594 5.8125,-1.2696 8.6797,-1.6016 1.1289,-0.1289 2.0273,-0.6094 1.9062,-1.9375 -0.074,-0.8516 -0.6992,-1.6524 -1.4687,-1.5703 -5.0742,0.4687 -7.6289,-2.8906 -11.1133,-5.7891 -2.4726,-2.0625 -7.4062,-4.9805 -11.7812,-0.2226 -0.9141,0.9921 -4.7696,1.7695 -7.9922,1.0898 -4.6367,-0.9805 -9.6328,-0.4687 -14.2227,-2.3203 -1.457,-0.5781 -3.5898,-1 -4.125,-2.1172 -2.5469,-5.3125 -7.2695,-5.2109 -11.9492,-5.4297 -4.6445,-0.2226 -8.4492,-1.6601 -11.9414,-5.1836 -4.9922,-5.0273 -9.5977,-10.6289 -15.9843,-14.1289 -0.457,-0.25 -1.0859,-0.5195 -1.2461,-0.9375 -2.3711,-6.2422 -6.37114,-11.0117 -11.84374,-14.9219 -2.2891,-1.6406 -0.8789,-4.6211 2.207,-4.9179 2.8633,-0.2813 5.7773,-0.031 8.67194,-0.012 1.7304,0 3.4609,-0.5391 3.5625,-2.3907 0.1484,-2.5781 -2.1992,-2.4609 -3.9414,-2.7109 -1.211,-0.168 -2.49224,1.1328 -3.70714,-0.1094 -0.047,-2.039 2.44144,-2.4492 3.30084,-4.2383 -3.43754,-1.3007 -6.22264,0.09 -9.16794,0.019 -4.1329,-3.9609 1.7968,-8.5703 -0.4493,-12.832 -0.1211,-0.2187 1.3008,-1.5 2.1719,-1.9687 1.7852,-0.9493 4.1563,-0.7383 5.7852,-3.0196 -2.2071,-0.9297 -4.1133,-0.1992 -5.9961,0.2617 -2.0821,0.5079 -4.2383,1.0782 -6.2696,0.2774 -12.289,-4.7891 -25.414,-4.1602 -38.1601,-5.918 -4.4492,-0.6211 -8.8399,-1.6719 -13.4141,-1.582 -6.7031,0.1211 -9.7695,-6.0899 -14.7383,-9.0508 -6.8398,-4.0703 -7.6718,-12.2969 -13.9336,-18.9687 5.1602,0.789 8.1719,1.539 11.2071,1.6406 4.2851,0.1289 5.6406,-1.4102 5.3242,-5.9414 -0.1445,-2.0196 0.2891,-2.8281 2.3125,-3.1406 2.1406,-0.3282 4.1914,-0.25 6.2812,0.2226 2.0665,0.4688 4.4649,1.6875 6.1797,1.0703 5.2852,-1.8906 7.8828,1.2774 10.8711,4.5 3.3633,3.6172 4.6211,3.5391 7.7305,-0.2109 0.8047,-0.961 0.9492,-2.4805 3.3398,-2.7617 -1.1445,2.832 -1.2773,5.5 1.8946,6.8515 0.8672,-0.289 1.3633,-0.9492 1.1992,-1.789 -0.7227,-3.8321 1.1953,-4.8828 4.4766,-4.1407 3.0898,0.6993 6.1875,2.1289 8.2812,-1.7109 0.3242,-0.5898 1.0508,-0.8281 1.1563,-0.4297 2.0546,7.7695 2.1406,-1.3984 3.9218,-0.4883 3.1836,1.6172 4.3008,-1.9609 6.4532,-3.3125 -1.3516,-2.2187 -3.1836,-2.0976 -5.3868,-2.1875 -6.7695,-0.3007 -13.7304,0.3477 -20.1172,-2.8711 -0.6406,-0.3203 -1.5976,-0.539 -2.2226,-0.3007 -10.2461,3.8086 -20.4219,-1.0899 -30.6367,-0.2305 -0.9844,0.09 -2.1094,-0.3086 -3.0078,-0.7774 -0.5977,-0.3125 -1.1641,-1.1132 -1.293,-1.7812 -0.1602,-0.832 0.625,-1.6289 1.3711,-1.6094 6.5117,0.1485 12.4297,-4.2109 19.4726,-1.7617 2.9922,1.0391 7.0547,-1 10.7071,-1.6602 -1.9219,-5.1093 -6.7774,-2.0507 -9.6407,-4.3007 -3.039,-2.3985 -5.8632,-0.6602 -9.2304,0.5195 -4.4727,1.5625 -10.3164,4.2617 -14.3281,-2.5586 4.4492,-3.8984 9.4843,-6.4805 15.2382,-7.3906 11.7461,-1.8594 23.5391,-3.3594 35.4219,-4.0586 1.7109,-0.1016 4.1992,0.8711 4.6563,-1.6719 0.4687,-2.5586 0.4765,-5.457 -3,-6.3789 -1.3008,-0.3477 -2.961,-0.6602 -3.0469,-2.0977 -0.3516,-6.0117 -5.082,-5.3007 -8.7617,-5.6328 -3.9141,-0.3476 -7.9024,-0.027 -11.8477,0.1914 -1.4336,0.078 -2.2891,1.1797 -2.1953,2.7383 0.082,1.4219 1.3008,1.4805 2.2617,1.7422 3.7578,1.0195 7.8828,-0.5898 12.1953,1.8906 -3.3789,2.4375 -6.5156,3.3789 -10.2148,2.1993 -2.4961,-0.8008 -4.9688,-1.6797 -7.4922,-2.3516 -1.7109,-0.4492 -3.1875,-1.2305 -2.9063,-3.0977 0.6407,-4.2734 -2.1132,-6.1914 -5.0468,-8.1523 -1.0508,-0.6992 -2.4922,-1.5977 -0.9492,-3 2.3281,-2.1094 0.4257,-3.0078 -0.9024,-4.3086 -5.2031,-5.0703 -4.5312,-10.5313 1.3047,-14.6719 2.6133,-1.8476 6.5547,-2.3086 7.2617,-6.6094 0.1836,-1.0898 2.8164,-1.6796 1.5078,-3.6875 -1.2031,-1.8515 -1.0195,-4.3437 -3.8437,-5.4804 -4.5781,-1.8516 -5.0508,-3.3711 -2.4024,-7.0821 2.4219,-3.3984 4.0938,-6.5507 4.6719,-11 0.4258,-3.2578 4.5039,-6.1875 7.25,-8.9687 1.8281,-1.8594 3.9922,0.2891 5.9922,0.4492 3.5469,0.2813 7.1719,2.3086 8.8359,-3.0312 0.4805,-1.5391 2.6563,-1.5196 4.0821,-2.168 1.1523,-0.5195 3.2343,-0.582 3.0742,-2.0195 -0.6524,-5.8907 3.5859,-5.1797 6.6484,-4.6328 4.6641,0.8398 9.3789,-3.7071 13.9141,0.3203 0.1797,0.1601 1.7734,-0.6485 1.7695,-0.9883 -0.1133,-7.7188 5.53524,-5.2813 9.75394,-5.8399 4.8007,-0.6406 9.6952,-1.4414 14.2304,-3.0507 5.9648,-2.1289 5.8516,-2.5079 3.8672,-9.3516 -0.3594,-1.25 -0.9024,-2.1172 0.3476,-3.4688 3.1368,-3.3789 3.0743,-3.789 -1.1914,-5.0507 -1.8281,-0.5391 -3.3515,-1.3868 -2.9297,-2.8672 1.4414,-5 -2.4257,-6.1602 -6.707,-8.1719 5.0938,-1.8398 8.207,-4.9883 12.9649,-4.3203 1.7304,0.2422 3.8593,-0.3594 4.2382,-2.6797 0.4336,-2.6289 -0.7422,-4.7109 -2.9804,-5.9883 -1.6446,-0.9414 -3.5508,-0.4922 -5.461,-0.3398 0.5391,-3.3008 -0.035,-6.1211 -2.6562,-8.5117 -2.3125,-2.1016 -1.6524,-4.211 0.8359,-5.8516 0.8711,-0.5781 1.7344,-1.1563 2.6016,-1.7383 3.1719,-2.0898 7.3828,-3.7617 2.3398,-8.3515 -1.0117,-0.918 -0.4179,-2.8086 0.9805,-4.0079 3,-2.5507 2.8945,-2.4804 -0.2422,-3.8593 -5.6797,-2.4922 -11.3789,-5.543 -13.918,-11.3516 -2.0234,-4.6211 -4.9881,-6.5898 -9.4686,-6.4805 -5.41024,0.1407 -7.37114,-2.7187 -7.79304,-8.0195 9.24224,0.6406 18.39444,-2.6094 27.70694,0.6094 2.0899,0.7304 4.793,1.25 7.5391,0.4804 4.2461,-1.1992 5.4219,-2.5703 3.5,-6.3984 -1.2695,-2.5312 -3.1562,-4.6601 -5.2773,-6.1914 -2.7266,0.9805 0.3672,3.1719 -2.0391,4.3711 -3.457,-3.4609 -9.1758,-0.8789 -13.1406,-4.3008 -0.059,-0.051 -0.4414,0.3789 -0.6289,0.3516 -2.7071,-0.4805 -2.0782,-2.9219 -2.3907,-4.5703 -0.3046,-1.6328 1.4883,-4.0703 -2.535,-2.8203 -1.4883,0.4609 -3.8438,-1.5 -3.9141,-4.0391 -0.039,-1.3711 0.5899,-2.4805 1.586,-3.4922 2.3945,-2.418 4.6796,-4.9492 6.828,-7.2383 0.1172,-3.3125 -4.4569,-1.9101 -4.4491,-5.4297 3.0741,-1.2929 6.871,-1.2226 8.6678,0.9883 4.1211,5.0899 6.336,0.7617 9.6836,-1.2695 -2.5312,-0.6719 -4.7265,-1.8008 -6.8789,-1.7188 -7.1562,0.2696 -9.8906,-5.8398 -14.1327,-9.6015 -1.3281,-1.1719 -3.8242,-3.3086 -1.9375,-6.1914 0.3633,-0.5469 0.3711,-1.5586 0.1563,-2.2188 -2.211,-6.8398 -2.2461,-7.3515 2.789,-11.0117 3.8202,-2.7695 7.8671,-4.9766 12.5195,-6.5586 12.9687,-4.4102 26.4023,-5.168 39.8046,-6.3789 1.2618,-0.1094 2.9961,-0.09 3.7852,0.6406 4.0664,3.7891 8.3359,3 12.1914,0.3203 3.0586,-2.1328 5.625,0.2969 8.9961,-0.1601 0.2266,-2.461 -1.0703,-5.5 2.3281,-7.3633 1.875,-1.0195 0.418,-3.0781 -1.4336,-2.9766 -4.2343,0.2266 -8.4414,0.5899 -12.6601,-0.1015 -1.2539,-0.211 -3.2617,-0.1211 -3.0547,-1.7383 0.8437,-6.5625 -4.0117,-7.5508 -8.3906,-8.8203 -2.1289,-0.6133 -3.1953,-1.4102 -3.1094,-3.7227 0.1172,-3.207 2.2695,-3.1601 4.4492,-2.8984 3.9492,0.4609 7.0078,-2.1719 10.6016,-2.9219 1.3789,-0.2891 2.4648,-1.2383 2.2617,-2.7891 -0.207,-1.5585 0.07,-2.8007 1.7539,-2.8203 2.3281,-0.01 0.6367,2.0899 1.3086,2.9805 1.1211,1.4805 2.4414,3.1914 4.3398,3.0508 2.1446,-0.1602 3.0508,-1.832 2.4961,-4.082 -0.4609,-1.8672 0.8477,-1.4297 1.8555,-1.3086 3.8008,0.4414 7.1602,-1.0391 10.5156,-2.461 1.4961,-0.6406 2.8867,-1.1094 4.5664,-0.5781 5.625,1.7812 11.4336,-0.4023 17.1328,0.7383 0.6875,3.082 -2.1953,3.9804 -3.8086,5.2617 -2.8046,2.2187 -5.914,3.7891 -6.1406,8.0703 -0.1211,2.3594 -3.3359,0.7891 -4.5586,2.9297 1.6407,2.4609 2.0782,6.2305 6.4414,6.4883 0,-0.01 -0.1523,-0.1992 -0.1523,-0.1992 -1.5703,6.5898 2.7226,9.25 8.0078,11.5898 -3.0625,-4.9687 1.6367,-9.4414 0.3633,-14.1992 l -0.2812,0.1797 c 2.1172,0.5586 4.4141,4.3516 6.2305,-0.3515 1.8437,1.7929 4.0039,-0.8399 5.8476,0.3125 1.168,2.3789 -1.2617,3.2578 -1.8086,4.8593 -0.5507,1.6094 -0.4218,3.1602 1.3282,4 6.9414,3.3008 7.3515,4.0508 5.6679,11.4688 2.4922,-1.4297 5.0352,-2.3281 6.7266,-4.0586 1.2773,-1.3008 4.668,-3.6523 -0.8164,-5.2109 -3.1914,-0.9102 -4.6172,-5.1797 -5.9727,-8.4688 -0.7578,-1.8203 0.6172,-3 2.1094,-3.7109 3.5781,-1.7305 2.8789,-4.6992 2.1328,-7.5196 -0.2968,-1.1289 -0.9961,-2.6992 -2.6367,-2.3906 -1.6172,0.3008 -1.8945,1.5313 -1.3164,3.0313 0.4883,1.2578 -0.168,1.9804 -1.3594,2.2304 -0.8984,0.1797 -1.3476,-0.5117 -1.8984,-1.1015 -5.1914,-5.5391 -5.2149,-5.5586 -11.7383,-2.5313 -1.1094,0.5117 -2.1016,0.6914 -2.7148,-0.3789 -0.6875,-1.2109 -0.9688,-2.289 1.1406,-2.8086 3.2656,-0.7812 5.3476,-5.4297 9.6562,-2.9726 1.8711,-5.168 4.6524,-3.6485 7.8086,-1.2188 0.9727,0.75 2.5391,-0.3594 2.0899,-1.2695 -1.418,-2.8789 0.9492,-2.5703 2.2851,-3.3594 2.7344,-1.6289 5.6993,0.1602 8.5586,-0.8515 2.6758,-0.9297 5.0938,-0.7696 3.0742,3.332 -0.7304,1.4687 1.25,2.0586 1.8008,3.1172 1.5274,2.9531 1.9844,5.7109 -3.9023,6.0429 3.6328,2.4375 6.1797,3.0704 8.2148,0.75 1.5,-1.7109 0.4141,-3.7304 -0.6953,-5.7226 -3.1172,-5.6289 -1.9844,-9.0586 3.6016,-8.3985 8.8554,1.0704 16.8828,-2.6796 25.4609,-2.4218 3.1485,0.1015 6.2031,0.3125 7.5742,3.1133 1.5157,3.0976 4.1836,1.25 6.0664,2.289 3.4219,1.8906 2.6758,-2.0312 4.0157,-2.7812 1.8398,-1.0313 3.0507,-2.9883 6.0937,-2.6289 6.8985,0.789 14.0742,2.3203 20.6992,-1.5821 4.2032,2.711 7.6055,-0.6679 11.3516,-1.1172 3.4531,-0.4101 7.7227,0.6485 11.4453,1.6485 3.8086,1.0312 6.6524,-0.8516 9.8555,-1.8281 l -0.2071,0.1992 c 2.8672,-1.3711 5.2891,-3.3203 8.8282,-0.2891 1.6328,1.3984 5.0312,1.457 8.1797,0.8789 6.8476,-1.2617 14.0781,-0.4726 20.9101,-1.7812 14.5781,-2.8008 29.5469,-0.6485 44.0313,-4.0196 9.5234,-2.2187 19.2539,-2.2695 28.9492,-2.6289 1.0586,-0.031 2.375,0.2891 3.1328,-0.2109 6.4805,-4.3203 11.8047,0.5312 17.5703,1.9297 -3.8047,1.4883 -7.2578,-2.4297 -11.1211,-0.4492 -0.3476,0.6601 -0.2187,1.5 0.3633,1.9804 2.168,1.7891 -1.4336,4.8907 1.4805,6.3594 2.3828,1.2109 4.9648,1.8398 7.6406,1.9492 6.7383,0.2696 13.0391,3.3906 19.9883,2.6406 11.4531,-1.2421 22.8789,0.9415 34.3984,0.6094 8.2813,-0.2383 16.6172,2.5821 25.0625,2.8086 10.0977,0.2813 19.9766,2.9531 30.1211,2.6016 0.2656,-0.019 0.5352,-0.012 0.793,0.039 7.2812,1.5625 14.125,5.8008 22.3867,2.1914 -0.8633,6.1406 -4.0352,6.9492 -7.6172,5.5508 -3.6602,-1.4414 -6.957,-1.2813 -10.2969,0.3789 -3.2695,1.6211 -3.5468,3.4101 -1.0429,6.0195 2.1523,2.25 4.9921,3.6719 6.6406,6.6016 1.25,2.2304 3.293,-1.8594 4.8203,-0.2813 5.8477,6.082 13.043,3.0703 19.7344,3 5.1875,-0.051 5.1875,-0.3281 3.4336,-5.8906 5.9453,-3.3086 10.6367,1.0703 16.625,2.0703 -3.4297,2.3203 -6.5352,-0.7891 -9.418,1.6289 0.3086,3.082 3.4492,3.7734 5.4414,4.6016 6.6016,2.75 13.3516,5.1211 20.7266,5.2812 3.3632,0.078 6.707,1.3203 10.039,2.1289 1.6016,0.3906 3.4844,1.418 3.2188,2.9688 -0.3281,1.9101 -1.8516,3.7422 -4.1563,3.9218 -2.0898,0.1485 -4.2148,-0.1914 -6.3086,-0.07 -0.6054,0.039 -1.457,0.8399 -1.6718,1.4688 -0.4297,1.2617 0.6171,2.0508 1.6367,2.1094 4.3359,0.2695 7.8867,1.6015 10.8047,5.2031 1.0039,1.2383 4.0234,0.5898 6.0586,0.8789 3.3984,0.4805 7.6093,-0.3203 9.5703,3.9492 0.4648,1.0195 1.5234,1.8203 2.5586,1.332 5.0468,-2.4218 5.7031,1.7696 7.2617,4.5782 -0.8985,3.2695 -4.6445,0.289 -5.9844,2.9101 0.3242,0.5782 0.5352,1.5899 1.0742,1.8203 5.4727,2.3008 5.5586,2.2696 5.3321,8.2383 -0.074,1.961 1.8086,1.5899 2.3554,2.4297 0.9571,1.4531 2.5703,1.7734 3.6094,2.8828 0.4883,0.5196 0.9336,1.4297 0.8398,2.0899 -0.1992,1.3984 -1.2734,1.3789 -2.3671,0.8984 -1.4141,-0.6211 -2.5391,-0.5 -3.0586,1.1797 -3.5782,-0.3984 -3.5782,-0.3984 -3.9493,5.2812 2.0469,-1.5507 6.4883,-0.1914 4.0352,-5.0898"
     id="path5" />
</svg>
