<?xml version="1.0" encoding="UTF-8" standalone="no"?>
<svg
   width="1200"
   height="400"
   viewBox="0 0 1200 400"
   version="1.1"
   id="svg728"
   xmlns="http://www.w3.org/2000/svg"
   xmlns:svg="http://www.w3.org/2000/svg">
  <defs
     id="defs728" />
  <path
     fill-rule="evenodd"
     fill="#000000"
     fill-opacity="1"
     d="m 223.11915,328.86968 c 0.059,-0.9571 -0.4609,-1.5274 -1.332,-1.5977 -0.4297,-0.043 -1.1406,0.1992 -1.3008,0.5195 -0.3789,0.8008 0.1211,1.5 0.8203,1.8399 0.793,0.3984 1.4609,0.09 1.8125,-0.7617 M 527.87695,89.631355 c -0.25,-0.9102 -0.8086,-1.3008 -1.7383,-0.9219 -0.7109,0.2812 -1.7226,0.4609 -1.6211,1.4023 0.09,0.8789 0.9297,1.2305 1.7891,1.0079 0.75,-0.1993 1.5117,-0.5 1.5703,-1.4883 m 523.05075,72.621125 c -0.6406,0.2382 -1.5195,0.5195 -1.5117,0.5586 0.2422,0.9609 1.082,0.9101 1.8203,0.8789 0.6211,-0.02 1.6602,0.2695 1.5117,-0.8008 -0.039,-0.3086 -1.2812,-0.457 -1.8203,-0.6367 M 725.76755,72.361755 c 0.3086,-1.039 -0.4296,-1.4023 -1.1289,-1.6406 -0.7617,-0.25 -1.6914,-0.1797 -1.9609,0.6211 -0.3984,1.1484 0.3203,1.8789 1.4492,2.0469 0.7891,0.1328 1.4102,-0.25 1.6406,-1.0274 m -85.1289,7.8086 c 0.9883,-0.5312 1.5899,-1.3398 1.5704,-2.4687 -0.02,-0.7891 -0.4024,-1.6094 -1.3125,-1.3399 -1.0782,0.3282 -1.5391,1.3477 -1.5079,2.461 0.01,0.7578 0.2188,1.4765 1.25,1.3476 m -425.082,195.140725 c -1.0586,0.078 -1.5508,0.6796 -1.3203,1.5703 0.07,0.2812 0.8711,0.539 1.3203,0.5078 0.9024,-0.059 1.5,-0.6602 1.2109,-1.5781 -0.078,-0.2891 -0.8515,-0.3711 -1.2109,-0.5 m 81.6602,-186.570425 c -1.0196,0.3594 -1.5703,1 -1.0703,1.6797 0.3398,0.461 1.2695,0.7422 1.9023,0.6914 0.75,-0.062 1.3477,-0.8125 0.8203,-1.5507 -0.3516,-0.4805 -1.2031,-0.6094 -1.6523,-0.8204 m 56.6523,-22 c 0.1172,-1.2187 -0.332,-1.8398 -1.2031,-1.7304 -0.668,0.07 -1.7695,0.4804 -1.8281,0.8906 -0.1797,1.0313 0.4492,2.0508 1.6211,2 0.539,-0.02 1.0468,-0.8516 1.4101,-1.1602 m -133.3125,57.031325 c -0.07,-0.6992 0.1211,-1.6094 -1.0703,-1.5 -0.1289,0.01 -0.3789,0.4375 -0.3281,0.6094 0.2109,0.6992 0.5078,1.3711 0.789,2.0586 0.1993,-0.3907 0.4024,-0.7774 0.6094,-1.168 m 142.9414,-16.57033 c 0.4414,0.9609 1.2383,1.6992 2.2305,1.5703 0.8398,-0.1016 0.8594,-1.1094 0.4297,-1.7109 -0.3907,-0.5508 -1.0196,-1.1407 -1.6289,-1.25 -0.8125,-0.1407 -1.1797,0.5507 -1.0313,1.3906 m 677.25775,154.64063 c -0.4375,0.207 -0.8789,0.4297 -1.3281,0.6367 0.8398,0.5703 1.6484,1.211 2.5508,1.6524 0.2305,0.1093 1.1484,-0.5117 1.1211,-0.6992 -0.1914,-1.3008 -1.293,-1.4415 -2.3438,-1.5899 m -787.43745,78.3594 c -0.2812,-0.2891 -0.5625,-0.832 -0.832,-0.8203 -0.7188,0.02 -1.4492,0.2109 -2.1172,0.4687 -0.6016,0.2422 -0.5195,0.711 0.1875,0.8516 0.9414,0.1875 1.9414,0.3789 2.7617,-0.5 m -94.2617,-100.2813 c -0.3281,-0.7695 -0.3789,-1.1211 -0.5273,-1.1797 -1.3828,-0.5195 -2.711,-1.6601 -4.2618,-0.6796 -0.3593,0.2187 -0.75,1.0898 -0.5898,1.3007 0.8398,1.2305 2.2617,0.918 3.5,1.0196 0.4688,0.031 0.9492,-0.2188 1.8789,-0.461 m 138,-143.738225 c 0.8399,-0.2696 2.1016,-0.25 2.0508,-1.5508 -0.051,-1.2617 -1.168,-1.461 -2.1914,-1.3711 -1.0391,0.09 -2.0899,0.539 -2.0977,1.6914 0,1.3594 1.2305,1.1797 2.2383,1.2305 m 578.2422,-23.6915 c 1.5078,0 2.6406,-0.539 3.168,-1.8398 0.3398,-0.8711 -0.2774,-1.4297 -1.0899,-1.3984 -1.3281,0.047 -2.4609,0.789 -3.0898,1.8593 -0.4297,0.7305 0.332,1.2696 1.0117,1.3789 m -240.2813,25.0704 c 0.5391,-0.5118 2.3321,0.1601 1.8907,-1.461 -0.1602,-0.5898 -1.75,-0.9492 -2.75,-1.1289 -0.75,-0.1289 -1.6602,0.4102 -1.6289,1.2305 0.039,1.3984 1.3203,1.1992 2.4882,1.3594 m -409.25,19.628895 c 2.8985,4.31253 5.5704,3.0195 8.1797,2.2812 -2.3906,-0.2422 -4.2695,-2.1015 -8.1797,-2.2812 m 709.6485,220.19143 c -0.5078,-0.5117 -0.957,-1.3399 -1.5781,-1.4922 -2.4883,-0.5977 -1.8399,1.9531 -2.6719,3.0117 -0.5899,0.7383 0.3906,1.2695 1.1328,1.4102 2.2383,0.4179 2.3203,-1.5508 3.1172,-2.9297 M 247.76755,85.510255 c 2.0704,-1.3399 3,-2.8203 2.2813,-4.8985 -0.1094,-0.332 -0.9102,-0.75 -1.1992,-0.6406 -2.2227,0.8516 -2.0821,2.7383 -1.8633,4.6211 0.031,0.2188 0.332,0.3984 0.7812,0.918 m 545.3907,262.179725 c 0.1093,1.1328 0.6992,1.9922 1.8476,1.8398 0.6016,-0.07 1.3633,-0.7695 1.6133,-1.3672 0.4805,-1.1719 -0.3906,-1.9414 -1.4023,-2.1406 -1.1407,-0.2305 -1.8203,0.5391 -2.0586,1.668 m -70.7891,-15.418 c -0.012,1.3086 0.7891,2.1406 1.8203,1.8203 0.8164,-0.2617 1.6172,-1.2695 1.9766,-2.1328 0.5625,-1.3477 -0.7891,-1.7578 -1.6485,-1.9492 -1.8007,-0.3906 -1.8593,1.1601 -2.1484,2.2617 m 346.76945,-167.2305 c 2.8907,0.8907 4.1172,2.5078 6.0196,1.1407 0.1797,-0.1329 0.1289,-0.9922 -0.1016,-1.2305 -1.2383,-1.2891 -2.7187,-0.8594 -5.918,0.09 m -340.90225,174.5899 c 1.4023,0 1.9219,-0.8789 1.793,-1.961 -0.07,-0.6289 -0.6407,-1.539 -1.1797,-1.6992 -1.1719,-0.3515 -2,0.5078 -2.1914,1.5899 -0.1914,1.1211 0.4492,1.8984 1.5781,2.0703 m 197.5703,-2.8008 c -2.4375,-1.8399 -3.8281,-3.3086 -7.7891,-1.8008 3.1016,0.8516 4.0391,3.043 7.7891,1.8008 m -255.3789,-23.7502 c 0.1094,-1.4297 -1.2305,-1.3203 -2.0508,-1.4414 -1.1484,-0.1797 -2.6679,-0.3672 -2.8984,1.3633 -0.1719,1.2382 0.9297,1.7773 1.9297,1.8281 1.2187,0.059 2.5312,-0.1211 3.0195,-1.75 m 383.14055,-142.4102 c -1.8398,-0.6289 -2.7109,-3.789 -5.4297,-2.6797 -0.2812,0.1016 -0.5625,1.0899 -0.3828,1.3204 1.3907,1.8203 3.3828,1.8984 5.8125,1.3593 m -820.64055,145.8321 c -0.4609,-1.1914 -1.5195,-1.6797 -2.4805,-1.5625 -1.4492,0.1914 -2.3281,1.3007 -1.7187,2.7695 0.3906,0.9609 1.4492,1.4219 2.5703,0.9297 0.9375,-0.418 1.918,-0.8594 1.6289,-2.1367 m 199.1602,18.6484 c -0.02,-0.9219 -0.5704,-1.3398 -1.3985,-1.5586 -1.0117,-0.25 -2.2031,-0.6016 -2.6719,0.6094 -0.289,0.7305 0.5196,1.3789 1.3204,1.5898 1.0117,0.2578 2.039,0.4297 2.75,-0.6406 m -221.5,-230.96873 c 0.3281,1.6406 1.7187,1.6289 2.9687,1.539 1.1602,-0.09 1.8906,-0.9609 1.6524,-2.1094 -0.3125,-1.4726 -1.5508,-2.1328 -2.9219,-1.8515 -1.0196,0.2187 -1.5899,1.2109 -1.6992,2.4219 m 407.2187,221.55853 c 2.582,0.3204 4.2695,-1.0898 5.6016,-3.0703 0.1406,-0.2109 -0.2891,-1.1992 -0.5899,-1.2695 -3.0508,-0.6602 -3.3789,2.5586 -5.1718,3.75 -0.047,0.02 0.082,0.3203 0.1601,0.5898 m 411.87105,-47.6796 c -1.6914,-1.25 -2.2305,-1.8399 -2.8984,-2.1211 -1.293,-0.5508 -3.1211,-2.3594 -3.9102,-0.2578 -0.7422,1.9492 1.418,2.3203 3.0703,2.3398 0.7696,0.019 1.5391,0.019 3.7383,0.039 M 220.12695,130.54138 c -0.3008,-1.1601 -1.0586,-1.7304 -2.1992,-1.3398 -1.3281,0.4492 -3.4414,-0.2305 -3.7109,1.8906 -0.211,1.6797 1.2226,1.957 2.5898,2.0078 1.8203,0.07 2.8516,-0.8789 3.3203,-2.5586 m 113.1602,23.3399 c 0.1406,-2.2422 3.3398,-4.1602 -0.2188,-5.9805 -1,-0.5195 -2.332,-0.3086 -2.8515,0.5391 -1.9883,3.2422 1.5,3.6015 3.0703,5.4414 m -105.9492,-25.4219 c -5.1407,2.2617 -5.1407,2.2617 -3.4805,5.9609 1.1992,-2.039 2.3203,-3.9609 3.4805,-5.9609 m 330.9296,-31.117225 c 6.5,0.5899 6.5,0.5899 9.1211,-1.8633 -2.4804,1.6719 -5.289,-0.7265 -9.1211,1.8633 m 155.6993,228.039125 c 2.5703,0.4101 5.6093,2.1601 7.5625,-1.9102 -3.0235,-0.8906 -5.4219,-0.4219 -7.5625,1.9102 m -28.5703,0.8203 c -1.4102,0.8281 -4.0391,0.3906 -3.7579,2.9883 0.1407,1.3125 1.5196,2.0195 2.9805,1.7812 1.7188,-0.289 2.8281,-1.2617 2.7891,-3.1015 -0.031,-1.1797 -0.75,-1.8086 -2.0117,-1.668 m -366.668,-221.26173 c -0.039,-1.3203 -0.8008,-2.168 -1.9024,-1.9493 -1.9687,0.3985 -2.9765,2.211 -3.25,3.8711 -0.1796,1.1094 1.2032,2.2891 2.6914,2.1485 2.6016,-0.25 1.9219,-2.5899 2.461,-4.0703 m -79.3906,5.1211 c 2.7812,-0.6016 6.9804,3.8984 8.8789,-2.7305 -3.3008,1.0703 -6.4375,-0.1289 -8.8789,2.7305 m 754.2109,161.48823 c -1.043,-0.5976 -2.1328,-1.1093 -3.0625,-1.8281 -0.8477,-0.6484 -1.6484,-1.5 -2.5781,-0.4297 -0.4219,0.5 -0.4297,1.4492 -0.4102,2.1875 0.039,1.2227 0.75,1.8321 2.0078,1.8321 1.5625,-0.012 3.1016,-0.031 4.043,-1.7618 m -252.6523,59.5 c -0.7891,-1.6992 -2.2071,-0.8984 -3.6602,-0.4375 -1.5781,0.4883 -4.3281,-0.082 -3.8281,2.4805 0.5,2.5586 3.2109,2.0781 5.1914,1.7891 1.8086,-0.2696 2.4687,-1.6719 2.2969,-3.8321 m 334.45305,3.2227 c -1.4024,0.1484 -2.8008,0.7187 -2.7031,2.2187 0.1601,2.2618 2.0703,2.7305 3.9726,2.75 1.2891,0.02 2.6992,-0.1015 2.5078,-2.0195 -0.2383,-2.2617 -1.6484,-3.0703 -3.7773,-2.9492 M 238.70905,201.25238 c 0.1093,2.539 -1.2422,5.7382 2.7382,6.2265 0.5703,0.07 1.6602,-0.6172 1.8008,-1.1484 0.918,-3.4492 -1.7305,-4.2891 -4.539,-5.0781 m 343.7578,146.0078 c -4.9375,-2.8985 -8.0703,-1.6797 -11.0899,1.5508 3.9492,2.7304 6.9414,0.25 11.0899,-1.5508 m -370.25,-131.2188 c -3.3985,-0.062 -6.8594,-3.0117 -10.5,-0.4492 3.8203,5.8672 7.1093,0.9805 10.5,0.4492 M 740.19725,64.221055 c -2.1601,9.9883 -2.039,10.1485 5.6407,7.6914 -2.9102,-1.6523 -4.0899,-4.4101 -5.6407,-7.6914 M 631.48635,329.45158 c 2.2617,-2.2422 4.0312,-3.9922 6.043,-5.9805 -2.3125,-1.4922 -5.3125,2.7383 -6.6602,-1.4414 -0.2226,-0.6797 -2.0195,-0.07 -2.8008,0.582 -1.3008,1.0704 -0.8203,2.25 0.1797,3.3086 1.0313,1.1094 2.0508,2.2305 3.2383,3.5313 m 391.92185,-27.5703 c 3.3281,3.1914 8.0078,2.75 11.2695,5.1797 0.09,0.059 1.0898,-0.9102 1.4609,-1.5196 0.1289,-0.2304 -0.4101,-1.1992 -0.539,-1.1797 -4.25,0.711 -7.1406,-4.75 -12.1914,-2.4804 M 768.61915,83.010155 c -0.6601,-2.668 -1.1601,-4.3203 -0.75,-6.1992 0.3789,-1.7696 -1.0898,-2.3789 -2.4726,-2.0586 -2.7969,0.6367 -3.6485,3.039 -3.75,5.4687 -0.129,3.1211 2.4531,1.7813 4.0429,2.0508 0.7383,0.1172 1.4571,0.3594 2.9297,0.7383 M 1017.1972,280.01018 c 5.2813,1.9023 7.2188,9.2304 15,9.5508 -3.7304,-6.2383 -8.8203,-8.6094 -15,-9.5508 m -133.94135,59.4101 c -0.4062,-2.8593 -6.1797,-6.9804 -9,-6.1914 -0.8281,0.2305 -1.5195,1.3907 -1.9883,2.2813 -0.3203,0.6015 -0.2382,2.0703 0.5899,1.8711 3.8008,-0.9297 5.3984,2.2578 7.8906,3.7695 0.6485,0.3984 1.5508,0.4297 2.0899,-0.3203 0.2695,-0.3711 0.289,-0.9414 0.4179,-1.4102 m -234.789,-10.0507 c 1.8007,-0.01 2.5898,-1.1407 2.2617,-2.4883 -0.5703,-2.3321 -0.1406,-5.6407 -3.7617,-5.8399 -2.0391,-0.1211 -4.9805,0.6407 -4.4375,2.9688 0.6093,2.5898 3,4.7304 5.9375,5.3594 M 614.40825,83.709355 c -2.1992,-2.7188 2.5703,-7.5078 -3.8907,-7.8086 -4.5507,-0.2109 -4.5703,-0.1016 -4.4179,8.3203 z m 347.5898,246.511725 c 3.3203,3.7305 6.1602,5.1289 10.5508,4.1406 2.8008,-0.6406 3.668,-2.3203 3.5898,-4.1718 -0.082,-1.5586 -2.2421,-2.0196 -3.8906,-1.7696 -3.082,0.4805 -6.1406,1.0703 -10.25,1.8008 m 15.1992,-26.539 c 1.3516,0.1875 3.6094,-0.4532 3.3086,-3.0625 -0.25,-2.2071 -2.8086,-1.8594 -4.5664,-1.7774 -3.2812,0.168 -6.4726,2.0977 -9.8711,0.1797 -0.9218,-0.5195 -1.9609,0.3398 -2.2304,1.5195 -0.3086,1.3203 0.4179,1.8594 1.6289,1.9805 3.582,0.3477 7.1523,0.707 11.7304,1.1602 m -696.5195,-105.4101 c 7.5,-0.4297 13.25,2.3672 19.4219,0.7695 1.0195,-0.2695 2.207,-0.1211 2.1875,-1.539 -0.031,-1.5625 -1.3086,-2.75 -2.5391,-2.293 -3.4805,1.3008 -6.7187,-0.1992 -10.0508,-0.2188 -2.6679,-0.019 -5.539,0.039 -9.0195,3.2813 M 624.43945,85.111755 c 3.5977,0.7891 5.5078,-2.832 8.4571,-4.3593 0.8906,-0.4727 3.1406,-0.4727 2.082,-2.3516 -0.5508,-0.9687 -2.5117,-2.1602 -3.211,-1.8516 -2.4804,1.1211 -4.2187,1.7305 -6.9804,-0.207 -1.918,-1.3711 -5.8477,2.4297 -5.6289,5.1484 0.2187,2.8086 1.8281,4.2891 5.2812,3.6211 m 366.0664,218.800825 c 2.9414,1.0391 6.4102,1.3867 7.6914,-2.4922 0.961,-2.9414 -3.4609,-3.3711 -4.0195,-6.0078 -0.5195,-2.3906 -2.0117,-1.3008 -3.6289,-1.0703 -3.3125,0.4688 -2.6211,3.6172 -4.1328,5.2188 -1.3867,1.4882 -1.9375,3.2812 -0.4688,4.9687 1.4493,1.6719 2.8594,0.2695 4.5586,-0.6172 m 31.67185,-6.1406 c -4.0508,-6.2813 -4.0586,-6.1797 -7.5312,-6.4492 -2.8399,-0.2227 -5.2579,2.5273 -8.6407,0.3164 -1.6289,-1.0586 -2.8672,2.4609 -3.7187,4.2812 -0.5391,1.1289 0.4609,2.1914 1.5703,2.0899 5.9101,-0.5586 11.832,1.9101 18.3203,-0.2383 M 259.45905,105.33055 c -3.25,-0.7695 -6.9922,-0.1602 -8.5508,1.0898 -2.2617,1.8086 0.3984,3.2813 0.1992,4.9805 -0.2383,1.9805 0.012,4.0195 0.051,6.3594 -1.2813,0.082 -2.6016,0.062 -3.8711,0.2617 -1.3906,0.2305 -2.711,0.9805 -1.9805,2.5586 0.4219,0.89843 1.9297,1.05083 2.8008,0.25 2.5898,-2.3594 6,-1.6992 8.9805,-2.6016 2.5586,-0.7773 5.3906,-0.9375 7.6211,-3.3867 -8.4532,-2.832 -8.4532,-2.832 -5.25,-9.5117 m 716.1679,181.58203 c 2.3203,-0.3398 4.8399,-1.4219 6.9414,-0.8906 7.918,1.9883 16.2696,-0.09 24.03905,2.8594 1.0508,0.3906 2.5703,0.6093 3.8789,-2.2813 -14.08975,-5.8594 -28.73045,-6.0078 -44.63665,-7.0976 3.707,3.8476 6.3398,6.2265 9.9179,7.3984 0.5586,3.9102 -2.9882,5.9102 -4.371,9.5508 3.8906,-0.5703 7.5507,0.059 11.4921,0.2578 -3.3906,-2.7773 -3.8906,-7.3281 -7.2617,-9.7969 m -320,-206.953125 c 5.7305,0.3398 3.8203,-2.2578 1.5703,-6.0898 -0.9101,3.0625 -2.3711,4.6406 -4.1289,6.0117 -0.5508,0.4414 -0.2812,1.6093 0.8399,1.3906 0.6484,-0.1328 1.1914,-0.832 1.7812,-1.2813 -0.043,1.6797 -1.2031,3.5391 0.7578,4.9219 0.5821,0.3985 1.0703,0.3281 1.2305,-0.3203 0.4609,-1.75 -1.7305,-2.3398 -1.7695,-3.9101 0,-0.2422 -0.1797,-0.4727 -0.2813,-0.7227 m 309.2696,212.320325 c -0.5899,2.1797 -3.4688,2.0313 -4.2383,4.0899 3.6484,-0.078 3.6484,-0.078 4.2304,-4.0782 -3.1211,0.9297 -2.6718,-5 -6.2812,-3.2422 0.3594,4.5 3.9219,2.711 6.2891,3.2305 m 75.71085,34.6406 c 1.9922,1.2813 4.1094,0.6407 6.1992,0.4024 2.9297,-0.3321 5.5,-0.3321 8.0117,2.039 2.1289,2.0196 5.0586,3.668 8.0313,0.4102 1.25,-1.3711 2.3476,1.8594 3.9375,0.6992 2.3594,3.3906 5.5,2.6914 8.9297,2.0781 3.1992,-0.5703 6.6015,-1.5703 9.5,1.7032 1.8203,2.0586 4.9609,1.4297 7.5507,1.8086 10.1211,1.4804 17.8711,6.1796 22.1485,15.9414 -3.1485,1.25 -3.6172,-1.4922 -5.1289,-2.7032 -5.75,-4.5703 -6.5313,-4.8671 -9.0508,2.1719 -0.1797,0.4805 -0.078,1.0703 -0.2891,1.5391 -2.039,4.4804 -6.5507,5.8515 -11.2304,4.0312 -5.3477,-2.0703 -8.5977,-7.2695 -14.25,-8.9297 -2.6172,-0.7617 0.4609,-3.7304 -0.8985,-5.4609 -1.7617,0.9492 -3.2617,1.3594 -2.9609,4.0703 0.4297,3.9102 -1.6797,6.4492 -6.0391,5.9297 -9.4101,-1.1211 -18.8203,1.1211 -28.25,-0.02 -2.5508,-0.3086 -5.2812,0.078 -7.8203,0.6484 -6.3515,1.4609 -12.539,1.543 -18.7187,-0.7891 -1.4414,-0.5312 -3.1328,-0.8203 -4.6524,-0.6796 -8.83975,0.8593 -17.71085,-1.7696 -26.51945,0.1484 -1.75,0.3828 -2.3906,-0.4375 -2.8281,-1.8477 -0.2735,-0.8593 -1.1407,-1.4804 -1.7618,-1.0507 -6.871,4.7109 -6.039,-1.8594 -7.4492,-5.0704 -0.5117,-1.1484 -0.7812,-2.4101 -1.4101,-4.4414 -1.8594,1.9922 -4.5117,2.9414 -1.3711,5.6524 2.3594,2.039 2.3008,3.539 -0.9688,4.0586 -1.75,0.2812 -2.7109,1.5117 -4.0117,2.3594 -2.1484,1.4101 -4.0078,2.0507 -3.3398,-1.918 0.2304,-1.3008 -0.6172,-1.711 -1.8985,-0.8906 -4.5,2.9296 -9.0117,2.8281 -13.4804,-0.1485 -0.6289,-0.4336 -1.7618,-1.1523 -2.0391,-0.9336 -7,5.3438 -9.7813,-2.4687 -14.1094,-4.75 -2.6836,-1.4062 -4.1914,-1.6679 -3.9023,1.4219 0.2812,3 -0.1406,5.7188 -2.6797,6.6406 -3.1094,1.1094 -7.0195,3.4805 -9.8281,1.418 -2.8633,-2.0977 -4.543,-1.7383 -6.5625,0.1914 -2.6094,2.4883 -4.8672,2.6484 -8.4688,1.2695 -3.4219,-1.3203 -8.0508,-1.4414 -11.539,-0.2695 -11.1094,3.7305 -21.5118,-1.75 -32.3008,-1.6719 -2.8516,0.024 -5.6016,-2.5781 -8.0313,-4.6172 -2.5703,5.1602 -2.5976,4.9297 -7.8203,5.6407 -2.3594,0.3203 -3.4687,-0.024 -3.8789,-2.3828 -0.25,-1.4493 -1.6211,-1.9375 -2.6797,-2.7305 -2.1406,-1.5899 -4.1211,0.3203 -4.8203,1.2226 -1,1.3086 1.7695,0.4102 2.2109,1.6875 0.3477,1.0235 0.8907,1.961 0.1875,2.9219 -0.6875,0.9492 -1.9179,1.1797 -2.8789,0.8906 -3.2304,-1 -6.3593,-2.1601 -9.7304,-2.8203 -2.3477,-0.4492 -4.4493,-5.7695 -6.4375,0.3282 -5.1016,-4.0469 -9.0625,3.332 -14.3711,1.2109 -6.1992,-2.4883 -12.8203,0.8789 -19.4805,-0.031 -3.6484,-0.4882 -4.7617,-3.6289 -7.5898,-3.8984 -3.25,-0.3203 -4.9102,3.3281 -8.4805,3.5781 -6.8281,0.4922 -13.0899,-1.2383 -18.2383,-4.957 -3.5508,-2.5703 -5.0117,-2.1523 -6.3125,1.168 -1.0781,2.7304 -2.5976,3.8007 -5.3984,3.1797 1.3984,-3.4883 -5.3008,-3.4883 -3.1407,-7.3282 1.1719,-2.082 1.4883,-4.1914 -1.4804,-4.789 -3.3594,-0.6719 -3.1797,2.3203 -3.8086,4.3086 -0.3594,1.1289 0.7305,3.7187 -0.2891,3.289 -3.25,-1.3594 -5.2031,3.9414 -7.0234,1.8203 -3.2188,-3.75 -5.5586,-0.8281 -9.0274,0.961 1.0196,-4.4492 3.5508,-6.2188 6.0586,-8.2891 -0.4609,-0.5195 -0.8789,-1.0508 -1.3593,-1.5195 -3.8516,-3.75 -4.3711,-4.0703 -7,-0.1602 -1.8985,2.8281 -1.711,1.8477 -3.3516,-0.062 -3.0469,-3.5703 -5.8672,-2.6094 -7.1094,1.8203 -0.6094,2.2188 0.8789,5.2696 -3.1992,6.1602 -4.6914,1.0117 -9.4414,-1.2188 -10.7383,-5.9297 -1.3203,-4.7812 -2.7734,-6.0586 -6.8125,-4.9297 -6.0703,1.6914 -11.5508,1.2813 -16.8398,-2.5117 -3.3203,-2.3672 -11.7578,0.5508 -11.3789,4.0625 0.8398,7.6289 -4.0391,4.5195 -7.2696,5.1289 -0.75,-10.5703 -3.4414,-12.4219 -13.3906,-10.2109 -5.9101,1.3125 -12.0898,1.1797 -17.9805,2.8203 -0.9609,0.2617 -2.621,0.3008 -3.0781,-0.2696 -4.5429,-5.5898 -8.7422,-0.121 -13.7304,-0.1484 2.1171,3.5586 5.1875,4.2383 7.7304,3.3477 3.3477,-1.1993 6.7578,2.6328 8.7071,0.6211 3.1914,-3.2891 5.8398,0.6093 8.6015,-0.5 0.5703,-0.2305 1.4805,0.3515 2.1914,0.539 0.1485,0.5391 0.4688,1.3321 0.3594,1.3906 -3.4102,2.0391 0.1484,8.8594 -5.4805,8.8086 -4.6093,-0.039 -6.9297,3.1602 -10.1797,5.1211 -2.1406,1.2891 -4.4023,0.5586 -5.7812,-1.0898 -2.5078,-3 -5.5,-2.1602 -8.6914,-2.1602 -6.8672,0 -13.3867,2.3203 -20.1797,2.5899 -1.0781,0.039 -1.9805,0.1601 -2.6992,1.2187 -2.2383,3.2813 -2.2383,3.0821 -6.3477,1.5703 -1.6523,-0.5976 -3.9922,-1.0273 -5.3828,-0.3086 -5.7187,2.9297 -11.8398,1.3008 -17.707,1.8399 -4.3321,0.4101 -8.6719,2.4687 -13.3321,0.9492 3.4415,-2.5078 13.5196,-5.6601 18.1915,-5.7578 3.1679,-0.062 6.3398,-0.1406 9.5078,-0.1719 3.1211,-0.027 5.6211,-1.2578 7.4804,-3.7695 3.2305,0.4922 6.6407,2.8906 10.1719,-0.8594 -2.6601,-1.1094 -4.7305,-2.0703 -6.8828,-2.8398 -4.9297,-1.75 -3.7695,1.2695 -3,3.9414 -1.7188,-0.8125 -1.5898,-3.2422 -3.6094,-3.9219 -1.539,-0.5195 -2.6679,-1.4883 -3.7304,0.7891 -1.7579,3.7617 -6.2891,1.9218 -8.9297,4.039 -1.3399,-5.1172 -5.3985,-2.0078 -8.0782,-2.3672 -3.5703,-0.4609 -7.6211,1 -10.8593,0.5508 -6.3633,-0.9023 -13.6016,1.418 -19.1133,-3.9726 -0.8086,-0.7891 -2.8281,-1.3672 -3.668,-0.9102 -3.8203,2.082 -8.289,-0.168 -11.3906,1.0508 -6.0508,2.3906 -12.9805,-2.0586 -18.3399,3.1094 -0.5195,0.5 -2.4296,0.4218 -3.0117,-0.1172 -3.9765,-3.7422 -8.3164,-2.293 -12.7383,-1.3203 -2.1015,0.457 -4.2617,1.957 -6.3203,-0.75 -2,-2.6407 -5.1601,-0.961 -7.4414,-0.4805 -4.6679,0.9687 -9.3281,0.3789 -13.957,0.8398 -6.8203,0.6797 -13.25,-2.3711 -20.1016,-1.8906 -1.4101,0.1016 -2.7187,-0.8906 -3.9804,0.6992 -1.4493,1.8321 -3.711,2.4024 -5.7305,1.75 -8.8086,-2.8086 -17.668,-1.0312 -26.4805,-0.3984 -5.2695,0.3789 -10.457,1.3984 -15.6367,-0.5 -0.9531,-0.3516 -2.2695,-0.5508 -3.1211,-0.1719 -6.0312,2.7305 -12.6797,-0.9375 -18.7617,2.0196 -1.668,0.8125 -4.1367,-0.039 -6.2383,-0.078 -6.5703,-0.082 -13.0898,-0.9922 -19.6992,-0.5 -5.6602,0.4297 -10.8906,-1.25 -15.4922,-4.8008 -3.5391,-2.7382 -3.7695,-2.6484 -4.9805,2.3711 -0.5781,2.3789 -2.0468,3.1602 -3.9882,2.7891 -13.5118,-2.5391 -25.9688,4.0781 -39.1719,4.3711 -5.707,0.1289 -13.418,-0.7109 -16.9766,-3.0195 3,-2.1211 6.0586,-3.7422 9.7578,-4.4297 5.5,-1.0313 6.5196,-2.6406 5.7891,-7.3711 -0.668,-4.3399 -4.4688,-3.6914 -7.3281,-4.4805 -0.4414,-0.1289 -1,0.2891 -1.5117,0.3281 -7.879,0.7227 -9.6407,-1.8593 -6.5977,-9.5703 0.3594,-0.9179 0.3594,-1.9687 0.5508,-3.0586 -2.293,-0.5507 -4.3321,-0.6601 -6.293,0.3203 -0.4687,0.2305 -0.7891,0.7383 -1.25,0.9805 -4.2383,2.1485 -8.3984,0.25 -12.5898,-0.2695 1.9492,-2.8789 -0.5703,-6.3906 1.3828,-9.3203 1.707,-2.5703 1.3476,-4.3203 -2.0508,-5.1094 -1.4219,-0.332 -3.7109,-1.4297 -3.1016,-3.0508 1.9102,-5.082 -1.789,-3.8203 -4.2812,-4.4101 -4.5469,-1.0821 -8.8867,1.5781 -13.7383,-0.3516 -6.6719,-2.6484 -7.3086,-2.6172 -3.6211,-8.6094 1.0117,-1.6406 0.062,-2.8906 0.3125,-4.3398 3.0586,-1.0196 0.75,4.8203 4.8867,3.4804 2.7227,-0.8789 3.8008,-1.7812 4.5703,-4.3085 0.7305,-2.4102 2.8204,-3.6719 5.4219,-4.0118 2.2891,-0.3086 4.8281,-0.1601 6.5508,-3.0976 -3,-1.4805 -6.1406,0.9492 -9.1406,-0.4336 -1.1719,-2.8164 1.6797,-4.5781 2.1289,-7.3594 -3.6992,-1.5781 -8.0078,0.2109 -12.2305,-1.707 1.3828,-3.7227 4.9414,-3.9024 7.6328,-4.3906 4.7578,-0.8594 8.5196,-2.3711 9.9688,-7.461 0.2695,-0.9219 1.1289,-1.9297 1.9883,-2.3789 5.332,-2.7812 2,-5.293 -0.2891,-7.6914 2.2617,-2.3789 6.0117,0.2305 8.2812,-3.4414 -9.3593,-2.8984 -17.4492,1.5898 -26.2109,4.3633 0.2891,-3.461 2.6016,-2.1328 3.7188,-3.5821 -1.7774,-0.8398 -3.4805,-1.6406 -5.0782,-2.3906 -0.3906,-0.6992 -0.289,-1.2578 0.3477,-1.4297 2.4023,-0.6679 4.6328,-2.2382 7.3633,-0.2695 1.0976,0.7891 2.4375,-0.6797 2.3281,-2.2305 -0.09,-1.25 -1.2188,-1.8593 -2.3008,-1.5586 -5.0391,1.418 -10.25,-0.09 -15.3789,1.1993 -1.0586,2.75 3.0703,2.4687 2.9414,5.1289 -5.3125,2.75 -10.6797,-0.2696 -16,-0.5274 -3.332,-0.1719 -6.5508,-1.9726 -10.082,-1.4726 -2.0508,0.2812 -3.8906,-0.7696 -4.9297,-2.0977 -1.8086,-2.3398 -3.8203,-2.9219 -6.668,-2.9414 -3.6328,-0.039 -4.7812,-3.1289 -4.9219,-6.1211 -0.1484,-3.3086 2.3008,-4.6406 5.2618,-4.5703 4.039,0.082 7.8672,-0.9102 11.75,-1.7188 0.5,-0.1093 1.0703,0.1485 1.5781,0.059 3.7812,-0.707 7.4101,-3.7382 6.5195,-5.6093 -1.5703,-3.2696 -4.6211,-2.9883 -7.5898,-2.4375 -1.1797,0.2187 -2.3399,1.25 -3.3906,0.3281 -0.5196,-1.1406 -0.3594,-2.1211 0.3125,-2.4492 5.2773,-2.6094 11.1992,-2.8399 16.8281,-3.8711 2.75,-0.5078 3.582,2.6914 3.4804,5.8203 -0.1484,4.332 0.2618,4.3516 5.961,3.2422 -0.07,-0.4922 0.051,-1.1719 -0.2305,-1.4414 -5.4414,-5.2813 -5.3203,-6.4297 1.0391,-10.1289 2.082,-1.211 4.2304,-2.5313 6.6914,-1.961 2.7773,0.6407 5.1992,0.01 7.668,-1.1015 0.6914,-0.3086 1.6523,-0.039 2.3398,-0.3594 4.2812,-1.9688 6.7305,3.2695 10.0508,2.7812 3.2812,-0.4921 5.6094,-4.0117 9.9609,-1.2304 3.0586,1.9492 7.4102,1.0078 9.2383,-3.1211 1.3906,-3.1992 3.4805,-3.8086 6.332,-2.7305 3.8789,1.4922 7.1211,1.7109 10.9883,-1.0195 2.5,-1.75 6.5899,-1.2305 9.9492,-1.7813 2.0625,-0.3281 4.3828,-0.289 4.1016,-3.5273 -0.1211,-1.4414 1,-2.3906 2.3398,-2.8399 8.1993,-2.8007 16.1016,-6.5703 24.8008,-7.7695 0.3594,-0.051 0.7891,0.4688 1.8594,1.1484 -7.4102,4.3086 -16.0391,5.1407 -22.5586,10.6016 15.1289,-3.4726 30.3477,-6.6133 45.3086,-10.6797 3.3203,-0.9023 7.5391,-2.1133 10.7695,-5.75 -4.0781,-1.6015 -7.4687,-2.8008 -10.75,-4.25 -2.7578,-1.2109 -4.8594,0.1992 -7.3984,0.8477 -4.1406,1.0508 -2.7227,3.6914 -2.9297,6.039 -0.1016,1.0508 -0.2617,2.3125 -1.4805,2.4922 -1.832,0.2696 -1.9297,-1.3515 -2.2422,-2.5703 -0.4687,-1.832 1.0704,-3.9609 -1.7187,-5.5 -2.0703,-1.1406 -1.7383,-3.5898 0.031,-5.4101 1.5977,-1.6407 3.5391,-1.5313 4.961,-0.1719 3.6172,3.4726 7.7695,2.082 11.8984,1.9023 3.6289,-0.1523 8.1602,-2.039 9.6016,3.711 6.0976,0.5781 2.1289,4.3672 1.9375,7.3789 5.4297,1.0703 10.9804,-2.5586 17.082,1.2187 -12.5898,2.3125 -24.332,4.4727 -36.8125,6.7617 2.3906,3.4493 5.25,2.3399 7.7813,1.7696 3.6015,-0.8086 7.0586,-2.3203 10.8398,-2.2188 1.8398,0.047 3.6992,0.1602 5.5195,0.4571 1.2305,0.2109 2.9297,0.6406 2.3516,2.3906 -0.6523,1.9297 -2,0.832 -3.1719,0.25 -1.0586,-0.5196 -2.1679,-1.9297 -3.3476,-0.3789 -0.3907,0.5 -0.3399,1.5195 -0.1719,2.2304 0.3398,1.4688 1.6094,2.3789 2.9219,2.2188 2.5273,-0.3281 5.0273,-1.0391 7.4882,-1.7305 1.5196,-0.4297 1.9297,-1.6601 1.6094,-3.1289 -0.2773,-1.3086 -0.75,-2.6992 1.1016,-3.1992 1.6797,-0.4414 3.3281,-0.1211 4,1.6172 1.539,4.0625 4.7187,2.3711 7.4101,2.2226 0.6485,-0.031 1.8594,-0.8593 1.8086,-1.1718 -0.8281,-5.5196 4.9297,-4.9688 8.5,-8.3672 l -15.4804,0.957 c 2.1797,-4.0781 5.2695,-4.0391 8.8593,-4.1992 -1.207,-2.5899 -2.4882,-4.6602 -2.6367,-7.8203 -5.2734,4.6601 -10.2734,3.9804 -15.8906,1.5117 4.0977,-0.75 8.0195,0.7383 11.5977,-1.1211 1.3125,-1.9297 -0.9297,-2.5781 -1.5586,-3.8086 -0.3711,-0.7226 -0.75,-1.7695 0.1211,-1.8516 2.2382,-0.1992 3.4492,-1.25 3.6875,-3.371 0.2695,-2.3985 -4.8204,-3.129 -2.0586,-6.379 -0.4297,-0.2187 -0.8985,-0.6796 -1.2696,-0.6093 -2.9687,0.5976 -6.0898,-0.4805 -6.6914,-2.8907 -0.6875,-2.8281 -0.5,-5.9804 -1.3594,-8.9296 -0.1601,-0.5391 0.8594,-2.0196 1.0196,-1.9688 3.5312,1.0195 3.4219,-2.6719 5.1797,-3.7812 1.1797,-0.7383 2.832,-1.3086 4.539,-0.6914 4.293,1.5703 6.1328,-1.2383 8.7305,-5.3086 -3.9297,0.6484 -6.8203,0.7812 -9.4883,1.6289 -9.4219,3.039 -18.4922,2.7617 -27.4609,-1.7188 -2.7891,-1.3789 -6.0781,-1.5586 -9.1094,-2.2422 -2.6602,-0.5898 -4.6211,-3.2383 -8.2383,-2.4297 -3.0625,0.6914 -5.3633,-1.1484 -3.6836,-4.6992 0.75,-1.5703 -0.039,-3.1406 1.0117,-4.98833 4.1485,0.4805 7.5391,2.33993 10.5196,5.57043 1.5,1.6289 3.9414,1.4804 3.3515,-1.5508 -0.9101,-4.64073 1.5977,-4.24223 4.8399,-4.66023 5.1797,-0.6601 10.5508,2.0195 15.3789,-1.2187 -2.7383,-4.793 -8.1016,-4.3828 -12.0508,-3.3321 -3.8086,1.0196 -7.0898,0.6016 -10.6601,0.2891 -6.5782,-0.5703 -13.0704,-0.2695 -19.5586,1.3828 -4.75,1.207 -9.9414,0.5391 -14.5313,2.6172 -2.7187,1.2422 -7.7695,1.5508 -3.8008,6.90233 0.9922,1.3282 -1.8281,2.25 -1.6484,3.9102 -4.2695,0.3398 -7.3516,2.8477 -10.6016,5.3281 -1,0.7696 -2.9492,-0.6679 -2.8164,-2.7304 0.1485,-2.5704 0.2383,-5.1485 1.7578,-7.7891 -4.789,-1.5195 -8.9609,0.4609 -13.0507,-0.4492 -2.8907,-0.6524 -3.4805,2.1406 -4.0391,3.9687 -0.6992,2.25 1.0703,3.4219 3.0703,3.6719 2.1992,0.2891 4.0391,1.1484 5.75,2.5195 -0.4883,2.9492 -2.8008,3.5313 -5.1719,4.0391 -9.289,2.0391 -18.5781,4.0898 -27.8789,6.1211 -2.5898,0.5586 -5.6289,1.918 -7.7109,0.4609 -1.6797,-1.1719 -2.0781,-4.1914 -3.0391,-6.3828 1.7617,-0.8906 3.3321,-1.9883 5.0703,-2.5 4.9493,-1.4375 2.4493,-5.3672 2.8086,-8.2383 0.2305,-1.8515 -1.6172,-1.7109 -2.8867,-1.7695 -2.0508,-0.082 -4.6797,0.7305 -5.3633,-2.0508 -0.9375,-3.82033 -2.8789,-5.39063 -6.7968,-4.46093 -0.4102,0.09 -1.3594,-0.8399 -1.5899,-1.461 -0.4609,-1.289 0.5195,-1.8671 1.5977,-2.207 4.1914,-1.2812 8.1328,-0.9023 11.6601,2.6367 0.2813,-5.6289 2.6211,-9.8398 3.8711,-14.3593 1.0781,-3.910195 3.7891,-5.308595 7.8086,-4.347695 1.5,0.3594 3.1211,0.2305 4.6094,0.3203 0.9101,-1.543 -0.1992,-2.6406 -0.457,-3.8633 -1.7696,-8.3789 -0.1329,-10.0781 8.5195,-8.789 1.0508,0.1601 2.1289,0.5 3.1406,0.3711 1.7305,-0.2305 3.3789,2.5781 4.9883,0.3007 1.6406,-2.3007 0.3906,-4.5898 -0.9492,-6.5195 -0.5313,-0.7617 -1.9414,-0.9297 -0.9219,-2.25 0.5508,-0.6914 1.3008,-0.7695 2.1211,-0.5117 2.5,0.8008 10.1992,1.1484 10.9101,-0.1992 2.5704,-4.8711 7.3594,-2.7891 10.9688,-3.7813 10.3516,-2.8398 21.0312,-3.7773 31.7812,-3.6992 2.9102,0.031 5.7383,0.02 8.129,-2.2383 1.4023,-1.3203 3.6796,-1.7226 5.2695,-0.9336 4.8398,2.4219 9.3203,0.6016 14.2031,0.2422 17.2578,-1.3086 34.3086,-4.9297 51.7383,-4.5508 17.1797,0.3594 34.3906,-0.1289 51.5391,1.2422 7.6093,0.6094 15.2031,0.4375 22.7929,0.4297 4.3672,0 8.0469,2.3789 12.2969,2.5 1.2617,0.027 2.9922,1.4102 3.6719,0.9375 4.789,-3.2383 9.0703,-2.3789 13.6093,0.5703 1.4297,0.9297 3.5,0.4727 5.2618,-0.6094 4.0078,-2.4687 8.2187,-0.2695 12.3398,-0.2382 3.7774,0.02 3.6797,3.5976 4.6172,6.6875 4.6211,-3.7188 9.3711,-3.461 14.4219,-3.8008 9.789,-0.668 19.2109,-0.3086 28.75,2 3.6797,0.8906 7.7187,-0.6875 11.7304,-0.1797 5.5,0.7031 11.1797,2.6328 16.5899,-0.7305 0.4101,-0.2578 1.4687,0.293 2.1094,0.6524 4.1406,2.3281 8.6289,2.0976 13.1211,1.9804 5.4882,-0.1523 10.7773,0.02 13.8203,5.9297 0.539,1.0508 1.7578,2.9688 3.6601,2.4805 1.7383,-0.4492 1.8594,-2.0117 2.2071,-3.6797 0.8828,-4.3008 4.582,-6.4414 7.832,-8.832 1.0781,-0.8008 2.168,-0.3281 2.7578,0.582 1.6406,2.5391 2.1016,0.9492 2.6797,-0.6406 0.3008,-0.8008 1.4531,-1.6211 1.6914,-0.9492 1.6406,4.5586 5.8906,2.1679 9.3711,4.0195 -0.7813,-3.4219 -1.4102,-7.4414 3.3398,-5.5195 3.0586,1.2382 3.5,-2.3711 5.3203,-1.7422 3.711,1.2812 7.1993,-3.8985 10.9883,-0.1797 0.5196,0.5195 1.7305,-0.7695 2.4219,-1.6211 1.1484,-1.418 1.6406,-1.2969 2.457,0.5898 1.6524,3.793 6.4805,4.7618 8.7422,1.4102 3.8594,-5.75 8.6485,-4.7188 13.8594,-3.3281 l -0.1211,-0.1992 c 3.1133,5.3671 5.6016,1.2968 8.2305,-0.543 l -0.1094,0.2617 c 3.5195,-3.6797 8.3086,-1.5703 12.4101,-2.2812 2.5704,-0.4375 4.7891,3.5507 6.7891,5.9609 -0.039,2.0703 0.4805,3.6289 3.0625,2.9219 1.1289,-0.3125 1.8086,-1.4102 1.3086,-2.3203 -0.8594,-1.5508 -2.4297,-1.5196 -3.9414,-0.8204 -0.2305,0.1094 -0.418,0.3086 -0.6172,0.461 0.3477,-0.3828 0.8477,-0.7031 1.0391,-1.1524 3.7812,-8.5703 11.0586,-9.289 18.9687,-8.4101 3.5703,0.4023 6.7422,0.9297 10.6406,-0.168 3.8907,-1.0898 9.3399,-0.012 12.0704,5.2969 1.2304,-2.2969 -0.8594,-2.668 -0.8204,-4.2969 4.9102,-1.6211 9.7383,1.0977 14.6211,0.7383 1.5782,-0.1211 1.711,0.7812 1.5782,1.8711 -0.3086,2.6094 0.9023,4.5898 2.5507,6.3789 0.9219,0.9922 -1.1406,3.4609 1.7305,3.4297 1.8008,-0.02 2.8399,-1.2813 3.8399,-2.5 0.7187,-0.8789 0.6796,-1.5899 -0.461,-2.461 -3.3086,-2.5195 -3.2383,-2.6093 -0.7383,-7.25 2.9375,-0.3086 3.1172,3.211 5.3594,4 2.2813,0.8125 4.4297,2.3321 5.6289,-1.3086 0.2305,-0.6796 1.2617,-1.7695 1.3516,-1.7187 4.2695,2.5586 8.1797,-1.6406 12.0273,-0.7813 5.1602,1.1485 10.1133,2.3516 15.4024,0.9415 0.7304,-0.1915 2.5312,0.7695 2.5781,1.3281 0.5117,4.9687 3.25,3.9687 5.9531,2.1992 1.1875,-0.7773 2.0664,-1.2969 3.5196,-0.918 4.4804,1.1797 8.8593,0.1211 13.2304,-0.8125 -0.3515,0.9414 -0.7422,1.8711 -1.0312,2.8321 -0.3203,1.0703 -0.2188,2 1.1211,2.25 0.2265,0.039 0.5,0.012 0.707,-0.07 1.3633,-0.5195 1.043,-1.4296 0.5117,-2.371 -0.4922,-0.879 -0.9805,-1.7579 -1.4687,-2.629 1,0.2696 2.6875,1.0196 2.8789,0.7305 1.2695,-1.832 1.6679,-4.3515 4.8711,-4.0586 5.4492,0.4766 11.3867,-0.4804 16.0468,2.7071 6.2422,4.2812 12.8829,5.4726 20.0625,4.7226 3.75,-0.4023 7.3594,-0.2422 10.9883,0.8203 3.8125,1.1172 7.8008,0.6289 11.6406,1.0078 11.4102,1.1407 22.6094,3.7891 33.6485,6.8399 6.4414,1.7812 12.8125,2.2617 19.3711,1.25 3.039,-0.4688 6.2109,-1.7305 8.2617,2.3789 1.0391,2.0898 3.8203,1.2812 5.8594,1.5117 1.7695,0.1914 3.6914,-0.3281 5.5078,1.2695 -1.8086,3.7813 -5.7188,1.9102 -8.1797,3.3907 1.8516,4.6093 6.1406,4.1484 9.6797,4.0312 4.4023,-0.1406 7.6601,1.1484 10.0625,4.7188 3.1289,4.6796 7.9101,5.8281 12.9883,5.6406 4.9297,-0.1914 9.56245,-0.8516 12.64055,4.538995 0.75,1.3008 3.0195,3.2696 6,0.9297 2.4101,-1.8789 6.1992,-0.539 9.1992,0.07 4.0313,0.8008 7.2305,0.012 10.1016,-2.7304 -1.1992,2.6914 -1.1992,2.6914 3.0508,5.8906 l -0.25,-3.9609 c 0.5078,0.1328 1.039,0.1992 1.5273,0.4023 7.9297,3.3672 8.3711,6.1484 1.8516,11.7578 3.2304,2.9805 3.2304,2.9805 5.25,7.71103 -3.6016,-0.1289 -6.75,1.25 -10.1993,-1.94143 -3.1914,-2.9493 -5.2617,-1.4493 -8.8711,4.96093 0.2891,-4.80863 -3.2695,-5.78913 -6.7382,-7.23833 -0.6719,5.79693 -0.6719,5.79693 6.0273,8.73833 0.09,1.7695 0.5508,3.3203 2.793,2.5312 1.9062,-0.6718 2.8984,-3.2421 5.4375,-2.7617 -0.1406,6.0117 5.1211,12.7305 11.9687,13.4219 7.0625,0.707 12,5.7695 18.461,6.8281 0.1211,2.4805 -2.2383,2.5508 -2.6797,4.1602 2.5508,2.4492 4.7695,4.5312 9.1523,4.3008 3.3789,-0.1719 7.5,0.4414 9.9766,4.9101 1.9219,3.4688 6.8711,3.8789 10.7305,3.2383 2.871,-0.4883 5.2929,-0.078 7.5898,1.1211 1.3516,0.7109 3.1602,1.4609 1.3516,4.1797 -2.2383,3.3594 3.3086,2.1601 3.6289,5.3203 -13.6485,0.9609 -26.6797,-5.7383 -40.5196,-3.0195 7.6211,1.6406 11.4414,9.3203 18.5508,11.3593 4.9102,1.3907 9.1602,3.8203 13.6094,6.0313 4.5508,2.2578 2.1484,6 1.5,8.8476 -0.6211,2.7618 -2.6289,5.3204 -6.4609,4.0704 -3.0196,-0.9805 -6.0586,-1.879 -9.1094,-2.7383 -1.0899,-0.3086 -2.2891,0 -2.5391,1.1601 -0.25,1.1407 0.668,1.9492 1.7813,2.2305 2.9375,0.75 6.3476,-0.1328 9.539,2.8594 -3.2304,1.1601 -5.6601,-0.7696 -8.1093,-0.3399 2.1796,3.461 -3.5313,6.5313 -0.6329,10.3282 0.1797,0.2421 -3.8203,3.0898 -6.6679,2.1718 -2.3203,-0.7617 -4.6602,-0.9101 -7.0508,-0.6289 -3.7813,0.4297 -8.0195,3.5274 -7.3711,5.8672 0.8516,3.043 2.9023,4.8008 6.5117,5.793 5,1.3672 10.5078,1.6797 14.7305,5.8789 2.2305,2.1992 5.3086,4.0078 9.168,4.0195 4.5429,0.019 6.2109,5.3086 10.2031,6.75 0.1992,0.07 0.3086,1.2695 0.1367,1.3711 -3.9297,2.3594 -2.3477,5.8086 -2.1992,9.1797 0.1406,3.0078 -3.418,5.207 -6.4102,3.668 -4.2304,-2.1993 -7.5898,-3.6172 -9.4883,2.3711 -4,0.5703 -5.0898,3.2617 -6.4218,6.8007 -0.9493,2.5079 -4.7891,1.3672 -7.0703,-0.02 -4.5782,-2.793 -9.4805,-4.1914 -14.7696,-5.0898 -0.6406,3.6367 4.461,2.9375 3.3711,5.6875 -0.7109,1.8007 -1.9922,3.4414 -3.4922,5.0195 -2.8593,3.0117 -0.5898,6.082 2.5625,9.582 -5.4218,-1.5195 -10.2187,0.668 -14.6718,-2 -1.0274,-0.6093 -2.1407,-0.3008 -2.7071,0.75 -0.5625,1.0313 -0.1836,2.1485 0.7071,2.8086 3.0507,2.2891 5.1523,5.8906 9.8906,5.7422 4.3711,-0.1406 8.0625,3.918 12.8906,2.5703 0.7695,-0.2109 1.9102,1 0.9102,2.25 -0.6016,0.7266 0.1289,2.4883 -1.5118,2.2969 -2.3086,-0.2773 -4.5781,-1.4102 -7.7382,0.332 3.4414,3.5703 7.8711,2.4883 11.5586,3.2578 3.871,0.8125 7.9414,0.6329 11.7929,1.4922 4.0469,0.8985 8.2774,1.0508 12.0977,3.3282 3.3515,2 7.8515,1.0195 11.4023,3.2812 -1.2226,2.0195 -2.7422,1.8984 -4.7617,1.4609 -9.0117,-1.9101 -18.0586,-3.6015 -27.1016,-5.3515 -1.039,-0.1992 -2.0898,-0.3711 -3.1484,-0.418 -2.2891,-0.1016 -4.7891,0.3594 -4.2383,3.168 0.3594,1.832 2.3867,2.7812 4.8672,2.6211 7.6328,-0.4688 15.5,-2.0196 22.3711,3.1484 1.5781,1.1914 3.75,1.6914 5.2695,1.25 5.7188,-1.6484 10.6993,1.8594 16.1993,1.7813 4.3515,-0.07 7.9023,2.9414 6.9296,4.7304 -1.789,3.3282 -5.1796,2.4883 -7.789,2 -4.8985,-0.9101 -9.6797,-2.5508 -14.5,-3.832 -4.9297,-1.3203 -9.7188,-2.2969 -14.4375,-0.8594 -3.75,1.1524 -6.3438,-2.539 -9.961,-1.289 -1.5507,0.5312 -2.3906,-1.7891 -3.6406,-2.6289 -2.1992,-1.5118 -1.4492,1.3398 -2.1914,1.7304 -1.8476,0.9883 -2.0586,-1.7031 -3.4687,-2.0117 -0.5118,-0.1094 -1.3399,-0.5195 -1.4493,-0.3711 -5.1718,6.8711 -13.4414,0.4805 -19.4296,4.9414 2.2773,2.6602 6.0781,-0.4805 8.6289,2.1211 -1.3594,1.7383 -2.7618,3.5195 -4.1602,5.3086 -3,-2.3203 -7.0312,-3.3516 -8.3711,-7.6602 -0.5976,-1.8984 -2.3281,-2.4296 -4.5508,-1.5507 -2.1289,0.8398 -6.0898,2.0117 -6.5468,1.3007 -2.4532,-3.8281 -5.4727,-1.9804 -8.3907,-1.6601 -1.3515,0.1406 -2.9609,0.2109 -3.6289,-1.0078 -3.0703,-5.6406 -8.95305,-4.2617 -14.18355,-6.6602 1.4805,3.3985 5.69135,1.6094 6.06245,5.9492 -5.67175,-1.3515 -11.19135,0.1407 -16.71865,-0.5 -1.8008,-0.2109 -3.6133,0.3282 -4.0117,1.5196 -0.3321,1 0.8007,2.8906 1.789,3.8593 2.6524,2.5899 6.4414,1.9297 9.6524,2.961 5.8593,1.8789 12.51945,-2.9102 18.03895,2.2695 0.5899,0.5508 3.0196,0.1914 3.6797,-0.5508 2.1602,-2.4687 4.7383,-1.4804 6.3594,-0.3398 2.5,1.7305 4.9609,1.3516 7.5391,1.4101 4.4921,0.09 8.9804,0.2813 13.4609,0.4297"
     id="path85" />
</svg>
