<?xml version="1.0" encoding="UTF-8" standalone="no"?>
<svg
   width="1200"
   height="400"
   viewBox="0 0 1200 400"
   version="1.1"
   id="svg728"
   xmlns="http://www.w3.org/2000/svg"
   xmlns:svg="http://www.w3.org/2000/svg">
  <defs
     id="defs728" />
  <path
     fill-rule="evenodd"
     fill="#000000"
     fill-opacity="1"
     d="m 854.13726,356.71441 c -0.2383,-1.0351 -1.0899,-0.914 -1.7891,-0.8906 -0.7813,0.023 -1.7188,0.1797 -1.2109,1.3242 0.1718,0.3828 0.8125,0.6992 1.2812,0.7656 0.8711,0.125 1.4219,-0.4453 1.7188,-1.1992 m -377.0586,22.5156 c -0.6914,0.055 -1.4297,0.066 -2.1602,0.1875 -0.6406,0.1055 -0.9609,0.8086 -0.5781,0.9649 0.6289,0.2656 1.4492,0.1875 2.1679,0.09 0.629,-0.086 0.8321,-0.5547 0.5704,-1.2422 m -134.3907,-11.664 c 0.25,0.7734 0.8086,1.2617 1.5899,1.1797 0.2187,-0.023 0.5625,-0.8086 0.5117,-1.1993 -0.1016,-0.7656 -0.5898,-1.4101 -1.4727,-1.1132 -0.3086,0.1015 -0.4296,0.7422 -0.6289,1.1328 m 55.8008,-10.75 c -0.019,-1.3477 -0.9414,-1.7305 -2.0195,-1.6172 -0.711,0.078 -1.3789,0.5391 -2.0703,0.8281 0.5976,1.1211 1.1211,2.3125 2.7187,2.2656 0.9922,-0.031 1.211,-0.6992 1.3711,-1.4765 m -113.5312,-13.7696 c -0.3594,0.2579 -1.4375,0.6836 -1.4375,1.0977 0.01,1.0039 1.0586,0.7891 1.789,0.8164 0.7813,0.035 1.7383,0 1.7383,-0.9687 -0.01,-0.9883 -0.9805,-0.9727 -2.0898,-0.9454 m -17.4493,2.4375 c -0.1679,0.5665 -0.371,0.961 -0.3906,1.3594 -0.019,0.7344 -0.1797,1.7149 0.6914,1.9571 0.9883,0.2734 1.2696,-0.3985 0.8594,-1.2579 -0.3203,-0.664 -0.7187,-1.2851 -1.1602,-2.0586 m 790.99994,-95.0195 c -0.2304,-0.4219 -0.3906,-1.1562 -0.6796,-1.2148 -0.9297,-0.1875 -1.4102,0.4687 -1.3516,1.3242 0.031,0.4141 0.4023,1.0547 0.7422,1.1601 1.0195,0.3086 1.2773,-0.4101 1.289,-1.2695 m -779.03894,59.9219 c -0.3516,-0.8125 -1.0195,-1.1172 -1.8203,-0.9453 -0.7891,0.1758 -1.5586,0.7109 -1.4024,1.5742 0.1719,0.8477 1.1016,0.8711 1.8321,0.7773 0.8007,-0.098 1.5195,-0.3671 1.3906,-1.4062 m -73.8399,1.168 c -0.1796,-0.4375 -0.25,-1.1368 -0.5625,-1.2618 -0.7695,-0.3203 -1.5,0.016 -1.9179,0.7813 -0.3008,0.5703 -0.1094,1.043 0.5078,1.2266 0.8203,0.2343 1.5,0.01 1.9726,-0.7461 m 27.9688,-22.7227 c -0.051,-0.9453 -0.6406,-1.4219 -1.4609,-1.1641 -0.629,0.1954 -1.3477,0.6914 -1.629,1.2539 -0.3007,0.6094 0.031,1.5743 0.8516,1.5821 1.0274,0.01 1.7774,-0.7266 2.2383,-1.6719 m 10.3203,-18.4727 c -0.4414,0.1407 -0.8906,0.2774 -1.3516,0.4141 0.7305,0.7188 1.4102,1.4727 2.1797,2.1328 0.543,0.4649 1.1133,0.2578 1.1016,-0.4258 -0.031,-1.1757 -0.8906,-1.7656 -1.9297,-2.1211 m -81.0586,-68.9375 c -0.8398,0.2344 -1.332,0.7969 -0.9805,1.6211 0.1407,0.336 0.7891,0.6016 1.2305,0.6329 0.75,0.059 1.5391,-0.2227 1.3867,-1.1719 -0.1289,-0.8047 -0.7968,-1.1602 -1.6367,-1.0821 m -98.640598,7.7383 c 0.9687,-0.1172 1.25,-0.7695 1.2305,-1.6211 -0.031,-0.8164 -0.3008,-1.6484 -1.1602,-1.7422 -1.332,-0.1406 -1.8398,0.7422 -1.6719,1.9493 0.1211,0.8554 0.75,1.3047 1.6016,1.414 m 126.621098,-71.0547 c 0.3672,-0.3046 1.0664,-0.6523 1.039,-0.9062 -0.1211,-0.8516 -0.8828,-1.2617 -1.6601,-1.2344 -0.332,0.012 -0.9024,0.625 -0.9024,0.9649 0.012,0.8828 0.6211,1.289 1.5235,1.1757 m -22.7227,-3.5781 c -0.051,-1.2812 -0.7578,-1.75 -1.5195,-1.4297 -0.5391,0.2266 -1.0703,1.0469 -1.1484,1.6602 -0.1016,0.7305 0.3906,1.5937 1.3593,1.1289 0.5977,-0.2891 0.9883,-1.0117 1.3086,-1.3594 m 10.4414,-23.457 c -0.5898,1.0664 -1.2109,2.1172 -1.7187,3.2187 -0.062,0.1328 0.5586,0.836 0.8164,0.8086 1.832,-0.2109 2.2226,-1.5664 0.9023,-4.0273 m 93.0586,-20.847695 c -0.8398,0.051 -1.7109,0.3399 -1.6484,1.0821 0.07,1.0976 1,1.6562 2.0898,1.5898 0.3907,-0.023 1.0078,-0.4414 1.0703,-0.7656 0.2305,-1.1875 -0.5195,-1.7383 -1.5117,-1.9063 m 246.6406,-29.6289 c 1.3204,-0.1523 1.8008,-0.7148 1.7618,-1.5586 -0.043,-0.8047 -0.4922,-1.4765 -1.4024,-1.3554 -0.8086,0.1093 -1.3594,0.7343 -1.3476,1.5703 0.01,0.8437 0.5273,1.3476 0.9882,1.3437 m 260.8594,-23.929704 c -0.1094,-1.0898 -0.4883,-1.8828 -1.3594,-1.5312 -0.5312,0.2148 -1.0195,1.1015 -1.1015,1.7383 -0.098,0.7812 0.582,1.5664 1.3711,1.3047 0.5312,-0.1758 0.8125,-1.0977 1.0898,-1.5118 m -373.3789,24.398504 c -0.4297,0.4179 -0.9805,0.6953 -1.0117,1.0234 -0.098,0.9336 0.6211,1.2656 1.4023,1.2305 0.6094,-0.023 1.6289,-0.012 1.1993,-1.0391 -0.2305,-0.539 -1.0508,-0.8281 -1.5899,-1.2148 m 33,-24.738304 c -0.8008,0.3008 -1.2617,0.8945 -1.2305,1.7148 0.031,0.8125 0.4102,1.625 1.379,1.1368 0.5898,-0.2969 1.2304,-1.0274 1.3203,-1.6368 0.1093,-0.7773 -0.4883,-1.3984 -1.4688,-1.2148 m 452.7578,296.789099 c 0.4336,-1.2266 -0.207,-2.0899 -1.2187,-2.3868 -0.5391,-0.1562 -1.7696,0.3399 -1.8906,0.7657 -0.3594,1.2695 -0.1172,2.5781 1.5117,2.9296 1,0.2149 1.25,-0.6445 1.5976,-1.3085 m -444.1562,35.3632 c 0.5195,-0.7578 2.0469,-1.1484 1.5469,-2.6406 -0.09,-0.2851 -1.3282,-0.375 -1.9688,-0.2539 -1.0508,0.1953 -1.8203,0.8867 -1.5117,2.0742 0.2031,0.7735 0.8633,1.0977 1.9336,0.8203 m -192.1133,2.2422 c 1.4727,-0.3203 2.0703,-1.2929 1.9414,-2.7265 -0.07,-0.7618 -0.7187,-1.6875 -1.2695,-1.1797 -0.8086,0.7617 -1.2422,2.0156 -1.6407,3.1289 -0.1914,0.5117 0.3399,0.8515 0.9688,0.7773 m 33.6719,-13.0234 c 0.6797,1.3203 1.7187,1.4609 2.7383,1.5234 1.25,0.074 2.0117,-0.7148 1.8398,-1.8437 -0.1484,-1.0586 -1.0703,-1.8789 -2.2305,-1.4141 -0.8867,0.3594 -1.5976,1.1602 -2.3476,1.7344 m -25.9414,-7.3516 c 0.6015,-2.2265 -0.3789,-2.2734 -1.0586,-2.4258 -1.1016,-0.2421 -2.3516,0.1211 -2.6602,1.0821 -0.289,0.8828 0.1797,2.0898 1.668,1.9492 1.082,-0.1094 2.0117,-0.4453 2.0508,-0.6055 m -50.8477,-39.3281 c -0.012,-1.1094 -0.6016,-1.6211 -1.4726,-1.1953 -0.629,0.3164 -1.2891,1.0195 -1.4688,1.6758 -0.1992,0.75 0.3711,1.664 1.2305,1.6328 1.2695,-0.047 1.4883,-1.2149 1.7109,-2.1133 m 59.9805,-15.2461 c 0.059,-0.3516 -0.6133,-0.8008 -1.4024,-0.8984 -1.3789,-0.1719 -1.7695,0.8593 -1.8906,1.9453 -0.098,1.0429 -0.1094,2.2969 1.5,1.914 1.0625,-0.2539 1.6602,-1.1601 1.793,-2.9609 m 765.29684,-139.6211 c -0.3477,-1.1055 -1.1094,-2.0312 -2.2071,-1.9531 -0.9219,0.066 -0.8828,1.2344 -0.5508,1.875 0.3204,0.6211 0.9688,1.3086 1.5977,1.4805 0.9531,0.2539 1.2031,-0.5743 1.1602,-1.4024 m -43.25789,-2.2656 c 2.0899,0.8398 3.2891,2.3437 4.7696,0.7773 0.25,-0.2656 0.289,-1.2148 0.1093,-1.332 -1.4414,-0.8945 -2.8789,-0.4844 -4.8789,0.5547 m 80.61719,-13.4258 c -0.2383,-1.3281 -1.25,-1.5312 -2.3086,-1.4453 -0.4492,0.039 -1.25,0.4961 -1.2304,0.668 0.1601,1.1211 1.1015,1.664 2.0507,1.9492 0.8204,0.2422 1.3711,-0.3047 1.4883,-1.1719 M 157.71926,98.33571 c 0.8789,0.047 1.8984,-0.094 1.9883,-0.8867 0.1601,-1.4531 -1.1797,-1.4336 -2.1485,-1.4961 -0.9492,-0.062 -2.3515,-0.125 -2.2812,1.1641 0.07,1.2734 1.5703,0.9882 2.4414,1.2187 m 645.3984,-62.039099 c -0.1406,-1.1406 -0.8086,-1.9218 -1.8086,-2.3632 -0.7617,-0.3399 -1.5703,-0.1875 -1.7109,0.7695 -0.1797,1.1758 0.4492,2.0117 1.582,2.3359 0.7774,0.2227 1.4883,0.035 1.9375,-0.7422 m -261.4492,15.515504 c -0.8984,0.1992 -1.3398,0.9648 -0.9609,1.6015 0.25,0.4219 1.2617,0.543 1.9297,0.5313 0.7929,-0.019 1.4218,-0.4375 0.9218,-1.4258 -0.4101,-0.8047 -1.1406,-0.8086 -1.8906,-0.707 m 255.6797,-28.996104 c 2.1094,2.4453 2.2695,4.1719 4.2109,4.25 0.3086,0.012 0.9688,-0.6758 0.9297,-0.9531 -0.2812,-1.7696 -1.6289,-2.461 -5.1406,-3.2969 m -319.4102,9.4883 c -0.3906,-1.0079 -1.25,-1.3633 -2.3711,-1.1407 -1.2382,0.25 -1.8281,1.2344 -1.3203,2.2032 0.461,0.8593 1.6524,1.2109 2.711,0.6992 0.6406,-0.3047 1.5,-0.6055 0.9804,-1.7617 m -148.3593,21.578104 c 1.5507,2.9687 3.039,3.9844 5.9492,4.164 -1.1602,-2.6093 -2.2696,-4.1718 -5.9492,-4.164 m 78.3711,-3.0195 c -1.1407,-2.476604 -2.5821,-3.656304 -4.9805,-2.980504 -0.2813,0.078 -0.6524,0.8828 -0.5391,1.207 0.6992,2.101604 2.6602,2.125004 4.3985,2.453104 0.1601,0.031 0.3711,-0.2148 1.1211,-0.6796 m -15.8125,2.4531 c -0.7383,0.1172 -1.7891,0.4609 -1.5586,1.1289 0.3984,1.1914 1.5195,2.0625 2.8515,2.0312 0.5469,-0.012 1.5781,-0.9062 1.5274,-1.2578 -0.2383,-1.4609 -1.4297,-1.9179 -2.8203,-1.9023 M 237.18016,157.04251 c 1.2578,-0.5 3.0781,-0.2343 3.5469,-2.039 0.1914,-0.75 -0.5195,-1.4571 -1.3398,-1.4805 -1.3594,-0.043 -2.2696,0.9414 -2.9883,1.9219 -0.4805,0.6484 -0.1289,1.3281 0.7812,1.5976 M 974.64891,45.273011 c -0.8594,-0.6758 -1.211,-1.1601 -1.6602,-1.2578 -1.2695,-0.2852 -3.6289,-1.8242 -3.3515,0.7773 0.2695,2.4102 2.7109,1.586 5.0117,0.4805 M 68.809062,220.84721 c -0.051,-1.4609 -1.1406,-2.1015 -2.2187,-2.7383 -0.6016,-0.3554 -1.1016,-0.1796 -1.1524,0.5118 -0.1093,1.7109 0.6602,2.8906 2.3907,3.207 0.2617,0.047 0.6406,-0.6172 0.9804,-0.9805 m 906.968748,-51.4765 c -0.9102,-1.4844 -2.168,-2.0469 -3.9102,-1.5977 -0.789,0.2031 -1.5078,0.5391 -1.4883,1.4609 0.02,1.0547 0.9493,1.0586 1.668,1.1016 1.2617,0.078 2.582,0.293 3.7305,-0.9648 m -758.99995,94.0859 c -0.6992,-0.8828 -1.5899,-1.2578 -2.6406,-0.7969 -1.0977,0.4844 -2.5391,1.0196 -1.8985,2.5157 0.1797,0.4257 1.8711,0.375 2.8281,0.2578 1.0118,-0.125 1.9219,-0.6446 1.711,-1.9766 m 16.4687,37.4414 c 1.4727,-0.082 2.0508,-1.1758 2.2617,-2.4219 0.129,-0.8086 -0.5703,-1.3906 -1.3203,-1.5468 -1.4414,-0.2969 -2.5312,0.3359 -2.6797,1.8007 -0.1015,1.0118 0.5704,1.8633 1.7383,2.168 m 20.8125,49.3203 c 0.6094,-0.3086 1.6797,-0.332 1.0586,-1.4765 -0.5898,-1.0664 -0.8086,-2.6368 -2.3594,-2.6797 -1.2695,-0.035 -1.8203,1.1836 -1.6093,2.1679 0.289,1.3594 1.4179,2.0704 2.9101,1.9883 m 27.3477,28.7188 c 1.8515,-0.2735 2.7305,-1.1641 2.3906,-2.7266 -0.1797,-0.8203 -1.1875,-1.0039 -1.918,-0.7422 -1.2226,0.4336 -2.5195,1.0781 -2.1601,2.6641 0.098,0.4297 1.2578,0.6133 1.6875,0.8047 M 1038.6098,66.800415 c 1.7383,-0.3711 1.8477,-2.0079 2.207,-3.3477 0.293,-1.0547 -0.039,-2.0898 -1.4179,-1.957 -1.8008,0.1679 -2.5821,1.3789 -2.5821,3.0976 -0.01,1.1133 0.5625,1.8828 1.793,2.2071 m 27.5781,1.9453 c -1.0586,-3.0078 -2.8398,-3.8985 -5.3711,-3.2774 -0.289,0.07 -0.6992,0.9688 -0.5703,1.2735 0.8203,1.9101 2.9336,1.5429 4.4102,2.3007 0.1836,0.094 0.4922,-0.082 1.5312,-0.2968 M 182.47706,148.56601 c 0.2031,1.3476 1.0508,1.8515 2.1914,1.8789 1.4492,0.035 2.6602,-0.461 2.6602,-2.125 0,-0.8985 -0.8594,-1.3281 -1.711,-1.1875 -1.1679,0.1992 -2.8008,-0.4219 -3.1406,1.4336 m 21.7227,224.125 c 1.2187,-0.1797 1.5898,-1.0547 1.9101,-2.043 0.7695,-2.3359 -0.9726,-2.4726 -2.4219,-2.7383 -1.039,-0.1953 -2.1914,0.016 -2.0898,1.3985 0.1289,1.6172 1.2617,2.6523 2.6016,3.3828 m 884.18744,-230.8867 c 1.4414,-2.7461 0.121,-4.3711 -2.3282,-5.4532 -0.2695,-0.1211 -1.1015,0.3243 -1.2304,0.6719 -0.9883,2.6016 0.6796,3.8047 2.6796,4.7656 0.2188,0.1016 0.5196,0.016 0.879,0.016 m -653.87894,230.9843 c -1.2812,0.078 -1.75,1.1094 -2.2109,1.9727 -0.6406,1.1875 -1.0195,2.7617 0.5313,3.3789 2.4687,0.9805 2.3086,-1.3359 2.6601,-2.668 0.2695,-1.0117 0.059,-2.0937 -0.9805,-2.6836 m -15.1093,3.6758 c -0.07,-3.832 -1.5821,-5.4375 -4.7617,-3.8008 -0.3282,0.168 -0.418,0.7891 -0.6875,1.3516 1.8203,0.8203 3.6406,1.6367 5.4492,2.4492 m 579.66005,-175.5117 c -1.2617,0.3359 -1.4609,1.3047 -1.5312,2.332 -0.098,1.7617 0.9609,2.1328 2.4219,1.8985 1.27729,-0.2032 2.64839,-0.5 2.02729,-2.2891 -0.4492,-1.332 -1.6367,-1.8359 -2.91799,-1.9414 m -879.07025,13.668 c -0.4297,-1.125 -0.8008,-2.5118 -2.4414,-2.3555 -1.0703,0.1016 -2.9101,-0.5195 -2.75,1.5859 0.1016,1.3047 0.8516,2.5235 2.2617,2.8282 1.5196,0.3281 2.3477,-0.6641 2.9297,-2.0586 M 1043.2075,59.027215 c -2.2305,-2.8711 -3.0703,-5.3476 -6.1797,-5.4101 -0.3399,0 -1.0196,0.6484 -0.9883,0.9453 0.2578,2.8281 3.0391,3.125 4.7383,4.5234 0.1406,0.1211 0.4922,0 2.4297,-0.059 M 790.34816,28.964311 c 2.7109,-2.5078 3.8711,-4.1719 2.7187,-7.1836 -1.6289,1.8711 -3.1875,3.1914 -2.7187,7.1836 m 113.6289,10.957 c 2.3203,0.3985 4.8711,2.5586 7.9727,-0.5273 -3.1719,-1.3906 -5.5508,-0.4883 -7.9727,0.5273 M 1005.5668,149.83931 c -0.3867,-1.2422 -0.6171,-2.7031 -2.2265,-2.8945 -1.7813,-0.2149 -2.3438,1.6445 -2.5,2.5508 -0.3828,2.1523 1.6679,2.0976 3.0898,2.1953 1.0977,0.074 2.0469,-0.3828 1.6367,-1.8516 m 45.461,-22.0781 c -2.5586,2.043 -5.7305,-1.1992 -9.0899,1.9141 3.8086,-0.3829 6.8008,2.789 9.0899,-1.9141 M 916.41846,43.034711 c 2.0391,0.1758 3.25,-1.1836 4.5508,-2.2109 0.5976,-0.4805 0.6484,-1.3945 0.027,-1.9805 -0.289,-0.2773 -0.957,-0.3867 -1.3789,-0.2617 -2.1406,0.6211 -3.4609,1.9102 -3.1992,4.4531 M 340.06656,347.63631 c 1.1524,-0.2109 1.6797,-0.8672 1.5118,-1.6758 -0.461,-2.2266 -2.4297,-2.4453 -4.1914,-2.7969 -0.8399,-0.1718 -1.6993,0.3438 -1.6094,1.1641 0.3008,2.6445 2.5898,2.7891 4.289,3.3086 m 61.043,4.0195 c -0.2109,-2.1914 -2.043,-2.2422 -3.4101,-2.6601 -1.6524,-0.5118 -2.3008,0.7187 -2.6211,2.0781 -0.2696,1.125 0,2.2148 1.289,2.2461 1.7305,0.043 3.6914,0.3008 4.7422,-1.6641 m -67.9805,12.7227 c 1.1797,-1.2031 4.1094,0.5273 4.2891,-2.336 0.059,-1.0351 -1.4297,-2.332 -1.9687,-1.6679 -1.3399,1.6484 -4.8516,-0.6758 -4.793,2.707 0.012,1.2305 1.2305,1.5625 2.4726,1.2969 m -109.582,-198.6758 c 1.7695,-0.3984 2.6211,-0.3711 3.1797,-0.7539 1.9609,-1.3477 2.9023,-3.4844 3.8125,-5.5742 0.078,-0.1875 -0.582,-0.9922 -0.9609,-1.0391 -3.1602,-0.3984 -3.2188,2.918 -4.9297,4.293 -0.5,0.4023 -0.5313,1.3867 -1.1016,3.0742 m 802.92964,-3.9141 c 1.6523,0.2227 2.4219,0.5118 3.1211,0.3828 1.9492,-0.3632 3.4297,-1.289 3.0391,-3.6445 -0.09,-0.4922 -0.2383,-1.2734 -0.5391,-1.375 -1.8711,-0.6289 -2.6016,1.0703 -3.668,2.0156 -0.5429,0.4805 -0.8906,1.168 -1.9531,2.6211 m -129.66014,137.6641 c -5.4101,0.1562 -5.4101,0.1562 -7.1796,2.7969 2.6093,0.6875 4.6093,-0.1524 7.1796,-2.7969 m -4.9882,71.1953 c 3.3984,-0.086 5.2187,-1.043 6.8711,-2.2461 0.8281,-0.6055 1.3984,-1.8242 0.789,-2.7383 -0.6914,-1.0351 -1.9414,-0.6875 -2.75,0.039 -1.4609,1.3125 -2.7812,2.7812 -4.9101,4.9453 m 119.64834,-105.5312 c -0.3086,-1.1211 -0.75,-2.3282 -1.8477,-2.3672 -2.2226,-0.078 -2.8906,1.9101 -3.4609,3.5195 -0.3711,1.082 0.6602,2.0703 1.75,2.1094 2.1914,0.09 2.9883,-1.5664 3.5586,-3.2617 M 304.70726,64.464315 c 1.2109,2.6485 3.2695,3.6172 5.4804,4.2617 0.8399,0.2422 1.6094,-0.2773 1.6211,-1.1211 0.02,-0.6796 -0.3008,-1.7851 -0.7695,-1.9804 -1.9297,-0.7891 -4.2813,0.2109 -6.332,-1.1602 m -63.8789,100.492195 c -2.6993,2.5742 -4.0508,5.7773 -3.3321,7.0156 1.4102,2.4297 3.6524,0.9961 6.5313,1.2696 -2.8399,-2.4688 -5.3594,-4.5821 -3.1992,-8.2852 m 172.9687,196.7891 c -1.0586,0.5664 -2.8203,1.0898 -2.2305,2.5468 0.6602,1.6368 2.1016,3.0704 4.3399,2.6641 1.4609,-0.2617 2.5703,-0.9609 2.2109,-2.6055 -0.5,-2.2031 -2.1992,-2.7382 -4.3203,-2.6054 M 1014.6173,57.792415 c 2.8516,2.7696 6.5703,1.9844 9.8399,2.961 1.4297,0.4297 2.3515,-0.7891 2.0625,-2.375 -0.2305,-1.2188 -1.0235,-1.6094 -2.2422,-1.211 -3.1289,1.0157 -6.3008,0.7579 -9.6602,0.625 M 177.70726,144.24561 c -1.7578,3.3203 -3.3985,5.3164 -2.9805,8.2734 0.1719,1.1836 0.6016,2 1.6328,2.2773 1.7578,0.4688 2.4883,-1.0859 2.4688,-2.1796 -0.039,-2.3985 -0.6016,-4.7891 -1.1211,-8.3711 m 557.8515,212.4218 c -1.5508,1.2149 -2.4297,2.1133 -3.4804,2.6797 -1.2188,0.6446 -3.5391,0.3086 -2.6094,2.6914 0.9687,2.4922 3.168,1.2735 4.668,0.7852 2.7031,-0.8867 1.9296,-3.1953 1.4218,-6.1563 m -587.8203,-242.9726 c -2.1211,-2.6797 -4.2305,-5.3594 -6.75,-8.5547 -0.6719,5.3125 1.1016,8.2852 6.75,8.5547 m 11.2578,87.1055 c -1.1289,-1.3438 -2.3789,-2.8399 -3.6367,-4.3321 -1.0703,1.0078 -2.5312,1.8321 -3.1211,3.0703 -0.6094,1.2969 2.9688,4.836 4.3399,4.4961 1.4296,-0.3515 1.9101,-1.6211 2.4179,-3.2343 m 877.69134,-52.7852 c -3.0703,-0.3125 -5.789,-1.2109 -8.5703,-1.7852 -1.1289,-0.2343 -2.1289,-0.062 -2.2383,1.3204 -0.1015,1.2656 1.0977,2.3007 1.8477,2.2148 3.0117,-0.332 6.293,0.9258 8.9609,-1.75 m -53.62889,14.7695 c 5.8399,2.0625 5.8086,2.0547 7.1485,-2.5586 0.3398,-1.1757 1.5195,-2.3476 0.1093,-3.414 -0.457,-0.3438 -1.5703,-0.2461 -2.1484,0.066 -2.0586,1.1094 -0.7695,2.2929 -0.1914,3.7617 0.8008,2.0078 -0.3281,2.9219 -2.3789,2.0508 -0.9297,-0.3946 -1.7305,-1.3438 -2.5391,0.094 m -550.60925,205.4297 c 2.6406,0.8828 5.539,-2.125 8.0976,0.4766 0.4492,0.457 1.3203,1.1367 1.5899,-0.1055 0.1406,-0.6328 -0.1602,-1.6055 -0.6172,-2.0742 -1.4727,-1.5 -3.4532,0.2266 -5.1524,-0.6797 -3.789,-2.0234 -3.8203,-1.9609 -3.9179,2.3828 m -258.7305,-225.7031 c 2.4297,-1.4219 4.4375,-2.3086 4.1601,-4.293 -0.3398,-2.3633 -2.4414,-3.8594 -4.6406,-4.5586 -1.3086,-0.414 -2.8515,0.875 -2.5312,2.0977 0.6015,2.2734 3.2422,3.4961 3.0117,6.7539 M 714.68766,24.413411 c 4.6094,2.3594 7.9805,0.047 11.1602,0.9883 0.7812,0.2305 1.9687,-1.039 1.9101,-2.1484 -0.078,-1.6172 -1.3281,-2.2305 -2.789,-1.8477 -3.0117,0.7852 -5.9727,1.7305 -10.2813,3.0078 M 154.10956,210.96031 c -0.4219,-0.8711 -0.082,-2.5859 -2.0195,-2.4766 -2.5821,0.1485 -4.8906,1.4063 -5.1914,3.9571 -0.2617,2.1758 2.3398,2.8047 3.9687,3.0312 3.0821,0.4258 2.711,-2.3359 3.2422,-4.5117 m 134.3672,92.7774 c -0.8281,-2.8672 -0.9805,-5.7383 -3.8984,-6.8125 -1.5313,-0.5665 -4.1016,0.035 -3.3711,1.5 1.0507,2.0898 2.5703,3.6914 1.5,6.1835 1.8125,0.3047 3.5898,0.3125 5.7695,-0.871 m -133.8083,-176.6834 c -2.3203,2.957 -3.3398,4.4257 -0.9805,7.207 2.3711,2.8203 3.8399,2.1172 6.8203,0.6367 -2.6093,-2.3828 -4.1484,-4.6953 -5.8398,-7.8437 m 445.8711,242.3437 c -0.6914,-6.0898 -3.0313,-7.4648 -7.5,-6.3789 -1.6406,0.3984 -3.332,0.1875 -3.2109,2.2617 0.09,1.5156 1.5781,2.1133 2.9804,1.6211 2.7696,-0.9648 4.8282,0.7617 7.7305,2.4961 m 463.55074,-235.6719 c 5.5273,3.5391 9.7265,-0.9687 14.2383,-0.7304 0.1601,0.012 0.7304,-1.4649 0.5195,-2.0274 -0.3906,-1.0664 -1.7109,-1.6211 -2.5781,-1.1211 -3.5508,2.0469 -7.8711,1.8203 -12.1797,3.8789 m -687.43354,205.7891 c 1.4609,2.8203 2.4531,5.0781 5.0625,6.3203 1.2187,-2.2773 4.0195,-2.9141 3.9375,-5.7422 -2.5977,-2.0039 -5.3789,-1.0664 -9,-0.5781 m 631.64054,-91.2461 c 2.7305,0.2422 4.6797,5.457 8.0195,1.6289 1.8633,-2.1289 -0.1093,-4.5703 -1.3086,-5.4258 -3.7617,-2.6758 -3.9609,2.9805 -6.7109,3.7969 m -757.55854,62.7852 c -2.1914,-3.3282 -4.5703,-1.0196 -6.6914,-1.2032 -1.1289,-0.098 -2.5,-1.6679 -3.1992,0.3164 -0.5508,1.6016 0.3398,2.9649 1.6797,3.9766 4.8398,3.6289 5.332,-2.2187 8.2109,-3.0898 m 158.0313,49.5664 c 0.5273,-1.5469 -0.2227,-2.0157 -1.3633,-2.1094 -2.6172,-0.2109 -6.8164,3.2656 -6.4375,5.4609 0.2305,1.3086 1.1601,2.3047 2.668,2.3321 2.9101,0.055 5.1914,-2.5899 5.1328,-5.6836 m -199.8008,-96.9805 c -3.9102,-1.5586 -3.9102,-1.5586 -13.8711,3.6367 1.2109,2.3633 4.6797,2.625 5,1.5977 1.3906,-4.5039 6.0586,-3.0469 8.8711,-5.2344 M 1028.02,76.562115 c 2.7382,-0.3399 5.5586,-3.2969 4.9882,-5.2539 -0.5898,-2.0235 -2.2695,-3.0196 -4.2109,-2.6446 -2.7305,0.5274 -3.3789,3.1758 -3.7891,5.3321 -0.3281,1.7929 1.5118,2.4101 3.0118,2.5664 M 825.18016,358.69101 c -4.3515,0.2148 -8.4219,-1.4531 -12.7031,-1.7578 -1.1289,-0.078 -2.2891,0.078 -2.5898,1.2539 -0.3204,1.2343 0.7695,1.6289 1.7812,2.0703 4.7813,2.0742 9.0391,-0.4727 13.5117,-1.5664 m -679.7929,-142.9649 c -2.1797,-2.3047 -3.75,-3.914 -5.25,-5.5664 -0.9297,-1.0195 -1.8399,-1.9492 -3.3086,-0.9765 -1.0821,0.7148 -0.7696,1.6875 -0.5899,2.75 0.8516,4.9804 1.5391,5.3437 9.1485,3.7929 M 539.90676,26.534711 c -5.7266,-1.8437 -9.8086,0.5391 -13.8867,2.961 3.039,2.3437 6.6289,-0.7813 9.207,0.4297 4.4531,2.0937 3.9805,-0.9258 4.6797,-3.3907 M 300.56686,353.98791 c 0.3399,-3.086 3.8399,-6.2188 -0.3984,-8.3711 -1.8008,-0.9063 -3.9883,-1.1094 -6.0312,-1.461 -1.4493,-0.2539 -2.6993,0.5156 -3.0704,1.8711 -0.4882,1.832 0.6914,3.5078 2.3633,3.1875 4.0196,-0.7812 5.668,1.2305 7.1367,4.7735 m 88.5625,15.1679 c -4.4921,-3.6914 -7.7812,0.5156 -11.4218,0.6602 -1.4375,0.059 -1.4805,2.4844 -0.5899,3.9531 0.8321,1.3633 2.4102,2.9961 3.6211,1.4609 2.1992,-2.7617 6.0586,-2.9023 8.3906,-6.0742 m 665.68744,-223.0586 c -3.0703,-3.5976 -7.3086,-6.3125 -6.3203,-11.8203 0.1524,-0.8164 -0.539,-1.539 -1.3789,-1.3476 -0.6484,0.1484 -1.3594,0.7187 -1.7187,1.2968 -1.2813,2.0938 2.1601,6.1524 -2.9024,6.7735 -1.2695,0.1562 -0.6484,1.0273 0.031,1.4336 3.7187,2.2031 7.9219,2.7851 12.289,3.664 m -733.11704,204.6133 c -0.6016,-2.6016 -2.3907,-4.0312 -4.0196,-3.7266 -4.6914,0.8868 -8.2031,-1.5625 -11.9023,-3.8046 -1.3711,6.1054 -1.4297,6.4179 0.4101,6.7382 5.0196,0.875 9.9805,3.3985 15.5118,0.793 M 42.316559,214.28471 c 5.1407,4.7852 10.273503,-0.1992 15.371103,0.3399 0.5899,0.066 1.8907,-1.9414 2,-3.0742 0.1211,-1.2852 -1.2109,-2.4532 -2.4882,-2.668 -1.4532,-0.2344 -3.9297,-0.3906 -4.3204,0.3203 -1.7617,3.2031 -4.550703,1.7969 -6.941403,2.0898 -1.7187,0.211 -3.0195,0.8164 -3.6211,2.9922 m 151.863301,61.625 c 3.0196,1.4844 3.6172,3.8164 2.5391,6.9453 -0.8203,2.3594 1.1992,3.1016 3.1484,3.5157 1.8399,0.3828 3.4219,-0.1211 3.4102,-2.0899 -0.02,-2.6679 2.75,-3.7344 3.0508,-6.0976 -3.8008,-1.3868 -6.2696,-7.918 -12.1485,-2.2735 m 55.9886,17.0039 c -4.9883,-1.3398 -6.6406,-3.5039 -4.6914,-7.7617 0.6602,-1.4219 -1.3984,-1.7383 -2.6797,-1.7656 -1.7891,-0.039 -2.5,1.7617 -3.8984,2.3906 -2.9805,1.336 -2.7422,4.0391 -2.711,6.5742 0.02,2.8164 2.8711,2.7383 4.4297,3.6914 3.3008,2.0118 5.711,-1.2343 9.5508,-3.1289 m 767.30074,-116.2695 c -2.2891,-7.7305 -2.2813,-7.6641 -7.8516,-7.5039 -4.9101,0.1406 -9.62109,2.7578 -14.69919,0.9883 -0.8711,-0.3047 -2.1094,0.3203 -2.3203,1.6015 -0.3516,2.0743 1.1094,1.7657 2.4219,1.8829 7.20699,0.6679 14.57809,-0.082 22.44919,3.0312 m -306.92964,194.2852 c 0.7305,-4.8516 -3.4492,-7.4883 -3.4414,-11.4649 0.012,-0.6367 -2.1289,-2.0508 -4.0195,-1.164 -4.2696,2.0039 -8.6485,2.1054 -13.2696,0.9062 -2.1601,-0.5586 -4.7187,-0.168 -6.7304,1.3086 -0.5821,0.4258 -1.2813,1.1914 -0.6602,1.9883 0.4102,0.5469 1.5391,1.289 1.75,1.1328 3.6094,-2.6211 6.6797,-0.5586 10.0703,0.6562 1.961,0.7032 4.418,1.6329 6.6094,-0.4961 2.0312,-1.9765 3.7891,-0.789 5.1992,1.1524 1.332,1.8242 2.7109,3.6133 4.4922,5.9805 m -150.0195,-1.7969 c 2.7695,0.289 4.6093,-0.9102 5.5586,-3.3985 0.539,-1.4101 -0.3321,-3.2812 -1.1993,-3.3867 -3.8711,-0.4804 -6.5703,-3.9218 -10.4101,-3.9804 -1.6719,-0.023 -3.2695,0.4336 -3.0703,3.3203 0.3984,5.4961 2.8984,7.8672 9.1211,7.4453 m 9.539,-10.5703 c -0.582,3.2265 -0.8593,5.2812 -1.3515,7.2851 -0.4102,1.668 0.4609,3.0977 1.7109,2.8203 4.1211,-0.8984 8.8281,4.7071 12.5,-1.1757 0.3789,-0.6016 1.9414,-0.5118 2.9688,-0.6407 1.1718,-0.1523 2.0429,-0.5351 1.7304,-1.9257 -0.1797,-0.7813 -0.6289,-1.129 -1.5898,-1.2735 -5.3477,-0.8164 -10.5899,-2.0937 -15.9688,-5.0898 m -351.5508,-55.836 c -0.1914,1.3985 -0.2812,2.9063 -0.6093,4.3594 -0.6914,2.9727 0.9687,4.0234 3.4179,3.8555 4.0235,-0.2735 7.6407,-0.031 9.543,4.914 1.1875,-3.5586 1.918,-6.5625 2.2383,-9.6054 0.3398,-3.0586 -1.7891,-4.9571 -4.3086,-3.8946 -3.5195,1.4922 -6.7813,-0.7304 -10.2813,0.3711 m 27.7813,4.2735 c 1.8594,1.6523 5.9687,0.6211 6.0391,0.2304 1.4179,-7.5429 3.9296,-4.0312 6.6796,-0.9179 0.6211,0.6992 1.8711,1.0312 2.879,1.1601 5.0429,0.6367 10.2226,1.7344 14.6718,-3.0625 -3.4492,-0.6289 -6.0625,-5.8554 -9.9492,-0.332 -1.1523,1.6328 -2.6328,-0.3945 -3.543,-1.6992 -2.5468,-3.6524 -7.0273,-3.3555 -10.5781,-4.3086 -2.039,-0.5508 -3.2617,3.5469 -4.3984,5.8984 -0.4805,0.9883 -2.7227,0.7656 -1.8008,3.0313 m -111.3711,-168.1797 c 0.9609,0.9101 1.8398,1.8984 2.8711,2.7031 3.5781,2.8086 6.8672,7.7188 11.8203,1.6992 0.6602,-0.8047 1.9688,-0.3867 2.8477,0.3672 1.4414,1.2383 2.9726,1.832 4.832,0.8047 -0.582,-2.082 -3.4023,-2.4102 -3.6211,-4.0039 -1.2187,-8.8359 -9.3398,-7.7734 -14.7695,-10.4297 -0.7891,-0.3867 -3.4414,-0.6055 -3.7891,1.5313 -0.2617,1.6132 0.7695,2.9961 2.3672,3.6484 0.7305,0.2969 2.0195,-1.0781 2.2617,0.8242 -0.8515,2.0742 -3.6914,0.055 -4.8203,2.8555 m 165,228.2109 -0.2187,-0.1836 c 3.2187,3.1016 8.8984,2.1094 10.5898,7.1953 2.9375,-1.9257 0.9805,-5.8242 3.9883,-6.7968 3.332,0.3125 4.6211,4.1523 8.582,3.6484 2.4492,-0.3086 3.7305,-0.7852 4.7891,-2.7734 1.0586,-2.0039 0.5703,-3.4336 -1.211,-4.7383 -1.2382,-0.9141 -2.4492,-2.0117 -2.0195,-3.9297 2.1211,-0.7617 4.5391,-0.4766 6.3203,-2.6289 1.5899,-1.9024 5.3906,-3.043 3.0195,-6.0586 -2.4179,-3.0781 -2.8203,3.125 -5.2812,1.9023 -2.3984,-1.1015 0.3398,-4.3906 -2.1992,-5.9023 -2.4805,8 -5.918,9.2891 -13.211,6.9883 -3.2968,-1.0391 -6.6796,-0.9063 -9.6171,1.4844 3.6679,3.3046 3.7304,3.414 -0.1094,5.2656 -2.6524,1.2851 -5.6133,2.4883 -6.2031,5.539 -0.5079,2.6446 1.2421,2.2852 2.7812,0.9883 m -142.3203,-255.6172 c 0.8398,-2.2109 1.8906,-4.3632 2.4922,-6.6406 0.9375,-3.582 -0.543,-4.5273 -4.1406,-4.2461 -2.8125,0.2227 -3.3711,3.332 -6.6407,3.3281 -4.2695,0 -4.2695,0.9688 -1.289,4.9336 0.6093,0.8203 1.1679,1.7539 1.4687,2.7227 0.3985,1.3242 0.8281,2.6758 2.3985,2.6367 2.1406,-0.051 2.4726,-1.5586 2.0507,-3.332 -0.3203,-1.3203 0.25,-2.0938 1.5196,-1.9727 1.4023,0.1328 2.4726,0.8438 2.1523,2.5664 2.9375,-0.2383 2.5,1.7305 2.4375,3.5938 -0.1094,3.1445 -0.5078,6.7656 4.3125,2.9258 1.3984,-1.1094 2.2969,0.5781 3.2774,1.332 1.4804,1.1406 2.9218,2.457 5.2617,0.3437 -3.8203,-4.7578 -2.6289,-9.7695 -0.4805,-14.9843 2.0195,-4.9024 1.7188,-5.0782 -5.2383,-5.9219 0.2071,4.6172 -1.0429,8.2578 -6.2109,9.5312 -1.3008,0.3243 -2.2617,2.0821 -3.3711,3.1836 m 117.25,256.2852 c 0.1601,1.3867 0.8789,3.043 1.9609,3.1875 5.0782,0.6836 10.461,2.4922 14.9883,-2.1016 -3.8398,-2.6992 -4.4805,-8.2656 -10.1601,-9.7968 0,2.875 2.0507,4.7578 1.6718,7.0742 -2.4218,2.664 -5.6015,1.957 -8.6406,1.8515 -0.2812,-2.2968 -1.3281,-4.3711 -1.2305,-6.8672 0.09,-2.1445 -0.8789,-4.4023 -3.3593,-5.7343 -1.6211,-0.875 -2.8711,-2.375 -4.8907,-1.3555 -2.3203,1.168 -1.3281,3.1719 -0.9804,4.8711 0.5625,2.7305 2.0703,5.6094 -2.5,6.4258 -1.1993,0.2148 -1.2305,1.4531 -0.4102,2.5039 0.7813,1.0156 1.4805,2.543 3.0195,1.5508 3.3204,-2.1446 7.0118,-1.1875 10.5313,-1.6094 m -49.5,-87.7461 c 3.7305,-0.4883 6.4492,2.5977 10.4101,2.5586 4.0508,-0.039 3.7696,-2.4531 4.6407,-4.5156 1.3008,-3.0743 -1.1719,-2.7383 -2.8711,-2.8868 -2.7696,-0.2421 -2.0196,-3.2304 -3.8203,-4.6875 -3.5782,2.4805 -7.8985,4.2266 -8.0782,9.6758 -4.6328,1.6328 -6.1523,1.3555 -6.6796,-2.4922 -0.4922,-3.6132 -1.4922,-6.0234 -5.3125,-6.7421 -2.6602,4.371 1.3828,8.625 0.3203,13 -0.098,0.3945 1.5625,1.7851 2.3125,1.7148 3.1172,-0.2891 6.3398,-0.5742 9.2695,-1.5898 3.1406,-1.0899 0.9883,-2.7188 -0.1914,-4.0352 m 419.8789,81.9453 c 0.8125,3.8438 0.8125,3.8438 4.5117,2.5156 -0.8906,-2.1172 -3.25,-1.2578 -4.6719,-2.2968 -4.8867,0.1601 -5.2187,-3.8321 -6.25,-7.5625 -0.8398,3.0703 -0.6992,6.1953 -5.1679,4.8476 -2.4219,-0.7305 -2.8516,1.0977 -2.4414,3.4102 0.4609,2.5586 1.0703,4.1992 4.1992,4.0312 4.1015,-0.2226 7.5898,-1.2695 9.8203,-4.9453 m 360.92964,-66.7539 c -0.5586,-2.7891 1.2109,-7.2969 -4.668,-6.3477 1.2383,2.461 3.8906,3.6758 4.6485,6.3008 4.9804,1.4375 6.0195,0.5664 7.1601,-6.1211 -4.207,0.07 -4.25,4.8399 -7.1406,6.168 M 936.79736,39.058211 c -2.7187,3.789 -7.0898,0.09 -10.5195,2.4843 0.2695,2.9102 3.3515,4.2266 4.8203,3.6055 7.6094,-3.2031 15.1797,-0.1484 22.73045,-0.5039 3.0195,-0.1406 5.0586,-0.1211 5.3398,-3.8281 0.2695,-3.3946 2.1289,-4.5938 5.4688,-2.9727 2.8906,1.3985 5.7304,1.6875 9.0898,0.8789 3.1328,-0.75 5.6406,2.9805 8.5898,3.3516 3.793,0.4726 2.2422,4.8633 4.8633,5.3789 2.75,0.543 5.2969,0.4961 4.0274,4.601604 -0.3789,1.2109 1.2695,1.4453 2.2695,0.8632 5.3711,-3.113204 10.69139,-5.003904 16.31249,-0.3945 1.0898,0.8984 2.4492,0.1836 3.5391,-0.7969 0.5195,-0.4648 1.75,-0.980404 2.0117,-0.75 2.75,2.4766 5.3476,5.5313 8.3086,0.2383 0.059,-0.1055 0.5078,-0.035 0.7695,0.016 2.0195,0.3946 2.0313,4.1524 4.9219,3.0157 1.1875,-0.4688 -0.7813,-4.191404 2.539,-2.6368 2.0079,0.9415 3.918,-1.156204 6.1289,0.1836 1.3985,0.8438 3.6016,0.2852 5.4102,0.5391 1.3398,0.1875 2.5195,0.5234 3.4688,-0.8984 0.5507,-0.832104 1.6015,-1.933604 2.3828,-0.3633 3.0078,6.1133 7.7773,3.3906 11.5586,1.8008 3.4101,-1.4297 4.5312,-0.3399 6.0703,2.2695 1.039,1.7461 2.9297,2.9844 4.3593,4.5117 0.6993,0.7461 1.2891,1.6133 1.8516,2.4688 2.0274,3.082 -3.4297,3.5273 -2.25,6.5547 0.7969,2.0585 5.4883,2.6562 3.0977,5.3164 -2.4688,2.7343 -1.0196,2.9765 0.8515,4.4218 1.5703,1.2032 2.1407,3.4297 4.5078,4.0977 2.2422,0.6367 3.3204,1.8437 0.2305,3.3906 -2.4297,1.2149 -0.5195,2.7891 0.4414,3.625 2.0391,1.7891 3.6602,3.3867 3.6992,6.519495 0.07,5.629 1.6407,6.9844 7.461,6.0821 3.4492,-0.5391 5.9492,0.8398 9.4297,1.8633 -3.7696,5.2773 -8.3907,-0.8164 -11.7813,1.9062 -2.8086,2.2539 -8.0195,-0.7734 -10.707,5.543 4.4687,-2.2617 7.6367,-2.8828 10.4179,0.2304 0.9297,1.043 2.4297,0.3399 3.6602,-0.3125 3.0195,-1.5976 5.9297,-3.039 6.2891,2.5274 0.082,1.2344 1.6914,1.9531 3.1797,1.1445 3.1601,-1.7109 5.582,-0.2734 8.6796,0.9063 4.2618,1.625 9.1524,2.7343 13.961,1.6836 1.9492,-0.4258 3.6211,-0.4297 5,0.957 0.1992,1.4219 -0.668,2.4375 -1.418,2.6797 -6.7031,2.1523 -12.3203,6.5898 -19.1211,8.6328 -3.7109,1.1133 -8.582,0.7031 -10.6289,5.3633 -2.5117,-0.4336 -4.793,-0.2031 -5.8828,2.5 -0.2969,0.7461 0.4609,1.7539 1.1914,1.75 2.3516,-0.02 2.8203,-2.5469 4.3906,-3.668 0.1485,-0.1055 0.078,-0.5039 0.1094,-0.7656 4.0117,-0.6485 7.8711,-0.836 10.4219,3.2539 -0.961,1.1914 -2.2227,1.8867 -3.4727,1.5742 -3.8984,-0.9726 -4.0508,-1.0664 -3.9883,1.8477 0.027,1.8398 -1.3007,1.3867 -2.0703,1.5117 -5.1406,0.8203 -10.289,1.75 -15.4687,2.1562 -3.1602,0.2461 -6.2031,0.8164 -9.1211,1.8633 -2.211,0.7891 -4.0117,2.1211 -6.2891,-0.2187 -1.1719,-1.1875 -3.1211,-0.2149 -4.1133,1.164 -1.4179,1.9766 0.5625,2.75 1.6602,3.6875 1.5625,1.336 3.6016,2.1875 4.582,4.6094 -1.7187,1.8672 -3.6601,1.9531 -5.4922,0.6094 -4.8789,-3.5781 -9.5898,-0.7344 -14.2968,0.2578 -2.3516,0.4922 -1.8203,2.793 -2.25,4.3906 0.8203,0.3789 1.289,0.8047 1.707,0.7578 2.4102,-0.2734 5.1406,-0.6015 5.9922,2.211 0.789,2.6172 -1.4805,4.9297 -2.582,7.0664 -0.9571,1.8789 -3.3907,1.039 -5.1875,-0.7774 -3.3829,-3.4062 -5.293,-3.1601 -7.1094,0.8125 -1.1914,2.6133 -4.1406,3.2383 -5.3906,5.6211 3.3476,4.1719 7.5078,-2 10.9687,0.836 l -0.1602,-0.094 c 0.3907,0.7656 2.4493,1.3086 1.1797,2.1367 -1.6601,1.0821 -3.8906,1.4688 -5.9414,1.7422 -1.2265,0.1641 -2.75,-0.6289 -3.0781,1.2617 -0.2695,1.5352 0.7891,2.4493 2.1484,2.8711 1.293,0.4024 2.543,0.7305 2.6797,2.9805 -2.7773,1.1758 -5.539,3.875 -8.5078,-0.078 -1.5,-2.0157 -3.8515,-1.7188 -5.7109,-2.125 -2.7813,-0.5977 -5.5899,-0.3594 -7.8594,-2.711 -1.2891,-1.3281 -3.0781,-1.5976 -4.9805,-0.289 -1.0898,0.75 -2.8398,0.3593 -3.4297,-0.9922 -0.8398,-1.9414 -1.871,-3.4414 -4.0507,-2.4688 -2.4805,1.1094 0.8125,3.4141 -1.1797,5.336 -2.9297,-2.8633 -10.57809,-0.7149 -8.24999,-9.0235 -3.1094,0.4922 -3.2891,2.8828 -4.1094,4.6641 -1.2891,2.832 -1.8594,6.1641 -5.9219,6.5625 -1.4492,0.1484 -2.25,1.2852 -2.039,2.8477 0.25,1.8046 1.3828,2.8789 3.1328,3.0156 3.3984,0.2695 6.9765,1.0664 10.20699,0.3594 4.4922,-0.9883 8.0508,0.3437 12.1406,1.7734 6.5899,2.2969 13.5196,3.625 19.6797,7.1367 1.9297,1.0938 2.5703,-0.4726 3.8399,-1.4219 1.7226,-1.2929 4.1406,-1.9492 3.8125,1.8438 -0.1211,1.4414 0.5898,1.8945 1.7773,1.75 0.7422,-0.086 1.8203,-0.9531 2.1016,-0.7149 4.8086,4.0977 9.5976,3.4336 15.0703,1.0625 2.2109,-0.957 3.8086,2.836 6.539,4.0625 -3.121,1.5508 -8.5781,0.8008 -5.8398,6.5977 -1.7109,1.8359 -1.0586,3.5078 0.3516,5.1484 1.1172,1.3047 2.2187,2.6328 3.3281,3.9532 -5.2695,-0.5352 -7.668,0.8476 -7.9297,4.5468 -0.3008,4.5196 2.7813,7.1211 8,5.4375 3.5508,-1.1445 5.9805,-0.3281 7.5,2.1211 2.3789,3.8164 5.8711,5.9414 9.4297,8.211 3.4297,2.1875 3.832,5.5195 0.3906,7.1523 -4.0508,1.9258 -7.039,6.1602 -12.7187,5.2617 -1.6914,-0.2695 -8.211,-0.8476 -6.5703,5.711 0.3593,1.4414 -7.3204,3.2851 -8.6524,1.5664 -3.5976,-4.6758 -7.0976,-2.1797 -10.1875,-0.043 -4.8125,3.3281 -4.6406,3.5742 -10.25,4.2969 1.0274,-2.1406 4.0274,-2.3438 4.3984,-5.2422 -5.2617,-0.6289 -8.2617,4.9219 -13.1601,4.4922 0.019,0.5781 -0.051,1.039 0.039,1.0781 3.582,1.3398 2.5312,5.8398 4.6406,7.418 2.2812,1.7031 5.9492,1.4648 8.9101,2.3906 1.8789,0.5898 2.4414,2.6406 3.3594,4.2266 -3.6992,-0.4063 -8.2891,-4.5352 -9.8594,3.0859 -0.5898,2.8359 -4.3007,2.6836 -6.8281,2.8086 -4.6797,0.2266 -7.6601,2.2773 -9.3125,7.4492 3.8125,0.4609 7.1328,2.1328 8.4219,5.2539 1.6094,3.8711 3.789,4.4297 7.3984,3.5547 2.0117,-0.4922 4.1992,-0.2539 6.3125,-0.3594 1.0391,-0.055 2.1485,0.01 2.5469,-1.3242 0.3711,-1.2461 -0.25,-2.0508 -1.2695,-2.4883 -3.4493,-1.4648 -1.7383,-2.5742 -0.1602,-4.4961 1.6992,-2.0859 4,0.625 5.1211,-0.8515 -0.5391,-5.7578 -7.8594,-5.1992 -8.8906,-10.5782 2.2617,-0.7109 4.3711,-1.375 6.5,-2.039 2.5508,-2.0625 5.7617,-3.6875 7.5312,-6.2852 3.0313,-4.4258 3.9688,-3.1523 4.9297,0.9532 0.25,1.0429 1.0703,1.8125 2.7891,2.3984 1.1797,-2.2305 0.7109,-7.3164 5.6015,-5.2188 3.6993,1.586 -1.2812,4.1211 0.8789,6.5508 3.0704,0.6719 6.7383,1.4805 11.6485,2.5586 -6.707,3.7813 -13.3672,2.3711 -19.3164,4.8399 0.25,3.2968 2.8984,4.2578 5.3672,4.6562 4.0625,0.6563 8.1718,0.2734 10.1797,5.3555 0.75,1.914 3.9531,0.3476 5.9609,0.8789 1.2812,0.3359 2.5508,0.8203 2.8594,2.3672 0.4101,2.0234 -1.1485,1.9414 -2.3985,2.3086 -0.9687,0.2851 -2.7422,0.9492 -2.6992,1.2031 0.9883,6.0234 -4.043,4.0117 -6.6914,5.1758 -2.3984,1.0508 -5.0898,1.9062 -5.8906,4.8554 -1.3711,5.0743 -5.7578,6.2735 -9.8711,7.7735 -4.4297,1.6211 -8.957,2.9883 -13.3867,4.6172 -2.5,0.9218 -5.8516,0.5703 -6.293,4.7382 -0.1875,1.7969 -2.6172,1.1485 -4.1094,1.4649 -4.9297,1.0508 -9.8711,-0.9961 -14.9179,0.3437 3.3789,1.2657 7.2773,2.6719 10.3593,2.3399 6.8008,-0.7422 11.8789,3.3672 17.8907,4.4844 1.5781,0.2929 1.8789,1.8007 2.8476,2.3554 3.6602,2.1016 6.0899,6.7305 11.4297,5.6055 1.3125,-0.2813 2.4297,0.4961 2.5195,2.2812 0.2227,4.0235 2.6211,5.6758 6.4336,5.0157 8.4297,-1.4532 15.5899,4.1172 23.7383,4.1172 1.3594,0 2.6992,0.5234 3.3516,1.8046 1.5586,3.1211 3.207,4.1641 5.4297,0.5586 0.098,-0.1757 0.5585,-0.3242 0.7187,-0.2382 9,4.9843 18.1992,-3.7188 27.2695,0.375 0.9922,0.4453 2.6524,-0.074 3.8008,-0.5938 3.0078,-1.3516 5.0078,-0.4336 6.6914,2.2109 1.1094,1.754 3.4571,3.4922 2.1602,5.504 -1.5821,2.4648 -3.8438,0.4023 -5.4024,-0.6954 -1.8476,-1.3007 -3.539,-0.414 -5.3281,-0.3828 -5.582,0.1133 -8.1914,-0.8828 -13.1406,-4.9101 -4.2695,4.1679 -9.1094,5.2265 -15.4492,4.9179 -6.793,-0.3359 -13.6016,0.625 -20.4414,-1.1406 -2.8789,-0.7422 -5.2813,2.6524 -8.8399,2.2188 -4.6406,-0.5664 -9.4414,-0.051 -14.1601,0.2148 -3.9102,0.2266 -8.1407,3.5508 -11.4297,-1.4531 -0.211,-0.3242 -1.5586,-0.1953 -2.211,0.1055 -6.789,3.0898 -13.289,1.3476 -19.5898,-1.3907 -2.0195,-0.8789 -3.9414,-0.5078 -5.3086,0.2617 -2.8008,1.5743 -5.8398,1.836 -9.9414,2.1368 3.8984,4.9609 6.7305,9.3047 12.9297,8.3476 0.9297,4.6602 -3.1797,5.3555 -5.0781,7.6016 -0.2618,0.3008 -0.9297,0.2461 -1.4102,0.3555 -0.6094,-5.004 -6.3125,-2.086 -8.3125,-5.4258 -1.3789,-2.2891 -4.168,-3.8321 -1.5195,-6.8477 3.1328,-3.5859 -1.0196,-4.8828 -2.2891,-6.9492 -1.87889,-3.0352 -3.44139,-2.3477 -5.07029,0.5742 -0.6602,1.168 -2.3399,-0.031 -3.5781,-0.4531 -5.711,-1.9258 -11.3399,-4.957 -17.5508,-3.6524 -7.3399,1.5469 -14.582,-0.3593 -21.6211,-0.047 -8.32805,0.3672 -16.62885,1.1406 -25.01945,0.7031 -5.9493,-0.3125 -11.8008,2.5898 -17.961,0.1992 -2.5586,-0.9961 -5.8594,0.461 -5.4804,3.793 0.2617,2.293 -0.7188,7.1562 5.3007,5.3789 2.711,-0.8008 6.1602,0.9101 9.2891,1.4844 l -0.25,-0.3477 c -1.6289,4.7774 -5.4805,3.4531 -8.5586,2.6524 -5.8086,-1.5079 -11.4297,0.5078 -17.0898,0.707 -4.5704,0.1562 -10.3399,2.1133 -14.5391,1.0664 1.5195,-3.1133 5.7187,-0.4844 7.2187,-3.3672 -0.9414,-2.3281 -3.1914,-1.6016 -4.8398,-2.0937 -2.7891,-0.8321 -5.6016,-1.2774 -4.5508,-5.4532 0.2696,-1.0625 -0.6406,-3.457 -1.2187,-3.5273 -4.2188,-0.5117 -4.5313,-5.2969 -7.6797,-6.6524 -1.6992,-0.7382 -3.7617,-0.6523 -5.5899,-0.9218 -1.2812,2.414 2.5079,3.4531 0.918,5.9609 -1.2187,1.8906 1.0195,3.8906 1.5117,7.0352 -3.4687,-3.0391 -6.5117,-2.9375 -8.7304,-0.2852 -1.6719,1.9922 -2.3594,1.2305 -3.5704,-0.1328 -1.7812,-2.0117 -3.2187,-1.4961 -5.3398,0.09 -3.5,2.6133 -7.9102,2.8125 -12.1289,2.3907 -1.9219,-0.1914 -4.3203,-0.1133 -5.1523,-2.8516 -0.6797,-2.2188 -2.1094,-1.8359 -3.5899,-0.6055 -2.7187,2.2657 -5.3476,1.8946 -8.6601,0.7149 -3.8204,-1.3633 -8.2891,-2.2852 -11.6485,1.6523 -1.1797,1.3828 -2.4101,0.3047 -3.6094,0.3008 -2.6211,-0.012 -5.0507,-0.1836 -7.2226,2.1797 -2.1289,2.332 -5.0078,4.414 -7.5391,-0.047 -0.25,-0.4414 -1.8594,-0.7344 -2.1406,-0.4336 -5.3477,5.6133 -10.4688,-3.0234 -16.0781,-0.1562 -2.5117,1.2812 -0.6016,-4.0274 -3.5586,-4.1407 -4.1328,1.6446 -6.0703,5.0235 -6,9.1993 -1.8008,0.6523 -2.5,-0.1133 -3.2735,-0.8711 -1.8671,-1.8477 -3.6679,-3.8008 -5.7265,-5.4219 -3.1836,-2.5117 -3.4219,2.7383 -6.4922,2.4726 -9.2305,-0.7851 -18.3281,2.1172 -27.7305,1.2969 -8.7695,-0.7656 -17.5781,-1.6094 -26.5,-0.832 -4.289,0.375 -8.9883,-0.02 -12.6992,-4.0859 -2.6211,-2.8633 -6.9609,-0.9375 -9.4414,0.9218 -2.7188,2.043 -5.0977,1.7735 -8,1.8633 -9.1797,0.2891 -18.3398,0.9492 -27.4883,1.6641 -1.8594,0.1445 -3.8984,0.9453 -5.3906,-0.2149 -3.3008,-2.5781 -6.5703,-3.0156 -10.1484,-0.9062 -1.3321,0.7812 -1.7813,0.027 -2.3125,-1.0117 -1.4571,-2.9024 -2.7305,-4.4297 -5.4297,-0.6055 -1.4688,2.0898 -1.6602,-1.8164 -3.1407,-1.7578 2.3829,-0.4492 3.5704,-2.8321 6.0508,-3.3867 2.5391,-0.5704 2.3594,-3.1289 2.1524,-5.2344 -0.1211,-1.25 -0.4414,-2.211 -2.0821,-2.7578 -3.0976,-1.0313 -4.8906,1.082 -6.9492,2.3515 -2.3594,1.4532 -0.4492,3.1055 0.2188,4.6602 0.6211,1.4375 1.2695,2.8867 0.8515,4.5273 -4.0703,-1.1953 -7.1406,3.2618 -11.2617,2.0313 -0.1797,-0.055 -1.1289,1.1953 -1.0781,1.7851 0.3008,3.9688 -3.1211,4.0782 -4.6914,3.1563 -3.5078,-2.0469 -6.7383,-0.9141 -9.9883,-0.3203 -8.4023,1.5273 -16.9023,0.4258 -25.2227,0.2031 -9.0586,-0.2461 -17.7695,1.75 -26.75,1.7773 -8.0468,0.02 -16.3867,-1.6757 -24.1992,0.6172 -9.3008,2.7344 -18.789,-0.2929 -27.9804,2.0508 -0.4883,0.125 -1.0899,0.1016 -1.5782,-0.051 -9.6601,-3.0547 -19.75,-1.4414 -29.582,-2.6484 -6.3086,-0.7734 -11.5195,-2.3633 -15.2383,-5.5156 -0.1484,-0.1211 -0.5117,0.023 -0.9101,0.055 -1.5313,1.0546 -0.6211,2.2343 0.1914,3.164 2.0976,2.4063 0.6601,3.7735 -1.3008,5.0625 -2.1016,1.3867 -4.2617,1.5508 -5.2422,-1.039 -1.668,-4.4336 -6,-3.9883 -9.2188,-5.5079 -2.8984,-1.371 -3.2109,2.043 -4.6796,3.1954 -1.2188,0.957 0.1484,5.3632 -3.1016,3.4687 -1.8984,-1.1055 -6.4688,-2.6641 -3.7695,-7.0508 0.4023,-0.6445 0.9609,-1.3593 -0.3985,-2.2539 -4.0312,4.2031 -10.082,5.6758 -14.3906,9.8672 -1.0586,1.043 -2.6602,2.3164 -4.1602,0.7617 -2.289,-2.3789 -4.8984,-1.5625 -7.4179,-1.0078 -1.9531,0.4297 -3.1328,0.6485 -3.9531,-1.8281 -0.5782,-1.7383 -2.7383,-0.7539 -4.2774,-0.7461 -3.293,0.016 -6.0898,3.1172 -9.8516,1.0547 -1.6289,-0.8985 -2.4492,1.3359 -2.7695,2.9765 -0.1992,1.043 -0.539,2.1719 -1.9219,1.8829 -1.3671,-0.2891 -1.5195,-1.3711 -0.8867,-2.418 1.4102,-2.3438 -0.1914,-3.0508 -1.8398,-2.7109 -1.543,0.3203 -3.0821,0.582 -4.6406,0.8007 -1.9219,0.2657 -3.1915,-0.6367 -3.711,-2.2422 -0.8984,-2.7695 1.3281,-2.0937 2.7578,-2.207 1.3711,-0.1055 1.8633,-1.0156 1.461,-2.125 -0.1993,-0.5703 -1.0782,-1.1836 -1.7305,-1.2617 -3.8086,-0.4844 -7.0469,2.0586 -10.5977,2.3281 -4.9101,0.375 -6.5312,2.7969 -6.4023,7.2305 0.031,1.0469 -0.1172,2.0976 -0.2383,3.1406 -0.019,0.1953 -0.3086,0.3555 -0.4805,0.5352 -0.3789,-0.2657 -0.9179,-0.4453 -1.1093,-0.8086 -1.9102,-3.6094 -6.0313,-1.5821 -8.25,-3.1563 -2.0313,-1.4297 -1.5196,-5.6367 -4.25,-7.1328 -2.711,-1.4883 -5.4102,-2.4922 -8.5313,0.2578 -1.9297,1.6914 -4.2383,2.9883 -7.1406,6.8789 5.2031,-3.8125 8.5,-0.1367 12.582,-0.7187 -2.0195,4.418 -7.2617,-0.375 -8.8515,3.1992 -2.1289,4.7695 -5.7774,-4.1016 -8.3282,1.3711 -1.25,2.6719 -5.1992,0.6875 -8.2109,0.2383 -3.7695,-0.5625 -7.8008,1.9179 -12.0703,1.125 -1.9805,-0.3711 -4.1992,0.6406 -6.0703,-0.8399 -1.5508,-1.2187 -2.3789,-0.3593 -2.8985,1.0625 -1.4726,4.0078 -3.8711,3.6993 -6.6523,1.4414 -2.5469,-2.0781 -6.8281,-0.875 -8.2383,-4.9414 -1.6406,1.8555 -1.6015,3.7657 -1.9297,5.5352 -0.3203,1.6992 -0.4297,3.4453 -0.7187,5.9062 -2.1211,-2.1875 -2.3321,-4.9921 -4.7617,-5.6953 -3.8204,-1.1133 -5.1719,-3.6445 -5.5821,-7.5351 -0.3398,-3.2188 -3.5273,-4.0586 -6.3593,-4.5196 -1.0782,-0.1757 -1.3594,0.4102 -1.6172,1.7461 -0.6016,3.0547 -2.0313,5.7735 -6.1602,5.0391 -2.2812,-0.4023 -2.6914,2.2187 -4.2109,3.1914 -1.7696,1.1367 -3.0586,2.4648 -5.5703,2.1719 -4.5508,-0.5313 -5.0391,-0.711 -4.4805,-5.2031 0.1601,-1.2618 1.0117,-2.4571 0.332,-3.7813 -0.4922,-0.9336 -1.2812,-2.6875 -1.5312,-2.6172 -8.4414,2.336 -4.6914,-4.7969 -5.0586,-7.3515 -0.5821,-3.9336 -1.6133,-5.9493 -5.6914,-5.3829 -4.6094,0.6368 -5.8516,-2.1523 -6.3008,-6.2421 -3.3594,0.4296 -5.9414,3.4765 -9.7383,2.5859 -1.9414,-0.457 -4.2109,0.9687 -5.5508,2.6094 -1.2422,1.5312 -1.6523,3.5429 -3.5703,0.4843 -0.8789,-1.3984 -2.9922,-1.2421 -4.3906,-0.4765 -1.5899,0.8633 -2.4688,2.5703 -3.8086,-0.6211 -1.043,-2.4844 -1.5195,-3.4961 1.3203,-4.7227 1.8086,-0.7812 2.0469,-4.3476 5.5899,-1.3828 2.5703,2.1563 6.8203,2.418 10.3789,3.2422 1.1914,0.2773 2.8711,-0.1562 3.1015,-1.7344 0.1992,-1.3125 -0.3711,-2.6953 -2.1211,-2.6367 -1.3711,0.047 -2.6601,0.3086 -2.7617,-1.6914 -0.1172,-2.2734 1.6211,-2.4492 3.1094,-2.7852 2.6914,-0.6093 5.25,0.2696 7.8125,0.9336 3.6094,0.9375 6.6797,0.2071 9.1289,-2.375 0,-3.1914 -3.9609,-2.8906 -4.1484,-5.789 -0.07,-1.0391 -1.5196,-0.6016 -2.543,0.023 -4.8281,2.9414 -13.1485,2.211 -15.2695,-2.4219 -1.9297,-4.2382 -5,-4.1757 -8.168,-4.6367 -2.3008,-0.3359 -4.7617,0.3086 -6.2305,-2.2031 l -0.25,0.2891 c 1.1992,-1.8086 3.6992,-0.2657 4.9297,-1.9727 -0.8594,-4.2109 -1.8711,-7.5352 -7.7812,-7.2656 -3.2891,0.1523 -6.6797,-2.7422 -7.668,-6.6602 -0.3594,-1.4101 -1.082,-3.7773 0.5273,-4.3945 6.9414,-2.6524 3.9922,-8.4922 4.5508,-13.168 0.07,-0.6133 -0.8008,-2.0078 0.062,-1.8867 6.457,0.9023 2.8789,-3.4883 2.5274,-5.2891 -0.4883,-2.4726 0.7812,-3.2382 2.2695,-4.3515 0.5508,-0.4102 1.8008,-0.8086 0.332,-2.1446 -2.332,-2.1171 -1.6015,-4.9296 0.8789,-4.4492 4.8594,0.9375 10.7305,-3.0742 14.7305,3.6133 1.3203,2.2109 6.082,2.6445 9.3789,3.3086 2.5625,0.5117 4.3633,-2.6797 2.5195,-4.7539 -3.3593,-3.8086 -4.1797,-5.9063 2.1914,-5.6992 0.8789,0.027 1.5703,-0.7227 1.1719,-1.625 -0.3008,-0.668 -1.0625,-1.5938 -1.6328,-1.6055 -2.418,-0.055 -4.918,2.2188 -7.3398,-0.4531 1.1093,-3.5508 5.2031,-0.9336 7.2226,-3.3789 -1.75,-2.4922 -4.7109,-1.625 -6.8516,-2.6563 -2.1992,-1.0547 -4.0898,-3.0078 -2.7109,-4.5898 4.3594,-5.0078 0.5313,-9.543 -0.1289,-14.1875 -0.4687,-3.3125 -1.9805,-6.582 2.9102,-7.8399 -0.4493,-0.3711 -0.6602,-0.6836 -0.8594,-0.6796 -5.1524,0.1484 -8.0508,-1.836 -7.8711,-7.4922 0.039,-1.4102 0.2812,-4.5 -2.5586,-3.8086 -2.2695,0.5508 -4.6328,2.4765 -2.582,5.3008 2.9609,4.0781 -0.07,6.2656 -2.2305,8.8437 -0.6875,0.8242 -1.6875,1.8906 -2.6289,1.0938 -4.5508,-3.8282 -9.5781,0.914 -14.2891,-0.9844 -2.5195,-1.0156 0,4.1914 -3.3711,3.2773 -1.75,-0.4726 -3.75,-0.6172 -5.5,-0.2695 -2.2304,0.4414 -4.0586,-0.9414 -6.2304,-0.6797 -3.5196,0.4297 -5.0508,2.9023 -5.4375,6.0313 -3.6797,-1.3868 -1.3008,-3.0743 -1.5821,-4.3946 -0.2578,-1.2265 -0.8984,-1.8554 -2.0898,-1.9101 -1.7891,-0.082 -1.1797,2.4726 -2.4414,2.5312 -1.8281,0.086 -1.1485,-1.9961 -1.9102,-2.9258 -1.539,-1.8672 -1.8398,0.4571 -2.5976,0.5938 -1.6094,0.2969 -1.0391,-1.5274 -0.6797,-2.1367 1.0508,-1.7461 1.6211,-3.086 1.4883,-5.5196 -0.2696,-4.664 7.8711,-11.0664 12.3515,-9.1992 5.7383,2.3867 8.3203,-1.0547 11.2383,-3.875 1.6914,-1.6367 2.3399,-1.8906 4.3906,-0.8008 3.5,1.8477 7.211,0.8789 10.711,-0.5156 1.1797,-0.4726 2.7304,-1.1172 1.8906,-2.7851 -0.4023,-0.7852 -2.1016,-1.8047 -2.4492,-1.5743 -3.0938,2.0782 -3.8008,0.024 -4.7813,-2.2812 -0.3398,-0.8125 -1.8906,-1.9492 -2.3711,-1.7422 -4.1406,1.7617 -8.3398,0.8477 -12.539,0.7812 -1.1407,-0.02 -3.2813,1.0899 -3.3008,1.7461 -0.25,6.25 -4.4609,5.3594 -8.4414,4.9844 -3.1485,-0.3008 -4.9492,1.3281 -5.9883,4.0977 l 0.1719,-0.2305 c -0.1133,-2.1133 -4.5235,-5.2422 1.4375,-6.8555 -5.8906,-0.1132 -11.7813,-0.2226 -17.5703,-0.332 -0.7696,2.3633 1.2617,2.375 1.8203,3.3711 0.789,1.4062 -0.5,1.8125 -1.3906,2.125 -1.379,0.4844 -2.5899,0.3086 -3.007898,-1.4297 -0.8007,-3.293 -1.3515,-6.6797 -2.5312,-9.832 -1.2891,-3.4922 -4.1211,-3.8125 -6.0899,-0.4961 -1.1093,1.875 -2.3789,2.7226 -4.1484,3.1406 -3.8008,0.8984 -6.293,3.4375 -8.3008,6.4922 -1.039,1.5937 -2.1289,3.5352 -3.8515,3.7383 -3.3594,0.3945 -3.8672,4.3164 -6.7891,4.8594 -3.1992,0.5898 -2.8594,-3.9571 -5.9102,-4.1055 -9.4609,-0.461 -17.179603,-6.461 -26.179603,-8.5156 -1.9493,-0.4493 -5.4883,-0.711 -5.25,-2.6719 0.4296,-3.5899 -1.9688,-7.9102 0.5117,-10.4649 2.6094,-2.7031 4.457,-8.4921 10.5078,-5.5312 1.25,0.6094 2.5703,-0.4727 2.7891,-2 0.25,-1.6367 -0.8086,-2.5625 -2.2774,-2.4961 -3.6914,0.1719 -7.2109,0.1875 -10.8516,-1.1875 -2.8398,-1.0664 -4.5507,1.5508 -5.3984,4.2187 -1.8008,-1.2539 -1.6719,-2.9492 -0.7695,-3.6445 1.9687,-1.5195 3.2969,-3.1015 3.6797,-5.668 0.2382,-1.5781 1.4882,-3.2539 3.3281,-2.582 5.4609,1.9961 10.6211,-1.9453 16.0703,-0.4883 1.609403,0.4258 3.628903,-0.2812 5.339803,-0.8164 2.2188,-0.6914 3.8204,-0.4414 5.711,1.168 1.2578,1.0742 3.75,3.6055 4.3711,2.582 2.2695,-3.7461 6.207,-0.7226 8.8867,-3.0312 4.7812,-4.1328 5.0117,-3.8633 9.3711,1.5898 l 0.1797,-0.2226 -7.9297,0.6289 c -0.5,2.4375 0.6992,4.457 1,6.5586 -2.8086,-0.1016 -5.6211,-0.1993 -8.418,-0.2969 2.8985,2.3633 5.6797,2.9961 8.2774,0.1445 3.7304,0.3867 7.4492,-2.3711 11.1992,-0.035 0.1914,0.1172 0.5,0.047 0.7617,0.035 2.9609,-0.09 3.8203,-3.9453 6.2617,-4 2.4297,-0.055 4.8477,1.8125 7.347698,2.0977 2.6523,0.2969 3.2109,-4.2578 6.4609,-3.4414 l -0.25,-0.1953 c 2.7695,3.5859 3.0586,9.7734 7.1602,11.1992 5.5586,1.9375 10.2383,5.7851 15.8086,7.0976 3.8203,-3.7968 3.832,-7.289 1.332,-11.6797 -2.0313,-3.5859 -3.0703,-7.8359 -3.9609,-11.9179 -0.4297,-2 0.039,-4.2969 3.5703,-2.6602 4.6093,2.1406 4.8476,1.9336 7.9492,-2.7539 0.9492,-1.4258 1.6797,-0.2969 2.4609,-0.4609 2.75,-0.5821 7.5782,4.6015 8.0078,-2.7344 0,-0.066 0.9102,-0.074 1.3907,-0.1094 -0.3399,4.668 7.5195,2.625 6.5117,7.9844 -0.2227,1.1563 0.9805,1.7266 2.168,1.6758 1.6914,-0.07 2.2226,-0.6914 1.5312,-2.461 -0.9609,-2.5078 2.9883,-2.8828 2.5117,-5.4296 -1.6015,-1.961 -3.9531,0.4023 -5.7109,-0.7969 4.2383,-4.6836 4.2695,-4.7383 9.918,-1.125 1.7109,1.1015 4.1718,0.8203 5.3398,2.9297 -3.2383,4.8867 -3.2383,4.8867 4.1719,6.375 -0.6602,-2.6953 -2.1797,-4.7422 -4.3203,-6.375 5.4804,0.6367 10.1992,-1.6016 14.5703,-4.3555 1.6601,-1.0391 2.7578,-1.7578 4.8593,-1.4297 6.2696,0.9727 7.7696,0.2774 10.2696,-5.2656 0.9492,-2.1133 2.0117,-2.625 4.0312,-2.7461 1.5391,-0.094 3.0703,-0.6914 4.5782,-1.1211 2.3203,-0.6562 5.4531,-0.1367 4.1328,-4.668 -0.4532,-1.5273 2.0195,-3.9101 3.1484,-5.9023 -1.0117,-2.3359 0.3789,-2.7109 2.2109,-2.6719 2.9493,0.066 6.1172,0.1133 6.4375,-3.7461 0.1407,-1.7148 -6.3086,-4.1601 -8.6679,-3.5312 -0.7617,0.1992 -1.4102,0.7578 -2.1602,0.9726 -1.7617,0.5078 -3.1601,0.2969 -3.1914,-2.0273 -0.019,-1.4453 -0.457,-2.7149 -2.1484,-2.711 -2.1211,0 -3.3086,1.5196 -4.1289,3.2188 -0.75,1.5664 0.5781,2.4297 1.5586,3.2305 3.2187,2.6367 7.5312,3.7539 10.1093,7.2734 -3.8281,-0.3281 -7.6601,-0.6602 -11.4609,-0.9883 -0.7578,3.1992 2.2227,5.9063 -0.1992,8.6094 -1.9688,-3.2734 -1.9492,-3.0586 -6.7696,-2.5977 -1.8007,0.1719 -5.1406,2.0391 -5.0117,-2.8242 0.043,-1.3711 -3.039,-2.8398 -4.7265,-4.2304 -2.1016,-1.7422 -3.711,-0.4493 -5.5899,0.6835 -2.7617,1.6758 -5.8203,-1.3984 -9.0703,0.5508 -2.1016,1.2617 -3,1.7539 -2.9219,4.461 0.1289,4.2031 2.5821,8.1406 1.6407,13.0937 -4.3711,-7.6211 -4.3711,-7.6211 -11.1289,-6.2422 -0.6915,-5.8203 4.6289,-10.1758 3.9101,-16.2578 -0.1328,-1.2109 4.8086,-2.9375 1.2891,-6.082 -8.9805,4.7109 -8.9805,4.7109 -13.3594,10.6484 -2.3906,-0.4844 -1.8008,-3.7578 -4,-4.3906 2.0273,0.8789 3.4883,-0.098 4.7578,-1.5313 0.5117,-0.5742 1.0117,-1.4648 0.293,-2.0351 -2.0508,-1.6172 -4.7031,-1.4844 -6.4219,-0.1445 -1.1484,0.8945 0.3906,2.7734 1.5781,3.8554 -2.1562,-0.6054 -3.5898,0.3477 -4.4765,2.211 -0.4922,1.0507 -0.9922,1.9453 -2.2422,1.1132 -1.0078,-0.6718 -1.1406,-1.6406 -0.3985,-2.6875 0.4493,-0.6445 0.8985,-1.3085 1.2188,-2.0273 0.5586,-1.3086 -0.3711,-1.9766 -1.3399,-2.3477 -1.121,-0.4218 -2.1015,0 -2.3515,1.2579 -0.25,1.2421 0.3398,2.7226 -0.9492,3.6406 -0.6094,0.4336 -1.4102,0.9219 -2.0782,0.8555 -1.2695,-0.1211 -1.6914,-1.125 -1.2109,-2.2696 0.5781,-1.3828 1.8281,-3.8203 -0.4805,-3.5 -4.9687,0.6875 -7.2695,-3.5351 -11.2695,-4.8281 1.1211,-2.5313 6.7813,-4.2656 1.6602,-7.9648 -1.5313,-1.1016 -0.9297,-1.8477 0.1601,-3 2.7383,-2.9024 4.9688,-6.4649 10.3789,-5.8204 -3.4375,-2.8515 -3.8281,-6.4453 -4.2695,-9.8398 -0.2813,-2.2344 0.5703,-4.2891 -2.6406,-5.3711 -1.3203,-0.4375 0.2695,-2.6641 1.0703,-3.9336 0.7304,-0.1523 1.5117,-0.1875 2.2109,-0.4453 1.4297,-0.5156 2.1602,-1.7188 1.2383,-2.9258 -0.8594,-1.125 -2.2578,-0.9453 -3.2773,0.2031 -1.043,1.1602 -0.793,2.2969 0.1093,3.4024 -0.75,-0.1445 -1.5,-0.293 -2.25,-0.4414 l 0.2188,0.1914 c -1.0899,-1.7031 -1,-3.3633 -0.3008,-5.2656 0.7812,-2.1094 -1.1172,-4.1172 -3.3398,-3.9297 -1.5391,0.1328 -1.5274,0.9258 -1.0469,2.0976 0.5078,1.2227 0.8984,2.4961 -0.6914,3.3438 -2.0117,-0.3555 -1.9024,-2.2461 -2.5899,-3.5547 -0.539,-1.0195 -1.7422,-1.9961 -2.4414,-1.0977 -2.0976,2.6993 -4.8476,2.5235 -7.75,2.6602 -3.539,0.168 -1.9804,3.7734 -3.1484,5.6172 -0.8399,1.3125 1.3594,2.7812 2.9492,2.8281 2.3203,0.066 4.5898,1.0547 6.9805,0.375 0.3281,-0.09 1.1992,0.9023 1.4492,1.5352 0.2812,0.7265 -0.4883,2.1093 -0.7305,1.9336 -2.6601,-1.9532 -4.4179,2.8281 -7.8476,0.5703 -2.1719,-1.4258 -4.8711,-1.0274 -5.5625,-4.7735 -0.4493,-2.4258 -2.7305,-4.3476 -6.089898,-3.4609 -3.539,0.9375 -7.1797,1.9961 -10.3398,-1.3242 -0.5391,-0.5664 -2.1289,-0.5742 -3.0391,-0.2696 -3.1406,1.0508 -5.6289,1.5079 -5.3008,-3.1875 0.039,-0.4648 -0.9492,-1.2578 -1.5898,-1.457 -1.3008,-0.3984 -1.9102,0.7344 -2.3008,1.6641 -1.6172,3.8086 -2.5078,8 -6.25,10.5898 -0.9492,0.6485 -2.6484,0.8906 -2.5391,0.3789 1.1719,-5.5039 -1.75,-2.9219 -3.8906,-2.1445 -0.4101,0.1484 -1.4375,-0.1758 -1.4375,-0.2813 -0.031,-7.4101 -3.7812,-2.7343 -6.5312,-2.1718 -5.4219,1.0976 -9.511703,-2.2969 -13.699203,-4.8516 -1.7422,-1.0586 -1.3516,-3.4414 -0.6094,-5.1211 0.7578,-1.7226 2.6797,-1.293 4.2187,-1.4062 2.898503,-0.2071 4.769603,2.1132 7.238303,2.9609 2.7617,0.9453 5.4414,1.3047 6.6406,-1.9336 0.9493,-2.5898 2.961,-2.9883 4.9688,-3.0742 5.3828,-0.2305 10.7422,-0.4414 16.1523,0.3047 3.2696,0.4531 5.7813,0.7851 7.7813,3.9765 1.7695,2.8282 5.0078,3.5821 8.4492,2.2188 1.8203,-0.7266 3.257798,-2.2578 5.789098,-1.5117 3.6484,1.0664 1.8984,-2.793 3.3984,-4.5899 2.6328,2.1758 5.4297,5.6133 8.9922,1.3125 0.7383,-0.8867 1.8906,-1.0039 2.9101,-0.4687 3.4493,1.8359 5.5391,0.9414 6.2188,-2.960995 0.4687,-2.7617 2.2695,-2.8047 4.6484,-2.914 3.1211,-0.1407 6.1836,0.9375 9.3438,0.086 2.7265,-0.7422 5.4883,-0.4297 6.6562,-4.3047 0.8633,-2.8086 12.8321,-7.1875 15.3633,-6.0898 3.2695,1.4219 4.4375,4.8203 5.668,7.8594 0.5312,1.3085 -0.5899,3.0898 1.0312,5.0546 4.3985,-4.0546 9.3282,-7.1562 15.668,-6.4414 0.5117,0.1328 1,0.3008 1.4922,0.4688 1.3008,0.4375 2.5703,0.5859 3.4687,-0.711 0.2305,-0.3437 0.3399,-1.1406 0.1211,-1.3671 -1.2109,-1.2813 -2.4023,-0.1641 -3.4922,0.3007 -0.6679,0.2813 -1.1367,1.0118 -1.6992,1.5391 -0.8594,-2.6289 -5.4687,-1.9102 -5.2383,-5.7969 0.02,-0.2656 -3,-4.4336 -5.1328,-0.027 -0.4492,0.9258 -1.8086,-1.1328 -2.1093,-2.3672 -0.25,-0.9805 -0.6485,-2.1055 1.0507,-2.1953 1.0391,-0.051 2.1094,-0.3203 3.1016,-0.1289 1.1406,0.2187 2.6289,0.2695 2.5898,-0.8516 -0.2695,-7.9297 4.3594,-3.1758 7.0899,-2.7187 2.5273,0.4257 3.7305,0.1875 4.3086,-2.8008 1.5703,-8.1836 8.3008,-10.7617 17.2109,-11.5313 1.8399,-0.1601 3.9688,0.5782 5.4805,-0.1328 3.2578,-1.539 5.7305,-0.6445 7.668,1.7617 1.8398,2.2852 3.2226,2.2227 4.9921,0.125 2.6289,-3.125 5.6797,-4.2148 10.0977,-4.4101 8.5312,-0.3711 17.3828,0.3281 25.5312,-3.3906 0.711,-0.3243 1.5508,-0.6055 2.3008,-0.543 9.2383,0.7266 18.4883,-0.3125 27.6992,0.2266 4.7618,0.2812 9.2813,-2.226604 14.0391,-0.754 0.4414,0.1368 1.25,0 1.5,-0.3125 4.9102,-5.929604 10.9102,-3.769504 16.7617,-2.238204 1.6094,0.4218 3.4492,0.7968 4.6485,0.094 5.5,-3.207 11.832,-1.5742 17.6211,-3.3867 4.9492,-1.5508 10.0586,0.8984 14.9414,2.0039 1.5273,0.3477 2.6992,1.8555 4.539,0.6016 0.918,-0.6211 1.8789,-0.5118 2.9883,-0.2071 4.4297,1.2227 4.4414,1.1641 4.6016,-3.8281 0.01,-0.2226 0.2695,-0.4375 0.8281,-1.2851 1.7422,2.2343 1.6016,5.3593 3.832,6.9414 1.8086,1.289004 3.6602,2.527304 5.5899,0.4804 1.4883,-1.5898 0.09,-2.8008 -0.8789,-4.0937 -0.9219,-1.2227 -2.3711,-2.2305 -2.1719,-4.3516 2.8984,-1.6015 5.1797,0.3906 7.6094,1.5313 1.0195,0.4804 2.2304,0.625 2.8007,-0.4063 0.8399,-1.5234 -0.5703,-2.3398 -1.5,-3.2383 l -0.2109,0.2657 c 1.5313,-0.2461 2.2695,-1.5977 3.3711,-2.4375 1.0898,3.1367 0.8594,7.0234 6.1484,9.7656 -2.0195,-3.8985 1.1016,-6.0117 -0.457,-9.25 -1.8906,0.6797 -3.7812,-0.5078 -5.8516,-0.3203 0.8907,-2.1133 0.4805,-5.8242 4.8516,-2.6797 1.3477,0.9648 4.1875,-2.6836 7.1367,-1.2656 -0.039,0.7929 0.1836,1.6992 -0.1679,2.2343 -4.0196,6.1094 -3.5196,6.5743 3.2187,9.4453 3.1797,1.3555 2.6914,-4.6171 5.4727,-1.7773 3.1875,3.25 2.7773,-0.082 3.457,-1.8047 0.4414,-1.1211 1.5508,-1.4961 2.5625,-0.6133 5.1406,4.4649 10.6094,-0.3593 15.8984,0.5235 0.9102,0.1562 1.6602,-1.3125 1.7305,-2.3828 0.078,-1.3321 -0.1914,-2.7852 -1.5898,-3.3633 -1.6211,-0.6719 -3.8008,-0.2266 -4.6016,-2.4531 9.0312,-4.9766 10.8711,-4.0743 19.6016,9.6914 0.7109,-5.961 7.7695,-3.5235 10.289,-7.836 -4.1875,-3.8437 -12.1601,2.875 -14.0508,-6.0586 0.7618,-1.9843 4.5704,1.5977 5.4219,-1.7656 0.2695,-1.0742 1.9688,-1.8516 2.5586,-1.3164 3.4805,3.168 7.4024,-0.082 11.3711,0.9727 5.6211,1.4921 12.3711,1.1875 18.2188,-1.9063 2.3125,-1.2187 4.832,-2.1094 7.3398,-2.875 1.4609,-0.4414 2.75,-0.2461 4.1914,1.1133 5.0391,4.7305 5.1914,4.6055 8.5703,-1.6328 0.4883,-0.9024 0.6797,-1.961 1.1289,-3.3047 2.5703,1.2187 5.1016,2.4219 7.75,3.6758 -0.1211,0.7539 -0.1406,1.5429 -0.3711,2.2695 -0.5273,1.7148 -3.0273,3.0156 -2.0781,4.832 1.1992,2.2774 3.2188,4.2149 5.6016,5.4414 1.6875,0.8711 3.789,1.375 4.9375,-0.6054 0.9804,-1.6875 0.75,-3.668 -1.2891,-4.7852 -1.1094,-0.6055 -2.3203,-1.0273 -3.4883,-1.5351 4.168,-7.6055 11.7891,-6.8243 18.4688,-7.043 2.9297,-0.098 5.6406,0.539 7.9804,-1.5938 3.0704,-2.8007 5.3477,0.4532 7.9883,0.918 3.75,0.6563 8.5625,0.07 7.5821,6.4297 -0.062,0.3945 1.1679,0.8984 1.6289,1.4844 2.2382,2.8554 5.2304,2.3711 8.0586,1.5781 4.0117,-1.1172 7.7304,-1.8789 10.8398,1.9687 0.5508,0.6875 1.9727,1.2149 2.8203,1.0391 6.2305,-1.3008 13.2109,0.9141 18.6797,-3.8555 0.8398,-0.7304 1.8203,-0.4297 1.9609,0.1211 0.9102,3.5196 4.9102,3.6133 6.7891,5.9922 -1,2.1289 -2.7969,1.2188 -4.1602,1.5508 -2.6171,0.6445 -4.4492,1.6875 -3.4179,4.9102 0.6601,2.1054 -0.6094,4.2382 -0.3321,6.25 0.25,1.8085 -0.2578,5.488204 4.0625,2.8828 2.3672,-1.4336 1.7891,1.656204 2.2305,2.832004 0.5078,1.3633 0.9375,2.5 2.707,1.9023 2.0899,-0.7031 1.2032,-1.7461 0.4102,-2.9218 -2.2891,-3.390704 0.082,-5.398504 2.3711,-7.285204 2.6992,-2.2266 5.5117,-4.2773 -0.1406,-6.332 -1.0391,-0.3789 -1.4297,-1.5742 -1.3008,-2.6836 0.2031,-1.836 1.5,-1.8008 2.9023,-1.5469 0.5196,0.09 1.4883,0.1172 1.5196,-0.02 1.6796,-6.1719 7.75,-5.4805 11.9101,-7.7578 1.3399,-0.7266 1.0899,-2.1993 1,-3.5235 -0.012,-0.2422 0.75,-0.7383 1.1602,-0.7461 0.8593,-0.019 1.7695,0.7735 1.5703,1.3868 -2.1602,6.4648 4.1406,11.1992 2.4805,18.1992 4.1093,-1.2266 6.457,-2.7344 8.3593,-5.3125 1.2383,-1.6602 2.8907,-3.1367 4.6289,-4.2657 2.8399,-1.8359 4.5821,-1.1953 4.4688,2.5821 -0.019,0.625 0.8203,1.2773 1.332,2.0234 1.8086,-1.6289 3.75,-2.9805 3.1289,-5.8086 -0.5195,-2.3945 1.0703,-3.3945 2.961,-3.9219 1.9492,-0.5468 3.8086,-0.2695 4.4609,2.0196 0.457,1.6211 1.0078,3.3515 2.8906,3.125 2.5,-0.3047 1.9297,-2.7735 2.3672,-4.4649 0.1914,-0.7343 0.3125,-1.4922 0.4492,-2.2031 -3.2695,-3.0351 -7.9297,-0.7226 -11.3593,-3.7422 3.1406,-0.8086 1.9804,-4.5195 4.5703,-7.0312 1.6406,4.3086 3.6914,7.9843 8.9609,5.3984 -0.3711,7.7774 0.75,9.3672 7.0703,7.3242 3.75,-1.2109 7.4883,-1.6211 11.211,-2.4492 0.8085,-0.1836 1.4375,-0.8437 1.0078,-1.668 -0.3203,-0.6132 -1.0274,-1.1796 -1.6875,-1.4375 -1.711,-0.6562 -4.3399,4.5625 -4.9297,-0.1171 -0.3438,-2.6719 4.5898,-1.1915 6.4375,-3.086 1.5,2.6367 5.5,3.0313 5.9609,6.5703 0.1602,1.2969 -0.1992,2.7422 0.25,3.8946 0.5195,1.3164 1.9414,2.1445 3.0508,0.5898 2.3789,-3.3477 5.0586,-6.6055 4.9297,-11.375 1.8281,0.9648 1.8398,3.5938 4.0976,3.1406 2.6211,-0.5234 0.6016,-1.9843 0.4805,-2.9101 -0.5586,-4.0664 2.9727,-3.1914 4.793,-3.5977 1.5469,-0.3476 3.4062,0.9805 5.1797,1.293 6.7382,1.1914 8.6875,-1.0469 6.8672,-7.7774 -0.2579,-0.9609 -1.5391,-1.5625 -1,-2.8125 6.2226,-1.2734 7.5898,-0.078 6.0625,6.1719 -0.8321,3.3789 -1.9102,6.1953 0.5585,9.5625 2.379,3.2344 5.5118,2.4805 8.4493,2.7461 1.4414,0.1289 1.7617,-1.6211 2.2304,-2.8867 0.7891,-2.1484 -1.8398,-3.9063 -0.5976,-6.0078 2.6992,-1.7774 4.457,0.7031 6.6094,1.3203 l -0.1524,-0.168 c -0.1289,1.3164 -0.418,2.6446 -0.3281,3.9492 0.1406,1.9922 -0.3008,4.3204 2.75,4.8829 2.4297,0.4453 5.0898,1.0703 6.3203,-1.5 1.0391,-2.1719 1.75,-3.7383 4.4883,-2.9805 0.3515,0.098 1,-0.336 1.3008,-0.6992 1.2304,-1.4649 -2.6914,-3.3711 0.1289,-4.4375 1.5625,-0.5899 0.9922,2.9804 3.1015,2.664 1.1289,-0.1679 2.3594,-2.4023 3.2188,-0.5859 0.9297,1.9609 -1.4883,2.1562 -2.668,3.0312 -2.0117,1.4922 -5.3203,0.6875 -6.5312,3.5625 0.9492,2.0547 2.6679,1.6524 4.1679,1.5664 5.6211,-0.3359 5.6133,-0.3671 4.0821,5.4024 6.8593,0.1055 9.6015,-6.5742 14.8984,-8.7461 l -0.4688,-0.1758 c 3.629,3.4453 4.129,3.2735 6.4805,-2.1875 l -0.2109,0.3125 c 3.082,-1.125 6.1015,-2.4258 9.2304,-3.3242 3.9415,-1.1289 6.3321,0.074 7.9102,3.9805 1.4102,3.4882 4.0391,5.4765 7.4805,5.9726 2.4101,0.3516 4.6797,0.7305 6.6992,2.0664 2.6601,1.7657 4.9101,1.0977 7.1484,-0.8672 4.5117,-3.9492 4.4414,-3.7578 8.8516,-0.6523 1.9687,1.3945 2.3906,4.1406 4.9922,4.9219 1.1484,0.3437 1.2773,1.6445 0.3984,2.5625 -2.8906,3.0156 -0.582,5.2187 1.1289,7.4765 1.2891,1.711 2.8906,3.6016 5.1719,3.0547 2.3398,-0.5547 1.5977,-3 1.668,-4.7344 0.1406,-3.8476 3.0117,-3.0859 5.1914,-2.957 2.1992,0.125 3.8398,1.0586 3.6601,-2.7383 -0.2304,-5.0312 5.8711,-1.1132 7.5899,-4.9257 -3.9414,6.6445 3.0078,9.1914 4.1601,13.6484 0.1289,0.5351 1.8203,0.8437 2.8008,0.8789 0.2891,0.012 1.0274,-1.3281 0.8984,-1.9023 -1.8906,-8.6954 3.8985,-11.4532 10.4102,-13.8086 1.1484,-0.418 2.0703,-1.4571 3.8984,-2.7891 -0.1796,4.8984 3.5704,7.7461 3.4805,12.2305 -0.051,2.3554 2.6016,3.3867 4.6211,2.9882 1.8594,-0.371 1.1289,-2.6015 1.25,-4.0937 0.019,-0.2617 -0.1484,-0.5977 -0.039,-0.7813 1,-1.6406 -3.4921,-2.6289 -0.5,-4.496 2.1289,-1.3243 3.2383,0.3632 4.7579,1.3398 4.5507,2.9258 7.8906,-2.2031 12.1328,-2.1797 0.6289,0 1.5781,-1.918 3.0586,-0.918 5.3593,3.6016 11.5586,4.4063 17.7304,5.1914 2.1797,0.2774 2.461,2.6875 4.25,3.2579 z m 0,0"
     id="path488" />
</svg>
