<?xml version="1.0" encoding="UTF-8" standalone="no"?>
<svg
   width="1200"
   height="400"
   viewBox="0 0 1200 400"
   version="1.1"
   id="svg728"
   xmlns="http://www.w3.org/2000/svg"
   xmlns:svg="http://www.w3.org/2000/svg">
  <defs
     id="defs728" />
  <path
     fill-rule="evenodd"
     fill="#000000"
     fill-opacity="1"
     d="m 696.08812,95.902682 c -0.2305,-1.0274 -0.6211,-1.9453 -1.9297,-1.6953 -0.7617,0.1484 -1.3203,0.6992 -1.1406,1.5585 0.2109,1.0665 0.8906,1.8633 2.0117,1.7774 0.7969,-0.062 1.0078,-0.8828 1.0586,-1.6406 m -94.7812,14.249998 c -0.129,-0.8594 -0.5977,-1.4141 -1.4883,-1.2657 -0.4414,0.07 -1.0117,0.3789 -1.1914,0.7422 -0.4297,0.8282 0.039,1.3789 0.9023,1.4571 0.7383,0.066 1.4492,-0.1055 1.7774,-0.9336 m 372.6406,-21.960998 c -0.6485,0.6211 -1.7578,1.2305 -2,2.0821 -0.1485,0.539 1.2422,0.8593 1.9804,0.5 0.9297,-0.4493 1.6993,-1.1914 1.4805,-2.3711 -0.031,-0.1407 -0.8203,-0.1289 -1.4609,-0.211 m 66.57028,126.296898 c -0.25,-0.4453 -0.6016,-1.2617 -0.6992,-1.2344 -1.4688,0.461 -2.7891,1.2071 -3.25,2.8203 -0.059,0.2305 0.5,0.9102 0.7812,0.918 1.7071,0.043 2.918,-0.6719 3.168,-2.5039 m -6.8711,0.098 c -1.2891,0.1796 -1.5977,0.8007 -1.6172,1.5742 -0.031,0.9179 0.5274,1.3711 1.3867,1.1992 0.7735,-0.1563 1.1836,-0.7852 1.2227,-1.5742 0.039,-0.9883 -0.6016,-1.211 -0.9922,-1.1992 m -7.4805,-100.7266 c -0.4687,0.3945 -1.3086,0.75 -1.5195,1.3359 -0.418,1.125 0.1133,2.0274 1.4297,1.9883 0.8125,-0.023 1.4101,-0.5586 1.3906,-1.4883 -0.02,-0.789 -0.3086,-1.4414 -1.3008,-1.8359 m -396.06638,229.4727 c -1.9726,-0.8672 -3.1328,-1.375 -4.2929,-1.8868 -0.059,0.4649 -0.3399,1.1172 -0.1407,1.3516 0.9219,1.0508 2.1524,1.2109 4.4336,0.5352 m 429.27738,-199.0157 c -1.3008,0.055 -1.7696,0.6172 -2.0078,1.3672 -0.3321,1.0313 0.4179,1.4219 1.1875,1.4649 0.9804,0.051 2.1718,-0.012 1.9609,-1.5039 -0.1094,-0.7774 -0.7188,-1.2969 -1.1406,-1.3282 M 593.24832,84.875582 c -0.2696,-0.7734 -0.5899,-1.5312 -1.6289,-1.0117 -0.7227,0.3711 -1.2305,1.0117 -1.0118,1.8398 0.2305,0.8516 1.0586,1.3086 1.8321,1.0899 0.7968,-0.2383 0.8984,-1.1211 0.8086,-1.918 m -352.5899,27.980498 c 0.1797,-0.5 -0.8203,-0.5039 -1.4414,-0.6406 -1.0508,-0.2227 -2.0781,0.1797 -2.5508,1.0664 -0.1992,0.3672 0.3828,1.625 0.8203,1.7539 1.2813,0.375 2.4219,-0.1016 3.1719,-2.1797 m 219.5586,-13.621098 c 2.2617,0.5273 3.8711,1.722698 5.4024,-0.4805 -1.6329,-0.664 -3.211,-0.9062 -5.4024,0.4805 m 290.4024,-20.7422 c -0.1524,-0.8984 -0.7813,-1.1992 -1.5625,-1.0508 -0.879,0.1719 -2.168,0 -2.0079,1.4805 0.09,0.75 0.668,1.3008 1.5586,1.2617 1.1016,-0.039 1.9024,-0.4609 2.0118,-1.6914 m -343.2696,34.757798 c 1.168,0.043 1.9102,-0.5039 2.0899,-1.6562 0.1367,-0.9258 -0.4297,-1.3516 -1.2735,-1.3985 -1.1797,-0.066 -1.8398,0.625 -2.0898,1.711 -0.2266,1.0234 0.5508,1.1836 1.2734,1.3437 m -163.1914,224.8164 c 0.4688,-0.1797 0.9414,-0.3593 1.4102,-0.539 -0.8203,-0.9961 -1.6992,-1.9336 -3.1094,-1.8164 -0.293,0.023 -0.8125,0.7265 -0.7305,0.9648 0.3399,1.1602 1.3086,1.4531 2.4297,1.3906 m 437.7813,-23.0429 c 0.539,-0.2539 1.6172,-0.4219 1.8281,-0.9375 0.4687,-1.1836 -0.5195,-1.7618 -1.5391,-2.0586 -0.832,-0.2383 -1.6797,-0.09 -1.9492,0.7617 -0.3711,1.1797 0.2891,1.8984 1.6602,2.2344 m -421.3711,25.6796 c -0.6407,-1.039 -1.6289,-1.0859 -2.6016,-0.7734 -0.8476,0.2695 -2.1992,0.625 -1.5586,1.7695 0.2695,0.4922 1.8711,0.3516 2.8516,0.3047 0.6875,-0.031 1.5781,-0.1875 1.3086,-1.3008 m 177.0508,-26.746 c 1.039,-0.5313 1.5781,-1.4063 1.207,-2.5196 -0.2578,-0.7969 -1.1172,-1.1328 -1.7774,-0.5469 -0.5195,0.461 -0.9414,1.2696 -1,1.9571 -0.082,0.9492 0.7696,1.1054 1.5704,1.1094 m -90.7618,-1.5196 c 0.09,0.2422 0.211,0.6992 0.2891,0.6914 1.4531,-0.1211 3.0312,0.6016 4.293,-0.5703 0.1172,-0.1094 -0.2227,-1.0859 -0.4922,-1.168 -1.25,-0.375 -2.5508,-0.4765 -3.6797,0.3907 -0.1992,0.1445 -0.2813,0.4336 -0.4102,0.6562 m 614.5196,-50.3437 c -0.2305,-0.4102 -0.5,-1.1914 -0.6797,-1.1719 -0.9883,0.125 -1.9492,0.4453 -2.918,0.6992 0.5586,0.4219 1.0781,0.957 1.707,1.2383 0.793,0.3477 1.4922,0.074 1.8907,-0.7656 m 38.1015,-15.336 c -0.8203,0.027 -1.6015,0.3125 -1.6211,1.1875 -0.031,0.8907 0.75,1.3321 1.5703,1.4493 0.76958,0.1093 1.85158,0.1601 2.01178,-0.7227 0.25,-1.3164 -0.9414,-1.6289 -1.96098,-1.9141 m -14.4414,-11.2109 c 0.461,1.0898 1.4805,1.3789 2.4727,1.4219 0.789,0.031 1.5273,-0.5625 1.2773,-1.4492 -0.3086,-1.0938 -1.1992,-1.6368 -2.3789,-1.4844 -0.8515,0.1133 -1.3398,0.6211 -1.3711,1.5117 m 8.9805,-48.4766 c -0.051,-0.7617 -0.2188,-1.6015 -1.0586,-1.6914 -1.3828,-0.1484 -1.4922,1.1094 -1.6992,2.0117 -0.1719,0.7461 0.2695,1.6094 1.0078,1.6368 1.1406,0.043 1.6797,-0.836 1.75,-1.9571 m 0.1094,-45.7968 c 0.3828,0.1875 0.5898,0.3711 0.832,0.3984 1.4102,0.1797 2.457,-0.4531 3.25,-1.5508 0.5078,-0.6953 0.5508,-1.6094 -0.3008,-1.8555 -1.0703,-0.3203 -1.8594,0.5274 -2.5,1.3516 -0.4297,0.543 -0.8398,1.0859 -1.2812,1.6563 m 4.5703,-5.7579 c 1.2695,-0.207 2.17188,-0.5234 2.01948,-1.371 -0.207,-1.1797 -1.28908,-1.3672 -2.30858,-1.0743 -0.8008,0.2305 -2.3398,0.02 -1.8398,1.4258 0.2109,0.6133 1.6406,0.8008 2.1289,1.0195 m -31.8594,-29.2656 c -0.4102,0.1758 -0.8203,0.3555 -1.2305,0.5313 0.6211,0.7734 1.1094,1.7383 1.8907,2.2656 0.6289,0.418 1.5507,-0.07 1.4687,-0.9727 -0.1094,-1.1328 -1.1992,-1.4648 -2.1289,-1.8242 m 22.4805,-8.140598 c 0.5078,-1.6016 0.1797,-2.9531 -1.211,-3.875 -0.2109,-0.1406 -1.1679,0.2852 -1.2304,0.5664 -0.4102,1.9297 1.1328,2.5313 2.4414,3.3086 m -24.5,-16.2852 c -0.07,-1.3515 -1.0313,-1.6406 -2.0703,-1.4804 -1.0899,0.1679 -1.7813,1.0586 -1.7305,2.1211 0.051,0.9687 0.4805,2.1601 1.7422,2.0195 1.3867,-0.1719 2.0273,-1.25 2.0586,-2.6602 m -566.5899,27.867198 c 0.25,-1.0547 -0.3203,-1.5547 -1.0898,-1.664 -1.0625,-0.1485 -2.2305,0.2148 -2.5899,1.1679 -0.4218,1.1055 0.3985,1.8399 1.5782,1.9571 1.1718,0.1211 1.9218,-0.3594 2.1015,-1.461 m -8.5195,-11.781198 c -0.4219,-0.5039 -0.7813,-1.2852 -1.3828,-1.5625 -1.5664,-0.7383 -2.457,0.3398 -2.9297,1.6172 -0.2891,0.7539 0.2031,1.7304 0.9805,1.8164 1.3398,0.1523 2.5898,-0.2891 3.332,-1.8711 m -133.6719,8.675798 c -0.3789,-1.1836 -1.3906,-1.4219 -2.4179,-1.4766 -0.6094,-0.027 -1.7422,-0.066 -1.1094,1.0664 0.4765,0.8711 1.3867,1.5469 2.5273,1.2813 0.3906,-0.09 0.6797,-0.5704 1,-0.8711 m -66.1601,54.3867 c 0,-0.9649 -0.5196,-1.711 -1.2774,-1.5703 -0.9101,0.1679 -1.8711,0.6757 -2.5429,1.3164 -0.7188,0.6953 -0.1172,1.3398 0.6914,1.4101 1.2187,0.1016 2.4296,-0.074 3.1289,-1.1562 m 309.7812,-56.2891 c -0.25,-0.9883 -0.9922,-1.1015 -1.75,-0.9531 -1.0312,0.1992 -2.082,0.5859 -2.3906,1.7109 -0.2813,1.0196 0.4492,1.4258 1.3203,1.3203 1.3086,-0.164 2.4805,-0.6211 2.8203,-2.0781 m -46.7109,3.6172 c -2.168,-2.3711 -4.3399,-1.1484 -6.2578,-1.5312 1.5468,2.871 3.6289,2.2421 6.2578,1.5312 m -200.9297,232.582 c -0.3203,-1.3906 -1.5195,-1.2148 -2.3984,-1.0156 -0.5704,0.1289 -1.3321,0.8828 -1.4102,1.4414 -0.1992,1.3281 0.9102,1.5703 1.9375,1.5391 1.1914,-0.035 1.7305,-0.8242 1.8711,-1.9649 m 116.9219,-6.1289 c -1.0625,0.031 -2.2227,0.2617 -2.2032,1.4961 0.012,1.6875 1.4727,1.9414 2.7618,1.8399 1,-0.078 2.0781,-0.5118 1.7695,-1.9024 -0.2695,-1.2031 -1.2305,-1.4765 -2.3281,-1.4336 m 632.68748,-92.4961 c -1.99998,-0.7187 -3.89848,-0.5664 -5.71878,0.2344 -0.6719,0.2969 -0.6015,0.9453 0.059,1.0664 1.9805,0.3594 4,0.7227 5.66018,-1.3008 m -820.32028,30.2813 c -0.129,-1.2578 -0.8985,-1.7891 -2.0899,-1.836 -1.1601,-0.047 -2.1601,0.1875 -1.9687,1.6524 0.1601,1.125 0.8515,1.9922 2.0507,2.0039 1.1094,0.012 2.0508,-0.4492 2.0079,-1.8203 m 806.1406,-43.8594 c -0.3008,-1.8945 -1.9102,-2.668 -3.6875,-2.9375 -0.6914,-0.1055 -1,0.9609 -0.8633,1.7149 0.3203,1.6718 1.2617,2.7343 3.0703,2.7265 0.8008,0 1.4609,-0.2969 1.4805,-1.5039 M 286.44012,85.012282 c -2.7422,-2.2382 -4.2227,-4.0586 -6.9532,-2.7187 -0.3086,0.1601 -0.5898,1.0391 -0.4296,1.3398 1.0507,2 3.2617,1.0821 4.8593,1.7696 0.2032,0.082 0.5,-0.07 2.5235,-0.3907 m 704.0898,158.414098 c -0.4297,-0.4258 -1.0195,-1.4102 -1.4101,-1.3359 -2.0118,0.3711 -1.9922,2.0429 -1.8907,3.6289 0.039,0.7773 0.3789,1.7304 1.1992,1.5898 2.0508,-0.3476 1.8008,-2.2031 2.1016,-3.8828 M 1039.4088,97.578682 c -0.8711,-0.3906 -1.8515,-1.2539 -2.6211,-1.0898 -1.4297,0.3125 -2.9297,1.1523 -2.4492,3.1016 0.1914,0.781198 1.1211,1.113198 1.8203,0.812498 1.2695,-0.546898 2.8711,-0.789098 3.25,-2.824298 M 223.56902,133.14118 c 0.5703,0.9454 1.3086,2.086 2.3398,1.7618 1.6094,-0.5118 2.3516,-1.9688 2.0195,-3.6993 -0.1484,-0.8476 -0.9414,-1.3085 -1.7382,-1.25 -1.9297,0.1524 -2.461,1.5625 -2.6211,3.1875 m 746.1211,-18.5742 c -2.3125,0.6797 -3.0118,1.0235 -3.7305,1.0742 -1.6914,0.1055 -2.6328,1.2969 -1.9609,2.5196 1.3398,2.4531 2.3593,0.2265 3.3398,-0.6602 0.5391,-0.4922 0.9414,-1.1562 2.3516,-2.9336 m -304.1914,201.9492 c -3,-0.625 -5.5118,-0.7929 -8.7305,0.7735 3.5195,1.1211 6.1719,2.4687 8.7305,-0.7735 m -278.6485,-4.5156 c 4.3985,0.8008 7.4571,0.4961 10.4688,-0.8984 -3.0196,-0.078 -6.0391,-1.6953 -10.4688,0.8984 m 581.0977,-91.9453 c 1.6797,-0.5078 1.3594,-2.2851 1.4414,-3.6953 0.07,-1.0664 -0.5391,-2.1953 -1.832,-1.7969 -1.7071,0.5235 -2.2071,2.2227 -2.2305,3.7305 -0.019,1.0156 1.0703,1.6797 2.6211,1.7617 m -1.5781,-77.0078 c -1.7696,-0.4453 -2.5313,-0.7305 -3.3125,-0.8125 -1.6172,-0.1641 -3.1797,0.07 -4.0977,1.6133 -0.1719,0.289 0.1406,1.1211 0.4805,1.414 1.6875,1.4454 2.7773,0.078 4.0078,-0.9023 0.5703,-0.457 1.3594,-0.6328 2.9219,-1.3125 m 101.44918,-21.0742 c -1.6289,-0.1914 -2.5313,0.2148 -2.3516,1.0117 0.3828,1.7266 0.6719,3.7891 2.9414,4.1406 1.1992,0.1914 2.0313,-0.7265 2.1094,-1.8476 0.1797,-2.3672 -1.4609,-3.1133 -2.6992,-3.3047 m 22.3789,-11.3164 c -1.3008,0.7695 -1.7578,1.9492 -1.4297,3.2812 0.3398,1.3281 1.1211,2.4141 2.7305,1.5313 0.8906,-0.4883 1.75,-1.2266 1.1289,-2.4414 -0.5391,-1.0469 -0.8008,-2.461 -2.4297,-2.3711 m -117.64058,-1.5821 c 1.0703,1.6875 1.3906,2.2852 1.8007,2.8164 0.8086,1.0508 -0.1914,3.3555 2.1993,3.2618 0.4296,-0.016 1.0507,-0.418 1.2421,-0.8047 1.1993,-2.4688 -1.2304,-2.8867 -2.4023,-3.9805 -0.3398,-0.3203 -0.8867,-0.4219 -2.8398,-1.293 m -517.2774,1.7539 c 2.918,-3.7539 2.3789,-5.7421 -0.07,-8.9296 0.02,3.2343 0.039,5.2343 0.07,8.9296 m -22.9219,-16.449198 c 2.8203,2.2149 4.1602,4.8399 7.461,3.5703 0.25,-0.098 0.4883,-1.082 0.3086,-1.2968 -1.75,-2.0821 -3.9688,-2.8321 -7.7696,-2.2735 m 134.4688,-12.0859 c -2.7891,-0.3203 -4.8477,-2.5 -6.8672,-0.039 -0.3398,0.418 -0.2617,1.7813 0.1406,2.1211 2.0781,1.8086 3.5,-1.4219 5.5078,-0.9023 0.1211,0.031 0.3516,-0.3281 1.2188,-1.1797 m 153.0312,237.480498 c -3.1289,-1.5391 -5.1093,-3.2383 -7.8203,-1.4063 -0.2773,0.1875 -0.4375,1.1445 -0.25,1.3594 1.6797,1.7773 3.9727,0.5156 5.9219,1.0742 0.168,0.051 0.4375,-0.1953 2.1484,-1.0273 M 330.14712,97.750682 c -0.2695,-1.2187 -1.0469,-1.9765 -2.0586,-2.0156 -1.3281,-0.047 -2.5703,0.6797 -2.7383,2.0781 -0.1523,1.1914 0.9297,1.6797 2,1.5977 1.1875,-0.094 2.5977,-0.055 2.7969,-1.6602 m -21.9688,-2.4062 c 1.75,1.0703 3.0586,1.8047 4.3008,2.6484 0.8789,0.5977 1.8399,1.3477 2.6602,0.3047 0.5703,-0.7422 0.8711,-1.8945 0.8594,-2.8555 -0.02,-1.875 -1.6211,-1.6875 -2.8204,-1.5937 -1.5,0.1172 -3.1289,-0.09 -5,1.4961 m 157.5118,-5.2422 c -1.9922,-2.3867 -3.1797,-4.7578 -5.961,-3.6602 -1.1718,0.4727 -1.6093,2.461 -1.0312,3.3321 1.6719,2.5468 3.9297,0.5507 6.9922,0.3281 m 561.87888,2.5234 c -1.9414,0.2969 -3.0899,1.7071 -4,3.3203 -0.039,0.066 1.1289,1.1875 1.7383,1.1914 2,0.01 3.5625,-0.9179 3.8398,-3.0742 0.1133,-0.8086 -0.5977,-1.3711 -1.5781,-1.4375 M 991.94792,196.86008 c -1.2188,-0.1758 -2.2383,-0.5508 -3.1797,-0.3945 -0.9102,0.1484 -3.2813,-0.1368 -2.0313,1.6836 1.0821,1.582 -1.3476,2.289 -0.2382,3.2382 1.2304,1.0469 2.4101,0.098 3.3593,-0.6171 1,-0.75 1.9414,-1.6758 2.0899,-3.9102 m -798.3789,79.7187 c 0.5781,3.043 -5.3907,1.875 -3.1719,5.8008 0.582,1.0352 1.9219,0.9258 2.832,0.4297 2.9492,-1.5976 1.3789,-3.8515 0.3399,-6.2305 m 161.6093,35.5938 c 3.6797,1.7266 6.1407,1.3633 8.5196,0.3984 0.9219,-0.3789 1.8515,-1.1679 1.4687,-2.3789 -0.3476,-1.1211 -1.4179,-1.5195 -2.4492,-1.1484 -2.1172,0.7656 -4.1797,1.7187 -7.5391,3.1289 m 22.9102,0.082 c -3.0391,-2.289 -6.1602,-3.6093 -9.1992,0.6289 z M 602.99872,91.820982 c -3.8907,0.8946 -7.9297,-1.4765 -11.711,0.4219 3.9492,-0.7539 7.8789,1.082 11.711,-0.4219 m 383.1211,170.183598 c 2.1289,2.1289 4.0781,2.4844 6.1992,2.0977 1.1093,-0.1992 1.8906,-0.961 1.789,-2.1211 -0.1093,-1.2461 -1.1093,-1.6914 -2.2109,-1.4688 -1.7188,0.3516 -3.4102,0.8711 -5.7773,1.4922 m -802.5821,-157.8633 c -2.4687,0.461 -4.3086,3.3204 -7.2304,1.7618 -0.75,-0.3985 -1.5079,0.1992 -1.6485,1.0664 -0.07,0.4258 0.1992,1.2968 0.3789,1.3164 2.2696,0.2344 4.6797,0.8398 6.7891,0.3164 1.4609,-0.3594 2.4023,-2.3711 1.7109,-4.461 m 262.0703,-8.703098 c 3.6289,3.4375 6.3086,1.25 9.6797,-1.2109 -4.1797,-3.2422 -6.6992,0.023 -9.6797,1.2109 m 559.65238,6.453098 c -4.8633,-4.484298 -4.8711,-4.480398 -8.67188,0 3.0391,0 5.85938,0 8.67188,0 m -803.01168,179.543 c -1.0313,4.0313 -1.3789,6.6641 1.7109,8.086 1.3477,0.621 2.5898,0 2.9687,-1.5977 0.8399,-3.4922 -2.2304,-3.957 -4.6796,-6.4883 m 756.1484,-40.3906 c -2.6992,-4.2188 -6.25,-1.9063 -9.0195,-2.5899 -1.0586,-0.2617 -1.6797,1.8516 -1.5899,3.1446 0.09,1.3242 1.4297,1.6094 2.3399,1.2734 2.5117,-0.9258 5.1093,-1.539 8.2695,-1.8281 m -674.7305,-115.2852 c 3.2617,1.4922 5.8633,1.1993 8.3711,0.168 1.2696,-0.5195 2.3203,-1.6211 1.4805,-3.1055 -0.7383,-1.3164 -3.1406,-1.5156 -3.2891,-0.7187 -0.6914,3.9414 -4.6015,1.2812 -6.5625,3.6562 m 104.9532,210.3008 c -7.6211,-2.7812 -8.7032,-2.625 -11.8008,2.125 4.0078,-1.7187 7.9804,0.5586 11.8008,-2.125 m -91.9532,2.9492 c 5.5625,0.5508 11.1602,0.4493 17.6914,-1.1523 -6.6406,-1.0234 -12.1992,-1.4922 -17.6914,1.1523 m 407.5313,-15.1601 c 1.332,-0.2383 3.0703,-0.375 3.0312,-1.9727 -0.07,-2.7265 -2.2422,-3.2929 -4.5195,-3.2969 -1.5898,0 -2.4609,0.9649 -2.4023,2.4922 0.09,2.5547 1.9531,2.7774 3.8906,2.7774 m -106.7305,-218.461 c 1.75,-1.1328 0.9297,-2.9609 1.332,-4.3828 0.3282,-1.183598 0.01,-2.726498 -1.6015,-3.136698 -1.711,-0.4375 -2.9688,0.035 -3.7891,1.832 -0.7305,1.597698 -1.2422,2.917998 0.6485,3.953198 1.1328,0.6172 2.2929,1.1679 3.4101,1.7343 m 493.08988,40.2735 c -0.629,-1.2969 -1.1993,-2.4766 -1.7696,-3.6485 -0.8711,-1.789 -2.0508,-3.4414 -4.1875,-2.1328 -1.1328,0.6875 -2.6015,2.3399 -0.5312,3.6797 1.9492,1.25 1.8008,5.5391 5.6289,3.9453 0.7695,-0.3164 0.9609,-1.1562 0.8594,-1.8437 m -9.3985,-24.9883 c -1.8711,0.051 -1.4922,1.4492 -1.6094,2.7266 -0.2812,2.9687 0.8907,4.4648 3.9297,4.332 1.5196,-0.062 2.4688,-0.6797 2.211,-2.3867 -0.3907,-2.586 -1.6407,-4.3711 -4.5313,-4.6719 m -852.94138,220.0039 c 5.1211,3.6602 5.1211,3.6602 11.1602,-0.3398 -3.9883,-3.9102 -6.7578,0.8242 -11.1602,0.3398 m 500.0899,-25.5937 c -1.1993,1.5742 -2.7891,3.246 -2.5586,5.2382 0.25,2.1602 2.5117,2.4922 4.3203,2.336 2.7383,-0.2422 2.0898,-2.4844 2.0195,-4.2188 -0.078,-2.2695 -1.7812,-2.8711 -3.7812,-3.3554 m -39.8282,21.3593 c 3.7696,0.8008 7.5196,1.6992 11.3086,2.3438 1.3906,0.2344 2.6289,-0.6094 2.7617,-2.1602 0.1289,-1.5742 -0.9804,-2.5273 -2.4023,-2.5078 -3.9297,0.059 -7.8984,0.031 -11.668,2.3242 m 33.0313,-261.238298 c 1.3984,3.5391 -1.0625,5.3321 -2.3906,7.5821 -0.4415,0.75 -0.8594,2.0664 0.5273,2.6094 0.9727,0.3789 1.9414,0.3906 2.7812,-0.5313 2.9102,-3.2305 2.9219,-6.0703 -0.9179,-9.6602 M 342.57682,338.06708 c -6,-4.8984 -10.3985,-0.5429 -15.0391,-0.3359 4.6406,3.168 9.2305,1.3672 15.0391,0.3359 M 474.26042,96.852282 c 0.5586,-1.7891 -0.961,-2.1758 -1.1133,-3.1289 -0.3867,-2.4883 -2.1992,-4.1289 -4.1875,-3.5703 -1.5117,0.4297 -3.3711,2.8164 -3.4609,4.4179 -0.1602,3.1758 2.9687,2.0078 4.789,2.3438 1.1914,0.2187 2.4805,0.8281 3.9727,-0.062 m -64.2813,6.859398 c -2.1406,-0.027 -4.0117,-0.1016 -4.2812,1.9023 -0.3399,2.5547 1.582,2.0273 3.1094,1.7695 1.2226,-0.207 2.1601,-0.5547 3.2617,0.918 2.1601,2.8828 3.789,-1.207 5.9492,-0.9648 0.6094,0.07 1.1094,-1.1836 0.7617,-1.8985 -1.1719,-2.4219 -3.1211,-0.75 -4.7812,-0.8633 -1.5313,-0.1015 -3.0196,-0.6367 -4.0196,-0.8632 m -227.5117,23.2734 c -2.1875,0.2773 -4.3984,0.7266 -4.3203,3.5352 0.1016,3.4687 3.1133,3.0546 5.2227,3.2148 2.4882,0.1953 3.8906,-1.3477 3.7578,-3.9648 -0.1797,-3.1993 -2.6289,-2.668 -4.6602,-2.7852 m 837.58988,168.5156 c 3.5507,1.8867 6.7617,1.5039 9.75,2.0703 1.1523,0.2188 1.9726,-0.7695 2.0312,-1.875 0.09,-1.7812 0.3711,-3.7226 -1.0312,-5.1445 -0.3399,-0.3516 -2.0274,-0.1172 -2.0586,0.051 -0.9219,4.7578 -6.1016,1.4062 -8.6914,4.8984 m -602.44928,40.7696 c 3.4297,0.7148 6.8321,1.5781 10.2813,2.082 1.4883,0.2187 3.3398,-0.066 3.0898,-2.4063 -0.1718,-1.6406 -0.7304,-3.2109 -2.75,-3.1953 -3.6289,0.027 -7.1797,0.5899 -10.6211,3.5196 m 616.60938,-197.0313 c -1.6094,0.8125 -3.0976,1.5039 -2.7891,3.4102 0.4883,2.9414 2.2188,4.6406 5.4102,4.4492 3.25,-0.1914 5.3398,-2.2539 4.6289,-4.9219 -1.1484,-4.2187 -5.2187,-0.6289 -7.25,-2.9375 m -761.78908,-14.1719 c -4.0898,-4.457 -9.371,-3.0039 -14.3203,-2.8515 -1.3789,0.043 -3.5703,0.1562 -3.2304,2.4453 0.2695,1.832 2.289,2.7695 3.6328,2.332 3.6992,-1.2109 7.1562,-0.8047 10.7969,0.1211 1.0703,0.2734 2.4609,-0.7109 3.121,-2.0469 m -91.6406,-8.4218 c -3.0703,-0.2774 -3.0703,-0.2774 -3.4492,1.8359 -0.2695,1.5469 2.7383,6.0859 4.1992,6.3203 1.7227,0.2773 6.1797,-2.7578 5.9102,-4.2812 -0.6797,-3.8477 -4.168,-3.2227 -6.6602,-3.875 m 850.32028,-0.918 c 6.6914,-2.0391 4.9024,-8.1016 7.3321,-11.7305 0.1093,-0.168 -0.4024,-1.0508 -0.793,-1.207 -2.2773,-0.9258 -4.8086,-1.1563 -6.6484,0.457 -1.8321,1.5938 -2.9297,4.3281 -0.3086,5.957 3.2265,2.0079 0.6289,3.879 0.4179,6.5235 M 721.29942,88.044382 c -5.3828,1.1719 -5.4414,1.2891 -9.6093,-0.7305 -1.4727,-0.6992 -2.3321,-1.9687 -3.543,0.3789 -1.0703,2.1133 -0.5781,3.4922 1.0625,4.7735 2.8008,2.1992 6.6484,-1.6407 9.3008,1.582 1.0781,-1.8945 3.2187,-3.3242 2.789,-6.0039 m -344.1211,15.699198 c -1.0898,0.3594 -2.2695,0.4492 -3.0195,1.0586 -1.2695,1.0469 -4.1797,1.1094 -3.3515,3.5391 0.6601,1.9492 2.5117,3.3086 5.0117,2.5703 1,-0.2969 2.2383,-0.2656 2.9687,-0.8672 1.7891,-1.4649 6.3399,-0.5234 5.1524,-4.4297 -0.9532,-3.1133 -4.7032,-0.2852 -6.7618,-1.8711 m 612.6094,71.4453 c -4.6797,-5.3867 -10.6406,-4.7031 -16.1797,-4.7383 -3.0312,-0.016 -1.5507,3.0118 -2.8789,6 6.7696,-4.8437 12.2813,3.3672 19.0586,-1.2617 m 76.83208,-68.7148 c -4.2305,0.1172 -10.3516,4.5781 -9.7696,6.5234 0.5977,1.9766 2.25,4.1289 4.5586,3.1992 2.6914,-1.0859 6.6797,0.3282 7.961,-3.7343 -3.4922,-0.5352 -0.4102,-5.4766 -2.75,-5.9883 m -460.85158,227.1992 c -2.1211,-1.9922 -4.3906,-2.6914 -6.1992,-2.2383 -6.9414,1.7344 -13.6719,-0.9844 -20.5117,-0.4883 -1.629,0.1172 -3.7696,-1.1562 -4.5782,1.918 3.0586,1.6523 5.9883,2.2891 9.6875,1.8711 4.5821,-0.5117 9.3516,-1.8047 14.043,0.4844 2.5273,1.2343 4.8984,-0.3321 7.5586,-1.5469 m 502.87888,-210.6602 c -1.8789,-1.4726 -3.3281,-5.0625 -6.1172,-1.4023 -0.9609,1.2578 -2.4219,1.0586 -3.4726,0.1641 -2.5,-2.1094 -4.418,-0.5508 -5.918,1.1054 -1.3125,1.4414 -1.1719,3.7852 0.019,5.1172 1.8281,2.0469 4.4688,1.1875 6.5899,0.3008 3.0703,-1.2813 5.2812,-4.1797 8.8984,-5.2852 M 393.71692,92.684982 c 1.3594,1.8242 3.4219,3.8516 3.1094,4.3164 -1.1485,1.7539 -1.6172,3.308598 -0.3672,4.945298 1.7383,2.2735 3.207,-0.3203 4.8281,-0.5234 5.4024,-0.6758 6.1719,-1.593798 3.1211,-5.492198 -1.6719,-2.1367 -0.8398,-5.125 -3.6094,-7.0273 -0.6601,4.4687 -4.8398,1.9609 -7.082,3.7812 m 219.6016,240.499998 c 1,2.4141 3.1797,3.3047 4.5781,2.9258 6.1914,-1.6875 12.2109,-0.7578 18.293,0.2773 0.7382,0.125 1.5703,-0.094 2.3281,-0.2539 1.8008,-0.3789 2.9492,-1.3789 2.0391,-3.289 -0.7383,-1.5508 -1.6993,-3.9844 -3.918,-2.3477 -5.082,3.7305 -10.582,1.8906 -15.9219,1.6367 -2.5703,-0.1211 -4.9883,-0.6015 -7.3984,1.0508 m -42.1289,0.039 c -6.793,-5.2227 -14.043,-1.7344 -20.6914,-2.8281 -1.8711,-0.3047 -3.6289,1.9375 -4.75,3.7343 -0.2618,0.4258 0.289,1.4649 0.6484,2.1094 0.1406,0.2461 1.1797,0.3164 1.2109,0.25 1.6797,-4.6172 5.2891,-2.0312 7.711,-1.625 5.3789,0.9023 10.25,-0.4453 15.8711,-1.6406 m -307.1602,8.0078 c 2.4492,1.9141 4.7774,-0.5781 6.4297,0.4414 5.6992,3.543 12.0977,-0.3047 17.9687,2.0039 1.5313,0.6016 5.129,0.4141 4.8907,-3.2969 -0.1914,-3.0781 -2.5703,-2.7851 -4.6602,-2.707 -6.7422,0.2539 -13.4805,0.5352 -20.2109,0.832 -1.8281,0.082 -3.7305,0.1094 -4.418,2.7266 m 395.0703,-15.0859 c -4.2226,0.1484 -3.6719,4.7578 -7,5.3476 -2.1836,0.3828 -2.8125,2.1992 -1.9726,4.2813 0.9218,2.2968 2.8515,3.0976 5.082,2.6914 1.457,-0.2657 3.1484,-2.0977 4.1172,-1.7071 7.0234,2.8203 14.082,-0.1797 21.0703,0.5078 1.043,0.1055 2.1602,-0.2148 2.2812,-1.5507 0.1094,-1.2696 -0.8984,-1.7618 -1.8593,-2.2227 -2.3399,-1.1172 -4.9688,1.5156 -7.3516,-0.793 -4.4805,-4.3398 -8.957,-2.7812 -13.4375,0.6563 -0.3125,-2.4531 -0.6133,-4.7149 -0.9297,-7.2109 m -469.1211,-153.3711 c -1.039,3.5781 -1.4804,7.1601 -1.3906,10.7421 0.1016,4.4454 3.4805,6.3086 7.5,5.0313 4.1992,-1.3398 7.3789,-3.9766 10.9102,-6.3828 5.25,-3.5781 5.5898,-3.0781 3.1211,-10.1211 -3.2813,0.8086 -4.9727,3.7383 -7.3008,5.6641 -4,3.3085 -5.8086,3.3203 -8.711,-0.836 -1.0195,-1.4492 -1.1289,-3.625 -4.1289,-4.0976 m 21.0977,-56.0821 c 1.0703,0.2305 2.3906,0.3711 2.8515,-0.6406 1.3594,-3.0391 0.5821,-6.8398 3.7891,-9.3555 0.7813,-0.6172 -0.8594,-2.125 -2.2695,-2.4218 -3.0899,-0.6485 -6.2188,1.0742 -9.3399,-0.2149 -1.5781,-0.6562 -3.4101,-0.3633 -3.8593,1.4649 -0.4688,1.9218 1.4101,2.6171 2.8515,3.1093 6.5586,2.25 6.5664,2.2149 6.2071,8.2696 -4.168,-0.7266 -2.4297,3.7929 -5.0079,5.3554 -4.3007,-1.5468 -9.0117,-4.7343 -14.6406,-1.5625 1.6602,2.1016 6.1211,3.4102 4.4102,6.3555 -2.1524,3.7227 0.5,2.9688 1.8593,2.5703 3.6719,-1.0703 7.1094,-1.7148 10.3399,1.0274 1.5391,1.3164 2.9609,0.062 4.4219,-0.2891 1.789,-0.4375 3.5703,-1.1094 5.2773,0.2148 0.9922,0.7579 2.1524,2.1211 3.1602,0.4258 0.7304,-1.2226 2.2812,-3.1133 0.8398,-4.2578 -1.8086,-1.4414 -1.6406,-4.8633 -4.7187,-4.7734 -3.7305,0.1054 -4.211,-3.4141 -6.1719,-5.2774 m 783.6406,39.1328 c -1.2578,-2.3359 1.293,-5.9648 -3.5,-7.3086 -5.0391,-1.414 -3.5586,3.9063 -5.8906,4.9493 -0.5781,-0.6719 -1.0391,-1.0118 -1.2188,-1.461 -0.5976,-1.5195 0.4024,-4.332 -2.4492,-4.0547 -3.582,0.3477 -0.3203,3.0508 -0.9609,3.9454 -2.0196,2.8203 -1.3594,4.3125 1.75,4.8906 2.5195,0.4687 4.25,1.8398 5.832,3.7109 1.6172,1.9102 3.8789,1.8399 5.7774,0.7539 2.5429,-1.4453 1.1015,-3.6172 0.5117,-5.5078 7.21088,2.2266 13.55858,1.1484 18.71088,-4.9101 -2.4726,-2.6797 -4.582,-6.3204 -8.9531,-2.5 -0.4883,0.4257 -1.5664,0.3906 -2.3164,0.2578 -2.89058,-0.5118 -4.06248,0.6992 -4.58208,3.5273 -0.25,1.3399 -1.1093,2.9883 -2.7109,3.707 m -761.0898,-32.082 c 1.6797,0.1914 2.9218,1.0938 4,2.3399 3.3711,3.8828 7.3007,3.7812 11.1601,2.3242 0.7227,-3.668 -4.7109,-3.1133 -3.2578,-6.836 0.2695,-0.6875 -1.3008,-1.3437 -1.6719,-0.7695 -2.6093,4.0234 -4.6484,1.3047 -7.0586,-0.2656 -2.5117,-1.6328 -2.6328,-1.4453 -2.9414,3.4297 -1.4609,-0.016 -2.3593,-2.1016 -4.2109,-1.0274 0.09,1.625 1.5117,2.5625 2.582,2.9492 2.2578,0.8204 1.1485,-1.2461 1.3985,-2.1445 m -45.5078,40.1328 c -3.3907,0.8477 -7.6329,-1.3554 -10.6719,2.836 4.5312,0.8281 7.8711,-0.3086 10.7422,-3.0313 -0.711,1.9102 -2.1133,4.1641 1.539,4.4219 1.7696,0.125 4.4492,-0.024 4.5196,-1.9336 0.1289,-2.9727 -2.4883,-2.5195 -4.6016,-2.1563 -0.4688,0.082 -0.9805,-0.1406 -1.5273,-0.1367 m 222.7773,171.1055 c -0.2305,1.2695 0.7109,1.8047 1.5312,2.3711 0.8086,0.5547 1.8399,1.3828 2.6211,0.4297 0.7696,-0.9297 -0.062,-1.9297 -0.8203,-2.6407 -1.1289,-1.0664 -2.3203,-0.7734 -3.4687,0.031 -3.0938,-2.5352 -6.1328,-1.7148 -9.1328,0.1758 -0.1172,0.074 -0.1094,0.6601 0.012,0.75 2.6875,1.8594 5.25,-0.6446 7.9297,-0.3047 0.3984,0.051 0.8789,-0.5234 1.3281,-0.8125 m 635.10138,-134.6179 c 5.4101,0.7969 5.4101,0.7969 6.9492,-3.4375 -2.9492,0.1875 -4.8906,1.8164 -6.7188,3.6602 -1.2617,0.1718 -2.5312,0.2929 -3.7812,0.5429 -0.9297,0.1836 -2.2305,0.2422 -1.9688,1.6953 0.3086,1.711 1.6992,1.5469 2.9492,1.336 2.1485,-0.3633 3.0391,-1.6328 2.5704,-3.7969 M 170.33812,97.375282 c 2.2188,-0.5898 4.2891,-1.6758 6.7617,-0.1719 1.4883,0.9063 4.4492,1.8321 5.1992,1.1211 4.1993,-4.0078 7.5704,-0.4062 10.8204,1.0196 4.0078,1.757798 7.4296,0.3828 10.6406,-1.1367 3.1172,-1.4727 5.1875,-2 7.289,1.3593 1.461,2.335998 3.5079,4.359398 6.0586,0.773498 0.7188,-1.015698 1.9805,-0.984398 2.7891,-0.2149 2.4102,2.2813 5.2031,2.125 8.1797,1.8399 1.7617,-0.1641 3.8203,1.8476 2.5312,2.6289 -4.4492,2.6992 0.3907,4.2109 0.6797,4.0781 3.3399,-1.4961 7.3125,1.207 10.1992,-1.2539 0.6329,-1.7149 -0.4492,-2.2344 -1.2265,-2.8555 -1.0703,-0.8515 -3.6133,-0.6406 -2.5703,-3.0039 0.7695,-1.769498 2.457,-2.843698 4.4687,-2.742198 0.6406,0.031 1.168,1.0899 1.8711,1.339898 1.8672,0.6679 3.8594,0.2656 4.9883,-1.175798 0.9492,-1.2031 -2.2188,-2.1172 -1.1914,-3.9063 0.6523,0.09 1.3711,-0.031 1.6015,0.25 5.3321,6.449298 12.8516,5.828198 19.9415,5.828198 3.9492,0 7.8671,1.5781 11.8281,0.2812 1.8711,-0.6172 4.9297,-0.7109 1.582,-3.699198 -1.3516,-1.1992 0.1289,-1.7188 0.9375,-2.0938 1.2813,-0.5898 3.1914,-0.2265 3.5,-2.2148 -2.0703,-1.9648 -3.6172,-0.207 -5.2578,0.3008 -1.043,0.3164 -2.6211,0.7539 -2.8516,-0.25 -0.8593,-3.9219 -3.5781,-4.2539 -6.2382,-3.2031 -1.043,-1.8399 -0.293,-2.2618 0.2773,-2.7696 1.4531,-1.2695 2.8125,-2.6718 1.6797,-4.75 -1.1992,-2.2109 -2.6602,0.6485 -4.0274,-0.051 -2.3125,-1.1679 -5.2617,-0.1289 -7.332,-1.6601 -0.1992,-2.4414 1.3203,-3.8984 2.6524,-3.6992 6.5195,0.9804 12.8085,-1.8516 19.5898,-0.07 6.1094,1.6093 12.8906,1.9882 19.3398,0.9296 4.711,-0.7695 8.5977,-0.019 12.168,3.1602 1.9102,1.6914 3.6211,2.1406 4.2305,-1.4492 0.5312,-3.1602 2.9687,-1.8516 4.1601,-0.7305 2.961,2.8008 6.0391,2.3711 9.5821,1.5391 9.3476,-2.1797 17.5586,1.2617 25.5781,5.6094 2.5117,1.371 0.4219,4.9218 3.4101,5.871 2.3321,0.3282 1.6797,-3.9492 5.129,-2.9882 -0.7696,4.4375 0.121,8.4687 4.6718,10.4726 2.25,-0.2617 1.9688,-2.6914 1.8203,-3.0586 -2.6406,-6.3554 3.5079,-8.707 5.8086,-12.6953 1.0821,-1.8906 3.961,-0.7617 4.211,1.9688 0.5586,6.2695 1.8398,4.6015 4.75,1.039 1.7695,-2.1679 3.3984,-1.9375 2.3203,1.793 -0.4922,1.6875 1.9687,1.5586 2.8594,0.8281 4.7109,-3.7773 9.6601,-3.789 14.8398,-1.3281 1.7383,0.8203 2.9688,0.75 3.7305,-1.2617 0.3008,-0.7891 -0.031,-2.4297 1.6992,-1.8594 1.0586,0.3398 2.0586,1.3711 1.8008,2.3516 -0.8907,3.3398 0.7383,4.6914 3.5898,5.6562 2.6211,0.8867 3.7813,0.9727 3.6485,-2.5664 -0.129,-3.3633 2.6015,-2.2695 4.0429,-1.1914 4.2266,3.1758 7.3985,3.3594 10.8672,-0.5898 1.2422,-1.4219 1.9219,-1.1993 3.1602,-0.75 1.7304,0.6484 3.4609,1.3007 5.2304,1.8398 1.4922,0.4492 3.4102,1.1797 4.1524,-0.7383 0.6875,-1.8008 -1.9024,-2.1719 -2.6406,-4.332 3.539,-0.4609 7.0898,-0.8906 10.2695,-2.5 3.3789,-1.6992 7.039,-0.1992 10.3711,-1.3399 1.4687,3.25 -2.5625,2.3594 -2.4922,3.7305 -0.07,2.7891 2.082,2.6406 3.2422,3.4492 2.8476,1.9805 7.75,1.1016 8.4375,6.1016 3.5508,0.074 7.2187,-0.9961 10.6015,0.957 l -0.2617,-0.1875 c 0.9297,1.3555 2.5899,3 3.75,2.4571 4.9414,-2.3204 10.6914,-1.1954 16.3203,-3.9258 -3.4609,-2.2813 -6.6601,-0.7774 -9.539,-1.3399 -3.1094,-0.6054 -6.1719,-1.4414 -9.25,-2.1836 l 0.2812,0.1602 c 2.0977,-5.3281 6.9766,-3.8477 10.918,-4.2188 2.5391,-0.2382 5.3594,2.9297 7.6914,-0.6992 0.098,-0.1523 1.1094,-0.031 1.2891,0.2305 0.8711,1.2773 1.1211,4.8906 3.1093,2.6797 1.9922,-2.211 6.3711,-3.082 6.0508,-6.1992 -0.6406,-6.293 3.4492,-4.0703 6.1797,-4.8008 0.8594,2.4883 -3.3906,2.4297 -1.6797,4.8203 1.3516,1.8789 2.8281,2.957 5.3086,1.457 2.7305,-1.6484 5.4609,1.7422 8.3203,0.3203 3.0313,-1.5078 6.8125,-1.289 9.1289,-4.6992 2.5117,2.5899 3.461,5.8399 6.4336,7.211 1.4297,-0.5391 0.5899,-1.6407 0.6602,-2.5586 0.4687,-6.0625 2.0664,-7.4102 7.957,-6.8008 5.8711,0.5976 10.6406,3.1094 13.9024,8.5508 -0.8516,3.6992 -7.6329,0.9687 -7.6016,6.6914 4.4101,-0.01 6.1289,6.1172 11.3789,5.1093 0.7305,-0.1406 1.2031,0.3555 0.8398,0.9532 -2.7773,4.656198 3.211,7.945298 0.7422,13.226498 3.1992,-2.0429 4.8789,-2.9765 4.3594,-6.2031 -0.8086,-5.082 -2,-10.117198 -1.2812,-15.507798 0.5,-3.6992 1.2812,-8.793 -4.8594,-9.8711 -0.7813,-0.1406 -0.8008,-1.2109 -0.461,-2 0.3633,-0.8203 1.1719,-1.5117 1.8321,-1.1289 2.1406,1.2305 5.0508,0.25 6.6601,1.5508 4.6211,3.7187 10.6992,3.4375 15.6289,6.5586 3.8711,2.4492 9.1914,0.25 13.8399,1.5312 1.9297,0.5274 4,0.918 5.9922,1.5078 l -0.023,-0.02 c 0.3203,1.2813 0.7227,2.5195 0.1914,3.8672 -0.4609,1.1406 0.07,2.0547 1.0508,2.6641 2.961,1.8437 17.3985,0.875 21.7813,-1.4805 -1.9219,-1.0586 -3.9024,-1.2852 -5.961,-1.0781 -1.1093,0.1132 -2.6601,1.707 -3.1601,-0.1563 -0.4024,-1.5273 -1.5508,-4.3164 0.7383,-4.875 3.9101,-0.9609 2.8828,-3.3203 2.6523,-5.8203 -0.1211,-1.2813 0.2891,-2.6094 0.4805,-3.9102 0.289,-1.9921 0.7265,-3.5507 3.4687,-2.9414 3.0586,0.6914 6.5195,-3 9.4492,1.0196 0.8711,1.1914 2.3789,-0.1602 3.5899,-0.5899 2.7304,-0.9687 4.8594,-3.25 7.8906,-3.5781 0.4609,-0.051 0.9492,-0.9219 1.2813,-0.832 4.8085,1.1523 9.5898,2.3711 13.8671,-1.5703 0.1016,-0.09 1.6719,1.1015 2.2422,1.9101 2.6992,3.8906 6.4102,3.7422 9.7696,1.7617 6.289,-3.6992 12.6601,-1.1093 18.6796,-0.2109 5.8711,0.8789 11.3204,1.4922 16.8008,-0.8789 3.9102,-1.6914 8.0391,-0.7617 11.7305,-0.1289 4.707,0.7969 8.9687,0.7969 13.7578,0.3086 6.6797,-0.6914 13.6328,-0.1524 20.4805,-0.1797 2.3203,-0.012 4.6094,-0.039 6.9101,-0.1406 3.4414,-0.1407 6.8711,-0.6211 10.6211,0.2109 5.3399,1.1797 11.2188,-0.4219 16.5586,-2.332 1.3594,-0.4805 2.4102,-0.711 3.6602,-0.3086 9.8008,3.1797 19.7304,3.75 29.9804,2.4492 4.3399,-0.5508 8.9102,0.7617 13.379,1.1914 6.5625,0.6094 13.0429,2.4883 19.7031,1.2383 2.6797,-0.5078 4.4765,0.75 6.2578,2.5312 2.5703,2.5391 4.8203,4.7305 8.3789,0.3985 1.8125,-2.2188 4.9727,-2.7891 8.9102,-0.2774 3.8398,2.4375 9.3398,3.0977 14.1796,4.2188 4.8907,1.1289 9.9297,1.75 13.0821,-3.8594 0.789,-1.4023 2.4101,-2.0508 4.1484,-1.1211 3.582,1.8906 7.543,2.5117 11.4414,2.5313 2.1602,0.01 2.3789,1.2382 3.4297,2.3476 3.1484,3.3516 5,3.6328 7.5195,-0.2305 2.1797,-3.3398 4.6719,-3.0195 7.4493,-2.6367 5.4218,0.7266 10.7109,1.8281 16.3398,1.2696 2.5625,-0.2618 6.0508,0.1484 8.2695,3.457 2,2.9805 5.3203,3.2617 7.9414,-0.027 0.8321,-1.039 1.5821,-2.5703 2.9493,-2.4023 7.60148,0.9414 15.55068,0.5508 22.57028,3.8711 1.7695,0.832 2.0507,0.8906 3.4804,0.031 3.0899,-1.8711 6.4414,-2.4218 9.6289,-0.1093 1.6016,1.1484 2.9024,3.0078 4.8204,0.2695 0.3593,-0.5313 1.2929,0.059 1.9218,1.2695 2,3.8477 4.961,6.4024 9.9883,5.418 4.3008,-0.8477 8.832,0.7617 13.1602,-0.8789 1.1601,-0.4414 2.7617,0.2812 3.6015,-1.0781 1.0899,-1.75 1.5391,-4.2422 4.25,-4.0899 2.3985,0.1289 4.4805,1.2578 6.2891,2.8477 -1.7891,4.5156 -4.6484,6.5 -9.7109,6.1719 -5.7188,-0.375 -11.5196,0.2617 -17.2774,0.4726 -1.2812,0.047 -2.8516,-0.1562 -2.8711,1.7852 0,1.789 1.5195,2.3672 2.7578,2.0742 5.1524,-1.2149 8.3125,0.9922 10.461,5.437498 0.2812,0.5937 1.2109,0.875 1.8398,1.3008 1.8828,-4.0313 7.7813,-1.0313 9.2422,-4.894598 1.5781,-4.164 3.1992,-2.707 5.0078,-0.6914 2.3711,2.648498 5.1406,4.445298 8.5899,5.371098 1.5312,0.4102 2.871,1.375 4.1328,-0.4844 0.9882,-1.457 3.0586,-0.9179 3.5,-0.246 4.1093,6.2695 11.0273,4.3593 16.6992,5.8984 4.4805,1.2148 6.5898,3.8242 5.0703,8.3476 -1.2422,3.6641 -1.9922,6.9805 0.2695,10.5704 1.3907,2.1992 2.7305,4.9179 0.1485,7.2304 -2.4102,2.1446 -5.3086,1.6797 -8.1094,0.7891 -2.8711,-0.9141 -8.4297,0.5547 -9.9805,2.7695 -0.4492,0.6328 -0.5,1.2969 0,2.1289 3.2813,5.461 2.6289,6.9336 -3.039,8.1602 -4.5821,0.9883 -9.1914,1.3242 -13.711,3.375 -2.9883,1.3555 -7.6289,2.7617 -11.2187,-0.6524 -1.6211,-1.5273 -4.0391,-1.0078 -6.0391,-1.625 -7.2812,-2.2421 -8.6914,-1.2812 -8.9531,5.9219 -0.039,1.211 0.5,2.8867 -1.1992,3.3789 -2.4297,0.6992 -2.2774,-1.5039 -2.8399,-2.8437 -0.5078,-1.2305 -1.25,-3.1914 -2.3789,-2.8477 -5.3008,1.6367 -7.9687,-2.5039 -11.582,-4.6875 -1.5664,-0.9492 -3.418,-0.9258 -5.3985,-0.289 0.8399,1.4453 1.6797,2.7656 2.379,4.1484 0.4804,0.957 0.8125,2.0781 -0.1993,2.9023 -1,0.8243 -1.789,0.293 -2.6289,-0.5664 -3.332,-3.4492 -3.6211,3.0625 -6.1406,1.9571 -3.9102,-1.7188 3.9688,-4.2227 -0.3516,-6.2149 -1.4765,-0.6797 -2.6875,-1.7305 -4.3398,-0.7422 -1.3594,0.8164 -1.5,1.7735 -0.6172,3.2344 1.2695,2.0977 -0.293,4.0234 -1.8398,4.4102 -4.8516,1.2031 -6.3907,6.2148 -10.4805,8.3554 -2.5313,1.3282 -3.2617,4.2461 -0.1992,6.4688 2.7773,2.0156 3.8984,7.0898 9.5469,3.3594 3.5195,-2.3243 3.9296,2.8203 6.2109,5.4726 -3.8008,0.9414 -6.3399,2.1328 -10.0899,1.1406 -6.4804,-1.7109 -7.121,-0.082 -6,6.668 0.629,3.8047 5.1407,8.2031 -0.3906,12 -0.6797,0.4688 -0.4687,1.707 0.2305,2.0391 5.5898,2.6875 -0.1602,6.0078 1.4922,9.2304 -3.9024,-0.7461 -4.8321,-5.7734 -8.85158,-3.8554 0.9883,-0.9571 2.0781,-2.1563 0.1797,-2.9532 -1.6719,-0.6953 -3.6211,-0.7734 -5.3594,0.4727 1.1094,2.4258 3.3907,2.0547 5.3907,2.3242 1.6406,8.5195 1.6406,8.461 9.59758,7.7305 1.8125,-0.1641 3.7109,-0.012 5.4805,0.3945 1.8594,0.4219 3.1523,0.1953 3.7109,-1.7187 0.4492,-1.5469 -0.3789,-2.7657 -1.7812,-2.9766 -5.4375,-0.8125 -0.9297,-6.332 -4,-8.1875 2.4023,-1.9648 0.1992,-6.4766 4.9414,-7.7578 1.7578,-0.4766 5.25,-1.3672 6.5195,-4.7734 0.7109,-1.9219 4.2617,-2.6133 4.5391,-5.5157 3.9609,0.918 1.7422,6.4532 7.2695,5.668 -0.047,0.019 -0.1484,-1.1211 -0.25,-2.082 -0.5898,-5.2735 -0.5977,-5.6289 4.2812,-5.2657 3.5,0.2539 6.8711,1.461 10.4883,0.4883 1.4219,-0.3828 2.3008,0.8906 2.5117,2.4102 0.3399,2.4609 -0.8203,2.1797 -2.75,2.082 -2.4609,-0.125 -3.371,2.9024 -6.7109,4.0352 5.5625,2.207 10.3828,2.1445 15.1211,2.5195 -2.2695,10.6875 -0.7695,14.4531 6.7695,17.4414 -3.039,2.3047 -6.1289,3.9961 -9.5195,5.1016 -0.6016,3.0937 3.4492,2.2343 3.4805,5.375 -1.5703,3.0507 -6.9688,2.2617 -8.0313,6.5547 -1.2304,-0.7266 -1.9101,-0.8868 -2.0703,-1.2618 -0.9297,-2.1875 -0.09,-5.6562 -4.0195,-5.6093 -3.1406,0.039 -5.3594,0.9609 -5.9375,4.7812 -0.3321,2.168 -2.3633,3.4297 -4.7813,1.293 -0.7109,-0.6172 -1.9492,-0.6992 -2.9804,-0.8633 -4.8204,-0.7734 -6.2618,0.1797 -7.6797,4.9492 -1.6211,-0.1133 -0.9102,-1.4531 -1.25,-2.2695 -1.1407,-2.711 -4.0703,-2.8711 -4.3594,-0.6055 -0.5703,4.3281 -2.9727,3.5977 -5.4609,3.1836 -5.75,-0.9648 -5.7305,-1.0469 -13.69138,1.625 4.97258,3.3359 10.81248,-0.012 15.28118,2.4453 0.2891,1.8242 -0.7187,2.3399 -1.7109,2.6641 -2.6993,0.8867 -2.5391,3.4101 -2.211,5.1328 0.4219,2.2227 2.9414,1.8477 4.7227,1.8516 2.8476,0 5.5898,-0.7735 8.5781,0.3086 2.4102,0.8671 4.9219,0.707 4.082,4.3984 -0.4921,2.1484 1.5977,1.6719 2.6094,2.043 2.211,0.8086 4.6211,1.1796 5.5899,3.8125 -1.0391,2.0898 -2.961,1.6015 -3.9297,0.6132 -3.5586,-3.6289 -5.4805,1.6758 -8.4219,1.2969 -2.918,-0.3789 -4.2305,-5.543 -8.7383,-2.25 3.5781,2.0586 2.8789,8.2891 9.0391,7.6836 1.039,-0.1016 0.789,0.8438 -0.211,1.8672 -2.0976,2.1602 -1.2695,4.7344 1.3321,4.3789 9.3906,-1.2812 17.5,6.418 27.4492,3 3.8516,-1.3242 9.6719,-0.027 12.0117,5.4336 0.5977,0.9687 1.1992,1.9531 1.7969,2.9375 0.6523,1.5273 0.082,2.7852 -1.3985,3 -3.5585,0.5195 -6.9179,1.3789 -10.8007,0.4102 -8.6875,-2.1719 -10.9805,-0.9649 -14.9297,5.3437 -1.211,1.9297 -1.4297,4.0469 -0.3399,5.9883 1.0118,1.7812 2.6016,1.082 4.1797,0.5234 2.5508,-0.9023 3.9102,0.5664 4.6914,2.8164 l 0.1485,-0.3398 c -1.3086,1.3672 -3.9297,1.8515 -3.1094,4.7344 2.1094,1.1992 4.5117,0.6445 6.7305,0.6562 3.9492,0.02 2.1679,-2.3086 1.3203,-4.1211 l -0.1914,0.2656 c 1.4218,0.8946 4.5312,-4.4687 4.6406,1.2461 0.059,3.3086 2.3516,3.7657 4.8906,3.8321 4.1602,0.1054 8.3203,0.1484 13.0586,0.2265 -5.6289,3.6953 -5.6289,3.6953 -19.5195,4.6524 1.8515,5.1289 1.8515,5.1289 7.8008,2.957 0.4804,2.875 -0.4805,6.1484 2.4414,7.9023 -2.043,2.0196 -3.793,0.8243 -4.8907,0.3125 -2.6914,-1.246 -4.5117,-1.8007 -6.3828,1.3672 -1.2187,2.0664 -3.7695,2.5586 -6.3476,2.4219 -6.7813,-0.3555 -14.0508,1.0391 -20.2305,-0.1875 -7.4609,-1.4844 -14.9102,2.5391 -21.9492,-1.3242 -2.5625,-1.4102 -4.62888,1.2851 -7.40238,1.3164 -9.7695,0.1055 -19.4101,-1.7305 -29.1289,-1.4609 -6.5507,0.1836 -13.0781,-1.6563 -19.6289,-0.051 -0.9922,0.2422 -2.1914,0.2695 -3.1406,-0.059 -11.4219,-4.0235 -23.6797,0.664 -35.0781,-3.4024 -3.8125,3.5821 -7.6719,1.3086 -11.6133,0.2227 -2.4492,-0.6719 -4.7383,0.5781 -6.707,1.9102 -8.5625,5.7929 -16.9922,5.7695 -26.4727,1.5234 -4.3476,-1.9492 -9.7187,-5.0117 -15.3398,-1.4453 -1.5391,0.9765 -4.8985,1.289 -6.0274,0.3047 -4.9101,-4.2461 -10.6015,-0.6368 -15.6914,-2.2188 -3.4805,-1.082 -3.0312,2.2891 -4.4609,5.332 -0.9688,-5.5468 -5.6406,-6.7617 -8.0977,-10.1289 -1.8398,-2.5078 -4.9726,-1.1914 -5.0312,0.2266 -0.2617,6.0078 -2.1094,2.2539 -4.9102,1.8828 -6.3398,-0.8359 -12.6719,-2.7461 -19.8594,-1.3437 -0.4101,0.4375 0.6172,1.832 0.1797,3.0781 -0.5195,1.4922 -2.2812,1.3672 -2.8906,2.0586 -1.9492,2.2461 -2.3984,-8.2422 -4.9102,-0.3828 -0.6406,2.0078 -4.7109,-1.875 -7.3007,0.031 -0.8086,0.5899 -1.8399,1.0899 -2.9493,0.4766 -0.7304,-0.5703 -0.6289,-1.2461 -0.3203,-2.0469 0.6719,-1.7851 1.3711,-3.9766 -1.1601,-4.5664 -3.1992,-0.7422 -2.1992,1.8516 -2.2696,3.5586 -0.051,1.0977 -0.5781,2.0508 -1.7812,2.3281 -1.2891,0.3008 -1.7969,-0.6484 -2.3477,-1.5664 -0.539,-0.8945 -1.2109,-1.7148 -1.7421,-2.6133 -0.7696,-1.289 -1.25,-3.5 -3.2071,-2.5547 -2.0234,0.9766 -5.2031,1.2188 -5.4219,4.0118 -0.1093,1.4531 1.0196,3.3789 2.9883,4.2461 2.1524,0.9414 4.1407,2.25 6.4102,3.5156 -2.457,4.125 -5.9102,5.1523 -10.8985,4.8476 -9.0312,-0.5507 -18.1406,-0.1132 -27.1914,-0.074 -3.4492,0.016 -7.2578,2.2696 -11.9882,2.2735 6.8086,4.6484 15.4804,0.5703 20.9179,6.8007 -4.6093,0.6016 -10.0078,0.3164 -12.957,2.8477 -5.7227,4.8984 -9.8828,0.2734 -14.6094,-0.6563 -1.1836,-0.2304 -2.8398,-1.7226 -3.5117,-0.6757 -2.7812,4.3711 -7.1211,1.5234 -10.5508,2.6328 -2.6289,0.8515 -5.1406,0.3437 -7.4687,-1.4024 -1.7305,-1.2929 -3.8907,-0.8007 -5.9297,-0.9961 -7.1406,-0.6914 -14.0703,-0.5039 -20.9492,1.6563 -2.5899,0.8125 -4.7227,-1.4492 -6.2735,-2.5625 -3.5586,-2.5508 -6.9492,-2.0352 -9.457,0.098 -5.3398,4.5313 -10.7305,2.918 -16.3516,1.504 -4.789,-1.1993 -9.5898,-2.375 -14.4179,-3.379 -1.793,-0.371 -3.9922,-0.8867 -5.4922,-0.1992 -5.961,2.7383 -12.5781,-0.7304 -17.9297,1.375 -6.3984,2.5196 -12.0508,-0.207 -17.9492,0.2852 -6.1602,0.5117 -12.2422,2.0312 -18.3086,3.3203 -5.2031,1.0977 -10.4414,0 -15.6133,0.066 -6.4805,0.082 -13.0781,0.8516 -19.418,0.3008 -9.2812,-0.8047 -18.4804,0.4375 -27.7617,-0.3438 -7.1406,-0.6054 -14.6172,0.074 -21.8789,0.7969 -4.2812,0.4258 -8.1289,0.3008 -12.3086,-0.9297 -3.7305,-1.1015 -8.2422,-4.1445 -11.7617,1.0508 -0.3789,0.5625 -2.0078,0.3516 -3.0586,0.375 -10.5117,0.2383 -21.0703,0.039 -31.5313,0.9258 -3.2304,0.2773 -3.121,-3.9766 -6.3203,-2.7227 -3.2695,1.2813 -7.1601,0.3555 -10.2382,2.8242 -1.7032,1.3633 -4.1211,1.75 -6.1016,1.2071 -12.2578,-3.3672 -24.4688,0.8554 -36.6914,0.016 -1.5781,-0.1094 -3.6289,0.7109 -4.6797,-0.016 -5.75,-3.9883 -11.2383,-1.6953 -17.1367,-0.4571 -3.961,0.8321 -8.9414,3.8516 -12.5235,-1.4062 -4.3867,2.3789 -9.8398,-0.8164 -14.1484,2.8398 -1.2812,1.0899 -2.9805,0.9649 -1.6719,-1.9179 0.7032,-1.5508 -1.6484,-2.1524 -2.6562,-1.3047 -6.3125,5.2656 -13.5703,2.9258 -20.5313,2.7422 -1.8515,-0.047 -3.6914,-0.625 -5.3125,0.6445 -2.1679,1.7031 -4.5078,1.043 -6.8398,0.6133 -1.0391,-0.1953 -2.2578,-0.8985 -3.0781,-0.5742 -5.7305,2.2656 -11.6211,-0.5938 -17.4414,0.8203 -7.5391,1.8242 -14.5977,-0.5078 -21.3985,-4.7461 -1.2422,3.3398 -0.8008,7.6523 -5.3594,7.0586 -2.9414,-0.3828 -4.8515,-2.8594 -4.6796,-5.5977 0.2382,-3.6601 2.7382,-5.6054 7.9296,-4.5312 -3.3125,-3.2383 -6.4609,-2.3125 -9.0703,-2.9688 -8.3125,-2.0859 -9.0508,-3.4219 -5.3203,-12.5039 1.5586,2.3985 3.3203,3.9844 2.8203,7.0156 -0.4804,2.918 1.8008,3.6407 4.0508,3.4688 2.2578,-0.1719 3.5469,-1.8281 2.1172,-3.832 -1.3086,-1.8282 -0.09,-2.336 0.8906,-3.0118 0.8516,-0.5859 1.8906,-1.0742 2.8906,-1.2031 2.0313,-0.2695 4.1407,-0.9062 3.5704,-3.1836 -0.7383,-2.9531 -3.1407,-0.012 -4.6485,-0.6875 -0.4336,-0.1953 -0.7226,-0.6679 -1.1133,-1.039 0.1524,-0.3164 0.3125,-1.086 0.543,-1.1055 10.2891,-1.0469 20.3281,-3.5274 30.5078,-5.1484 6.2696,-0.9961 12.6211,-0.8321 18.9492,-1.1094 11.75,-0.5156 23.5899,0.1289 35.2227,-2.3125 2.2578,-0.4766 4.7891,-0.074 5.8594,-3.1172 0.3008,-0.8242 2.4687,-1.6836 3.2304,-0.019 1.918,4.2031 6.2188,3.2421 8.9493,3.2265 7.539,-0.047 15.0507,-1.1289 22.6211,0.07 2.8085,0.4453 4.4687,-2.2695 6.7187,-2.6757 0.25,-1.4571 -0.7187,-1.8047 -0.9805,-2.4649 -3.1289,-8.0703 -10.0703,-8.2656 -16.8593,-7.6601 -7.1289,0.6367 -14.1914,0.1445 -21.2305,-0.4219 -14.3711,-1.1602 -28.6797,-2.6563 -43.168,-2.293 -18.5312,0.4688 -37.0898,0.6953 -55.6133,0.1211 -11.7265,-0.3633 -23.4492,0.5352 -35.2187,-0.7461 -5,-0.5391 -10.4414,-0.6406 -15.5703,-0.1055 -4.6211,0.4805 -4.25,-1.9414 -3.8594,-4.8711 -2.6016,0.1368 -3.9219,1.9375 -5.6289,3.0391 -0.9414,0.6016 -2.3125,0.8281 -2.9297,-0.031 -1.3203,-1.8555 0.5,-1.9961 1.6602,-2.3711 1.2187,-0.3907 1.9179,-1.3243 1.1093,-2.3086 -3.4804,-4.2461 0.3086,-5.5547 2.8985,-7.0352 4.3008,-2.4648 9.039,-3.8164 13.8203,-5.043 0.8203,2.6563 -1.3906,2.8086 -2.2695,3.879 -0.7696,0.9335 -0.9805,1.9804 -0.082,2.7773 0.5,0.4375 1.9024,0.75 2.1407,0.4727 4.6796,-5.4649 9.1523,0.5195 13.6914,0.1875 -0.7383,1.1289 -2.9297,1.5195 -2.0704,3.3906 0.5313,1.1367 1.7188,0.7578 2.5118,0.039 1.5078,-1.3828 1.2773,-2.5312 -0.6328,-3.3086 0.2812,-0.9765 0.2929,-2.5234 0.9101,-2.8203 1.3125,-0.6328 3.5117,1.0703 3.9102,-2.0547 0.4023,-3.1484 -2.6797,-2.3085 -3.6602,-3.6796 1.0899,-2.5743 4.2109,0.5703 5.3203,-1.9961 -0.2773,-0.3907 -0.5586,-1.086 -0.8008,-1.0703 -3.5898,0.2109 -6.9882,0.3906 -7.0976,-4.7461 -0.031,-1.4102 -1.5508,-1.8438 -2.7617,-2.4688 -3.1485,-1.6289 -8.2891,-0.25 -8.9297,-5.9219 -0.1094,-0.8945 -1.8906,0.051 -2.8711,-0.078 -6.8164,-0.918 -9.2578,-3.75 -9.1992,-10.5625 0.051,-5.5391 0.051,-5.5391 -5.0078,-7.8867 2.6093,-0.8008 3.7304,-3.457 6.3398,-4.4375 5.668,-2.1328 5.6406,-2.8984 0.6602,-6.5742 -0.4102,-0.3086 -0.8829,-0.5547 -2.1407,-1.3321 5.5586,-1.5976 6.6289,-6.9296 10.3282,-10.1679 5.2226,-4.5625 10.75,-5.9805 16.6093,-3.5352 3.0938,1.2891 5.4219,-0.6172 8.1914,0.09 1.3399,0.3398 3.711,-1.0313 3.6914,-3.2657 -0.02,-1.8945 0.5782,-4.4882 -2.7304,-4.664 -2.1407,-0.1172 -2.8399,-1.6328 -1.9922,-3.2657 2.1211,-4.0585 -0.957,-8.3007 0.7305,-12.3359 0.7929,-1.8711 -0.5079,-3.0937 -1.9883,-3.7734 -2.1211,-0.9766 -4.3907,-1.6524 -6.6016,-2.4571 7.9922,1.211 4.3711,-7.7539 9.7695,-9.414 -3.8086,-1.3828 -6.4375,-2.4649 -9.1484,-3.2774 -1.7617,-0.5312 -4.75,0.4414 -4.5391,1.3047 0.7188,2.9492 -0.8203,5.4961 -0.6523,8.0977 0.1523,2.0781 3.6133,1.6914 4.8516,3.4922 -3.1094,1.2851 -6.1094,1.375 -8.961,-0.7422 -1.4804,-1.1016 -3.2695,-1.711 -1.2695,-4.1875 1.1289,-1.3985 -1.0586,-2.6524 -1.9609,-2.1602 -5.9688,3.2696 -6.6094,-2.3281 -8.9102,-5.0898 2.9805,0.582 5.9414,1.1406 10,1.9062 -3.6172,-4.8554 -6.8672,-2.2617 -9.8867,-1.8359 -3.5508,-1.3008 -1.293,-4.4727 -1.1016,-5.9766 1.0195,-7.9218 1.0781,-7.8437 -0.2812,-15.8593 -0.2383,-1.4649 4.2695,-3.2188 0.25,-5.375 3.5507,-2.1524 -0.07,-7.3243 4.082,-9.4336 1.9805,-1.0039 2.6875,-2.7383 1.1094,-5.2539 -0.6602,-1.0547 0.5781,-3.4375 1.2109,-5.125 1.1992,-3.2461 -0.3008,-6.3282 -0.6797,-9.793 3.25,3.039 5.8594,8.7461 5.0977,11.6406 -0.4102,1.5195 0.1094,1.9766 1.25,2.0234 2.8515,0.1133 5.1406,-0.6718 5.2617,-4.1289 0.039,-1.0507 0.01,-2.1093 0.1484,-3.1484 0.3203,-2.4336 3.9688,-4.2734 1.7305,-7.0156 -1.5781,-1.9414 -4.5312,-0.3086 -6.7305,-1.5703 -2.9492,-1.6836 -6.7578,0.023 -10.289,-2.418 2,-2.1406 -0.031,-5.2539 1.7383,-7.6094 0.7226,-0.1601 1.4609,-0.539 1.6914,-0.3398 5.5,4.8047 7.9609,4.4219 7.8789,-2.3985 -0.039,-3.7812 2.2226,-5.75 2.7109,-8.726498 z m 0,0"
     id="path270" />
</svg>
