<?xml version="1.0" encoding="UTF-8" standalone="no"?>
<svg
   width="1200"
   height="400"
   viewBox="0 0 1200 400"
   version="1.1"
   id="svg728"
   xmlns="http://www.w3.org/2000/svg"
   xmlns:svg="http://www.w3.org/2000/svg">
  <defs
     id="defs728" />
  <path
     fill-rule="evenodd"
     fill="#000000"
     fill-opacity="1"
     d="m 187.68558,115.95285 c -0.2656,-0.3555 -0.5429,-1.0078 -0.7773,-0.9922 -0.9102,0.059 -1.2344,0.8125 -1.2695,1.6211 -0.019,0.4609 0.1757,0.9375 0.2695,1.4101 1.0586,-0.2773 1.4219,-1.1562 1.7773,-2.039 m 84.9922,1.0234 c 0.4102,-0.207 0.8203,-0.418 1.2305,-0.625 -0.2383,-0.3945 -0.4024,-1.0312 -0.7305,-1.1328 -0.8086,-0.25 -1.4609,0.1953 -1.5429,1.0508 -0.019,0.1992 0.6757,0.4687 1.0429,0.707 m 462.6836,202.957 c -0.8086,0.012 -1.5976,0.3203 -1.6093,1.1563 0,1.1953 0.9179,1.789 2.0195,1.8711 0.3711,0.023 1.082,-0.4453 1.1094,-0.7383 0.1015,-1.0898 -0.3907,-1.9492 -1.5196,-2.2891 m -490.7265,-187.6757 c -1.2188,0.051 -1.8165,0.6367 -1.9375,1.4023 -0.2696,1.6797 1.1953,1.3516 2.0742,1.4805 0.7851,0.1093 1.5703,-0.3672 1.625,-1.2149 0.09,-1.4023 -1.0664,-1.5429 -1.7617,-1.6679 m 573.0351,175.4882 c -0.3867,-0.7422 -1.039,-1.1406 -1.8281,-0.9218 -1.1094,0.3086 -1.8008,1.0781 -1.1992,2.2343 0.3984,0.793 1.3281,0.7071 2.0586,0.4297 0.7617,-0.2812 1.2695,-0.8125 0.9687,-1.7422 m 204.01172,-109.1797 c -0.4414,-0.3437 -0.8085,-0.8828 -1.2382,-0.9257 -1.3711,-0.1328 -3.8399,-0.5469 -3.2305,1.3828 0.4687,1.4922 3.0781,1.4961 4.4687,-0.4571 m -227.28122,109.5665 c -0.1172,-0.2071 -0.2383,-0.4141 -0.3594,-0.6211 0,0.2382 0.012,0.4804 0,0.7187 -0.039,0.7461 0.1914,0.9922 0.5117,0.5938 0.6797,-0.8125 0.059,0.3476 -0.1523,-0.6914 m 191.2422,-201.5821 c -0.2617,-0.414 -0.4297,-0.9844 -0.8125,-1.2148 -0.7188,-0.4375 -1.5469,-0.4375 -2,0.4375 -0.2774,0.5547 0.043,1.0156 0.6523,1.2226 0.8008,0.2735 1.5313,0.1602 2.1602,-0.4453 m 72.80862,92.2422 c -0.4297,-0.7734 -1.1094,-0.9453 -1.7696,-0.4922 -0.2812,0.1992 -0.5,0.9258 -0.3593,1.2383 0.3281,0.7188 1.0586,1.0391 1.7578,0.5117 0.2812,-0.2148 0.2617,-0.832 0.3711,-1.2578 m -771.99222,125.207 c -0.8008,0.024 -1.5586,0.2813 -1.5547,1.1719 0,0.8711 0.7461,1.3164 1.543,1.4531 0.8085,0.1329 1.5585,-0.1523 1.5,-1.082 -0.047,-0.8008 -0.6485,-1.3633 -1.4883,-1.543 m -3.0196,-4.3554 c -0.414,-0.4727 -0.7304,-1.0899 -0.9804,-1.0664 -0.836,0.086 -1.418,0.7187 -1.4336,1.5507 -0.016,0.7696 0.3633,1.6836 1.3242,1.2461 0.5352,-0.2421 0.7578,-1.164 1.0898,-1.7304 m 646.4922,-38.5196 c -0.9296,0.25 -1.289,0.9649 -1.0703,1.7696 0.09,0.3359 0.8086,0.6328 1.2813,0.6914 0.8008,0.1054 1.5976,-0.1602 1.4492,-1.1719 -0.1406,-0.8203 -0.8086,-1.2539 -1.6602,-1.2891 m -675.7968,-92.957 c 0.8984,0.1875 1.6835,-0.1914 1.8125,-0.9726 0.1992,-1.1954 -0.5782,-1.9922 -1.7696,-1.9297 -0.6836,0.035 -1.8594,0.5195 -1.9062,0.9101 -0.1407,1.1602 0.8125,1.75 1.8633,1.9922 m 152.6875,114.1094 c -0.5899,-0.6914 -1.3516,-0.5899 -1.9805,-0.211 -0.3008,0.1836 -0.5898,0.9571 -0.4414,1.2149 0.4414,0.793 1.2617,0.6211 1.8633,0.1953 0.3086,-0.2227 0.3789,-0.793 0.5586,-1.1992 m -167.3946,-100.1758 c -0.6211,0.2891 -1.6367,0.4297 -1.0859,1.4141 0.3125,0.5625 1.0469,1.0742 1.6875,1.2304 0.7383,0.1797 1.4765,-0.3515 1.4765,-1.1797 0,-1.3203 -1.0195,-1.4765 -2.0781,-1.4648 m 639.7539,104.6289 c -0.2812,-1.5586 -1.3906,-1.0547 -2.3203,-0.9766 -1.0586,0.086 -2.0586,0.418 -2.0312,1.6563 0.031,1.1719 1.043,1.8789 2.0312,1.7891 1.3086,-0.1211 2.1797,-1.0664 2.3203,-2.4688 m -96.3593,-2.6406 c -0.6602,0.8633 -1.1914,1.3906 -1.5117,2.0273 -0.3985,0.8164 -0.1602,1.5586 0.7304,1.9453 0.7891,0.3399 1.711,0.3594 1.711,-0.6836 0,-0.9843 -0.5313,-1.9687 -0.9297,-3.289 m -648.2071,-13.2774 c -0.3476,-0.5664 -0.6797,-1.7656 -1.4414,-2.1757 -0.9922,-0.5391 -1.1367,0.4648 -1.0547,1.3046 0.098,0.9922 -0.2461,2.254 1.0274,2.6329 0.8789,0.2617 1.3593,-0.461 1.4687,-1.7618 m 109.0274,-66.5156 c 0.07,-1.3437 -0.7852,-1.3437 -1.5703,-1.2969 -0.8438,0.047 -1.5704,0.5079 -1.543,1.3946 0.039,1.2773 1.0742,1.7422 2.1289,1.6093 0.9141,-0.1132 0.8555,-1.1367 0.9844,-1.707 m 85.0586,-91.3281 c 1.2695,-0.1875 2.0117,-1.1445 2.3515,-2.3945 0.211,-0.7579 -0.1914,-1.5391 -1,-1.6055 -1.5312,-0.125 -2.1797,1.0117 -2.4922,2.2695 -0.1796,0.7305 0.1602,1.4024 1.1407,1.7305 m 454.1719,-35.664099 c -0.2422,-1.4218 -1.461,-1.125 -2.4024,-1.2617 -0.8672,-0.1289 -1.6289,0.2344 -1.4883,1.168 0.168,1.2578 1.2578,1.5312 2.3477,1.5508 0.9219,0.019 1.3906,-0.5352 1.543,-1.4571 M 267.09578,261.71845 c 1.3047,-0.094 1.7305,-1.625 2.25,-2.5781 0.5937,-1.0938 -0.8477,-0.6719 -1.332,-0.8243 -1.2579,-0.3945 -2,0.4219 -2.336,1.504 -0.2695,0.871 0.3008,1.4296 1.418,1.8984 m 634.457,-72.5938 c -2.1093,-0.1406 -4.5,-1.8359 -6.5117,0.6719 2.8789,2.3633 4.4922,-0.3203 6.5117,-0.6719 m 91.3789,-81.0234 c 0.5196,-0.168 1.0196,-0.3203 1.5,-0.4766 -0.8085,-1.7539 -2.4687,-1.6836 -4,-1.75 -0.2695,-0.012 -0.871,0.7422 -0.8007,0.9727 0.5703,1.7383 2.1406,1.0273 3.3007,1.2539 m -610.4609,20.2734 c -0.5586,-1.1367 -1.6992,-1.0546 -2.6289,-1.3007 -0.8789,-0.2344 -2.1992,-1.0391 -2.5391,0.4921 -0.2421,1.1211 0.8789,1.9375 1.8789,2.25 1.4102,0.4375 2.5118,-0.2421 3.2891,-1.4414 m 284.3711,197.211 c 0.9414,-0.01 1.4219,-0.6211 1.5586,-1.4102 0.3008,-1.7304 -1.0469,-2.289 -2.2773,-2.5195 -1.0196,-0.1875 -2.2032,0.3086 -1.9415,1.668 0.2618,1.3046 1.1407,2.2578 2.6602,2.2617 m -397.1563,-201.6211 c -0.7773,0.2812 -2.1953,0.09 -1.5586,1.6836 0.3868,0.9765 1.2149,1.6289 2.3555,1.4101 1.0156,-0.1914 2.0781,-0.664 1.7266,-1.9257 -0.3047,-1.0977 -1.4649,-1.1172 -2.5235,-1.168 m 369.9063,-20.2461 c 2.6992,-0.4297 4.3789,0.543 5.8789,-1.0078 0.543,-0.5625 0.582,-1.3321 -0.4492,-2.4922 -0.9492,1.6562 -3.1406,1.0898 -5.4297,3.5 m -408.2461,56.3242 c -0.2109,-1.6211 -1.3945,-1.9453 -2.7344,-1.9687 -0.7344,-0.016 -1.789,0.164 -1.7265,0.9336 0.1445,1.746 1.3984,2.6523 3.125,2.6132 0.8281,-0.02 1.3046,-0.6953 1.3359,-1.5781 M 86.896576,118.26145 c -0.9336,0.375 -1.3242,1.0586 -1.1289,1.8945 0.332,1.4258 1.3086,2.2891 2.7695,2.3867 0.8203,0.055 1.668,-0.4531 1.4375,-1.3359 -0.4063,-1.5625 -1.2813,-2.8516 -3.0781,-2.9453 m 690.285104,172.8164 c 0.2188,-1.3125 -0.3789,-2.1602 -1.6093,-1.6211 -1.0821,0.4687 -2.9102,0.4804 -3.0196,1.8867 -0.082,1.1875 1.0391,2.4961 2.2891,2.7461 2.4102,0.4765 1.9609,-1.6797 2.3398,-3.0117 m 114.75,17.0273 c -0.8007,0.4883 -0.8085,1.2422 -0.6796,1.9766 0.25,1.3828 0.9609,2.4883 2.5,2.3711 1.3007,-0.098 1.7382,-1.125 1.1796,-2.2227 -0.6015,-1.1758 -1.6914,-1.8906 -3,-2.125 m 130.35942,-95.6758 c -2.9492,0.5117 -5.9179,-1.3593 -10.2695,0.9102 4.6094,1.1797 7.5508,1.3398 10.2695,-0.9102 m -726.57422,34.9375 c -0.125,-0.8515 -0.3047,-1.7343 -1.2774,-1.6093 -1.6328,0.2109 -3.7148,0.066 -4.0742,2.2343 -0.1445,0.8594 0.9727,1.8477 2.0508,1.836 1.6328,-0.016 2.7461,-0.9766 3.3008,-2.461 M 824.30278,93.753551 c -0.4804,-1.3437 -1.4726,-1.3515 -2.4804,-1.1679 -1.9219,0.3554 -2.211,1.875 -2.1016,3.4219 0.02,0.2851 1.2813,0.7656 1.9024,0.6718 1.6289,-0.2539 2.6992,-1.2148 2.6796,-2.9258 m -117.8906,-3.3906 c -0.9492,2.336 -1.6797,3.9219 -2.2422,5.5586 -0.3984,1.1758 0.25,2.0586 1.3516,2.332 1.5117,0.379 1.6406,-0.8125 1.5703,-1.8437 -0.1211,-1.75 -0.3906,-3.4922 -0.6797,-6.0469 M 404.39268,326.27705 c -0.5313,-1.6328 -1.8711,-2.1992 -3.4805,-2 -1.1289,0.1406 -1.9414,1.2539 -1.6094,2.164 0.6407,1.7149 2.4805,1.3907 3.918,1.4727 0.8008,0.047 1.3008,-0.6211 1.1719,-1.6367 m 572.5898,-32.582 c -2.6992,-1.5469 -4.6992,-3.6407 -7.6718,-1.5079 -0.1993,0.1485 -0.168,1.1289 0.082,1.336 2.2109,1.8398 4.5781,1.8164 7.5898,0.1719 m -266.9804,14.5468 c 0.3281,-1.3164 -0.4493,-1.9726 -1.5118,-2.3242 -1.3593,-0.4531 -2.6093,-0.1328 -3.4101,1.125 -0.5274,0.8359 -0.078,1.5195 0.7812,1.7813 1.4414,0.4375 3,1.3398 4.1407,-0.5821 m -10.2696,-1.375 c -1.289,0.1719 -2.8711,0.5 -2.8203,1.9492 0.051,1.2422 1.4883,1.9727 2.8008,2.1329 1.6094,0.1992 2.418,-1.1602 2.5703,-2.2657 0.2383,-1.6406 -1.1211,-1.9843 -2.5508,-1.8164 m -361.6406,22.0313 c -0.8398,-1.3985 -1.1289,-3.5625 -3.6406,-3.3047 -0.8594,0.09 -1.5391,0.6914 -1.4805,1.5703 0.1523,2.2344 1.582,3.2227 3.6914,3.2383 0.7891,0.01 1.5313,-0.3125 1.4297,-1.5039 m -110.1055,-15.211 c 3.8789,0.7071 6.7617,1.0235 9.5117,-0.5195 -2.8906,-0.4726 -5.7929,-1.1133 -9.5117,0.5195 m -124.6484,-87.0429 c 4.8945,-2.2227 4.2031,-6.2032 4.4492,-9.7461 -1.375,3.0117 -2.7539,6.0234 -4.4492,9.7461 m 49.7812,67.039 c 3.6524,2.4414 3.6524,2.4414 6.3907,-0.6679 -2.25,-0.8789 -4.3438,-0.9141 -6.3907,0.6679 m 774.1641,-34.1445 c 0.078,-1.4102 -0.6523,-2.0469 -1.8125,-2.1445 -1.5195,-0.125 -3.5,-0.4258 -4.2187,1.0312 -0.6211,1.2461 0.5703,2.4453 2.1484,2.3086 1.3711,-0.1133 3.2031,0.8399 3.8828,-1.1953 m 2.1094,29.9219 c 1.918,0.6679 3.6289,0.8437 5.289,1.5742 1,0.4375 2.0391,-0.2656 1.9102,-1.5508 -0.09,-1.039 -0.7891,-2.1797 -1.8906,-1.9414 -1.8203,0.3984 -3.5391,1.2539 -5.3086,1.918 m -622.1485,40.2617 c 1.1914,-0.2852 1.7735,-1.0781 1.4727,-2.2383 -0.336,-1.3125 -1.043,-2.4531 -2.6758,-2.1328 -1.3711,0.2695 -2.4961,1.0078 -1.9023,2.625 0.4843,1.332 1.6953,1.8242 3.1054,1.7461 m -24.9726,-88.1328 c -5.5157,1.6601 -5.5157,1.6601 -3.1914,5.9258 2.3203,-1.2774 2.2304,-3.6641 3.1914,-5.9258 m 567.5898,-122.7227 c -0.078,-1.0117 -0.4297,-1.9453 -1.1914,-1.8867 -2.6172,0.2109 -3.1562,2.2188 -3.3398,4.3945 -0.066,0.8047 0.3008,1.7891 1.043,1.6875 2.4492,-0.3398 3.289,-2.1718 3.4882,-4.1953 m 219.46102,83.5664 c 1.8203,-0.4414 3.0586,-1.6132 3.4883,-3.5312 0.012,-0.059 -1.25,-0.5703 -1.9297,-0.5938 -1.7578,-0.062 -3.0274,0.6641 -3.0703,2.625 -0.02,0.8399 0.4609,1.4414 1.5117,1.5 m -835.58992,80.418 c -2.4648,1.3477 -5.1797,1.9531 -3.6992,5.25 0.4883,1.082 1.4726,1.4492 2.5937,0.9219 2.6563,-1.2461 1.6914,-3.3555 1.1055,-6.1719 m 94.0899,35.1016 c -2.4102,1.7734 1.1601,5.1484 -2.6914,6.2773 -1.3907,0.4063 -0.2383,2.3477 1,2.8789 1.3203,0.5625 2.2226,-0.7734 2.1406,-1.6094 -0.1992,-2.3086 1.0703,-4.664 -0.4492,-7.5468 m -81.9415,-127.4493 c 1.8243,-0.09 3.6758,-0.3476 3.5508,-2.8242 -0.062,-1.2812 -1.2343,-1.4687 -2.2929,-1.3359 -1.7188,0.2187 -3.9649,0.086 -4.1875,2.3594 -0.1446,1.457 1.5781,1.6875 2.9296,1.8007 m 90.9024,124.293 c 2.3398,-0.8476 1.1484,-2.9023 1.1797,-4.4492 0.01,-0.9609 -0.543,-2.2227 -1.8125,-1.9766 -2.0274,0.3985 -2.7383,2.086 -2.7305,3.9532 0.012,2.0195 1.5938,2.3164 3.3633,2.4726 m 664.12892,-206.2773 c 2.8399,1.6211 5.9102,0.5 6.8086,3.3008 0.4727,1.4687 1.3008,2.6132 2.5625,1.6015 1.3203,-1.0625 0.6875,-3.0937 -0.2812,-4.0937 -2.25,-2.3438 -5.1602,-1.6289 -9.0899,-0.8086 m -188.33982,213.5742 c 4.4609,-0.7305 7.8281,0 11.1406,-2.9141 -4.1797,-1.0859 -7.75,-3.3515 -11.1406,2.9141 m -583.4649,-188.7695 c -2.875,0.7617 -5.6289,0.7656 -8.4375,0.3437 -0.8203,-0.125 -1.3594,0.7656 -1.4101,1.5469 -0.023,0.4023 0.4531,1.164 0.7851,1.2109 3.4024,0.4961 7.125,1.9766 9.0625,-3.1015 m -32.0039,-12.7696 c 0.6406,-1.7656 -0.1406,-3.1406 -1.9062,-3.3164 -2.1954,-0.2148 -1.2344,1.6172 -1.3321,2.7656 -0.086,1.0079 -0.2929,2.0274 -0.6015,2.9961 -0.5664,1.7891 -0.1563,3.3204 1.7187,3.5821 2.8438,0.4023 1.8399,-1.6289 1.4805,-3.0196 -0.293,-1.1093 0.01,-2.0234 0.6406,-3.0078 m 228.3789,195.4922 c -2.5703,-2.9258 -4.9687,-5.1992 -5.8515,-9.6719 -2.4688,7.4297 -2.4688,7.4297 5.8515,9.6719 m -137.9297,-60.2265 c -0.7656,6.7031 1.1172,9.832 6.9961,11.789 -2.3984,-4.039 -4.5117,-7.5976 -6.9961,-11.789 m 427.1485,51.7656 c 2.9922,2.9922 7.3125,-2.1953 10.3711,1.7187 0.5781,0.7266 1.539,-1.3008 1.1601,-2.1172 -2.332,-5.039 -6.4804,-4.8711 -11.5312,0.3985 m -497.0664,-84.3594 c -7.5,-0.668 -8.586,4.9844 -12.336,6.9688 -1.1562,0.6132 -1.9219,1.9804 -0.5742,3.1718 1.5078,1.3242 3.2656,0.8164 3.7422,-0.8672 1.1914,-4.2265 3.9414,-6.9765 9.168,-9.2734 m 54.5937,-94.0781 c -2.1914,0.6015 -5.1602,-1.9375 -6.7187,1.1875 -1.4141,2.8242 1.9804,3.8242 3.2265,5.6523 0.4219,0.6211 0.3906,1.5274 0.6875,2.25 0.5078,1.2305 1.6328,1.3594 2.5899,0.8672 0.9648,-0.5 1.7343,-2.1797 1.0664,-2.5937 -3.4336,-2.1368 0.1328,-4.7461 -0.8516,-7.3633 m -52.6523,102.9336 c 5.8789,-1.711 11.4257,2.8672 16.6757,-1.0039 -0.1718,-1.6407 -1.4101,-1.8008 -2.1093,-2.5 -1.418,-1.418 -2.5039,-3.8789 -4.4883,-0.3008 -0.7266,1.3125 -2.8281,0.6211 -4.3125,0.8047 -1.7383,0.2187 -4.2656,-0.2696 -5.7656,3 m 174.1445,80.6406 c 1.1914,4.4258 5.1914,3.8711 7.4609,5.75 1.6915,1.3984 3.9493,-0.9727 4.6797,-2.7148 0.9414,-2.254 -1.2304,-3.0196 -2.9804,-3.5586 -3.1094,-0.9454 -5.8594,0.8867 -9.1602,0.5234 m -106.8203,-48.2188 c -4.668,-6.6992 -4.668,-6.6875 -9.1289,-4.832 -1.4141,0.5899 -3.086,0.7227 -2.2735,3.1602 0.6836,2.0312 1.5625,3.6445 3.8047,2.7617 2.3047,-0.9063 4.7149,-0.082 7.5977,-1.0899 m -163.8985,-125.7929 c 1.6289,3.1015 1.5508,2.8515 6.2305,1.4062 2.3555,-0.7304 4.8867,-0.9961 5.6914,-3.5703 0.7774,-2.4648 1.0313,-5.1172 1.2774,-7.7109 0.1171,-1.2461 -1.0586,-1.7735 -2.1524,-1.8438 -3.2226,-0.2148 -4.8437,2.1875 -4.3945,5.4727 0.2305,1.6719 2.8047,2.9336 1.125,4.7773 -2.5039,1.9102 -5.5117,-0.4765 -7.7774,1.4688 m 180.9258,180.1015 c 4.1914,-2.1914 7.8594,2.4532 8.8594,0.1993 1.6993,-3.8243 5.1016,-1.8555 7.4258,-3.4727 -11.5156,-6.3906 -11.6016,-7.8047 -16.2852,3.2734 m 646.6446,-217.289 c 2.8086,1.1719 3.4609,5.6094 6.8711,5.5664 2.7578,-0.031 5.1679,-0.7695 8.0586,0.7109 1.1015,0.5625 3.7812,-3.2773 7.0312,-3.5312 -7.293,-3.3516 -14.6211,-1.0196 -21.9609,-2.7461 m -797.8008,31.2851 c 0.7968,4.0625 2.9453,5.5352 5.1601,6.8946 1.625,1 8.8828,-0.1563 10.1133,-1.6289 2.2774,-2.7227 -1.625,-3.0313 -2.2226,-4.7696 -1.0469,-3.0508 -4.1329,-1.9062 -6.0977,-0.1328 -2.2344,2.0195 -4.2305,1.7891 -6.9531,-0.3633 m 23.6445,72.2539 c -0.8555,-0.3867 -1.332,-0.582 -1.7891,-0.8164 -3.6484,-1.8554 -8.8242,3.1563 -11.6875,-2.5468 -0.031,-0.062 -1.5742,0.289 -1.9101,0.7851 -1.2656,1.8672 -2.5938,3.1641 -5.125,2.4336 -0.7774,-0.2226 -1.4336,0.6016 -1.3867,1.4883 0.066,1.2656 0.9765,1.9062 2.0937,1.6719 4.3672,-0.9258 8.4297,0.8398 12.5703,1.4922 3.7891,0.5976 6.2305,0.1015 7.2344,-4.5079 m 45.9609,-0.5273 c -1.2382,-1.6563 -2.7226,-1.2656 -3.8437,-1.8125 -4.1328,-2.0156 -9.5313,0.8008 -13.1406,-3.5078 -0.6328,-0.7578 -2.336,-0.3008 -2.7032,0.5976 -0.5546,1.3672 -1.1484,3.9688 -0.6093,4.3164 3.164,2.0469 6.6523,3.5899 10.0312,5.3047 1.9102,-4.6523 7.5352,-1.1953 10.2656,-4.8984 m 538.7032,98.8047 c -1.8985,1.1211 -3.8281,2.1953 -5.6875,3.3945 -0.832,0.5391 -1.9727,1.2813 -0.9922,2.4766 3.0117,3.6953 0.6211,7.3515 -0.7773,11.2187 12.9101,-2.9531 14.4804,-6.8828 7.457,-17.0898 m 226.9531,-108.918 c 4.6367,0.2305 9.2774,0.3711 13.89842,0.7422 1.4297,0.1172 3.0313,-0.2461 4.2696,1.1719 3.4687,3.9609 3.7812,4.2148 6.6523,1.6054 1.6172,-1.4687 3.0391,-1.8007 4.9102,-1.6835 3.9062,0.2421 7.7578,-0.3125 11.7695,0.5859 5.0977,1.1484 10.4805,1.0195 15.8789,-1.2695 -4.0703,-0.6641 -8.0508,-0.543 -11.2305,-2.0821 -2.3984,-1.1601 2.5508,-0.4531 1.2891,-2.5508 -3.9101,1 -8.8086,-2.1601 -12.1484,2.7969 -0.3399,0.5 -2.0821,0.4219 -3,0.1094 -5.9102,-2.0117 -12.7696,0.9844 -18.2188,-3.5078 -0.5234,-0.4336 -2.0312,-0.6328 -2.23042,-0.3399 -3.0313,4.2461 -8.1016,1.7305 -11.8399,4.4219 m -80.7617,-4.8555 c 5.2812,1.7657 10.0117,3.254 14.6719,4.9649 1.0273,0.3828 1.7382,0.9141 2.6601,-0.07 3.3164,-3.5274 8.0391,-3.3125 11.9375,-2.9844 14.3399,1.2031 28.9727,-2.7656 43.0508,2.4648 1.1602,0.4336 2.8203,0.9493 3.2188,-0.8945 0.4921,-2.2851 -1.379,-2.414 -2.9805,-2.5625 -2.8867,-0.2656 -5.7891,-0.5 -8.6797,-0.7734 -11.5469,-1.1055 -23.1484,-0.4258 -34.75,-1.7461 -7.9492,-0.9102 -16.1992,-0.168 -24.3203,-0.3516 -1.3672,-0.031 -3.1485,-0.1992 -4.8086,1.9531 m -55.8281,125.6211 c -0.1914,0.7344 -0.5821,1.4844 -0.5235,2.2032 0.1016,1.289 0.4414,2.6992 2.2227,2.3554 0.6211,-0.1172 1.3476,-0.7734 1.6094,-1.3711 0.5195,-1.1836 -0.3907,-1.8711 -1.3399,-2.3203 -0.6797,-0.3203 -1.4297,-0.4687 -2.1601,-0.6953 0.078,-3.7851 4.9609,-7.8164 -0.5704,-11.332 -0.6679,1.2617 -0.4414,2.9765 -2.6093,3.332 -2.3321,0.3789 -4.5821,0.7266 -6.8907,0.125 -1.5,-0.3867 -2.7382,0.2031 -3,1.6328 -0.3281,1.8203 1.3985,1.8594 2.5704,2.1016 3.7695,0.7773 8.0586,0.1289 10.6914,3.9687 m -630.2579,-164.4299 c -0.6757,3.3593 -4.207,0.7578 -5.7382,2.8281 -2.0196,2.7265 1.289,4.9258 0.3046,7.4258 -0.3671,0.9453 -0.957,1.9336 -0.9218,2.8789 0.047,1.3828 0.9297,2.3789 2.7617,2.5312 1.4297,-4.1758 1.1289,-9.0195 4.1875,-12.7578 0.4023,-0.4922 -0.3594,-1.9336 -0.586,-2.9336 2.2735,1.5234 3.3985,4.6563 6.879,4.5234 2.4218,-0.094 4.7226,0.1875 2.1484,-3.1406 -0.3828,-0.4961 -1.6016,-0.8086 -0.7695,-1.6484 1.3789,-1.3906 2.8515,-2.918 0.6328,-4.3828 -1.6797,-1.1094 -2.2149,1.7656 -3.6485,1.9531 -2.125,0.2734 -2.8789,3.0391 -5.25,2.7227 m 696.5079,139.4531 c 2.1601,0.2773 4.4882,1.664 6.2578,-0.9258 -2.3203,-0.457 -4.5703,-0.7578 -6.418,1.1562 -2.9922,-5.2773 -6.6719,-6.2148 -12.0508,-2.8085 3.8086,2.5625 7.5391,4.4804 12.211,2.5781 m -656.7813,-24.8867 c -4.5313,-1.3282 -8.25,-5.7852 -14.0703,-1.9219 -2.1563,1.4336 -6.5899,-0.3985 -9.9336,-1.0156 -1.3633,-0.2539 -2.293,-1.5469 -1.6094,-3.0469 2.5078,-5.4961 -1.6172,-6.1641 -5.1758,-7.3438 -1.0234,-0.3398 -1.9453,-0.6093 -3.0507,-0.2226 -0.7696,0.2656 -1.625,-0.1485 -1.6993,-1.0547 -0.1054,-1.2383 0.9961,-2.3789 1.8282,-2.0938 3.9882,1.3555 7.8046,0.1797 11.6211,-0.4961 5.3125,-0.9375 6.0273,-0.5507 5.7851,4.3868 -0.1172,2.3906 -0.4766,4.7734 -0.7344,7.207 7.293,-1.0664 7.418,-1.1055 5.4532,-6.9922 -0.5938,-1.7695 -0.793,-2.9258 0.8867,-4.0156 1.4961,-0.9688 2,-2.1524 1.0976,-3.9922 -0.9648,-1.9727 -2.3632,-2.125 -4.3437,-2.5195 -2.918,-0.5821 -5.2813,3.1132 -8.1328,0.6406 -9.875,2.793 -19.6367,-3.1836 -29.8711,0.1211 -4.8242,1.5586 -10.8985,-0.7656 -16.5313,-1.3399 3.4141,-4.1289 3.4141,-4.1289 10.0039,-0.875 0.5899,-2.2304 0.6993,-4.4765 -1.9218,-5.1171 -2.1368,-0.5235 -3.3321,-1.1719 -3.2969,-3.5274 0.027,-1.75 -1.3477,-1.957 -2.7461,-2.0625 -6.8633,-0.5273 -12.6289,-3.1328 -16.5899,-8.9922 -1.3007,-1.9258 -4.0273,-1.2226 -5.3476,-3.0859 -0.918,-1.293 -2,-1.6758 -3.0274,-0.074 -0.9531,1.4882 -0.3789,2.3711 1.1563,2.9453 0.9453,0.3515 2.0977,0.4687 2.6211,2.0781 -2.1367,0.8867 -5.7383,1.0273 -5.0859,4.4141 0.6132,3.1757 0.1054,4.3437 -3.2461,4.2461 -3.6602,-0.1094 -4.5899,-1.5782 -3.5547,-5.0274 0.8672,-2.8867 -1.6133,-2.8281 -3.3555,-2.9062 -1.8047,-0.086 -3.9922,-0.1836 -3.8672,2.625 0.086,1.8398 0.3086,3.6914 0.6875,5.4922 0.9649,4.6328 4.418,6.3593 8.3945,3.371 2.9493,-2.2187 4.9063,-1.246 6.9961,0.3047 1.4922,1.1094 2.7852,3 4.6914,1.8125 2.1211,-1.3242 3.25,-3.4609 1.8711,-6.1484 -0.1289,-0.25 0.3477,-0.8125 0.9258,-2.0313 2.3047,4.2461 6.0352,5.4297 10.1875,5.9219 1.3321,0.1563 2.543,1.2422 1.7539,2.8164 -0.4609,0.918 -1.789,1.4961 -2.7617,0.875 -3.0312,-1.9375 -4.8086,-1.2656 -6.8867,1.7578 -2.3047,3.3477 -5.9805,2.5704 -9.3281,1.1875 -4.7032,-1.9375 -4.7227,-1.9765 -9.0938,1.2579 -0.7344,0.5429 -1.2617,0.6445 -1.9648,0.1601 -0.793,-0.5469 -1.3789,-1.0781 -2.6367,-1.0625 -4.8243,0.047 -7.8985,6.082 -13.5079,3.5469 -4.5742,-2.0625 -9.2461,0.8828 -13.9648,0.5195 -2.0117,-0.1523 -4.2461,0.5195 -6.1523,1.336 -5.1602,2.2148 -9.504,2.1367 -12.6407,-3.2852 -0.8359,-1.4414 -2.2109,-1.3359 -3.3125,-0.25 -3.4179,3.3867 -3.4062,3.4453 -6.6445,1.918 -0.6758,-0.3164 -1.210904,-0.9453 -1.843804,-1.461 2.855504,-2.9492 6.207104,-4.1015 10.117204,-3.6797 0.7735,0.082 1.5782,0.4961 2.3047,0.3711 2.1406,-0.3672 2.9727,-2.4179 3.5,-3.9687 0.6797,-1.9961 -1.3515,-2.6719 -2.9101,-2.543 -3.1993,0.2617 -3.9297,-1.8242 -4.0235,-4.4258 -3.4687,0.5586 -3.0351,5.25 -6.1015,4.8438 -1.832104,-0.2422 -4.214904,-0.7852 -4.816404,-3.3242 -2.1719,0.9843 -3.8633,-3.1446 -6.4727,-0.9297 2.125,2.9804 4.4609,0.414 6.4922,0.957 -3.5938,5.0547 -7.8399,6.4531 -14.2109,4.6445 -5.4024,-1.5312 -9.2735,-5.6875 -14.7813,-6.8671 -2.0703,-0.4415 -3.3437,-3.4415 -2.7266,-6.043 0.668,-2.7969 3.4454,-2.461 5.2852,-2.3945 8.8477,0.3007 15.5039,-4.7344 22.5664,-8.8008 1.2461,-0.7188 3.0625,-1.5391 1.8828,-3.6328 -0.7969,-1.4219 -1.9297,-2.9571 0.6953,-3.4805 1.5157,-0.3008 3.9727,-0.1953 4.1094,1.4141 0.773404,9.1953 8.152304,5.0937 12.644504,6.1601 1.9141,0.4531 4.0469,-1.6406 2.6524,2.3984 -0.3946,1.1446 1.5742,1.2969 2.2304,0.336 4.4844,-6.543 11.6485,-5.336 17.9844,-6.1016 4.6406,-0.5625 9.3946,-0.1328 14.0977,-0.2265 0.8125,-0.02 1.332,-0.7188 1.6445,-2.2266 -4.6562,0.5781 -8.8789,0.1406 -12.6875,-3.1094 -1.1601,-0.9922 -4.0039,2.3516 -7.0547,0.4766 -1.2734,-0.7813 -3.6601,-0.2266 -3.5976,-2.6172 0.074,-2.7852 2.5664,-1.7266 4.1836,-2.25 3.875,-1.2539 7.2812,1.5078 10.5664,1.1836 3.0351,-0.3008 5.8476,-3.2813 9.4922,-3.0352 2.8867,0.1914 5.7929,-0.5234 8.6757,0.4922 1.1953,0.418 2.8125,0.6953 3.875,0.2227 4.7344,-2.1133 10.0664,-1.0977 14.586,-2.3985 9.7383,-2.8007 19.9218,1.4532 29.2968,-2.8711 8.1016,1.6016 16.1641,-0.5781 24.2657,-0.3125 3.375,0.1094 8.2851,0.5469 5.8437,-5.8437 -0.4687,-1.2305 0.6172,-1.7578 1.7969,-1.9492 4.0742,-0.668 5.1016,-3.961 6.2461,-7.586 -1.8203,-0.7421 -4.207,-1.0234 -5.4297,-2.3632 -2.5195,-2.7579 -4.4102,-4.6485 -6.8125,-0.055 -0.1797,0.3437 -1.4883,0.2148 -2.2461,0.1172 -5.7773,-0.7383 -7.4141,-1.2579 -10.0703,-4.1172 -1.0781,-1.1641 -1.8984,-3.2149 -3.5742,-2.0899 -3.8164,2.5625 -5.5,0.2032 -6.4961,-2.6836 -0.9297,-2.6875 -3.4336,-3.0273 -5.1445,-4.4961 -1.3985,-1.207 -3.586,-1.914 -0.7149,-3.875 0.6719,-0.4609 0.5977,-1.707 -0.031,-2.082 -4.1836,-2.4844 -4.5273,-4.3047 0.1953,-6.8789 1.1406,-0.6211 -1.6797,-3.4805 -3.0664,-2.8672 -2.457,1.0899 -4.1445,0.7774 -6.5859,-0.098 -2.6563,-0.9532 -5.1446,0.7265 -5.9258,3.8242 -0.3164,1.2617 -0.2266,2.6484 -0.6758,3.8437 -0.1992,0.5235 -1.2617,0.9063 -1.9805,1.0039 -1.2617,0.1719 -1.9375,-0.6093 -1.9179,-1.8554 0.012,-0.7891 0.3554,-1.5938 0.2773,-2.3594 -0.2773,-2.7031 0.7149,-6.4024 -3.7851,-6.4102 -4.5274,0 -6.0352,2.1016 -5.8907,8.0782 -2.9648,-0.5039 -6.0898,-0.8789 -6.0507,-4.5391 0.055,-4.7109 -2.2422,-4.5469 -5.5196,-3.6211 -1.2422,0.3516 -2.5508,0.5508 -3.8437,0.6406 -3,0.1992 -2.5,1.5899 -1.6836,3.711 0.8476,2.2031 3.4492,2.25 4.6015,3.9375 -4.4101,4.5078 -8.9375,1.8359 -13.3437,0.957 -2.0859,-0.418 -2.3164,-2.125 -1.8672,-3.7266 1.1563,-4.1172 -1.4531,-4.9765 -4.2812,-4.3281 -6.0508,1.3867 -12.1407,0.168 -18.1914,0.875 -3.5196,0.4063 -6.7032,1.2383 -9.7227,3.0508 -3.793,2.2851 -5.168,2.1367 -5.9297,-1.9063 -0.7773,-4.1171 -2.5976,-4.4765 -5.8633,-3.5429 -7.316404,2.0937 -14.605404,-0.8477 -21.929704,-0.2305 -1.1328,0.094 -2.7773,-0.6719 -2.4257,-2.4102 1.0195,-5.0117 -3.0743,-6.8906 -5.7696,-9.582 -1.1054,-1.1055 -2.6133,-1.7969 -3.8437,-2.789 -0.6758,-0.543 -0.6797,-1.4102 -0.1953,-2.125 0.4922,-0.7149 1.5078,-1.1133 2.0507,-0.6055 5.5196,5.1797 6.3008,-3.3086 10.0157,-3.5195 0.7343,-0.039 0.6914,-1.9063 0.1718,-2.8594 -0.7539,-1.3867 -1.8476,-2.5977 -2.539,-4.0078 -3.2774,-6.6719 -2.3399,-8.3086 5.0469,-8.5743 1.6367,-0.058 3.4296,0.039 4.5312,-1.0351 4.5156,-4.4141 10.308604,-3.7656 15.742204,-4.0508 6.6094,-0.3476 13.207,-0.5625 19.75,-1.613299 0.2617,-0.043 0.5703,0.039 0.7891,-0.074 5.3554,-2.7383 10.4726,5.214899 16.6718,-0.4492 4.1172,-3.7617 11.1524,-1.6016 16.8399,-2.3125 6.0742,-0.7617 12.2187,-0.3359 18.1992,-1.3867 4.0508,-0.711 7.957,1.3242 12.0977,-0.3203 2.0742,-0.8282 2.4257,2.1132 3.0312,4.2187 2.793,-1.5312 5.6992,-4.5351 8.168,-4.2148 8.3047,1.0898 15.7773,-2.625 23.789,-2.9336 12.8985,-0.4922 25.7657,-1.8594 38.6641,-2.2657 10.0195,-0.3164 19.8398,-2.2812 29.8242,-2.746 2.1406,-0.098 4.1914,-0.3633 6.207,0.6054 2.7696,1.3321 5.0508,1.1641 8.0508,-0.5195 4.9962,-2.8008 10.9181,-1.0234 16.3673,-1.0391 7.5312,-0.019 15.0117,1.1289 22.3906,-1.4726 1.6719,-0.5899 3.6719,-0.5664 5.4922,-0.4102 15.0586,1.2695 30.0508,-0.6367 45.0703,-0.8867 23.9805,-0.3945 47.9375,-2.0664 71.9492,-1.2656 12.6875,0.4258 25.4102,-0.168 38.1094,-0.023 13.7305,0.1641 27.4805,-0.832 41.1484,-0.5976 19.7813,0.3398 39.5625,1.1992 59.3204,0.4258 12.5898,-0.4961 25.0625,0.7109 37.582,0.957 6.9101,0.1406 13.8086,1.8242 20.789,1.5547 4.0313,-0.1563 8.4102,0.8359 11.5391,-3.461 1.8516,-2.5351 4.2109,-1.957 6.6406,0.4493 2.7891,2.7539 5.961,6.2343 10.5,2.039 0.7696,-0.7148 2.6602,-0.7773 3.8086,-0.4219 11.0821,3.4063 22.293,1.6524 33.4805,1.0782 0.5117,-0.023 1.1523,-0.4258 1.5312,-0.2383 9.8204,4.8516 20.8399,-0.027 30.7383,3.8125 2.1914,0.8476 4.1602,0.3867 6.1914,-0.1211 3.5508,-0.8984 7.0391,-2.5742 9.9688,1.5547 0.9219,1.2969 3.1015,0.914 4.5,0.164 7.5703,-4.0468 15.7617,-0.3984 23.5117,-2.0312 5.5703,6.1406 12.6211,2.4375 19.0586,2.8125 2.1016,0.125 4.2305,0.078 6.332,-0.062 2.4297,-0.1641 4.8399,-0.4805 6.3008,2.1211 0.8789,1.5703 2.0195,1.5312 3.1367,0.4258 2.4414,-2.4219 5.2735,-1.7149 8.211,-1.3867 7.1015,0.8007 14.2812,1.0468 21.3398,2.1132 4.7695,0.7188 9.9727,0.4297 13.2617,5.8477 1.461,2.394499 5.4102,4.910099 8.6797,0.4648 -0.8906,-3.2851 -5.3789,-1.1757 -6.7109,-4.7851 3.8594,0.3008 7.4023,-0.2266 10.4804,2.539 3.9493,3.531299 7.6211,4.308599 11.5704,1.1836 3.8789,-3.0625 7.5898,-2.5976 11.8984,-2.2265 8.1016,0.6953 16.2812,1.1797 24.3633,1.7968 12.3476,0.9454 24.7695,1.558599 37.0898,3.195399 13.6289,1.8164 27.29692,3.2539 40.93752,4.9336 9.6289,1.1835 19.2227,2.7539 28.8711,3.6757 7.3711,0.7071 14.5,2.1172 21.5391,4.3633 2.5,0.793 5.0508,1.1602 6.8398,3.4453 -3.4883,1.1446 -3.5078,1.1797 -9.4179,-1.6406 -0.9219,-0.4375 -1.5313,-0.1641 -2.1407,0.2695 -4.1289,2.9649 -7.9804,0.7149 -12.0195,-0.3867 -14.2422,-3.8711 -28.5625,-7.3086 -43.582,-7.1015 1.332,8.7929 3.8203,10.3164 11.6523,8.2539 3.5,-0.9219 7.5781,-3.4766 10.1484,1.8984 0.3204,0.6641 1.879,1.1367 2.8086,1.0469 10.8516,-1.0157 21,4.582 32.0821,3.039 4.25,-0.5937 8.5586,3.5743 13.3086,4.0078 5.0703,0.461 9.6015,2.6016 15.2226,4.2735 -2.4609,1.5937 -3.9219,-1.211 -5.4023,0.031 1.3789,3.2735 1.3594,3.3516 4.4297,4.1485 0.7812,0.2031 1.3906,0.3086 1.8398,1.0351 3.082,4.9492 4.5,6.1094 8.6602,7.6641 3.4726,1.3008 6.7812,3.125 10.3398,4.0469 4.8399,1.2578 4.1797,3.7031 1.25,7.5117 8.4414,0.6094 9.5313,7.7265 12.5899,12.8008 2.4921,4.1367 1.2031,5.9297 -3.629,7.082 -9.9687,2.3945 -19.9296,4.9531 -30.5703,4.0312 0.8711,0.4102 1.6993,0.9766 2.6094,1.1915 1.2695,0.3007 2.6914,0.6875 3.8906,0.4101 4.0703,-0.9336 7.8321,1.3945 11.7305,1 4.3906,-0.4453 6.9883,3.6406 11,2.9844 0.2188,3.3476 -1.1797,4.457 -3.5117,5.1953 -4.5195,1.4375 -9.168,2.6172 -13.1602,5.3828 -1.1875,0.8203 -2.6875,1.25 -3.4883,-0.1172 -2.121,-3.6133 -5.4492,-2.6445 -8.5,-2.5078 -15.6093,0.6992 -31.1093,-0.7422 -46.6406,-2.0195 -2.8476,-0.2383 -5.7695,0.2578 -8.6875,0.8242 18.1602,3.7305 36.7383,2.2578 55.1875,4.2617 -3.4687,1.6485 -7.1289,3.0078 -10.3711,5.0313 -2.8086,1.75 -5.5781,3.5703 -8.1484,5.9218 -3.5703,3.2618 -8.3203,6.4336 -14.0899,4.2774 -1.5703,-0.5899 -3.4101,-0.6328 -4.5195,0.582 -3.4609,3.8125 -8.1406,3.4414 -12.5195,3.8516 -9.2305,0.8711 -18.4414,2.039 -27.75,1.914 -2.9219,-0.039 -5.9922,0.1993 -8.3594,2.0391 -2.75,2.1328 -5.832,3.082 -8.9023,2.0469 -3.4297,-1.1602 -3.4805,5.2109 -7.05082,2.6719 -0.6289,1.0468 -0.3477,2.1875 0.3008,2.9101 1.2695,1.418 2.12112,2.875 2.12112,4.8281 0,1.8789 -0.66022,3.4766 -2.69142,2.6914 -7.879,-3.0273 -15.5704,1.1133 -23.3399,0.3086 -2.5898,-0.2695 -6.1797,1.9024 -7.0078,-3.3203 -0.2305,-1.457 -4.582,-3.0312 -6.1328,-1.9453 -3.3672,2.3555 -6.0469,0.1953 -9,-0.078 l -0.01,0.02 c 1.6093,1.0586 2.5781,0 2.8086,-1.2812 0.2109,-1.2032 -0.6993,-1.1641 -1.9805,-1.293 -8.1484,-0.8047 -15.8477,2.7383 -23.6797,2.6406 -7.5391,-0.094 -15.1601,0.6211 -22.6875,-0.5273 -1.6523,-0.2539 -3.3633,-0.6172 -3.6914,1.5625 -0.2383,1.5976 1.3203,2.1094 2.5586,2.4375 3.0117,0.8047 5.832,1.5625 9.2422,1.0898 5.6601,-0.7773 11.539,-1.1484 17.2578,0.3477 l -0.1602,-0.1367 c -0.3789,2.5937 -2,2.4375 -4.0898,2.1875 -6.0781,-0.7266 -12.1172,-0.4414 -19.3086,1.2226 3.0195,1.957 5.1289,1.3399 7.0898,1.3008 1.8985,-0.035 3.6719,-0.25 4.3204,2.2734 0.2812,1.0977 1.5,1.7735 2.2382,0.3282 1.9219,-3.75 4.6407,-1.7266 7.461,-1.6368 8.7187,0.2813 17.1406,3.0313 25.9101,2.8047 1.3711,-0.031 2.711,1.4414 4.1602,1.9375 3.6797,1.2735 6.8711,2.7032 10.7187,-1.1133 3.6016,-3.5664 9.1524,-1.5273 13.6407,-0.5625 7.2812,1.5704 15.3398,-0.5234 21.90232,4.4805 5.9492,-3.3515 11.707,1.5469 17.6797,0.3867 2.9805,-0.5781 5.5703,0.836 7.7773,3 4.3633,4.2852 7.4219,4.6172 12.6719,1.5938 1.8906,-1.086 11.0078,0.4609 12.0391,2.6601 0.6914,1.4961 1.0312,2.7227 2.6601,3.3633 1.1289,0.4492 2.7422,0.375 3.1016,3.1563 -8.2617,-2.3946 -14.4023,1.3164 -19.75,7.1601 0.4883,1.4883 2.0508,1.6016 3.6406,0.9844 4.3867,-1.6953 8.1289,1.5703 12.3281,1.4844 1.9102,-0.039 2.0821,1.6523 2.379,3.3867 0.2929,1.6875 1.7421,1.5391 2.8007,0.1953 l -0.1289,-0.1289 c 0.3985,3.5977 1.3907,6.6836 7.711,5.0664 -0.5235,0.7461 -1.043,1.4922 -1.5625,2.2383 -2.0078,0.5859 -4.0078,1.1992 -6.0274,1.7305 -0.4726,0.125 -1,-0.027 -1.5117,-0.051 -0.1914,6.4414 -5.7812,2.8672 -8.5898,4.4961 -2.6407,1.5234 -4.5586,3.8828 -7.9805,4.6718 -5.1992,1.2071 -10.2188,0.879 -15.3594,0.6563 -2.0117,-0.09 -4.6797,-0.8398 -5.5,1.6797 -0.5703,1.7656 1.6211,3.0703 2.5899,4.5781 l -0.211,-0.1797 c -7.8398,4.1055 -15.4609,2.2227 -23,-0.9101 1.3008,-0.918 2.4102,-1.75 4.2696,-1.5352 3.371,0.3867 6.8125,0.3047 10.2226,0.3086 1.3203,0 2.8086,-0.3047 2.75,-2.043 -0.031,-1.1562 -1.0625,-1.5703 -2.2226,-1.7187 -5.879,-0.7852 -11.6407,-0.5703 -17.418,1.3515 0.8203,1.7383 2.5,2.0508 2.5586,3.5899 -6.44922,2.25 -13.05082,1.3086 -19.21102,-0.457 -6.5468,-1.8789 -13.0468,-1.8477 -19.6484,-1.9063 -1.8398,-0.019 -3.6484,0.2578 -5.5195,-0.2266 -2.6289,-0.6757 -6.1407,0.1368 -5.1719,-4.7539 0.4414,-2.2617 -1.8281,-2.0586 -3.3594,-1.914 -2.3398,0.2304 -2.5898,1.0625 -0.9492,2.8672 0.8594,0.9257 0.078,1.9687 -1.1211,2.2929 -1.2773,0.3438 -2.6601,1 -3.8672,0.793 -6.1914,-1.0703 -12.6914,0.9492 -18.6133,-1.3711 -5.289,-2.0742 -10.5703,-1.3555 -15.5273,-0.2891 -3.7617,0.8125 -7.3828,1.211 -12.6016,0.4063 1.9805,1.3711 2.5391,1.9648 3.2305,2.207 6.0898,2.1524 6.9492,2.5235 4.5508,7.8047 -1.461,3.211 1.2383,4.0977 1.0586,6.1406 -0.7696,-0.1171 -1.5508,-0.3945 -2.2696,-0.2812 -0.9882,0.1523 -1.9492,0.5625 -2.8789,0.9844 -0.09,0.047 0.02,1.1328 0.3086,1.3437 1.1993,0.8633 2.5313,0.5274 3.5821,-0.2461 0.539,-0.4023 0.707,-1.3242 1.039,-2.0078 1.8203,-0.7226 3.0586,0.1367 3.9883,1.5781 0.7617,1.1875 1.6094,2.2735 3.1328,1.543 4.5664,-2.1758 7.8477,2.4141 12.1289,2.2305 1.8008,-0.078 2.0977,2.3203 1.5391,3.7968 -0.668,1.7735 -1.75,2.3086 -3.3399,0.3399 -2.4296,-2.9883 -4.3593,1.8359 -5.8593,1.0078 -4.6524,-2.5937 -2.6407,2.082 -3.8321,3.1406 -2.2695,2.0078 -0.7695,7.3516 -6.2265,6.6992 -3.1328,-0.371 -6.6016,0.6836 -5.8008,-4.6914 0.2695,-1.8789 -6.8008,-7.0546 -9.1094,-7.1953 -1.582,-0.094 -3.1719,0.1133 -4.7617,0.062 -2.8398,-0.098 -5.5586,-0.3984 -4.5508,-4.4648 0.3203,-1.293 -0.5078,-2.0469 -1.5,-2.3867 -1.6289,-0.5625 -1.4687,1.0586 -1.8594,1.8554 -1.6406,3.2891 -3.3007,2.6641 -5.2617,0.25 -2.0195,-2.4961 -3.6172,-5.1718 -4.4883,-8.2968 -0.7109,-2.5821 -2.1679,-4.1446 -5.1914,-3.3438 -1.3984,0.3711 -3.5898,-0.8867 -4.0898,1.1563 -0.4688,1.9218 -0.2578,4.1836 1.9219,5.3984 1.1406,0.6367 2.539,0.918 3.5,1.7305 1.8008,1.5 3.25,3.2578 -0.4688,4.2968 -0.2226,0.059 -0.4922,0.3633 -0.5117,0.5782 -1.0312,8.8515 -7.5312,7.3476 -13.1016,6.7187 -1.4375,1.8281 0.051,2.6953 0.5118,3.7735 0.8906,2.0898 0.9609,3.8984 -1.961,3.6171 -2.6484,-0.2539 -5.0078,1.1641 -7.8203,0.4766 -4.4375,-1.0781 -8.9687,-2.1602 -13.668,-0.418 -1.75,0.6485 -3.9296,0.1368 -2.9921,-2.8711 0.3515,-1.1211 1.1796,-3.4882 -0.5704,-2.8554 -2.5781,0.9297 -6.1484,-3.4024 -7.4765,1.1875 -1.1016,3.7773 -3.2227,3.7343 -6.4414,3.4765 -5.4922,-0.4375 -11.0508,0.023 -16.5508,-0.2851 -5.2695,-0.3008 -5.7383,-1.5391 -3.1016,-6.4688 0.6407,-1.1875 1.2422,-2.5742 0.082,-3.5429 -0.6719,-0.5625 -1.9883,-0.5039 -3,-0.4571 -1.8399,0.094 -3.0313,1.2305 -2.9688,3.0313 0.09,2.539 1.5,5.1133 -0.6406,8.039 -4.961,-2.5546 -10.3008,-6.0781 -14.6211,1.0274 -2.4492,-2.3828 2.4922,-3.3125 0.3516,-4.8399 -2.4922,-1.7851 -6.6211,-1.1757 -7.7422,0.1797 -3.0977,3.7383 -6.6485,2.1797 -10.1289,2.5039 -2.9414,0.2774 -6.3204,-1.5625 -8.711,1.6524 -7.7578,-1.0703 -15.789,-0.3555 -23.3203,-2.6133 -3.6875,-1.1055 -4.7891,-4.6328 -3.0781,-8.4375 0.5781,-1.2695 1.1211,-2.6367 -0.3711,-3.4375 -1.5,-0.8008 -2.4492,0.5664 -3.1914,1.582 -1.0781,1.4805 -1.9492,3.1133 -2.7969,4.5078 0.5469,2.75 4.6484,2.2149 4.3086,5.5157 -1.6406,1.207 -3.7695,1.3711 -5.6484,1.3789 -1.8516,0 -4.7227,-0.1328 -2.7422,-3.6719 0.9023,-1.6055 0.1406,-3.2344 -1.7813,-3.5898 -2.289,-0.4297 -1.9297,1.4179 -2.4687,2.9101 -1.8906,5.2149 -7.3985,6.6953 -12.3281,3.582 -0.6719,-0.4257 -1.2305,-1.1523 -0.711,-1.9687 0.3985,-0.6094 1.0195,-1.2891 1.668,-1.457 0.7031,-0.1797 1.6719,-0.012 2.3125,0.3671 4.0703,2.4297 5.3008,-0.6328 6.539,-3.3945 1.3594,-3.0312 -0.9296,-6.418 -3.9296,-5.4101 -4.1016,1.3828 -7.6407,1.7617 -11.8985,0.086 -4.0703,-1.5977 -3.4609,3.6875 -5.5312,5.3242 -0.1211,-2.2148 0.5898,-5.5156 -3.4414,-2.6445 0.4414,-1.0313 0.3711,-2.8594 -0.2578,-2.793 -2.5118,0.2539 -4.8594,0.6094 -6.9922,-1.2265 -0.1172,-0.1016 -1.3672,0.7148 -1.6602,1.3125 -0.3594,0.7578 0.4219,1.3085 0.9727,1.8593 2.539,2.5274 5.3476,1.0703 8.0976,0.6094 0.8399,1.2891 -0.5703,5.5195 3.461,2.6563 -0.1094,6.7695 -0.3711,6.8125 -5.5196,8.7148 -7.1914,2.6562 -14.25,4.2344 -21.9414,1.7891 -2.2383,-0.7149 -5.0976,0.7382 -7.6992,0.8945 -13.1992,0.7851 -26.4297,2.2891 -39.6211,1.9648 -13.3594,-0.332 -26.6797,0.7305 -40.0273,0.2188 -5.7227,-0.2188 -11.4414,1.6406 -17.2618,0.5547 -5.6796,-1.0625 -11.7304,1.4843 -17.2304,-1.6992 -0.3985,-0.2266 -1.1602,-0.2891 -1.4883,-0.055 -8.5625,6.0429 -18.2109,2.3593 -27.3516,3.1132 -4.8593,0.3985 -9.8476,-2.5039 -14.6289,0.5391 -6.6289,-2.8047 -14.0312,2.5469 -20.5117,-1.9414 -5.3594,1.4844 -11.3008,-3.582 -16.3398,1.4531 -5.2696,-0.5664 -10.3907,1.1758 -15.5977,1.1016 -8.4531,-0.125 -16.8828,0.2422 -25.3398,-0.6875 -4.8907,-0.5352 -9.9922,-0.1133 -14.8711,0.6797 -8.6602,1.4101 -17.0196,-3.0078 -25.6407,-0.875 -3.621,-3.5235 -9.3789,-0.5586 -13.1484,-4.5508 -1.4414,-1.5273 -5.1328,-2.6016 -5.4297,2.2266 -0.1523,2.3398 -1.7734,2.8906 -4.0234,2.2617 -11.3477,-3.1836 -23.1797,-0.4688 -34.4415,-2.3242 -8.4766,-1.3946 -17.4023,1.6953 -25.4062,-2.8672 -1.8282,-1.0469 -3.6055,0.02 -5.4141,0.1953 -2.1406,0.207 -3.5703,-0.6953 -3.9063,-2.961 l -0.1679,0.2422 c 4.4023,-2.7695 4.5898,-2.9414 1.2969,-6.4804 -1.5938,-1.7071 -0.9727,-4.0118 -2.3438,-5.5586 -3.3594,-0.1758 -7.0156,2.6758 -9.8789,-1.3633 -0.8086,-1.1406 -2.3477,-0.7383 -3.6641,-0.4766 -3.5078,0.7071 -6.3437,4.5235 -6.2422,8.6914 0.1055,4.2813 2.6993,5.9141 6.6602,5.9375 l -0.1953,-0.2343 c -2.0117,2.3164 -4.6875,2.2851 -7.3008,1.7656 -4.4453,-0.8867 -8.7344,-1.4844 -13.1484,0.4844 -1.5313,0.6796 -3.6446,0.207 -5.4649,0 -0.6289,-0.07 -1.4961,-0.8243 -1.6875,-1.4453 -0.3867,-1.2383 0.6055,-1.961 1.6641,-2.1133 2.0859,-0.2969 4.2109,-0.3047 6.2969,-0.5821 1.4726,-0.1953 3.3789,0.059 3.6523,-2.1484 0.2695,-2.168 -0.027,-4.293 -1.6094,-5.9258 -1.2148,-1.2578 -2.4257,-0.4453 -3.4023,0.5 -3.9024,3.7617 -7.4102,4.168 -11.4453,-0.2109 -2.168,-2.3516 -5.7383,-1.8281 -7.9063,0.3594 -4.1015,4.1367 -7.9492,3.8515 -12.5351,0.9414 -3.9883,-2.5235 -8.4688,-0.5 -12.6797,-0.2852 -3.0352,0.1563 -5.125,0.02 -6.0938,-3.3008 -0.9375,-3.2265 -3.4297,-2.9023 -4.1562,-0.4609 -1.4297,4.8164 -5.4922,1.4492 -8.0195,3.1953 -2.293,1.582 -5.6407,0.9063 -6.879,-2.8008 -0.207,-0.625 -1.0585,-1.0351 -1.6132,-1.5429 -3.6133,4.6132 -7.7696,-0.6407 -11.7774,0.6523 -3.5742,1.1523 -7.2851,0.6602 -9.2734,-3.6914 -0.7539,-1.6484 -2.625,-2.5703 -4.582,-2.7774 -2.2149,-0.2382 -3.9844,-1.4179 -5.6602,-2.7109 -3.8125,-2.9375 -3.9609,-4.1719 -1.1719,-9.2031 -2.0429,-0.6211 -4.0039,-1.5586 -6.0351,-1.7383 -2.7149,-0.2461 -5.2032,0.2852 -5.1641,-3.9648 0.031,-3.3829 -4.875,-0.9571 -6.043,-4.2696 1.8047,-2.1484 6.0782,-1.7422 6.75,-5.4179 0.047,-0.2539 1.0196,-0.6407 1.3477,-0.4961 5.7656,2.5937 10.7773,-1.2422 16.1562,-1.8243 2.3555,-0.2539 4.3789,-0.6054 6.3321,1.7735 2.1054,2.5625 5.9492,2.3828 7.9726,0.4609 5.168,-4.8906 11.3828,-2.5781 17.1055,-3.4883 0.2266,-0.031 0.5,0.1524 0.7383,0.2696 4.4062,2.2187 6.5937,-4.0586 10.8203,-2.7891 3.7266,1.1211 7.332,1.4297 11.4531,1.1875 10.543,-0.6211 20.7852,-4.6523 31.6289,-2.4101 5.8477,1.2109 11.2266,-1.1368 15.461,-5.879 0.8945,2.4336 0.3476,5.6563 4.2421,3.9532 1.6563,-0.7305 3.6055,-0.793 5.4219,-1.1641 4.4571,-0.9101 5.6094,-3.4883 3.8321,-7.5156 2.1328,0.4961 2.9101,3.5469 5.582,3.4023 0.1015,-5.3359 -2.5352,-4.6601 -5.5235,-3.2929"
     id="path220" />
</svg>
