<?xml version="1.0" encoding="UTF-8" standalone="no"?>
<svg
   width="1200"
   height="400"
   viewBox="0 0 1200 400"
   version="1.1"
   id="svg728"
   xmlns="http://www.w3.org/2000/svg"
   xmlns:svg="http://www.w3.org/2000/svg">
  <defs
     id="defs728" />
  <path
     fill-rule="evenodd"
     fill="#000000"
     fill-opacity="1"
     d="m 632.61307,70.672665 c -0.25,-1.03907 -0.5586,-2 -1.5274,-1.35157 -0.4805,0.32032 -0.6133,1.38282 -0.6328,2.1211 -0.039,0.83203 0.4297,1.73047 1.3906,1.12109 0.5117,-0.33203 0.5703,-1.37109 0.7696,-1.89062 m -370.8438,20.12109 c 0.4023,0.25 0.8047,0.48828 1.207,0.73828 0.1758,-0.42969 0.582,-0.94141 0.457,-1.25 -0.1367,-0.35937 -0.746,-0.53906 -1.1484,-0.78906 -0.1719,0.42969 -0.3476,0.85937 -0.5156,1.30078 m -10.3633,18.238285 c -0.8203,0.26172 -1.25,0.87891 -1.0898,1.66016 0.066,0.33203 0.6953,0.75 1.082,0.76953 0.7734,0.0312 1.4375,-0.41797 1.4336,-1.26953 0,-0.85157 -0.6016,-1.21875 -1.4258,-1.16016 m -40.2187,15.69922 c -0.2071,0.35937 -0.6407,0.78125 -0.5665,1.07031 0.1016,0.40235 0.5938,0.98047 0.9102,0.98047 0.9102,-0.0195 1.2109,-0.71875 0.8242,-1.48047 -0.1523,-0.30859 -0.7617,-0.39062 -1.1679,-0.57031 m 6.2617,137.78125 c -0.2344,-0.37109 -0.4727,-0.73047 -0.711,-1.10156 -0.3086,0.25 -0.8672,0.49218 -0.8711,0.74218 0,0.3711 0.3946,0.73047 0.6211,1.09766 0.3203,-0.23828 0.6407,-0.48828 0.961,-0.73828 m 2.7304,25.32031 c -0.289,0.32813 -0.8125,0.66016 -0.8164,0.98828 0,0.40234 0.3438,1.05077 0.6836,1.17187 0.9922,0.34765 1.3477,-0.33985 1.1758,-1.17187 -0.078,-0.35937 -0.6289,-0.61718 -1.043,-0.98828 m 675.6954,38.80859 c -0.4414,-0.26954 -1.0586,-0.98829 -1.711,-1 -0.9179,-0.0195 -1.2695,0.90234 -0.8593,1.67968 0.3984,0.76172 1.2695,0.78125 2.0703,0.6211 0.6679,-0.14063 0.8711,-0.50782 0.5,-1.30078 m 23.7383,5.63281 c 1.3007,-0.54297 2.1406,-1.51172 2.3515,-2.85156 0.1094,-0.64063 -0.6406,-0.94922 -1.1015,-0.44141 -0.8282,0.89062 -2.2579,1.64062 -1.25,3.29297 m -343.5586,0.92969 c 1.0312,-0.0312 1.3789,-0.76172 1.5,-1.5 0.07,-0.38282 -0.1797,-1.10157 -0.4688,-1.22266 -0.8008,-0.33984 -1.4023,0.17187 -1.6133,0.95312 -0.1992,0.71875 -0.1289,1.4375 0.5821,1.76954 m 335.789,-2.08985 c -0.8906,0.45703 -1.9804,0.82813 -1.5703,2.16797 0.1016,0.32031 0.8711,0.73047 1.2227,0.64063 1.0468,-0.26954 1.8672,-0.96875 1.6484,-2.17969 -0.059,-0.26953 -0.8203,-0.41016 -1.3008,-0.62891 m -367.5,-2.21094 c -0.1679,-0.87109 -0.5976,-1.48046 -1.5,-1.32031 -1.0898,0.19141 -1.6094,1.07031 -1.9492,2.00781 -0.3086,0.86329 0.1914,1.44141 1.0117,1.48047 1.4766,0.0703 2.1289,-0.91797 2.4375,-2.16797 m -100.6875,0.33985 c 0.418,-0.26172 1.3086,-0.48047 1.5781,-1.01953 0.5391,-1.08985 -0.621,-1.07032 -1.1601,-1.03125 -0.6406,0.0391 -1.5899,0.30078 -1.8086,0.75 -0.3906,0.80078 0.2578,1.26953 1.3906,1.30078 m -7.1523,-4.16016 c -1.1094,0.25781 -2.0703,0.8711 -1.8985,2.0586 0.1094,0.83203 1.1289,0.96093 1.9375,0.85156 1.1407,-0.15235 2.0704,-0.74219 1.8516,-1.99219 -0.1406,-0.82812 -1.0586,-1.01953 -1.8906,-0.91797 m -17.3477,2.33985 c -0.582,-0.39844 -1.1211,-0.92188 -1.7617,-1.17969 -1.0898,-0.44922 -2.1094,-0.082 -2.4102,1.07031 -0.2187,0.83984 0.5508,1.35938 1.379,1.37891 1.0312,0.0312 2.0117,-0.16797 2.7929,-1.26953 m -232.4531,-81.41015 c -0.066,-0.87891 -0.461,-1.55859 -1.3946,-1.48828 -0.4023,0.0273 -0.957,0.48828 -1.1171,0.8789 -0.3125,0.78125 -0.055,1.58985 0.8398,1.78907 0.8516,0.17968 1.4609,-0.30078 1.6719,-1.17969 m 4.0156,-20.85938 c -1.0273,0.25782 -1.3125,0.91797 -1.0391,1.64844 0.1368,0.35938 0.6914,0.76172 1.0821,0.78906 0.8008,0.0625 1.375,-0.44921 1.2656,-1.28906 -0.1016,-0.77734 -0.6758,-1.16797 -1.3086,-1.14844 m 26.8008,-99.73046 c -0.3008,0.41015 -0.9649,0.92968 -1.0586,1.53906 -0.125,0.76953 0.5273,1.5 1.3476,1.4414 1.1094,-0.0703 1.7461,-0.8789 1.5899,-2.01171 -0.1172,-0.82813 -0.8086,-1.09766 -1.8789,-0.96875 m 663.3047,214.46874 c -0.2813,-0.89063 -0.9297,-1.20704 -1.6992,-1.08985 -1.2305,0.19922 -2.5899,0.46094 -2.5821,2.08985 0.012,0.83984 0.8008,1.24218 1.5821,1.03125 1.1601,-0.30079 2.4492,-0.5586 2.6992,-2.03125 M 325.83567,324.0125 c -1.5703,0.14844 -3.0703,0.37109 -3.6523,2.12891 1.539,-0.0703 3.0195,-0.21875 3.6523,-2.12891 m 193.5703,-4.42188 c 1.6992,1.01172 3.3985,1.57032 4.9102,-0.25 0.25,-0.29687 0.3086,-1.25 0.1367,-1.33984 -2.1797,-1.21875 -3.8789,-0.66016 -5.0469,1.58984 m 504.67973,-68.17967 c -0.3008,-0.91016 -0.3516,-2.25 -1.832,-1.87891 -1.168,0.28906 -1.5508,1.42188 -1.2383,2.46094 0.1797,0.62109 0.8984,1.41015 1.4687,1.5 1.4493,0.21875 1.5704,-0.94922 1.6016,-2.08203 m 24.5977,-87.6875 c -0.4375,-0.21094 -1.3203,-0.75 -2.2696,-1.05078 -0.9414,-0.30079 -1.4101,0.32812 -1.3906,1.21093 0.012,0.83985 0.5117,1.39844 1.3711,1.5 0.6406,0.0703 1.4219,0.46875 2.2891,-1.66015 m 5.0898,-1.28907 c 0.2617,-1.12109 0.02,-2.10156 -1.0273,-2.51171 -0.9297,-0.35157 -2.0821,-0.39063 -2.1719,1.01953 -0.07,1.03906 0.582,1.91015 1.5703,2.30078 0.7695,0.30859 1.3594,-0.0703 1.6289,-0.8086 M 210.27707,116.17267 c -1.2305,-0.14063 -1.9453,0.32031 -1.7109,1.1914 0.1679,0.60938 0.9179,1.26953 1.5507,1.48828 0.8438,0.28125 1.5782,-0.33984 1.3477,-1.23047 -0.1602,-0.6289 -0.8828,-1.09765 -1.1875,-1.44921 m 804.66803,136.6914 c 0.4492,-0.20312 1.1484,-0.28125 1.3203,-0.62109 0.7305,-1.44922 -0.6914,-1.66016 -1.4414,-2.23047 -0.6797,-0.51953 -1.3789,-0.69922 -1.4297,0.46875 -0.039,1.07031 0.2813,2.07031 1.5508,2.38281 m -442.78913,83.26952 c -1.5703,1 -2.332,1.25782 -2.7422,1.80078 -0.8086,1.06641 -3.1484,2.14844 -1.4804,3.56641 2,1.70313 3.0312,-0.55859 3.8515,-2.07812 0.3086,-0.58985 0.1797,-1.41016 0.3711,-3.28907 M 216.42547,117.51251 c -0.8437,0.19922 -1.4218,0.76953 -1.414,1.58984 0.016,1.0586 0.4062,2.19141 1.5547,2.41016 1.3476,0.23828 1.7187,-0.80859 1.6171,-1.94141 -0.098,-1.04687 -0.4414,-2 -1.7578,-2.05859 m 587.2383,216.35936 c 0.9688,2.44141 3.1797,0.44141 4.5313,1.3711 -0.012,-0.44922 0.168,-1.07031 -0.062,-1.33203 -1.4492,-1.64844 -2.9688,-1.32032 -4.4688,-0.0391 m -598.6406,-62.62889 c -0.035,-1.14063 -0.086,-2.42969 -1.2344,-2.60938 -1.7265,-0.28125 -1.9687,1.1875 -2.0078,2.48828 -0.027,1.05079 0.2344,2.33985 1.2891,2.53125 1.8437,0.34766 1.6679,-1.35937 1.9531,-2.41015 m 4.6562,-110.58203 c -3.2031,1.33984 -3.3164,3.51172 -2.6171,5.91015 0.094,0.32032 0.9453,0.75 1.2656,0.63282 2.7461,-0.98047 1.3203,-3.51172 1.8594,-5.32032 0.055,-0.1914 -0.1758,-0.46093 -0.5079,-1.22265 m 249.9141,167.3828 c -1.1601,-2.08984 -2.5586,-3.76953 -5.3789,-2.85156 -0.4805,0.16015 -1.0898,1.55078 -0.8789,1.9414 1.2188,2.1875 3.5078,1.57813 5.4805,1.73047 0.1484,0.008 0.3398,-0.33984 0.7773,-0.82031 M 689.88307,69.473415 c -1.1485,-0.17969 -1.9102,-0.46094 -2.6094,-0.35938 -1.9297,0.28906 -4.2578,-0.41015 -5.4297,1.92969 -0.1875,0.39062 -0.1601,1.19922 0.1094,1.44922 2.0312,1.91015 3.4219,-1.14063 5.3711,-0.76953 0.9922,0.17968 2.0312,-0.33985 2.5586,-2.25 m -347.5201,8.53909 c -1.789,-1.58984 -2.6601,-0.14063 -3.75,0.30078 -1.5585,0.62891 -5.1093,-1.35156 -4.2578,2.19922 0.4805,2.05859 3.5782,1.08984 5.4493,0.44141 1.1289,-0.38282 2.3906,-1.03125 2.5585,-2.94141 M 178.58567,246.47345 c 2.2578,-3.42969 1.0625,-6.24219 -1.1992,-9.67188 -3.3594,4.28125 -0.5938,6.88281 1.1992,9.67188 m 38.1719,-81.33985 c -0.8008,2.87891 -2.6875,5.66797 -0.8086,9.41797 3.3633,-3.30859 2.457,-6.3789 0.8086,-9.41797 m -7.9297,94.70703 c 0.4101,3.52344 -1.1719,7.45313 1.4531,11.30079 3.2266,-4.61719 0.668,-7.9375 -1.4531,-11.30079 m 152.3555,59.90234 c -1.4102,1.51953 -2.1797,2.59765 -3.1875,3.3789 -1.2735,0.99219 -1.5235,2.05079 -0.7227,3.33985 0.7617,1.22265 1.9609,1.83203 3.3516,1.42187 1.4101,-0.42968 2.0898,-1.66015 1.8984,-3.0625 -0.2305,-1.52734 -0.7773,-3.01953 -1.3398,-5.07812 m 626.25,-215.73046 c -1.3282,-6.128915 -6.3086,-5.019535 -8.711,-7.421885 -0.1367,-0.13671 -1.0586,0.20313 -1.3086,0.54297 -0.7304,0.98828 -0.4297,2.32813 0.4219,2.75782 2.6992,1.371095 5.5703,2.429685 9.5977,4.121095 m 61.53123,80.14062 c -0.2305,-5.28125 1.5781,-9.1289 -2.0312,-12.28125 -1.9297,5.83204 -1.9297,5.83204 2.0312,12.28125 m -835.75783,99.82032 c -1.7695,4 -1.6797,6.80858 -0.2813,9.5078 0.3125,0.60937 1.1563,1.30078 1.7774,1.32031 1.2148,0.0391 1.664,-1.01953 1.9453,-2.10937 0.8633,-3.35938 -1.8594,-5.23827 -3.4414,-8.71874 m 715.0469,39.37889 c 10.4687,2.67969 13.4492,1.41016 16.4492,-6.53125 -6.0391,1.05078 -10.5781,5.3711 -16.4492,6.53125 m -407.4102,6.60157 c 2.8711,1.39843 4.7891,1.75 5.0117,2.55859 0.5079,1.87109 -1.1328,2.64062 -2.8203,2.94922 -3.2422,0.60937 -6.9804,0.42187 -8,4.85937 2.5899,1.32032 5.0586,3.22266 7.8282,0.41016 3.5117,-3.57813 8.3203,-6.53906 6.0625,-12.89063 -2.8125,-0.58984 -4.1524,2.36329 -8.0821,2.11329 m 17.4805,9.41796 c 3.4687,-0.69921 5.5312,-0.25 7.6289,-0.0195 4.9023,0.51953 9.8203,0.89063 14.75,1.19922 0.9219,0.0625 2.2617,-0.0195 2.3203,-1.4375 0.031,-1.08203 -0.4297,-2.32031 -1.5391,-2.53125 -8.2187,-1.51953 -16.5507,-2.30078 -24.9101,-2.44922 -1.918,-0.0312 -4.5391,1.21875 -3.8711,3.96875 0.5703,2.35157 3.2227,0.21875 4.7109,1.32032 0.4493,0.33984 1.5,-0.1211 0.9102,-0.0508 m -147.3281,-0.69921 c 2.3203,-0.62891 4.8086,-1.37891 6.3281,2.07031 1.0312,2.32031 2.9492,2 4.4297,0.37109 1.5312,-1.71094 4.2109,-3.47265 3.5,-5.76172 -0.8985,-2.91015 -3.918,-1.58984 -6.1992,-1.41015 -1.8321,0.14062 -3.6797,-0.0703 -5.4883,0.1289 -1.8008,0.20313 -3.0117,-0.0391 -3.5821,-2.02734 -0.5781,-2.03125 -1.8203,-3.26172 -4.0898,-2 -1.8516,1.02734 -3.9102,1.98828 -4.0508,4.4375 -0.1289,2.28125 1.8008,2.98047 3.4492,3.80078 1.75,0.87109 3.5704,0.78125 5.7032,0.39063 m -148.7344,-227.1797 c -4.4883,-1.44922 -7.1953,2.5 -11.0547,2.87109 0.4531,1.51953 0.9219,2.04688 1.832,2.0586 6.7344,0.0312 6.7344,0.0312 9.1836,-4.94141 0.4336,-6.12891 0.4336,-6.12891 -5.6641,-5.17969 2.5352,1.26953 4.5625,2.78125 5.7032,5.19141 m -46.8242,157.16797 c 0.7578,-1.75782 1.1171,-3.52735 0.8242,-6.25 -1.8477,2.62109 -0.875,4.42187 -0.7617,6.17968 0.2148,1.75 0.7695,3.54297 0.5585,5.23047 -0.2187,1.75 -1.4296,4.15235 1.2032,4.08985 2.2226,-0.0391 1.4804,-2.82813 1.4179,-4.53907 -0.082,-2.23046 -0.9062,-4.01953 -3.2421,-4.71093 M 296.53097,76.871875 c -0.02,-0.78125 -0.01,-1.55859 -0.062,-2.33984 -0.051,-0.73828 -0.1562,-1.71094 -1.1055,-1.55859 -0.875,0.14843 -0.8203,1.16015 -0.7695,1.89843 0.09,1.32032 1.082,1.62891 2.1523,1.8125 -0.2734,1.20704 -0.7968,2.59766 1.0743,2.88672 1.1015,0.17969 2.2031,-0.53906 1.8789,-1.64843 -0.4258,-1.48829 -1.9258,-1.19922 -3.168,-1.05079 m 326.793,275.519535 c -2.5508,-0.39063 -5.2383,-1.50782 -7.6016,-1.03907 -7.0195,1.39844 -10.0586,-1.80859 -11.2187,-8.17968 -0.1485,-0.76954 -1.4492,-1.33985 -2.2305,-2 2.8594,-2.0586 1.6328,-4.6211 0.8711,-7.10938 1.6289,1.39844 3.2695,2.80859 4.8984,4.21094 -0.4765,1.23828 -1.0898,2.69922 0.2735,3.5664 3.2383,2.10157 10.3281,0.39063 12.3789,-2.89843 0.3711,-0.58985 0.5703,-1.51953 0.3906,-2.16016 -0.332,-1.28906 -1.543,-1.41016 -2.5508,-1.01953 -3.4609,1.32812 -6.8515,2.89844 -10.6718,2.67969 0.832,-1.82032 2.4101,-3.66797 -0.1485,-5.35157 -1.8398,-1.20703 -3.3711,-0.95703 -4.3594,1.17188 -2.332,2.12891 -1.5625,4.62109 -0.832,7.10937 -2.8086,0.23047 -3.2578,3.03125 -4.9375,4.5 -1.5195,1.30079 -3.2031,1.64063 -4.9805,0.57032 -2.3125,-1.39063 -1.082,-2.53125 -0.1211,-4.3086 2.1211,-3.92968 -1.5585,-2.40234 -3.1093,-2.83203 0,0 0.1601,0.19141 0.1601,0.19141 -3.6406,-3.94922 -4.1718,-3.89063 -8.1992,0.80859 l 0.2188,-0.008 c -3.3985,1.14844 -7.4219,1.23828 -8.9883,5.5 -0.1914,0.52734 -1.6914,1.17969 -1.9219,0.98828 -3.4297,-2.92969 -7.9883,-0.14844 -11.6719,-2.58984 -4.5664,-3.03125 -6.9375,-1.60157 -7.4883,3.92968 -0.1093,1.01172 0.3008,2.10157 0.1016,3.08204 -0.2305,1.08984 -1.1719,1.75 -2.3633,1.73046 -1.1172,-0.0312 -1.8593,-0.49218 -2.3476,-1.66015 -1.7422,-4.15235 -3.3516,-4.98047 -5.4102,-2.23047 -2.4492,3.27734 -5.0508,2.52734 -8.25,2.69922 -4.1797,0.23047 -5.0898,-1.37891 -4.8984,-4.87891 0.059,-1.24219 0.457,-2.66015 -1.043,-3.4414 -1.3476,-0.0899 -2.0976,0.92968 -2.2383,1.83984 -0.332,2.17187 -0.5703,3.28906 -3.4922,3.91016 -3.4492,0.73046 -7.4296,0.5 -10.4492,3.60937 -2.3594,2.42188 -3.6289,-0.16797 -4.2383,-2.28906 -0.5625,-1.94922 -0.1211,-4.33203 -2.9492,-4.98047 -2.8203,-0.64063 -4.25,1.71094 -6.2812,2.76172 -0.6797,0.35937 -0.8321,0.94922 -0.6289,1.91015 0.7187,3.46875 0.3984,4.08985 -1.8828,3.31641 -5.5977,-1.89844 -11.4571,1.51172 -17.8672,-1.27734 2.6484,-2.10938 3.457,-4.8711 4.957,-7.08985 2,-2.9414 5.5625,-3.91015 9.0898,-4.16015 1.293,-0.0899 2.6133,0.41015 3.9297,0.4375 2.7305,0.0703 7.9532,-3.37891 7.5821,-5.26953 -0.75,-3.89063 -4.4688,-2.46875 -6.5,-2.36719 -11.1602,0.50781 -22.3985,-0.73047 -33.5118,1.42969 -4.6484,0.89843 -8.9375,-1.85157 -13.8086,-1.72266 -10.8984,0.29297 -21.8398,0.85937 -32.7695,-0.36719 -5.4219,-0.61328 -7.6211,1.62891 -7.8398,6.29688 -0.4805,9.88281 -2.4414,10.89062 -10.9219,5.61328 -1.75,0.70703 -1.207,2.83984 -2.3984,3.89844 -0.7891,0.6914 -2.1602,2.07031 -2.3204,1.9414 -3.7382,-2.9414 -8.1796,2.04688 -11.8789,-1.08203 -0.4414,-0.37891 -1.2812,-0.14844 -1.7617,-1 -0.8203,-1.46094 -2.3711,-1.76953 -3.8203,-1 -0.3594,-5.5 1.2813,-11.08984 -0.3789,-16.69922 -3.6406,1.83985 -3.4609,5.41016 -5.0117,7.94922 -1.5391,2.51172 -4.6797,2.53906 -7.9102,2.32031 2.1211,3.85157 5.4336,1.66016 8.1328,3.44141 -3.2226,2.73047 -5.6601,5.16016 -9.7304,1.89844 -2.0196,-1.60938 -4.5508,-2.58985 -6.75,-3.80078 -0.8789,-3.87891 4.8789,-5.44922 2.8086,-9.46875 -0.8594,-1.66016 -1.6094,-3.39063 -3.3672,-4.26954 -2.8711,-1.42968 -5.7422,0.25 -9.543,5.5 -2.1094,-1.30078 -0.2891,-2.67187 -0.1172,-4.03125 0.3477,-2.78125 0.8281,-5.78125 -3.7734,-4.23828 -1.1485,0.39063 -1.7969,-0.28125 -2.5469,-1.19922 -2.4531,-3.04296 -2.5195,-2.99218 -6.8008,-3.51171 -0.3125,4.32031 -0.1523,9.01953 -5.6914,10.58984 -1.3789,0.39062 -2.6757,0.83984 -3.5937,-0.33984 -3.5391,-4.55079 -7.9961,-5.05079 -13.4961,-3.03907 4.207,-2.92968 5.5937,-6.99218 6.7461,-11.1914 -4.836,-1.8086 -9.7891,-2.16016 -14.461,-0.008 -6.8594,3.14844 -13.2969,-1.74218 -19.9805,-0.58203 -2.4296,-6.91797 -7.1289,-2.32812 -10.9453,-2.1289 -1.3359,0.0586 -3.4101,0.23047 -3.2695,-1.23047 0.5625,-5.71094 -3.3125,-3.91016 -6.1367,-3.96875 -5.3281,-0.1211 -7.5235,-2.27344 -6.9336,-7.77344 0.2031,-1.89844 0.3359,-3.06641 -1.5274,-3.62891 -1.875,-0.57812 -2.1484,0.92969 -2.4257,2.23047 -0.4688,2.17969 -2.1211,2.25 -3.6836,1.8086 -4.0664,-1.14844 -7.8828,-2.07813 -12.3789,-1.20703 -3.3125,0.6289 -5.8868,-2.04297 -4.2539,-6.25 0.7656,0.0586 1.5664,0.0195 2.3086,0.20703 2.2539,0.57031 4.6445,0.53125 4.9687,-2.12891 0.4648,-3.78906 -2.6953,-1.94141 -4.4219,-2.21875 -1.5859,-0.26953 -3.2773,-1.8789 -4.8398,0.23047 0.7695,1.41797 1.5078,2.78906 2.2422,4.14844 -1.1992,-0.42969 -2.3633,-1.53125 -3.6836,-0.60938 -0.8399,0.57813 -1.3438,1.64844 -2.1875,2.23828 -3.1446,2.17969 -7.1172,2.40235 -10.4727,2.26172 -2.6562,-0.10156 -1.4336,-4.53125 -2.5976,-6.85937 -1.3477,-2.69141 -0.2657,-6.32031 -2.8399,-8.80077 -2.6133,1.62109 -0.5469,6.05858 -4.0234,6.3203 -3.4063,0.25781 -3.5195,3.51953 -5.9258,5.42969 -4.3867,-8.4414 -2.1602,-18.23046 -6.6406,-26.98046 -3.2383,6.5 1.1054,12.67968 -0.4531,18.96093 -3.461,-2.78125 -4.2188,-6.46093 -4.4102,-10.19921 -0.3164,-6.16016 -2.7266,-11.63282 -5.0156,-17.21094 0.4179,8.4414 3.5781,16.64844 1.5156,25.87109 -4.5039,-6.96094 -4.7422,-14.58203 -6.0273,-21.85156 -0.5782,-3.28125 -1,-5.60156 -5.0235,-6.82031 -4.4844,-1.3711 -4.3164,-5.73828 -0.207,-8.39844 2.8594,-1.83984 3.5312,-10.83984 0.914,-12.44141 -2.0234,-1.23828 -3.3945,0.94922 -5.1484,1.05078 -1.957,0.0977 -4.8672,-3.41015 -5.4687,1.75 -0.1289,1.1211 -1.7657,0.14063 -2.2969,-0.73046 -0.9063,-1.48047 -0.3945,-3.07032 -0.059,-4.60938 0,0 0,0.19922 0,0.19922 -0.7617,-2.78125 -1.5274,-5.55078 -2.2891,-8.32031 -0.3047,-1.1211 -0.078,-2.16016 1.0469,-2.58985 1.2812,-0.51172 1.9414,0.37891 2.2031,1.48828 0.5274,2.25 0.4414,4.75 2.5039,6.28125 1.8946,-0.16796 2.0742,-1.5 2.3321,-2.80078 0.2461,-1.21875 -0.3008,-2.6289 0.875,-3.66797 1.7812,0.55079 2.1211,2.26954 2.6523,3.64844 1.0039,2.60156 1.5234,2.01953 3.6367,0.58985 3.1797,-2.14063 2.1367,3.48046 5.3633,3.47265 2.332,-6.62109 -1.0937,-13.67187 0.3281,-21.35156 2.2813,2.05859 2.5664,4.08984 2.4727,6.03125 -0.1485,3.14844 0.6133,5.67969 3.5078,7.26953 -3.3477,6.26953 -3.3438,6.30078 1.7539,14.03906 0.2891,-5.21093 1.0508,-9.80078 -1.8672,-13.98828 -0.6289,-1.89062 0.293,-3.61328 0.668,-5.36328 0.3594,-1.66016 -0.582,-4.58984 1.582,-4.73828 3.6875,-0.26172 1.2227,3.07031 1.9063,4.67969 0.582,1.35937 1.9492,2.60937 2.7109,1.14062 2.6016,-5.03906 4.5234,0.58985 6.7305,0.16797 -0.9883,2.73047 -0.5313,5.49219 -0.082,8.23047 1.9336,-2.69922 4.1523,-5.41016 -0.1172,-8.07031 1.4844,-7.75782 7.1797,-14.60938 4.7734,-23.62891 -1.1914,-1.87891 -3.0664,0.55078 -4.7187,0.0586 -1.0235,-0.29687 -2.1446,-0.42968 -2.4219,-1.66796 -0.2695,-1.19922 0.4141,-2.44141 1.4492,-2.3711 5.707,0.3711 3.8945,-3.17969 3.293,-6.08984 -0.1485,-0.71094 -0.5899,-1.3711 -0.8633,-1.98047 -2.5742,0.0625 -0.9766,2.96094 -2.6484,3.57031 -3.4258,-6.6289 -3.4258,-6.6289 -10.1133,-11.51953 1.9219,-1.76953 4.6797,1.19922 6.3008,-1.25781 1.4609,-2.22266 -1.0274,-4.72266 0.9804,-7.10156 2.4453,0.14062 2.0547,2.57812 2.5743,3.92968 1.4843,3.87891 4.8281,2.94141 7.3867,2.69141 3.1484,-0.32031 3.0547,-3.17188 2.5234,-5.62109 -1.0078,-4.64063 0.2109,-9.58985 -1.9219,-14.07032 -1.5468,-3.25 -2.5156,-3.30859 -4.9726,-0.0703 -0.4531,0.58984 -0.6563,1.80078 -1.4531,1.53906 -2.3125,-0.76953 -4.4571,-2.39843 -7.0196,-0.76953 -0.6914,-1.39844 -1.7109,-2.73828 -2.0156,-4.21875 -0.8164,-3.98047 -0.3633,-8.71875 -6.75,-8.21875 -0.6797,0.0586 -1.3906,-2.04297 -0.5469,-2.66015 2.086,-1.51954 4.5586,-2.67188 7.1836,-2.49219 3.0977,0.21094 2.0625,3.10156 2.6836,4.91015 0.062,0.17188 0.3945,0.26172 1.2422,0.76954 0.832,-4.32032 -0.5117,-8.76954 1.1367,-12.75782 2.9063,0.94922 2.1094,3.95703 4.0508,5.25 3.1094,-0.76172 1.8203,-7.01953 7.0508,-5.75 0.8633,0.20703 1.7617,-3.40234 1.3672,-5.65234 -0.5899,-3.35938 -1,-6.75781 -1.4063,-10.16016 -0.2656,-2.23047 -0.5547,-4.6875 3.0781,-3.36718 2.1407,0.78906 2.9375,-0.45313 3.3594,-2.14063 0.4727,-1.89062 -0.3984,-3.10937 -2.2851,-3.39062 -2.1016,-0.32032 -4.1602,-0.30079 -4.7618,-3.14063 -0.6992,-3.320315 -1.9296,-6.507815 -2.7031,-9.820315 -0.2226,-0.9375 0.3242,-2.10938 1.6055,-2.35938 0.8398,-0.16015 1.5039,0.19141 2.0586,0.8711 1.0898,1.33984 1.4258,3.52734 3.9414,3.5 2,-1.94922 -2.8945,-6.88282 2.9297,-7.19922 0.5898,1.83984 0.1601,4.47656 3.332,4.26953 0.2188,-0.0117 0.5898,-0.23047 0.6133,-0.39063 0.418,-2.76953 -2.4258,-2.03906 -3.4961,-3.23046 -0.1719,-0.19141 -0.418,-0.30079 -0.6289,-0.44922 3.1797,-2.19922 6.2539,-1.89063 8.0781,1.44922 1.6602,3.03125 4.3164,6.39062 0.8633,10.05859 -0.5274,0.5625 -0.6797,1.570315 -1.2734,1.960945 -6.9024,4.53906 -7.0743,4.96093 -4.3477,12.67968 0.066,0.19141 0.4023,0.28125 1,0.67969 2.6367,-0.9375 4.5469,-3.75781 7.832,-4.28906 1.4063,-0.21875 1.461,-2.58984 -0.1836,-3.80078 -1.1172,-0.82813 -2.7148,1.51953 -3.2695,0.0117 -0.4297,-1.17188 2.1875,-1.8125 2.3594,-2.75 0.8789,-4.902355 3.4687,-9.601575 2.0039,-15.230475 2.6133,4.89844 7.5234,6.57812 11.6172,5.69922 3.9023,-0.82813 7.9961,-0.60938 11.8086,-2.03907 2.25,-0.83984 4.2148,-2.30078 3.7695,-4.37109 -0.4023,-1.87891 -1.3516,-4.92969 -4.6875,-4.05859 -2.6758,0.6875 -3.4688,-0.75 -3.332,-2.89063 0.1172,-1.82031 1.6953,-1.48047 3.0234,-1.51172 5.1094,-0.1289 5.1016,-0.16797 4.1094,-5.66015 -0.09,-0.5 0.1054,-1.04688 0.098,-1.57813 -0.01,-0.78125 -0.078,-1.55859 -0.125,-2.39062 -2.4922,-1.44141 -5.0039,2.03125 -7.8125,-0.44922 2.3633,-3.85938 7.2109,-3.48047 10.2929,-5.90235 0.7305,3.61329 6.5118,3.38282 6.2969,5.99219 -0.4492,5.39063 1.8164,2.66016 3.8711,2.10156 1.0274,-0.28125 1.9883,0.5 2.6211,1.48829 0.3125,3.21875 -5.5234,2.17968 -4.1484,5.28125 1.2968,2.91015 4.8242,-0.33204 7.1679,1.05859 0.5977,0.35937 1.4805,-0.0195 2.0118,-1.26172 -0.9415,-2.27734 -3.3438,-3.46875 -5.2344,-5.12891 1.375,0.19922 2.6406,0.23047 3.0312,-1.53906 0.418,-1.91015 1.6758,-2.58984 3.5235,-2.21094 5.4297,1.15235 9.4804,-1.98828 14.0273,-4.08984 5.9453,-2.73828 12.2617,-4.69922 17.582,1.69922 0.8829,1.0625 2.4493,1.40234 3.6758,1.10156 2.4922,-0.62109 6.7656,-2.75 7.0196,-2.30859 1.8007,3.04687 4.6055,2.33984 7.0352,2.5 3.8359,0.25781 7.996,1.13672 10.207,-3.67188 0.5,-1.08984 2.1406,-1.76953 3.4492,-0.71093 1.0195,0.83203 0.8125,1.78125 -0.207,2.65234 -1.1133,0.92969 -0.961,1.54687 0.5078,2 5.3594,1.64844 8.8398,0.57031 12.3906,-4.33984 2.0508,1.58984 2.5586,5.07812 5.9688,5.07812 3.082,0 4.5,-1.76953 6.4023,-3.78906 2.3203,-2.46875 6.1289,-1.10938 10.2695,2.8789 2.6993,-0.66796 0.1485,-5.96093 4.4297,-5.16015 4.7696,0.89062 10.2383,-2.14063 14.3399,2.55078 -1.7696,0.57031 -3.7891,0.67187 -6.1914,3.60937 3.3007,-1.32812 7.0312,1.26172 5.9609,-3.80078 4.0195,-1.66797 8.2109,-3.8789 9.0195,3.33203 0.09,0.8086 1.5391,1.07813 1.8789,0.34766 1.9102,-4.12891 3.2813,-1.26953 4.961,0.17188 1.7695,1.51171 4.082,0.78125 6.1289,1.01953 3.2226,0.35937 6.3203,0.30078 3.6406,-4.51953 -1,-1.80079 0.6524,-3.30079 1.6914,-4.85157 2.25,1.64063 2.3985,3.94141 2.3203,6.3125 l -0.012,-0.082 c 3.832,2.53125 7.3399,4.42969 12.6406,3.01172 8.3711,-2.24219 17.1407,-0.082 25.7305,-0.0312 2.9219,0.0117 6.1602,1.44141 7.7891,5.71094 2.1093,-6.33203 6.9414,-8.48047 11.4726,-12.8711 -3.3711,8.01172 -3.3711,7.82032 3.8164,7.53125 6.293,-0.26171 12.5625,0.67969 18.8008,1.03907 7.4414,0.42968 15.2227,0.66015 22.6524,-1.48828 0.6992,-0.20313 1.8398,-0.78125 1.8398,-1.17188 -0.043,-5.80859 4.75,-2.69922 7.1406,-3.94141 l -0.1914,-0.13671 c -0.6914,0.78906 -1.4805,1.50781 -2.0508,2.3789 -1.0078,1.51953 -2.3007,3.14063 -0.6484,4.96875 1.3594,1.5 2.9687,0.47266 4.4375,0.14063 2.3203,-0.51953 4.582,-1.26953 6.9102,-1.69922 2.4531,-0.46094 4.2695,-1.89063 5.7929,-3.85156 2.1367,2.21093 -1.1836,4.32031 0.6485,5.9414 6.4492,0.51953 12.7382,0.25 17.9296,-4.42969 0.3399,-0.30078 0.8907,-0.35937 1.3516,-0.53906 -0.051,6.28906 5.3672,0.008 7.4375,3.23828 1.3516,2.10157 3.7617,-3.10937 5.9805,-1.71093 3.9219,2.47265 3.8398,-0.9375 4.7617,-2.80079 3.3984,-6.80859 16.75,-7.20703 21.3398,-4.70703 0.5391,0.30078 0.3594,1.95703 0.5,2.96875 -3.7226,-0.16015 -3.7226,-0.16015 -2.582,4.30078 1.7305,-1.01953 1.7305,-2.94921 2.4102,-4.51171 8.9297,1.88281 18.0117,1.30078 27.0312,1.65234 2.1094,0.0898 3.9414,-0.17188 5.3516,2.17969 1.8476,3.07812 5.8476,1.73047 8.5976,3.32031 1.4297,0.82812 3.2813,0.14844 4.1719,-1.3125 1.1602,-1.91016 -0.7812,-2.67969 -1.793,-3.77734 -0.289,-0.32032 -0.289,-0.91016 -0.4179,-1.38282 0.6914,-1.07031 1.6601,-1.34765 2.5781,-0.5 2.8711,2.67188 4.4219,1.53125 5.9531,-1.52734 0.8477,-1.69141 1.4492,-1.57031 2.2696,1.02734 0.4375,1.38282 1.2773,1.71094 2.1796,1.47266 3.2774,-0.85156 6.711,-0.33203 9.9688,-2.08984 3.6211,-1.96094 7.5,-4.58204 10.8203,1.75 1.75,3.33984 6.6602,-0.16016 7.8008,-1.60157 2.2695,-2.89843 3.9805,-2.10937 6.6797,-1.66797 3.289,0.52735 6.539,1.58985 10.1211,0.86719 3.3789,-0.66797 5.3789,3.91016 9.1093,3.44141 0.6602,0.3789 1.3086,0.73828 1.8789,1.19922 0.5586,0.46093 1.0391,1.01172 1.5586,1.51953 0.2032,-0.34766 0.6524,-0.8086 0.5508,-1.02735 -0.2773,-0.65234 -0.6875,-1.58203 -1.2187,-1.70312 -0.9219,-0.23047 -1.9805,0.0625 -2.9805,0.13281 0.059,-2.13281 0.8086,-3.52344 3.2617,-3.55078 4.4102,-0.0703 8.7774,0.0781 13.2383,-0.33984 5.0391,-0.48047 7.6992,4.55859 9.2109,10.07031 1.9688,-2.42188 4.0079,-4.16016 7.1289,-3.90234 4.3907,0.35937 8.1211,-0.9375 9.6915,-5.26954 3.8476,1.16016 1.6406,4.44922 3.0976,6.21875 2.4102,0.0312 2.7617,-2.09765 3.9024,-3.41796 1.2773,-1.48829 2.7968,-4.12891 4.0585,0.1289 0.4493,1.5 1.5586,0.98047 2.5313,0.42969 3.3984,-1.89844 8.75,-1.98047 11.918,0.30078 1.5703,1.12891 2.2695,2.03906 3.1328,-0.48047 0.5273,-1.55078 2.0781,-1.17969 3.4062,-1.09765 4.211,0.28906 8.4336,0.48046 12.6328,0.76953 1.0508,0.0781 2.0782,0.42968 3.1094,0.66797 2.4688,0.58203 4.0391,-7.70704 7.1485,-0.71875 3.6718,-2.92188 7.1718,1.39062 11.1406,0.14062 3.4219,-1.08203 6.9804,1.80078 10.4922,2.4375 3.9375,0.72266 8.2187,-0.58984 12.2773,-0.1875 7.043,0.6875 14.0117,2.67969 21.1328,1.62891 9.5196,-1.41016 18.8164,2.35937 28.3086,0.8789 0.711,-0.11718 1.6211,-0.0586 2.1914,0.3125 1.9571,1.26953 2.0899,4.67969 4.5977,4.9375 1.4804,0.15235 1.0117,-3.25 4.3906,-3.07031 6.4297,0.33203 6.4609,-0.33984 9.1914,5.94141 2.1484,-0.42969 4.0391,-2.23047 6.6094,-0.82813 2.168,1.17969 4.8203,0.48828 6.9687,-0.20312 5.9922,-1.91797 9.5196,-1.27735 13.2891,3.23047 0.8398,1.01171 2.2617,2.82031 2.9102,1.71093 2.3125,-3.94922 6.2031,-1.23828 8.8203,-2.67968 2.2812,-1.25 3.9023,-1.3086 5.582,0.51953 1.2578,1.3789 3.1289,2.03125 4.1094,0.6289 2.1679,-3.05859 5.8593,2.92188 7.6211,-1.57812 0.1875,-0.48047 1.8867,0.50781 1.9882,1.73047 0.5899,7.78906 4.9688,10.6289 12.4219,9.73047 2.5469,-0.3125 4.0391,2.32812 6.4492,2.60937 0.5079,2.39063 -1.8828,3.75781 -1.8125,5.937505 0.07,2.27344 0.062,4.01172 3.293,4.13281 2.1484,0.0781 4.25,1.58985 6.64843,2.57032 -2.78123,5.13671 -7.48823,3.08984 -10.50003,2.26953 -3.4101,-0.92969 -6.2304,0.41797 -9.3203,0.26953 -2.3593,-0.1211 -1.4492,2.25 -3.25,4.44922 8.6914,-2.92969 15.6407,-3.25 22.0703,1.78125 2.58213,2.01953 6.19933,-2.16016 8.87903,0.98828 6.582,-1.08985 12.6406,2.1914 19.2617,2.26172 5.4297,0.0586 10.8984,3.71093 16.1679,6.16015 1.0821,0.5 1.9024,2.71875 1.9102,4.16016 0.043,4.98047 3,9.51953 1.5312,14.37891 2.3008,1.16796 3.129,-1.10938 4.7305,-1.08985 3.0391,0.0508 4.7578,2.33985 3.6485,5.23828 -0.5196,1.36328 -1.6797,2.65235 -2.5274,0.30078 -1.1914,-3.32031 -2.9219,-1.30859 -4.2695,-0.53125 -1.9727,1.14063 -1.1328,2.65235 -0.012,3.96094 1.2617,1.46094 0.6289,6.23047 4.9609,2.19922 1.9805,-1.83984 3.7383,0.76172 4.0195,3.12109 0.6094,5.25 1.168,10.5 1.5782,15.76954 0.582,7.30078 0.1523,14.75 3.3828,21.62109 2.1093,4.46875 -2.4024,4.10937 -4.7422,5.82031 3.789,2.19922 8.4609,0.28906 11.3125,3.69922 -4.6328,2.41016 -4.6211,2.41016 -4.3008,8.51953 0.039,0.78125 0.3594,2.07031 0.027,2.28125 -4.039,2.53125 -6.0078,5.75781 -4.1679,10.57031 0.051,0.12891 -0.3711,0.6211 -0.4414,0.58985 -4.3789,-1.49219 -6.8203,3.60937 -10.1993,3.33984 -2.9414,-0.23047 -4.0781,2.23828 -5.7812,2.23828 -2.1289,0.0117 -4.3672,-1.36718 -6.75,-1.79687 -4.2773,-0.78125 -8.0898,1.55859 -12.7188,0.60937 0.9805,12.16016 2.0586,23.61719 3.9415,35.1875 -3.8594,-0.94922 -2.4102,-5.98828 -5.9297,-7.59765 -1.3321,3.55859 -2.0821,6.76953 0.4492,9.73828 1.289,1.53125 1.7578,3.10156 1.8086,5.05078 0.062,2.12891 0.3906,3.66016 3.2422,1.69141 2.1172,-1.46094 2.5273,1.19921 2.6172,2.48828 0.09,1.28906 -0.6875,2.71875 -2.5274,1.55078 -4.1719,-2.64063 -4.6797,0.41015 -5.3906,3.8789 -2.3711,-2.28906 -2,-5.05078 -2.0117,-7.48046 -0.02,-3.39063 -1.9805,-4.62891 -4.7188,-5.39844 1.3086,-2 3.2891,-3.85938 1.668,-6.96094 -2.6602,2.28906 -0.6797,4.91016 -1.6094,6.98047 2.1094,4.94141 0.8711,9.82812 0.1992,16.30078 -3.0781,-4.35937 -0.4883,-9.58203 -5.3984,-11.41016 -2.7695,0.89063 -0.09,5.25 -3.3594,5.9375 -0.3515,-0.38671 -0.9492,-0.72656 -0.9922,-1.1289 -0.75,-6.6211 -0.7265,-6.66016 -7.20703,-7.66016 -2.1523,-0.32812 -3.9805,-0.96094 -4.6992,-3.4375 -0.7735,3.86719 -0.7735,3.86719 0.4179,8.82031 2.1915,0.85938 2,-2.27343 3.5704,-2.20312 1.80863,0.082 2.62113,1.66016 3.35933,2.98047 1.8594,3.37109 1.2696,4.91015 -3.16793,6.60156 -4.0313,1.52734 -2.3203,5.26952 -3.5899,7.82812 l 0.2266,-0.20704 c -3.4297,-5.69139 -3.4297,-5.69139 -13.5781,-5.3828 -1.4688,1.53125 0.07,2.94141 0.1992,4.40234 0.2422,2.61718 -0.8008,3.67968 -3.5391,3.96875 -4.3398,0.46093 -8.7109,1.07812 -13.3789,2.91015 2.7695,2.23828 5.7891,2.14063 8.75,2.58985 3.0078,0.44921 5.9688,1.42968 3.5469,5.66015 -1.3867,2.41016 0.082,3.32031 2.3008,3.57031 1.2617,0.14063 2.6523,-0.28125 4.2304,1.58985 -4.6289,0.75 -7.3203,6.58984 -12.8906,3.12109 1.1406,-0.15234 2.7422,0.32813 2.4805,-1.71094 -0.051,-0.3789 -0.668,-1.01953 -0.961,-0.98046 -1.9375,0.23046 -1.0273,1.85156 -1.289,2.91015 -1.0508,-0.10156 -2.0977,-0.33984 -3.1406,-0.26953 -2.629,0.14844 -5.8086,0.23047 -6.6875,3.05078 -1.0196,3.26953 3.9882,1.79688 4.5468,5.22656 -2.9765,-1.59765 -5.8398,-2.29687 -8.7968,-2.63671 -6.4102,-0.73047 -6.4024,-0.82032 -7.6407,6.69921 3.1797,1.03125 6.7188,-0.65234 9.9805,1.00782 -1.8398,4.36328 -4.7109,2.41015 -7.3398,1.61328 h 0.027 c -0.7383,-0.23047 -1.5,-0.70313 -2.2188,-0.66016 -3.4492,0.1875 -1.9101,4.17969 -3.8007,5.27735 -3.1875,1.85937 -1.2383,3.79296 -0.1602,6.67187 -4.0898,-1.69922 -7.1484,-1.24219 -10.6484,1.03906 -3.6211,2.3711 -8.5,4.16016 -12.8907,-0.82812 5.0704,0.23828 5.0508,-4.20313 8.2305,-8.03125 -5.5117,2.03906 -8.5508,5.10937 -12.0117,7.3789 -1.1289,0.75 -2.1602,2.01954 -3.2969,0.8711 -3.0508,-3.07031 -8.0508,-0.75 -10.8633,-5.48047 -1.3086,4.48047 -2.5195,7.69922 -5.5273,12.57031 0.418,-5.73047 -0.8828,-8.33984 -4.7422,-9.87109 -4.9492,-1.96875 -8.3789,-0.66797 -8.8476,4.76172 -0.2813,3.14843 -1.4727,3.1289 -4.0704,2.80078 -5.789,-0.75 -11.289,0.80859 -16.2812,3.64844 -1.9805,1.10937 -3.0195,0.39843 -3.9609,-0.85157 -1.7579,-2.32812 -3.3672,-4.38672 -6.1797,-1.21875 -0.3008,0.33985 -1.2774,0.64063 -1.3086,0.58985 -3.7891,-6.46875 -7.0196,-0.26953 -10.3907,0.53906 -1.789,0.44141 -2.6796,-0.0391 -4.1093,-1.07031 -2.5508,-1.8086 -5.6719,-2.71875 -8.8516,-3.07813 -2.6992,-0.30859 -5.0703,-0.46875 -6.5273,2.8086 -1.543,3.51171 -4.5508,4.32031 -8.1328,3.13281 0.1601,-1.53125 0.9609,-1.64063 1.6718,-1.98047 1.2891,-0.60938 3.7305,0.39844 3.7891,-1.82031 0.07,-2.17969 -0.8984,-4.19141 -3.8281,-3.85157 -1.9024,0.21094 -2.211,-2.08984 -3.8125,-2.46093 -1.7188,-0.39844 -3.2696,-0.36719 -3.8594,1.55078 -1.5899,5.30078 -6.1602,3.78906 -9.8086,4.3125 -0.1797,0.0195 -0.5508,-1.3711 -0.832,-2.08985 l 0.02,-0.0508 c -3.3984,-3.71093 -7.207,-6.88281 -12.5977,-6.01172 -2.6601,0.42188 -2.2812,-3.3789 -4.6992,-2.64062 0.4492,-1.57813 1.8477,-3.41797 -0.9726,-4.16797 -1.0977,-0.30078 -2.1993,0.30078 -2.3282,1.37109 -0.332,2.75 1.75,2.54688 3.5391,2.57813 -1.0703,1.12891 -1.9609,2.51172 -3.9609,1.85156 -0.8985,-0.30078 -2.6094,-0.35156 -2.2188,1.03906 2.0313,7.1211 -6.0586,4.16016 -7.7422,7.82032 -0.5273,1.16797 -2.9765,-0.0117 -3.3984,-1.83985 -0.5899,-2.54297 -1.7188,-5.33984 -1.168,-7.6914 0.8672,-3.71094 -2.9922,-2.96094 -3.8008,-5.08985 -0.9023,-2.42968 -2.5,-0.28125 -3.8007,0.17969 -0.4805,0.17969 -1.0313,0.33984 -1.5313,0.30078 -4.7187,-0.35156 -6.3672,1.5586 -4.7773,6.16016 0.3476,1.03125 -0.2227,2.39844 -1.1914,2.71875 -2.25,0.74219 -1.5313,-1.3086 -1.8008,-2.32813 -0.5977,-2.25 -2.3086,-2.25 -3.6485,-1.30078 -1.6406,1.16797 -3.7109,1.6211 -4.8711,3.78125 -1.5507,2.87891 -5.0898,2.38672 -7.789,3.25781 -0.7695,0.25 -1.3399,-0.67968 -1.25,-1.51953 0.051,-0.46093 0.3711,-1.10156 0.75,-1.28906 1.8281,-0.92969 4.1484,1.39063 6.25,-1.26953 -2.0703,-1.37109 -4.332,-1.26172 -6.5,-1.51172 -3.582,-0.39062 -5.7617,0.24219 -4.4492,4.69141 0.8398,2.8789 -0.1524,5.1289 -3.4922,5.82812 -2.3203,0.49219 -3.7383,2.96094 -6.5977,3.07031 0.6094,-3.05078 -2.1133,-6.25 0.9375,-9.12109 0.4414,-0.41797 0.039,-1.51953 0.8906,-2 1.1993,-0.66797 4.3204,2.58984 3.6407,-1.37891 -0.3711,-2.17968 -3.2305,-0.76953 -4.9219,-1.07812 -4.3203,-0.76953 -6.8594,1.39062 -7.168,5.58984 -2.6797,0.16797 -2.832,-1.62109 -3.6523,-2.92968 -0.8399,-1.33985 -2.3086,-1.54297 -2.8789,0.25 -0.6875,2.19921 -1.5586,1.51953 -2.7696,0.59765 -1.25,-0.94922 -2.539,-1.71094 -4.1015,-2.26953 -6.1602,-2.16797 -6.1172,-2.26953 -6.668,4.82031 h 0.019 c -1.0117,-1.35156 -1.6914,-0.80859 -1.8593,0.48047 -0.3086,2.46094 3.5898,2.08985 3.3984,4.64063 -6.9805,0.0273 -7.7891,-0.46094 -8.3398,-5.94141 -0.2383,-2.35937 0.1406,-4.76953 -2.3985,-6.21875 -2.6406,-1.5 -5.7812,-0.73047 -7.3008,2.14844 -0.9492,1.80078 -1.4609,3.82031 -2.1679,5.76172 -2.711,-0.0703 -4.8828,-0.60938 -5.4414,-3.58985 1.1797,-0.92968 4.2304,0.66797 3.6289,-2.51172 -0.2188,-1.17968 -1.418,-2.73828 -2.8008,-2.03125 -2.0703,1.0625 -1.418,3.02344 -0.5977,4.75 -5.9218,6.48047 -6.4609,6.59375 -14.7421,2.94141 0.3398,-2.55078 0.7109,-5.12109 1.0195,-7.69922 0.1719,-1.46875 -0.3086,-2.58984 -1.9375,-2.83203 -1.6992,-0.25 -2.332,0.91016 -2.5899,2.26172 -0.7421,3.83984 -1.6914,7.66016 -1.9726,11.53125 -0.1992,2.77734 -0.957,3.39844 -3.7695,3.39844 -5.8399,-0.0195 -11.4493,3.57031 -17.5274,1.30078 3.9805,-2.08203 8.0391,-3.96094 12.7891,-4.3711 -0.8321,-2.32812 -1.3907,-4.03125 -2.0508,-5.6875 -0.4688,-1.1914 -1.8008,-1.5625 -2.5313,-0.9414 -2.7578,2.33984 -5.7265,4.19922 -8.8984,5.96094 -2.2891,1.26953 -0.6797,3.64843 0.9297,5.1875"
     id="path119" />
</svg>
