<?xml version="1.0" encoding="UTF-8" standalone="no"?>
<svg
   width="1200"
   height="400"
   viewBox="0 0 1200 400"
   version="1.1"
   id="svg728"
   xmlns="http://www.w3.org/2000/svg"
   xmlns:svg="http://www.w3.org/2000/svg">
  <defs
     id="defs728" />
  <path
     fill-rule="evenodd"
     fill="#000000"
     fill-opacity="1"
     d="m 331.17766,88.574893 c 0.07,-0.8906 -0.3594,-1.4414 -1.2305,-1.3711 -0.8203,0.051 -1.25,0.6523 -1.3398,1.4805 -0.07,0.7617 0,1.6523 0.7891,1.7695 1.2695,0.2031 1.5625,-0.8867 1.7812,-1.8789 m 24.5586,31.671897 c 0.3516,-1.0508 -0.5781,-1.3399 -1.1172,-1.8321 -0.8125,-0.7382 -1.4726,-0.1289 -2.0508,0.3789 -0.5625,0.4922 -0.4492,1.0313 0.2383,1.2227 0.9492,0.2578 1.8906,1.0703 2.9297,0.2305 m 627.2305,7.7695 c -0.8399,0.1602 -1.3477,0.8008 -1.1289,1.5 0.1796,0.5703 0.8281,1.168 1.4179,1.418 0.7422,0.3203 1.5,-0.051 1.4922,-0.9805 -0.012,-1.1094 -0.6406,-1.8086 -1.7812,-1.9375 m -627.5899,2.6797 c -0.8789,0.3476 -1.0195,0.7578 -0.7109,1.3398 0.4609,0.8477 0.4805,2.1797 1.9336,2.0196 0.6484,-0.082 0.9062,-0.6211 0.5586,-1.1289 -0.5508,-0.8204 -1.2305,-1.5508 -1.7813,-2.2305 m -72.2187,1.9101 c -1.0821,-0.019 -1.5196,0.7305 -1.1719,1.3789 0.293,0.5704 1.1602,0.9883 1.8516,1.1797 0.8007,0.1993 1.7617,-0.2812 1.6093,-1.1211 -0.1992,-1.0976 -1.4609,-1.1796 -2.289,-1.4375 m 65.8984,5.1407 c 0.7227,-1.3907 -0.4101,-1.3711 -0.9883,-1.5235 -1.039,-0.2695 -2.1406,-0.039 -2.6914,0.9102 -0.3789,0.6601 -0.027,1.6328 0.7227,1.9023 1.3672,0.4805 2.4687,-0.02 2.957,-1.289 m -36.6875,8.289 c -0.8828,0.059 -1.6328,0.3008 -1.4023,1.3086 0.1015,0.461 0.5,0.9414 0.9023,1.211 1,0.6484 1.3203,-0.1485 1.457,-0.8985 0.1602,-0.8008 -0.09,-1.4726 -0.957,-1.6211 m -44.1719,9.3086 c 0.2813,-0.9609 -0.3398,-1.4179 -1.0781,-1.4883 -0.6797,-0.07 -1.8516,0.02 -2.0117,0.3907 -0.4688,1.0898 0.5195,1.707 1.3789,2.0078 0.7031,0.25 1.3516,-0.211 1.7109,-0.9102 m 108.5118,5.1992 c 0.8789,0 1.5468,-0.3984 1.7773,-1.2265 0.2227,-0.8008 -0.1094,-1.5821 -0.957,-1.7422 -0.8633,-0.1484 -1.5235,0.4414 -1.7813,1.2305 -0.2617,0.8203 0.1602,1.4179 0.961,1.7382 m 529.9687,70.7501 c 0.8711,-0.078 1.3594,-0.6172 1.3789,-1.418 0.012,-0.8594 -0.707,-1.3398 -1.418,-1.3008 -0.6211,0.031 -1.6718,0.4805 -1.7109,0.8399 -0.1211,1.082 0.6484,1.7305 1.75,1.8789 m 59.1914,29.6133 c 1.2891,0.1172 1.7383,-0.4805 1.8281,-1.25 0.082,-0.7227 -0.1914,-1.5508 -1.0976,-1.4414 -0.9219,0.1093 -2.0235,0.4882 -2.043,1.6015 0,0.418 1,0.8477 1.3125,1.0899 m -747.832,9.9492 c -0.5781,-0.1992 -1.2188,-0.6016 -1.8594,-0.6211 -0.7695,-0.02 -1.6289,0.3906 -1.0586,1.3516 0.3203,0.5273 1.1289,1.0078 1.75,1.0586 0.918,0.078 1.1094,-0.7813 1.168,-1.7891 m 815.55084,30.1289 c -0.3789,-1.2617 -1.4883,-1.4609 -2.5118,-1.4492 -0.6992,0.019 -1.9882,0.5312 -2,0.8594 -0.078,2.0312 1.711,1.4414 2.8321,1.6601 0.6914,0.1406 1.5,-0.1094 1.6797,-1.0703 m -718.80084,12.6289 c -0.3985,0.2109 -1.1485,0.4023 -1.168,0.6211 -0.031,0.8203 0.5391,1.3789 1.3281,1.5703 0.75,0.168 1.5118,-0.019 1.4219,-0.9609 -0.062,-0.8203 -0.7812,-1.1602 -1.582,-1.2305 m 272.4101,14.6602 c -1.6484,-1.3789 -3.1914,-1.8086 -4.9687,-0.2071 1.6406,1.1797 3.168,1.6992 4.9687,0.2071 m 126.2422,0.7109 c 0.3594,-1.1016 -0.2422,-1.6289 -1.082,-1.3398 -0.5899,0.1992 -1.1211,1 -1.3711,1.6406 -0.2695,0.7383 0.1016,1.6875 0.9023,1.7578 1.3985,0.1211 1.0274,-1.3984 1.5508,-2.0586 m -235.8398,4.6602 c -0.6133,0.2304 -1.6836,0.3203 -1.9219,0.8203 -0.3398,0.6992 0.1992,1.7109 1.1289,1.6601 0.7109,-0.031 1.6406,-0.4922 2.0313,-1.0586 0.8984,-1.3008 -0.5899,-0.9414 -1.2383,-1.4218 M 335.32606,72.805393 c 0.5313,-0.7618 1.3907,-1.4883 1.5118,-2.3399 0.1289,-0.8594 -0.9805,-1.0703 -1.6289,-0.7695 -0.9024,0.4101 -1.5313,1.2305 -1.2422,2.3008 0.082,0.2968 0.7304,0.4492 1.3593,0.8086 m -58.3789,252.519497 c -0.02,-1.1093 -0.3281,-2.0312 -1.6484,-1.9882 -0.793,0.027 -1.5117,0.4296 -1.4805,1.3671 0.031,1.1016 0.5899,1.9415 1.7696,2.0313 0.8789,0.07 1.2695,-0.5898 1.3593,-1.4102 m 16.25,-8.9609 c 0.2422,-1.1797 -0.051,-2.0781 -1.4414,-1.9687 -1.0586,0.078 -2.0078,0.6093 -2.0468,1.8515 -0.043,1.1289 0.5781,2.0899 1.6992,2.1797 1.25,0.09 1.4492,-1.1406 1.789,-2.0625 m 4.3907,-7.0273 c 0.3203,-0.7618 -0.6602,-1.1602 -1.211,-1.25 -1.4492,-0.25 -3.0195,-0.3907 -3.5273,1.6171 -0.2422,0.9532 0.4297,1.6016 1.0273,1.711 1.5313,0.3008 3,0.051 3.711,-2.0781 m 637.8086,-17.6133 c 0.9218,0.4414 1.7929,0.8633 2.6718,1.2617 1.0313,0.4492 2.1094,0.5195 2.418,-0.7617 0.293,-1.2266 -0.6875,-1.8672 -1.7969,-1.8789 -1.0898,-0.01 -2.4922,-0.5899 -3.2929,1.3789 m 57.7031,-49.8985 c -0.3321,-0.8007 -0.8711,-1.4101 -1.7735,-1.0898 -0.4101,0.1484 -0.8984,0.6992 -0.9492,1.1211 -0.1094,0.8672 0.4727,1.4805 1.3516,1.4492 0.8476,-0.019 1.3203,-0.6211 1.3711,-1.4805 m -589.543,-62.0586 c 1.3906,1.6094 2.7422,0.7383 3.9414,0.7383 1.2383,0 1.9297,-0.8477 1.4688,-2.0899 -0.3008,-0.8086 -1.0274,-0.8789 -1.8477,-0.4492 -1.0898,0.5586 -2.7226,-0.1914 -3.5625,1.8008 m -184.4492,-28.8906 c 0.5117,-0.4492 2.0117,-0.1094 1.6289,-1.7813 -0.2695,-1.1875 -1.1992,-1.6484 -2.2891,-1.6679 -1.1406,-0.031 -2.0507,0.4687 -1.8984,1.8281 0.1484,1.3008 1.25,1.4219 2.5586,1.6211 m 15.4297,-9.5899 c -1.0977,-0.1992 -1.8203,0.1094 -1.918,0.9492 -0.1328,1.2305 0.9102,1.7188 1.8203,2.0704 0.75,0.2812 1.6289,-0.1719 1.5977,-0.9297 -0.039,-0.9805 -0.75,-1.7891 -1.5,-2.0899 m 65.1992,-61.941397 c 0,0.3321 -0.01,0.6719 -0.02,1.0117 0.7695,0.078 1.5312,0.1485 2.2812,0.2579 1.3281,0.2109 2.668,0.332 3.5,-0.9688 0.1992,-0.3086 0.019,-1.1289 -0.2812,-1.4219 -1.3672,-1.2968 -2.25,0.4102 -3.3907,0.6524 -0.6875,0.1601 -1.3867,0.3086 -2.0898,0.4687 M 1005.5874,297.05539 c -0.961,0.1094 -2.1485,0.1289 -1.9414,1.6289 0.1601,1.1797 1.1523,1.7227 2.2226,1.8906 1.2305,0.1797 2.0586,-0.5 2,-1.7187 -0.062,-1.2305 -1.1016,-1.6524 -2.2812,-1.8008 m 2.2695,-2.0312 c 1.3008,-0.5196 0.7695,-1.6407 0.7891,-2.5391 0.012,-0.8984 -0.5469,-1.3594 -1.3985,-1.1016 -1.2305,0.3828 -1.2617,1.4024 -1.0312,2.4532 0.1797,0.8671 0.8125,1.1796 1.6406,1.1875 m 48.3008,-95.8985 c -1.0508,0.3086 -2.6407,0.1992 -2.3399,2.0781 0.1797,1.1328 1.1992,1.7305 2.211,1.7812 1.3672,0.051 2.457,-0.5195 2.2578,-2.25 -0.1406,-1.2617 -0.8711,-1.6992 -2.1289,-1.6093 m -667.83214,-18.0117 c 0.8204,-0.1407 1.6016,-0.4883 1.6133,-1.379 0.01,-1.3593 -0.4922,-2.6601 -1.9804,-2.8906 -1.0625,-0.1601 -2.2032,0.6602 -2.0508,1.711 0.1797,1.1601 0.8281,2.4609 2.4179,2.5586 m -3.7187,-33.1407 c 0.5312,-2.8476 -0.1094,-4.4375 -2.0391,-5.2968 -0.3515,-0.1524 -1.2695,0.1484 -1.3789,0.4492 -0.8828,2.3906 2.0391,2.6289 2.5586,4.289 0.059,0.1914 0.418,0.2891 0.8594,0.5586 m -69.8789,-11.457 c -0.1289,-0.9609 0,-2.2617 -1.5703,-1.9102 -1.2891,0.2891 -2.4102,1.1094 -2.4805,2.5704 -0.059,1.1093 0.6797,2.1093 1.8203,2.039 1.4492,-0.1015 2.0391,-1.3008 2.2305,-2.6992 m 26.4297,162.4375 c -2.4297,-0.3203 -3.6914,-0.6289 -4.9297,-0.5976 -1.0899,0.027 -2.582,-0.4102 -2.9727,1.3398 3.2735,2.0899 3.2735,2.0899 7.9024,-0.7422 m 648.7578,-42.6289 c -2.2578,-1.9609 -4.6797,-0.1992 -6.8086,-0.9687 1.8711,2.9805 3.8789,4.6797 6.8086,0.9687 m 44.38284,-66.6992 c -1.582,0.8398 -1.4414,2.3008 -2,3.3906 -0.793,1.5078 0.078,2.3789 1.2695,3.0195 0.4297,0.2305 1.0782,0.418 1.461,0.25 1.5586,-0.7109 1.039,-2.1601 0.789,-3.2695 -0.2617,-1.1797 -0.9922,-2.2617 -1.5195,-3.3906 m -784.08984,-44.6992 c 2.1484,1.5195 3.1679,-0.8907 4.7304,-1.3399 0.418,-0.1211 0.9492,-1.3516 0.7696,-1.8203 -0.4415,-1.1719 -1.7422,-1.2422 -2.5118,-0.582 -1.1797,1.0312 -3.4687,1.3515 -2.9882,3.7422 m 171.9882,189.3398 c -2.3789,-1.7617 -4.25,-3.3007 -6.5703,-1.121 -0.2578,0.25 -0.2773,1.1992 -0.039,1.4414 1.9882,1.9804 4.0781,1.6367 6.6093,-0.3204 m 594.55084,-114.9804 c 0.2891,-1.25 -0.6601,-1.5117 -1.1484,-2.0821 -0.8828,-1.0273 -1.8516,-1.9375 -3.3203,-1.207 -0.3828,0.1875 -0.8008,0.7774 -0.793,1.1797 0.043,2.1172 1.7031,2.3789 3.2812,2.5078 0.6993,0.062 1.4297,-0.2695 1.9805,-0.3984 m -748.30864,-27.1719 c -2.2734,-5.8672 -5.3515,-7.0977 -9.8711,-5.5586 3.8282,-0.1016 5.1485,3.9804 9.8711,5.5586 m 80.2578,-66.2774 c 6.1211,3.0391 6.1211,3.0391 8.8399,-0.5508 -2.6875,-0.7617 -5.168,-0.582 -8.8399,0.5508 m 543.9688,36.6172 c 0.051,-2.418 -2.2383,-5 -4.1992,-4.5586 -0.6407,0.1484 -1.418,0.8789 -1.6289,1.5117 -0.4493,1.3789 2.7382,4.6172 4.4101,4.5664 0.8906,-0.027 1.3711,-0.6172 1.418,-1.5195 m 128.57034,137.9727 c -3.2891,-3.582 -3.2891,-3.582 -9.4688,-3.7305 2.9297,2.6094 5.4493,4.3985 9.4688,3.7305 m -801.16804,-2.3906 c -2.6406,3.1211 -1.1601,5.5195 0.5078,7.8086 0.1329,0.1797 1.4805,-0.1992 1.9414,-0.6485 2.7891,-2.7812 -0.2109,-4.4492 -1.371,-6.4492 -0.1172,-0.2031 -0.418,-0.2812 -1.0782,-0.7109 m -35.7109,-151.6915 c 4.7891,4.5117 4.7891,4.5117 8.5312,0.02 -2.9101,-0.5781 -5.582,-1.0976 -8.5312,-0.02 m 587.2187,174.9024 c 0.8711,0.2969 1.8204,0.7188 2.8204,0.957 1.1914,0.2813 1.9726,-0.1875 2.0703,-1.5195 0.09,-1.0586 -0.7188,-1.2695 -1.4493,-1.418 -1.0195,-0.1992 -2.1015,-0.1523 -3.1093,-0.4101 -1.9688,-0.4922 -3.8399,-2.0899 -5.9414,-0.6211 -0.5899,0.4102 -0.7383,1.3398 -0.2188,2.0898 1.5586,2.211 3.6602,1.4297 5.8281,0.9219 m -486.8393,-131.4922 c 1.7695,-3.1602 2.043,-5.9805 4.6719,-7.1211 1.5195,-0.6485 1.2578,-2.2266 -0.051,-3.0586 -1.1016,-0.6992 -2.5,-1.0391 -3.2305,0.6797 -1.0781,2.5508 -3.9609,4.6211 -1.3906,9.5 m 100.5625,-7.7188 c -7.5117,-4.9609 -7.5117,-4.9609 -9.2305,2.1407 2.6094,-3.4805 5.5899,-1.2813 9.2305,-2.1407 m -89.6719,-2.6914 c 1.5821,6.1914 1.5821,6.1914 6.3906,6.7617 -0.371,-3.9023 -2.1679,-6.3398 -6.3906,-6.7617 m -59.4375,-27.4297 c -2.6406,-1.9101 -4.8008,-1.539 -6.832,-1.6211 -3.0195,-0.1289 -2.8789,1.9532 -1.8399,3.6211 0.7618,1.1993 2.3711,2.461 3.6993,2.5821 2.8398,0.2578 2.4922,-3.3203 4.9726,-4.5821 m 18.7969,21.6407 c -2.3086,-0.2305 -4.457,-0.6602 -4.4883,2.1601 -0.031,2.8399 3.2578,2.2578 4.4805,3.8906 1,-1.6601 4.0195,-1.7304 3.9101,-3.9296 -0.1328,-2.543 -2.5195,-2.1524 -3.9023,-2.1211 m -11.7695,-0.6485 c -3.9297,-0.3125 -6.5196,-0.5508 -9.1094,-0.7031 -1.1289,-0.059 -2.0391,0.3906 -2.2891,1.6523 -0.2422,1.1602 0.1094,2.0782 1.1992,2.5782 1.6407,0.7695 3.3711,2.1328 4.9805,2.0117 2.5586,-0.1797 2.8985,-3.211 5.2188,-5.5391 m 706.1328,140.8165 c -3.1914,-2.0274 -6.4024,-2.0899 -9.7617,-0.1875 0.1796,3.1679 1.3203,5.8476 4.5898,6.2695 2.9414,0.3711 1.9102,-3.2305 3.4219,-4.4883 0.5976,-0.5117 1.1679,-1.0625 1.75,-1.5937 m -666.8516,-166.9376 c 1.7813,-2.1289 6.0313,0.75 7.1602,-2.332 1.1289,-3.0586 -4.2891,-1.2188 -4.461,-4.1602 -0.02,-0.1796 -0.3203,-0.4296 -0.5312,-0.4882 -2.0391,-0.5508 -3.5195,0.1601 -4.5899,1.9687 -0.6171,1.0625 -2.1484,1.832 -1.2968,3.3203 0.6679,1.1914 1.8789,1.7813 3.7187,1.6914 m 31.3086,39.5703 c 2.6797,-0.1015 3.6602,-1.1015 3.4024,-3.4804 -0.1719,-1.5 -4.5821,-7.7422 -5.3399,-7.461 -2.6211,0.9922 -3.9219,3.3203 -4.7109,5.6719 -0.5391,1.6094 4.4804,5.3399 6.6484,5.2695 m 680.4805,85.1485 c -0.8711,-4.0078 -0.8711,-4.0078 2.3711,-9.4687 -3.9024,-1.711 -7.3516,0.1094 -11.1524,0.6094 1.0117,4.8906 4.1407,6.9296 8.7813,8.8593 m -0.8906,48.0821 c 3.3398,3.3398 8.30074,2.8789 10.97264,6.8867 0.6875,1.0429 2.3281,1.2734 3.3672,-0.1367 1.1914,-1.5899 4.2227,-1.1329 4.4219,-4.7305 -6.0899,-1.7109 -12.6524,-0.5 -18.76174,-2.0195 m -110.5389,-177.4102 c -0.168,-2.5899 -6.6797,-7.8594 -9.1484,-7.2813 -2.0313,0.4688 -2.8125,2.2891 -3.211,4.1094 -0.2109,0.9609 0.25,2.8203 1.2695,2.3008 3.8594,-1.9805 4.9219,1.6914 7.1094,3.0586 0.8711,0.5507 1.7813,1.2421 2.8789,0.4726 0.9414,-0.6601 1.3633,-1.5625 1.1016,-2.6601 m -579.0899,158.1797 c 3.0704,0.07 7.3907,5.3672 9.4493,-1.2227 0.332,-1.0586 1.8515,-0.7578 2.8125,-0.207 2.4375,1.4102 5.6172,-0.6406 7.957,2.1094 1.4805,1.7304 3.3398,0.4687 4.6602,-1.1211 0.582,-0.6914 0.8593,-1.4688 0.4414,-2.1094 -0.9688,-1.5 -2.4297,-1.7305 -4.1602,-1.3984 -6.3203,1.1679 -13.3086,-1.2032 -18.9414,3.6875 -0.457,0.4101 -1.4688,0.1914 -2.2188,0.2617 m 765.73834,-100.7501 c -0.01,-2.7617 -3.7383,-2.1523 -3.4179,-5.0507 0.4296,-3.75 0.1093,-4.1914 -1.7618,-4.3204 -1.4375,-0.09 -2.957,0.6915 -4.3789,0.5313 -1.4492,-0.1719 -3.1289,-1.7305 -3.9804,0.418 -0.5586,1.4297 0.012,3.5898 1.1914,4.3515 3.6992,2.3711 7.0703,6.4102 12.3476,4.0703 m -88.43754,122.3595 c 0.3789,-2.711 -3.9023,-5.3985 -7.1015,-3.9688 -3.2383,1.4375 -5.6289,2.4883 -7.8008,-1.4609 -0.8164,-1.5 -2.8164,-1.4922 -4,0.059 -1.2774,1.6718 -0.3399,3.0508 1.2226,3.832 4.0899,2.0586 8.7891,2.3594 12.9297,4.5977 1.7891,0.9804 3.7813,-1.168 4.75,-3.0586 m -749.2617,-25.6289 c -0.5273,3.3671 -2.2578,7.3593 3.7305,7.4101 2.1406,0.019 1.0508,1.2891 0.9687,1.9297 -0.2187,1.918 1.0625,2.1797 2.3828,2.3594 2.2774,0.3281 1.3086,-1.3203 1.6094,-2.4297 0.5899,-2.1797 1.2383,-4.3594 1.8789,-6.5195 0.5,-1.6914 1.25,-2.9805 -0.6797,-3.8321 -1.5586,-0.6875 -3.7304,-2 -4.5898,0.6914 -1.5391,4.8711 -3.4688,-0.2422 -5.3008,0.3907 m -20.7187,-40.3204 c 0.039,4.4688 0.039,4.4688 2.3398,4.4493 7.7383,-0.059 8.5117,-0.7813 8.8086,-5.4805 0.2305,-3.5781 -1.7969,-5.5195 -4.1875,-4.3203 -2.6523,1.3203 -5.2813,-0.8399 -7.3008,0.9101 -1.5312,1.3321 0.4492,2.9219 0.3399,4.4414 m 164.5898,-116.4805 c -3.6602,-1.4922 -7.3516,-1.8203 -10.6289,-3.5508 -3.1797,-1.6796 -6.6016,0.3907 -7.5195,4.0313 -0.4102,1.5898 1.0078,3.2578 1.7382,2.7187 3.6211,-2.6796 5.5,0.2383 7.8711,1.8907 1.7305,1.1992 3.8282,1.3789 4.7696,-0.5703 0.8789,-1.8204 3.5,-1.5508 3.7695,-4.5196 m 15.4688,-14.75 c 6.1328,-3.332 12.8125,-2.5 20.1406,-2.6797 -2.8281,-3.1328 -5.2813,-5.2421 -7.9102,-5.5195 -4.3711,-0.4609 -6.6289,-2.3711 -7.6601,-6.4219 -0.3086,-1.1992 -0.961,-2.8789 -2.4805,-2.6484 -2.0977,0.3398 -1.1992,2.2383 -1.5391,3.6484 -1.0898,4.3516 1.5391,8.8907 -0.5507,13.6211 m 23.5507,30 c 0.6524,-2.1406 -1.3281,-2.7695 -2.2109,-3.9101 -1.3672,-1.7696 -1.2969,-3.25 0.1211,-4.8086 1.8906,-2.0821 2.1289,0.4492 3.2305,0.9297 2.4804,1.0781 5.8789,0.8281 6.4101,-2.2305 0.5781,-3.2813 -2.289,-2.2695 -4.3203,-1.9219 -0.5508,0.1016 -1.3594,-0.6797 -1.8906,-1.2109 -2.7891,-2.7969 -6.5196,-2.7969 -10.6485,-4.1172 0.418,3.8477 -2.039,5.918 -3.9101,8.0703 4.1601,4.2305 8.3281,7.3984 13.2187,9.1992 m -227.3789,134.9102 c 2.0586,6.1993 3.2696,7.3399 8.5391,7.4375 1.1914,0.023 2.7617,-1.2695 3.1094,0.6602 0.2695,1.4531 -0.1602,3.2226 -0.8203,4.6016 -0.7188,1.4804 -2.2305,0.7812 -3.5,0.4218 -1.1407,-0.3203 -1.6602,-1.9414 -3.1407,-1.5429 -0.4179,1.9726 -0.6093,3.832 1.5625,4.8125 2.3789,1.0781 4.7696,2.1601 7.211,3.0703 5.4101,2.0078 10.5976,0.4883 14.25,-3.8008 1.1172,-1.3203 1.1172,-3.0508 0.09,-3.3711 -4.4414,-1.4414 -6.7305,-5.8203 -10.7695,-7.5586 -2.5508,-1.0898 -5.2031,-2 -8.3906,-1.2812 -2.9024,0.6601 -3.461,-5.3399 -8.1407,-3.4493 m 736.4375,-133.9805 c 1.6016,2.6094 -1.457,4.2188 -1.4883,6.5 -0.031,1.4102 -0.2812,2.7695 1.3204,3.1992 1.4492,0.4024 2.3398,-0.3398 2.8789,-1.8789 2.2304,-6.3398 3.1093,-6.6914 8.5507,-2.4804 1.7696,1.3593 2.711,1.0898 3.9415,-0.1094 1.0976,-1.0703 2.0703,-2.2695 3.5078,-3.8594 -3.4883,-0.9101 -4.7891,-5.1328 -9,-4.3516 -5.3789,0.9883 -6,0.5196 -8.8985,-6.3085 2.3086,2.25 4.6875,0.957 6.6797,1.5703 2.9688,0.8984 3.711,-0.1407 4.0078,-2.8399 0.3203,-2.8633 -1.7695,-6.6601 -4.1484,-5.7929 -5.3711,1.9609 -9.5195,-2.3985 -14.5313,-1.7383 -0.047,0.8086 -0.1093,1.5781 -0.1484,2.3398 -0.1094,2.5 -3.5781,5 -3.1289,5.4805 2.3086,2.5273 1.5391,3.75 -0.7422,5.5703 -0.9492,0.7695 0.4024,1.6875 1.5117,1.8789 1.3203,0.2305 2.8789,-1.9687 4.0078,0.3711 -1.1171,3.2187 -4.1679,6.5195 0.5704,9.6602 0.9101,-1.3125 1.7617,-2.5313 2.621,-3.7618 0.7813,-1.1289 -0.039,-3.3593 2.4883,-3.4492 m -670.3164,154.0778 c 0.9375,-1.1602 1.5977,-1.9492 2.2266,-2.7578 1.6211,-2.0821 -0.7695,-4.0196 -0.2266,-6.0821 0.2891,-1.0781 0.7383,-2.1679 2.0196,-2 1.9101,0.25 0.2187,1.5 0.457,2.211 0.9726,2.8906 0.1406,7.1523 5.4023,6.8398 1.6485,-0.098 2.3008,1.7891 1.6797,2.9102 -1.2812,2.3008 0.1914,5.4023 -2.5117,7.5586 -2.6875,-1.7188 -5.4492,-3.4688 -8.3477,-5.3281 -1.3906,7.3593 -1.3906,7.539 4.8594,7.8398 2.2188,0.1094 2.8203,2.1602 4.6406,2.6289 1.7696,-2.0977 2.1289,-5.6797 5.7891,-5.8398 2.3398,-0.098 0.9102,-1.2891 1.0898,-2.3985 0.8594,-5.3398 4.4805,-9.6523 6.2813,-14.789 1.0508,-2.9922 6.418,1.8671 9.0898,0.1796 2.3008,-1.4609 2.1875,0.168 2.6172,0.9688 1.1836,2.1797 3.7032,1.75 5.4024,2.9687 0.9492,0.6915 2.6211,0.4297 3.6601,-0.6093 1.3907,-1.3789 1.1211,-3.5196 0.02,-4.2891 -2.8008,-1.9687 -2.6407,-9.5312 -9,-5.0508 -4.0586,-5.0586 -7.1016,0.4688 -10.5704,1.1719 -0.7304,0.1484 -0.1992,3.9375 -2.5898,1.5703 -1.5,-1.4805 -2.3711,-3.7422 0.5,-5.1601 0.9805,-0.4922 2.7305,0.4492 2.8906,-1.6016 -3.8906,-1.5391 -7.8711,-2.3594 -12.1797,-2.3281 0.6875,1.3164 1.4102,2.4101 1.8399,3.5976 0.6289,1.7617 1.0898,3.6211 -0.4922,5.1797 -1.6289,1.6211 -3.3867,0.9922 -5.1367,0.1992 -2.3203,-1.0586 -4.4922,-2.5781 -7.1602,-2.1679 -0.1211,-1.3399 0.7969,-1.5391 1.2696,-2.0703 0.8085,-0.9297 3.9375,-0.5118 2.1484,-2.879 -1.1211,-1.4726 -2.5313,-2.6718 -5.3086,-1.2929 -2.6992,1.3437 -0.8398,4.6601 -3.5313,5.3906 -5.7382,1.543 -1.4296,2.2227 0.1915,3.4609 0.5078,0.3907 -0.4727,1.1094 -1.2618,1.461 -5.1992,2.2812 -5.1797,2.289 -1.1211,5.7383 1.6016,1.3515 3.1329,2.7812 5.3633,4.7695 m 126.2266,-185.4883 c 3.4805,-0.3907 4.5625,3.7304 7.7226,4.5781 0.4688,-3.4102 -2.6992,-6.3399 0.1172,-9.3281 0.5703,-0.6016 -6.2968,-8.711 -7.0898,-8.2813 -4.3672,2.3711 -8.7695,-1.2578 -13.0469,0.2813 -2.0117,0.7187 -3.582,3.0312 -6.2305,0.9179 -0.8515,-0.6797 -2.5195,0.4805 -3.2421,1.6407 -0.8282,1.3593 0.2812,2.2421 0.9218,3.4023 2.0782,3.7383 5.1211,5.1094 9.0703,4.0781 3.3399,-0.8711 6.6875,-1.039 10.0079,-0.6094 1.1914,0.1485 4.3515,0.6915 1.9921,3.5821 -0.4218,0.2773 -0.8007,0.6484 -1.2617,0.8281 -1.0976,0.4414 -2.7304,0.3086 -2.3711,2.1992 0.062,0.3321 0.75,0.6797 1.1914,0.7617 1.4024,0.2188 2.6016,-0.1093 2.6797,-1.8125 0.031,-0.7382 -0.3008,-1.4882 -0.4609,-2.2382 m 630.97264,139.1797 c 0.3282,-1.2383 0.8789,-2.3086 1.8204,-3.2617 0.9687,-0.9766 0.1875,-2.2383 -0.7422,-2.2891 -1.9883,-0.09 -4.461,0.2227 -4.7774,2.6328 -0.3398,2.5586 1.2578,3.6992 3.8789,2.7383 -4.3008,3.6016 -8.4218,1.2813 -12.3125,-1.1601 -0.96874,3.2382 2.543,2.6992 2.5821,4.8593 0.059,2.5703 0.1406,5.2422 3.539,6.1914 3.2813,0.9102 5.4727,-1.2617 8.0391,-2.3398 2.2109,-0.9414 3.1015,-3.0703 2.5898,-5.1602 -0.5078,-2.082 -2.8281,-1.9414 -4.6172,-2.2109 m -769.07034,62.7187 c 0.078,-1.707 0.7578,-3.9296 -2.0625,-3.7968 -1.3867,0.059 -3.289,0.9687 -2.9375,2.6797 0.4375,2.1796 2.5078,2.1171 4.3594,1.8086 0.051,0.8593 0.4883,1.5 1.2813,1.7812 1.0273,0.3477 2.4882,0.5586 2.8593,-0.4297 0.3985,-1.0703 -0.9609,-1.6211 -1.9414,-1.9219 -0.4883,-0.1484 -1.039,-0.09 -1.5586,-0.1211 m 759.57824,-140.5977 c -0.3907,-0.9726 -0.8204,-1.9296 -1.1602,-2.9023 -0.3867,-1.0781 -0.8672,-2.0195 -2.05864,-0.8789 -0.5508,0.5312 -0.8398,1.6289 -0.1406,2.1016 1.01954,0.7187 2.31254,1.0468 3.49224,1.5468 -1.6602,2.6719 0.1875,3.211 2.1875,3.4102 1.8007,0.1836 3.289,-0.7188 3.0898,-2.6172 -0.1875,-1.75 -2.0078,-1.1719 -3.1875,-1.2227 -0.7305,-0.027 -1.4805,0.3633 -2.2226,0.5625 m -48.91804,-36.2226 c -0.8906,3.0508 -0.5,6.6406 -5.5625,7.0625 -1.5899,0.1289 -4.3867,3.5508 -4.1797,6.3086 0.1602,2.1797 1.8516,3.9414 4.6133,4.6992 3.1797,0.8828 5.7383,3.793 9.5586,2.8203 0.6406,-0.1601 1.7695,0.082 2.1093,0.543 1.1915,1.6094 1.5,3.5976 4.3008,4.039 2.1992,0.3399 2.8399,-2.8906 4.3399,-1.6015 3.8203,3.2617 1.2578,-2.7383 3.9179,-2.4688 3.5313,0.3594 4.3321,-2.4101 2.4297,-5.3789 -0.7383,-1.1601 -1.7578,-2.3828 -0.7695,-3.5312 2.5508,-2.961 0.8633,-5.8399 -1.0977,-10.1797 4.8985,2.918 4.1094,6.8984 4.8008,9.4687 0.4883,1.8203 2.5977,2.4297 2.2383,4.2891 2.6992,-1.1875 7.5195,-2.0898 7.7305,-3.6172 0.9492,-6.9805 4,-2.0508 6.3593,-1.7305 2.1993,0.3086 0.02,3.6289 2.879,3.5391 1.75,-0.059 3.51954,0.9883 5.81254,1.6992 -0.8008,1.8203 -3.3711,1.4727 -3.72274,3.4414 -0.3477,1.8985 -0.8984,1.2305 -2.2969,0.2813 -3.4609,-2.3516 -2.7304,1.4687 -3.9414,2.8398 3.668,2.1289 8.87114,-0.6719 11.07814,4.8867 0.6914,1.7305 2.4414,-0.75 2.6133,-2.1171 0.1367,-1.1094 -1.2929,-2.6329 0.6875,-3.1719 2.8125,-0.7813 1.3321,1.8906 2.0703,2.7304 0.9493,1.0899 2.1602,2.5821 3.9805,1.3399 1.8789,-1.2695 2.8906,0.1016 4.0195,1.1797 0.5586,0.5312 1.0899,1.1015 1.6407,1.6406 3.289,-7.5 5.289,0.02 7.8984,0.6406 0.6602,0.1602 1.4727,-0.1992 2.1914,-0.3789 3.9219,-1.0312 7.6719,-3.0117 11.8984,-0.4023 1.1016,0.6719 3.8321,-0.078 4.2422,-2.4102 0.3789,-2.1484 -2.4804,-1.4883 -3.2187,-3.539 2.9179,-0.6993 5.6562,-1.8985 8.0195,-4.3008 0.9297,2.6992 -1.332,2.9492 -1.9609,4.1601 -1.6719,3.1524 -1.211,5.0118 2.0586,5.7813 3.8515,0.8906 7.8515,2.1992 11.6601,1.8984 5.2813,-0.4179 10,0.07 14.3789,3.0703 1.4805,1.0196 2.4024,0.8907 3.9805,-0.4882 3.0117,-2.6211 4.7305,-1.7227 5.0117,2.0898 0.09,1.2187 0.02,2.4375 0.02,3.5703 -3.0507,0.7695 -3.9296,-4.3398 -7.4414,-1.9219 1.2227,2.711 5.1524,3.8594 4.4102,7.711 -0.2383,1.2187 1.082,1.2695 2.2617,0.8398 3.8711,-1.3711 4.75,0.1602 3.2891,3.6406 -0.7813,1.8672 -0.5781,2.6407 1.7695,2.9883 3.6016,0.5313 3.6602,2.8906 1.1602,4.8321 -3.5274,2.75 -6.8594,5.8281 -10.9297,7.8594 -1.1797,0.5898 -2.418,1.8281 -3.5,0.6094 -2.4102,-2.711 -4.0078,-0.3086 -6.0196,0.4804 -2.3203,0.9102 -4.1289,0.7813 -3.7812,-2.6992 0.3008,-3.0118 0.062,-6.0899 0.062,-9.1524 -0.7422,0.07 -1.2109,0.031 -1.2422,0.1406 -1.1094,3.4414 -1.168,8.461 -3.5,9.9688 -2.8906,1.8711 -7.6601,0.8399 -11.6172,1.0508 -2.7929,0.1406 -5.9023,-1.1289 -8.3906,2.211 2.9687,2.3789 6.3281,1.4492 9.4883,1.3203 1.832,-0.07 3.75,-1.0313 5.4687,-0.1407 2.0117,1.0313 4.6211,2.0196 2.2305,5.2422 -2.0898,2.8086 -1.75,4.5078 2.2305,5.4375 2.0312,0.4805 3.6797,2.8203 5.3711,4.4414 1.3711,1.3086 3.0312,3.211 4.6289,2.668 5.332,-1.7891 7.8711,5.3008 13,3.7109 0.5898,-0.1796 0.9492,1.1485 0.8711,1.961 -0.1211,1.039 -0.3594,2.3476 -1.8008,1.8476 -6.3711,-2.1797 -7.8594,2.8399 -10.4102,6.6719 -1.5898,2.3789 -1.5898,5.7305 -5.9609,6.5586 -2.6485,0.5117 -4.9766,1.4922 -7.1289,-0.1172 -3.0078,-2.2422 -5.3711,-1.8125 -7.3399,1.0078 -1.3476,1.9297 -3,2.0821 -4.8203,1.3711 -3.3594,-1.289 -6.9687,-1.0586 -10.1484,-0.4922 -3.5703,0.6328 -6.1094,-3.1797 -9.0625,-1.6484 -3,1.5586 -5.5781,2.8008 -8.8399,1.0703 -0.7578,-0.4101 -1.4101,0.4102 -1.6484,1.2188 -0.2695,0.9101 0.2891,1.4804 0.9297,1.9804 1.3398,1.0196 2.7305,0.9297 4.3984,0.9102 4.6211,-0.078 9.2617,-1.3789 13.9102,0.2109 2.5312,0.8594 5.4414,-0.1211 6.1914,4.3399 0.4687,2.8281 3.3789,1.1797 4.7695,-0.6485 1.4922,-1.9531 4.961,-2.9218 4.8203,-1.0625 -0.4179,5.2891 6.0118,5.3516 6.1211,9.6992 0.02,0.6016 2.4375,0.3204 1.5078,1.8321 -0.4296,0.6992 -1.8203,1.0312 -2.8203,1.1406 -2.5468,0.2773 -2.4765,-3.3906 -5.4687,-3.4727 -1.1992,1.8516 -0.1094,3.7227 0.5625,5.5118 0.7383,1.9882 1.4883,3.25 3.9179,1.1797 2.6915,-2.2813 6.1094,-3.25 9.5196,-1.3008 3.4687,1.9804 6.4101,-2.8399 10.2422,-0.3399 -4.3321,5.5196 -10.2422,7.8203 -16.7032,9.1602 -1.3281,0.2812 -1.6484,-0.9102 -2.3984,-1.5899 -2.6797,-2.4101 -6.0391,-2.1289 -8.3516,0.5196 -3.9296,4.4922 -6.8476,6.3593 -11.8671,7.582 -0.4922,1.6289 0.7773,2.3203 1.6796,3.2383 1.5508,1.5898 3.8594,3.0703 0.09,5.0312 -0.6211,0.3203 -0.1094,2.9493 0.027,4.5078 0.082,0.8321 0.8008,1.3399 1.6524,1.461 0.9179,0.1094 1.25,-0.4883 1.7109,-1.2188 3.0195,-4.8711 3.6367,-5.3593 7.8399,-2.1289 2.789,2.1367 6.5273,1.5 8.9882,4.3985 1.5,1.7695 3.6211,2.9687 4.3594,5.7695 -4.4883,2.6914 -9.8789,2.8008 -14.4101,2.8906 -5.5704,0.1094 -10.7071,0.8008 -15.8086,2.6406 -2.4219,0.8672 -4.2383,1.1875 -6.1797,-1.3906 -2.0899,-2.789 -5.7305,-1.4414 -8.6719,-1.6211 -2.0977,-0.1211 -2.3789,2.1289 -1.7891,3.5508 1.0118,2.4102 2.5508,4.5899 3.9297,6.9805 9.1914,-4.0899 17.5899,-2 26.7617,2.5898 -1.8711,0.961 -2.7695,1.8281 -3.6796,1.8399 -11.1719,0.1406 -21.9219,4.5781 -33.3008,2.9414 -5.3321,-0.7735 -5.3907,-0.3203 -11.76174,6.7695 8.07034,0.8086 16.33204,-0.8398 21.70314,6.3984 -2.211,0.6719 -4.9024,1.5704 -7.6406,2.2891 -1.25,0.332 -2.5313,0.1328 -2.6094,2.1094 -0.062,1.6406 -1.4727,2.1406 -2.9024,1.5937 -4.5507,-1.7422 -8.96094,-1.6133 -13.37114,0.5274 -1.539,0.75 -2.2382,-0.6485 -3.0976,-1.6407 -3.1524,-3.6171 -6.7695,-4.8476 -11.8008,-3.8789 -7.7812,1.5118 -15.7109,0.4297 -23.5586,-0.4492 -5.5703,-0.6211 -8.4726,1.5391 -9.9726,8.0586 -2.0586,-6.3594 -5.4883,-8.8789 -11.2696,-5.7578 -0.3906,0.207 -1.1484,0.1289 -1.539,-0.1211 -7.211,-4.6484 -14.75,-0.8594 -22.1407,-0.9297 -1.0312,-0.012 -2.3398,0.1485 -3.039,-0.3906 -5.1407,-3.9688 -10.711,-0.3203 -16.0117,-1.0117 -0.6993,-0.098 -1.5899,0.07 -1.75,1.1406 -0.2071,1.4297 0.7929,2.1211 1.7929,1.9297 4.0274,-0.7891 7.6992,0.9922 11.6485,1.0117 -1.8711,6.7813 -1.8711,6.7891 -7.2891,6.168 -3.9414,-0.4571 -7.8711,-1.1172 -11.8203,-1.4063 -3.3906,-0.25 -4.5703,-2.0937 -4.5625,-5.2304 0.1719,-0.5 0.5508,-0.5821 1.1836,-0.2696 1.6875,0.8282 2.957,3.8477 5.2187,1.6485 1.1797,-1.1407 2.0391,-3.5313 0.7696,-5.0586 -1.461,-1.7617 -3.6485,-3.8711 -6.1407,-2.4727 -3,1.6797 -5.8203,2.1719 -9.0703,1.3008 -4.3086,-1.1484 -8.4492,-1.8281 -12.1406,2.0391 -0.9492,1 -2.5,-0.168 -1.5391,-2.0704 0.7305,-0.25 1.461,-0.5 2.1914,-0.7382 1.0274,-0.3203 2.1094,-0.9102 1.7188,-2.0391 -0.3906,-1.1406 -1.6797,-0.9922 -2.7188,-0.7422 -2.6523,0.6524 -0.6992,2.5 -0.9726,3.7813 -0.7774,-0.1289 -1.6172,-0.5 -2.3399,-0.3399 -5.5781,1.1797 -7.4492,1.1289 -14.1367,-0.9101 4.3164,-1.3789 7.9571,-1.5196 11.6172,-2.1719 -7.2578,-2.1172 -14.4297,-4.8086 -22.75,-0.8477 1.5703,2.8086 2.7422,5.3594 4.3516,7.5899 1.1797,1.6289 0.3281,2.25 -0.6602,3.1992 -1.3008,1.2383 -2.5117,0.9219 -3.3086,-0.3398 -1.3008,-2.0704 -2.7812,-3.8008 -5.1406,-4.5313 -2.4023,0.7305 -1.1719,3.4219 -2.6016,4.582 -1.3906,1.1211 -3.039,1.3203 -4.2187,-0.09 -1.082,-1.2695 -0.4102,-2.5507 1.0976,-3.0117 1.6211,-0.4883 3.1407,-0.9492 2.8204,-3.0586 -0.379,-2.4414 -2.129,-3.8515 -4.3594,-3.9297 -7.8008,-0.3125 -15.6211,-0.7226 -23.3906,-0.3203 -3.5899,0.1797 -5.879,-2.6601 -9.5469,-2.3594 -3.5117,0.2891 -6.7735,-1.7109 -8.7813,3.4883 -1.1797,3.0899 -4.5117,2.0508 -6.4609,-2.1601 -1.3906,-2.9883 -3.7305,-2.4805 -6.0703,-2.211 -2.4297,0.2813 -3.211,1.4414 -1.6406,3.6602 0.6015,0.8711 -0.09,1.8008 -0.7891,1.75 -1.9102,-0.1484 -4.8906,0.8828 -5.2813,-1.7969 -0.4492,-3.1133 -3.6289,-2.6914 -4.7265,-4.832 -0.9531,-1.8711 -2.7031,-0.9688 -4.1524,-0.2188 -2.289,1.1797 -1.039,2.4805 -0.1797,3.8203 1.0196,1.5782 2.0704,3.3907 0.1993,4.8907 -1.3203,1.0586 -2.918,0.539 -4.4297,-0.3203 -2.1992,-1.2618 -4.5313,-3.1797 -6.9492,-0.2618 l 0.02,0.012 c -0.3281,-1.8515 -0.039,-3.4218 1.1289,-5.0703 0.6016,-0.8398 0.5703,-3.2109 -0.039,-3.6406 -2.1211,-1.4492 -2.1992,0.6992 -2.9492,2.0195 -0.832,1.4805 -2.2617,0.9297 -3.3203,0.012 -4.4609,-3.8632 -11.2305,-1.4609 -15.5703,-5.8632 -1.0781,-1.0782 -2.3086,0.5117 -3.2813,1.3632 -2.5898,2.2774 -5.0586,2.7188 -8.5781,1.1875 -5.1406,-2.2382 -10.9297,-0.8984 -16.3906,-1 -2.9609,-0.051 -0.9102,2.5196 -0.1406,3.8711 -7.8008,1.1993 -15.7188,-5.6406 -23.7696,0.6485 0.4493,-5.3203 -1.8203,-8.6992 -6.6211,-10.918 -1.1679,1.7188 -1.0468,3.7773 -1.4179,5.3984 -0.7422,3.3008 -3.1407,3.1993 -4.6289,2.1602 -3.5235,-2.4414 -9.211,3.6406 -11.2813,-3.0781 -0.3008,-0.9532 -0.1015,-2.0625 -0.1289,-3.0899 2.7891,-1.9804 2.7891,-1.9804 2.957,-5.1211 -2.2773,1.2305 -2.3984,3.3399 -2.7578,5.3203 -4.2109,-0.9101 -5.8789,1.5079 -4.4687,4.8008 2.3789,5.5274 -0.793,4.918 -4.2227,4.7891 0.07,-1.9688 3.6524,-2.1914 2.1602,-4.5391 -1.0508,-1.6601 -2.918,-0.7617 -4.4102,-0.6601 -2.2304,0.1679 -4.8594,-0.461 -5.8203,2.789 -1.168,3.9883 -5.2891,3.9883 -7.5508,3.0899 -2.9883,-1.211 -2.7187,-4.6992 -1.1172,-7.6094 0.461,-0.832 1.5196,-1.5703 0.7383,-2.7812 -0.4297,-0.2188 -1.0781,-0.7813 -1.3086,-0.6407 -11.6523,6.8008 -24.5703,4.2696 -37.0195,5.0117 -1.9219,0.1094 -4.0117,-0.5625 -3.8398,2.3204 0.1484,2.4296 2.8085,3.1093 4.1093,2.6992 2.3282,-0.7422 4.5782,-0.8906 6.918,-0.9414 0.9219,-0.02 1.543,0.6015 1.6602,1.4101 0.1601,1.1016 -0.75,1.1016 -1.5196,1.1524 -1.3086,0.09 -1.3086,1.1875 -1.8398,2.0468 -2.2696,3.6719 -4.2383,3.9922 -5.8008,0.3321 -1.4883,-3.4922 -4.1289,-3.25 -6.418,-3.3086 -3.3515,-0.09 -6.6015,-0.3008 -10.082,-1.6914 4.2227,1.0078 5.6133,-1.4102 6.3398,-4.6289 -9.789,-0.2305 -11.9375,1.8672 -9.8867,9.6093 -7.1211,3.5196 -11.2929,-2.621 -15.1133,-5.9726 -5.957,-5.2188 -13.0195,-6.1367 -19.4179,-5.6094 -9.9688,0.8203 -19.7617,1.1914 -29.6602,0.012 -2.8711,-0.3398 -5.6094,0.2578 -8.5508,1.9102 1.5703,2.0898 7.4688,1.539 3.2618,5.9179 -1.1211,1.1524 -2.5508,1.8399 -3.3125,0.8204 -2.2188,-2.9883 -6.2383,-1.3282 -8.6993,-3.8204 -0.6679,-0.6679 -2.6797,-0.6796 -2.4882,-2.1601 0.4296,-3.3281 -2.2618,-2.6094 -3.8321,-3.6797 -3.3203,-2.2695 -5.9804,3.4219 -9.3476,0.1211 -2.6914,-2.6289 -6.0508,0.3203 -9.1407,0.09 -2.1796,-0.1602 -4.3398,2.25 -6.6523,-0.1211 -0.6094,-0.6289 -2.2188,-0.3789 -2.8203,0.582 -0.7774,1.2891 -0.2383,2.8281 0.9531,3.3985 1.5469,0.75 4.2695,0.6718 0.2891,2.1015 -5.0899,1.8203 -5.0899,1.8203 -6.1719,-3.5117 -1.1992,-5.8984 -4.8594,-0.7695 -7.1797,-2.418 -0.1484,2.5977 2.543,2.7891 1.8594,5.2774 -5.2383,0.332 -10.7695,-0.9102 -16.1485,0.582 -0.8593,0.2383 -2.5898,-0.2187 -2.8906,-0.8516 -2.6484,-5.4882 -6.9375,-3.0898 -10.9883,-2.707 -2.5703,0.2383 -5.2226,0.7188 -7.8711,-0.2031 -8.4492,-2.9375 -16.9687,-1.5977 -25.4804,-0.25 -1.0078,0.1523 -2.1289,0.3008 -3.0781,0.031 -6.7422,-1.8984 -13.6407,-1.3086 -20.4727,-1.3086 -3.4492,0 -6.7891,0.4805 -9.6602,-2.0508 -0.539,-0.4687 -1.8086,-0.9922 -2.1093,-0.7422 -4.5391,3.7813 -8.2305,-0.8672 -12.3203,-1.0586 -1.9805,-0.09 -3.9102,-1.1797 -6.0977,1.8789 -2.4023,3.3633 -8.4414,1.9414 -11.4023,0.4102 -3.5391,-1.8203 -6.5196,-1.1992 -9.7969,-1.3906 -2.8633,-0.1563 -6.6602,1.3125 -7.0625,-3.6992 -0.07,-0.9571 -1.0313,-1.1993 -1.7891,-1.168 -1.6211,0.059 -2.4805,1.3008 -2.3515,2.6289 0.3125,3.1719 1.4414,7.0586 -3.1993,1.9414 -0.2187,-0.2422 -1.25,-0.2031 -1.4492,0.059 -3.6914,4.7891 -8.3789,1.1914 -12.5117,1.3516 -10.1289,0.3789 -20.3477,0.8671 -30.3672,-0.2032 -4.2226,-0.4375 -8.0508,-1.1679 -12.4297,-0.5781 -3.3203,0.4609 -6.8906,-2.2383 -8.5429,-5.6406 -0.6407,-1.3086 -0.5899,-2.6797 -2.2891,-1.75 -3.25,1.7812 -6.9805,1.3008 -10.4297,2.7617 -3.5,1.4883 -8.1914,2.7383 -11.7305,-1.2109 -1.3593,-1.5313 -2.9179,-0.5391 -4.3906,-0.1289 -2.0898,0.5781 -4.1406,0.8789 -6.1992,-0.1133 -2.1406,-1.0196 -2.2188,-2.7071 -1.5781,-4.668 0.6992,-2.1211 1.957,-2.0312 3.6367,-1.1016 5.7812,3.1602 10.7109,0.7227 15.8515,-1.8671 -2.1484,-4.3907 -7.0703,-0.5508 -9.2187,-4.3399 1.7891,-2.6719 4.1992,-0.7305 6.2383,-0.8711 1.1289,-0.09 2.0898,-0.5703 2.4297,-1.7109 0.4023,-1.3594 -0.5391,-1.9883 -1.6485,-2.0781 -3.1992,-0.2696 -2.7812,-2.4297 -2.6914,-4.6211 0.1992,-4.3516 -1.8398,-7.1094 -5.5586,-7.7813 -0.8008,-0.1484 -1.9023,-0.1406 -2.0195,0.6328 -0.9727,5.8594 -2.9805,3.6367 -5.1211,0.7266 -0.8398,-1.1484 -2,-1.8281 -3.3516,-1.8594 -4.8281,-0.078 -7.039,-2.6992 -7.8789,-7.25 -0.5586,-3.0976 -2.4179,-3.918 -5.0195,-1.5898 -0.031,-0.02 0.1602,0.1406 0.1602,0.1406 -0.3086,-2.8594 1.3906,-5.2617 0.5507,-8.6289 -1.2812,-5.1016 4.3907,-9.3399 9.9493,-8.0391 1.75,0.4063 3.6211,0.01 5.2695,0.9492 1.8516,1.0508 3.4414,1.0274 4.4297,-1.3398 0.8008,-1.9102 2.6992,-2.8398 4.5117,-2.6406 7.918,0.8711 14.2383,-4.5703 21.9297,-4.9219 -1.3008,-5.1602 -3.4297,-9.5977 -1.8516,-15.0977 1.5625,-5.4296 -0.3281,-6.9296 -7.0703,-8.3828 -0.6289,-2.0195 1.1406,-3.3984 1.4102,-5.1797 l -0.25,0.1719 c 1.5,0.4883 2.9726,1.0586 4.4922,1.461 4.0703,1.0781 7.5976,-1.3633 11.4179,-1.9414 3.2891,-0.4883 1.3125,-4.1094 2.6914,-5.6993 1.0899,-1.2695 2.4688,-2.0507 0.6211,-3.6601 -1.2617,-1.0821 -2.6523,-1.6094 -4.3398,-1.3008 -1.8516,0.3398 -3.043,2.8984 -5.6016,1.0391 -2.3906,-1.7383 -3.8086,-0.168 -4.2695,2.4023 -0.3594,2.0078 -0.2305,4.4375 -3.3399,4.3477 l 0.1993,0.1796 c -0.6211,-3.0976 2.2812,-7.1679 -3.1407,-8.9882 -1.8398,-0.6094 -0.5586,-4.6485 -3.1679,-5.9688 -2.8399,0.1094 -1.0899,2.25 -1.461,3.4492 -0.3008,0.961 -0.3515,1.7696 -1.9218,1.8594 -5.4883,0.3203 -12.4571,-3.5195 -15.0391,-8.4805 -1.3516,-2.6016 -0.1406,-4.8203 1.3203,-6.4492 1.8398,-2.0508 4.2891,-4.8008 7.3789,-2.9219 2.9727,1.8125 3.3399,1.1211 3.543,-1.8281 0.09,-1.3008 1.6875,-1.3321 2.4297,-0.4492 2.1172,2.5273 3.5468,4.6679 5.957,-0.1602 0.5625,-1.1211 5,-2.0625 7.7617,-2.6523 1.25,-0.2696 3.1914,0.062 3.3906,1.4023 0.3789,2.5703 -1.4921,1.9883 -3.082,1.5781 -1.2383,-0.3086 -2.0508,0.3008 -2.2187,1.5508 -0.1719,1.3086 0.6484,1.8281 1.8203,2.0781 2.4883,0.5313 4.8789,0.5117 6.2304,-2.0664 2.1407,-4.0508 5.7188,-6.0898 9.8594,-7.4023 2.4492,-0.7891 3.711,-2.7305 5.2305,-4.5977 1.8984,-2.3398 5.2773,-1.5117 6.9883,1.5664 0.3906,0.6914 0.6015,1.3633 1.3711,1.7227 3.5,1.6289 5.7304,-1.7227 8.6601,-2.3906 1.8711,-0.4297 1.8906,-3.5 1.6016,-5.6485 -0.3321,-2.4023 -2.0313,-2.6211 -4.1016,-2.6328 -3.8594,-0.01 -7.4297,-3.5391 -10.5703,-3.0078 -4.3789,0.75 -6.9883,-1.6328 -10.2305,-2.9102 -1.1679,-0.4609 -3.1289,-0.8828 -3.2382,-2.8593 0.707,-0.8203 1.3085,-0.5235 2.0195,0.01 1.418,1.0625 2.8281,2.8398 4.8203,1.25 1.3203,-1.0703 0.039,-5.711 -2.1523,-6.75 -3.9883,-1.9102 -8.129,-3.5977 -12.75,-2.8008 -1.5782,0.2812 -3.8282,1.0312 -4.4297,-0.4375 -2.1875,-5.3906 -6.1993,-4 -10.3789,-3.8008 -2.8516,0.1211 -7.2383,0.2578 -5.4102,-5.3398 0.3203,-0.9688 -1.3516,-1.2305 -2.4414,-1.2305 -2.7578,0.012 -5.7305,4.75 -8.4102,-0.6289 -0.5898,-1.1602 -1.7382,1.3789 -2.7968,1.9297 -1.3125,0.6679 -2.5625,0.7187 -3.4727,-0.6211 -0.6094,-0.8985 -0.8476,-1.9102 -0.5391,-3.0195 0.5821,-2.0586 1.711,-0.9219 2.9805,-0.7813 2.9805,0.3398 6.0195,0.4023 5.3399,-4.2891 -0.5391,-3.6679 2.4101,-4.4101 5.039,-4.789 6.5703,-0.9727 13.1406,-0.1797 19.711,0.2383 3.3789,0.2226 6.7617,1.6015 10.0195,-0.6993 1.1797,-0.8398 2.4687,-0.2304 3.6484,0.5704 3.3438,2.3007 6.9922,1.7109 11.3203,0.9804 -0.207,-3.8906 -2.2773,-8.1211 0.8633,-11.6914 3.0586,0.6914 2.0274,3.8789 3.5977,6.6719 3.332,-5.9609 7.9609,-9.6992 11.2695,-14.5117 0.9102,-1.3282 0.332,-4.3711 2.9024,-3.4688 1.4804,0.5196 4.3984,0.3906 4.4375,3.3906 0.012,0.75 0.3125,1.6094 0.75,2.2305 1.6601,2.3399 4.4023,2.3281 5.2226,-0.582 0.8477,-3.0391 2.4492,-3.1914 4.5703,-2.7578 1.9688,0.3984 3.6094,-0.4532 5.3985,-0.6211 3.0781,-0.3008 5.6015,-0.3906 5.1289,-4.7227 -0.1094,-1.0195 2.8515,-1.1367 3.3593,-2.8867 1.3711,0.5391 1.4219,1.75 1.5313,2.6289 0.8203,6.5586 0.9687,6.8203 6.4492,3.7891 1.4805,-0.8086 6.0117,1.7304 4.582,-3.4492 -0.1523,-0.5313 2.8789,-0.6485 4.3789,-0.3008 1.6094,0.3593 2.1485,1.3789 0.7891,2.789 -1.3008,1.3633 -0.1875,1.9102 0.8516,1.5625 2.2812,-0.7695 5.6484,3.8086 7.0781,-1.5117 0.2109,-0.7695 1.832,0.4727 2.793,0.5391 2.039,0.1406 4.1367,0.5625 6.1093,-0.5078 3.711,-2.0196 3.7891,-2.1914 7.5391,-0.7305 2.6289,1.0195 3.0898,-1.1289 4.3789,-2.2109 0.75,-0.6172 1.5508,-1.5391 2.5703,-0.3204 0.7422,0.9024 1.1094,1.9102 0.09,2.7305 -1.3203,1.0703 -2.7383,2.2305 -0.8399,3.6406 1.1602,0.8516 2.711,1.6016 4.4727,1.1797 2.3984,-0.5781 2.0586,-1.7383 1.1172,-3.4414 -0.3282,-0.5781 0.3398,-1.5781 1.2109,-1.6875 1,-0.1289 1.1719,0.7696 1.3906,1.5196 0.6407,2.1796 1.5899,3.7187 3.2891,0.7617 1.7305,-3.0313 3.3906,-1.8828 4.6992,0.078 0.9024,1.3515 1.75,2.4218 3.1914,3.289 1.711,1.0196 3.1016,1.1524 3.9688,-0.5976 1.6015,-3.2227 3.5,-6.4805 3.6914,-10.1016 0.2383,-4.5703 -5.961,-7.9687 -11.3789,-6.0195 -2.3321,0.8398 -4.3321,1.4883 -6.7813,0.8906 -4.3906,-1.082 -8.4101,-0.7422 -11.1797,3.5703 -1.1211,1.7305 -2.7109,1.6485 -3.9023,0.1094 -2.75,-3.582 -8.4375,-3.4805 -10.1992,-8.3399 -0.3477,-0.9921 -1.8477,-1.2226 -2.7774,-0.5507 -1.582,1.1211 0.6172,1.5703 0.5781,2.2304 -0.2382,3.4688 -3.3007,3.4102 -5.2304,2.9102 -3.6211,-0.9219 -7.0391,-1.5391 -10.7578,-0.6602 -1.5,0.3594 -3.5821,-0.3789 -3.2813,-2.4101 0.3594,-2.461 2.3594,-1.0508 3.7813,-0.9922 0.3984,0.023 0.8281,-0.4883 1.5078,-0.918 -0.8281,-2.8711 -4.1211,-1.1719 -5.7578,-3.039 -1.4414,-1.632897 -4.2305,-0.9727 -4.9024,1.707 -0.8906,3.6133 -4.7578,3.043 -6.8203,5.1133 -0.7187,0.7383 -5.4101,0.2578 -2.7578,-3.711 0.5078,-0.7617 0.8672,-1.6797 0.1172,-1.832 -1.7891,-0.3672 -3.5977,-0.5391 -5.25,-1.4375 -2.5781,-1.410197 -3.0078,1.3906 -4.3281,2.3477 -1.1602,0.8515 -1.9805,2.9609 -3.5196,0.5429 -2.6211,-4.121097 -6.8398,-3.5234 -9.8515,-1.8906 -4.9297,2.668 -9.3203,-1.0508 -13.9493,0.01 -1.4179,0.332 -1.9492,-1.4297 -2.5,-2.660197 -1.1093,-2.4882 2.3907,-3.4882 1.8008,-5.7304 -0.8711,-3.2774 1.5,-2.8399 3.4883,-3.6289 5.7227,-2.2774 11.1602,-5.2578 16.8516,-7.6094 3.8789,-1.6094 7.789,-3.0898 11.3984,1.4297 1.832,2.3008 5.3516,1.6914 8.3008,1.6211 3.4101,-0.07 4.0195,-2.1719 4.9805,-4.9492 1.5507,-4.4922 5.5195,-5.0508 9.8711,-4.3711 0.6171,3.3398 -3.1016,3.4492 -3.7032,5.6406 -0.2968,1.0703 -0.4179,2.1406 0.543,2.8906 1.0078,0.7774 2.4687,0.4102 2.7305,-0.4414 1.3281,-4.3086 8.0703,-4.8203 7.3672,-10.582 -0.059,-0.4297 1.582,-1.2071 2.5312,-1.5977 5.2383,-2.1406 10.2305,-5.2109 16.0781,-5.3594 11.4532,-0.2812 22.8438,-1.5898 34.2227,-2.4921 6.8594,-0.5391 13.4687,0.1015 20.1797,0.1992 3.5195,0.062 6.8711,0.5937 8,4.4726 2.8593,0.1993 3.0195,-2.2812 4.3789,-3.3711 0.8203,-0.6484 1.6094,-1.3593 2.3711,-2.0898 3.2187,-3.0898 7.9883,1.7305 11.0586,-2.2109 2.8711,-3.6993 7.0898,-2.9571 10.9922,-3.1797 0.7773,-0.039 1.6601,-0.1094 2.3398,0.1797 8.3203,3.5429 16.6602,2.9609 25.0508,0.2695 0.6875,-0.2188 2.0078,-0.3594 2.1875,-0.047 3.0625,5.3477 7.1719,1.6367 10.4922,0.8672 3.0586,-0.707 5.7695,-3.2578 7.9687,1.0508 3.918,-2.2578 8.1602,1.2109 12.2578,-0.8985 5.4414,-2.7929 11.1328,-2.3906 16.8008,-0.1992 4.5508,1.75 9.2695,-0.012 13.9297,0.1484 14.4297,0.4805 28.9023,-0.539 43.3516,0.168 1.289,0.07 2.6796,0.2227 3.8203,0.7617 2.7695,1.3203 4.9609,0.9688 7.8984,-0.3007 2.9102,-1.25 6.7617,-0.629 10.1602,-0.379 5.8007,0.418 11.5625,1.3711 17.3593,1.7305 2.793,0.168 3.6914,3.8086 6.711,3.0781 0.1992,0.75 0.3203,1.5313 0.582,2.2618 0.3477,1.0078 1.0078,1.8203 2.168,1.8203 0.4219,0 1.1015,-0.4024 1.2187,-0.7617 0.5313,-1.6485 -0.7773,-2.2579 -1.9375,-2.75 -0.6797,-0.2891 -1.5117,-0.2305 -2.2812,-0.3282 0.5117,-1.4609 0.8008,-3.4609 3.0508,-2.5703 6.1796,2.4297 12.7382,4.0703 18.7109,6.5977 5.0703,2.1523 8.8086,0.8633 13.1172,-0.078 2.6211,-0.5703 5.0898,-1.6406 6.7617,1.6992 0.8398,1.6914 2.4805,1.1602 3.0898,-0.059 1.5508,-3.0195 3.0704,-2.9609 5.461,-0.8594 1.2187,1.0703 2.5078,1.3985 4.6797,0.2578 5,-2.6289 10.5508,-5.0703 15.8398,0.051 0.9297,0.8906 2.2813,1.2696 3.1485,-0.5586 0.9726,-2.0625 2.8007,-1.1718 4.1406,-0.6523 2.2812,0.8906 4.3594,1.832 6.7187,0.1523 0.8008,-0.5703 1.961,-0.9804 2.9922,-0.2617 5.6094,3.9297 11.5703,2.4609 17.7188,1.75 3.8007,-0.4414 8.4492,-1 11.3007,2.8984 0.9688,1.3204 1.6485,1.0625 2.5196,0.5 3.3008,-2.1093 4.5312,2.6602 6.5703,2.1836 2.3711,-0.5625 4.2305,-3.5937 7,-3.0937 5.1601,0.9414 10.6094,-1.0899 15.6016,1.793 1.1992,0.6992 3.0976,0.2187 4.6796,0.1992 1.4297,-0.012 2.8477,0.1797 2.6875,1.9609 -0.1289,1.5391 -1.0898,3.1602 1.1602,3.8906 1.9102,0.6172 3.543,-0.2304 5.3203,-0.8515 2.3906,-0.8321 1.4414,-5.5508 4.6602,-4.4297 7.1093,2.4805 15.4922,-2.1524 21.8906,4.3398 4.5508,4.6094 10.1484,2.8399 15.3594,1.2578 1.0898,-0.3281 1.9218,-1.7695 3.3398,-0.9101 8.832,5.3516 18.9727,1.7734 28.25,4.1328 1.6602,0.4297 3.043,-0.6094 4.5,-1.2109 2.3828,-0.961 4.8516,-0.7696 6.8399,0.6914 2.0507,1.5195 3.6328,3.5 6.5703,3.6289 1.2109,0.051 0.9804,3.289 3.3007,2.4609 1.5196,-0.543 2.6407,-1.3008 2.4219,-3.4297 -0.1328,-1.3515 1.4883,-1.0508 2.4492,-0.8633 8.668,1.7422 17.7305,-0.1171 26.2383,2.7618 5.9414,2.0117 12.1914,0.9297 18.3399,2.2304 5.8398,1.2383 12.4609,0.5391 18.7422,1.0977 5.2304,0.4726 10.2382,0.9336 15.4375,2.6133 7.3398,2.3593 15.1796,4.2383 23.1914,2.9297 0.7812,-0.1329 1.5703,-0.25 2.3593,-0.3204 4.6016,-0.4218 7.9414,5.167997 11.4493,4.121097 4.2929,-1.281197 7.5507,-0.7226 11.1093,0.8672 2.6602,1.1914 5.1914,3.1328 7.4727,-0.5508 0.4297,-0.6992 1.6992,-0.9375 2.0781,-0.3671 2.5117,3.8593 5.8008,1.3984 8.4414,0.7695 7.10944,-1.699197 13.08994,0.6797 18.44924,4.668 2.6094,1.9414 5.1016,3.8203 8.2618,4.2226 2.6093,0.3399 2.539,1.957 2.7187,3.7891 0.2617,2.6601 -1.3398,4.8008 -3.4609,4.1992 -7.1289,-2.0508 -13.5196,4.2422 -20.66024,1.3594 -1.9297,-0.7774 -3.8203,-0.25 -2.7187,2.7929 1,2.75 -0.961,1.1563 -1.9414,1.2774 -2.4688,0.3008 -4.7188,1.2617 -4.918,4.1094 -0.25,3.582 1.4101,5.2929 5.25,4.8203 1.4609,-0.1797 3.5,0.3125 3.1875,2.4492 -0.2188,1.5312 -2.0274,1.793 -3.2695,1.5312 -10.3282,-2.2187 -21,0.1407 -31.2891,-2.3789 -6.0508,3.2891 -12.6992,-1.2695 -19.8711,1.4883 3.1016,2.9727 7.8828,4.6602 5.5703,9.8906 -0.1875,0.4414 3.332,2.5196 5.1328,3.8399 z m 0,0"
     id="path48" />
</svg>
