<?xml version="1.0" encoding="UTF-8" standalone="no"?>
<svg
   width="800"
   height="800"
   viewBox="0 0 800 800"
   version="1.1"
   id="svg728"
   sodipodi:docname="brush.svg"
   inkscape:version="1.4.2 (f4327f4, 2025-05-13)"
   inkscape:export-filename="brush-5.svg"
   inkscape:export-xdpi="96"
   inkscape:export-ydpi="96"
   xmlns:inkscape="http://www.inkscape.org/namespaces/inkscape"
   xmlns:sodipodi="http://sodipodi.sourceforge.net/DTD/sodipodi-0.dtd"
   xmlns="http://www.w3.org/2000/svg"
   xmlns:svg="http://www.w3.org/2000/svg">
  <defs
     id="defs728" />
  <sodipodi:namedview
     id="namedview728"
     pagecolor="#ffffff"
     bordercolor="#000000"
     borderopacity="0.25"
     inkscape:showpageshadow="2"
     inkscape:pageopacity="0.0"
     inkscape:pagecheckerboard="0"
     inkscape:deskcolor="#d1d1d1"
     inkscape:zoom="0.20822611"
     inkscape:cx="2353.2111"
     inkscape:cy="669.9448"
     inkscape:window-width="1920"
     inkscape:window-height="991"
     inkscape:window-x="-9"
     inkscape:window-y="-9"
     inkscape:window-maximized="1"
     inkscape:current-layer="svg728">
    <inkscape:page
       x="0"
       y="0"
       width="800"
       height="800"
       id="page2"
       margin="0"
       bleed="0" />
  </sodipodi:namedview>
  <path
     fill-rule="evenodd"
     fill="#000000"
     fill-opacity="1"
     d="m 360.99475,715.52571 c 0.4453,-0.1836 1.0625,-0.4453 1.6796,-0.7031 -0.6757,-0.1914 -1.3398,-0.4765 -2.0234,-0.543 -0.4453,-0.047 -1.3125,0.2266 -1.3125,0.3633 -0.012,0.9766 0.8125,0.7852 1.6563,0.8828 m -227.7969,-331.5117 c 0.914,0.09 1.5703,-0.2656 1.5156,-1.2265 -0.02,-0.3985 -0.4375,-0.9297 -0.8164,-1.1133 -0.7344,-0.3633 -1.5391,-0.2188 -1.7773,0.6797 -0.2188,0.8242 0.207,1.4375 1.0781,1.6601 m 208.5469,-259.9725 c -0.4024,0.2265 -1.0938,0.3945 -1.1524,0.6953 -0.1836,0.8867 0.3281,1.5195 1.2617,1.4883 0.4297,-0.016 1.1368,-0.3594 1.211,-0.6719 0.2226,-0.9492 -0.5117,-1.3164 -1.3203,-1.5117 m -188.4532,132.9022 c 0.6446,-1.9648 0.051,-2.9648 -1.2851,-3.6367 -0.5117,-0.2539 -0.9844,-0.1094 -1.1406,0.543 -0.3438,1.4218 0.2226,2.5273 1.4687,3.25 0.4883,0.2851 0.9023,0 0.957,-0.1563 m 50.8711,-89.043 c -0.2226,-0.016 0.1524,-0.7031 0.2149,-1.4648 0.1015,-1.332 -0.7813,-1.6641 -1.9141,-1.5313 -0.8125,0.094 -1.4336,0.5625 -1.4687,1.3907 -0.055,1.3242 0.8984,1.582 3.1679,1.6054 m -101.8593,295.4532 c -0.1172,-0.9219 -0.6641,-1.6758 -1.4454,-1.5977 -1.441395,0.1524 -2.230395,1.2031 -2.085895,2.6563 0.1055,1.0546 0.8984,2.3281 1.816395,2.0976 1.3242,-0.3359 1.3828,-1.9883 1.7149,-3.1562 m 548.8828,144.1523 c 0.332,-1.0742 -0.4649,-1.793 -1.1094,-1.75 -1.7734,0.1172 -2.4805,1.5742 -2.8555,3.1016 -0.082,0.3359 0.3555,1.1328 0.625,1.1679 1.8985,0.2422 2.7813,-0.9961 3.3399,-2.5195 m -496.5703,-366.0976 c 0.3007,0.7812 0.4414,1.5468 0.8476,2.1328 1.4141,2.0429 3.3008,2.1601 3.1641,0.289 -0.1797,-2.4375 -1.7852,-2.8203 -4.0117,-2.4218 m 71.9179,-63.4805 c -2.6523,0.7226 -4.8633,0.6445 -5.3437,3.1445 -0.1563,0.8281 0.5937,1.3906 1.3789,1.4922 2.8086,0.3516 3.1836,-1.7578 3.9648,-4.6367 m 411.9063,10.8203 c -1.1953,-3.2773 -2.6758,-4.3789 -5.1524,-5.1758 1.2696,2.1133 2.3125,3.6953 5.1524,5.1758 M 97.076755,390.05311 c 0,2.8476 0.2969,3.9453 -0.055,4.7617 -0.9063,2.1055 0.1445,3.0586 1.8633,2.7617 1.570295,-0.2734 1.402295,-1.9531 0.8906,-3.1875 -0.3789,-0.9297 -1.0508,-1.7304 -2.6992,-4.3359 m 606.902295,95.4844 c -0.2187,2.6601 -3.4961,4.6367 -1.8359,7.6367 0.047,0.09 0.4492,0.1015 0.582,0 2.8047,-2.0547 1.7149,-4.9297 1.2539,-7.6406 M 96.334255,446.17421 c 0.9961,3.5703 2.625,4.9883 4.851595,5.6875 0.2304,0.07 1.2695,-1.1563 1.2382,-1.7461 -0.1718,-3.3164 -3.070295,-2.668 -6.089795,-3.9414 m 11.121095,-7.6172 c -0.8984,0.1914 -1.6289,1.2578 -1.2539,1.4727 1.8789,1.0703 1.2148,4.4335 4.0156,4.4375 1.0195,0 0.8711,-0.9454 0.875,-1.7461 0.02,-2.543 -1.5391,-3.5977 -3.6367,-4.1641 m 218.3476,273.9453 c 2.2969,1.1172 4.5938,2.1797 7.5508,-0.1719 -3.0195,-1.6601 -5.2929,-1.4062 -7.5508,0.1719 m -196.8551,-325.6133 c 0.5625,2.9766 2.6172,3.4375 5.1015,2.836 0.4766,-0.1172 1.1797,-1.3633 1.0118,-1.7579 -1.0977,-2.5312 -3.3008,-1.7851 -5.2969,-1.5156 -0.2383,0.027 -0.4531,0.2383 -0.8164,0.4375 m 64.0664,-216.9297 c -1.6797,-0.4062 -2.2891,0.4141 -2.3203,1.5157 -0.047,1.6406 -0.918,3.7812 1.4961,4.4687 1.4023,0.4024 2.4843,-0.6758 2.8554,-1.9375 0.6055,-2.0781 -0.7617,-3.2734 -2.0312,-4.0469 m -73.5625,352.2383 c 3.7891,-0.1172 5.168,-1.5781 5.0273,-4.3047 -0.027,-0.5117 -0.9765,-1.3867 -1.5117,-1.3984 -3.6992,-0.074 -2.3047,3.0742 -3.5156,5.7031 m 344.1992,180.5039 c 3.6875,4.3125 5.7266,1.793 8.7578,-1.039 -3.4922,-0.8243 -5.8047,-0.4649 -8.7578,1.039 m -324.0937,-331.2617 c -2.3633,-2.1328 -4.4258,0.1563 -6.543,0.1641 -1.2969,0 -1.6641,1.1289 -1.2734,2.2226 0.4531,1.2774 1.832,2.6914 2.7812,1.7774 1.5469,-1.4844 4.5938,-1.2813 5.0352,-4.1641 m 35.1875,-172.8828 c 4.1875,-1.8594 5.3437,-5.5274 7.4765,-8.3438 0.6289,-0.8359 0.7774,-1.9726 -0.3047,-2.7187 -1.0351,-0.707 -2.4414,-0.2852 -2.5312,0.6211 -0.375,3.7851 -4.7695,5.5781 -4.6406,10.4414 m -5.168,15.6836 c -1.7774,0.664 -1.957,2.0976 -2.6719,3.1055 -0.7851,1.1171 -2.707,2.4375 -0.7109,3.7265 1.7539,1.1367 3.5625,0.078 4.2304,-1.793 0.543,-1.5195 1.4649,-3.3906 -0.8476,-5.039 m -6.3477,-12.3516 c -3.625,-0.07 -3.1836,4.0274 -6.0117,3.8867 -1.1719,-0.059 -2.0586,0.586 -1.6015,1.8555 0.5,1.4024 1.7578,1.6836 3.1523,1.4766 4.6406,-0.6914 2.2695,-4.8516 4.4609,-7.2188 m 9.3516,29.9531 c -1.3203,0.2657 -2.8711,1.8399 -2.5039,2.3399 1.3945,1.875 3.2187,3.5351 5.1758,4.832 0.6914,0.4531 1.7461,-1.0234 2.082,-1.9609 0.6094,-1.7188 -2.3477,-4.9063 -4.7539,-5.211 m 459.3281,412.3633 c 3.1914,-2.2734 5.3672,-3.8242 7.586,-5.4062 -1.4688,-2.5235 -3.461,-3.2149 -6.0586,-3.211 -0.4453,2.5157 -0.875,4.9454 -1.5274,8.6172 M 97.264255,354.23281 c 0.2305,2.6914 2.4961,3.0117 4.382795,3.375 1.8477,0.3515 3.0273,-1.0391 2.9219,-2.7305 -0.1563,-2.5039 -1.5625,-4.6641 -4.1367,-4.9687 -2.976595,-0.3516 -1.542995,3.1796 -3.167995,4.3242 m 94.320295,-144.586 c -5.1289,2.0157 -6.75,4.918 -5.0469,9.8203 4.5625,-1.7148 5.0938,-5.1757 5.0469,-9.8203 m 127.1016,502.8594 -26.4102,-1.2266 c -0.023,0.6329 -0.047,1.2696 -0.074,1.9024 8.8438,1.8047 17.8867,-0.4024 26.4844,-0.6758 m 305.4922,-90.9023 c -6.8946,-1.3477 -9.3321,4.3086 -12.8985,7.6992 -1.6601,1.582 -1.2109,4.2656 0.75,6.2265 4.9883,-4.0195 10.7461,-6.6953 12.1485,-13.9257 m -19.9493,26.2617 c -6.9218,0.7851 -26.707,10.7187 -30.457,15.6367 12.2031,-2.3594 21.1875,-8.4414 30.457,-15.6367 m -86.871,-529.7577 c -0.168,0.7148 -0.336,1.4258 -0.5079,2.1406 12.1016,3.7148 24.2032,7.4336 36.3047,11.1484 0.1875,-0.625 0.3789,-1.2539 0.5664,-1.8828 -10.8359,-7.9765 -24.4804,-6.832 -36.3632,-11.4062 m -392.7461,267.2733 c -2.2305,4.2149 -5.9219,2.8594 -8.961,3.1563 -3.1758,0.3086 -2.7656,2.5898 -2.9179,4.6601 -0.1915,2.5781 1.3359,2.207 3.0351,1.9453 1.3711,-0.2148 2.8399,0.1836 3.0117,1.793 0.2188,2.0234 -1.5625,1.6133 -2.7539,1.7812 -2.875,0.4024 -2.5273,2.4961 -1.8125,4.1641 0.7969,1.8633 2.418,3.0469 4.2422,0.957 0.6953,-0.789 0.9844,-1.8906 2.3164,-1.3007 5.4297,2.4101 3.3477,-1.6485 2.8633,-3.6094 -0.2656,-1.0703 -2.2578,-2.543 -0.9336,-3.1992 5.0508,-2.4961 0.9336,-6.6172 1.9102,-10.3477 m 26.7265,-86.4844 c -0.7226,-6.3867 2.1406,-9.5625 4.7735,-13.1992 3.6289,-5.0117 8.5937,-9.9765 6.2656,-17.3398 -2.5117,-0.4688 -1.4141,6.0586 -5.4102,2.8359 -0.1328,-0.1055 -1.1836,0.5039 -1.1562,0.6797 0.6172,3.9844 -4.2813,7.5039 -3.3789,9.5078 2.2304,4.9531 -1.1992,6.832 -3.2891,9.2891 -2.418,2.8281 -1.4023,4.6758 2.1953,8.2265 m 146.6446,406.6289 c -4.6211,-0.5 -9.2774,-0.7773 -13.8516,-1.5546 -4.8828,-0.8321 -9.6797,-3.2461 -14.3828,-3.5079 -5.8867,-0.3359 -10.668,-2.289 -15.4453,-5.0703 -5.3555,-3.1093 -10.6797,-6.2734 -16.3203,-9.5937 -0.3633,3.1914 0.9843,5.1133 2.4492,6.9492 3.5664,4.4609 23.3672,12.9609 28.8945,11.4297 2.9453,-0.8203 4.8633,-0.043 7.2969,0.6719 6.9492,2.039 13.8789,4.8203 21.3594,0.6757 m 391.4492,-142.8593 c 6.8906,-10.2774 21.5351,-66.4414 19.2187,-76.8633 -6.2929,25.3555 -14.2695,50.6836 -19.2187,76.8633 m -584.3555,-136.4375 c 3.8281,-1.8477 2.293,-5.8789 4.293,-8.1172 2.1015,0.3476 2.5468,2.5195 4.582,2.4297 2.2187,-3.0039 3.2578,-6.4571 -0.4219,-8.7891 -2.7578,-1.7539 -5.9062,-5.4297 -9.7226,-2.0586 -1.0039,0.8945 -1.5704,2.2461 -2.9258,1.4336 -1.738295,-1.043 -0.059,-2.1875 0.2734,-3.3164 0.3672,-1.2578 0.5352,-2.582 0.7383,-3.8828 0.207,-1.3399 -0.7188,-1.8945 -1.7656,-2.1367 -1.539095,-0.3594 -3.011695,-0.047 -4.332095,0.8593 3.3125,1.7344 1.8672,3.0313 -0.051,4.9493 -0.7617,0.7617 -0.6015,4.0039 0.094,4.3945 3.3868,1.8828 -0.7539,8.6719 5.722695,8.4101 0.9922,-0.035 1.2656,2.3047 0.8789,3.5352 -1.332,4.2383 2.3906,6.707 3.4688,10.0859 0.582,1.8243 2.7617,2.3477 4.6132,0.7266 1.961,-1.7148 2.4141,-3.4805 0.023,-5.1719 -1.289,-0.9101 -2.6875,-1.6562 -5.4687,-3.3515 m 538.1172,209.9297 c 0.5742,-0.2813 1.6992,-0.5274 2.3867,-1.2149 7.039,-7.0625 14.0742,-14.2695 15.789,-24.6133 0.7696,-4.6172 2.8204,-8.4492 5.375,-12.0273 2.6836,-3.7617 4,-7.9844 5.3829,-12.2305 0.332,-1.0039 0.1445,-2.207 -0.7383,-2.9101 -1.4063,-1.1133 -2.418,-0.047 -3.3008,0.9257 -3.918,4.3125 -6.3711,9.4024 -7.6367,15.0469 -0.5703,2.5508 -0.7735,5.1133 -2.3008,7.4375 -5.5742,8.4766 -9.1133,18.1914 -15.7734,26.0195 -0.4688,0.5547 -0.9102,1.2735 -1.0039,1.9688 -0.1094,0.8164 0.4414,1.4414 1.8203,1.5977 m 57.2578,-314.3165 c 0.2851,3.2383 -0.3946,5.7579 -2.9922,7.5508 2.2851,5.4961 -0.1094,12.2422 4.1953,17.1055 5.1797,5.8594 3.9883,12.1523 1.7578,18.5078 -1.0547,3.0039 -1.8398,5.2031 -0.055,8.7031 2.7461,5.3868 3.5977,11.586 -0.086,17.4219 -2.7187,4.3203 -1.0625,9.2656 -1.6172,13.9063 4.6797,3.1211 0.4961,7.7109 1.8282,11.6406 1.1992,3.5469 1.7109,7.7773 0.7578,11.8906 -1.1914,5.168 -1.0547,10.4649 -0.9727,15.7774 0.1016,6.3164 0.5313,12.7148 -1.4805,18.9296 -0.4609,1.418 -0.5976,3.7539 0.2227,4.6016 1.5508,1.6094 4.0078,3.5117 5.8945,3.3242 2.2032,-0.2148 2.2578,-8.9648 0.6094,-8.7304 -3.1328,0.4531 -3.0469,-0.336 -2.6016,-2.629 0.4258,-2.2031 -0.6718,-6.0039 3.9375,-3.2109 0.7305,0.4414 1.1055,-0.8867 1.2461,-1.6406 0.4453,-2.3242 0.9688,-4.6485 1.2188,-6.9961 0.6055,-5.6641 -3.1016,-0.2774 -4.3867,-1.7578 0.1015,-1.9492 0.1093,-4.0625 0.3711,-6.1406 0.086,-0.6524 0.7304,-1.4297 1.332,-1.7813 3.6367,-2.1055 3.75,-2.0586 3.9414,-3.875 0.8711,-8.3867 2.2852,-16.6836 2.1445,-25.2109 -0.2383,-14.5547 0.2539,-29.125 -0.6836,-43.6758 -0.1015,-1.5508 0.5625,-3.8633 -0.8164,-4.4766 -6.5859,-2.9297 -5.1406,-9.0664 -6.1758,-14.2422 -1.7031,-8.5156 -3.5039,-17.0078 -7.5898,-24.9922 m -563.9492,32.2071 c -0.1836,1.5586 -0.5977,3.1328 -0.4922,4.6758 0.098,1.4843 1.3867,2.125 2.8086,2.1289 0.4453,0 1.0351,-0.3086 1.3086,-0.668 0.9101,-1.2109 -0.051,-1.9766 -0.9141,-2.4961 -1.4023,-0.8437 -1.0898,-3.0391 -2.8984,-3.4844 1.5312,-2.457 2.5156,-5.7578 4.7187,-7.1875 4.1289,-2.6875 -2.25,-4.1914 -0.1757,-6.3867 0.7773,-0.8164 1.875,-2.2461 0.3984,-3.3476 -1.0547,-0.7891 -2.4609,-0.8047 -3.7774,-0.1954 -1.2578,0.5821 -2.4335,1.2188 -1.9023,2.8868 1.1797,3.6953 -0.8281,7.2382 -0.4727,10.9101 0.125,1.3203 -0.2968,2.6328 1.3985,3.1641 m -17.7617,97.1797 c 2.6484,-0.7383 6.2578,-0.7618 5.7617,-4.7578 -0.332,-2.6368 -0.016,-5.8985 -3.1055,-7.543 2.293,0.9453 5.4063,0.1836 5.1211,-1.6953 -0.5117,-3.3516 4.8477,-4.711 2.1289,-8.1758 l -0.8398,-10.3203 c 0.5273,-0.9024 1.1679,-2.0274 -0.3438,-2.3867 -1.0156,-0.2383 -2.1719,0.4882 -2.0859,1.7539 0.1406,2.1679 -0.7969,4.0312 -1.2305,6.0312 -1.0547,4.8555 -3.4297,9.4766 -2.9414,14.6406 -0.4844,1.6875 -0.4297,4.1289 -1.5469,4.9258 -3.5859,2.5625 -1.6953,5.1016 -0.6562,7.7696 -3.6328,-0.3243 -5.3555,1.3125 -5.1719,5.7812 2.9024,-1.6992 5.918,0.078 9.2734,-1.2422 -1.6445,-1.8242 -4.289,-2.25 -4.3632,-4.7812 m 25.2657,-140.2266 c 4.9101,-1.2656 4.4961,-5.0703 4.0469,-8.7578 -0.1211,-0.9766 -0.9532,-1.8867 -2.2735,-1.4844 -1.1758,0.3594 -3.0937,0.5156 -2.2773,2.2969 1.2461,2.7226 -0.3828,5.5547 0.7656,8.1914 -1.1836,0.1406 -3.1719,-0.4141 -3.2383,0.9453 -0.078,1.5508 1.5742,2.418 3.3477,2.1758 -1.2188,2.4687 -3.0469,4.2266 -5.6055,5.3633 -0.793,0.3515 -1.875,1.1718 -1.2656,2.5117 0.5429,1.1797 0.9219,2.5664 2.6797,2.3984 1.8437,-0.1718 3.6914,-0.2968 5.5273,-0.539 1.7305,-0.2305 2.3086,-1.9414 1.8516,-2.9336 -1.0313,-2.2383 -0.7344,-5.2188 -3.3594,-6.6367 0.4844,-1.211 0.2891,-2.379 -0.1992,-3.5313 m 6.0117,-90.2656 c 4.2344,-0.2383 5.125,-3.4883 5.9102,-6.711 0.3554,-1.4531 -0.027,-2.7148 -2.0118,-2.2265 -1.2734,0.3125 -2.5078,0.6133 -3.9492,-0.4375 1.7891,-3.3672 3.4531,-6.5547 5.1641,-9.7149 1.3867,-2.5586 3.8476,-4.3086 6.4297,-3.4843 3.0156,0.957 4.0586,-0.5586 5.8359,-2.2032 4.5781,-4.2226 8.8945,-8.5312 11.0352,-14.582 0.539,-1.5234 1.6953,-2.5977 3.3242,-3.1328 3.7578,-1.2344 5.0273,-4.4649 7.1367,-7.4961 3.7656,-5.4102 6.0547,-13.0858 14.457,-13.8983 -0.8593,2.1562 -1.1054,4.7303 1.6055,4.996 2.0703,0.207 4.5586,-1.0704 5.457,-3.6914 0.3633,-1.0585 0.4336,-1.996 -0.4492,-2.8828 -2.2148,-2.2265 -3.8047,-0.1523 -5.5508,0.7813 -0.4531,0.2461 -0.8203,0.6562 -1.2265,0.9922 0.078,-0.2539 0.164,-0.5039 0.2382,-0.7578 0.961,-3.293 2.7735,-5.1602 6.5274,-5.6797 4.2461,-0.5899 3.6601,3.4453 5.5469,5.6445 1.8984,-4.2109 -3.3008,-8.4141 1.7812,-11.8164 1.8047,2.1914 5.0313,3.4258 3.9492,7.3398 3.0664,-1.5976 1.7539,-2.2226 3.3203,-5.5273 2.3868,-5.0352 1.3985,-11.8477 6.8204,-15.1914 5.1679,-3.1836 9.7226,-7.0781 14.4804,-10.75 0.7539,-0.5781 1.9532,-0.5781 3.6836,-1.043 -1.2031,4.9727 -1.1406,9.0781 -7.582,10.6055 -5.7383,1.3594 -7.6484,7.4648 -8.8047,13.0742 -1.0312,0.035 -2.0781,-0.031 -3.0859,0.1406 -1.0664,0.1797 -2.1016,0.961 -1.7071,2.0235 0.3868,1.039 1.6953,1.0547 2.7383,0.6797 1.4414,-0.5196 1.7695,-1.7579 1.8125,-3.125 2.4219,2.0429 4.711,3.957 8.3633,3.6679 3.1406,-0.2461 4.8437,4.3047 8.7031,2.875 -3.1133,2.5703 -8.3281,9.9805 -10.1367,13.4296 -0.7773,1.4844 -1.1953,2.1328 0.4102,2.8867 0.9687,0.4532 2.4687,0.8282 2.5937,-0.4922 0.2734,-2.9179 4.6055,-2.9453 4.082,-6.1991 -0.1289,-0.8047 -0.164,-1.832 0.6954,-1.9922 10.2382,-1.9414 15.6835,-10.8086 23.1914,-16.5 23.414,-17.75 48.5898,-31.4687 78.1445,-34.2461 19.1641,-1.7968 38.375,-3.7343 57.75,-3.7304 9.0742,0 18.2266,0.6484 27.457,-0.5547 8.5156,-1.1094 17.4297,0.2617 26.1094,1.125 22.1016,2.1953 44.2422,4.3672 65.6172,10.8945 12.8437,3.9219 25.7226,7.8281 37.5547,14.4219 4.6406,2.582 9.0898,5.4453 12.7851,9.293 3.6328,3.7812 9.25,4.3984 12.7852,8.4453 5.6523,6.4726 13.7109,9.6601 20.539,14.5116 14.2383,10.1133 29.2032,19.418 39.961,33.875 2.8203,3.7891 6.332,7.4648 10.0234,10.7344 4.5742,4.0508 5.4727,10.0586 7.8242,15.289 0,0 -0.039,0.1094 -0.039,0.1094 -1.7382,-0.8672 -2.5507,-2.3828 -3.496,-4.0586 -2.5899,-4.5742 -5.4805,-9.0273 -10.2344,-11.789 0.4297,-4.1329 -2.9922,-4.0782 -6.1758,-6.4063 1.2031,4.5781 2.1367,7.3008 6.3359,6.2344 1.8164,8.082 5.7422,14.7734 12.7657,19.4258 l -0.2696,-0.1133 c -0.023,1.8086 0.9805,3.5703 2.4922,3.5742 7.2617,0.027 8.0899,5.6836 8.8086,10.543 0.4922,3.3086 1.75,5.7929 3.2774,8.582 5.0625,9.2617 8.582,19.1797 10.875,29.4844 1.4257,6.4297 3.0781,12.6875 7.2929,17.9961 1.0664,1.3437 2.5977,3.2812 -0.9922,3.7617 -1.8086,0.2422 -1.3984,1.6992 -1.3945,3.0664 0.023,7.6211 2.1484,13.9062 10.4375,16.4258 1.5078,-2.375 -1.7305,-4.3672 -1.3555,-6.9336 2.5196,-0.7852 2.3399,1.5508 2.7618,2.6875 4.0468,10.875 6.8593,22.0469 7.6796,33.664 0.1094,1.5352 -0.1601,3.2149 1.2266,4.4141 v 125.75 c -2.6094,1.6484 -1.4883,4.1992 -1.4844,6.4336 0.012,6.082 -0.5156,11.6914 -3.7851,17.4102 -2.8438,4.9726 -4.0508,11.2929 -1.8711,17.4179 0.3398,0.9571 0.1953,2.0899 0.2773,3.1406 -1.4804,-1.5312 -3.0039,-2.5195 -3.4492,0.6329 -0.293,2.0859 -0.5664,4.0859 -1.4219,6.0742 -0.8203,1.914 -1.0547,4.0781 -1.6093,6.1172 -0.5547,2.0312 -1.2735,4.0234 -1.7579,6.0742 -0.4843,2.0469 -0.7695,4.1406 -1.1367,6.2109 -0.3711,2.0742 -0.4804,4.2383 -1.1562,6.2031 -2.4961,7.2305 -4.4532,14.7969 -8.1055,21.4141 -1.793,3.2461 -2.7031,7.8359 -7.1211,9.7227 -1.2109,0.5195 -1.7422,3.1523 -2.168,4.9179 -1.9961,8.2969 -6.4257,15.4063 -10.7382,22.586 0.019,-1.3555 -0.1368,-4.3125 -1.6563,-2.5196 -3.3672,3.9805 -6.2578,8.6602 -6.7383,14.3243 2.8946,-3.043 8.2422,-4.0625 7.6407,-9.7774 0.9492,1.168 2.5,0.4844 3.8242,1.211 -3.9375,4.3828 -7.8477,8.6445 -11.6524,13 -2.6015,2.9804 -7.5429,2.3046 -9.5,6.4765 -0.8593,1.8281 -3.1367,3.1367 1.0899,2.8399 0.7578,-0.051 0.375,1.4531 -0.1992,1.6836 -2.8282,1.1445 -6.3907,1.3164 -6.2618,5.7617 0.027,0.9062 -1.1093,0.9492 -1.8906,0.9453 -5.957,-0.035 -9.0781,4.207 -12.3789,8.1797 -0.6602,0.7929 -1.1875,2.1758 -1.957,2.3242 -6.6524,1.2812 -10.3711,7.2148 -16.0821,9.9531 -0.9179,0.4414 -1.6523,1.1445 -2.7617,1.3789 -18.8164,3.9922 -37.5,8.4766 -55.4219,15.6446 -11.5625,0.1757 -21.5195,6.3789 -32.5195,8.6835 -1.8203,0.379 -3.6133,0.7813 -5.1836,1.879 -0.9062,0.6289 -2.0195,1.4257 -1.1406,2.414 0.4883,0.543 1.9961,0.168 3.0391,0.207 l -0.078,0.012 c -0.836,4.3164 -4.2461,4.9531 -7.6446,4.7968 -5.3437,-0.2461 -9.6172,1.8907 -14.0507,4.5235 -6.1954,3.6836 -12.3477,7.8047 -20.9375,8.7187 4.4609,-4.2304 10.4414,-3.7109 14.8164,-9.5468 -5.9766,2.0703 -10.3243,3.5195 -14.6289,5.082 -10.6836,3.8789 -21.5508,7.0547 -32.6055,9.7383 -5.207,1.2617 -9.5899,-0.4844 -14.3281,-1.6289 4.9062,-1.9258 10.1406,0.8671 14.9687,-1.3868 4.5274,-2.1132 9.1133,-4.1132 14.1406,-6.3671 -3.2343,-4.0625 -6.9453,-1.5157 -9.8789,-1.4219 -12.9531,0.3984 -25.7539,2.7187 -38.5742,4.3789 -21.2461,2.75 -42.6055,4.1758 -63.8359,6.9062 -3.9571,0.5078 -7.8907,0.7422 -11.8555,0.2149 -1.2422,-2.6016 1.2578,-2.2578 2.8281,-3.4492 -4.4414,-0.8516 -8.3984,0.6132 -11.8047,1.5586 -9.8046,2.7148 -19.3086,2.2031 -28.9843,0.051 -3.6055,-0.8007 -7.2539,-1.4414 -10.9102,-1.9648 -3.8789,-0.5508 -3.9766,-0.3281 -10.418,-4.6445 -4.9257,-3.2969 -9.5664,-3.0625 -14.2851,0.1992 l 0.019,0.012 c -6.1641,-3.4766 -12.3164,-6.9609 -18.4922,-10.418 -4.4844,-2.5117 -8.0156,-5.9218 -10.3633,-10.5468 -1.7539,-3.461 -2.9414,-7.3477 -7.5234,-8.4961 -2.2852,-0.5743 -2.0313,-3.1172 -1.6797,-4.6914 0.5547,-2.4844 2.6328,0.6289 4.207,-1 -3.8906,-5.4375 -10.0742,-7.7969 -15.6015,-10.8282 -2.5782,-1.414 -5.0274,-2.6718 -6.8868,-4.9843 -4.8164,-5.9883 -11.8046,-9.5 -17.3867,-15.9219 -1,2.9961 0.2227,4.3672 1.2696,6.0273 1.8789,3 5.2851,5.1797 5.1953,9.2774 l 0.164,-0.1758 c -3.1718,-0.6992 -4.6406,-3.3789 -6.1445,-5.7305 -4.125,-6.457 -8.0664,-13.0351 -11.9258,-19.6523 -3.1133,-5.3399 -7.9023,-9.25 -11.5742,-14.1172 -4.0273,-5.332 -6.6484,-11.4297 -9.9141,-17.1719 -3.1289,-5.5 -5.5039,-11.4492 -10.6523,-15.5859 -0.9922,-0.7969 -1.957,-2.0235 -2.2578,-3.2227 -2.586,-10.2148 -8.9141,-18.8828 -11.7891,-28.9883 -1.289,-4.5468 -3.1953,-8.9492 -5.1875,-13.2461 -0.9883,-2.1367 -1.5508,-4.8711 -5.582,-4.1367 -3.7266,0.6758 -4.8008,-4.6562 -4.918,-6.0117 -0.4062,-4.5781 -3.582,-5.6406 -6.4219,-7.5039 -0.3632,-0.2422 -0.4531,-0.8945 -0.7031,-1.4219 1.5664,-2.0586 6.5156,1.9883 5.7852,-2.1445 -0.4766,-2.6992 0.4883,-4.0547 2.0078,-5.9727 -3.3789,-1.4843 -5.586,0.7071 -6.9141,1.7188 -3.1914,2.4258 -4.9101,1.7734 -6.9726,-1.0938 -2.1993,-3.0625 -2.3594,-5.5117 0.8672,-8.0586 2.5507,-2.0195 10.6171,-3.707 12.8945,-2.1367 2.1484,1.4766 0.7812,4.6328 2.8125,6.3867 2.0664,-0.9843 5.2109,-0.9101 4.9726,-4.0742 -0.5742,-7.6367 0.7539,-15.164 0.793,-22.7461 0.01,-1.6758 1.1172,-4.5351 -1.0976,-4.957 -3.2813,-0.625 -4.5157,-4.3242 -7.9727,-4.3555 -2.7578,-0.027 -3.5156,1.3321 -2.3477,3.4141 1.5899,2.8476 2.6563,4.8398 -1.9414,5.6875 -0.7968,0.1484 -1.1445,3.2539 -1.5,5.0351 -0.1797,0.8946 0.7657,2.2383 -1.0703,2.2579 -1.0429,0.012 -2.7461,-1.7461 -2.8203,0.6445 -0.039,1.3672 1.7422,1.6953 3.1328,1.7305 3.3828,0.086 3.6563,2.4531 3.5274,4.9921 -0.07,1.3907 -0.8399,3.1368 -2.2266,2.6485 -3.8359,-1.3516 -7.2148,2.8203 -11.1289,0.4297 -3.347695,-2.043 -5.132795,-5.4766 -6.402295,-8.5117 -2.61327,-6.254 -4.00397,-13.0274 -5.71487,-19.6407 -0.6641,-2.5586 1.2031,-3.0429 3.2852,-3.2343 1.65617,-0.1524 3.17177,-0.8985 3.30067,-2.8008 0.1368,-2.0196 -1.5664,-2.2617 -3.03507,-2.9727 -7.8359,-3.7851 -9.8594,-8.2734 -8.4024,-17.2031 0.418,-2.5625 -0.8007,-5.9609 0.4688,-7.7109 3.0156,-4.1563 0.7305,-7.418 0.019,-11.3204 -1.168,-6.3906 -1.793,-13.3242 0.059,-19.4336 1.4727,-4.8554 1.1914,-9.0664 -0.4727,-13.1171 -2.4648,-6.0079 2.129,-10.5586 2.2461,-15.9219 4.4063,-1.4141 3.0352,-4.5899 2.1758,-7.875 4.35937,4.164 8.93747,7.8164 9.05467,14.2695 0.031,1.5586 0.5586,2.8008 2.1133,2.7266 3.785095,-0.1797 7.562495,-0.4844 11.976595,0.6875 -1.2266,-4.7578 -3.961,-2.0274 -5.5274,-3.0821 -2.1562,-1.4531 -3.6328,-3.2031 -3.4961,-5.7382 0.1133,-2.1719 2.2774,-1.7188 3.7149,-2.1016 5.7304,-1.5273 11.1289,-3.8359 16.0312,-7.4258 2.0938,2.9258 -2.1523,4.6172 -0.4883,6.9063 1.7032,2.3359 4.2149,2.9218 6.8477,3.1836 0.8984,-2.2032 -2.211,-2.0821 -1.9805,-3.8008 1.3438,-1.3867 2.9922,1.4609 3.5977,0.4844 1.1172,-1.3633 1.0742,-1.8204 0.539,-2.1954 -3.1718,-2.2265 -7.3047,-3.75 -3.582,-9.1367 0.9492,-1.375 -0.6328,-4.7695 -1.5586,-7.0312 -0.418,-1.0235 -2.1523,-1.711 -3.3984,-0.5469 -0.7305,0.6836 -1.6094,1.7227 -1.6133,2.6016 0,6.7031 -5.0703,8.3086 -9.9336,10.1718 -0.031,-0.7421 0.1523,-1.5859 -0.1367,-2.2148 -0.5703,-1.2344 -1.5781,-2.0625 -2.9414,-1.0039 -1.0703,0.832 -0.5117,1.8047 0.1797,2.582 0.5039,0.5547 1.1562,0.9727 1.7421,1.4531 -4.1328,1.0547 -6.5,-2.957 -10.019495,-3.0195 -0.1445,-1.5937 0.917995,-1.5078 1.429695,-1.9922 1.4336,-1.3554 5.4609,-1.039 4.4102,-3.4648 -1.5196,-3.5039 -3.8516,-0.039 -5.722695,0.7226 -5.0039,2.043 -7.0352,-2.0703 -9.72267,-4.6328 -3.125,-2.9804 -2.0234,-6.4961 0.3243,-8.9414 1.75,-1.8242 2.66787,-2.8984 1.3125,-5.2344 -1.0313,-1.7695 -0.1133,-3.2968 0.6836,-5.1054 1.11317,-2.5235 4.73427,-4.8946 1.60537,-8.3516 -0.2461,-0.2695 -0.047,-0.9414 -0.055,-1.4219 5.3985,0.2735 2.1172,-5.25 4.8438,-7.2265 3.058595,-2.2149 0.832,-6.5156 2.070295,-9.8164 1.9414,-1.2227 4.0351,0.414 6.0703,-0.094 1.3281,-0.332 2.918,-0.4414 2.9258,1.4141 0.01,1.3828 0.2383,3.4648 -2.0977,3.5703 -2.2265,0.1016 -3.8984,0.8867 -3.0781,3.3047 0.8359,2.4726 3.3828,2.2656 5.4297,2.1601 1.9023,-0.098 3.8086,-0.5898 2.707,-3.4101 -0.5586,-1.4219 0.4766,-3.3672 1.375,-3.3125 6.6602,0.418 4.586,-5.5078 6.125,-9.3477 3.6758,3.2578 0.1992,7.8789 3.4024,10.4649 0.3046,0.2461 -1.1329,0.6914 -1.8555,0.8711 -2.3086,0.5703 -3.25,2.2695 -4.125,4.3554 -1.2305,2.9375 -3.5859,3.8047 -7.5234,3.2578 -0.8321,-0.1171 -1.5625,-0.2421 -1.8633,0.6641 -0.5469,1.6602 -0.3711,3.5859 1.3047,4.0859 2.8203,0.8477 5.9179,1.6407 8.7382,1.2618 1.461,-0.1993 2.8243,-0.059 4.1172,-0.2266 2.7305,-0.3555 6.8008,2.0586 7.8828,-0.7344 1.2149,-3.1445 1.9844,-7.1211 0.7813,-10.7851 -0.2344,-0.7149 -2.2578,-0.8946 -0.7227,-2.1133 0.3399,-0.2734 1.3594,0.3359 2.0743,0.5 0.8671,0.1992 1.1835,-0.1133 1.5078,-1.043 2.0976,-5.9609 4.4961,-11.8242 6.4922,-17.8203 2.0117,-6.0469 2.1015,-12.4961 5.3359,-18.4141 3.457,-6.332 2.0312,-13.914 2.1719,-20.9375 0.055,-2.707 -3.5664,-4.3515 -5.3907,-6.5312 -1.3046,0.4883 -1.1757,1.6367 -1.4179,2.5859 -0.2813,1.0899 -0.8477,2.1563 -2.0703,1.6719 -0.8907,-0.3476 -1.7071,-1.2773 -2.1914,-2.1484 -0.5899,-1.0586 0.035,-2.0703 0.9921,-2.6758 2.2266,-1.4102 5.3282,-0.6211 7.2618,-2.8594 0.7617,-0.875 0.8945,-2.7656 0.5586,-2.6992 -7.8555,1.5352 -2.6993,-2.957 -2.2969,-5.0039 0.4453,-2.2695 -3.6406,-2.4922 -1.9805,-5.6563 2.5859,1.8594 4.0664,5.0039 7.2852,5.5821 0.3007,-0.3555 0.9218,-0.9571 0.8593,-1.0352 -3.3789,-4.4687 -2.5195,-8.9336 0.09,-13.2969 1.9297,-3.2304 -0.8867,-6.6796 0.6602,-9.8671 z m 0,0"
     id="path2" />
</svg>
