<?xml version="1.0" encoding="UTF-8" standalone="no"?>
<svg
   width="1200"
   height="400"
   viewBox="0 0 1200 400"
   version="1.1"
   id="svg728"
   xmlns="http://www.w3.org/2000/svg"
   xmlns:svg="http://www.w3.org/2000/svg">
  <defs
     id="defs728" />
  <path
     fill-rule="evenodd"
     fill="#000000"
     fill-opacity="1"
     d="m 842.08302,122.14179 c -1.1094,-0.16797 -1.211,0.65235 -1.2032,1.36328 0.012,0.8086 0.4805,1.48829 1.3711,1.32813 0.6524,-0.10938 1.7305,-0.55078 1.75,-0.89063 0.07,-1.14843 -0.8711,-1.6289 -1.9179,-1.80078 m -466.5704,214.99219 c 0.027,-0.83984 -0.4296,-1.35937 -1.0898,-1.80078 -0.5703,-0.37891 -1.0625,-0.35938 -1.1992,0.30859 -0.2227,1.08203 0.1875,1.97266 1.3398,2.23047 0.25,0.0508 0.6367,-0.48047 0.9492,-0.73828 m -47.4179,-184.46094 c -0.7579,0.39063 -1.1446,1.01172 -0.7227,1.80078 0.207,0.37891 0.7773,0.87891 1.1172,0.82813 0.793,-0.10938 1.3867,-0.75781 1.2773,-1.58984 -0.1133,-0.84766 -0.832,-1.14844 -1.6718,-1.03907 m 530.0859,-12 c 1.1914,-0.0586 1.8828,-0.78906 2.25,-1.80859 0.293,-0.82031 0.012,-1.58203 -0.957,-1.41016 -1.0313,0.16797 -1.8516,0.89844 -1.9531,2.00782 -0.039,0.39062 0.4296,0.82031 0.6601,1.21093 m 142.90238,9 c -1.85938,0 -2.40238,0.53125 -2.55078,1.30078 -0.1992,1.01954 0.5586,1.28125 1.3593,1.26954 0.73828,-0.0195 1.58988,-0.23829 1.60158,-1.10157 0.01,-0.75 -0.4531,-1.46875 -0.4101,-1.46875 M 355.95012,291.96211 c -0.3086,0.38281 -0.9101,0.76953 -0.8867,1.13281 0.047,0.91797 0.7578,1.42969 1.6367,1.14844 0.9219,-0.28907 1.1133,-1.14063 0.6328,-1.89063 -0.1914,-0.30078 -0.9023,-0.26953 -1.3828,-0.39062 M 1041.9423,181.20429 c 0.5782,0.41016 1.0703,0.98828 1.668,1.14844 0.8633,0.23047 1.5508,-0.32812 1.1523,-1.19141 -0.2304,-0.50781 -1.082,-0.83984 -1.7226,-1.01953 -0.207,-0.0586 -0.6289,0.58985 -1.0977,1.0625 m -810.64058,48.91016 c -0.168,-0.87109 -0.7539,-1.38281 -1.5117,-1.45313 -0.9688,-0.0977 -1.3516,0.6211 -0.8946,1.35157 0.3282,0.51953 1.1094,0.78906 1.7422,1.03906 0.086,0.043 0.461,-0.64844 0.6641,-0.9375 M 400.86032,93.47382 c -0.8086,0.0586 -1.6289,0.3711 -1.6797,1.1875 -0.078,1.3125 0.8711,1.76172 2.043,1.67188 0.9687,-0.0703 1.3086,-0.78906 1.2383,-1.62109 -0.09,-0.87891 -0.7618,-1.21875 -1.6016,-1.23829 m -120.5664,147.75 c 0.035,-0.60937 -0.3164,-0.99218 -0.9024,-0.76953 -0.7109,0.26953 -1.3867,0.69922 -1.9883,1.17969 -0.5546,0.4375 -0.3789,0.91797 0.379,1.00781 1.1367,0.1211 2.0117,-0.34765 2.5117,-1.41797 M 496.37202,94.89179 c 0.4492,-0.14843 0.8906,-0.28906 1.3399,-0.42968 -0.5196,-0.48047 -0.9883,-1.0586 -1.5899,-1.37891 -0.2617,-0.12891 -1.1406,0.26172 -1.1719,0.48047 -0.1289,0.98047 0.7032,1.14062 1.4219,1.32812 m 404.5391,14.26172 c 0.3789,-0.51172 0.8203,-0.85937 0.8594,-1.24219 0.1015,-0.84765 -0.3672,-1.4375 -1.2579,-1.51953 -0.6093,-0.0469 -1.0507,0.39063 -0.8398,0.92969 0.2578,0.65234 0.7891,1.19141 1.2383,1.83203 m 70.5898,231.78125 c 0.711,-0.66015 1.4219,-1.04297 1.7227,-1.64062 0.3476,-0.69141 0.1094,-1.53907 -0.7813,-1.76953 -1.1718,-0.29297 -2,0.28906 -2.0117,1.46875 0,0.57812 0.6211,1.16015 1.0703,1.9414 m -710.7266,-5.42187 c 1.1641,0.14062 1.6016,-0.50782 1.6289,-1.32032 0.016,-0.39062 -0.4023,-0.96875 -0.7773,-1.14843 -0.7773,-0.39063 -1.4922,-0.0625 -1.6953,0.78906 -0.1914,0.80859 0.1953,1.44141 0.8437,1.67969 m 619.6758,3.30859 c -0.3593,-0.98828 -0.9882,-1.75781 -2.039,-1.9375 -0.8711,-0.14062 -2.2188,-0.32031 -2.0313,1.00781 0.094,0.66016 1.3828,1.28125 2.2305,1.67969 0.6914,0.32031 1.4219,-0.0391 1.8398,-0.75 m -493.2265,-72.00781 c -0.8008,0.30078 -1.0625,0.92969 -1.0313,1.71094 0.039,0.85937 0.5508,1.57031 1.3594,1.32812 0.4492,-0.14062 0.8398,-1.07031 0.9297,-1.69141 0.1094,-0.75781 -0.2695,-1.4375 -1.2578,-1.34765 m 508.6679,-131.01953 c -0.2109,-0.85157 -0.8398,-1.60157 -1.5898,-1.38282 -0.9297,0.26172 -2.0391,0.86329 -2.4609,1.64063 -0.3399,0.60156 0.6523,1.35156 1.5117,1.26953 1.0508,-0.0977 1.9687,-0.57812 2.539,-1.52734 m 45.8086,3.46875 c 0.09,-1.16016 -0.1484,-1.98047 -0.9375,-2.07813 -0.832,-0.12109 -1.3906,0.62891 -1.4921,1.41797 -0.129,1 -0.09,2.19141 1.3515,2 0.4883,-0.0781 0.8594,-1.03906 1.0781,-1.33984 m 12.1407,-3.48047 c -0.3907,0.26953 -1.1485,0.57031 -1.1289,0.80078 0.1211,1.07031 0.8906,1.10937 1.6484,0.66016 0.4023,-0.23047 0.6602,-0.71094 0.9805,-1.07032 -0.5,-0.1289 -1,-0.26172 -1.5,-0.39062 m 0.539,118.96094 c -0.8789,0.0586 -1.5273,0.41015 -1.2695,1.39843 0.2031,0.80078 0.793,1.44141 1.6797,1.29297 0.8398,-0.14062 1.3711,-0.86328 1.3125,-1.6914 -0.07,-1 -0.9219,-1.05079 -1.7227,-1 m -707.3476,-72.33985 c -0.1368,-1.21094 -0.7696,-1.99219 -2.0235,-1.8789 -0.2812,0.0273 -0.789,0.91796 -0.6836,1.23828 0.2305,0.6914 0.6602,1.55078 1.2539,1.83984 0.9219,0.46094 1.3907,-0.26953 1.4532,-1.19922 m 37.414,117.35156 c 1.1797,-1.45312 2.6328,-2.66015 0.8594,-4.98046 -1.1328,1.55859 -2.0117,2.92968 -0.8594,4.98046 m -41.1562,-103.78125 c -0.3164,-0.57031 -0.4883,-1.30078 -0.7891,-1.35937 -0.707,-0.14063 -1.7383,-0.25 -2.1641,0.14844 -0.6914,0.64062 -0.1914,1.48047 0.6758,1.60156 0.711,0.0977 1.4766,-0.23047 2.2774,-0.39063 m -6.5821,11.03125 c 0.9688,-0.15234 1.4024,-0.76171 1.4375,-1.55078 0.039,-0.85156 -0.5078,-1.41015 -1.3711,-1.38281 -0.8398,0.0312 -1.3984,0.5625 -1.332,1.43359 0.059,0.79688 0.5938,1.31641 1.2656,1.5 m -36.7148,103.78907 c -1.0781,0.36718 -1.4844,1.00781 -1.125,1.80859 0.1641,0.37109 0.8086,0.75 1.2305,0.74219 0.8632,-0.0117 1.4179,-0.65235 1.3007,-1.51172 -0.1132,-0.85938 -0.8125,-1.14063 -1.4062,-1.03906 m 78.9961,-81.67969 c -0.047,-0.87109 -0.5352,-1.55078 -1.3555,-1.44141 -1.0117,0.1211 -1.7812,0.92969 -1.918,1.92969 -0.1171,0.85156 0.7071,1.35156 1.4649,1.37891 1.1875,0.0508 1.6523,-0.82032 1.8086,-1.86719 m -21.5,95.84766 c -0.6602,-0.19922 -1.1289,0.0508 -1,0.67968 0.2226,1.1211 1.0742,1.70313 2.1367,1.97266 0.6133,0.16016 1.1406,-0.14063 1.0313,-0.67969 -0.2305,-1.11328 -1.1485,-1.63281 -2.168,-1.97265 m 564.4219,11.94921 c -0.2696,-1.1875 -1.0899,-1.6875 -2.2305,-1.58984 -0.8281,0.0703 -1.6094,0.61328 -1.5508,1.45313 0.082,1.21875 1.0821,1.67968 2.1836,1.57031 0.7696,-0.082 1.4883,-0.48047 1.5977,-1.4336 M 400.61032,112.69257 c -0.4688,0.33204 -1.4492,0.67969 -1.5,1.1211 -0.1289,1.16015 0.8711,1.80859 1.8711,1.80859 0.5508,0 1.4492,-0.66015 1.6016,-1.1875 0.3906,-1.41015 -0.8907,-1.42187 -1.9727,-1.74219 m -43.0274,0.66016 c 0.2188,-1.08984 -0.5898,-1.33984 -1.3515,-1.48047 -0.7695,-0.14062 -1.6485,0.0391 -1.8281,0.88281 -0.1914,0.85938 0.4882,1.41797 1.3281,1.5586 0.8086,0.14062 1.4805,-0.17188 1.8515,-0.96094 m 21.2188,-5.51953 c 0.4414,-1.60938 1.0586,-2.92188 0.02,-4.30859 -0.1679,-0.22266 -1.25,-0.16016 -1.3398,0.0273 -0.6914,1.51172 -0.3516,2.85156 1.3203,4.28125 M 430.74362,76.173 c -1.1719,0.35938 -1.7305,1.26953 -1.8203,2.28125 -0.1094,1.21875 1.0898,1.73828 1.918,2.14063 0.8203,0.39844 1.3593,-0.46094 1.3007,-1.26172 -0.078,-1.19141 0.2618,-2.67188 -1.3984,-3.16016 m 65.4883,-10.10937 c 0.7422,0.75 1.9805,0.91797 3.2109,0.80859 0.9492,-0.0781 2.3477,-0.1875 1.7578,-1.73047 -0.3984,-1.03906 -1.5781,-1.23047 -2.6484,-1.19922 -1.0898,0.0312 -2.1016,0.21094 -2.3203,2.1211 m -266.2852,127.25 c -0.2539,-0.85156 -0.8359,-1.33985 -1.7148,-1.26953 -0.8907,0.0898 -1.5703,0.71875 -1.543,1.55078 0.043,1.25 0.9492,1.80859 2.1484,1.51953 0.8321,-0.21094 1.1797,-0.92969 1.1094,-1.80078 m 88.5078,51.67969 c -0.625,-1.39063 -1.8515,-1.66016 -3.1836,-1.58985 -0.9023,0.0391 -1.5703,0.69922 -1.332,1.51953 0.4102,1.44141 1.6836,1.85938 3.0508,1.64844 0.7734,-0.11719 1.3984,-0.64844 1.4648,-1.57812 m 569.586,37.03125 c -0.5078,-1.24219 -1.5391,-1.22266 -2.5977,-1.05079 -0.8593,0.14844 -1.5898,0.69922 -1.332,1.58985 0.3633,1.19922 1.4219,1.35937 2.5195,0.98828 0.7305,-0.25 1.5508,-0.45703 1.4102,-1.52734 m -544.2774,45.00781 c -0.031,-1.21875 -1.1093,-1.42969 -2.0507,-1.73828 -0.75,-0.25 -1.8204,-0.46094 -2.0704,0.36718 -0.5312,1.78125 1.1602,1.98047 2.25,2.4336 0.8008,0.33984 1.4493,-0.13281 1.8711,-1.0625 m -4.7422,-192.3086 c -0.4492,0.30079 -1.5038,0.64063 -1.5702,1.12891 -0.2461,1.78906 1.4023,1.91016 2.5624,2.33203 0.7188,0.25781 1.6875,0.22656 1.6172,-0.80078 -0.078,-1.35937 -0.7695,-2.47266 -2.6094,-2.66016 m -17.1211,59.42969 c -0.3125,-1.1914 -0.9843,-1.55078 -1.7617,-1.51953 -0.8672,0.0391 -1.4023,0.64844 -1.3008,1.50781 0.1329,1.17188 0.8477,1.83203 2.0508,1.42188 0.7344,-0.25 1.0664,-0.94922 1.0117,-1.41016 m 554.1329,-43.69922 c -1.0508,0.27735 -2.0313,0.94922 -1.7422,2.00782 0.3633,1.33203 1.7031,1.73046 3.0234,1.67187 0.8477,-0.0391 1.2891,-0.64062 1.1992,-1.49219 -0.1523,-1.46875 -1.0703,-2.1289 -2.4804,-2.1875 m 61.9687,-56.82031 c -0.1679,-1.33984 -1.0508,-1.71094 -2.1289,-1.67969 -1.1992,0.0195 -1.832,0.64063 -1.6406,1.91016 0.1016,0.73828 0.1211,1.78906 0.9805,1.73828 1.2382,-0.0586 2.25,-0.84766 2.789,-1.96875 M 385.90382,118.423 c -0.7618,1.44922 -3.7227,-0.85937 -3.5313,2.62891 1.3906,-0.77734 3.0078,-0.46875 3.5313,-2.62891 m 73.039,-5.51953 c 0.3711,-3.41015 -0.6797,-4.92187 -3.3203,-5.03906 -0.3789,-0.0195 -1.0898,0.46875 -1.1406,0.80859 -0.3789,2.10157 2.082,2.01172 2.7812,3.3711 0.1797,0.34765 0.8399,0.44922 1.6797,0.85937 m 33.1992,-31.44922 c -0.1093,1.41016 1.2618,1.48047 1.9805,2.12891 0.7891,0.71094 2.0078,1.39062 2.6406,0.21875 0.8399,-1.51953 -0.3828,-2.32813 -1.7695,-2.6875 -0.9726,-0.24219 -2.0117,-0.73047 -2.8516,0.33984 m -99.6015,188.01953 c 1.9023,2.8711 1.6015,5.26954 4.1211,5.55079 0.3008,0.0273 0.9414,-0.63282 0.9687,-1.01954 0.2227,-2.42187 -1.9375,-2.64062 -5.0898,-4.53125 M 1018.4233,159.60269 c -0.082,-1.35937 -0.9414,-1.94922 -2.0625,-1.92969 -1.4883,0.0391 -2.5,0.8086 -2.2383,2.48047 0.168,1.05078 0.6211,2.14844 1.8906,2.07031 1.5508,-0.0898 2.0704,-1.35937 2.4102,-2.62109 m -16.0195,-1.69922 c -1.6524,-0.41015 -2.3828,0.14063 -2.51178,0.8711 -0.1796,1.00781 -3.121,1.6875 -0.871,2.66796 2.33198,1.03125 2.76948,-1.42968 3.38278,-3.53906 m -667.53128,-9.21094 c -0.2109,-1.28125 -1.1601,-1.66796 -2.2539,-1.82031 -0.9023,-0.11719 -1.6328,0.19141 -1.4883,1.23047 0.1602,1.16016 1.004,1.83203 2.1368,1.94141 0.914,0.0976 1.4257,-0.49219 1.6054,-1.35157 m 4.7891,157.76172 c 0.051,1.11719 0.4687,2.11719 1.7304,1.91797 1.711,-0.26953 2.5899,-1.55859 2.7813,-3.21094 0.098,-0.91796 -0.5625,-1.3164 -1.4297,-1.32812 -1.793,-0.0391 -2.9297,0.69922 -3.082,2.62109 m -81.3164,3.57813 c -0.9922,2.73047 -1.4024,4.58984 0.2382,6.23047 0.1719,0.17968 1.0977,-0.0312 1.293,-0.32032 1.3672,-2.03125 0.2344,-3.66015 -1.5312,-5.91015 m 604.9174,-204.83981 c -1.5,1.08985 -3.9726,-0.73828 -4.9921,1.92969 2.332,1.40235 3.871,0.30078 4.9921,-1.92969 m -492.3398,242.94141 c -0.2695,-1.48047 -1.1211,-2.37109 -2.6602,-2.37109 -1.1211,0 -2.3203,0.51953 -1.9921,1.76172 0.371,1.39843 2,1.55859 3.2226,1.89843 0.8789,0.23828 1.3789,-0.3789 1.4297,-1.28906 m 542.0586,-58.46094 c -0.1289,-1.28125 -1,-1.69922 -2.0899,-1.82031 -1.5585,-0.17969 -2.4804,0.64063 -2.6093,2.10156 -0.1016,1.21875 0.8203,1.75 1.9492,1.83985 1.5703,0.1289 2.25,-0.92188 2.75,-2.1211 M 454.00092,102.09492 c -2.0508,-2.3125 -3.9687,-2.24219 -5.6679,-2.57031 -1.1329,-0.22266 -1.9805,0.39843 -1.6329,1.83984 0.2422,0.95703 0.1719,2.35937 1.543,2.19922 1.7188,-0.19141 3.3984,-0.83985 5.7578,-1.46875 m -96.0195,195.57812 c 0.012,0.46875 -0.711,0.0391 -1.5195,0.17188 -1.4297,0.22656 -2.3086,1.25781 -2.379,2.67969 -0.062,1.17968 0.7891,2.09765 1.9297,1.64843 1.1875,-0.46093 2.1289,-1.5 1.9688,-4.5 m -57.6797,-53.12109 c 1.3789,0.0312 2.2617,-0.44922 2.2812,-1.67969 0.035,-1.89062 -1.4062,-2.60937 -2.9257,-2.94922 -1.3047,-0.28125 -1.7383,0.8711 -1.8985,1.83985 -0.3398,2.08203 1.211,2.48047 2.543,2.78906 m 75.8984,-149.27734 c -3.5078,-3.22266 -3.5078,-3.22266 -6.707,0.73046 2.4375,1.35938 4.3477,-0.39062 6.707,-0.73046 m 514.5821,60.07812 c 1.4687,3.58984 3.5586,3.48047 5.9297,2.10938 0.7187,-0.41797 0.9687,-1.21875 0.7382,-2.00782 -1.0586,-3.69922 -3.5586,0.23047 -5.1601,-0.90234 -0.168,-0.11719 -0.7891,0.40234 -1.5078,0.80078 M 412.43062,82.0832 c -2.7383,-2 -5.3086,-3.12891 -8.168,-3.10938 -1.0625,0.008 -2.25,0.0977 -2.25,1.39063 -0.012,1.05859 0.8477,2.07812 1.9688,2.07812 2.8086,0 5.6289,-0.23046 8.4492,-0.35937 m -96.6484,199.87891 c 0.07,1.41015 0.1484,2.40234 0.1601,3.40234 0.016,1.26953 -0.1445,2.62891 1.457,3.09766 0.8008,0.24218 1.4649,-0.14063 2.0079,-0.76954 0.9882,-1.16015 0.9218,-2.32031 0.09,-3.48828 -0.7266,-1.01953 -1.4024,-2.14062 -3.7149,-2.24218 m 40.0782,-185.21875 c 1.4609,-0.10157 2.9297,-0.41016 2.8516,-2.08985 -0.129,-2.71875 -2.8204,-1.83984 -4.3008,-2.51953 -1.5977,-0.73047 -2.5196,0.94922 -2.5391,2.14844 -0.031,2.76953 2.3711,2.17187 3.9883,2.46094 m 619.5625,62.41015 c -4.9219,-5.21094 -4.9219,-5.21094 -7.7227,0.44141 2.3516,1.14844 4.5118,-0.20313 7.7227,-0.44141 m 58.80858,-0.66015 c -0.1406,-1.73047 -1.6602,-1.83985 -2.8203,-2.21094 -1.8203,-0.57813 -3.6797,-0.73828 -5.1406,0.85937 -0.2891,0.32032 -0.5,1.08203 -0.3282,1.42188 1.2188,2.41015 3.2188,0.66797 4.8907,0.83984 1.2382,0.1211 2.6093,0.78125 3.3984,-0.91015 M 922.27052,95.91132 c -2.1602,-0.60937 -3.3907,-0.85937 -4.5391,-1.29687 -1.3203,-0.5 -2.5391,-0.69141 -3.2891,0.73828 -0.5117,0.94922 -0.3515,2.10156 0.3203,2.90234 0.9375,1.10938 2.2305,1.1875 3.461,0.44922 1.0664,-0.64062 2.0664,-1.41015 4.0469,-2.79297 M 353.90332,83.81367 c 1.25,2.64062 2.9882,4.23828 5.0078,5.94922 2.0898,-2.64844 4.0195,-5.39844 2.0898,-7.44922 -2.1406,-2.28125 -4.6094,0.44922 -7.0976,1.5 m 53.1367,35.03125 c -1.2774,0.69922 -4.2383,-1.14063 -4.4375,2.20703 -0.1016,1.73047 1.3789,2.85156 3.0703,2.65234 2.25,-0.26953 4.9492,-1.01172 5.25,-3.48047 0.2578,-2.19921 -2.0703,-1.5 -3.8828,-1.3789 m -91.9923,171.4375 c -0.2929,-2.51953 -1.3476,-4.1875 -3.9375,-4.14844 -1.125,0.008 -2.0039,0.82031 -1.7461,2.03906 0.461,2.14844 0.2188,5.10157 3.1915,5.35157 1.4296,0.1289 2.5742,-1.58204 2.4921,-3.24219 m 680.6837,-158.07031 c -1.6484,1.76953 -0.7695,3.98046 -0.8711,5.96093 -0.09,1.98047 1.5312,2.76953 3.2109,2.64844 2.21878,-0.16016 2.37108,-1.75 1.6016,-3.41797 -0.9023,-1.98047 -0.4609,-5.01953 -3.9414,-5.1914 m -685.8594,189.07031 c -0.1797,0.48047 -0.3555,0.94922 -0.5313,1.42187 1.9844,1.28907 3.9688,2.57813 7.8946,5.12891 -3.2656,-4.44141 1.539,-4.78906 1.1562,-7.82813 -3.0586,0.45704 -5.7929,0.86719 -8.5195,1.27735 m 142.0313,33.7813 c 2.0273,-0.3711 4.5781,-4.98052 4.1289,-7.55083 -0.2813,-1.57813 -0.9024,-3.12891 -2.9297,-2.76953 -1.7617,0.32031 -1.6602,1.64843 -1.1602,2.96875 0.8399,2.1914 -1.7109,2.96093 -1.9492,4.73051 -0.2031,1.5625 0.3984,2.4218 1.9102,2.6211 m -267.2501,-72.80083 c 3.3321,3.25 9.4649,4.32031 11.8555,2.46093 0.3477,-0.26953 0.5664,-0.8789 0.5938,-1.35156 0.055,-0.91797 -0.711,-1.57812 -1.4141,-1.39062 -3.4609,0.9414 -7.0078,0.42187 -11.0352,0.28125 m 646.6485,58.60937 c 1.8789,2.57031 2.2188,4.53125 4.1797,5.28906 1.4219,0.54297 2.832,1.6211 4.1406,-0.16796 0.9102,-1.23829 2.1485,-2.39063 1.1797,-4.16016 -0.8906,-1.62891 -2.3789,-1.96875 -4.0195,-1.58984 -1.4414,0.33984 -2.6914,1.4414 -5.4805,0.6289 m 131.8203,-8.32031 c -3.7617,2.10156 -7.2305,1.21094 -10.7305,0.42969 -1.0585,-0.23828 -2.2304,0.24218 -2.6601,1.21093 -0.4609,0.99219 0.059,2.01172 1.0195,2.67969 2.7813,1.92188 6.0703,0.0117 9.1289,1.17188 1.0235,0.39062 2.7813,-2.53907 3.2422,-5.49219 m -137.3711,16.08203 c 2.4297,-1.33203 2.8906,-3.49219 2.5391,-6 -0.2188,-1.55078 -1.3594,-2.22266 -2.6875,-2.46094 -1.6914,-0.30078 -3.0313,0.67188 -4.0899,1.80078 -0.9023,0.96875 -0.082,1.94922 0.5782,2.75 1.1093,1.35938 1.5703,3.34766 3.6601,3.91016 m 148.2305,-60.64062 c 2.5703,3.39062 6.2109,3.23046 8.2812,5.82031 1.3086,1.64062 3.6993,0.17969 4.3672,-1.51953 1.0821,-2.75 -2.5898,-6.16016 -5.7187,-5.60157 -2.0196,0.35938 -4.0313,0.75 -6.9297,1.30079 M 435.61032,118.27461 c 0.8633,1.51953 1.082,2.53906 1.6133,2.73828 4.6484,1.78906 9.1992,0.69922 13.5078,-1.1211 1.2109,-0.51953 2.4219,-2.03906 2.5586,-3.78906 0.1211,-1.46875 -0.3399,-2.62891 -1.8985,-2.96875 -1.6289,-0.37109 -2.5117,0.21094 -2.1914,2.02734 0.8321,4.78125 -3.1093,4.05079 -5.5195,4.32032 -2.2305,0.25 -4.5781,-0.62891 -8.0703,-1.20703 m -83.8672,222.55859 c -1.5898,-4.62891 -3.8516,-6.46094 -8.8398,-5.78906 -3.5508,0.46875 -7.6641,2.89062 -11.586,-1.83985 0.7461,7.89844 7.2539,6.64844 10.6641,9.25 2.4609,1.86719 6.4219,0.89844 9.7617,-1.62109 m -78.2266,-58.96094 c 0.9844,2.19141 2.9141,1.1211 4.2891,1.64063 2.1133,0.80078 5.8867,0.35937 2.7226,4.55078 -1.0742,1.42969 0.461,2.35937 1.9141,2.48047 4.1211,0.34765 8.332,1.09765 12.0781,-1.67969 -2.8047,-3.80078 -2.8047,-3.80078 0.09,-7.47266 -4.8164,-0.42968 -10.4218,3.83985 -14.2578,-2.39843 -0.078,-0.1211 -1.1875,0.10937 -1.2226,0.28125 -0.625,3.35937 -4.6055,0.0469 -5.6133,2.59765 m 17.5312,57.15235 c -9.7539,-5.08204 -18.5937,0.73046 -27.7421,1.88671 -1.8399,0.24219 -1.7774,2.48047 -2.2618,3.8711 -0.4218,1.23047 0.9141,1.78125 1.8789,1.98047 5.336,1.08203 11.1485,0.26172 14.4532,-3.33985 3.0859,-3.35937 6.0625,-2.91797 9.2109,-2.76172 1.6719,0.082 2.9453,0.61329 4.4609,-1.63671 m 688.3829,-205.8125 c 1.332,6.33203 5.4414,5.94921 9.5,5.58984 1.6524,-0.14844 3.0899,-0.75781 3.4492,-2.62891 0.3125,-1.66797 -0.1484,-3.14843 -1.4765,-4.23828 -1.4024,-1.16015 -2.793,-1.29297 -4.0821,0.26953 -0.9804,1.19922 -1.8906,1.75 -2.9101,-0.10156 -0.8477,-1.57031 -2.6289,-1.76953 -4.1406,-1.78125 -2.5,-0.0273 -6.0391,-2.26953 -6.7305,2.57031 -3.2774,0.0899 -6.3477,0.75 -8.7383,3.25 6.3398,3.44141 9.9219,3.04297 15.1289,-2.92968 m -607.4805,140.28125 c 1.2422,-4.67188 1.2422,-4.67188 8.3516,-4.26172 -1.2187,-4.16797 -3.6992,-5.73828 -9.4883,-6 -8.6914,-0.38672 -8.6836,-0.38672 -7.7109,7.92968 0.1211,1.01172 0.1094,2.05079 0.168,3.29297 -3.5001,-2.30078 -3.5001,-2.30078 -3.0001,-5.90234 0.6407,-4.57813 -1.5976,-6.89063 -6.6484,-7.08984 -2.7305,-0.10938 -5.4414,-0.82032 -8.1406,0.1914 -1.5,-5.78906 -5.1289,-2.44922 -8.0782,-1.85937 -5.1015,1.00781 -9.707,-2.8711 -14.8359,-1.44141 -8.8907,-5.35937 -18.3711,-3.37891 -28.336,-2.82031 3.5352,7.28125 0.3828,16.10156 7.293,21.26172 3.1758,-1.08203 0.039,-5.26172 3.7695,-6.01172 3.1602,-0.62891 4.7578,2.92187 8.2969,2.74219 -1.0547,-4.21094 0.168,-6.05079 4.5938,-5.96094 5.2421,0.10937 2,3.67969 2.6914,5.55078 1.3125,3.57812 0.035,9.19922 6.8672,7.96875 2.0742,4.51953 9.5586,2.76953 10.3594,9.25 0.2383,1.92969 3.1797,1.05859 4.7383,-0.0703 2.4921,-1.80078 2.4218,-5.26953 4.5195,-7.32032 2.5703,-2.50781 4.2305,-4.71875 -0.9102,-5.98046 0.793,-2.14063 0.2227,-5.71875 2.6407,-6.07813 2.9804,-0.44141 1.8711,-4.32031 4.4609,-4.35937 2.4219,2.26953 2.9492,5.05859 3.7109,7.86718 1.2383,4.57032 6.8008,6.47266 10.6993,3.67188 1.6679,-1.19922 2.8203,-3.08985 4.2109,-4.66016 0.4102,3.25781 0.4102,3.25781 3.4883,4.39844 -0.2813,-2.30859 -1.6211,-3.61719 -3.711,-4.30859 m -113.7148,-28.03126 c -0.6172,1.55078 -0.2422,3.10156 -0.1641,4.6914 0.4258,8.75781 4.457,16.78906 4.75,25.32031 5.125,1.07032 8.9531,-8.66015 14.4141,-1.15234 4.207,-3.05859 9.2773,-0.91797 13.7695,-2.28906 3.1406,-0.96094 4.8399,-3.71094 3.2578,-6.02735 -2.4687,-3.63281 -1.582,-7.39062 -2.1758,-11.08203 -0.2031,-1.30078 -0.3593,-2.73047 -1.0312,-3.78906 -0.6524,-1.03125 -1.8399,-2.08984 -3.3125,-1.64062 -1.6328,0.5 -1.7227,2.01171 -1.2383,3.25 1.0586,2.69921 1.8399,5.33984 0.625,8.21875 -3.0391,-1.96875 -5.3203,-3.77735 -2.8906,-7.98829 1.3515,-2.35156 -0.6953,-5.60156 -3.1016,-5.21093 -5.0429,0.80078 -6.5547,-3.37891 -9.5898,-5.32032 -1.5938,1.03125 -0.027,3.0625 -1.3711,4.21094 -0.098,-0.57031 -0.1406,-1.10937 -0.2891,-1.60937 -0.4883,-1.66016 -0.2695,-4.39063 -2.8554,-3.83203 -2.4375,0.53125 -3.3243,2.74218 -1.5508,4.92968 2.1679,2.67188 -0.2891,4.20313 -1.4141,6.45313 0.1055,-4.40235 -3.4726,-5.4336 -6.0508,-7.33203 1.0508,0.28906 2.0235,0.16015 2.7657,-0.69141 0.5039,-0.56641 0.9492,-1.41797 0.3515,-2 -0.9609,-0.91016 -1.8828,-0.34766 -2.3789,0.67188 -0.3242,0.66015 -0.3555,1.46875 -0.5195,2.21875 m 758.33588,-108.5586 c -2.5898,-3.5 -7.0781,-2.55078 -10.4609,-4.37109 -1.8203,-0.96875 -5.1875,0.58203 -4.4688,2.58984 0.9297,2.63281 2.3711,6.21094 5.8907,6.73047 2.1797,0.32031 4.6797,-0.25 6.789,-1.07031 1.4219,-0.53906 1.6993,-2.5586 2.0586,-4.09766 0.3907,0.6875 0.8516,1.34766 1.1602,2.07031 0.793,1.8086 1.832,3.65625 4.0508,2.40625 1.6211,-0.90625 0.789,-2.84765 0.4609,-4.34765 -0.2305,-1.01953 -0.5391,-2.07031 -1.0586,-2.96094 -1.0117,-1.71094 -2.7812,-1.59766 -4.2109,-0.94922 -2.2422,1.03125 -0.4688,2.62891 -0.211,4 m -28.37888,198.73828 c 1.4102,-0.73828 2.3985,0.5 3.5899,0.71094 0.5976,0.10156 1.8398,-0.41016 1.9101,-0.80078 0.2696,-1.51953 -1.1093,-1.4375 -1.9492,-1.26953 -1.2305,0.25 -2.3906,0.89062 -3.5898,1.37109 2.0468,-2.48047 4.8476,-2.80078 7.8203,-2.8789 2.957,-0.082 5.78898,-0.66016 9.17968,-4.66016 -7.17188,0.71875 -12.51178,1.12891 -17.80078,1.83984 -2.0195,0.26953 -2.5899,1.66016 -0.961,3.25782 0.75,0.73046 1.6797,1.26171 1.8008,2.42968 m 52.03908,-177.50781 c -0.6094,0.87109 -1.2188,2.08984 -0.1484,2.64844 1.789,0.9414 2.5585,-0.89063 3.7968,-2.10938 -1.3984,-0.1289 -2.6172,-0.25 -3.8476,-0.35937 -0.1992,-1.98047 -0.4024,-3.96875 -0.6211,-6.14063 -2.8594,0.26953 -5.461,0.51953 -8.8399,0.83985 2.5899,1.12109 4.9219,0.8789 5.7422,3.39843 0.5781,1.82032 2.3477,1.75 3.918,1.72266 M 388.33302,71.53242 c -1.4415,0.39062 -2.2422,-0.91797 -3.3907,-1.30078 -0.8906,-0.29688 -1.8203,-1.19922 -2.7187,-0.14844 -0.2617,0.28906 -0.3633,1.03125 -0.1719,1.33984 0.6211,1 1.6406,0.98828 2.6797,0.73828 1.1797,-0.27734 2.2422,-1.26953 3.582,-0.63671 -0.07,-0.25 -0.1836,-0.49219 -0.1914,-0.73047 -0.09,-1.60157 1.3516,-3.5625 -1.0117,-4.6211 -0.3086,-0.14062 -1.1172,0.10938 -1.2695,0.39844 -1.211,2.33203 1.6015,2.76172 2.1211,4.30078 0.07,0.23047 0.25,0.44141 0.3711,0.66016 m 574.8906,189.0625 c 1.6875,-0.48047 4.2187,-0.44141 2.3164,-3.33985 -2.7383,-4.17187 -2.2969,-8.93359 -3.0781,-14.08203 2.9179,1.16016 3.1093,3.21875 3.2812,5.21875 0.75,9.16016 4.2578,17.85157 4.4805,27.15235 0.1094,4.35937 1.9375,4.92968 6.8789,3.66015 2.289,-0.58984 4.668,-0.78125 6.7187,-2.17187 1,-0.67969 1.8399,-0.16797 2.8203,0.42969 1.9415,1.1914 1.1915,6.23046 3.7305,4.5625 2.4414,-1.60157 3.8086,-1.41016 6.1211,-0.94141 1.75,0.35937 3.0274,-1.10156 2.2695,-3.03906 -1.0625,-2.71094 -0.2109,-4.01953 2.55858,-4.3125 l -0.2382,-0.19922 c -0.5625,2.12109 -0.3516,4.1914 0.4375,6.19922 0.4101,1.03125 1.5195,2.35156 2.1796,1.85156 4.5508,-3.39063 7.3829,1.87109 11.2618,2.10156 3.8593,0.22656 7.6211,1.84766 7.3789,-5.4414 3.039,4.73046 0.6718,7.60937 -1.0977,9.96093 -1.7812,2.35938 -4.1328,1.53907 -6.6914,-0.25 -2.6406,-1.83984 -6.1289,0.0391 -9.2383,0.0508 -2.6328,0.008 -1.1914,2.84766 -1.2812,4.46875 -0.8907,-1.60937 -2.6602,-3.30078 -2.5117,-4.78906 0.3593,-3.5 -0.5586,-4.25 -3.82038,-3.33203 -0.957,0.26953 -2.6093,-1.85937 -3.289,-0.12891 -1.0313,2.66797 -4.168,3.3086 -5,5.89063 -0.5586,1.73828 0.7695,2.42969 2.1601,2.4375 4.1719,0.0508 8.3321,-0.0781 12.49998,-0.12891 1.1914,1.46094 1.6094,4.60157 4.5118,2.83203 5.9179,-3.62109 10.1796,-1.72265 13.1484,3.78907 2.5117,-0.44141 1.8906,-8.01172 6.2305,-2.24219 0.5,0.67187 2.8203,1.25 3.6015,0 2.0586,-3.30859 2.9688,-1.12891 3.2969,0.72266 0.293,1.61718 0.4531,4.21875 -2.4375,3.86718 -4.6211,-0.54687 -8.4414,1.0625 -12.9805,3.58203 3.25,0.53907 5.6485,0.71094 7.8907,1.37891 2.1484,0.62891 4.1406,1.60938 1.4804,4.32031 -1.4804,1.5 -0.25,2.92969 1.1172,3.91016 3.293,2.35937 2.1524,4.60937 -0.4687,6.19922 -5.3204,3.25 -9.1211,8.92969 -16.0391,9.72265 -1.6406,0.1875 -4.0508,1.51954 -4.5117,2.85938 -2,5.85937 -7.0078,5.03906 -11.37108,5.91016 -3.6289,0.73046 -7.4102,2.85937 -10.7969,2.32812 -12.0898,-1.91797 -22.6719,5.19922 -34.582,4.75 -12.1289,-0.46875 -24.2383,1.92188 -36.3594,2.69922 -5.6289,0.35937 -11.8008,2.20312 -17.3906,-1.09766 -0.5899,-0.33984 -1.5977,-0.46093 -2.1797,-0.1914 -9.0703,4.23051 -18.8984,3.05078 -28.4297,4.03911 -3.8984,0.4101 -7.8086,0.07 -11.6602,1.7929 -3.4179,1.5196 -7.2695,0.5078 -10.6992,-0.8398 -3.1211,-1.23049 -5.7617,-2.08206 -8.6406,0.8281 -1.9414,1.9688 -5.3789,2.6406 -7.2695,0.5898 -4.6797,-5.03902 -9.7422,-2.4882 -14.5,-1.1679 -2.2696,0.6289 -3.6719,1.1094 -5.6016,-0.5313 -1.707,-1.46091 -4.4492,-1.41013 -6.0898,-0.6718 -4.7188,2.1328 -9.8086,1.6914 -14.5977,2.9218 -5.0312,1.2891 -9.7305,1.668 -14.6016,-0.9218 -1.6289,-0.8594 -4.2109,-1.75 -6.1796,1.0117 -2.1407,3.0195 -6.4805,2.0586 -8.7813,1.5586 -8.1172,-1.7578 -15.5781,2.0507 -23.4101,1.5195 -4.9297,-0.3281 -10.3399,2.9609 -14.6993,-2 -0.3086,-0.3398 -1.539,-0.1289 -2.1992,0.1602 -9.6719,4.2617 -12.7305,4.4609 -24.1015,1.4609 -0.4688,-0.1211 -1.2579,-0.3281 -1.4102,-0.1406 -4.2891,5.6914 -10.2773,1.9726 -15.418,2.6718 -5.4101,0.7383 -10.9101,0.6602 -16.4492,0.4883 -9.9023,-0.3086 -19.9219,-0.5273 -29.8828,1.1914 -7.75,1.3399 -15.7305,1.7188 -23.6172,1.8477 -6.3125,0.1015 -12.4609,2.0898 -18.8828,1.1211 -2.8984,-0.4375 -5.4102,1.5898 -7.9492,3.1406 -3.9492,2.4102 -7.8985,5.2813 -13.1211,2.3594 -2.6367,-1.4805 -5.1289,0.7812 -7.1485,2.2617 -2.1914,1.6172 -4.0898,2.3086 -6.4609,0.75 -0.6992,-0.9219 0.031,-1.293 0.6602,-1.7227 1.5625,-1.039 4.7617,-0.8476 3.5703,-4.0468 -1.0703,-2.8907 -3.3985,-1.1914 -5.3906,-1.2618 -7.4297,-0.25 -14.8672,-1.2187 -22.0196,1.7813 -4.3594,-2.5625 -10.0781,2.207 -14.0195,-2.6328 -0.4102,-0.5 -0.8984,-0.3594 -1.4102,0.062 -4.539,3.7305 -9.1484,0.2109 -13.6992,-0.039 -2,-0.1211 -3.7109,-1.5235 -5.3203,1.1094 -1.3086,2.1406 -3.7305,1 -4.8398,-0.2227 -3.75,-4.1289 -7.1289,-4.3672 -11.3008,-0.4766 -2.6992,2.5196 -6.4805,2.6368 -9.5703,0.8477 -2.1289,-1.2383 -3.6485,-3.0391 -6.211,-1.1094 -0.6797,0.5117 -1.1797,-0.019 -1.789,-0.6484 -4.3907,-4.4922 -5.8086,-4.5703 -11.7891,-1.0508 -1.8711,-1.8828 1.1914,-3.2891 0.3516,-5.5195 -2.1524,-1.0821 -4.4727,1.1601 -7.1602,0.039 -5.4922,-2.2617 -5.6719,-1.8203 -6.6797,4.7304 3.5469,1.2696 9.0899,-3.6211 10.9571,4.0899 -6.0079,1.3008 -11.8985,0.7578 -17.7774,0.09 -1,-0.1211 -2.0625,-0.6524 -2.8516,-1.2891 -1.4804,-1.2109 -1.3593,-4.4922 -4.3398,-3.6718 -2.2109,0.6015 -2.6289,3.082 -3.9414,4.6484 -0.4883,0.5937 -1.2891,1.6211 -1.6875,1.5117 -6.4492,-1.7891 -13.4922,1.6406 -19.582,-1.9492 -2.3672,-1.3906 -4.0899,-3.5117 -6.6875,-0.6797 -0.3203,0.3477 -1.0821,0.75 -1.3907,0.5977 -5.0703,-2.4297 -10.2226,0.1718 -15.082,0.062 -2,-3.4727 3.1094,-3.3516 2.25,-6.5313 -3.5195,-0.9492 -8.1992,0.2188 -10.75,-4.2695 -1.0586,-1.8789 -2.8594,0.07 -4.0195,0.8594 -2.961,2.0195 -4.8282,1.1015 -6.1992,-1.9102 0.6601,-2.8906 3.3593,-3.53126 6.4804,-4.96095 -3.039,-0.21875 -4.5195,-2.02734 -7,-1.53906 -0.031,2.25 -0.7187,4.53121 0.711,6.67971 -1.9219,0.012 -3.6602,0.5312 -5.1602,1.7617 l -9.293,3.8203 c -1.2578,0.5274 -2.5078,1.0274 -3.0586,-0.8906 -0.7382,-2.582 -3.3085,-2.0391 -4.6523,-1.832 -5.5625,0.832 -9.6445,-0.6289 -11.2891,-6.27739 -3.8984,1.55859 0.6485,3.99999 -1.3945,5.44919 -0.2734,0.059 -0.6719,0.2383 -0.7422,0.1485 -6.7109,-8.2891 -13.7187,-5.0586 -21.0391,-0.8594 -2.2812,1.3086 -5.3515,0.9102 -6.0898,4.6406 -0.3203,1.6016 -2.3945,1.25 -4.0156,0.4102 -4.0352,-2.0821 -4.6797,-1.6719 -4.6641,2.8008 0,0.8086 0.207,1.457 -0.6875,1.8281 -0.9375,0.082 -1.5586,-0.5078 -1.6094,-1.2774 -0.5078,-7.8632 -0.5195,-7.7304 -7.9687,-9.582 -3.9805,-1 -7.9336,-0.7305 -11.7735,-0.059 -4.3554,0.7578 -8.4062,0.1172 -12.5078,-1.0312 -4.4297,-1.25 -5.0625,-2.46099 -3.2656,-6.51177 1.1524,-2.57812 2.0977,-5.26953 3.9961,-7.41797 -0.4062,-0.28125 -9.0664,-6.30078 -9.0664,-6.30078 1.1875,-0.78906 1.957,0.25 2.8477,0.67188 1.207,0.57812 2.5351,1.38671 3.6914,0.3789 1.3984,-1.21875 0.7109,-2.80859 0.25,-4.35937 -2.3399,-7.96094 -4.1211,-9.35938 -12.2383,-8.83985 -1.8047,0.11719 -3.3985,0.80078 -5.3281,-0.10937 -3.1172,-1.46094 -2.8907,1.80859 -3.8008,3.14844 -3.8985,-3.30079 -0.711,-9.21094 -4.5664,-12.92969 -3.0352,1.75 -0.023,5.6289 -3.3868,7.09765 -3.1367,-5.04687 -3.6757,-11.32812 -6.4414,-16.86718 -2.3593,2.05859 0.7422,4.10937 -0.1015,6.19922 -0.8321,2.07031 0.5898,4.07812 0.9219,6.1289 0.375,2.32031 0.289,4.71094 -0.055,7.65235 -3.0508,-5.07032 -8.8008,-1.51172 -12.0665,-4.96094 -2.871,2.51953 -0.3554,5.98828 -2.5664,8.91015 -2.5586,-0.44921 -3.0937,-5.14062 -6.8789,-3.80078 -1.8554,1.6211 2.3282,4.30078 -0.6015,6.14844 -2.7188,-1.51953 -2.4961,-4.26953 -2.9102,-6.76953 -0.3008,-1.82813 -1.4961,-2.94922 -3.3398,-2.4375 -1.5117,0.41797 -1.6407,1.96875 -1.3282,3.30859 1.1915,5.16016 1.4571,10.39063 1.711,15.78907 -2.461,-0.48047 -2.1485,-2.07813 -2.3281,-3.60938 -0.5196,-4.46094 -1.1368,-8.91016 -1.8907,-13.32812 -0.4101,-2.40235 -0.1015,-3.72266 2.5469,-4.8125 3.9414,-1.61719 4.1016,-3.30079 0.5625,-4.71875 -2.7773,-1.1211 -3.2148,-1.83204 -1.9492,-4.39063 1.3789,-2.80078 3.6289,-3.66016 5.5351,-1.64844 2.125,2.23828 2.2774,1.91016 3.2227,-0.65234 0.4648,-1.26953 2.2109,-2.42969 3.625,-2.91016 3.0586,-1.03906 1.8086,-3.32031 1.8516,-5.21875 0.01,-0.39062 -0.4961,-0.98047 -0.8985,-1.14843 -0.7968,-0.32032 -1.1562,0.17968 -1.6718,0.91015 -3.1875,4.47656 -5.4375,5.29688 -9.9571,3.8086 -2.9687,-0.98047 -6.5078,-0.60157 -8.5078,-3.92969 -0.6758,-1.1211 -2.207,-0.83985 -3.5742,-0.87891 -4.1484,-0.13281 -5.7813,-3.47265 -3.543,-6.67187 1.8828,-2.67969 4.4375,-3.58985 7.6133,-3.08985 1.3516,0.21094 2.6367,0.0899 3.3828,-1.33984 3.4024,-6.48047 4.3399,-6.98047 10.8164,-5.73047 0.5078,0.10156 1.2188,0.62891 1.4571,0.44922 5.1445,-3.89063 11.7187,1.54297 16.8203,-2.62891 1.1601,-0.94922 2.4804,-0.64843 3.5703,0.37891 0.7578,0.71094 1.4375,1.53125 2.2617,2.15234 1.3359,1 4.7148,-2.97265 4.4492,1.51953 -0.1914,3.23047 -3.8633,0.16797 -5.3047,2.23047 0.4336,2.07032 1.5742,3.82032 3.9297,3.78907 2.3672,-0.0508 3.9141,1.10937 5.668,2.33984 3.6914,2.60937 6.9726,1.78125 9.2617,-2.5 0.6602,-1.23828 1.2539,-1.37891 2.3516,-1.41016 1.1015,-0.0195 2.0507,-0.46875 3.0195,-2.16797 -5.6719,-0.93359 -8.5195,-4.09375 -7.1289,-9.92187 1.375,-0.60938 1.9219,0.28125 2.3047,1.26953 0.7304,1.87109 1.9961,3.80859 3.9844,2.92188 2.3671,-1.07032 0.4882,-3.17188 0.055,-4.8125 -0.7305,-2.76954 0.3007,-5.48829 -0.3008,-8.33985 4.9765,2.89063 1.3125,8.44141 4.8398,12.15235 2.0977,-0.95313 3.0742,-2.85157 3.7188,-5.05079 l -0.023,0.1211 c 4.1797,1.44922 8.3593,2.88672 12.3476,4.26953 1.2188,-1.03125 1.3789,-2.41016 0.8672,-3.05078 -4.4258,-5.60938 -2.7031,-12.41016 -3.7031,-18.64063 -0.582,-3.6289 -1.4688,-6.64062 -5.3008,-7.8789 l 0.2305,0.1875 c -2.1797,-0.6875 -3.6953,-3.12891 -6.3828,-2.50782 -1.6563,2.33985 1.2421,5.3086 -1.711,7.98047 -1.0664,-2.75 -2.2304,-5.21093 -2.9804,-7.80078 -2.3243,-7.98047 -3.3438,-8.46875 -11.6524,-4.8789 2.0078,3.05859 4.25,-0.65235 6.2149,0.28906 1.4335,0.69922 3.2343,1.28125 3.0351,3.16015 -0.207,1.91016 -1.8047,2.26954 -3.6055,2.05079 -1.5156,-0.19141 -2.6406,-1.86329 -4.4257,-1.01172 -3.9258,1.85156 -5.3516,-0.35938 -5.7657,-3.78907 -0.2617,-2.19921 -1.7968,-3.89062 -3.4531,-3.78125 -4.5859,0.32032 -4.8906,-2.76953 -5.5898,-5.83984 -0.3438,-1.53125 -0.8008,-3.03906 -1.2578,-4.53906 -1.8477,-6.10938 -1.9571,-6.28906 3.7539,-9.44922 1.7187,-0.95313 1.4492,-3.53125 3.4296,-3.69141 2.8204,1.03125 2.7071,4.96875 6.6875,5.26953 -0.8984,-3.98828 0.4844,-7.91796 -5.8398,-9.05859 -3.6211,-0.66016 -3.2031,-5.94141 -3.4687,-9.58984 2.3789,0.61718 1.6406,3.16797 2.8828,4.46875 0.7226,0.75 1.5117,2.23047 2.4336,1.6289 5.5,-3.52734 6.4609,1.41016 8.5117,4.35157 1.5547,-6.25 1.2031,-8.53907 -3.586,-10.58985 -3.8437,-1.64844 -5.4062,-6.83984 -10.5234,-6.25 -1.207,0.12891 -1.3359,-1.37109 -1.6719,-2.35937 -1.1836,-3.48047 -2.0078,-7 -2.082,-11.28125 3.0664,2.51172 3.4922,5.53906 4.2187,8.46093 0.3399,1.37891 1.4493,2.37891 2.9063,2.17969 1.8281,-0.23047 1.3164,-1.78906 1.4141,-3.08203 0.25,-3.37891 -1.2618,-6.05859 -2.875,-8.81641 -0.6289,-1.08203 -0.7852,-2.53125 0.051,-3.77343 0.7968,-0.58985 1.4023,-0.21875 1.9453,0.40234 1.2539,1.42969 1.207,4.89063 4.125,3.71875 2.3945,-0.96875 2.8633,-3.57812 2.0625,-6.14062 0.6094,5.51171 6.7539,8.94921 5.2578,15.33984 2.9141,-2.19922 1.168,-4.86719 1.4258,-7.1875 0.2226,-2.01953 -0.5235,-4.23047 2.0429,-5.28125 -0.2461,4.33984 -1.0117,8.87109 4.2813,11.44141 0.918,-7.61329 0.918,-7.61329 -4.4766,-11.23047 -2.1133,-1.07032 -4.0937,-2.28907 -5.7734,-4.01953 -1.0703,-1.10157 -2.2578,-1.23047 -3.0195,0.48046 0.3476,-1.05078 0.2968,-2.10156 -0.2813,-3.03125 -1.8476,-2.98046 -4.2422,-5.89062 1.6406,-7.33203 1.7305,-0.41797 1.7071,-2.13672 0.7891,-3.89843 -2.625,-5.03907 -2.5156,-5.58985 2.625,-7.46875 2.293,-0.83985 3.7344,-1.67188 3.6953,-4.24219 -0.031,-2.17969 0.9102,-1.44922 1.3594,-0.28906 1.1523,2.98046 3.789,0.80078 5.4883,1.73828 l 11.164,0.41015 c 1.4532,-0.0898 1.3008,-1.19922 1.5508,-2.19922 0.3555,-1.39843 1.3594,-1.26953 2.375,-0.6289 4.8203,3.05859 6.5,2.82812 9.3828,-1.30078 2.1133,-3.03907 6.5821,-4.82813 9.3828,-3.73828 1.0352,0.41015 2.1993,1.42968 1.7813,2.27734 -3.1563,6.49219 3.8984,5.14062 5.914,7.53125 1.2618,1.48828 4.0586,0.75 5.9649,-0.19141 2.5039,-1.23047 0.3398,-3.23047 0.5508,-4.84765 0.1679,-1.28125 0.7617,-2.5 1.164,-3.75 l -0.1953,0.21093 c 1.4688,0.46875 1.7813,1.75 2.211,3 0.4336,1.28907 1.3125,2.16797 2.664,2.54688 2.0781,-1.55859 0.8203,-4.05859 2.0742,-5.80859 1.3829,-1.94922 3.793,-2.14844 5.3204,-4.28907 1.9531,-2.73047 3.832,0.78907 5.6992,1.89844 1.5273,0.92188 3.4883,0.96875 4.6992,2.62109 0.9062,1.23047 2.1211,2.23047 3.1992,3.32813 2.6016,-1.19922 0.4024,-3.62891 1.6914,-4.91797 1.6367,-1.64062 3.4922,0.0781 5.2188,-0.23047 2.8398,-0.51172 6.7227,0.82031 7.2344,-3.96094 l -0.1641,0.23047 c 2.2266,-2.01172 -0.3008,-4.39843 0.6328,-7.26172 2.6602,2.5625 4.3438,6.36329 8.8438,5.02344 1.6406,-0.49219 3.043,1.17969 2.832,2.98828 -0.332,2.89844 2.2188,3.23047 3.5977,4.60938 0.3515,0.35156 0.5703,0.82031 0.8515,1.23047 -2.7382,-6.71875 9.4414,-0.75 6.6602,-7.8086 -0.3711,-0.92968 5.2305,-1.24218 4.9805,-0.6914 -2.75,6.01172 3.1406,3.82031 4.9609,5.32031 1.2695,1.03125 1.0274,3.10937 2.8281,3.62109 0.8789,-0.0312 1.4493,-0.53125 1.7422,-1.3125 0.5664,-1.60937 -0.3711,-4.46875 2.0664,-4.5 2.4336,-0.0273 3.3516,2.0625 2.7422,4.63282 -0.5,2.10937 1.8711,2.39843 2.2891,1.75 1.5312,-2.41016 5.8711,-0.11329 6.3515,-4.07032 0.078,-0.71093 1.75,-1.91015 2.3594,-1.74218 5.1914,1.44921 7.1094,-5.73829 12.5703,-3.59766 -1.8203,-3.47266 -4.2304,-4.99219 -6.582,-6.53125 -0.5977,-0.39844 -2.0977,-0.60938 -2.1602,-0.46875 -2.3281,5.46875 -6.6484,0.92969 -9.8984,1.89844 -3.3516,0.98047 -7.4297,-0.19922 -8.8203,4.6914 -0.25,0.89844 -2.3594,0.73047 -3.9609,0.14063 1.1015,-3.86328 1.9726,-7.76172 0.8593,-11.47266 3.711,-1.19922 4.0508,2.40235 6.2617,2.42188 3.0821,-3.03907 3.3711,-7.69141 6.6485,-11.14063 -5.0391,-1.08984 -9.7383,-1.12109 -13.6289,2.10156 -4.6289,3.82813 -9.6407,1.0586 -14.4375,1.41797 -1.4219,0.10938 -3.1211,-4.92968 -1.5235,-7.80859 1.6211,-2.91016 0.293,-5 -1.1289,-5.85156 -4.5078,-2.69141 -2.7304,-4.48828 0.2188,-6.6211 0.2422,-0.16797 0.031,-0.96875 0.043,-1.75 -6.2226,1.16016 -12.1992,-6.95703 -18.5586,-0.19922 -2.6367,0.74219 -5.25,-0.0586 -7.8867,-0.0586 -4.0899,-2.5625 -4.0899,-2.5625 -7.3399,1.46094 2.9063,0.13672 5.2618,-0.44141 7.5079,-1.66016 -0.6485,0.88672 -1.1875,2.07813 -0.4102,2.85938 2.9531,2.98828 4.4141,2.42968 7.918,-2.80078 4.3477,0.23046 8.3594,1.23828 11.6172,5.35156 -3.8086,1.96875 -8.6563,3.79687 -4.25,9.61719 -4.9844,1.17968 -9.3711,2.53125 -13.8711,0.23046 -0.9024,-0.46875 -2.6329,-0.50781 -2.4805,-1.57031 0.9922,-6.91797 -4.2852,-5.78906 -8.1055,-6.51953 -2.3047,-0.42969 -4.0781,-0.91797 -2.8828,-4.03906 1.0742,-2.80078 -0.6484,-3.75 -3.2383,-3.85938 -4.6914,-0.22265 -9.3437,-1.29297 -14.0625,0.25782 -1.9218,0.64062 -4.4922,1.0625 -3.3554,-2.82813 0.2851,-0.96094 -0.8868,-2.33984 -1.3555,-3.53906 -1.8242,-4.66016 -1.1524,-6.05078 4.1953,-7.30078 2.1758,-0.51172 3.1406,-2.33985 3.6875,-3.63282 1.5898,-3.77734 4.5859,-4.21875 7.9766,-5.30859 14.3593,-4.58984 29.2969,-6.26953 43.9141,-9.5 25.4375,-5.60937 51.0976,-7.67969 77.0508,-7.66016 2.6093,0.0117 5.2187,-0.53125 7.8281,-0.73046 1.332,-0.10938 3.0312,-0.0508 3.0195,1.67187 -0.027,7.28906 5.2227,2.73047 5.8594,1.80859 2.1914,-3.12109 5.0898,-3.21875 8.1914,-3.53125 18.1406,-1.79687 36.3984,-0.79687 54.5586,-2.30859 0.9102,-0.0781 1.9102,-0.12109 2.3203,1.30078 0.7813,2.75781 1.0117,2.87891 3.1016,1.12891 1.9687,-1.64063 4.0195,-2.03906 6.5195,-1.98828 14.2617,0.32031 28.5,-0.53125 42.7109,-1.55078 10.0704,-0.71875 20.0704,0.0898 30.0977,0.0703 25.0703,-0.0703 50.1523,-0.33985 75.2109,-0.0117 15.8086,0.21094 31.6407,-1.57031 47.4102,0.65234 10.9297,1.53907 21.9492,2.67969 32.8594,3.78907 11.1211,1.14062 22.5195,1.51953 33.8007,2.01953 10.711,0.48047 21.3711,2 32.0899,2.4414 10.3008,0.41016 20.1289,4.21875 30.4922,3.89844 1.0469,-0.0391 2.6679,-0.32031 3.0781,0.23047 3.5586,4.67969 7.9297,2.71875 12.2188,1.80859 0.7617,-0.16015 1.8007,-0.4375 2.332,-0.0898 7.0195,4.72266 16.1211,1.60156 23.1992,6.29297 2.6289,1.73828 6.6016,1.30859 8.8906,0.64844 6.418,-1.85157 10.6797,2.08984 15.5391,4.1914 2.5508,1.09766 3.9219,2.82031 7.5312,1.39844 2.6797,-1.05859 7.4883,0.78125 10.168,2.85156 3.8516,2.97656 8.2617,3.98828 12.5,5.44922 3.9102,1.33984 7.2227,3.94922 12.5,5.4375 -5.4297,0.15234 -7.8203,2.24219 -7.3203,6.97266 0.1523,1.46093 -0.5,3.1875 -2.5273,3.5 -1.1602,0.17968 -2.9219,-0.35157 -2.6211,1.76953 0.1601,1.09765 1.1914,1.89844 2.25,2.03906 6.7695,0.87109 12.0703,4.48047 16.9687,8.90234 0.2813,0.23829 0.9492,0.0586 1.4414,0.0664 0.1406,-0.46875 0.5391,-1.13672 0.3594,-1.37891 -0.8594,-1.16796 -2.8711,-1.9375 -1.0391,-3.80078 0.6992,-0.70703 1.3789,-1.89843 2.5703,-1.23828 1.3282,0.75 3.5274,1.87891 2.8594,3.32031 -2.3086,5.01954 3.0391,8.41797 2.3086,13.23829 -0.3672,2.42187 2.3516,4.60937 5.3711,4.49218 1.5586,-0.0625 4,0.41016 2.7813,-3 -1.5196,-4.26172 1.5703,-3.49218 3.9492,-2.9414 5.039,1.17187 5.0312,1.21875 5.7187,-4.92969 1.1289,1.87891 1.75,3.44141 2.8321,4.55859 1.3398,1.39063 3.0273,2.17969 4.7382,0.19141 0.4024,-0.46875 0.3321,-3 1.4688,-1.07031 2.2109,3.76172 3.5625,1.99218 6.0117,0.28125 2.1719,-1.5 2.64838,3.01953 5.32028,2.57031 3.4102,-1.63281 -0.2187,-5.45313 1.9414,-7.58984 1.668,0.14843 2.0274,1.41796 2.5664,2.64843 0.8321,1.91016 -0.9375,6.96875 4.6524,3.48047 1.4101,-0.89062 2.9883,3.0586 4.3008,5 1.6484,2.42969 2.4179,-0.0117 3.3984,-0.94922 l -0.1602,0.10938 c 4.6602,0.41797 6.6797,2.3789 4.8594,7.30859 -0.9883,2.66016 -0.09,5.25 2.2617,7.07031 0.8594,0.66016 1.9492,0.91016 2.9688,0.3711 1.1797,-0.64063 1.0625,-1.76953 0.6211,-2.76953 -2.8789,-6.58985 -3.5703,-13.60157 -4.0703,-21.3125 4,1.72265 4.1992,5.51172 4.9296,8.39062 1.0196,4.0625 1.0508,8.3711 1.4297,12.58203 0.1407,1.5586 -0.3086,3.19922 0.75,4.59766 0.711,0.92969 1.7305,1.37109 2.6993,0.74219 0.5117,-0.32032 0.9296,-1.40235 0.7812,-1.98047 -0.3906,-1.51953 -1.2695,-2.92188 -1.6602,-4.44141 -0.3906,-1.50781 -0.6796,-3.53906 1.5118,-3.69922 1.7382,-0.1289 3.8203,0.3711 3.8984,2.91016 0.031,0.78906 -0.2187,1.60156 -0.1406,2.37109 0.3398,3.34766 -0.168,7.3086 5.3789,6.64063 1.7812,-0.22266 2.0312,1.50781 1.5625,2.80859 -0.4414,1.21094 -1.2305,2.35938 -2.1016,3.3086 -0.7109,0.78125 -1.8398,1.32031 -0.75,2.42187 0.7813,0.78906 2.0899,1.08984 2.7305,-0.0312 2.0586,-3.69922 2.9609,-4.30078 5.3906,0.21094 1.3985,2.62109 1.6485,-2.37891 3.5391,-2.46094 3.6992,2.71094 -0.039,7.89063 3.5,10.69141 1.7304,-0.28125 -1.0391,-6.19141 3.4609,-2.94141 1.5899,1.12891 2.8086,2.21875 4.918,1.42188 1.2031,-0.46094 2.8828,-0.66016 2.9023,1.32812 0.031,2.17969 -1.5117,2.35156 -3.289,2 -0.3321,-0.0703 -0.8008,0.57031 -1.75,1.30859 2.039,1.46094 3.9492,3.95313 5.8984,3.98047 3.5391,0.0508 1.9688,2.69141 2.2109,3.72266 0.3985,1.69922 -1.3398,1.75781 -2.6718,1.16016 -0.4375,-0.20313 -0.7383,-0.73047 -1.0703,-1.13282 -1.2969,-1.57812 -2.0782,-4.6289 -4.3985,-3.95703 -2.9101,0.83985 -5.8594,2.5586 -7.2305,5.64844 -2.9296,6.58984 -4.3593,13.37109 -1.789,20.42969 -1.8711,-0.58985 -3.7422,-2.42969 -5.4727,0.12109 -0.098,0.14063 -0.019,0.53906 0.1211,0.69922 2.211,2.46875 3.3008,-1.85156 5.2813,-0.89063 1.7578,1.83204 1.6093,3.99219 0.289,3.67969 -5.1406,-1.17969 -5.7812,5.85938 -10.4609,5.26953 -0.9102,-0.10937 -1.5586,1.35157 -1.6172,2.46094 -0.1523,2.75 -1.7305,2.32031 -3.0117,1.10938 -2.7109,-2.5586 -5.8711,-1.27735 -7.8281,0.043 -2.6407,1.77735 -4.6914,4.01954 -8.2813,3.86719 -1.3711,-0.0586 -1.9297,1.48047 -2.082,2.94141 -0.168,1.73828 1.4609,3.57812 -0.5469,5.55859 -2.6133,-1.78906 -0.4219,-5.8789 -3.7617,-7.51953 -3.1094,1.71094 -1.0508,5.87109 -3.3281,8.03906 -1.7813,-1.66015 -0.6719,-4.08984 -1.5821,-5.98047 -0.4804,-0.97656 -0.8711,-2.00781 -2.1601,-1.86718 -1.211,0.11718 -1.6094,1.05859 -1.9297,2.14843 -0.5078,1.71875 0.7109,3.74219 -1.0508,5.33985 -4.5703,-1.28906 -0.1875,-6.66016 -4.1601,-8.55078 -3.9805,4.42187 -0.039,9.72265 -0.8985,14.62109 -2.9297,-1.19922 -3.0312,-3.28125 -3.1914,-5.39844 -0.3086,-3.88281 -1.84758,-5.89062 -6.23828,-4.48047 -2.3515,0.75782 -5.4414,-0.49218 -6.8203,2.71875 -2.3203,-2.30078 -4.1211,-0.48828 -6.5312,0.14063 -3.0196,0.78125 -6.2891,0.5 -8.8008,2.91016 -2.5195,-2.78125 -6.6367,-0.82032 -9.457,-3.37891 -1.9297,-1.75 -3.2422,-0.24219 -3.5196,2.14062 -0.3203,2.69922 0.1485,5.29688 0.8281,7.84766 0.6094,2.24219 1.5586,4.39063 0.6719,6.85156 -5.0312,-4.42187 -0.4219,-12.10937 -6.1914,-17.29297 -0.3906,5.04297 -2.1914,8.79297 -1.2617,13.69141 -1.8594,-1.84766 -1.5586,-4.71875 -4.4102,-3.75 -1.6875,0.58203 -2.8984,1.78906 -2.7578,3.46094 0.4883,5.82812 2.168,11.3789 4.6485,16.67969 0.3203,0.66796 1.0312,1.57812 1.6211,1.62109 3.8789,0.30859 5.3007,2.73828 5.9882,6.14844 0.4727,2.28125 3.0235,2.85156 4.2735,4.53906 -7.8828,0.46094 -8.0938,0.5 -7.1016,6.10156 0.5,2.78906 -1.6289,6.57031 0.9688,8.1211 2.6601,1.58984 5.1601,-2.65235 8.8007,-1.8125 -0.539,-2.3086 -3.2304,-3.4375 -1.8007,-5.41797 2.082,-2.8711 -0.6797,-4.82032 -1.1172,-7.19922"
     id="path562" />
</svg>
