<?xml version="1.0" encoding="UTF-8" standalone="no"?>
<svg
   width="1200"
   height="400"
   viewBox="0 0 1200 400"
   version="1.1"
   id="svg728"
   xmlns="http://www.w3.org/2000/svg"
   xmlns:svg="http://www.w3.org/2000/svg">
  <defs
     id="defs728" />
  <path
     fill-rule="evenodd"
     fill="#000000"
     fill-opacity="1"
     d="m 981.30418,223.28971 c 1.1328,-0.0625 1.9023,-0.46094 1.6211,-1.3125 -0.1602,-0.50781 -1.0391,-0.94922 -1.6602,-1.09765 -0.8086,-0.17969 -1.5781,0.32812 -1.3007,1.21875 0.1796,0.53906 0.9804,0.89062 1.3398,1.1914 m 45.71092,2.58985 c -0.3203,-0.28125 -0.6601,-0.82032 -0.9687,-0.80079 -0.3789,0.0195 -0.961,0.4375 -1.0625,0.80079 -0.2695,0.98828 0.4414,1.26953 1.2226,1.02734 0.3399,-0.0977 0.5508,-0.66016 0.8086,-1.02734 M 377.54638,74.188149 c 0.039,0.0195 -0.5899,-0.48047 -1.2891,-0.60938 -0.8906,-0.17187 -1.4023,0.46875 -1.3125,1.33985 0.09,0.98047 0.3711,2.03906 1.6524,1.89844 0.7773,-0.0899 1.0898,-0.84766 0.9492,-2.62891 m 271.5703,11.85156 c 0.09,-1.29297 -0.7305,-1.96094 -1.8125,-1.99219 -0.668,-0.0195 -1.9492,0.69922 -1.918,0.92188 0.1992,1.25781 0.6289,2.53906 2.3008,2.55859 0.9883,0.0117 1.2383,-0.71875 1.4297,-1.48828 m 217.8086,13.378911 c 0.6289,0.12109 0.9609,0.19922 1.3086,0.25 0.6601,0.0781 1.4609,0.46875 1.7734,-0.48047 0.059,-0.17188 -0.6406,-0.83984 -0.8711,-0.78906 -0.6797,0.16797 -1.3125,0.57812 -2.2109,1.01953 m 156.92192,208.9414 c -0.3516,-0.83203 -1.0508,-1.16015 -1.8633,-1.07031 -0.7695,0.0899 -1.7383,0.36719 -1.0977,1.4375 0.3399,0.57031 1.1211,1.16016 1.75,1.23047 0.8789,0.082 1.3477,-0.66016 1.211,-1.59766 m -809.24222,2.01954 c -0.25,-0.73047 -0.5781,-1.5 -1.5,-0.98047 -0.5899,0.33984 -1.2578,0.91797 -1.418,1.51953 -0.1797,0.73047 0.4492,1.39062 1.2774,1.41015 1.2421,0.008 1.6601,-0.82031 1.6406,-1.94921 m 134.3906,-159.85157 c -1.0703,-1.82031 -2.3594,-2.82812 -4.3008,-1.16015 -0.2383,0.19922 -0.2578,1.14843 -0.07,1.26953 1.4219,0.8789 2.9024,1.03906 4.3711,-0.10938 m 730.46092,166.5586 c 0.168,-1.17969 -0.4218,-1.71875 -1.2109,-1.9375 -0.7812,-0.23047 -1.6016,0.0586 -1.7695,0.91015 -0.1602,0.85938 0.4414,1.48828 1.2578,1.70703 0.8125,0.22266 1.4805,-0.0664 1.7226,-0.67968 m -82.9417,-83.39844 c 0.6211,-0.46875 1.2813,-0.73047 1.3203,-1.05859 0.1602,-1.39063 -0.8007,-1.78125 -1.94922,-1.70313 -0.6523,0.043 -1.8789,0.043 -1.5703,0.88281 0.3008,0.8086 1.4688,1.30078 2.19922,1.87891 m 26.6993,35.28906 c -0.5899,-1.48047 -1.8399,-1.52734 -3.1094,-1.33984 -0.2891,0.0391 -0.7696,0.73047 -0.6992,0.87109 0.6796,1.23828 1.8984,1.5 3.1796,1.44922 0.2305,-0.008 0.4297,-0.64844 0.629,-0.98047 m -34.11722,6.92969 c 0.8672,0.0312 1.707,-0.37891 1.6172,-1.19922 -0.1485,-1.46875 -1.418,-2 -2.7188,-2.05078 -0.8594,-0.0273 -1.3711,0.87109 -1.2187,1.55078 0.25,1.07031 1.3085,1.46094 2.3203,1.69922 m -243.0313,57.29297 c -3.5,-0.89063 -5.7695,-1.63281 -8.3711,0.35937 2.6914,1.19922 4.8711,1.48047 8.3711,-0.35937 m 6.7695,0.52734 c 1.9102,0.73047 3.6485,1.33203 5.211,-0.57031 -1.8008,-0.41016 -3.5313,-0.94922 -5.211,0.57031 M 1038.2651,213.29752 c -0.4179,0.35157 -1.1484,0.69141 -1.4492,1.25 -0.5,0.96875 0.3906,1.33204 1.1016,1.41016 0.957,0.10938 2.1172,0.12109 2.0781,-1.30859 -0.019,-0.8125 -0.75,-1.17188 -1.7305,-1.35157 m -54.66792,-20.46875 c -0.2227,-0.49218 -0.4297,-1.71093 -0.8516,-1.78906 -1.3984,-0.26172 -1.4609,1.16016 -1.6484,2.02735 -0.1914,0.83984 0.5468,1.55078 1.3398,1.64062 1.0899,0.12109 1.0781,-0.83984 1.1602,-1.87891 m -685.461,-9.40234 c -1.8125,-0.6875 -3.3203,-1.4375 -4.75,0.23047 -0.2187,0.26172 -0.1523,1.17969 0.09,1.35156 1.9297,1.32031 3.1093,-0.10937 4.6601,-1.58203 m -177.3907,-16.04687 c -1.0312,-0.78125 -2.1094,-1.63282 -3.5195,-1.26172 -0.6016,0.14843 -0.6407,0.80078 -0.1602,1.26953 0.7891,0.8125 1.8281,0.98047 2.9102,0.91015 0.6797,-0.0508 0.9414,-0.3789 0.7695,-0.91796 m 732.7891,-67.28125 c -0.7305,-0.35938 -1.3282,-0.23047 -1.3985,0.3789 -0.1601,1.33203 0.051,2.65235 1.3789,3.35156 0.25,0.12891 1.0821,-0.28125 1.2422,-0.64062 0.6992,-1.48047 -0.2226,-2.39063 -1.2226,-3.08984 m -675.5782,124.53125 c -0.332,-1.33204 -1.2421,-1.67188 -2.4023,-1.53125 -0.8477,0.10937 -1.5586,0.55078 -1.418,1.48828 0.211,1.35156 1.3594,1.40234 2.3985,1.33203 0.7812,-0.0508 1.5507,-0.28125 1.4218,-1.28906 m 874.67972,88.19921 c -0.4687,2.57813 -2.2187,4.30079 0.3203,5.58985 0.6602,0.32812 1.6993,0.80078 1.9805,-0.12891 0.5469,-1.88281 -0.5117,-3.39062 -2.3008,-5.46094 M 213.94478,145.53971 c -2.25,-1.42969 -4.1797,-2.74219 -7.5898,-0.22265 3.1015,0.13281 4.9492,2.17187 7.5898,0.22265 m 753.3399,61.23828 c 1.539,-0.26172 2.9492,-0.8789 3.3711,-2.6289 0.2382,-1.01172 -0.6485,-1.41016 -1.4297,-1.41016 -1.6211,0.008 -3.1914,0.27734 -3.3321,2.41016 -0.047,0.89843 0.4727,1.39843 1.3907,1.6289 M 1119.4644,192.2194 c 1.2226,-0.32031 1.7617,-1.12109 1.332,-2.30078 -0.4102,-1.08985 -1.4102,-1.67188 -2.4805,-1.17188 -0.5,0.25 -0.8984,1.22266 -0.9219,1.88282 -0.047,1.29687 0.8516,1.73828 2.0704,1.58984 M 787.49558,336.07877 c 3.1719,-0.96093 5.1797,-0.0391 7.0195,-1.53125 -1.8789,0.85157 -3.9492,-0.9375 -7.0195,1.53125 m 231.32812,-71.21093 c -0.8789,-1.89844 -2.2968,-2.78125 -4.3164,-2.25 -0.3828,0.10156 -0.8828,1.6289 -0.6406,1.9414 1.3477,1.66016 3.0391,1.66016 4.957,0.3086 m 102.4219,-31.71875 c 1.1094,-0.23047 2.2305,-0.69141 2.25,-1.83985 0.019,-1.10937 -1.0117,-1.9414 -2.1016,-1.9414 -1.1093,-0.0195 -2.0898,0.89062 -2.1796,1.92187 -0.1094,1.14844 0.9101,1.73828 2.0312,1.85938 m -35.1797,-4.83203 c 2.0391,2.67968 3.7695,2.41015 5.8985,1.4414 -1.7774,-0.82031 -3.25,-1.64844 -5.8985,-1.4414 m -89.2305,97.30078 c 0.5899,0.46875 0.7618,0.6914 0.9688,0.76172 1.4414,0.41015 2.8828,0.78906 4.332,1.17968 0.059,-0.48047 0.3282,-1.08984 0.1407,-1.4414 -0.9727,-1.78907 -2.6915,-0.98828 -4.1602,-1.03125 -0.2305,-0.008 -0.4609,0.17968 -1.2813,0.53125 m 96.6016,-118.35938 c 0.5899,1.89063 2.2774,1.64063 3.6992,1.78906 1.0508,0.10157 2.1797,-0.23046 1.8399,-1.57812 -0.4414,-1.71094 -1.9219,-2.24219 -3.5391,-2.12109 -1.082,0.0781 -1.832,0.73046 -2,1.91015 m -112.91012,-4.10937 c 1.8203,-0.63282 2.9179,2.5 5.1093,0.53906 -1.4218,-1.92188 -3.25,-1.55859 -5.1093,-0.53906 m -757.6016,53.02734 c 0.7617,1.80078 1.9687,0.71094 2.8398,1.08984 0.9805,0.42188 2.2891,0.40235 2.4922,-0.79687 0.3477,-2.0625 -1.4414,-1.57031 -2.5703,-1.62109 -0.9726,-0.0508 -2.0625,-0.16016 -2.7617,1.32812 m 4.7891,-72.09766 c -0.3399,-1.78125 -1.8985,-1.37109 -3.0977,-1.51953 -1.082,-0.12109 -2.3516,0.0586 -2.2422,1.39844 0.1406,1.67969 1.7109,1.78125 3.0313,1.80859 1.0898,0.0312 2.0898,-0.28906 2.3086,-1.6875 m 786.60932,-38.19921 c -0.3672,-2.86329 -2.3593,-3.28125 -4.5195,-3.36329 -0.1289,0 -0.5195,0.99219 -0.3867,1.38282 0.8281,2.55859 2.6172,2.82031 4.9062,1.98047 M 769.88618,80.328769 c -2.0312,1.73829 -3.8906,3.00782 -3.3125,5.66016 0.07,0.30859 0.9414,0.80078 1.1719,0.67969 2.2305,-1.1211 3.3789,-2.82031 2.1406,-6.33985 M 572.21438,340.57877 c 4.2812,1.69922 4.3398,1.71875 5.0117,0.3711 0.1992,-0.41016 0.25,-1.17188 0,-1.49219 -1.8008,-2.37109 -3.1016,0.85938 -4.7617,0.51953 -0.039,-0.008 -0.1602,0.39063 -0.25,0.60156 m 335.1523,-238.51171 c -0.012,-1.35938 -0.2695,-3.10938 -1.4922,-3.3086 -1.418,-0.23047 -1.957,1.44922 -2.1094,2.76953 -0.1914,1.53907 0.7696,2.58985 2.1211,2.75 1.3789,0.14844 1.1875,-1.32031 1.4805,-2.21093 m 155.25782,178.10156 c -0.059,1.21875 0.7695,2 1.6406,2.5 0.9805,0.57812 2.2891,2.21094 3.25,0.80078 1.0586,-1.5625 -0.039,-2.99219 -1.8476,-3.49219 -0.9922,-0.26953 -2.0625,-0.51953 -3.043,0.19141 m 10.2305,-0.0391 c 1.7617,2.46875 3.8125,5.5 7.5117,1.3789 -2.9297,-0.53906 -5.2227,-0.94922 -7.5117,-1.3789 m -71.961,-53.83204 c -3.0898,-4.07031 -3.0898,-4.07031 -6.94922,-2.44921 1.5899,1.94921 3.72272,2.39843 6.94922,2.44921 M 594.52688,75.977209 c -1.8321,2.33985 -6.3711,-1.78906 -7.8711,3.42188 3.1679,-0.88282 6.3789,0.69922 7.8711,-3.42188 m 367.8593,206.812501 c 3.7696,-0.0117 6.6289,2 9.918,-0.3125 -3.1094,-2.76953 -5.8398,-2.5 -9.918,0.3125 m 33.71102,-78.35156 c 0.25,1.55078 1.3789,2.32812 2.7265,2.44141 1.1836,0.0898 2.4336,1.52734 3.5703,0.0898 0.2422,-0.30078 -0.019,-1.01953 -0.059,-1.55078 -0.1406,-2.32031 -1.7617,-2.25 -3.4296,-2.08985 -1.0391,0.0977 -2.1407,0.0781 -2.8086,1.10938 m -33.27352,3.5 c -1.1875,-1.39063 -2.1093,-2.91016 -3.4297,-3.89063 -1.4179,-1.05859 -3.0781,-0.55859 -3.789,1.10157 -0.6094,1.41797 0.4414,2.39062 1.7187,2.94922 1.7617,0.76953 3.5,0.19921 5.5,-0.16016 m -6.5468,75.30859 c 1.6484,-0.10937 3.0078,-1.23828 2.9492,-2.25781 -0.1719,-2.55078 -2.6211,-2.87109 -4.5703,-3.21094 -1.0821,-0.1914 -1.961,0.92188 -1.7813,2.01172 0.3203,1.91016 1.5508,3.16016 3.4024,3.45703 M 457.93698,84.926429 c -0.2695,-1.02734 -0.8516,-2.34766 -2.7812,-2.41797 -1.3204,-0.0391 -3.0118,0.16016 -3.1016,1.6211 -0.1289,2.17968 1.9023,2.76953 3.6328,3.1289 1.1367,0.23828 1.9102,-0.51172 2.25,-2.33203 M 1038.5347,208.27799 c 1.7422,1.44922 3.4492,2.96094 5.25,4.33985 0.6601,0.51172 1.5195,0.28125 2.0117,-0.41797 0.4687,-0.67188 0.5078,-1.49219 -0.1211,-2.07031 -1.8906,-1.76172 -4.3203,-2.19141 -7.1406,-1.85157 m -74.44932,-7.57812 c 0.2305,-2.3711 -1.5703,-2.54297 -3.0195,-2.97266 -1.6211,-0.48047 -3.3515,-0.3789 -4.0117,1.38281 -0.7383,1.91797 0.793,3.02735 2.3633,3.26954 1.7187,0.26953 3.7187,0.33984 4.6679,-1.67969 m -856.6601,-39.97266 c -0.8086,1.58203 -1.7109,3.1211 -2.418,4.76172 -0.6328,1.46875 0.7383,2.05078 1.5664,1.82031 2.0625,-0.57031 3.461,-2.35156 3.8125,-4.28125 0.2383,-1.30859 -1.5898,-1.82812 -2.9609,-2.30078 m 877.0117,116.3125 c 1.6172,-2.37109 0.8477,-4.42969 -1.3008,-5.26172 -2.3789,-0.91797 -4.1406,0.6211 -5.7812,3.6211 3.0898,-0.44141 4.832,1.42968 7.082,1.64062 m 123.39842,-37.95312 c -1.2695,-2.54688 -3.4609,-3.32032 -5.539,-4.07032 -0.9102,-0.32812 -2.2227,-0.25781 -2.8008,0.74219 -0.6094,1.05078 0.1719,1.91797 1.0117,2.51953 2.1992,1.53907 4.5078,2.16016 7.3281,0.8086 M 700.63618,340.2194 c 1.668,-3.13281 5.25,-0.69141 7.75,-2.80078 -2.2422,-1.85156 -4.0117,-3.30078 -6.289,-5.19141 0.2382,2.97266 -1.1524,5.1211 -1.461,7.99219 m 305.87112,-64.41016 c -1.9804,-2.33984 -4.4023,-2.46093 -6.5508,-3.08203 -1.6914,-0.48828 -3.4804,0.13281 -3.6406,1.89063 -0.1289,1.42968 1.6406,1.91015 2.9883,1.85156 2.2617,-0.10156 4.5117,-0.40234 7.2031,-0.66016 M 599.81588,86.777989 c -0.1797,-0.48047 -0.2305,-1.16015 -0.582,-1.39843 -1.8672,-1.25 -5.6875,0.1875 -6.5391,2.39843 -0.3203,0.82032 -0.059,1.51953 0.6016,2.01953 1.0273,0.78907 6.3476,-1.6875 6.5195,-3.01953 M 1000.3745,284.51627 c 1.0899,0.14063 1.8711,0.29297 2.6524,0.34375 1.0195,0.0586 2.3281,0.20704 2.5273,-1.08203 0.2695,-1.71875 -1.0703,-2.16015 -2.4883,-2.26953 -0.789,-0.0586 -1.5898,-0.12109 -2.3711,-0.0508 -1.6797,0.16016 -4.4492,-0.87891 -4.3789,1.78906 0.07,2.99219 2.8516,0.88282 4.0586,1.26953 M 676.08538,78.918619 c -2.9179,-2.3086 -5.8398,-2.94922 -8.871,-0.33203 -0.2383,0.21093 0.1601,1.83984 0.6015,2.04297 2.961,1.33984 5.8711,1.73828 8.2695,-1.71094 m 28.0196,16.46094 c 0.5898,-2.42188 2.8906,-4.26954 2.3203,-7.03125 -0.1406,-0.66016 -0.5195,-1.64844 -0.9805,-1.76954 -0.5898,-0.15234 -1.6797,0.19922 -2.0195,0.69922 -1.918,2.80078 -2.5508,5.6211 0.6797,8.10157 M 1025.4956,278.58659 c -2.3594,6.42968 -2.4219,6.62109 -6.6289,5.33203 -1.7422,-0.53125 -3.1328,-1.57031 -4.7109,0.19922 1.7695,1.55859 3.9609,1.67187 5.9687,2.05078 5.8125,1.12109 6.0313,0.80859 5.3711,-7.58203 M 462.83538,70.746739 c 6.0821,5.01172 6.4297,5 11.379,0 z m -3.8515,7.96094 c 2.6836,1.14063 5.4414,1.51953 6.8711,3.10938 2.4219,2.67968 1.9804,0.0195 2.2695,-0.91016 0.332,-1.07813 2.5703,-1.30859 1.3399,-3.07031 -3.2774,-1.12891 -6.5469,-2.3086 -10.4805,0.87109 m 263.8008,-0.83984 c -0.078,0.3789 -0.1602,0.75 -0.25,1.1289 3.0625,1.11328 6.0898,2.29297 9.1797,3.29297 1.4296,0.46875 2.6796,-0.29297 3.1015,-1.67187 0.5,-1.64063 -0.8515,-2.60157 -2.1015,-2.67969 -3.2969,-0.21875 -6.6172,-0.0703 -9.9297,-0.0703 M 1109.8862,228.09832 c -4.1093,-1.58204 -6.8398,-8.85157 -14.5195,-3.10938 5.8672,0.4375 9.707,3.03906 14.5195,3.10938 M 224.54638,88.758459 c 3.1484,-1.25 6.0273,-2.57031 9.4883,-0.53906 2.3711,1.37891 3.4922,-0.39063 5.0625,-2.76172 -5.8828,-0.64844 -10.5508,-0.26953 -14.5508,3.30078 m 303.6094,-16.01953 c -0.3321,-1.67969 -1.0586,-2.62891 -2.5704,-2.85156 -2.7812,-0.39844 -5.1679,1.53125 -5.4101,4.33984 -0.168,2.03125 1.0703,3.0625 2.7305,3.14063 3.2382,0.14843 2.7304,-4 5.25,-4.62891 M 263.11668,186.06706 c 15.6875,1.39062 15.6875,1.39062 18.457,-1.73047 -6.0195,-0.16797 -11.4687,-0.6875 -18.457,1.73047 m 67.6172,-105.769541 c -3.9297,-4.64843 -3.9297,-4.64843 -13.6172,-0.23828 4.5391,1.48828 9.0391,2.0586 13.6172,0.23828 M 88.194777,144.09831 c 2.6797,2.41796 4.9492,0.0781 7.3399,0.83984 1.980403,0.62109 4.691403,1.17969 7.121103,-0.0508 -2.0821,-6.32813 -7.218803,-1.41797 -10.371103,-3.58985 -1.7383,-1.1875 -3.1094,1.01172 -4.0899,2.80079 M 961.86668,133.83657 c 4.5898,1.27343 10.25,0.97265 15,3.83203 1.0273,0.62109 2.0898,0.26953 2.4102,-0.92969 0.3203,-1.19141 -0.5508,-2.16016 -1.543,-2.33984 -5.2578,-0.92969 -10.5274,-1.72266 -15.8164,-2.46094 -0.5703,-0.0703 -0.7617,0.64844 -0.051,1.89844 m -810.6914,11.95312 c 5.3789,0.5 10.7187,3.45703 15.9609,-0.17187 -5.3515,-0.64844 -10.6406,-2.8086 -15.9609,0.17187 m 762.1211,-18.90234 c 0.1484,-2.52735 -0.5195,-3.3711 -1.6719,-3.27735 -2.0195,0.14844 -3.3398,-0.90234 -4.8281,-1.99218 -1.3516,-0.98828 -3.3906,-2.75782 -4.5508,-0.48047 -0.8711,1.69922 -0.1094,4.32031 2,5.28125 2.0586,0.92969 4.3906,1.42969 6.6602,1.64844 1.2304,0.12109 2.3789,-0.89844 2.3906,-1.17969 M 782.17508,95.258439 c 0.4687,-0.73047 0.8906,-1.10937 0.9805,-1.55859 0.75,-3.82031 -0.7813,-6.86328 -4.2305,-7.38281 -4.2305,-0.64844 -1.418,3.60937 -3.0078,4.99218 -0.4102,0.35938 -0.25,1.35938 -0.4024,2.39844 2.3711,0.55078 4.5821,1.05859 6.6602,1.55078 m 154.0117,168.570311 c 4.7305,3.35938 10.4492,0.53907 15.0274,3.3711 0.7929,0.48828 2.0507,-0.55078 2.3515,-1.58203 0.5313,-1.8711 -1.5898,-2.50782 -2.25,-2.32032 -3.8398,1.07032 -7,-0.80078 -10.3711,-1.84765 -1.9804,-0.6211 -3.5586,-0.11328 -4.7578,2.3789 m 87.50782,-109.55078 c -4.9687,-7.66797 -12.5273,-2.51953 -18.2695,-5.10156 -0.4805,-0.21875 -1.6406,0.49219 -1.3984,1.44141 0.1679,0.67968 0.7382,1.62109 1.3085,1.76953 1.7618,0.46094 3.75,1.17969 5.379,0.76172 4.2812,-1.10157 8.2812,0.0508 12.9804,1.1289 m -48.10942,128.83985 c 5.4805,2.32031 10.8008,1.8789 16.129,0.98047 0.6718,-0.10938 1.3007,-0.83985 1.0703,-1.78907 -0.1875,-0.83984 -0.7891,-1.51172 -1.5703,-1.32031 -3.6875,0.87891 -7.168,-0.35937 -10.7383,-0.82031 -1.5899,-0.21094 -3.0821,0.32031 -4.8907,2.94922 M 355.63598,78.996719 c 1.7696,5.45313 5.668,5.26172 9.25,5.29297 2.1797,0.0195 3.3477,-1.78125 3.1797,-3.72265 -0.1406,-1.64844 -1.7109,-2.62891 -3.4492,-2.51954 -2.793,0.17969 -5.5703,0.57032 -8.9805,0.94922 m 96.168,-1.1875 c -1.8594,-0.46093 -3.3594,-1.14062 -4.8477,-1.12109 -2.6093,0.0312 -5.5312,3.53125 -5.75,6.46094 -0.1015,1.23828 0.7188,2.09765 1.7188,2.14843 2.5117,0.10157 5.2812,0.6211 5.8398,-3.26953 0.1993,-1.39062 2.7696,-1.5 3.0391,-4.21875 m 478.582,195.500001 c 7.0078,1.59766 12.6094,2.39063 17.2305,7.36719 -1.7422,-10.77734 -5.0313,-12.26953 -17.2305,-7.36719 M 668.44458,89.996719 c 2.6211,1.58203 5.4414,0.63282 7.3594,3.15235 2.3828,3.14843 4.5508,2.71093 5.1016,-1.69922 0.1093,-0.89063 1.4687,-1.5625 1.8515,-2.49219 1.5469,-3.82812 -1.7617,-4.85937 -4.0117,-6.14844 -1.4883,-0.85937 -4.5781,-1.26172 -4.3203,1.14844 0.5,4.62109 -3.4297,4.33203 -5.9805,6.03906 m 148.9805,-2.07812 c 2.1016,2.17969 3.8906,-0.73047 5.9492,-0.0117 5.0117,1.75 10.3399,1.62109 15.543,2.26172 1.5469,0.1914 2.6484,-0.082 3.0586,-1.48047 0.4883,-1.67969 -1.0586,-2.62891 -2.1602,-2.57031 -3.7305,0.17968 -7.1484,-1.64844 -10.7812,-1.50782 -4.0586,0.15625 -8.8594,-1.76171 -11.6094,3.3086 m -641.25,34.480471 c -5.918,0.6289 -5.5195,6 -7.3789,9.39843 -0.6914,1.25 -1.0703,5.33985 1.8984,5.99219 4.5313,1 -1.5586,-2.98047 1.2891,-3.35156 0.9531,-0.12891 1.832,-0.87891 2.7109,-1.41016 2.7422,-1.66797 5.461,-3.37109 9.6719,-5.96093 -5.6211,1.04296 -5.7617,-2.96875 -8.1914,-4.66797 m -34.4297,23.32031 c -9.5508,-2.78125 -19.1602,-2.51953 -28.7383,-2.5 -2.1133,0 -4.5429,-1.69141 -6.8398,1.20703 6.1172,3.72266 13.0078,0.79297 19.1484,3.12109 5.2695,2 10.7383,-1.73828 16.4297,-1.82812 m 930.33982,182.75 c 0.039,0.50781 0.1993,1.04687 0.07,1.51953 -0.3516,1.25781 -1.0899,2.69922 0.3203,3.57031 1.8789,1.16797 2.6289,-0.47265 3.6406,-1.73047 2.0781,-2.58984 3.6289,-1.4414 4.3906,1.09766 0.6289,2.14063 2.3985,2.72266 3.4571,1.55078 1.582,-1.75781 4.7929,-2.86719 4.1523,-5.80859 -0.4219,-1.94141 -1.9727,-3.8711 -4.6328,-3.28906 -0.7266,0.16796 -1.3086,1.04687 -2.0274,1.16796 -2.6328,0.46094 -6.1523,2.07032 -4.2226,-3.46875 0.5898,-1.6914 -1.3594,-2.78125 -3.1094,-2.57031 -2.3203,0.28906 -2.1094,1.64844 -1.1797,3.35938 0.8906,1.64062 -3.1406,2.55859 -0.8594,4.60156 m -97.37832,-64.78125 c 6.4375,1.14844 12.2696,4.16016 18.5704,1.67969 1.6992,-0.66797 2.1484,0.48047 3.17962,1.24218 3.5,2.57813 6.3282,1.88672 8.2579,-2.05078 -2.2071,-2.44922 -5.3204,0.35938 -7.5079,-1.83984 -4.46092,-4.51172 -10.41012,-2.78125 -15.71092,-3.01172 -1.9805,-0.0781 -5.5,-0.23047 -6.7891,3.98047 m -41.6992,-30.21875 c 1.0977,2.66016 2.9375,1.85937 4.3477,2.09766 7.2304,1.24218 14.4687,2.51171 21.7304,3.58203 3.6915,0.53906 8.879,3.71875 10.6797,-0.64063 1.5508,-3.76172 -4.8789,-4.30859 -7.1992,-7.01172 -1.7187,-2.01953 -2.8398,-1.27734 -4.7422,2.41016 -0.4179,0.82031 -0.9062,1.28125 -1.7187,0.95312 -5.3477,-2.15234 -11.3789,0.76954 -16.7305,-2.40234 -1.5078,-0.89844 -4.1289,-0.32031 -6.3672,1.01172 m -38.3008,-133.28125 c 0.25,-0.60156 0.01,-0.94141 -0.5312,-1.30859 -3.3203,-2.281251 -3.2695,-2.250001 -0.3711,-4.691411 0.4727,-0.39063 0.5312,-1.42969 0.5508,-2.17969 0.039,-1.33984 -0.8399,-1.83984 -2.0508,-1.67187 -3.5977,0.51172 -7.1875,1.13281 -10.7891,1.62109 -5.2578,0.71094 -7.1914,3.26172 -5.9101,8.359381 0.5,2.01953 1.5703,3.89062 4.3906,5.51171 -0.6406,-5.51953 2.9297,-4.5625 6.0781,-4.55078 2.9102,0 6.1407,2.26172 8.6328,-1.08984 m -158.5507,-7.878911 c 5.4687,-6.42187 7.3086,-6.5625 10.1484,-0.69922 0.9219,1.88672 1.25,4.53907 3.6719,4.46875 2.6289,-0.082 3.539,-2.78906 4.539,-4.92968 0.4493,-0.94141 1.0391,-1.90235 1.1719,-2.91016 0.2891,-2.15234 0.5274,-4.22266 -3.0195,-3.64062 -1.7031,0.28125 -4.6914,0.80859 -2.2422,-3.26954 1.6601,-2.78906 -1.5703,-3.67187 -3.8984,-3.10937 -5.8125,1.37891 -8.5196,6.67969 -12.3829,10.48047 -0.5703,0.55859 0.2618,2.48828 2.0118,3.60937 M 207.16748,249.84831 c -3.0821,0.55859 -5.3203,1.89843 -8.1602,1.21875 -3.1836,-0.75 -4.8398,0.98046 -4.9101,4.38281 -0.051,2.3164 0.5898,4.88672 -0.9727,6.91015 -1.5273,1.95704 -2.0195,4.48829 -0.2578,5.62891 2.3906,1.55078 2.9805,-2.19141 4.8008,-2.98047 0.4179,-0.17969 0.8281,-0.73047 0.9492,-1.19922 0.7695,-2.74218 1.8281,-2.96093 4.5,-1.60156 3.3594,1.71875 4.918,-1.85937 6.9297,-3.67969 2.2109,-2.01953 0.8906,-4.44922 0.3594,-6.57812 -0.4102,-1.64063 -1.9883,-2.36328 -3.2383,-2.10156 m 811.73832,-44.96875 c -0.1094,1.1875 -1.0821,2.71875 1.0703,3.07812 0.7695,0.12109 1.8281,-0.0781 1.7578,-1.01953 -0.1289,-1.80859 -1.9492,-1.32813 -3.0391,-1.85938 -4.4687,-1.17187 -6.5508,-5.92187 -11.0781,-7.49218 1.5781,2.92187 -1.0898,6.64062 1.6289,8.71093 2.9805,2.26172 5.8594,-1.08984 8.8906,-1.30859 0.2696,-0.0195 0.5196,-0.0898 0.7696,-0.10937 M 895.13618,106.47721 c -3.9297,-2.60937 -7.039,-0.28906 -10.4297,1.83203 2.3086,0.53907 4.25,1.64844 6.2891,2.3086 3.7109,1.1914 4.4219,-1.19922 4.1719,-4.17969 0.9883,1.55078 2.0898,3.03125 4,3.46094 1.4179,0.32031 2.6289,-0.16016 2.8281,-1.75 0.1289,-1.10938 -0.6406,-1.80078 -1.6914,-2.26953 -1.8867,-0.83985 -3.3281,1.52734 -5.168,0.59765 m 133.98832,105.03125 c -0.25,0.0781 -0.4883,0.14844 -0.7305,0.23047 -1.539,0.50781 -3.5195,-1.25 -4.6992,0.89063 -0.1406,0.25781 0.1914,1.09765 0.461,1.1875 1.9687,0.66015 3.289,-0.44922 4.4687,-1.82032 0.1602,-0.19922 0.3203,-0.38672 0.4805,-0.58984 0.6992,2.07031 1.9219,3.10156 3.8906,1.5 1.5508,-1.25 3.6992,-2.59766 2.5195,-5.00781 -0.7304,-1.5 -2.1914,-3.40235 -4.1992,-2.53125 -1.9609,0.85156 -0.8086,2.67968 -0.1719,4.01172 0.5704,1.17968 0.3907,1.89843 -0.75,2.48046 -0.5976,0.3086 -1.0078,0.19922 -1.2695,-0.35156 M 668.43698,336.55924 c -3.4726,-0.19922 -6.9297,-3.60937 -10.6328,-0.29297 3.6211,4.33204 7.0625,1.99219 10.3828,0.26172 1.5078,-6.26172 1.5078,-6.26172 -7.5898,-5.07812 3.9882,1.25781 5.457,3.71875 7.8398,5.10937 M 537.89398,82.598309 c -0.1171,2.07031 -0.7695,4.44921 2.4922,4.6914 0.418,0.0274 1.25,-0.39062 1.2578,-0.61328 0.051,-2.16016 -1.3789,-3.23828 -3.1992,-3.94922 -0.2187,-0.0781 -0.5195,0.0508 -0.7773,0.082 0.7969,-0.66015 1.6367,-1.3125 2.3984,-2.01172 0.8594,-0.78906 1.1992,-1.80078 0.078,-2.48046 -0.3789,-0.23047 -1.457,0.33203 -2.0078,0.79296 -1.2422,1.00782 -0.9609,2.26954 -0.2422,3.48829 m 117.8008,-1.07032 c -0.5195,0.48828 -0.9687,0.46875 -1.289,-0.0781 -0.4688,-0.78125 -0.3204,-1.63281 0.6406,-1.45313 3.039,0.5625 2.0508,3.8125 3.3984,6.1211 2.4492,-1.76953 2.9805,-4.39063 2.8399,-6.3086 -0.2188,-2.85156 -0.7383,-4.85937 3.2109,-3.79297 0.1914,0.0508 0.6406,-0.15625 0.6797,-0.32812 1.5586,-5.62109 5.3008,-7.82031 10.9609,-7.16016 0.168,0.0195 0.3907,-0.89843 0.6797,-1.30859 0.1211,-0.16016 0.5,-0.13281 0.7578,-0.19141 1.7617,1.98047 0.4219,4.60157 1.0625,6.75 2.5782,0.94922 5.0508,-0.5 7.6094,1.60157 1.8789,1.52734 6.3008,2.07812 7.9805,-1.94141 0.9883,-2.39063 3.289,-2.69141 4.4883,-1.94141 3.4023,2.08203 5.6601,2.47266 6.6601,-2.1289 3.4024,0.8789 6.3008,-1.80078 9.6602,-1.28907 6.8203,1.01954 13.8398,0.8086 20.3906,3.48829 0.8906,0.35937 2.1406,0.33203 3.0586,0.0117 8.4922,-2.92968 16.9336,-1.08203 25.5508,-0.67187 8.2695,0.40234 16.1992,2.99219 24.6718,2.24219 8.3399,-0.75 16.3477,3.14062 24.6172,4.36718 7.211,1.07032 14.5313,0.98047 21.3828,4.63282 2.4805,1.30859 6.668,-0.46094 10.0508,-0.97266 2.418,-0.36719 5.0586,-0.84766 6.5586,1.37109 1.5781,2.3125 1.7578,4.78125 -1.2109,6.8125 -1.3906,0.9375 -1.1289,2.97657 0.3398,4.09766 3.6406,2.75 8.0313,3.40234 12.3789,3.80078 1.7813,0.16016 1.7813,-1.83984 1.5938,-3 -0.25,-1.53125 -0.9727,-3.01172 -1.6328,-4.4414 -1.1993,-2.59766 0.9023,-4.00782 2.1211,-5.51954 1.5898,-1.96875 3.3398,-0.66796 4.7812,0.57032 1.0391,0.89062 2.1484,1.89843 3.4883,1.46093 8.0195,-2.66015 15.8203,0.71094 23.75,0.71875 6.6914,0.0117 13.3906,-0.28125 19.9922,1.85938 3.7773,1.22266 7.0273,2.83984 11.1367,6.33984 h -17.1484 c -1.7305,4.480471 1.7382,8.882821 -1.1485,12.839851 -0.2617,0.35156 0.3985,2.01172 0.7071,2.03125 1.9414,0.14843 4.4804,1.71875 5.7304,-0.17969 2.5196,-3.78906 6.4024,-0.0195 9.1719,-2.12109 0.5078,-0.37891 1.7383,1.08203 0.6602,2.12109 -1.6524,1.60156 -1.2422,2.69141 0.6484,3.46094 1.4609,0.58984 2.9922,1.41015 4.4805,1.41015 11.7382,-0.043 22.6211,5.27735 34.2695,5.42969 10.9297,0.14844 21.1211,4.07813 31.74222,5.78906 4.5,0.73047 9.1289,1.64063 11.0469,7.03907 1.0117,2.8125 4.2421,2.32031 6.332,1.97265 7.3281,-1.23047 12.5195,2.14844 18.4375,7.86719 -4.3477,-0.82813 -7.418,-0.0703 -10.5391,0.10937 -1.3594,0.082 -2.6406,0.082 -3.5781,1.23047 -0.6914,0.83203 -1.2813,1.79297 -0.5,2.82032 0.5,0.67187 1.3086,0.74218 2.0703,0.26171 2.1992,-1.40234 4.1797,-3.32031 7.1992,-1.65234 1.8477,1.01172 4.5391,1.27344 2.168,4.26172 -0.9375,1.17969 -0.3086,2.19141 0.6211,2.57031 6.8203,2.85938 11.6211,9.07813 18.8711,11.19141 3.039,0.8789 6.0195,2.22656 9.1094,2.61719 10.789,1.38281 21.0781,4.58984 31.5,7.46093 10.1015,2.76953 20.539,3.30078 31.6093,2.17969 -0.7578,5.03906 0.4297,9.33984 8.6407,9.12109 -4.1016,3.37891 -2.6211,8.98047 -8.8321,9.01954 -2.539,0.0195 -1.6367,3.57812 -1.6484,5.46875 -0.039,7.07031 -0.09,7.33203 -6.8281,7.32031 -1.1211,0 -2.1914,-0.33985 -2.4805,1.03906 -0.2617,1.28125 -0.332,2.63281 0.7187,3.73047 1.6915,1.78125 4.6485,1.17969 6.3008,3.55078 -0.832,1.75 -4.4804,2.08203 -3.1406,5.17188 0.8594,1.96875 2.4492,2.60937 4.4883,2.51953 2.6719,-0.10938 4.6523,0.77734 5.2617,3.66797 1.3789,6.44921 5.4883,9.90234 11.8984,10.8125 1.4805,0.21875 2.5704,0.96875 2.3711,2.54687 -0.2382,1.83984 -1.7695,1.69141 -3.0703,1.44141 -2.0703,-0.39844 -4.4804,-0.39063 -6.1094,-1.5 -4.0898,-2.76953 -7.2109,-2.14844 -11.4296,0.33984 -5.9883,3.51953 -6.5704,3.51953 -4.2305,10.28125 0.1289,0.37891 -0.2695,0.92969 -0.6797,2.25 -2.8281,-5.08203 -7.8594,-4.87891 -12.1914,-6.01172 -4.6875,-1.21094 -8.8594,-3.42969 -13.1289,-5.51953 -7.918,-3.85937 -16.3203,-5.75 -25.0781,-5.48828 -3.7227,0.10937 -7.0625,-2.37109 -10.8516,-1.08984 -0.8516,0.28906 -1.5312,-0.33204 -1.7187,-1.21094 -1.3125,-6.28906 -7.7032,-4.21094 -11.4415,-6.49219 -2.4804,-1.51953 -0.9687,2.23047 -1.1093,3.65234 -2.0313,-0.91015 -2.7813,-3.65234 -5.3907,-4.08203 -0.5117,4.96094 2.8907,3.85157 5.3907,4.05078 1.9687,0.67188 4.4101,1.32032 4,3.8711 -0.3516,2.16797 -0.1524,4.96094 -2.75,6.23047 -3.4102,1.64843 -5.8008,4.42968 -8.0508,7.52734 -1.418,-2.20703 -0.5703,-3.86719 0.5391,-5.31641 0.8007,-1.03125 2.1796,-1.83203 0.8828,-3.21093 -1.1914,-1.25 -2.7227,-1.55078 -4.3516,-0.67188 -0.4609,0.26172 -1.1719,0.3711 -1.3711,0.75 -3.0508,5.67969 -6.7578,0.30078 -10.1172,0.58203 -1.2226,0.10938 -1.4414,-0.74218 -0.9609,-2.08984 0.7187,-2.0625 -0.6289,-4.01953 -1.25,-5.92188 -0.3516,-1.05859 -3.0117,-1.91796 -2.8906,-0.39843 0.3984,4.82812 -2.1016,2.60937 -4.4883,2.86718 -3.8633,0.41016 0.3281,3.3711 -1.0117,5.30079 -3.3907,-0.36719 -7.1485,0.91015 -10.35162,-1.98047 -0.7188,-0.66016 -2.0781,-1.3086 -2.8672,-1.07032 -4.082,1.24219 -8.0625,0.92188 -12.1719,0.23047 -1.8906,-0.30859 -3.7304,1.04297 -3.8593,3.08203 -0.1094,1.98047 2.3086,2.85938 3.3789,2.58985 7.3593,-1.82031 13.2109,3.09765 19.91012,4.1289 6.9414,1.05079 13.5313,3.5 20.1406,5.91016 3.1016,1.14063 6.7305,1.30078 10.0821,1.12891 3.3594,-0.16016 6.2695,0.82031 9.1875,2 3.8711,1.5625 6.8594,5.13281 11.4609,5.0625 2.4688,6.03906 9.4688,3.92968 12.9492,6.94922 4.4024,3.82031 9.9688,2.58984 14.2696,5.53125 1.5,1.01953 3.6093,1.30859 4.0898,3.36718 1.4805,6.38282 5.293,11.32032 10.4414,16.08203 -3.8203,2.23047 -7.8906,-2.26953 -10.5898,2.05079 3.3476,2.61718 7.0078,5.63671 10.8398,8.41796 1.8086,1.3125 3.6016,3.21875 6.3086,1.01172 1.7422,-1.41015 3.6602,-0.98047 3.8399,1.73047 0.2617,3.83985 2.2031,4.35938 5.3906,3.16797 2.4492,-0.91016 4.3906,0.37109 4.5195,2.58984 0.1524,2.71094 -2.2773,3.3125 -4.5703,3.08204 -2.5703,-0.26172 -5.0898,-0.35157 -8.1602,0.29687 1.6211,3.71094 5.3829,5.48047 7.9805,6.61328 3.6211,1.5586 4.7109,3.42969 5.1797,6.8086 0.4609,3.35937 1.5117,6.62109 2.0703,9.96875 0.4414,2.6914 -0.4883,4.4414 -3.4883,2.85156 -4.8711,-2.58985 -9.6601,-5.35938 -14.3906,-8.21875 -0.8789,-0.54297 -1.4805,-3.35156 -2.3984,-1.8125 -1.6719,2.78906 -6.3321,-0.75781 -6.6524,3.78906 -0.1992,2.83984 -1.6797,2.95313 -4.4101,2.32031 -8.1485,-1.89843 -16.211,-4.39843 -24.6172,-4.94922 -2.9102,-0.19921 -1.5508,-2.9375 -2.6914,-4.1289 2.5195,1.64844 5.0898,1.4414 8.539,0.53906 -4.8007,-1.23828 -4.8007,-1.23828 -8.4101,-0.35937 -3.3985,3.41796 -7.211,4.53906 -12.1875,3.73828 -7.3711,-1.17969 -14.9102,-1.9375 -22.2813,0.61328 -0.6523,0.21875 -1.7617,0.0781 -2.2617,-0.35156 -4.4101,-3.85157 -9.25,-0.83985 -13.8789,-0.94922 -1.4687,-0.0312 -3.5,-0.21094 -3.6211,2.05078 -0.1172,2.0664 -0.3906,4.05859 -2.9492,3.50781 -2.1016,-0.44922 -4.94142,0.76172 -6.16022,-2.37891 -0.7578,-1.92968 -1.789,-4.30078 -4.5586,-2.83203 -3.4726,1.83985 -5.8593,7.15235 -4.6718,9.8125 0.8828,1.96875 5.1797,2.82032 2.9609,5.48828 -1.9883,2.37891 -5.6094,0.85938 -8.2695,0.15235 -11.7305,-3.15235 -23.3516,-6.73047 -35.0821,-9.88281 -2.289,-0.61719 -4.7187,-2.32813 -7.539,-0.91797 0.832,2.76953 3.2812,2.66015 5.039,3.44922 3.211,1.46875 6.4219,2.16015 9.0704,5.42968 1.6406,2.03125 6.6601,-0.26172 10.3398,0.85157 5.1211,1.53906 8.9023,5.23828 13.6914,7.1875 1.1914,0.49218 1.8398,2.01171 1.3398,3.40234 -0.4882,1.35937 -1.7187,0.57812 -2.6914,0.62891 -8.789,0.53125 -16.6171,-3.19922 -24.3671,-6.26172 -11.3516,-4.48828 -23.1915,-6.50782 -34.9024,-9.41797 -0.5898,3.03906 3.1914,2.82812 3.2109,5.16015 -6.5312,1.12891 -6.9296,1.73047 -4.7812,8.1211 -3.0781,-0.58985 -5.957,-0.79297 -8.5898,-1.70313 -14.75,-5.13672 -29.9102,-8.8789 -44.7969,-13.51953 -4.2617,-1.32812 -9.4922,0.8125 -13.0508,-3.80859 -0.5625,-0.71875 -3.6602,2.41015 -6.293,2.35937 -10.8593,-0.23047 -21.7773,0.3086 -32.5781,-0.6289 -6.8711,-0.60157 -13.6914,-0.90235 -20.5508,-0.83985 -11.0976,0.10938 -22.1406,-0.35156 -33.2304,-1.22265 -6.3672,-0.50782 -12.9571,-1.07813 -19.4688,-0.52735 -1.3281,0.10938 -2.6016,-0.0508 -3.25,1.50782 -1.1484,2.76171 -1.7695,1.03125 -3.0117,-0.14844 -1.5195,-1.44922 -3.9688,-1.41016 -4,1.09765 -0.039,3.78125 -2.6172,3.40235 -4.7774,3.76172 -1.2421,0.21875 -2.5703,-0.10156 -3.8711,-0.10156 -9.2695,-0.0391 -9.3281,0.0312 -9.0507,10.12109 0.051,1.89063 -0.6993,3.8125 -1.3203,6.85938 -3.918,-5.05859 -4,-11.00781 -7.9805,-14.75 -0.3281,-0.30859 0.3828,-1.96875 0.8828,-2.85938 0.7891,-1.39843 1.6875,-2.6875 1.1094,-4.41796 -0.5586,-1.66016 0.9804,-3.98047 -1.211,-5.03125 -1.3906,-0.66016 -3.4492,-0.78125 -4.4687,0.46093 -1.4297,1.73828 -3.3711,3.83985 -1.7227,6.32813 0.8711,1.32031 2.1719,2.26953 1.8203,4.23047 -2.4687,2.08203 -7.9179,-1.35938 -8.6171,4.3789 -0.1602,1.32032 -1.211,0.78125 -1.6094,0.30078 -3.0508,-3.67968 -6.9102,-4.25 -10.5313,-1.64843 -3.1797,2.27734 -2.5703,6.30078 -2.0117,9.77734 h -10.2695 c -0.09,-2.09766 1.3398,-1.64844 2.1406,-2.07812 1.8008,-0.96094 2.9805,-2.48047 2.2305,-4.5 -0.8399,-2.25 -3.0117,-2.26954 -4.6797,-1.33985 -2.6211,1.44922 -4.9024,0.14063 -6.7305,-0.9414 -2.1992,-1.28907 -3.1719,-0.94922 -5.6484,-0.16797 -5.0703,1.57031 -3.7031,3.9375 -2.1602,7.30859 -4.8515,0.78906 -9.2929,1.24219 -13.1601,-1.25 -2.4414,-1.55859 -3.9805,0.58984 -5.9727,0.42188 -8.8789,-0.76954 -17.7695,-1.0625 -26.668,-1.3711 -2.9414,-0.10937 -8.8007,0.78125 -7.5117,-5.92969 0.1602,-0.85937 -0.3711,-1.60156 -1.3398,-1.4414 -0.7383,0.12109 -1.961,0.5 -2.0391,0.92969 -0.8398,4.75 -3.8515,2.80078 -6.8594,2.92968 -6.2421,0.26953 -12.2617,-2.17968 -18.7421,-0.21875 -4.3399,1.3086 -9.2891,-1.05078 -13.9297,-1.71875 -17.9805,-2.60156 -36.2305,-2.38281 -54.1602,-5.4414 -3.0976,-0.53125 -6.3281,-0.28907 -9.5,-0.41016 -4.0898,-0.14844 -7.5586,-0.92969 -5.5586,-7.10937 -6.6289,6.05859 -13.6289,4.94921 -20.3906,3.87109 -2.3008,-0.37109 -4.5391,-0.92188 -6.9297,-1.04297 -15.8516,-0.77734 -31.6797,-2.09766 -47.3594,-4.44922 -8.3906,-1.25 -16.789,-0.39844 -25.1797,-1.57812 -13.5625,-1.90235 -26.9921,-4.8125 -40.6992,-5.55078 -3.5625,-0.19141 -1.6133,-5.55079 -4.4804,-4.96875 -1.6407,0.33984 -1.6407,3.98046 -5.4219,3.28906 -8.8281,-1.60938 -17.8281,-2.33985 -26.7696,-3.35156 -11.539,-1.30079 -23.0781,-2.05079 -34.6406,0.13281 -2.0078,0.3789 -4.2383,0.0781 -6.3008,-0.3125 -7.3398,-1.37891 -14.6171,0.96094 -21.9375,0.19922 -2.6523,-0.26953 -5.7695,0.79297 -5.5312,-4.14844 0.09,-1.94922 -2.3516,-2.08984 -3.9414,0.0898 -4.0586,5.5586 -4.1485,5.48828 -9.4688,0.96875 -1.4804,-1.25 -3.5078,-2.59765 -4.7812,-0.59765 -1.4688,2.32031 -3.0078,2.5 -5.2891,2.02734 -0.9804,-0.19922 -2.4804,0.45313 -2.1289,1.5625 0.8985,2.77734 -0.3398,2.96094 -2.0703,1.75 -2.3906,-1.66016 -5.0312,-2.26172 -8.3398,-2.17187 2.4101,-4.28907 4.6914,-7.4375 9.3984,-6.69922 2.1719,0.33984 2.9531,-0.39844 2.9805,-2.35938 0.039,-2.12109 -0.9297,-3.76953 -3.1172,-3.85156 -2.6211,-0.0898 -5.2813,0.24219 -7.9024,0.55078 -3.7109,0.44141 -7.4101,0.78125 -11.0195,-0.41797 -0.9102,-0.30078 -1.9609,-1.08203 -2.3203,-1.91015 -0.6797,-1.58985 1.0117,-2.26172 1.9219,-3.04297 2.4101,-2.08985 5.457,-1.6875 8.3281,-1.71875 5.2617,-0.0586 10.2305,-1.0586 16.4805,-3.96875 -5.1211,-1.92188 -10.2383,0.91797 -12.3321,-4.1211 v 0.0391 c 0.3711,-1.91016 -1.6484,-5.32032 2.9024,-4.61719 2.039,0.30859 3.6289,-0.41016 4.7695,-2.1211 -6.1406,-4.76953 -12.9492,-5.08203 -19.9492,-2.66015 -6.8906,2.3789 -8.1602,4.89062 -7.211,12.71094 -8.4101,1.86718 -8.9804,1.46875 -9.9101,-6.71094 -0.059,-0.53125 -0.1406,-1.05078 -0.1914,-1.58203 -0.6602,-8.20703 -0.6602,-8.0586 -8.5195,-8.01953 -2.8282,0.0117 -5.8399,0.83203 -8.5274,-0.67969 -0.8125,-0.44922 -1.793,-1.27735 -1.3008,-2.57031 0.3086,-0.8086 1.0586,-1.27735 1.8477,-1.08985 7.332,1.82031 14.2109,-2.23828 21.5117,-1.59765 2.1289,0.1875 4.6602,-1.14063 6.5703,-2.42188 2.711,-1.80859 3.9492,-5.21094 1.8399,-7.58984 -3.0508,-3.42969 -3.1719,-7.64844 -4.8907,-11.28125 -1.6289,-3.45703 -0.4609,-3.82032 1.8203,-4.96875 1.4493,-0.73047 2.9415,-1.73047 4.4688,-1.39063 8.6406,1.89063 15.8633,-2.60937 23.4219,-5.25 2.6679,-0.92969 5.789,-0.25781 8.0898,-2.16015 0.3594,-2.51954 -1.6015,-2.89844 -2.8789,-2.94922 -6.1601,-0.3086 -11.7305,-2.89063 -17.6016,-4.25 -6.4101,-1.48047 -12.6484,-2.46875 -19.289,0.0195 -6.9297,2.60937 -10.6406,-0.25 -14.8906,-9.75781 l -0.1094,0.0391 c 2.0781,-4.21094 4.789,-8.26953 2.4883,-13.40235 2.4804,-1.41796 5.5117,1.72266 7.3593,-1.17968 0.543,-0.83985 0.8907,-1.96875 0.8711,-2.96875 -0.09,-5.75 -4.9414,-0.14844 -6.4804,-2.76953 -0.4102,-3.51954 2.8906,-4.91016 4.8711,-4.89063 4.5507,0.0586 8.2812,-3.12109 12.9687,-2.32812 2.9102,0.48828 6.0703,-1.15235 7.7695,-3.3125 2.5313,-3.20704 5.3633,-5.39063 10.293,-5.73829 -6.9531,-4.0625 -12.9922,-5.1914 -19.3008,-1.58984 -1.1015,0.64063 -2.9297,0.84766 -2.7695,2.42969 0.5508,5.41015 -3.5,4.57812 -6.1523,4.05078 -2.2071,-0.44141 -3.7579,-1.14063 -5.6172,0.77734 -1.961,2.01953 -3.3633,-0.53906 -4.6719,-1.34765 -1.6406,-0.99219 0.2422,-2.21094 0.582,-3.33985 0.5274,-1.75 2.5586,-2.67968 2.5781,-5.60156 -8,1.03906 -16.3203,-1.26953 -23.5703,4.62109 3.9102,-3.14062 8.8516,-4.9414 9.7305,-10.94921 -3.4219,-1.58204 -5.9219,-5.3711 -10.4414,-5.5 -1.0781,2.76953 2.2812,3.32031 2.3633,5.57031 -0.6328,0.3164 -1.4727,1.10937 -1.9414,0.92969 -6.0117,-2.26954 -12.3711,-1.85157 -18.5391,-1.97266 -5.9609,-0.10938 -11.8008,-1.36719 -17.7812,-1.20703 -4.4102,0.10937 -8.6914,-0.53125 -9.0821,-6.48047 -0.066,-1.01172 -0.9883,-1.90234 -2.250003,-1.8125 -1.5,0.10937 -1.4883,1.35937 -1.3593,2.3125 0.582,4.33984 -1.5,5.04687 -5.1485,4.05859 -8.1797,-2.19922 -16.6797,-0.51172 -24.9805,-1.96875 -3.4296,-0.60156 -6.6484,-1.55078 -9.8593,-2.71093 -1.5,-0.53907 -2.3086,-1.32032 -2.7617,-3.26172 -0.9805,-4.20703 -2.4375,-4.41797 -5.0391,-0.82813 -0.8594,1.17969 -1.3399,2.32813 -2.7891,1.75 -1.7617,-0.69922 -1.2422,-1.91015 -0.2422,-3.07031 1.2735,-1.48828 0.2735,-2.46094 -0.9687,-3.10938 -8.0195,-4.26171 -8.0391,-4.24218 -11.8203,-10.40234 -2.4492,-4 -1.7578,-5.95703 2.5508,-6.58984 1.1992,-0.16797 2.5507,0.76172 3.6796,-0.6875 0.8008,-1.42969 -0.6484,-2.21094 -1.1796,-3.33203 -1.1602,-2.41797 0.4414,-4.19922 2.3203,-3.64063 7.3593,2.17188 15.0976,-1.84766 22.539,2.19141 3.0196,1.6289 7.711,0.42187 11.6094,0.1289 5.3399,-0.41015 11,1.5625 15.9492,-2.13672 0.8125,-0.61328 1.9805,-0.14062 3,0.35938 9.652403,4.71875 19.730503,3.78906 29.851603,2.14844 5.4492,-0.89063 10.75,1.5 16.2109,0.66015 1.5391,-0.23828 3.1602,0.14063 4.7383,0.12891 3.082,-0.008 2.0117,-2.37891 2.2109,-4.01953 0.7891,0.69922 1.5508,1.42187 2.3711,2.08203 0.6172,0.48828 1.3985,0.82031 2.0782,0.25 0.3203,-0.26953 0.4804,-0.92969 0.4414,-1.39063 -0.1211,-1.3125 -0.9219,-1.71093 -2.1719,-1.3789 -0.8789,0.22656 -1.5898,1.58984 -2.6875,0.42969 -2.4297,-1.01172 -3.3594,-3.96094 -6.3008,-4.5 -1.789,-0.33204 -2.1015,-2.30079 -1.9297,-3.91016 0.1875,-1.80078 1.8399,-1.51172 3.0782,-1.66016 1.5703,-0.1914 3.1718,-0.25 4.7109,-0.5625 1.2695,-0.25781 3.6484,-0.98828 3.6406,-0.54687 -0.039,4.1289 5.8086,1.27734 6,5.50781 0.1485,3.46094 2.2813,1.91016 3.5195,0.33203 0.8008,-1.01172 1.2813,-2.29297 1.7813,-3.51172 1.1992,-2.85937 2.5586,-4.71875 6.3984,-3.91015 3.5118,0.74218 7.3399,1.01172 9.4102,-3.57813 0.582,-1.27344 3.1094,-1.76172 4.8203,-2.38281 4.6406,-1.66797 5.6992,-4.07813 3.1797,-7.96875 -0.8594,-1.32031 -2,-2.48047 -3.1406,-3.57031 -1.9493,-1.87891 -0.2891,-3.328131 0.4297,-4.929691 0.7617,-1.67969 1.7109,-2.69141 3.5703,-1.23828 0.3906,0.29687 1.1093,0.79687 1.2695,0.66797 1.6016,-1.25782 2.1133,-4.69141 5.4727,-2.10938 2.1289,1.64063 0.5703,4.55078 2.3281,6.128911 3.6601,-0.968751 0.2187,-3.320311 1.25,-4.449221 3.2109,-3.53906 5.2304,-9.01172 11.539,-7.98047 3.3125,0.55078 6.0313,-1.07812 9.0235,-1.71875 5.8086,-1.26953 11.3867,-4.21094 17.75,-2.85156 5.0078,1.07031 8.2695,-3.58985 12.7695,-4.92969 8.1484,-2.42969 16.3281,-3.62109 24.6602,-4.42969 1.0586,-0.10156 2.1367,-0.0117 3.1679,-0.23047 4.1602,-0.89843 8.0391,-4.03906 12.6524,-1.19921 0.9297,0.57031 2.7773,0.76953 3.6289,-0.55079 2.168,-3.3789 6.168,-2.44921 7.7578,-1.28906 3.3906,2.46875 8.1016,0.0195 11.0195,4.10938 1.4922,2.10937 6.1524,0.082 7.75,-2.78125 1.2617,-2.23828 1.3633,-2.32813 3.211,-0.13672 2.0898,2.46875 5.3906,3.21875 7.6992,2.6875 4.0312,-0.92969 -0.75,-2.64063 -0.25,-4.82813 4.4922,3.71875 8.9414,3.5586 13.7617,0.82032 2.3711,-1.36329 2.75,-0.89063 4.5195,3.80859 0.5118,1.35156 1.4024,1.37109 2.3516,1.37109 1.7695,0 3.5508,-0.1914 5.5195,-0.33203 -0.3789,4.80078 -7.0312,2.55078 -7.4414,6.94922 6.6797,3.29297 6.7305,3.3125 9.6289,-2.48828 0.7422,-1.48047 1.3711,-2.83984 3.3203,-2.78906 8.2422,0.23047 14.9532,-3.23047 20.8516,-8.64063 1.4219,-1.30859 3.4414,-2.64062 4.9492,-1.6289 5.3906,3.61718 9.9414,0.48046 14.8203,-1.10157 4.2188,-1.35937 8.5821,-2.35937 12.8594,0.0586 1.1406,0.65234 2.1797,1.10156 3.6797,0.67187 5.6719,-1.66015 5.6914,-1.57031 8.1211,4.03125 1.9414,-2.35156 3.6484,-4.71094 6.9297,-4.71094 6.082,0 7.8711,2.23047 4.7422,7.41797 -2.1211,3.5 0.098,4.94141 1.8476,6.60157 2.3906,2.26953 3.6914,-0.25 5.0313,-1.73047 0.7109,-0.78125 1.1093,-1.82032 1.789,-2.62891 1.9297,-2.3125 2.3516,-4.17969 -1.1992,-5.23047 -1.7812,-0.51953 -2.3594,-1.91015 -2.5,-3.80078 11.3516,-2.66016 22.8516,-3.26953 34.3516,-3.94922 0.2578,-0.0195 0.6484,-0.0898 0.7695,0.0508 4.2578,4.96875 9.6992,0.98047 14.4805,1.91016 0.5078,0.0977 1.1562,0.25 1.5586,0.0273 7.6679,-4.23047 16.1797,-1.32812 24.25,-2.83984 8.1992,-1.52734 16.8789,-1.48828 24.3984,3.35937 2.6797,1.73047 3.8008,-0.34765 5.5117,-1.21875 2.918,-1.48046 3,-1.51953 3.4492,2.24219 0.2188,1.76953 1.3594,2.20703 2.6797,2.1875 1.9024,-0.0195 3.3594,-1.11719 4.8594,-2.30859 2.5703,-2.01953 6.4609,-0.66016 7.1406,2.30859 0.3008,1.33203 -0.078,2.63281 -1.0703,3.67188 -1.1406,1.21875 -2.1211,0.98047 -3.3398,-0.082 -1.3203,-1.16016 -2.8281,-2.84766 -4.6797,-0.75782 -1.2695,1.41797 -0.7383,3.16016 0.082,4.44922 1.0391,1.64063 1.6172,4.21094 4.5,3.60938 1.2774,-0.26953 2.5196,-0.8711 3.8086,-1.01953 2.3594,-0.26954 4.3399,-0.21875 2.9883,3.28906 -0.6992,1.82031 0.9609,2.71094 2.8516,3.21094 1.0312,-2.08985 2.0586,-4.19922 3.1093,-6.3086 0.9493,-1.92969 0.8399,-3.5625 -1.1992,-4.73047 -0.6914,-0.40234 -1.3398,-0.85937 -1.9805,-1.32031 -1.9414,-1.41016 -0.4804,-3.48047 -0.9492,-5.21094 -0.8789,-3.26172 2.0899,-1.82031 3.3985,-2.58984 5.0898,-2.94922 10.4726,-2.32031 15.8398,-1.62891 4.1602,0.52735 8.9492,-0.90234 11.9102,3.87891 0.6093,0.98828 2.5507,0.28125 3.7109,-0.32031 1.7305,-0.91016 3.5391,-0.80078 5.3789,-0.96094 3.0195,-0.26953 5.2813,-0.21875 5.082,3.80078 -0.07,1.49219 1.0899,3.12109 0.8086,4.51172 -0.9804,5 2.4493,3.98828 6.5313,3.71875 -3.4414,3.21875 -7.5625,3.21875 -9.5313,6.28125 -0.3398,2.27734 3.5391,2.59766 2.5508,5.23828 -1.0703,1.19141 -3.1992,1.16016 -3.8008,3.14063 2.0391,0.25 4.1524,1.44921 5.3516,-0.94922 0.1992,-0.38282 -1.1406,-1.53125 -1.7695,-2.33203 4.5195,0.082 4.5195,0.082 7.6484,3.65234 -0.3594,-2.35938 1.7188,-4.33984 -0.6211,-5.96094 -1.3281,-0.91015 -3.3594,-1.83203 -1.8008,-3.37109 1.6211,-1.57813 4.0508,0.58203 6.3907,0.082 1.6914,-0.37109 0.621,1.69922 0.4609,2.91797 -0.5,3.60937 1.4414,4.89062 4.6601,3.62109 2.4219,-0.96094 3.1915,-1.16015 3.629,2.03906 0.3515,2.57032 3.5,-2.1875 4.8203,0.67188 2.1797,-1.89063 4.1914,1.75781 6.5703,0.23047 -2.2305,-4.9336 -4.3789,-3.48047 -6.5508,-0.17188 2.3516,-5.3789 6.082,-8.67968 12.3398,-8.16015 2.1211,0.17968 4.1719,-0.0586 6.0704,-1.08985 -0.6993,0.76953 -1.4375,1.51172 -2.0899,2.32032 -1.1406,1.41015 -3.4101,2.07031 -1.4492,4.96093 1.6406,2.41016 2.6211,4.30078 6.0703,2.59766 -1.1211,-3.1875 -4.0703,-6.02734 -2.5508,-9.87891"
     id="path19" />
</svg>
