<?xml version="1.0" encoding="UTF-8" standalone="no"?>
<svg
   width="1200"
   height="400"
   viewBox="0 0 1200 400"
   version="1.1"
   id="svg728"
   xmlns="http://www.w3.org/2000/svg"
   xmlns:svg="http://www.w3.org/2000/svg">
  <defs
     id="defs728" />
  <path
     fill-rule="evenodd"
     fill="#000000"
     fill-opacity="1"
     d="m 539.58298,339.90469 c -0.082,-0.9336 -0.75,-1.3242 -1.5313,-1.4024 -0.4102,-0.043 -1.1094,0.1602 -1.2617,0.461 -0.3985,0.7929 0.09,1.3945 0.8711,1.6289 0.7617,0.2343 1.4492,0.016 1.9219,-0.6875 m 459.3593,-45.6641 c -1.9414,-0.5391 -3.9492,-1.2539 -6.0508,0.582 2.3907,1.1875 4.2383,0.7618 6.0508,-0.582 m -514.0312,33.5 c -0.098,-1.2734 -1.1289,-1.5937 -2.0781,-1.8125 -0.711,-0.1641 -1.7813,-0.1992 -1.1719,1.0742 0.4101,0.8789 0.9609,1.9063 2.2109,1.6914 0.3906,-0.062 0.6992,-0.6172 1.0391,-0.9531 m -202.461,-19.7461 c 1.3555,-1.2773 1.5156,-2.7539 1.4844,-4.8633 -2.3867,1.5821 -2.2148,3.1328 -1.4844,4.8633 m 38.461,-93.4375 c 0.3242,2.4141 1.4921,3.4844 4.3086,4.4961 -0.8946,-2.5351 -1.75,-3.8516 -4.3086,-4.4961 m -72.7422,-37.625 c -1.1055,0.1797 -1.9063,0.7188 -1.6563,1.9375 0.1563,0.7383 0.7266,1.4063 1.6172,0.8438 0.5859,-0.3672 1.3399,-0.9063 1.4492,-1.4766 0.1485,-0.7422 -0.5742,-1.25 -1.4101,-1.3047 m -3.3321,-4.9961 c -0.3086,-1.3476 -1.0664,-1.8789 -2.2187,-1.5586 -0.7891,0.2149 -1.3164,0.9258 -0.8516,1.6602 0.3282,0.5156 1.1133,0.9297 1.7422,1.0117 0.75,0.1016 1.3516,-0.3906 1.3281,-1.1133 m 58.4688,-16.3359 c -0.4609,-1.4688 -1.2383,-1.7735 -1.9063,-1.375 -0.5625,0.3359 -1.2148,1.1914 -1.1601,1.7461 0.074,0.7344 1.0273,1.0312 1.7851,0.7578 0.7344,-0.2617 1.3711,-0.75 1.2813,-1.1289 m 513.168,-72.3672 c 0.3672,0.4687 0.6679,1.2266 1.2187,1.5 1.168,0.582 1.8399,-0.2578 2.211,-1.2344 0.3398,-0.875 -0.3008,-1.3633 -1.0118,-1.6172 -1.1289,-0.4023 -1.8398,0.1758 -2.4179,1.3516 m -568.4063,37.1055 c -0.5586,-0.875 -1.1445,-1.7891 -2.3789,-1.4063 -0.8008,0.25 -1.2383,0.918 -0.9609,1.7656 0.3789,1.168 1.332,1.4766 2.4062,1.1446 0.6211,-0.1875 1.6367,-0.3828 0.9336,-1.5039 m 213.4844,209.2382 c 0.6797,-0.2187 1.5586,-0.332 1.3008,-1.3789 -0.3516,-1.375 -1.2695,-2.0976 -2.711,-1.8632 -0.75,0.1211 -1.6015,0.5234 -1.4101,1.4023 0.3203,1.3906 1.4922,1.8008 2.8203,1.8398 m -163.8477,-17.9921 c 0.8867,0.012 1.6524,-0.3594 1.3242,-1.2852 -0.2031,-0.5703 -0.9921,-1.0625 -1.6289,-1.3164 -0.6757,-0.2656 -1.6484,-0.1719 -1.6875,0.7734 -0.051,1.1953 0.875,1.7071 1.9922,1.8282 m -6.4726,-101.7422 c 0.4492,-0.25 1.2031,-0.4297 1.2617,-0.7383 0.3125,-1.6367 -0.8711,-2.2344 -2.1445,-2.7109 -0.6329,-0.2344 -1.2618,-0.059 -1.2422,0.5468 0.051,1.3789 0.7539,2.4258 2.125,2.9024 m -74.8789,-0.4571 c -0.3672,-1 -1.1485,-0.9023 -1.8125,-0.9336 -0.7539,-0.039 -1.6446,0.1719 -1.6328,1.0079 0.012,0.8281 0.8945,1.125 1.6367,0.9062 0.6523,-0.1875 1.2265,-0.6523 1.8086,-0.9805 m 19.6601,-3.2773 c -0.2031,-0.7461 -0.5273,-1.4727 -1.3828,-1.5313 -1.0625,-0.074 -1.9531,0.4297 -2.25,1.4766 -0.2969,1.0664 0.6602,1.0977 1.3281,1.1602 0.9571,0.094 1.9414,0.09 2.3047,-1.1055 m 305.0274,-77.1484 c 0.2305,1.1875 1.1211,1.164 1.793,1.3476 1.1093,0.3086 2.3593,1.1094 3.2187,-0.4609 0.09,-0.1758 0.039,-0.5078 -0.059,-0.711 -0.7305,-1.4648 -2.082,-1.0351 -3.25,-0.9296 -0.6016,0.055 -1.1719,0.5039 -1.7031,0.7539 m 303.6015,-39.0196 c -0.09,-1.0078 -0.8007,-1.0508 -1.5585,-0.9922 -0.6719,0.055 -1.6211,-0.019 -1.6797,0.8086 -0.051,0.8516 0.7968,1.1055 1.5898,1.1446 0.75,0.035 1.3984,-0.1211 1.6484,-0.961 m -325.371,-10.5039 c -2.6485,-0.1133 -4.418,-1.1679 -6.8985,1.0508 2.4688,0.4141 4.2383,0.9141 6.8985,-1.0508 m 88.4531,-6.5937 c 1.0273,0.039 1.3984,-0.6719 1.4687,-1.461 0.1289,-1.4375 -1.0195,-1.8281 -2.0312,-1.707 -0.8711,0.1094 -2.3086,0.2734 -1.8906,1.8398 0.332,1.2149 1.3593,1.4258 2.4531,1.3282 m -53.3008,-5.867202 c -1.582,0.5117 -1.4805,2.027302 -1.9023,3.207002 -0.4493,1.2891 0.2226,2.0586 1.4296,2.1445 1.0704,0.078 1.1524,-0.9023 1,-1.6406 -0.25,-1.2304 0.7032,-2.6328 -0.5273,-3.710902 m 201.9375,18.750002 c -1.0195,0.2578 -1.3867,0.9375 -1.2891,1.7305 0.1407,1.1445 0.8321,1.871 2.0821,1.6171 0.7382,-0.1484 1.4375,-0.6171 1.1875,-1.5234 -0.2774,-1.043 -0.9883,-1.7383 -1.9805,-1.8242 m -421.9726,17.7578 c -0.9844,0.332 -2.7188,-0.016 -2.2774,1.9805 0.2149,0.9843 0.8203,1.9375 2.0625,1.8554 1.1992,-0.082 1.6953,-1.0117 1.9531,-2.0429 0.3438,-1.375 -0.5234,-1.7188 -1.7382,-1.793 m 448.7929,-1.0039 c 0.6914,1.1641 1.7109,1.8945 3.1328,1.6719 0.2578,-0.039 0.6172,-0.8711 0.5586,-1.2852 -0.1992,-1.4375 -1.082,-2.3359 -2.5898,-2.1523 -0.8516,0.1054 -1.1407,0.8867 -1.1016,1.7656 m 61.1524,-27.9414 c 1.1992,-0.1602 1.7773,-0.9844 1.8281,-2.0586 0.07,-1.4258 -1.0078,-1.5117 -2.0703,-1.4336 -0.8594,0.062 -1.4297,0.6094 -1.4688,1.4492 -0.039,1.1172 0.418,1.9688 1.711,2.043 m -666.5743,132.1445 c 0.5703,1.1328 1.6992,1.1094 2.6758,1.0938 1.1719,-0.023 2.8633,0.078 2.3789,-1.8633 -0.3203,-1.2774 -1.5664,-0.9883 -2.5508,-0.6133 -0.8984,0.3359 -2.1328,0.09 -2.5039,1.3828 m 39.918,12.1602 c -2.4883,2.5156 -3.4258,4.4101 -4.1406,7.0547 4.0078,-0.9649 4.1093,-3.2852 4.1406,-7.0547 m 510.7148,101.5547 c 1.2813,-0.09 1.8516,-1.1719 2.0586,-2.5352 0.1211,-0.8594 -0.3593,-1.5625 -1.1875,-1.6484 -1.4296,-0.1446 -2.6093,0.5039 -2.8593,1.9961 -0.1914,1.1132 0.3984,1.9726 1.9882,2.1875 m -475.0468,-81.4024 c 0.039,-1.7812 -1.668,-1.6328 -2.629,-2.2773 -0.7343,-0.4961 -1.5429,-0.5157 -1.8007,0.582 -0.3672,1.5703 0.5234,2.6094 1.832,3.0508 1.0625,0.3594 1.9375,-0.4414 2.5977,-1.3555 m -1.6641,12.7891 c 2.3594,0.6172 4.2148,1.5 5.1719,-0.9649 0.1367,-0.3593 -0.094,-1.2187 -0.3594,-1.3242 -2.082,-0.8281 -3.3438,0.4453 -4.8125,2.2891 M 885.98098,61.006188 c -1.2383,0.5 -1.8711,1.5977 -1.6406,2.8946 0.3203,1.6875 1.8515,1.5547 3.0703,1.3476 0.9219,-0.1523 2.1992,-0.3437 2.1211,-1.7109 -0.1289,-2.0703 -1.9688,-2.0039 -3.5508,-2.5313 m -609.941,76.980502 c 0.9218,-0.098 1.5898,-0.6406 1.4492,-1.4961 -0.2852,-1.707 -1.461,-2.9609 -3.086,-3.2109 -1.082,-0.1641 -1.9453,1.0078 -1.7226,2.1484 0.3398,1.7149 1.4726,2.75 3.3594,2.5586 m 122.9922,6.1602 c 2.1484,0.4101 4.3789,0.9218 5.8398,-1.586 0.1602,-0.289 -0.1289,-1.2109 -0.4297,-1.3398 -2.539,-1.0781 -4.3008,0.1679 -5.7304,2.1406 -0.059,0.094 0.1484,0.3867 0.3203,0.7852 m 389.5508,-24.5391 c -1.2032,-6.9766 -1.2032,-6.9766 -5.8594,-5.8438 1.6797,1.6719 3.2695,3.254 5.8594,5.8438 m -316.8008,219.3125 c -1.8516,-1.4102 -3.8203,-2.1602 -6.0899,-0.6523 -0.6718,0.4414 -0.75,1.5703 -0.1093,2.0585 1.9687,1.5274 3.9296,0.5352 5.8281,-0.3437 0.1406,-0.062 0.1523,-0.3984 0.3711,-1.0625 m 6.1797,-4.3086 c -1.6407,0.4844 -0.1211,2.2656 -0.9805,3.0977 -1.1992,1.1679 -1.25,2.2617 0.3203,3.0273 0.6289,0.3047 1.6016,0.4727 2.1797,0.1992 1.0703,-0.5 0.9922,-1.6484 0.8203,-2.6992 -0.2305,-1.4805 0.07,-3.2734 -2.3398,-3.625 m 576.55862,-112.7383 c -2.5977,0.1797 -5.4493,-1.3047 -8.1797,0.7149 3.5625,3.6953 5.6211,-0.2735 8.1797,-0.7149 M 277.95398,113.76399 c -0.6992,-0.1523 -1.1914,-0.3671 -1.6797,-0.3515 -2.0586,0.07 -3.5586,0.7969 -3.5234,3.2148 0.012,0.8125 0.1758,1.668 1.0039,1.793 1.957,0.2891 2.5899,-1.4531 3.4922,-2.6523 0.4023,-0.5313 0.4766,-1.3125 0.707,-2.004 m 316.3086,-35.664 c 1,-0.3399 2.1289,-0.7891 1.961,-1.961 -0.1836,-1.3085 -1.0821,-2.332 -2.6133,-2.0898 -1.3086,0.1992 -2.6367,0.9844 -2.3867,2.3672 0.2383,1.3242 1.707,1.6758 3.039,1.6836 m 193.7891,3.3828 c -0.6016,-1 -1.4219,-0.7969 -2.1602,-0.8711 -1.8203,-0.1758 -2.9687,0.3945 -2.8984,2.457 0.027,0.9922 -0.2305,2.2852 0.9375,2.5821 1.3594,0.3515 2.3906,-0.6016 3.1016,-1.7383 0.5078,-0.8086 1.2812,-1.5508 1.0195,-2.4297 m -467.1289,127.6055 c 0.1484,2.3906 1.5469,3.6093 3.8203,3.9218 1.0703,0.1524 2.3633,-0.1445 2.7578,-1.1093 0.7227,-1.7696 -0.7227,-2.2969 -2.0625,-2.2813 -1.5078,0.016 -2.7266,-1.789 -4.5156,-0.5312 m 88.8398,-62.6719 c 1.8282,-0.5664 2.3086,-2.1836 2.1993,-3.6289 -0.1407,-1.7149 -1.6016,-2.668 -3.2891,-2.207 -1.2617,0.3437 -2.043,1.5664 -1.8594,2.9843 0.2188,1.6719 1.2774,2.625 2.9492,2.8516 m -121.8711,165.4961 c -0.7968,1.1758 -1.3437,2.3047 -2.1797,3.1406 -0.914,0.9141 -2.2695,1.7383 -1.1679,3.0625 1.1484,1.3789 2.9375,0.6055 4.3476,0.2813 2.0469,-0.4766 0.9102,-2.0391 0.5977,-3.0977 -0.3438,-1.1484 -1.0195,-2.1953 -1.5977,-3.3867 m 514.9883,-237.1289 c -0.2773,-1.4375 -1.3476,-1.5664 -2.3867,-1.4219 -2.3203,0.3281 -3.9531,1.4609 -3.6601,4.0898 0.1406,1.2461 1.5,1.8594 2.3281,1.5899 1.9804,-0.6445 3.9297,-1.6484 3.7187,-4.2578 m -614.8789,145.0195 c 2.1602,0.031 3.5664,-0.9297 3.5391,-3.1875 -0.02,-1.7617 -1.5118,-1.9492 -2.8203,-1.8594 -2.0508,0.1446 -4.6563,0.1875 -4.543,3.0039 0.074,1.75 2.2656,1.8125 3.8242,2.043 m 84.4688,-7.7226 c 6.7773,1.9023 6.7773,1.9023 10.7656,-1.1485 -3.3633,2.6016 -6.5586,-2.9414 -10.7656,1.1485 m 490.8515,-115.3672 c -4.039,0.7578 -7.0507,-0.2774 -9.5195,1.8281 1.8594,1.9883 3.3984,3.6289 4.9414,5.2734 -0.09,-3.2343 2.668,-3.9453 4.5781,-7.1015 m -389.1992,234.2617 c 1.5,2.0156 3.5078,1.4805 5.1992,1.8594 1.1914,0.2695 2.5899,0.6562 3.0821,-1.1797 0.4375,-1.6407 0.3789,-2.8672 -1.4727,-3.8086 -3.9375,-2.0117 -5.4883,0.1211 -6.8086,3.1289 m 669.98052,-107.4102 c -3.8711,-0.6093 -3.5,-5.5703 -7.6719,-3.664 -1.7383,0.7929 -2.0586,2.5859 -1.1172,4.0078 2.1797,3.3164 4.7188,1.9531 8.7891,-0.3438 m -770.33602,84.461 c -2.5429,-0.8321 -4.8593,-1.6407 -7.0937,0.7148 -1.1875,1.25 -1.961,3.0938 -1.1875,4.3281 1.4648,2.3243 2.3594,-0.6172 3.5976,-0.9453 1.9414,-0.5117 4.086,-1.0351 4.6836,-4.0976 m -41.9648,-63.2852 c 1.8828,3.7969 5.4101,3.5313 8.6133,3.6328 0.7422,0.02 1.8047,-1.0781 2.2187,-1.9062 0.582,-1.1758 -0.6523,-1.5821 -1.4258,-2.2383 -3.2148,-2.7266 -6.1484,-1.6133 -9.4062,0.5117 m 75.0547,-100.7891 c -0.3086,2.1563 -0.4102,4.8165 0.6562,4.7774 4.6758,-0.1563 9.5235,1.1914 14.6953,-0.582 -2.8164,-2.3008 -5.5156,-2.8711 -7.9179,-1.8204 -3.2266,1.4063 -4.4336,-1.9843 -7.4336,-2.375 m -63.1914,-13.1953 c -0.1133,3.7461 3.1836,4.1368 3.9023,6.5 0.2344,0.7735 2.6914,0.2071 2.4844,-0.3515 -1.0977,-2.9922 3.2578,-4.0742 2.3047,-6.1836 -1.0742,-2.3789 -3.7344,-0.3633 -5.6758,-0.6211 -0.9453,-0.1289 -1.9805,0.4101 -3.0156,0.6562 m 17.0468,131.2891 c 3.9493,-1.9141 0.7305,-5.6094 3.0118,-7.25 3.1171,-2.2422 0.4961,-2.8125 -0.9219,-3.6641 -1.6524,-1 -2.8789,-0.6523 -3.707,1.2813 -1.5235,3.539 -0.5196,6.539 1.6171,9.6328 m 9.875,-56.5039 c -8.3046,0.4961 -9.2851,1.7344 -8.2265,7.8594 0.2148,1.2304 0.4687,1.8047 1.4531,2.1054 1.0508,0.3203 2.1836,0.1602 2.6914,-0.8828 1.3281,-2.7304 2.5,-5.5312 4.082,-9.082 m 90.6368,-111.7852 c 5.6797,-3.9726 6.5195,-7.3359 3.1679,-11.2109 -1.2109,-1.4102 -2.5898,-1.9141 -4.1406,-1.1094 -1.3711,0.7188 -1.5508,2.2539 -0.6992,3.4102 1.9687,2.6679 0.3906,6.0273 1.6719,8.9101 m -105.4961,112.2461 c -5.6875,-1.9023 -5.7149,-1.9492 -11.2422,0.9102 -1.0781,0.5547 -1.7617,0.9648 -2.4375,-0.3867 -0.4844,-0.9688 -0.5625,-3.1953 -2.3672,-1.6133 -1.6563,1.4453 -0.3711,3.0234 1.0078,3.8437 2.0039,1.1914 4.375,1.4493 6.3438,3.0547 5.4023,4.3985 5.457,4.2422 7.6328,-2.2734 0.3906,-1.1719 1.7695,-2.0156 1.0625,-3.5352 m 9.0859,-56.1367 c 2.9258,0.7383 4.2227,0.9375 5.4219,1.3906 5.1015,1.9336 10.1406,4.0625 15.4531,0.5078 0.8047,-0.5351 2.0977,-0.871 2.7813,0.3438 0.6054,1.0664 0.3046,3.8203 2.3984,1.2812 0.3711,-0.4531 1.4336,-3.8203 -1.9688,-3.8203 -2.1875,0 -4.539,-1.0234 -5.4687,-2.7226 -3.1328,-5.6992 -7.7266,-2.043 -11.3086,-1.5117 -1.1992,0.1796 -3.9766,2.3437 -7.3086,4.5312 m 282.7266,188.1367 c 2.0508,1.3828 4.1133,2.5899 6.6523,0.7696 -1.2304,-2.1094 -2.9297,-3.0157 -4.5195,-3.4454 -2.3398,-0.6367 -2.1719,1.3047 -2.082,2.8047 -0.5508,-0.5664 -1.0586,-1.1679 -1.6407,-1.6914 -0.8281,-0.75 -1.7968,-1.0781 -2.8086,-0.4375 -0.7617,0.4805 -0.8203,1.3594 -0.4609,2.0508 0.5625,1.0742 1.6406,1.207 2.7109,0.8984 0.7383,-0.2109 1.4297,-0.625 2.1485,-0.9492 m 36.3828,3.0821 c -4.6914,2.5546 -10.0898,2.5234 -14.7227,1.5312 -8.4882,-1.8125 -16.2968,1.418 -24.3476,1.4805 -11.0195,0.082 -22.1719,2.9414 -33.082,-0.2344 -4.2579,-1.2461 -8.1407,0.9922 -12.1993,0.2852 0,-0.6446 -0.1797,-1.2422 0.031,-1.6289 0.9101,-1.6875 4.5273,-1.8204 3.1601,-4.7032 -1.1093,-2.3242 -3.4101,-1.7851 -5.582,-1.289 -3.4687,0.8007 -7.0898,-1.211 -10.6289,0.6523 -1.7305,0.9141 -3.7695,1.418 -2.6914,3.8203 1,2.211 0.09,3.0391 -1.7773,3.1563 -9.5821,0.5898 -19.1719,1.1601 -30.5625,-0.7383 4.2304,-1.5899 7.2109,-1.0938 9.4726,-3.2227 -5.0625,-6.0195 -9.9101,-2.9961 -14.8906,0.293 1.0586,0.7695 2.0508,1.4922 3.5078,2.5586 -4.5898,2.7539 -9.5195,1.1836 -13.8594,1.3516 -6.5078,0.25 -13.1094,0.6992 -19.6679,0.2812 -3.3516,-0.2148 -6.8711,0.5 -9.6407,-2.4726 -1.289,-1.379 -3.4101,-1.8282 -5.1406,-0.6602 -5.7617,3.918 -11.8086,1.8164 -17.5312,0.4727 -2.9375,-0.6954 -5.7969,-2.2774 -8.9375,-2.7422 -0.1797,-0.023 -0.4297,-0.3594 -0.4297,-0.5469 0.01,-0.2266 0.2382,-0.4531 0.3593,-0.6797 -0.539,-0.6914 -0.4023,-1.3789 0.1094,-1.9805 0.6406,-0.7422 1.5899,-1.5156 0.168,-2.2382 -0.5586,-0.2852 -1.5469,-0.1797 -2.1172,0.1406 -0.7227,0.3906 -0.6719,1.3515 -0.2227,1.957 0.6016,0.7891 1.4024,1.418 2.1211,2.1172 -2.5,0.4141 -4.8711,1.8594 -7.5586,0.418 -1.5195,-0.8086 -3.4492,-0.4571 -4.1718,1.1562 -1.4493,3.2695 -2.5,2.8125 -5.0586,0.7383 -5.6016,-4.5391 -5.8008,-4.293 -4.2422,-11.1484 -2.168,-0.7383 -4.4883,-1.0352 -6.5586,-2.2149 -3.5195,-2 -10.3281,-1.0976 -12.9258,1.6016 -1.5273,1.5898 -1.1133,3.3047 0.1797,4.8945 1.9336,0.6367 2.3477,-1 2.6953,-2.0586 0.75,-2.2734 1.8906,-3.914 4.4805,-3.4648 2.7109,0.4726 3.5117,2.75 3.9922,5.0898 0.1875,0.9102 0.6992,2.2461 -0.8907,2.4063 -6.1797,0.6328 -11.7031,5.5351 -18.7344,1.6289 -3.1093,-1.7227 -7.8125,-0.9649 -11.75,-0.7188 -4.8281,0.3086 -8.746,-0.3359 -9.6093,-5.6562 -2.2969,-0.051 -2.9453,1.1367 -3.4336,2.3711 -1.3047,3.3007 -4.1172,3.5 -6.6016,2.4414 -5.0312,-2.1407 -10.2969,-3.1992 -15.5976,-4.0117 -2.4571,-0.379 -0.7774,-3.7735 -3.4141,-3.4961 -1.3906,0.5586 -1,2.2695 -1.8164,3.2304 -1.332,1.5664 -2.8516,2.6719 -4.3203,0.1758 -0.7696,-1.3086 -2.6016,-2.2148 -2.6289,-0.7461 -0.1172,6.6485 -3.9766,1.5117 -5.9063,2.1524 -1.0937,-4.6993 -4.9765,-2.3086 -7.6328,-2.8985 -1.5625,-0.3476 -3.7187,1.7774 -4.7305,-0.9297 -0.8867,-2.3711 1.5508,-3.0468 2.6602,-4.3672 0.8164,-0.9726 1.957,-0.4453 2.9805,-0.4296 -0.019,1.1836 0.8125,1.8007 1.6718,2.3125 1.1094,0.664 2.6524,1.289 3.2539,-0.1602 0.4258,-1.0312 -0.5937,-2.5 -1.7539,-3.0469 -1.2343,-0.5781 -2.457,-0.098 -3.2812,1.086 -0.4453,-1.7774 -1.0156,-3.5352 -1.293,-5.3399 -0.2344,-1.5586 -1,-2.707 -2.4804,-2.3672 -4.1368,0.9414 -6.2266,-3.2109 -9.8321,-3.6797 -1.4648,-0.1953 -2.8281,-1.9531 -2.2422,-3.6367 1.4024,-4.0351 -1.2031,-4.1601 -3.9414,-4.9258 -4.4648,-1.2421 -8.6601,-3.4687 -13.4648,-0.9179 -2.211,1.1719 -4.793,0.082 -6.832,-0.8828 -2.8321,-1.3399 -5,-2.3868 -8.668,-1.6368 -3.6211,0.7422 -5.6797,-4.1054 -7.6563,-7.0703 -1.6367,-2.4453 0.9688,-3.4882 2.6016,-4.8359 2.1445,-1.7695 3.8906,-11.582 2.6055,-13.5547 -1.2266,-1.8828 -3.8946,-1.1758 -5.9766,-3.4101 5.582,-0.5665 4.6328,-6.7618 9.0273,-8.7891 3.9336,-1.8125 8.004,-3.5234 11.1094,-7.293 1.8711,-2.2656 6.2227,-2.3945 9.3516,-3.7344 4.9453,-2.125 5.0898,-2.9492 1.8398,-7.3398 -2.7265,-3.6914 -7.3476,-4.6719 -12.0625,-2.5508 -0.2148,0.098 -0.4297,0.5117 -0.5312,0.4727 -6.2344,-2.3008 -13.7344,-0.1211 -19.1016,-4.9688 -1.707,-1.5429 -3.1601,-3.3047 -5.2617,-2.3515 -7.5625,3.4257 -14.3672,-2.2578 -21.6563,-1.4961 -0.4609,0.047 -1.1914,-0.25 -1.4218,-0.6211 -3.8164,-6.1758 -10.8282,-5.0703 -16.2657,-7.5117 -5.1093,-2.2891 -9.789,-5.8829 -14.8125,-8.6602 -1.2851,-0.7109 -1.4531,-2.2266 -0.8789,-3.5391 0.961,-2.1836 3.2188,-2.5625 4.6485,-1.4609 3.9883,3.0742 8.8515,0.5195 13.0039,2.5625 2.2422,1.1016 4.5547,-0.5 6.8203,-1.8828 -5.668,-6.6758 -11.9922,-12.1719 -20.4688,-14.5781 0.5118,-2.5118 3.625,-2.625 3.9219,-4.9336 -0.1797,-0.9727 -0.8515,-1.5274 -1.6054,-1.5 -2.629,0.1015 -5.254,0.3593 -7.879,0.5703 -1.5234,0.1211 -2.7187,-0.5625 -2.9726,-1.9688 -0.3438,-1.9336 1.3437,-2.2109 2.582,-1.9609 4.5,0.9102 5.7891,-1.2266 6.7266,-5.3359 1.8125,-7.9219 8.2265,-11.1563 15.4961,-12.3711 3.1953,-0.5313 6.1758,-0.4844 8.4297,-3.3243 2.6132,-3.3046 6.4648,-2.0078 9.6562,-1.6328 4.7578,0.5625 8.4102,-0.2851 10.4102,-4.9101 0.9258,-2.1289 2.4258,-2.8164 4.3906,-2.0547 6.1016,2.3633 12.2773,1.6719 18.5937,1.2851 3.8946,-0.2382 8.4336,-0.8476 11.5821,3.7891 1.1992,-4.75 -0.5938,-9.4531 4.6054,-12.625 -11.2421,-2.6406 -21.414,-0.7734 -31.5546,0.078 -2.918,0.2461 -5.2969,0.9922 -7.6641,-2.0468 -1.9375,-2.4844 -5.7852,-2.1133 -8.8789,-2.5704 -2.8789,-0.4296 -5.8125,-0.4921 -8.6797,-0.9687 -1.5039,-0.25 -3.3086,-0.7773 -3.3086,-2.7891 0,-2.1054 1.3125,-3.8945 3.3438,-3.7031 2.7851,0.2617 4.6601,-2.4101 7.2109,-1.1562 1,-3.1602 -2.2383,-3.8555 -2.332,-6.1055 3.8359,-2.7891 7.9882,-4.9688 12.7265,-5.9961 11.7891,-2.5586 23.336,-6.3516 35.4727,-7.0938 2.5664,-0.1601 4.7734,-0.6992 6.1523,-2.875 1.625,-2.5859 4.0664,-4.0468 6.711,-5.6718 1.7226,1.4648 0.9218,4.7617 3.789,5.2617 2.5352,0.4414 4.5196,-0.5078 6.6133,-1.918 2.5078,-1.6875 4.1094,-3.8281 5.6016,-6.4023 1.5703,-2.7071 3.1015,-6.7266 7.2383,-1.4531 1.3515,1.7187 6.5585,2.2812 8.7148,1.0781 3.8477,-2.1524 7.9961,-2.0664 11.832,-3.4649 5.3711,-1.9609 6.8633,-1.4179 8.2461,4.1289 0.4531,1.8086 0.023,3.7188 2.5274,4.1758 2.2773,0.4219 3.3125,-1.3203 4.4922,-2.6172 1.1835,-1.3047 1.2773,-3.4414 3.5039,-3.9922 2.5117,-0.625 2.5117,-2.6367 1.4921,-4.3671 -2.4414,-4.1289 0.4493,-5.4883 3.004,-7.2813 2.121,1.8594 -0.2735,2.2539 -0.4883,3.2422 -0.3008,1.3828 -0.098,2.668 1.2383,3.4219 1.3242,0.75 2.7929,0.4414 3.5468,-0.6875 2.4961,-3.7461 5.3828,-7.1485 8.5391,-10.3321 l -0.047,-0.1523 c 0.4648,2.1953 -0.8242,3.9687 -1.3945,5.918 -0.7071,1.5351 -1.1289,2.9609 1.0117,3.75 2.3242,0.8554 4.414,1.1406 5.789,-2.4414 -2.7304,0.1523 -4.9023,-0.6016 -7.0781,-1.3282 3.3047,1.336 6.1133,-0.289 9.1172,-1.3164 2.8984,-0.9961 5.1406,-6.3633 9.1563,-1.6523 0.1406,0.168 1.4727,-0.4258 2.0352,-0.918 1.3359,-1.1719 2.1054,-2.9219 3.6367,0.2344 0.9961,2.0664 2.6992,2.0312 4.4687,-0.793 1.7695,-2.8047 4.8594,-5.3515 8.9922,-5.1601 1.2773,0.059 3.0977,0.035 3.7695,-0.7344 5.8282,-6.6641 13.8985,-5.7305 21.3282,-6.0781 5.5507,-0.2578 10.6718,-2.4727 16.1718,-2.4649 2.3789,0 5.3789,-2.0664 6.668,1.8906 0.051,0.168 0.4922,0.1797 0.6914,0.3321 3,2.289 2.9102,-4.1446 5.7578,-2.0625 1.8438,1.3515 1.711,4.9179 4.6328,4.8554 2.668,-0.051 6.3672,2.4454 7.5586,-2.8554 0.3907,-1.7383 3.25,-1.6211 4.5508,0.1289 2.3516,3.1953 4.4414,2.4765 4.5586,-0.8555 0.1602,-4.4922 2.6602,-4.8125 6,-5.4922 11.9414,-2.4336 24.1016,-3.3672 36.1719,-4.468702 7.4883,-0.6875 15.1992,-0.2031 22.8008,-0.8008 2.1289,-0.168 3.7773,-0.023 4.2773,3.156202 0.5899,3.7813 3.6016,5.8008 7.582,4.0821 2.8985,-1.25 6.5391,2.6562 8.9883,-1.6055 0.6289,-1.1016 1.5899,-0.074 2.1524,0.9961 0.9297,1.7539 3.1289,1.918 4.0273,0.8555 4.0703,-4.7969 7.3516,-2.1016 10.8008,0.6484 0.332,0.2617 0.9805,0.1172 1.4922,0.1602 0.3594,-0.336 0.8867,-0.6055 1.0586,-1.0196 0.8086,-1.9961 -1.3516,-5.1523 0.4804,-5.9453 3.1993,-1.394502 5.8008,-4.324202 9.4493,-4.449202 7.0117,-0.2461 14,-0.707 20.6015,-1.7148 1.6289,3.0546 -1.8906,4.8945 -0.3203,7.332002 2.7383,0.6016 4.1094,-0.9727 4.4375,-3.246102 0.6328,-4.3516 4.0195,-5.3164 7,-4.5859 8.4805,2.0742 16.8125,-0.8282 25.25,0.062 4.5508,0.4765 9.3711,-1.5899 13.3594,2.3711 1.9414,1.9257 2.6211,-1.5196 4.7422,-1.2774 12.5898,1.4414 25.2187,-0.6719 37.8789,-0.016 5.0195,0.2539 9.1601,2.1406 13.332,4.0195 3.3789,1.523502 6.8086,2.168002 9.8789,1.1211 12.2383,-4.1797 24.9688,-2.4141 37.4492,-3.5234 3.1407,-0.2774 6.5703,0.019 9.5391,2.7812 4.1914,3.886702 9.4609,1.230502 14.2812,0.7578 0.4102,-0.039 1.0899,-0.6562 1.0704,-0.9726 -0.2618,-4.8946 3.2382,-3.9258 5.8711,-3.5117 1.8476,0.2929 3.6093,-1.2852 5.3906,0.043 1.8594,1.75 -1.8828,5.046902 0.5586,5.515702 2.7695,0.5273 5.5,2.8164 8.8789,0.7382 5.6797,-3.488202 5.832,-3.250002 11.3711,0.25 2.3476,-0.8906 1.4687,-3.597602 2.7695,-5.062502 -2.1602,-1.8828 -5.0898,0.047 -7.4102,-1.5039 5.2618,-2.4218 9.5586,-2.1445 11.7188,1.8282 2.0312,3.734302 5.043,4.441402 7.8203,3.070302 3.0899,-1.523502 5.9609,-0.492202 8.6797,-0.531302 1.6523,-3.5937 -2.9883,-3.5 -2.8398,-5.9844 1.5898,-1.664 4.1601,2.0157 5.3906,-1.0586 -0.9375,2.5547 0.4687,4.0079 2.4297,5.1993 l -0.2305,-0.1914 c -0.039,1.9218 -2.75,4.968702 1.582,5.117102 2.2813,0.078 6.1875,1.2461 5.9375,-3.468702 -0.047,-1.0352 -0.1797,-1.9453 0.2305,-2.957 2.2812,-5.7461 3.5312,-5.9414 8.1797,-1.1914 -1.7695,0.055 -4.0664,-0.4883 -4.0977,2.2578 -0.031,1.6015 1.5313,2.0312 2.918,1.664 2.75,-0.7226 2.2305,-2.3593 0.9531,-4.1015 2.7188,-0.6407 4.5274,-3.7657 8.3985,-2.7578 -0.3711,2.3242 -3,6.2304 2.5195,6.039 1.6484,-0.059 2.9492,-0.4219 3.6289,-2.3047 1.5508,-4.3281 4.8398,-4.6601 9.1328,-4.8007 5.4883,-0.1797 11.0469,2.8789 16.668,-0.8555 2.3515,-1.5547 6.1914,-1.0156 9.3594,-1.1289 2.4023,-0.086 4.8007,0.3359 5.9726,2.9687 1.2188,2.711 3.8789,3.3282 6.25,4.4492 1.5195,0.7188 3,1.711 3.668,-0.6523 0.4297,-1.543 -0.4688,-2.4258 -2.2383,-2.2031 -1.1602,0.1445 -2.1016,-0.2578 -2.0703,-1.6446 0.02,-1.2226 0.9492,-2.0585 1.8906,-2.2929 1.5078,-0.3672 3.207,-0.6485 4.6875,-0.3281 6.6094,1.4218 13.1992,0.5585 19.7813,0.031 6.8789,-0.5508 13.5781,2.3711 20.5507,0.8906 1.168,-0.25 2.7696,1.3008 4.1094,2.1133 1.75,1.0586 3.0391,2.5547 4.9805,-0.3398 0.9492,-1.4219 3.6875,-0.6446 5.8281,0.3203 4.0899,1.8515 8.0899,3.5039 13.1211,1.6484 3.8203,-1.4062 8.4609,-0.875 11.1016,3.5899 1.0078,1.707 2.9179,2.464802 3.5781,0.5703 1.6914,-4.7539 5.5703,-3.9492 8.3398,-3 6.6094,2.2656 14.2305,1.9531 19.711,7.375002 1.3789,1.3633 3.539,1.4687 5.3008,1.1718 4.91792,-0.8242 8.91012,3.0352 13.71872,2.4532 0.2383,-0.027 0.6406,0.059 0.7383,0.2226 3.3711,6.1016 10.75,7.1758 15.0508,12.0782 1.0312,1.1796 1.9218,2.6718 0.8125,4.3007 -0.711,1.0469 -1.8321,0.9375 -2.8399,0.461 -2.0312,-0.961 -4.1601,-1.4258 -5.9922,0.1015 -2.5078,2.0977 -5.039,4.2774 -7.0976,6.793 -1.4024,1.7031 0.5781,2.7891 1.8086,3.6797 4.539,3.2851 9.7187,5.3398 14.7383,7.7109 9.0703,4.2891 17.1523,9.875 23.9921,18.0313 -11.7226,-0.6719 -15.0507,1.9492 -21.1796,14.7265 4.9882,1.7032 10.6601,0.293 15.2187,3.375 1.0703,0.7266 3.2383,1.5547 3.1602,1.9844 -1.3516,6.711 3.7812,4.7774 6.8984,5.211 3.8711,0.539 5.3828,2.5507 5.3828,6.4062 -0.012,5.5938 -1.4531,7.6992 -6.5625,9.6602 -3.7578,1.4453 -8.0195,2.2031 -11.7578,6.3984 4.2695,0.094 7.3281,0.1016 10.3789,0.2422 1.4219,0.066 2.5508,0.75 2.7305,2.3281 0.1797,1.5547 -0.7617,2.5469 -2.0508,3.0078 -3.0313,1.0977 -6.2305,1.3906 -9.4102,1.3477 -2.9609,-0.039 -5.8203,-0.055 -8.1797,2.7109 2.2813,2.6406 5.8711,-0.5351 8.5196,2.6992 -0.3477,-0.7343 -0.1485,-0.5156 -0.1602,-0.3007 -0.098,11.789 0,11.832 10.9492,10.0351 3.9727,-0.6523 8.3204,-3.1641 11.6133,2.2578 -1.1601,2.7852 -4.3906,4.5703 -7.0625,4.8906 -5.3008,0.6407 -8.6211,3.0274 -11.0703,7.4961 -1.2187,2.211 -4.207,3.1524 -4.7695,6.2227 2.8789,0.4844 5.3515,-0.8203 7.6289,-1.7891 2.8515,-1.207 5.3203,-1.1367 6.9531,1.1993 2.3789,3.3828 5.2188,3.9062 9.0703,2.2773 -5.3711,7.668 -14.1523,5.957 -21.082,8.168 -7.1406,2.2812 -15.1992,2.4882 -23.8984,4.082 3.9375,3.8398 4.9101,8.5781 9.1484,11.3359 2.5508,1.6641 1.2891,5.3633 -1.4883,4.7305 -7.1523,-1.6406 -8.0195,6.8984 -13.5117,7.3906 -0.3399,9.7305 -7.4492,4.6133 -11.8594,5.4414 -0.4492,0.086 -0.832,0.5235 -1.7695,1.1485 5.0195,2.3867 10.168,2.9218 15.1289,2.9101 4.4492,-0.012 6.3516,1.4805 6.6719,5.711 0.1172,1.5351 0.5273,3.0273 1.6875,4.3047 1.1406,1.246 0.332,2.9492 -0.7578,3.3554 -5.6797,2.1172 -7.1016,10.1797 -14.5313,10.0156 4.4883,1.4454 8.7109,2.6915 12.4297,-1.5234 0.832,3.1367 -0.2578,5.1602 -2.3281,5.8438 -2.7618,0.9101 -5.043,2.6289 -7.9532,3.3945 -10.3398,2.7305 -10.2773,2.957 -20.26952,13.543 2.9414,2.1679 6.87112,-2.0547 9.48052,1.4804 -4.1094,4.6758 -4.1094,4.6758 -9.64852,3.7813 -0.3007,3.8437 4.3086,0.8867 4.92972,3.5351 -0.94922,2.1641 -2.94922,1.9141 -4.75002,2.1172 -2.832,0.3203 -6.1015,0.027 -5.0508,4.7031 0.2891,1.2735 -1.1992,1.4961 -2.2617,1.6133 -2.3398,0.2578 -4.7265,1.0039 -7.0468,-0.6289 -0.2618,-1.5781 1.0585,-1.2344 1.8789,-1.2929 1.6289,-0.1133 2.5117,-1.043 2.3711,-2.5235 -0.1407,-1.414 -1.5704,-0.9726 -2.5118,-1.1953 -3.5898,-0.8516 -7.1406,-1.5508 -10.7812,-0.1406 -3.0078,1.164 -6.1797,1.0312 -9.3594,1.1875 -2.6172,0.125 -7.1992,-1.9024 -7.3086,3.8047 -0.031,1.3203 -1.3594,1.6601 -2.3789,1.3984 -6.2695,-1.6289 -12.3711,1.0586 -18.7695,0.5313 -5.1133,-0.4219 -10.0938,-2.6055 -15.4531,-1.586 -2.9571,0.5625 -1.6602,-3.4805 -3.8594,-4.8398 -2.0781,1.5937 -4.3008,3.3242 -6.5703,4.9922 -0.8907,0.6445 -1.8086,0.8398 -2.75,-0.125 -3.3477,-3.3829 -7.25,-3.6172 -11.9102,-0.8477 -1.4687,0.8711 -3.0586,0.4375 -4.6484,0.3789 -4.0899,-0.1562 -8.1719,-1.9922 -12.3008,0.055 -1.3906,0.6914 -2.5313,-0.09 -3.0195,-1.5938 -0.5,-1.5468 -1.1797,-1.789 -2.8907,-1.2226 -5.7578,1.8906 -7.5,1.082 -10.5781,-3.9922 -0.3906,-0.6523 -1.0508,-1.1562 -1.6406,-1.6719 -0.1602,-0.1367 -0.5117,-0.055 -0.7813,-0.074 -1,1.0234 0.051,1.875 0.2618,2.7891 0.2304,1.0312 0.5585,2.0429 -0.3907,3.4804 -0.6406,0.07 -1.6406,0.2696 -2.6406,0.2774 -6.8711,0.043 -13.7305,-2.336 -20.6406,0.289 -1.5313,0.5821 -4.6289,0.4297 -5.2578,-0.5351 -5.1328,-7.7539 -12.9922,-1.1406 -19.0625,-3.8125 -0.9493,-0.4219 -2.9297,0.3398 -4.5274,-0.01 -3.25,-0.7071 -6.7031,-1.9453 -8.9922,1.9375 -8.25,-1.1641 -15.6992,5.664 -24.75,1.5117 -3.8007,-1.7461 -9.3007,-1.0352 -13.7382,-3.2266 0,-2.3867 4.2304,-1.4804 3.457,-4.5117 -2.4883,-0.9805 -5.3281,-0.6367 -5.5078,2.1328 -0.211,3.3282 -1.711,3.5742 -4.25,4.2227 -3.8008,0.9726 -8.0703,1.25 -10.4414,5.418 -0.7188,1.2695 -2.6289,1.6796 -4.3477,1.2304 -2.6406,-0.6953 -4.6523,-0.3711 -5.3125,2.875 -0.3398,1.6211 -2.0586,1.5235 -3.3086,1.4766 -4.8515,-0.1914 -9.3594,1.6992 -14.1094,2.1406 -4.4609,0.418 -8.9023,-0.9141 -13.3828,0.1524 -0.5468,-3.1836 3.3438,-1.3008 3.2032,-3.6954 -5.6329,-2.0429 -10.961,-3.0156 -17.2813,-1.0234 -7.1719,2.2656 -15.1406,1.457 -22.5586,3.4492 -1.2031,0.3281 -2.7226,0.2578 -2.9609,2.4141 4.8711,2.7617 11.8281,-5.0977 16.1484,2.8398 -3.9805,0.9571 -7.5976,1.211 -11.3086,1.1563 -15.2617,-0.2227 -30.4922,0.6679 -45.7109,1.5742 -5.0703,0.3008 -10.1485,-1.5078 -13.0703,-4.2344 -3.0586,-2.8633 -5.4805,-3.0898 -8.7891,-3 -0.8008,3.4102 4.4805,0.711 3.4414,4.1328 -4.1328,-2.5156 -9.1211,0.7032 -13.7422,-1.5898 -0.7773,-0.3945 -3.1484,2.3945 -4.789,3.7109 0.2812,-1.3125 0.3398,-2.8476 -1.0508,-3.2617 -1.0703,-0.3203 -1.7188,1.2461 -1.6406,2.0547 0.2109,1.9961 1.7812,1.0508 2.9023,0.9766"
     id="path7" />
</svg>
