<?xml version="1.0" encoding="UTF-8" standalone="no"?>
<svg
   width="800"
   height="800"
   viewBox="0 0 800 800"
   version="1.1"
   id="svg728"
   xmlns="http://www.w3.org/2000/svg"
   xmlns:svg="http://www.w3.org/2000/svg">
  <defs
     id="defs728" />
  <path
     fill-rule="evenodd"
     fill="#000000"
     fill-opacity="1"
     d="m 126.98634,682.21988 c -0.5,-0.1602 -0.9805,-0.4414 -1.4609,-0.4336 -1.1094,0.023 -3.1485,-0.062 -2.1211,1.582 0.7695,1.2305 2.6328,0.2266 3.582,-1.1484 m 156.25777,24.7031 c -0.3008,-0.4258 -0.6797,-1.4726 -1.1094,-1.5 -1.1601,-0.066 -1.8398,0.9141 -1.75,1.9844 0.051,0.582 0.7305,1.4648 1.2696,1.5859 1.3398,0.3047 1.5898,-0.7421 1.5898,-2.0703 m 395.9492,-16.7773 c -0.2773,-0.3047 -0.5586,-0.6094 -0.8398,-0.9141 -0.3086,0.6914 -0.6992,1.3594 -0.918,2.0821 -0.1797,0.5937 0.2383,0.9804 0.8399,0.7421 0.8203,-0.3242 0.9492,-1.1093 0.9179,-1.9101 M 100.85354,179.20818 c -0.2891,-0.3945 -0.5664,-1.1133 -0.886695,-1.1289 -1.4219,-0.074 -1.6328,1.0351 -1.5821,2.1054 0.02,0.4532 0.5586,1.3008 0.6524,1.2735 1.066395,-0.3281 1.656195,-1.1367 1.816395,-2.25 m 7.582,315.4336 c -1.1601,0.086 -2.1797,0.3164 -2.5703,1.4531 -0.3516,1.0352 0.3984,1.418 1.2188,1.4688 1.4101,0.086 2.6718,-0.4024 2.8828,-1.9336 0.1172,-0.8907 -0.9024,-0.9454 -1.5313,-0.9883 m 602.28907,-136.8516 c -0.098,-1.25 -0.9883,-1.7148 -2.0196,-1.7109 -0.6484,0 -1.8398,0.4023 -1.871,0.7148 -0.1602,1.5781 1.1601,1.918 2.3515,2.1211 0.7813,0.1289 1.3594,-0.3008 1.5391,-1.125 m -606.91017,26.2344 c 1.1914,1.5039 2.3516,2.9844 4.5313,1.7969 0.5781,-0.3125 0.6289,-0.7969 0.3008,-1.3672 -1.4102,-2.4297 -3.1719,-0.5742 -4.8321,-0.4297 m 432.01957,329.0586 c -0.2383,-0.9414 -0.2969,-2.2656 -1.8086,-1.7774 -0.5196,0.168 -1.1407,1.2422 -1.0313,1.7696 0.1094,0.582 0.9297,1.2656 1.5625,1.4609 1.0274,0.3086 1.207,-0.5898 1.2774,-1.4531 m -145.6094,-612.3515 c -0.02,1.1836 0.5625,1.9102 1.6914,2.211 1.168,0.3125 1.3281,-0.668 1.418,-1.3243 0.2109,-1.3515 0.031,-2.707003 -1.8282,-2.535103 -0.789,0.07 -1.2695,0.7773 -1.2812,1.648403 m 292.5,580.3788 c 0.3398,-1.3281 -0.6094,-1.3867 -1.2696,-1.3906 -1.5117,-0.016 -2.2812,1.0547 -2.4296,2.3594 -0.082,0.5937 0.5312,1.8164 0.8711,1.8242 1.8671,0.051 2.3593,-1.5078 2.8281,-2.793 m -284.0391,14.9961 c 0,-1.7695 -1.332,-2.0469 -2.6406,-2.2383 -0.8086,-0.1211 -1.7578,0.25 -1.7578,1.043 -0.023,1.8633 1.1094,2.8242 3,2.7344 0.8984,-0.043 1.3164,-0.668 1.3984,-1.5391 m 171.1289,7.5352 c -1.6875,2.039 -0.8594,3.664 -0.1797,5.2734 0.3203,0.7539 0.8399,1.1992 1.711,0.6758 0.8398,-2.1094 0.5078,-3.9805 -1.5313,-5.9492 m -30.7187,-564.2695 c -0.5703,-0.3476 0.078,-2.1132 -1.6602,-1.4218 -1.0508,0.4179 -1.3711,1.375 -1.0703,2.4453 0.2617,0.9687 0.6484,2.1758 1.8711,1.7851 1.0508,-0.332 0.5898,-1.664 0.8594,-2.8086 m -233.8008,561.2656 c -0.918,0.4804 -1.75,1.5664 -1.7813,3.2265 -0.027,1.2696 0.7227,1.9727 1.8321,1.543 1.5586,-0.5937 2.0976,-2.1094 2.1289,-3.6602 0.02,-0.7851 -0.6797,-1.2265 -2.1797,-1.1093 m 215.75,-573.8046 c 2.0391,-2.082 1.3594,-3.3516 0.8594,-4.4258 -0.5196,-1.1094 0.1015,-3.0547 -2.4375,-3.3437 0.4765,2.5585 0.01,5.0312 1.5781,7.7695 m 10.3008,15.5117 c 2.1406,-4.1055 4.8593,-6.3008 2.9492,-10.5469 -2.2813,2.9844 -3.1992,5.7266 -2.9492,10.5469 m -79.2696,-16.1562 c -1.3828,1.9765 -3.1093,3.8515 -0.4296,5.9882 0.6796,0.5391 1.457,0.2344 1.9687,-0.4023 2.0508,-2.5274 0.5586,-4.0938 -1.5391,-5.5859 M 86.744145,620.00898 c 6.082,2.789 6.082,2.789 9.4609,-0.8477 z M 407.63471,140.61058 c 1.7188,-3.0312 3.8321,-4.7812 2.3203,-7.6484 -0.2617,-0.4922 -1.75,-0.9414 -1.8203,-0.8438 -1.4492,2.1641 -2.4687,4.4493 -0.5,8.4922 m 260.5703,561.0468 c -2.621,1.793 -1.1992,4.8086 -3.039,6.4688 -1.2227,1.0937 -2.1602,2.3945 -0.6016,3.871 0.5117,0.4805 1.4727,0.8985 2.1016,0.7618 1.8398,-0.4063 3.4492,-1.4532 3.5195,-3.5352 0.078,-2.5117 0.5899,-5.2109 -1.9805,-7.5664 M 103.78714,428.66908 c 3.6679,0.2969 7.2969,1.6406 10.8672,0.1094 0.9492,-0.4063 2.1015,-0.8906 1.9922,-2.1523 -0.1524,-1.6875 -2.1797,-2.3086 -2.8594,-1.9805 -3.211,1.5234 -7.1836,0.9258 -10,4.0234 m 207.59757,-316.453 c -1.7578,0.3555 -3.0586,0.7344 -3.1093,1.8086 -0.211,5.2226 -0.1914,10.4609 1.6992,15.457 0.3008,0.7891 1.1914,1.1172 1.9492,0.6953 0.6328,-0.3593 1.6328,-1.2343 1.5195,-1.5703 -1.1172,-3.4531 1,-6.5703 0.8828,-9.8672 -0.09,-2.6953 -1.789,-4.6172 -2.9414,-6.5234 m 344.0391,54.9491 c -1.4375,-0.2617 -1.9688,-3.6172 -4.1484,-1.2461 -0.2696,0.2969 -0.4688,1.0703 -0.2813,1.3086 1.3008,1.7188 2.6211,0.078 3.9414,-0.1015 0.25,-0.035 0.5,-0.1172 0.7383,-0.1797 0.012,1.6484 -0.75,3.7265 2.1016,3.789 0.789,0.02 1.6211,-0.2461 1.6289,-1.0703 0.019,-2.1562 -1.8985,-1.8672 -3.2188,-2.2969 -0.2422,-0.078 -0.4687,-0.1718 -0.7617,-0.2031 m 58.4297,329.4844 c -3.8281,4.7461 -4.7695,10.5 -5.2188,16.2578 -0.3906,5.0898 -1.6093,10.8711 5.5,12.4766 -0.8984,3.3906 -4.2812,1.5429 -5.25,3.789 -0.019,0.8164 0.461,1.3907 1.1993,1.7539 2.8007,1.3868 6.3398,-0.6836 9.3515,2.168 -2.9922,1.3125 -5.7109,2.5234 -8.4414,3.6914 -2.6484,1.1367 -1.418,3.6914 -0.7187,4.5469 1.7812,2.1484 7.0586,2.5664 2.7812,7.1523 -0.07,0.078 1.7383,1.3125 3.0274,1.5469 7.8007,1.4258 15.8906,1.7266 22.9101,6.1328 1.7813,1.1172 3.3125,1.6367 3.043,4.5547 -0.1836,2 3.9375,2.4844 4.2383,6.1094 -6.2188,-2.5352 -10,4.4609 -15.9414,3.4453 -0.2383,-0.039 -0.9102,0.7344 -0.8594,1.043 0.1289,0.7304 0.4023,1.5976 0.9101,2.0742 1.7618,1.625 3.4024,0.2461 5.1094,-0.3516 3.9727,-1.3867 7.8516,-3.3359 12.2422,-2.7422 1.8203,0.2461 4.0508,0.6446 3.8398,3.0821 -0.1992,2.2265 -2.1601,1.7148 -3.7304,1.5117 -0.7813,-0.1016 -1.5899,-0.125 -2.3711,-0.039 -1.3985,0.1563 -2.6094,0.7227 -2.8399,2.2852 -0.1797,1.2461 0.75,2.0508 1.7422,2.2851 6.0586,1.4414 4.0781,4.0586 1.1094,6.9063 -1.1914,1.1445 -2.3906,2.6992 -1.6406,4.1992 1.9609,3.9492 -1.3008,8.1719 0.9297,11.9648 0.289,0.4961 0.6015,0.8282 0.039,1.2852 -3.0586,2.4922 -5.9297,5.3281 -9.3203,7.2539 -1.457,0.8359 -4.7187,0.543 -5.9101,-0.5703 -3.0899,-2.8867 -4.9493,-0.4766 -6.6875,1.0859 -1.543,1.3711 -2.4727,3.3047 -4.711,3.9805 -5.6914,1.7227 -11.332,3.6055 -17.332,5.5312 2.7109,8.0625 8.6719,4.1172 13.6719,4.1055 -4.4805,3.6914 -7.6407,9.2188 -14.711,7.9024 -1.8086,-0.336 -2.6679,0.8203 -2.5976,2.9257 0.1289,3.5977 0.3398,7.2813 -3,10.0313 -0.7813,0.6445 -0.6914,2.4453 -0.8633,3.7344 -1.5781,12.1328 -2.3477,24.207 -8.1289,35.6836 -2.6992,5.3671 -4.2383,10.8437 -9.1289,15.0039 -2.6602,2.2656 -3.7305,6.2734 -4.7305,9.8593 -0.6016,2.1641 -1.6484,3.8789 -4.1094,4.293 -2.75,0.4609 -4.4023,-0.1289 -4.9492,-3.3594 -0.6328,-3.6875 2,-7.2461 -0.1328,-11.3242 -3.0898,1.7422 -2.707,8.0586 -8.0703,6.6133 l 0.1015,0.051 c -3.621,-3.7656 -7.7382,-1.0156 -11.6406,-0.8086 -0.9297,0.047 -1.8281,0.8086 -2.7383,1.2461 -2.4023,-7.2071 -11.082,-0.4492 -14.3906,-6.5469 -1.0586,-1.957 -4.2109,-1.3047 -6.4609,0.2617 -1.8086,1.2656 -3.461,0.9649 -4.2188,-1.5039 -0.6992,-2.2344 -0.6992,-3.8008 2.3594,-3.1094 1.4102,0.3204 1.8906,-0.4414 1.9609,-1.6679 0.059,-1.0782 -0.1211,-1.9532 -1.2109,-2.6172 -4.5898,-2.8008 -7.5508,-1.6172 -9.3516,3.4687 -1.5781,4.4844 -3.3398,8.9297 -5.3984,13.2071 -1.0312,2.1406 -2.2187,4.8398 -6.2812,4.3711 1.3398,-3.836 4.0117,-6.4883 4.5312,-10.1719 0.5313,-3.8047 -0.8711,-6.711 -3,-9.4141 -1.3008,-1.6484 -3.4883,-1.7461 -4.9414,-0.4336 -1.2695,1.1446 0.2305,2.043 1.1211,3.0547 1.5391,1.7735 0.6992,3.9727 0.1484,5.9727 -0.3164,1.1523 -2.0195,1.8593 -1.039,3.457 1.0625,1.7188 1.7617,3.5469 -0.8477,4.4609 -2.4726,0.8672 -4.75,0.6602 -5.9297,-2.2109 5.1992,-3.5898 5.1992,-3.5898 2.1367,-10.9609 -2.3984,3.75 -3.7695,7.1093 -1.9101,11.1406 -3.1172,0.5625 -1.2774,4.4648 -3.7774,5.4805 -1.7109,-0.7618 -0.3203,-2.9532 -2.1914,-4.293 -2.9804,5.9414 -4.5898,12.9375 -11.6211,17.3828 -0.2773,-4.8047 4.7813,-7.4336 1.6329,-11.5547 -3.1602,0.9375 -4.1602,3.4961 -5.0899,6.2735 -0.832,2.4609 -2.8203,3.2617 -5.0625,2.0625 -2.2891,-1.2188 -0.9492,-3.293 -0.4101,-4.8946 0.4921,-1.4687 1.2421,-3.0312 2.332,-4.082 2.75,-2.6445 4.4805,-4.9063 0.3594,-7.9609 -1.8711,-1.3907 3.8398,-5.4688 -1.0313,-5.6875 -2.668,-0.1172 -1.2383,4.3515 -2.25,6.6093 -0.8086,1.7813 -2.1601,0.918 -3.1406,1.4532 -5.5391,3.0312 -10.4102,6.3554 -10.6875,13.8125 -0.1406,3.5859 -2.4219,6.9335 -4.3203,10.121 -5.8789,-3.039 -7.5,-6.9921 -6.2188,-15.4648 -1.8398,-0.039 -3.6601,-0.1094 -5.4726,-0.1055 -1.3789,0 -2.3594,0.418 -3.0196,1.918 -1.6601,3.707 -1.7695,3.6563 -5.7695,1.7148 -2.3594,0.7969 -1.5391,3.129 -2.2812,4.7071 -2.7071,5.8203 -2.6993,6.0508 -9.8086,5.4804 -2.7305,-0.2187 -4.3321,2.043 -6.5508,1.9922 -1.6289,-0.035 -4,0.4219 -4.9297,-1.6445 -0.9297,-2.0859 1.3086,-2.2734 2.2891,-3.3281 3.4101,-3.6602 1.5117,-7.8985 1.1015,-12.1172 -1,5.8164 -4.1406,10.2656 -7.5,14.6133 -3.0195,3.9218 -3.7187,4.2812 -8.1914,1.289 -2.3281,-1.5664 -5.2187,-0.539 -7.4297,-2.4687 1.6094,-2.918 4.7813,-1.6055 6.9922,-2.6953 1.6992,-0.8477 2.7188,-2.2149 0.8086,-3.5235 -4.0195,-2.7656 -2.8906,-6.4257 -2.0195,-9.9687 0.3789,-1.5274 0.3008,-2.6328 -0.9805,-3.3711 -1.6211,-0.9492 -3.0898,-0.3867 -4.0508,1.1328 -1.3476,2.1367 -2.6094,4.043 -2.5976,7.043 0.027,4.4218 -1.8203,5.3164 -6.2032,4.5664 -0.7695,-0.1328 -1.5781,-0.8438 -2.2265,-0.6914 -5.4414,1.2695 -7.1211,-1.4844 -6.5508,-6.6758 -1.2305,0.4648 -2.2227,0.5273 -2.5625,1.0312 -0.9805,1.4297 -1.4375,3.793 -3.8672,2.3672 -3.0625,-1.7968 2.1602,-2.5351 0.2695,-4.7734 -2.332,1.3008 -5.1523,-0.5977 -7.9414,0.6562 -0.9882,0.4454 -1.8711,0.3282 -2.8984,-0.3554 -5.8828,-3.8711 -5.9102,-3.8282 -10.9023,-0.1094 -0.5704,0.4219 -0.9571,1.1953 -1.9688,0.8672 -1.2695,-2.543 0.9883,-6.0664 -1.6406,-8.125 -3.2813,-2.5742 -7.5,0.3711 -11.1094,-1.293 -0.2891,-0.1328 -1.2187,0.7891 -1.6484,1.3672 -3.1602,4.2383 -5.6914,0.9219 -7.3516,-1.1641 -1.1016,-1.3632 -2.3711,-2.7148 -3.4102,-4.1875 -0.9804,-1.4062 -2.7695,-1.2461 -4.3281,-1.4882 -2.1406,-0.3282 -2.1406,4.832 -3.6523,2.3906 -2,-3.2188 -3.8477,-0.7383 -5.4492,-0.8789 -6.7891,-0.5977 -7.0391,-0.2305 -9.1719,5.8008 -0.4297,1.2382 -0.5469,2.5898 -0.8789,3.8671 -0.3789,1.4961 -0.6094,3.7774 -2.5781,3.2813 -2.3829,-0.5938 -0.4922,-2.5 -0.4102,-3.8945 0.1289,-2.3164 -0.012,-4.6524 -0.031,-6.8164 -2.5585,-1.4688 -3.6679,0.6406 -5.1992,1.4218 -3.2812,1.6914 -6.2109,3.4844 -9.6093,-0.4765 -1.8516,-2.1641 -3.8711,-0.961 -3.6915,2.1992 0.2618,4.6406 -0.7109,8.8164 -3.7695,12.5469 -3.4297,4.1797 -12.1719,6.3593 -16.4219,3.5273 -2.5898,-1.7266 -1.957,-5.2344 -3.4492,-7.75 -3.7578,1.0664 0.6289,4.3516 -1.5898,5.793 -4.4375,-7.4063 -5.4297,-7.75 -13.9688,-4.9336 0.2383,-1.4727 3.0977,-3.1836 -0.2422,-4.3438 -4.1875,-1.457 -7.6601,-4.1836 -11.6367,-6.2656 -1.8906,2.2266 -3.3515,4.6055 -2.8906,7.7344 0.2187,1.4375 -0.5625,3.5976 1.6875,3.7578 1.3711,0.1016 3.3203,-0.3477 3.082,-2.6602 -0.1601,-1.6445 0.3711,-2.7578 2.168,-2.0625 1.1211,0.4375 0.9531,1.5977 0.5898,2.6954 -0.4882,1.4921 -0.6796,3.0898 -1.1875,4.5742 -0.9101,2.6484 -1.9414,4.9336 -5.6718,3.4218 -1.5703,-0.6328 -3.5703,-1.4882 -5.711,0.6954 -0.6367,-3.9258 0.1524,-6.9102 0.8828,-9.8555 0.25,-0.9961 2.5782,-1.6016 0.6485,-2.9609 -1.1992,-0.8438 -2.6211,-0.504 -3.6602,0.4843 -5.5195,5.25 -10.9297,2.4727 -17.1406,1.0039 -5.1367,-1.2148 -9.7969,-0.7109 -10.1367,-7.5156 -5.6524,-0.457 -9.25,-7.7422 -16.1328,-4.7031 -1.0078,2.1172 -0.7188,5.4844 0.1914,6.4609 3.2187,3.4336 -0.2891,5.5313 -1.6211,6.0313 -1.8008,0.6718 -3.5313,-1.5703 -4.0391,-3.7891 -0.2305,-1.0078 -0.07,-2.1367 -1.0312,-2.875 -5.8477,-0.1719 -3.0703,5.9492 -6.0782,8.4727 -3.1328,2.6289 -7.9804,1.5898 -9.6718,6.8789 -3.168,-7.2578 -8.8672,-6.0938 -14.0782,-6.5625 -0.5312,-0.2735 -0.6992,-0.8203 -0.1718,-1.0508 1.9804,-0.8516 3.2422,-2.4375 2.1797,-4.2813 -1.0469,-1.8086 -3.6797,-1.2617 -5.0977,-0.7226 -1.832,0.6953 -3.293,2.5312 -4.7109,4.0664 -2.4297,2.625 -4.9297,3.832 -8.3594,1.6953 -2.4219,-1.5078 -5.1797,-0.793 -7.7617,-0.4258 -1.5,0.2149 -2.2305,4.0664 -4.211,1.5196 -1.5976,-2.0547 1.8008,-2.754 2.3203,-4.2852 0.8008,-2.3672 1.8204,-4.8711 0.9219,-7.5 -4.1719,0.5039 -1.0586,4.2617 -3.2812,5.8633 -1.7188,-3.6016 -4.5391,-4.6524 -8.4805,-4.4766 -8.1484,0.3672 -15.2969,-3.0586 -22.168,-7.0664 -0.3203,-0.1875 -0.6015,-0.6523 -0.6797,-1.0312 -0.789,-3.6211 -0.7695,-3.6407 -3.9101,-3.8399 -1.8399,-0.1172 -3.6914,-0.2812 -5.53127,-0.2148 -2.5078,0.094 -5.1289,0.6054 -3.8203,-3.5 0.3906,-1.2071 -0.5703,-2.1641 -1.6484,-2.2383 -2.5899,-0.1797 -4.4922,-0.668 -5.0899,-3.8125 -0.2812,-1.4961 -2.9492,-1.1563 -3.1015,-0.1524 -0.8477,5.586 -5.2696,4.8047 -8.5391,4.4961 -11.039,-1.0429 -21.5508,-4.1054 -33.011695,-10.6132 4.261705,-0.4258 5.800805,-3.5977 9.101595,-1.8204 2.4609,1.3243 4.6406,3.7422 8.5117,2.3282 -2.1133,-4.3399 -6.0938,-5.1875 -9.9531,-6.4024 -7.738295,-2.4297 -15.457095,-4.9258 -23.078195,-7.6992 -1.9804,-0.7187 -4.6914,-1.5234 -4.4609,-5.4492 3.7695,0.625 6.8398,4.168 11.7305,2.6601 -4.9688,-2.4609 -9.6719,-4.2968 -10.9102,-9.7226 -0.09,-0.3906 -0.7383,-0.9063 -1.1602,-0.9375 -7.6796,-0.543 -9.1015,-8.2774 -13.8085,-12.2344 -3.7032,-3.1015 -2.0704,-7.3281 1.8984,-9.9609 5.3594,-3.5508 11.7617,-3.8125 18.8203,-6.3985 -4.5,-2.0351 -7.7695,-0.6562 -10.8086,-0.3906 -2.582,0.2266 -4.5625,0.062 -6.582,-1.5937 -4.7305,-3.8672 -4.1211,-4.9141 0.07,-9.2383 2.9101,-3.0117 9.1484,-2.1367 9.332,-8.1836 0.02,-0.832 1.7774,-0.7383 2.7891,-1.0117 5.0703,-1.3789 10.1094,-2.8399 15.1992,-4.1485 1.7305,-0.4453 7.289105,0.3672 4.5508,-5.2382 -0.5,-1.0352 2.0586,-2.0586 3.121105,-3.1172 3.72649,-3.6993 7.42969,-7.6446 4.45699,-13.6133 -0.8984,-1.8086 -1.168,-3.4492 0.5508,-4.9961 3.3984,-3.0547 0.6797,-4.457 -1.7109,-5.7656 -7.238295,-3.9766 -12.980495,-9.6407 -18.058595,-16.0274 -0.9688,-1.2187 -1.7813,-2.6367 -2.3516,-4.0937 -1.6094,-4.2071 -0.9297,-5.8907 3.1328,-8.2032 2.0391,-1.164 4.1289,-2.2265 6.2305,-3.3515 -0.3438,-0.2695 -0.6406,-0.6797 -1.0313,-0.7813 -2.8906,-0.7734 -6.8515,0.043 -7.7422,-3.9922 -0.9882,-4.5156 3.043,-6.0703 5.961,-7.2929 5.8008,-2.4219 11.589805,-5.0391 18.249995,-4.7266 6.9492,0.3281 12.5625,-3.9023 18.4297,-6.8125 2.1797,-1.082 1.1601,-4.0898 0.2695,-7.1875 -2.6484,2.6641 -4.9688,4.8399 -7.1094,7.1797 -4.0703,4.4414 -5.4804,4.3008 -8.1992,-1.0508 -0.4805,-0.9375 -0.7383,-2.0117 -1.3398,-2.8476 -1.5704,-2.1446 -3.2618,-2.8555 -4.5508,0.2304 -0.6094,1.4453 -0.8008,3.5313 -2.8594,3.125 -2.64059,-0.5234 -5.980495,-0.1406 -7.480495,-3.0078 -1.25,-2.4062 -3.039,-4.3945 -5.4492,-3.4961 -5.0312,1.8711 -8.5898,-1.7968 -12.8594,-2.6172 -3.7109,-0.7109 -3.4804,-5.1679 -6.2109,-7.3632 -3.1289,-2.5274 -7.0312,0.7148 -9.4805,-2.5313 -1.7578,-2.3281 -3.9414,-4.3711 -5.4492,-6.832 -2.25,-3.6719 -0.4101,-8.0039 3.918,-8.1992 4.1211,-0.1875 7.7734,-2.8047 12.0703,-1.793 1.0898,0.2617 2.6406,-0.5899 2.5117,-2.3594 -0.1015,-1.4101 -1.3711,-1.3047 -2.3086,-1.6836 -1.7929,-0.7344 -3.6211,-0.2851 -5.4336,-0.3828 -3.3398,-0.1836 -6.9375,1.1172 -10.2383,-1.4336 1.4102,-6.3125 6.7696,-7.6836 11.8516,-8.6015 8.8594,-1.6055 17.8281,-2.6133 26.7578,-3.754 2.6289,-0.3359 5.281305,-0.3554 7.171895,-2.6484 -0.26169,-3.3047 -2.882795,-5.1523 -4.921895,-6.9766 -2.3281,-2.0703 -3.2773,-4.2382 -3.8594,-7.1953 -0.9101,-4.7265 3.5899,-3.6132 5.2305,-5.5117 0.668,-0.7812 1.550805,-1.3906 2.269505,-2.0195 -0.2109,-0.6602 -0.3007,-1.1289 -0.5117,-1.5352 -1.128905,-2.1445 -5.878905,-1.1445 -4.699205,-5.1953 0.8203,-2.8476 7.011695,-6.4765 10.492195,-5.5859 2.6289,0.6719 4.5586,0.5703 6.5195,-1.1367 2.2188,-1.9258 4.25,-3.6485 1.8399,-7.0313 -1.3907,-1.9531 -0.3789,-4.6914 -0.8008,-7.0078 -0.4805,-2.6875 0.3906,-6.3867 -3.418,-7.293 -3.3125,-0.789 2.2188,-3.7031 -1.4726,-4.5078 -3.4688,-0.7539 -7.11719,-0.9961 -10.128895,0 -8.0508,2.668 -14.6289,-1.0976 -20.8321,-4.5781 -2.8593,-1.6016 -8.4492,-1.2149 -8.457,-6.8399 0,-0.09 -1.4219,-0.3554 -2.1211,-0.246 -4.8398,0.746 -6.1406,-3.0079 -8.1406,-6.0821 -1.6406,-2.5117 -0.1602,-3.5742 1.7812,-3.9531 8.3203,-1.6211 16.1407,-5.7227 24.9688,-4.8555 1.789,0.1797 2.8906,-1.2656 2.6719,-3.1601 -0.2305,-1.9805 -1.9102,-2.9375 -3.4219,-2.375 -7.0899,2.6406 -14.6602,0.539 -21.7891,2.414 -1.3515,0.3555 -2.8515,0.09 -3.4609,-1.2382 -0.7188,-1.5469 0.7695,-2.2969 1.8203,-2.9375 1.1094,-0.6836 2.3594,-1.4454 3.6094,-1.5704 13.4297,-1.3554 26.1328,-6.3554 39.531195,-7.7461 2,-0.207 3.8516,-0.3515 4.418,-2.4882 0.7305,-2.7735 -1.5,-4.3711 -3.4492,-4.336 -5.73049,0.086 -4.98049,-6.1797 -8.839895,-8.3984 -3.3984,-1.9492 -6.2304,-6.2969 -7.6289,-10.8047 -0.6211,-1.9844 -1.0586,-3.875 0.8086,-4.9219 3.5508,-1.9961 3.2813,-3.6367 0.9024,-6.6836 -2.4922,-3.1992 -1.1915,-6.2773 2.6289,-8.2304 1.1679,-0.5977 2.5195,-0.8164 3.7695,-1.2774 0.9609,-0.3515 1.8906,-0.8125 3.769505,-1.6289 -2.527305,-2.9219 -3.789005,-6.6992 -7.539005,-1.539 -0.6914,0.9531 -1.8985,1.1289 -1.7891,-0.6797 0.2773,-4.3164 -3.5703,-3.7227 -5.582,-3.9844 -7.7696,-1.0117 -13.1289,-6.1406 -18.9297,-10.4102 -1.1797,-0.8672 -1.711,-2.4179 -3.6094,-2.1406 -2.4805,0.3594 -5.0312,-1.0898 -4.5312,-3.0898 0.6523,-2.5899 1.4609,-5.8789 5.5,-6.5118 6.5898,-1.0312 6.5507,-1.289 7.3007,-8.2187 -3.4297,0.375 -6.6914,1.2266 -9.9101,2.3594 -0.918,0.3203 -2.1992,-0.086 -2.7188,-1.1133 -0.6015,-1.1875 0.1094,-2.0469 1.2696,-2.3711 2.539,-0.7148 3.9296,-4.8359 4.4179,-4.6406 5.9414,2.3945 7.9414,-4.1797 12.4414,-5.1953 4.8907,-1.1016 9.7813,-2.0469 14.6993,-2.9414 2.8515,-0.5157 5.621,-1.4922 8.960905,-2.4141 -0.8399,-3.5274 -0.7578,-7.1133 -0.9492,-10.6641 -0.371105,-6.8672 -2.152405,-8.6523 -8.839905,-10.2265 -4.8593,-1.1446 -9.0898,-3.8164 -12.9218,-6.6719 -3.2071,-2.3984 -7.75,-2.8477 -9.75,-7.4336 -1.2071,-2.7539 -1.6407,-3.9766 0.9531,-5.7461 4.8867,-3.332 4.457,-6.4727 -1.1836,-9.6719 3.5312,-3.4336 8.2617,-3.8086 12.4805,-3.7461 3.7304,0.055 7.1914,-3.1093 11.4414,-0.2656 1.4101,0.9336 5.2617,-3.1172 4.4492,-6.1328 -1.5313,-5.6758 2.3203,-11.0625 -0.168,-16.9727 -1.0625,-2.5039 3.296905,-6.3164 1.4297,-10.207 -0.062,-0.1211 0.6094,-0.7812 1.0195,-0.8984 0.800805,-0.2266 1.828205,0 1.949205,0.8359 0.629,4.1953 4.10939,7.9219 1.99999,12.5859 -1.53119,3.3907 0.5508,6.6993 0.07,10.1954 3.1484,-0.9063 4.3984,-2.4961 4.3281,-5.6211 -0.25,-11.5977 0.9023,-23.1993 -0.098,-34.8085 -0.332,-3.8555 -1.0312,-7.8594 3.3711,-10.5352 2.0469,-1.25 1.9492,-4.2617 2.6289,-6.4922 0.7383,-2.3984 1.6211,-4.2929 4.3086,-5.2031 0.4297,3.8047 -2.3398,6.6797 -2.0703,10.1523 0.1016,1.3516 0.3203,2.6797 2.1406,2.6915 1.1289,0 2.1289,-0.4258 2.5313,-1.5079 0.5508,-1.4843 1.039,-3.0117 1.3203,-4.5664 0.9102,-4.9765 2.4102,-9.1836 8.6406,-9.4218 2.4492,-0.09 2.5469,-3.1993 4.2383,-4.3946 1.3086,-0.9218 2.8281,-1.7968 4.3281,-0.4883 1.2735,1.0977 0.7032,2.5391 -0.1797,3.504 -1.9375,2.1328 -1.2695,4.3906 -0.7265,6.7343 0.2773,1.211 0.9883,1.9063 2.1484,1.8711 1.0703,-0.031 2,-0.5469 2.2891,-1.7773 0.6211,-2.6641 -0.07,-5.9805 3.539,-7.3985 2.2618,4.8047 -1.3671,9.8946 1.5508,15.6758 0.6992,-5.3867 1.3399,-9.8242 7.03127,-10.625 1.6484,-0.2304 1.7578,-2.3789 1.9297,-4.0117 0.289,-2.8594 0.7187,-5.707 1.1796,-9.1914 4.75,2.6641 6.7305,6.8789 7.9493,10.75 1.0625,0.9453 1.4492,0.832 1.8711,0.25 2.0703,-2.8945 1.2109,-8.3906 5.5,-8.9023 5.3711,-0.6407 11,-0.7579 16.4101,1.0468 2.7891,0.9219 3.3516,2.9961 4.0391,5.3321 1.5508,5.1601 5.9101,6.2578 9.7812,2.5117 1.1289,-1.0899 1.9883,-2.5 3.2383,-3.418 0.8906,-0.6601 1.9727,-0.043 2.7617,0.793 0.918,0.9648 0.8985,2.3476 0.02,2.7773 -7.8399,3.8164 -2.9805,8.9571 -2,13.8242 7.0195,-2.3125 4.8398,-10.7461 11.1679,-15.2148 -2.2695,9.4531 -1.707,17.4844 0.25,25.5586 0.4336,-2.9844 1.0117,-5.957 1.2422,-8.957 0.2305,-2.8008 1.0899,-5.5547 3.1797,-7.0625 3.9883,-2.8711 4.4297,-6.8907 4.9414,-11.1172 0.207,-1.8047 -0.2226,-3.8242 1.1172,-5.3399 0.8203,-0.9297 2.293,-2.1445 2.8711,-0.098 1.3398,4.7226 6.6601,7.6406 5.2109,13.6914 3.1797,-1.1602 3.2383,-3.461 3.7578,-5.375 1.211,-4.3906 3.7618,-6.2578 8.5508,-6.4961 4.5899,-0.2305 9.3008,1.5664 13.7813,-0.5703 1.3711,-0.6563 0.9687,0.5078 1.2187,1.0468 1.0899,2.3907 2.4219,4.6993 3.25,7.1758 1.2813,3.8516 2.6094,6.1211 6.0196,1.543 0.4726,-0.6328 2.3906,-1.332 2.4804,0.1602 0.2696,4.6406 6.3516,6.5898 4.5196,12.1054 3.9414,-0.5586 3.4218,-3.5039 4.2304,-5.4258 1.4414,-3.4062 3.0508,-6.0898 7.5703,-4.4961 3.961,1.3985 7.0508,-1.8867 10.6602,-2.4804 0.8789,-0.1446 1.6484,-0.2461 1.1211,-1.3633 -3.2227,-6.707 2.8711,-7.7148 6.3281,-10.2305 2.5,-1.8125 6.2305,-0.9531 8.4024,-4.6679 0.039,3.6054 -0.1719,6.2421 1.8281,8.1679 1.1015,0.25 1.6719,-0.332 2.082,-0.9687 3.5,-5.4063 3.4805,-5.3321 9.8399,-3.8008 2.289,0.5547 4.5195,1.3906 7,1.3203 2.5468,-0.074 5.1679,1.5508 5.25,3.8164 0.1171,3.5977 3.6406,5.3516 3.6484,8.9024 0,2.7148 1.4101,4.5703 4.7109,2.9453 1.6211,-0.8008 1.3008,1.0273 1.8711,1.6914 1.8477,2.1679 3.7696,1.664 3.3164,-0.9922 -0.8593,-5.0703 2.6836,-3.8711 5.1602,-4.3828 l -0.1797,-0.086 c 1.6602,5.7227 0.5898,12.2266 5.043,17.5508 2.6875,-2.8515 2.6172,-6.1523 2.6992,-9.5859 0.1875,-8.4492 0.3594,-16.918 2.0781,-25.25 0.1094,-0.5156 0.082,-1.0703 0.2422,-1.5664 1.0977,-3.418003 1.0898,-8.394603 4.8203,-9.257803 4.6289,-1.0743 2.7969,5.3632 5.7188,7.1132 3.4101,-0.5351 4.2304,-3.0195 5.2617,-5.9804 1.6094,-4.6758 3.3281,-4.9649 7.6679,-2.2617 1.1485,0.7109 2.3711,0.9921 3.629,1.3867 3.3828,1.0625 4.0507,6.3086 1.2109,8.664 -0.2813,0.230503 -0.8984,0.1211 -1.3399,0.066 -3.4179,-0.414 -4.7617,0.843803 -3.7109,3.519603 0.1016,0.2422 0.1914,0.5429 0.3906,0.6797 7.0196,4.8632 9.3203,12.0937 9.7305,20.3476 2.1094,-5.8867 -0.7305,-11.5429 0.2188,-17.3984 5.9101,5.5078 5.4023,10.793 5.3828,25.6836 0.3672,0.2851 0.707,0.7656 1.1093,0.8242 10.2305,1.418 9.3594,1.1484 10.5977,-9.1367 2,-16.5625 1.2617,-33.734403 9.0703,-49.289103 1.0313,-2.0625 1.6602,-4.5508 1.6797,-6.8476 0.051,-6.1016 7.2812,-8.6016 6.5625,-15.3008 3.2578,1.2734 5.9375,2.25 8.5508,3.3515 1.5781,0.668 3.0195,2.1368 1.9883,3.6524 -3.6797,5.4219 0.7382,8.7226 2.8906,12.6289 -1.7891,-1.1484 -3.75,-1.3359 -4.6914,0.6914 -0.7891,1.7344 -1.9688,3.7578 -0.1602,5.8672 1.7813,2.0742 3.1914,-1.625 5.3399,0.3984 -3.7188,1.9727 -1.7578,6.6211 -3.4883,8.6406 -3.2891,3.836 -0.25,5.6172 0.9375,8.4805 3.043,-3.4492 2.082,-9.1484 7.0312,-11.1094 0.7696,-0.3007 0.5391,-1.5273 -0.039,-2.0234 -3.4024,-2.957 -3.0586,-7.6211 -5.1719,-11.1523 1.5625,-2.3594 2.9102,-4.8008 2.2617,-7.8829 2.4492,0.4102 2.8594,1.1485 2.1914,2.8282 -1.1328,2.8633 1.0899,4.9687 2.8985,5.8398 7.6211,3.668 10.2187,10.4336 12.039,17.8828 -1.6679,1.7032 -2.9609,-0.1718 -4.1875,-0.6679 -2.2422,-0.8985 -2.4531,0.6328 -3.4531,1.8632 -1.207,1.4883 -1.8477,2.9766 -0.1289,3.8789 3.3516,1.7696 3.3711,5.925803 6.1797,7.890703 1.5312,1.0703 1.0508,2.1797 0.5625,3.3984 -1.1406,2.793 1.1484,3.1133 2.7695,3.6055 1.957,0.5937 3.25,-0.9414 3.3789,-2.4414 0.3086,-3.9532 1.418,-7.2071 5.7578,-9.179703 1.4727,2.414003 0.7735,6.562503 5.7032,6.757803 3.1875,0.1289 -0.9727,4.3164 1.5078,5.9844 0.3593,0.062 0.8398,0.2383 1.3007,0.2148 4.7891,-0.2305 6.0899,-5.0976 9.5118,-7.1523 3.7773,3.5195 7.6484,2.1445 11.5078,0.1718 3.0625,-1.5664 6.1406,0.5391 9.3203,-0.051 1.4805,-0.2774 1.9219,1.4726 1.1914,3.4765 -1.2109,3.3399 -0.8516,3.5 2.8477,2.3477 0.8007,-0.2461 1.5312,-0.4649 2.1523,0.1055 0.7187,0.6523 0.4883,1.3007 -0.1914,1.9414 -3.4102,3.1718 0.051,5.9257 1.5391,7.2461 3.4101,3.0312 5.3398,6.9882 8.2617,10.5039 6.0781,-1.1133 3.1601,-7.5391 6.2812,-10.3321 0.418,1.3672 0.9571,2.9336 1.3594,4.5391 0.6289,2.5703 0.3477,4.6367 -2.793,5.418 -1.2695,0.3164 -1.2773,1.4961 -0.6172,2.5937 0.6407,2.6211 -2.2617,5.1016 -0.5195,8.5195 2.8672,-3.2773 0.957,-5.9531 0.5274,-8.5781 3.6328,1.4727 2.0312,6.4375 5.1914,8.2227 1.9414,-1 2.3398,-2.9219 1.6914,-4.0742 -2.3203,-4.0977 0.3789,-7.4727 1.0898,-11.129 0.207,-1.1015 0.3984,-1.6875 1.9492,-1.2382 2.9297,0.8515 4.918,0.6757 3.0586,-3.4532 -0.5703,-1.2695 3.1797,-1.5273 3.1406,-4.4453 -5.4414,1.6836 -7.1796,-4.9258 -12.2109,-4.7695 6.4024,-3.0586 12.9024,-5.293 15.0899,-12.843803 0.621,-2.1171 1.8906,-3.6835 4.6914,-3.0351 5,1.1601 7.8711,-1.8203 10.1484,-5.6875 0.5312,-0.9024 0.7227,-2.2852 1.4805,-2.7227 3.0312,-1.7343 7.1328,1.8868 8.5898,0.4375 2.2227,-2.2148 3.2422,-5.3711 7.2227,-4.5547 2.3398,0.4805 4.6289,0.8868 7.0468,0.4102 1.3516,-0.2695 2.4414,0.8008 3.6524,1.2617 4.2578,1.6367 2.0898,8.3047 6.5586,8.961 4.4804,0.6601 6.2304,3.6484 8.0508,6.777303 3.6601,6.2891 5.2304,13.4648 6,20.4414 0.7617,6.9297 3.6015,13.2031 4.5,20.0234 0.3711,2.7852 1.6484,5.2617 0.9804,8.3867 -0.6992,3.2578 2.0196,5.7773 3.668,8.4726 -0.1484,2.1016 -3.207,0.1094 -3.2969,2.3321 0.75,2.0976 4.918,2.6757 7.8477,1.1015 9.8125,-5.2812 20.2617,-5.9922 31.0117,-4.1484 3.0195,0.5195 3,0.6797 6.1602,4.1523 -0.1719,2.875 -3,1.0196 -4.25,2.3906 -3.0625,3.3321 -2.75,6.543 1.4687,8.6602 1.7891,0.9023 1.5508,4.7813 5.0391,3.2422 0.7812,-0.3438 0.8515,0.8711 0.4492,1.5781 -2.9297,5.1016 0.5312,5.6992 4,4.9297 4.0625,-0.8984 7.1015,1.4922 10.6601,2.0625 1.1914,0.1914 1.4922,0.9375 1.8321,2.0898 1.4804,5.1446 1.5586,5.1211 7.8086,4.3008 -0.3203,-2.4414 -4,-1.7031 -4.0977,-4.8203 0,-1.6445 2.8867,-0.5703 3.2891,-2.4648 0.09,-0.4727 6.039,1.7773 5.789,2.1797 -2.0195,3.1757 0.9219,6.2851 -0.019,9.4492 -1.3711,4.5586 -4.4609,6.9726 -9.8789,7.2656 -1.3008,0.066 -2.6523,-0.5508 -3.9102,-0.3672 -2.7109,0.3828 -4.4492,1.7461 -3.4492,4.8711 5.5196,17.2891 5.6797,35.3633 7.9102,53.1445 0.6484,5.2149 0.9883,10.3829 1,15.6016 0.01,3.8125 1.3164,6.0313 5.6484,5.582 7.1406,-0.7382 13.3086,2.8516 19.8789,4.6641 2.3125,0.6367 3.1992,2.5352 4.4297,4.2695 2.1016,2.9883 0.8828,5.0782 -1.8594,6.2461 -2.1211,0.9102 -4.5586,1.0469 -5.9687,3.6133 1.9687,3.7305 6.3086,3.4609 9.3476,5.1992 2.2227,1.2735 2.543,2.4414 1.9297,4.3008 -1.0078,3.0273 -2.1484,6.9219 -5.0976,7.6328 -3.4297,0.8281 -0.8203,6.5781 -5.2813,5.3281 -4.3008,-1.207 -4.9804,3.1641 -6.9883,4.9454 -2.1601,1.9257 -4.5312,3.5781 -6.8007,5.289 -1.9297,1.4492 -4.0899,2.4492 -4.5,5.1406 l 0.02,-0.012 c -2.6797,4.5547 -1.6992,10.3047 2.6211,10.9688 4.9297,0.7617 4.2305,5.4414 6.918,7.6601 1.3515,1.1094 0.3515,3.7422 -1.9375,5.168 -2.1407,1.3437 -4.5625,1.0352 -6.75,1.9453 -0.7813,2.1836 1.7773,3.0234 1.8671,4.8867 0.1602,2.9688 1.1914,4.6563 4.8829,4.6328 2.4687,-0.016 5.0585,1.8789 4.8085,5.2188 -0.2304,3.2539 0.9415,6.0547 3.379,9.293 -6.7774,0.4414 -11.4102,-1.7735 -15.7891,-5.7657 1.3789,3.7891 -0.6094,7.9766 2.3789,11.3008 3.6016,4.0235 7.8008,7.3985 12.9102,9 2.9804,0.9336 5.2421,2.0469 7.0898,5.4883 -4.4492,0.4492 -5.957,5.2031 -10.5781,5.5117 -2.3086,0.1563 -1.4805,2.1016 -0.3008,3.4688 1.6094,1.8593 3.8789,1.414 5.8906,1.7734 2.3711,0.4258 -1.0586,4.2734 2.3203,3.7813 1.4102,-0.2071 2.6407,-2.0743 4.6094,0.016 -1.6719,3.2031 -3.8008,6.4336 -4.5508,10.2851 -0.2695,1.4141 -1.4297,3.2305 -2.6679,3.7891 -6.0625,2.7305 -9.211,7.0078 -9.4102,13.8359 -0.062,2.2266 -2.6797,-0.289 -4.5,1.0469 6.668,3.4844 4.6797,11.4375 8.9883,16.2813 -2.961,1.8046 -7.668,-1.0235 -9.8399,4.1992 3.9102,0.5625 8.3789,-0.1641 10.3711,4.4062 0.5508,1.25 1.5703,2.8164 0.6797,3.6133 -4.4101,3.9336 -2.082,9.3477 -3.3789,13.9297 -0.3516,1.2422 -0.1016,2.707 -2,2.8203 -1.3828,0.2656 -2.6328,-2.457 -4.043,-0.1758 -0.457,0.7383 -0.078,1.6563 0.6524,1.9883 2.0508,0.9414 2.6797,-0.7266 3.4375,-2.0742"
     id="path251" />
</svg>
