<?xml version="1.0" encoding="UTF-8" standalone="no"?>
<svg
   width="800"
   height="800"
   viewBox="0 0 800 800"
   version="1.1"
   id="svg728"
   sodipodi:docname="brush.svg"
   inkscape:version="1.4.2 (f4327f4, 2025-05-13)"
   inkscape:export-filename="brush.svg"
   inkscape:export-xdpi="96"
   inkscape:export-ydpi="96"
   xmlns:inkscape="http://www.inkscape.org/namespaces/inkscape"
   xmlns:sodipodi="http://sodipodi.sourceforge.net/DTD/sodipodi-0.dtd"
   xmlns="http://www.w3.org/2000/svg"
   xmlns:svg="http://www.w3.org/2000/svg">
  <defs
     id="defs728" />
  <sodipodi:namedview
     id="namedview728"
     pagecolor="#ffffff"
     bordercolor="#000000"
     borderopacity="0.25"
     inkscape:showpageshadow="2"
     inkscape:pageopacity="0.0"
     inkscape:pagecheckerboard="0"
     inkscape:deskcolor="#d1d1d1"
     inkscape:zoom="0.20822611"
     inkscape:cx="2353.2111"
     inkscape:cy="669.9448"
     inkscape:window-width="1920"
     inkscape:window-height="991"
     inkscape:window-x="-9"
     inkscape:window-y="-9"
     inkscape:window-maximized="1"
     inkscape:current-layer="svg728">
    <inkscape:page
       x="0"
       y="0"
       width="800"
       height="800"
       id="page2"
       margin="0"
       bleed="0" />
  </sodipodi:namedview>
  <path
     fill-rule="evenodd"
     fill="#000000"
     fill-opacity="1"
     d="m 575.03333,92.677925 c -0.0423,-1.2579 -0.79081,-1.753 -1.66908,-1.8374 -1.20232,-0.1136 -2.15509,0.5538 -2.2977,1.9438 -0.0747,0.7592 0.75514,0.9755 1.35141,1.0122 1.00462,0.055 2.1487,0.3741 2.61537,-1.1186 m -99.71645,-17.4057 c -2.75467,-1.9914 -5.0362,-0.7042 -7.34362,-0.037 2.27506,0.1394 4.482,1.8778 7.34362,0.037 m -206.09257,12.4217 c 0.36621,-0.5245 1.79212,0.4217 1.55882,-1.269 -0.0747,-0.5794 -0.67086,-1.3496 -1.17644,-1.5366 -1.03706,-0.3778 -1.52638,0.6198 -1.7435,1.5476 -0.23985,1.0159 0.54765,1.0709 1.36112,1.258 M 694.52508,328.41112 c -0.008,2.9743 1.12135,4.2066 2.85515,4.8154 0.19123,0.066 0.80376,-0.5244 0.82964,-0.8545 0.1588,-2.4866 -1.59449,-3.0147 -3.68479,-3.9609 M 145.56484,93.074025 c 0.66437,0.7042 1.46158,0.9682 2.3561,0.9206 1.08891,-0.048 2.20695,-0.066 2.82918,-1.2873 0.15879,-0.3191 0.10048,-1.0232 -0.10694,-1.3313 -1.01109,-1.533 -2.28153,-0.7995 -3.50003,-0.3777 -0.91394,0.3117 -1.38708,1.0525 -1.57831,2.0757 m 349.57934,-16.6172 h -6.78626 c 2.00933,0.2164 3.86633,1.8594 5.96632,1.0709 0.1588,-0.059 0.25604,-0.3118 0.81994,-1.0709 M 740.33061,538.18242 c -2.288,-0.3191 -4.27135,-3.3154 -7.54132,-0.7225 2.76438,1.9621 5.15932,1.2653 7.54132,0.7225 M 608.43308,98.182825 c 4.43015,3.201695 4.43015,3.201695 7.31773,-1.5513 -2.67047,2.2811 -4.70244,-0.4585 -7.31773,1.5513 m 24.68198,5.651495 c 3.68479,1.6431 7.23668,4.225 12.15623,2.4866 -4.15793,-3.7555 -8.52976,-0.4584 -12.15623,-2.4866 M 85.490047,595.20042 c 1.85044,2.6369 4.22273,2.4315 6.56258,2.0464 1.21203,-0.2054 1.76947,-1.3973 1.56853,-2.7139 -0.19115,-1.2103 -1.12773,-1.2029 -1.99953,-0.9756 -1.99961,0.5245 -4.00561,1.0709 -6.13158,1.6431 M 459.59574,78.745325 c -2.00924,-2.0355 -3.04629,-3.2091 -4.20656,-4.2139 -0.63194,-0.5465 -1.41944,-1.2506 -2.29123,-0.4805 -0.94306,0.8362 -1.01118,2.1052 -1.00139,3.3154 0,1.39 1.02727,1.3239 1.83104,1.3606 1.47776,0.066 2.96208,0.018 5.66814,0.018 m 168.79092,24.806695 c -2.33006,-4.074595 -5.83341,-3.4915 -8.87656,-4.140595 -0.76476,-0.1687 -1.24447,0.3301 -1.49402,1.041595 -0.41483,1.1552 0.15888,1.9327 1.05332,2.2444 2.8875,1.0123 5.81723,1.6614 9.31726,0.8546 m 83.40544,79.8772 c -0.57361,-1.9034 -1.669,-1.8007 -2.92973,-0.9572 -0.12312,0.084 -0.19115,0.4988 -0.12312,0.6785 0.66114,1.577 1.68202,0.8068 2.62832,0.4694 0.19115,-0.077 0.36621,-0.2457 0.54118,-0.3778 0.93659,2.4132 2.55373,1.5954 4.22929,1.192 -1.28662,-1.7824 -2.6542,-2.3069 -4.34594,-1.0049 M 118.02123,96.433025 c 2.39817,0.4914 5.39271,2.7323 5.84967,-2.5416 0.19771,-2.3105 1.88289,-2.2811 3.36074,-2.7799 6.77647,-2.2812 13.84472,-2.0941 20.7638,-3.0807 16.96884,-2.3948 34.0414,-3.6968 51.16589,-3.6894 4.27135,0 8.52005,-0.4034 12.81737,0.6675 2.87779,0.7334 5.60982,-2.3289 8.79557,-1.5037 1.00139,0.2531 2.84537,-0.7958 3.14354,-0.3191 3.3672,5.3802 8.21226,1.9364 12.27943,2.8826 0.90415,0.2091 1.99962,0.4695 2.37876,-0.4767 1.96718,-4.8447 5.9825,-3.7372 9.16826,-3.6161 11.45949,0.4144 22.78284,-1.8778 34.22292,-1.8484 3.66853,0 7.19453,0.3667 11.3849,1.2286 -3.07226,3.9425 -6.85428,3.341 -11.04466,3.8031 6.60482,1.7091 12.95028,1.4377 20.76713,-1.0049 -3.05285,-0.3667 -4.26496,-2.9669 -6.6955,-1.2872 -0.87179,0.6014 -1.70144,-0.1504 -1.76624,-1.3423 -0.068,-1.0526 0.33054,-2.0465 1.3676,-2.1418 5.8237,-0.5245 11.64749,-0.9829 17.69801,-1.4817 -0.47314,4.3863 -3.67832,4.0012 -5.64226,5.0611 0.53156,2.4132 1.88297,2.1785 3.17606,2.1308 3.94082,-0.1504 7.88164,-0.2897 11.82246,-0.4328 2.67362,-0.084 5.17882,-0.092 6.94505,2.9964 1.3028,2.2811 4.01533,1.4816 5.99868,2.4608 2.12274,1.0489 3.70105,-0.4694 3.60059,-2.7139 -0.21712,-4.6467 1.61067,-3.099 3.85652,-2.2738 3.71724,1.3606 7.29509,-0.2714 10.8697,-1.379 4.21303,-1.3166 4.22273,-1.2689 7.59964,2.3289 0.46344,-1.8521 0.89453,-3.5391 1.40003,-5.5489 -2.91023,-1.8227 -7.79735,2.2995 -9.62191,-4.2066 5.51583,-0.084 10.90853,-4.1222 15.94473,1.3533 -0.93011,1.4927 -2.81947,1.1626 -3.02041,3.0587 0.25926,0.319 0.45697,0.8178 0.78103,0.9388 2.07412,0.7995 4.06394,0.8656 6.35526,0.4328 6.32929,-1.2029 12.75258,-2.8276 19.20499,-0.6308 0.41482,0.143 1.06294,0.3961 1.27035,0.1907 3.91494,-4.1039 9.2007,-1.0452 14.61929,-3.6271 -5.35056,-2.1491 -9.80021,-0.3448 -14.104,-0.7225 -4.33938,-0.3741 -8.72746,0.7335 -13.09929,-0.2347 0.21389,-2.6369 1.90562,-2.5232 3.38339,-2.7213 5.40888,-0.7225 10.81137,-2.2445 16.27858,-0.7041 2.17135,0.6088 3.63293,-1.5587 5.66491,-1.5294 2.84543,0.044 5.71676,-0.396 8.28999,1.3973 0.65467,3.022 -3.21165,2.4132 -2.97179,5.4939 1.75005,1.6137 4.29732,2.6186 6.39732,1.6027 6.50434,-3.1174 11.39146,-1.2286 15.53969,6.1026 2.16488,-8.3728 7.98858,-7.4999 13.54655,-7.7713 -3.06903,-3.8032 -3.15979,-4.1149 -5.98897,-3.0037 -2.58941,1.0123 -4.72841,-0.6014 -7.09414,-0.6491 -1.144,-0.018 -1.40974,-1.0416 -1.36112,-2.0648 0.0515,-1.2396 0.96248,-1.3716 1.84398,-1.5513 3.05931,-0.6198 6.11216,0.018 9.15855,0.048 7.83302,0.084 15.58822,-0.3191 23.49583,0.5244 5.31812,0.5758 11.23259,-0.6931 16.90729,-0.8728 6.56258,-0.2054 13.07664,1.3532 19.67166,0.6308 1.64311,-0.1798 4.0057,-0.3778 2.43061,3.1246 -1.06294,2.3765 0.53148,3.1651 2.0903,3.5501 1.22829,0.3118 2.5052,-0.4401 3.83388,0.3851 2.8033,1.7457 3.70753,0.4328 2.98482,-2.7872 -0.21388,-0.9683 -0.68703,-1.9365 0.29171,-2.6223 1.26064,-0.8728 1.74997,0.3778 2.62176,1.1186 3.6492,3.044 5.29223,8.2261 9.48261,10.742 4.45612,2.6736 4.87741,2.7689 7.89135,-1.8227 4.20332,-6.4218 9.32382,-6.1577 12.63269,1.0232 0.81347,1.764 2.15833,1.3056 2.33985,1.0892 2.65745,-3.2384 4.91956,-2.7323 7.2853,0.4511 0.43108,0.5905 1.68526,0.2824 2.38855,-0.5061 l -0.13291,-0.1687 c 2.9718,2.3288 5.88203,4.665 9.03535,0.1687 1.03059,-1.4743 3.02041,-1.8888 4.2487,-1.0342 5.7395,3.9425 12.34423,2.2261 18.44993,3.8215 4.65706,1.2102 9.39185,2.2444 14.08781,3.363 9.4242,2.2408 18.88417,4.335 28.36678,6.2127 2.20694,0.4328 4.388,0.9755 6.24824,2.123395 2.74496,1.6908 5.41543,3.1651 8.62707,2.9927 0.92033,-0.044 1.89259,0.3301 1.71762,1.5587 -0.24956,1.6907 -1.91532,0.5538 -2.81309,1.5403 0.70653,2.4792 3.52601,2.3472 4.57932,4.555 0.72918,1.511 2.20047,2.5819 3.89221,2.2335 1.59126,-0.3374 1.50049,-3.9792 4.00561,-2.7873 1.238,-3.3814 -2.00608,-2.2151 -2.79358,-3.5501 6.05385,-0.5721 6.4622,-0.2824 6.55296,4.676 0.0489,3.231 0.29809,3.8105 2.0255,4.7494 0.75506,0.4144 9.89743,2.6772 10.93449,2.4608 1.45189,-0.2897 2.50512,0.6748 3.73341,1.1186 5.19176,1.8484 9.97841,5.0501 15.58823,5.5855 2.2232,0.2164 4.40426,2.0355 5.3182,4.0562 1.95738,4.2726 4.87741,6.0257 8.81823,6.5061 0.81339,0.1027 1.68518,0.6858 1.52639,2.5452 -5.24362,-0.4804 -10.99283,-6.1686 -15.72114,1.0489 0.81994,2.0575 2.63155,1.3423 4.01532,1.8044 2.19732,0.7225 4.93581,0.3668 4.9617,4.544 0.008,1.8117 2.07411,2.4132 3.54217,2.8349 1.64312,0.4695 3.36074,0.6015 5.12697,0.9022 -2.91994,5.0611 -2.91994,5.0611 2.45658,6.8362 l -0.14908,-0.2091 c -2.29771,3.5318 -2.29771,3.5318 1.8667,5.5599 -3.26997,0.5061 -5.83996,2.6296 -9.9979,2.2885 4.56305,3.9058 9.08396,2.9486 13.7961,4.0379 -2.77731,3.3337 -6.5464,2.0097 -9.63169,4.5073 4.11587,3.1173 8.04044,6.121 11.99752,9.0586 0.91061,0.6785 1.98982,1.0819 2.91023,1.7567 0.77456,0.5648 1.238,1.4633 0.79074,2.5342 -0.30141,0.7152 -0.95601,0.9132 -1.63657,0.8289 -3.73341,-0.4988 -7.39231,1.2946 -11.13219,0.4034 -1.77594,-0.4254 -3.4612,-0.4438 -5.22744,1.764 8.721,2.1968 16.84249,5.4939 24.93801,8.8716 2.03521,0.8472 4.08344,1.6724 6.14785,2.4242 1.33515,0.4768 1.78565,1.3606 1.0305,2.7029 -0.56382,1.0049 -1.51991,0.9462 -2.30741,0.3484 -0.713,-0.5464 -1.20232,-1.4853 -1.9315,-1.9731 -1.89267,-1.2396 -3.8274,-2.5929 -6.25802,-1.0892 -0.22359,3.22 2.57323,3.6821 4.00885,5.1088 2.10009,2.0721 1.87318,3.5391 0.19124,5.5012 -1.7338,2.0171 -3.63618,3.473 -6.27421,3.6234 -1.66576,0.1027 -3.54865,-0.7225 -5.23391,1.2689 2.38201,1.9621 5.10101,0.4475 7.45711,1.247 1.00462,0.33 2.37553,0.264 2.5408,1.775 0.13938,1.2873 -0.7227,2.2629 -1.55883,3.1174 -1.92502,1.9914 -4.48207,1.8667 -6.77978,2.6112 -1.669,0.5428 -3.53571,0.4878 -5.09453,1.2653 -1.66577,0.8252 -5.15941,0.5464 -4.5112,3.099 0.68703,2.7212 0.19771,6.5904 3.26673,8.2151 1.03059,0.5538 3.06256,-0.121 2.41435,2.3471 -0.41482,1.5954 -0.89444,3.1357 -2.53755,4.0746 -1.68518,0.9682 -5.37644,-1.2763 -4.91948,2.846 0.28839,2.5708 3.35095,1.4449 5.13345,2.0831 7.50888,2.6845 15.00814,5.3508 22.68236,7.4742 4.0413,1.1149 6.05709,6.1577 9.70944,7.6797 -0.243,2.3948 -1.56206,3.2934 -2.28153,3.1724 -4.32321,-0.6932 -7.31125,3.2383 -9.152,5.6442 -2.5797,3.3594 -5.26957,4.3532 -10.16317,4.731 6.07974,4.1699 11.16779,3.6051 16.02902,3.7555 0.46344,-0.9389 0.32406,-1.3057 -0.17505,-1.6064 -1.36112,-0.8435 -4.26488,0.084 -3.74311,-2.8899 0.48293,-2.7323 2.84867,-1.5147 4.48207,-1.2396 2.15509,0.374 4.3135,0.8545 6.42976,1.4633 2.08059,0.5904 3.7496,1.6907 2.81948,4.6943 h 0.068 c -2.06757,3.088 2.56999,4.2249 1.54911,7.775 -0.89444,3.1064 -4.32968,2.6663 -4.44632,5.8496 -0.0324,0.9572 -0.76161,1.8961 -0.72926,2.835 0.40511,12.8067 -7.89782,18.8324 -15.43914,25.4155 -0.82964,0.7298 -2.15841,0.7114 -3.02049,1.4156 -2.86162,2.3582 -6.42976,-2.2885 -9.60574,1.9731 -1.88611,2.5232 -6.24823,0.9755 -9.50202,0.8802 -3.30888,-0.092 -6.65982,-0.3448 -9.20717,2.5929 -2.26527,2.6112 -3.98288,-0.4695 -5.95653,-0.5171 -0.98852,1.0342 -0.94638,2.1307 -0.39217,3.3704 1.41297,3.1833 0.77132,4.8813 -1.91533,5.1564 l -3.61676,2.8349 c -1.387,2.824 -3.12735,4.9291 -6.32282,3.5208 -1.04353,-0.4511 -2.03196,-0.9205 -3.22781,-0.3557 -0.54766,2.1564 1.05323,2.2041 2.15841,2.5342 2.27181,0.6748 4.56305,0.7115 6.3876,3.1723 1.70145,2.2922 4.61168,0.5171 6.91909,0.7225 1.83435,0.1687 4.81261,-1.1736 4.20656,-5.0684 -0.058,-0.3851 0.87179,-1.4083 1.27691,-1.3606 1.95746,0.1943 3.92464,0.5244 5.8237,1.0782 2.50844,0.7225 2.72232,2.7212 2.08391,5.2591 -0.38247,1.511 0.58008,2.2408 1.85044,2.2885 1.28661,0.059 2.56353,0.011 5.49965,0.011 -3.51621,1.2763 -5.56768,2.0281 -5.79774,4.9841 -0.0747,0.9205 -0.44079,2.3105 -1.03058,2.6185 -4.54689,2.3766 -3.73341,6.9756 -3.24409,10.9291 0.29818,2.3765 0.0356,3.7298 -1.51021,5.0721 -0.84582,0.7298 -1.96394,1.3313 -2.13244,2.6919 -0.58656,4.7713 -3.74959,6.9315 -6.98396,9.099 -2.04815,1.3716 -4.30703,2.6295 -4.48848,6.6197 4.33939,0.7042 9.02565,-0.2714 13.15762,3.0037 3.55196,2.8056 9.03543,2.0757 11.83225,7.7933 -2.88111,0.7702 -5.99229,-1.4193 -7.95623,1.4083 -2.60558,3.7372 -3.26025,8.6075 -5.26958,12.7114 -0.72262,1.4927 0.16536,1.6137 0.94638,1.8594 1.857,0.5831 2.63803,3.4841 5.06856,2.901 0.87826,-0.1981 2.27182,0.5831 1.70791,1.4266 -3.19215,4.8264 1.15379,3.5868 2.71585,4.5623 1.3417,0.8362 4.79311,0.4695 1.64958,3.8325 -0.0843,0.084 0.35642,1.1076 0.46344,1.0893 6.73756,-1.1296 1.17959,5.9046 3.85977,7.5476 0.25603,0.1577 -0.70653,1.5 -1.16997,1.1186 -3.58432,-2.978 -3.22782,0.5318 -3.74312,2.7689 -1.37729,6.055 -3.10146,11.7249 -9.03534,14.2334 -1.11156,0.4694 -2.71253,1.5843 -3.11118,3.9902 5.1205,2.2812 9.24276,6.4107 13.64056,9.9608 -1.00462,5.0318 -3.4515,7.2102 -7.85568,5.8496 -2.95561,-0.9132 -3.61029,2.7763 -5.37005,3.4254 -2.39495,0.8839 -4.239,2.2078 -6.53671,3.9352 3.99915,2.8349 7.64179,4.0269 11.58909,1.9034 0.30788,-2.2995 -2.02226,-1.1993 -2.02226,-3.1723 2.27181,-1.1736 4.47884,-2.6296 6.98396,0.048 0.74867,0.8068 1.84405,1.4559 2.86161,1.6613 2.53109,0.5061 5.5613,-0.084 7.428,1.8227 1.53286,1.566 -0.43108,5.3508 2.33985,7.1736 1.23468,0.8068 0.36297,2.8606 -0.44079,2.9743 -4.72186,0.6748 -3.21812,4.874 -3.71724,7.896 -0.52175,3.165 1.84082,6.0367 0.72271,9.3887 -0.36621,1.0782 0.69683,2.4425 1.64958,3.0037 4.06726,2.4058 6.13159,7.0598 9.21688,10.5366 1.83427,2.0647 2.64773,4.61 6.00847,3.8471 2.28152,-0.5171 1.76623,2.3472 1.97364,3.8399 0.29171,2.1051 -1.0792,2.3471 -2.53108,2.1418 -5.91447,-0.8656 -11.82894,0.037 -18.01884,0.5244 4.01532,2.0941 7.95614,4.3936 12.07848,6.121 1.06295,0.4438 3.61668,2.0024 4.05747,-1.9328 0.21712,-1.9327 2.28154,-0.5427 3.31212,-0.198 4.81908,1.643 7.63855,5.9523 10.46127,10.2542 -3.47739,3.4364 -7.29177,0.3741 -10.76915,1.0122 -0.19124,0.5722 -0.55744,1.1919 -0.43108,1.3607 4.15479,5.7835 4.15479,5.7762 -1.92504,8.7982 -0.62223,0.3007 -0.98843,0.9389 -0.90414,1.9071 1.77594,2.5342 4.66353,-0.5465 6.95153,1.8484 -0.55421,3.0439 -2.72879,3.6821 -5.12697,3.9168 -2.78064,0.2787 -3.06904,1.5477 -2.12273,4.478 1.29308,4.0378 1.00138,4.1589 3.78202,6.308 -4.61168,-0.9205 -7.15247,1.6357 -9.06778,5.7286 -0.89768,1.9254 -2.40466,3.5574 -3.83389,5.0684 -2.19724,2.3472 -5.58385,3.8398 -4.16441,8.4425 -2.24909,0.9389 -3.28615,2.6075 -2.79682,5.4242 0.094,0.5171 -0.69673,1.1662 0.0257,1.8044 0.87179,0.7774 3.68487,-2.3472 2.81308,1.5586 -0.41482,1.8594 -2.382,3.6051 -4.14823,2.8643 -3.80153,-1.588 -5.59365,2.4865 -8.50388,3.2384 -0.38247,0.1026 -0.69682,0.5721 -1.04676,0.8801 -0.81348,0.7225 -0.995,1.6174 -0.34033,2.5269 0.49912,0.6932 1.13753,0.3191 1.75976,0.037 4.48847,-2.0354 4.49826,-2.0354 10.90206,-1.0415 -4.00886,1.7457 -6.84459,3.5501 -10.30579,3.7848 -5.68108,0.3851 -5.78155,1.0782 -3.84681,7.0415 0.76161,2.3362 2.39494,3.2384 3.70752,5.0208 -2.28154,2.4425 -4.82879,0.9022 -7.40203,0.8178 -0.81994,4.1222 -1.575,8.1784 -2.48893,12.187 -0.0747,0.319 -1.144,0.3557 -2.36259,0.6931 3.69135,3.5025 8.02102,4.9511 11.20678,8.2921 0.53148,0.5538 2.14862,-0.2347 1.8926,1.7568 -0.19125,1.4926 -0.17498,3.0696 -2.14862,2.9449 -0.62225,-0.037 -1.27044,0.2824 -1.94129,0.4511 -0.3565,2.4425 1.75976,3.2311 2.4954,4.9291 1.31259,3.033 -2.28152,2.4902 -2.19723,4.7713 2.66391,3.1907 6.09923,4.9768 10.18906,5.2959 2.91031,0.2347 4.45287,1.698 2.12273,4.6283 -1.8181,2.2885 -1.04353,4.2322 -0.0157,6.044 1.48432,2.6295 -0.058,3.4474 -1.95747,4.621 1.46814,1.3716 2.99453,2.0831 4.62794,2.3655 3.96671,0.6674 3.769,4.8814 5.10423,7.698 0.62871,1.3239 -0.67408,2.0757 -1.7922,2.3471 -1.17959,0.2714 -2.72223,-0.6271 -3.37691,1.588 0.41482,2.8717 3.81447,0.092 4.49503,3.1724 -2.81948,2.4132 -6.6113,1.6247 -9.56359,2.9009 -1.51029,2.0282 -0.12644,3.5501 0.28191,5.0795 0.49588,1.9144 0.65468,3.407 -1.41944,4.0745 -1.40982,0.4511 -2.10655,1.6614 -2.56352,3.1357 -1.7338,5.6442 -5.81724,7.0709 -10.46135,7.2286 -14.82669,0.4987 -29.52048,0.029 -44.26936,-2.758 -15.76328,-2.9853 -31.80209,-4.1332 -47.70467,-6.2163 -29.24504,-3.8288 -58.46743,-7.8484 -87.72865,-11.6148 -15.90266,-2.0355 -31.84092,-3.6528 -47.75329,-5.5856 -3.22782,-0.3851 -6.77008,-3.22 -9.49232,-0.073 -1.90885,2.2152 -3.95708,2.89 -6.22234,3.3521 -1.94776,0.4034 -3.14362,1.5 -4.05747,3.33 -2.16488,4.3863 -5.7395,5.7469 -9.9137,6.1027 -10.30246,0.8655 -20.58236,2.1528 -30.89454,2.7726 -19.75596,1.1809 -39.52494,2.5232 -59.29707,2.8606 -18.68324,0.3117 -37.35675,-0.8985 -55.46968,-7.0782 -2.11626,-0.7115 -4.66999,-0.9572 -5.79126,-3.1724 -1.96394,-3.8581 -5.25016,-4.1405 -8.41967,-4.8447 -4.3135,-0.9498 -8.69511,-1.6063 -11.41734,-6.253 -0.99491,-1.698 -2.77086,-1.3423 -4.18068,-1.7457 -6.53022,-1.8594 -13.23219,-2.5562 -19.56149,-5.7579 -3.8274,-1.9328 -8.48114,0.5574 -12.88539,-0.187 -1.94129,-0.3264 -4.21635,0.3484 -6.35526,-0.4035 -0.80369,-0.2824 -1.8926,-0.4327 -2.58941,-0.037 -7.66453,4.3753 -15.39708,0.8912 -23.0972,0.3668 -3.06911,-0.2164 -6.15432,-0.6382 -9.20717,-0.4438 -9.62523,0.6015 -19.20823,0.3594 -28.81403,-0.4694 -3.88241,-0.3264 -7.89136,-0.4878 -11.71552,1.2983 -1.36112,0.6381 -3.02689,0.6674 -4.5468,0.6271 -15.33875,-0.3557 -30.6386,-1.5403 -45.8963,-3.4181 -3.15979,-0.3924 -5.79134,-1.0305 -7.1849,-5.1894 -0.83612,-2.5086 -3.39956,-4.1993 -5.946903,-5.1455 -1.58471,-0.6014 -3.3283,-1.0599 -4.1903,-3.1173 2.13891,-1.7641 3.11118,0.9755 4.63756,1.3239 1.144,0.2641 2.197233,-0.4694 2.573233,-1.7567 0.52823,-1.8117 -0.84915,-2.1198 -1.860233,-2.1674 -2.45659,-0.1027 -4.66353,-0.8729 -6.71823,-2.4132 1.01117,-3.099 4.35564,-0.2897 5.75567,-3.3704 -4.70235,0.8068 -8.37097,-2.5636 -12.69425,-2.8826 -1.88936,-0.1321 -2.67039,-1.445 -2.67686,-3.4658 -0.01,-2.0354 0.97874,-3.4731 2.62824,-3.7261 3.61676,-0.5355 7.06178,-3.1724 10.92802,-1.2396 0.56391,0.2824 1.23476,-0.2237 1.56529,-1.0049 -0.45365,-1.9988 -1.83103,-1.445 -3.11764,-1.5477 -4.5468,-0.3594 -9.21032,0.8545 -13.63085,-1.1552 -3.675,-1.6724 -3.36064,-1.4853 -1.28653,-5.2665 1.38377,-2.5159 4.67,-3.8692 3.87271,-8.0207 -0.23006,-1.2176 1.72741,-2.0061 3.13714,-1.9988 2.89729,0.029 5.58385,-0.9939 8.93488,-2.1601 -2.89406,-2.2995 -5.60011,-3.2017 -8.64326,-3.1907 -1.10509,0 -2.27497,-0.3851 -2.57315,-1.8227 -0.29817,-1.434 0.46668,-2.3655 1.61068,-2.7873 2.50512,-0.9389 0.67085,-1.8667 0.0813,-2.9486 -2.02227,-3.6968 -4.16441,-7.1993 -1.69165,-12.0073 0.92041,-1.7934 1.669,-3.3044 3.31211,-4.1222 3.41582,-1.6907 5.72324,-4.412 6.39409,-8.7322 -4.97788,-2.758 -10.03026,-5.4902 -15.01469,-8.3545 -3.72686,-2.1491 -4.33939,-4.8997 -1.43562,-8.0941 2.0644,-2.2811 3.73988,-4.797 5.7589,-7.8777 -4.06726,0.077 -8.08258,1.5147 -11.25855,-1.9217 0,0 0.13283,0.1503 0.13283,0.1503 2.12273,-5.5598 5.61637,-8.9412 11.21649,-8.5561 2.19076,0.143 3.675,-1.1626 5.62276,-2.3729 -0.96903,-2.7909 -3.05932,-2.6772 -5.01032,-3.3337 4.71214,0.4218 7.35017,-3.9059 12.10446,-5.4352 -3.55844,-2.3765 -5.76538,-5.0061 -8.86038,-6.2457 0.23986,-0.308 0.34024,-0.5721 0.52177,-0.6564 1.12135,-0.6088 2.86485,-0.5062 2.95562,-2.4022 0.0972,-1.8961 -1.48756,-2.1968 -2.70606,-2.5379 -4.04129,-1.1149 -8.10532,-2.1491 -12.14652,-3.22 -4.52747,-1.1993 -4.61168,-1.3496 -4.37838,-8.0904 2.95238,0.4291 5.85614,0.9572 8.81823,-0.5722 1.94129,-0.9975 4.28114,0.1394 6.30664,1.2653 2.58617,1.4376 3.10147,-0.8252 4.1547,-2.7396 0.54765,-0.9975 0.93012,-1.5036 0.13283,-2.2445 -0.47962,-0.4511 -1.26065,-0.4694 -1.79212,-0.8838 -0.88797,-0.6858 -1.87318,-1.379 -2.47276,-2.3472 -1.38377,-2.2041 -2.69635,-2.1968 -5.01024,-1.3973 -4.81261,1.6614 -9.78078,0.7592 -15.42304,0.084 1.7922,-4.1699 3.1695,-7.4266 4.58902,-10.6576 0.54765,-1.2396 1.89906,-2.1125 0.93659,-3.9242 -1.1635,-2.1858 0.34024,-2.5636 1.71762,-2.5526 1.29308,0.018 2.62832,0.2714 3.87279,0.6932 2.06756,0.6858 3.8922,1.0819 4.63755,-2.0171 0.60606,-2.4975 3.84359,-1.2983 4.43994,-4.0012 -1.08568,-2.9853 -4.08991,-2.4022 -5.98905,-3.9425 -1.47777,-1.203 -3.36073,-1.9805 -2.91347,-4.3276 0.53147,-2.78 3.1695,-2.2078 4.37182,-1.6431 2.51491,1.1736 3.62647,0.8252 4.87094,-1.9987 0.81994,-1.8521 3.79173,-0.7995 5.02649,-2.8826 -0.93658,-2.0941 -2.99452,-1.9621 -4.31996,-3.2201 -1.69497,-1.6173 -2.59912,-3.297 -2.17459,-5.7652 0.41482,-2.4792 1.61715,-4.0012 3.94729,-4.2359 0.87179,-0.092 1.72733,-0.5611 2.58941,-0.5428 3.11118,0.073 4.33947,-1.588 5.75891,-4.8264 1.04353,-2.3655 4.984343,2.2628 7.051993,0.2714 2.74497,-2.6479 5.28252,-2.7506 8.43584,-1.7567 1.68518,0.5171 3.42877,-0.5428 5.12697,-1.0489 6.11532,-1.8337 12.28914,-3.4364 18.63461,-1.5587 1.52638,0.4511 2.43061,-0.084 3.4612,-1.2139 1.09538,-1.1992 2.52129,-3.1613 3.60698,-3.0036 3.24408,0.4511 3.1047,-1.2836 2.64772,-3.7629 -0.27543,-1.4669 1.07921,-1.1735 1.60098,-1.775 0.72917,-0.8545 0.62223,-1.8594 0.10046,-2.7029 -0.54117,-0.8655 -1.39355,-1.269 -2.22319,-0.4254 -3.51953,3.6161 -7.295,2.6112 -11.58262,1.907 -7.26911,-1.1919 -14.45402,-2.6772 -21.66157,-4.1882 -3.51953,-0.7408 -7.39224,0.4034 -11.06085,1.0342 -2.06441,0.3558 -3.733403,-0.3007 -5.632553,-0.9572 -3.26026,-1.1369 -6.13158,-4.6943 -10.30578,-1.6173 -1.54904,1.1479 -3.35095,-2.5599 -5.56444,-3.1614 -2.69635,-0.7335 -2.60559,-2.7799 -2.29124,-5.7359 0.29818,-2.8276 -3.31858,-3.1283 -4.56305,-5.3545 -1.86671,1.7751 -0.49912,4.1039 -1.58479,5.7286 -0.34024,-0.029 -0.86201,0.1027 -1.02727,-0.121 -0.56391,-0.7519 -0.98853,-1.6247 -1.47785,-2.4426 -3.34447,-5.4938 -3.29262,-5.8862 2.77085,-6.517 1.82464,-0.1871 2.64782,-1.4707 3.91494,-2.2409 2.51482,-1.5403 4.15794,-4.3862 3.51952,-7.1845 -0.50558,-2.2151 -3.34455,-3.0036 -5.64226,-2.7139 -4.63755,0.6014 -7.54132,-1.6137 -8.59464,-6.6931 -0.34994,-1.6614 -0.90414,-2.901 -2.36573,-3.0807 -3.90847,-0.4768 -3.20841,-5.5195 -5.80753,-7.3312 -0.70329,-0.4878 -0.44726,-1.9731 0.0747,-2.7616 1.42923,-2.1492 4.21626,-0.5612 5.84967,-2.7763 2.37229,-3.1944 2.75468,2.0171 5.0265,1.643 -0.039,-4.3386 2.05794,-6.132 5.9177,-5.4462 0.53794,0.1027 1.71762,-0.6124 1.70144,-0.8728 -0.42453,-5.7763 2.75144,-3.8802 5.37321,-3.3814 0.54773,0.1137 1.41952,-0.176 1.75329,-0.6381 2.08058,-2.901 4.81908,-2.6773 7.75528,-2.7213 3.526,-0.048 4.63109,-1.8411 4.48847,-5.4278 -0.0747,-1.6614 -1.43562,-3.7922 0.0581,-4.8741 1.77603,-1.2946 3.65891,0.029 5.493183,1.7274 1.4357,-4.3643 -0.92033,-8.3728 -0.24948,-12.5684 0.53794,-3.352 -3.046383,-4.4413 -5.159403,-6.0183 -3.44494,-2.5819 -9.7905,-10.5256 -11.34932,-13.5219 -1.42915,-2.7689 -0.8815,-4.2909 1.57509,-4.9181 4.73802,-1.1919 7.9237,-6.2163 12.96646,-6.5464 0.20741,-0.01 0.56391,-0.1503 0.58979,-0.2787 1.101863,-7.3716 6.552883,-4.1149 10.146993,-5.6626 5.18529,-2.2334 10.32844,-3.7004 15.82808,-3.7738 2.39818,-0.029 4.79636,-0.095 7.19461,0 1.64959,0.055 3.06904,-0.1137 3.8922,-2.6295 -2.54078,-0.9756 -5.27928,-1.5881 -7.62561,-3.022 -4.32975,-2.6296 -8.76961,-5.3802 -8.50388,-12.3007 0.12313,-3.033 -1.68525,-4.9657 -3.68478,-6.6638 -0.67086,-0.5831 -1.51021,-1.2029 -1.16997,-2.3948 0.41482,-1.467 1.62685,-1.7567 2.6542,-1.5587 2.40797,0.4695 4.71538,0.5061 7.26912,-0.8178 -2.50512,-2.8166 -5.2598,-4.478 -8.72747,-4.2543 -4.13205,0.2641 -8.24785,-0.5538 -12.41226,0.3118 -3.04314,0.6271 -6.131583,0.2163 -7.907613,-4.9218 4.407503,1.2506 8.115023,-0.7298 11.848433,0.048 2.49865,0.5172 3.09492,-1.2396 3.85977,-2.9009 1.04353,-2.2518 0.77779,-4.533 -1.28006,-5.8203 -3.93112,-2.4425 -7.63864,-6.4144 -12.716993,-2.7139 -0.98844,0.7152 -2.59588,0.6675 -3.66853,-1.3129 1.3125,-2.7616 2.01571,-5.4279 6.364883,-4.2066 4.35564,1.2102 6.54649,-1.9364 7.2497,-8.1234 0.19123,-1.7531 3.62647,-3.2201 4.68949,-1.5294 4.46259,7.1002 9.11633,2.2262 13.7475,0.7702 l -0.13291,0.187 c 1.21858,-1.5476 1.75006,-3.396 1.98983,-5.4168 0.0843,-0.7225 0.34031,-1.4156 0.52184,-2.1198 4.81253,2.0061 4.86115,-6.6381 9.41773,-5.3985 0.81994,0.2127 1.70144,-0.8178 1.88289,-1.7934 0.19123,-1.0159 -0.47963,-1.9914 -1.24448,-2.4242 -2.6542,-1.4999 -5.79126,-2.0097 -7.70011,-5.0134 -0.19771,-0.3007 -1.00138,-0.5171 -1.20879,-0.3264 -2.77094,2.5342 -7.12011,1.5 -9.37567,5.3985 -1.22183,-1.775 -2.82279,-4.1515 -2.03198,-5.7579 1.05971,-2.1858 3.32506,-3.7738 5.3246,-5.1711 2.06764,-1.4486 5.01031,-0.9499 5.58393,-5.1198 0.53147,-3.8105 1.05323,-3.7151 -1.19585,-10.5623 -2.40465,0.1724 -5.14314,0.4805 -6.26127,3.0257 -1.47128,3.2934 -3.21164,4.7127 -6.40702,3.9902 -0.40512,-0.095 -0.97874,0.7885 -2.34641,1.9914 2.17135,-5.6259 5.14323,-9.1099 8.75991,-11.6332 3.28623,-2.2921 6.95152,-4.1882 10.52938,-5.5965 2.62831,-1.0416 5.10108,-2.2335 6.47837,-4.4706 2.68988,-4.3643 5.98259,-7.5293 10.29608,-9.0696 -0.11664,-1.2103 -0.17497,-2.1015 -0.92041,-2.2409 -9.9979,-1.8044 -18.97493,-7.4266 -28.81404,-9.8508 -1.24447,-0.308 -2.57962,-1.0232 -3.49356,-1.9987 -3.27644,-3.4731 -6.39408,-7.1369 -9.9039,-11.1087 1.59126,-1.7164 5.41543,0.385 5.28252,-3.9426 -0.0324,-1.3716 1.61068,-1.0415 2.73203,-0.7408 3.14353,0.8435 6.1802,2.4499 10.16964,2.2262 -0.9204,-2.1895 -2.19732,-2.6406 -3.55844,-3.0807 -3.58432,-1.1553 -7.16864,-2.3472 -10.72708,-3.6161 -1.88288,-0.6748 -3.95052,-1.3973 -4.26488,-4.0636 -0.47962,-3.9902 -3.12735,-4.0452 -5.77508,-4.7126 -5.856153,-1.4927 -11.637793,-3.3631 -17.464723,-5.0318 -1.88944,-0.5465 -2.34633,-1.9548 -2.09685,-3.9242 0.23985,-1.9364 1.35141,-2.4425 2.83573,-2.1528 7.01955,1.3423 13.19337,-4.2322 20.186963,-3.1357 0.63849,0.1027 1.2672,-0.3924 1.42599,-1.2396 0.22359,-1.1919 -0.38894,-1.7933 -1.28661,-2.1564 -3.807913,-1.5697 -7.807063,-0.7629 -11.705823,-1.2323 -4.14823,-0.4878 -8.33852,-0.3741 -12.5192,-0.5171 -1.75976,-0.066 -3.47738,-0.11 -5.01032,-1.4083 -2.60558,-2.2225 -2.60558,-4.6833 0.59636,-5.6772 3.85976,-1.203 4.11579,-5.4755 6.40379,-7.9437 1.78573,-1.9255 -2.27182,-3.3998 -1.16018,-6.3117 4.80291,-1.566 10.16317,-0.4878 15.22534,-2.1308 2.52777,-0.8252 4.977883,-1.8594 7.457033,-2.7873 1.2024,-0.4511 1.52646,-1.709 1.22829,-3.0513 -0.39865,-1.7934 -1.62685,-1.203 -2.64773,-1.0599 -2.851913,0.4217 -5.632563,2.4388 -8.627003,0.9278 0.0747,-2.4388 1.61715,-3.0036 2.72871,-2.8716 6.238613,0.7519 11.731703,-3.634395 17.937873,-3.087995 1.65929,0.1504 3.60058,0.2054 4.6052,-2.0281 z m 0,0"
     id="path3"
     style="stroke-width:0.88257" />
</svg>
