<?xml version="1.0" encoding="UTF-8" standalone="no"?>
<svg
   width="800"
   height="800"
   viewBox="0 0 800 800"
   version="1.1"
   id="svg728"
   sodipodi:docname="brush.svg"
   inkscape:version="1.4.2 (f4327f4, 2025-05-13)"
   inkscape:export-filename="brush-2.svg"
   inkscape:export-xdpi="96"
   inkscape:export-ydpi="96"
   xmlns:inkscape="http://www.inkscape.org/namespaces/inkscape"
   xmlns:sodipodi="http://sodipodi.sourceforge.net/DTD/sodipodi-0.dtd"
   xmlns="http://www.w3.org/2000/svg"
   xmlns:svg="http://www.w3.org/2000/svg">
  <defs
     id="defs728" />
  <sodipodi:namedview
     id="namedview728"
     pagecolor="#ffffff"
     bordercolor="#000000"
     borderopacity="0.25"
     inkscape:showpageshadow="2"
     inkscape:pageopacity="0.0"
     inkscape:pagecheckerboard="0"
     inkscape:deskcolor="#d1d1d1"
     inkscape:zoom="0.20822611"
     inkscape:cx="2353.2111"
     inkscape:cy="669.9448"
     inkscape:window-width="1920"
     inkscape:window-height="991"
     inkscape:window-x="-9"
     inkscape:window-y="-9"
     inkscape:window-maximized="1"
     inkscape:current-layer="svg728">
    <inkscape:page
       x="0"
       y="0"
       width="800"
       height="800"
       id="page2"
       margin="0"
       bleed="0" />
  </sodipodi:namedview>
  <path
     fill-rule="evenodd"
     fill="#000000"
     fill-opacity="1"
     d="m 201.01217,656.79602 c -0.8086,-0.5508 -1.375,-1.1523 -2.0625,-1.3711 -1.0312,-0.332 -1.4258,0.5508 -1.4219,1.3281 0.01,0.793 0.4727,1.6211 1.4375,1.3633 0.6836,-0.1836 1.2579,-0.7812 2.0469,-1.3203 m 410.6914,-19.582 c -1.414,0.5195 -2.0078,1.5703 -1.7695,3.0117 0.043,0.2891 0.7773,0.75 0.9961,0.668 1.3086,-0.5586 1.9648,-1.6485 1.9297,-3.0508 0,-0.2188 -0.7461,-0.418 -1.1563,-0.6289 m -428.1758,-390.1485 c 0.2188,-0.9101 -0.1992,-1.6015 -1.0429,-1.5703 -0.5977,0.031 -1.461,0.5196 -1.6875,1.0313 -0.3399,0.7578 0.2656,1.4492 1.0976,1.6094 0.8203,0.1601 1.3711,-0.293 1.6328,-1.0704 m 470.2696,110.3672 c 0.2343,-1.1172 -0.1485,-1.6797 -0.9844,-1.8476 -0.7656,-0.1602 -1.5,0.09 -1.6758,0.8984 -0.164,0.7617 0.1524,1.6094 1,1.6602 0.582,0.031 1.1953,-0.5 1.6602,-0.711 m -283.1992,-200.1562 c -0.9727,-0.4336 -1.4219,-0.8008 -1.8438,-0.7813 -0.8203,0.059 -1.4531,0.5899 -1.2773,1.4805 0.059,0.2891 0.8476,0.7383 1.1171,0.6289 0.6641,-0.25 1.2227,-0.7891 2.004,-1.3281 m 212.5312,49.4179 c -0.6016,-1.0585 -1.1172,-2.289 -2.6523,-2.0781 -0.1954,0.027 -0.4922,0.8985 -0.3868,1.2891 0.3711,1.3711 1.4883,1.9687 2.8008,1.9687 0.6133,0 0.6875,-0.6406 0.2383,-1.1797 m -402.5625,1.5508 c -0.4102,-0.582 -0.1328,-2.0312 -1.5039,-1.8125 -0.4063,0.07 -0.9609,1.1407 -0.9063,1.7032 0.086,0.9179 0.5196,2.0078 1.7891,1.8476 0.8477,-0.1094 1.0469,-0.8086 0.6211,-1.7383 m 425.1953,27.3907 c 0.3242,-0.3321 0.9063,-0.6329 0.9297,-0.9727 0.07,-0.9883 -0.1133,-2.1484 -1.0664,-2.5781 -1.0742,-0.4922 -0.9297,0.4687 -0.8555,1.1289 0.094,0.9101 -0.3008,2.0195 0.9922,2.4219 m -414.4765,71.8789 c -0.1993,-0.5508 -0.461,-1.7891 -0.6797,-1.7813 -0.9063,0.031 -0.6446,0.9414 -0.6641,1.543 -0.023,0.6562 -0.1055,1.4492 0.7773,1.6367 0.074,0.019 0.336,-0.8086 0.5665,-1.3984 m 418.1835,-132.1914 c -0.25,0.3007 -0.5117,0.6015 -0.7773,0.9101 0.7578,0.6211 1.4414,1.4024 2.3008,1.8008 0.5586,0.2617 1.6914,0.2109 0.8047,-1.0391 -0.5821,-0.8203 -1.1094,-1.7187 -2.3282,-1.6718 m -296.1289,529.6523 c -0.1211,-0.832 -0.6211,-1.4102 -1.414,-1.4922 -0.7813,-0.07 -1.5821,0.3711 -1.3516,1.2305 0.1563,0.5898 0.836,1.2617 1.4375,1.4804 0.8711,0.3204 1.2774,-0.3789 1.3281,-1.2187 m 376.7032,-177.3711 c 0.051,-0.8086 -0.1055,-1.6719 -0.9414,-1.6797 -1.2735,0 -1.1485,1.3203 -1.5,2.1289 -0.3047,0.6992 -0.2344,1.5625 0.6992,1.5508 1.1601,-0.02 1.4258,-1.1289 1.7422,-2 m -501.2305,-230.9414 c 0.055,-0.8789 -0.3047,-1.5586 -1.1992,-1.6289 -0.3828,-0.031 -1.1289,0.4101 -1.1563,0.6914 -0.074,0.7695 0.25,1.5898 1.168,1.6602 0.3789,0.027 0.793,-0.461 1.1875,-0.7227 m 49.8398,340.832 c -0.9257,-0.75 -1.414,-2.1914 -3.0586,-1.832 -0.6718,0.1523 -0.8437,0.6016 -0.5781,1.2422 0.5196,1.2695 1.1602,2.4297 2.8086,1.9375 0.3438,-0.098 0.5078,-0.7969 0.8281,-1.3477 m 123.1407,-481.7695 c -1.0391,-0.082 -1.8047,0.418 -1.3594,1.2891 0.4336,0.8515 1.3437,1.5898 2.2226,2.0312 0.6758,0.3399 1.6055,-0.1328 1.6719,-1.0312 0.1328,-1.8008 -1.3554,-1.9688 -2.5351,-2.2891 m -99.8321,477.8398 c 0.1485,0.8477 0.7461,1.1993 1.5078,1.1993 0.7735,-0.012 1.4883,-0.4102 1.5079,-1.2188 0.02,-0.9023 -0.8243,-0.9805 -1.5157,-1.043 -0.7812,-0.07 -1.3828,0.1914 -1.5,1.0625 m 112.8477,-476.2695 c 0.6601,0.6172 0.8125,0.8594 1.0273,0.9375 1.2149,0.4805 2.4766,1.1406 3.6407,-0.059 0.3164,-0.3203 0.7382,-1.0195 0.6054,-1.25 -0.9023,-1.5117 -2.25,-0.5586 -3.4218,-0.4297 -0.4766,0.051 -0.918,0.3907 -1.8516,0.8008 m -169.7969,437.168 c -0.1953,-0.3008 -0.4805,-0.9883 -0.9765,-1.4375 -0.4336,-0.4024 -0.9883,-0.1328 -1.125,0.4687 -0.2774,1.25 0.6796,1.6875 1.5429,2.1094 0.4649,0.2305 0.711,-0.1211 0.5586,-1.1406 m 490.375,-337.6289 c -0.9336,0.1992 -1.0547,0.9492 -1.0195,1.6797 0.07,1.3984 0.5898,2.5586 2.1406,2.789 0.1445,0.02 0.5703,-0.8398 0.6133,-1.3086 0.125,-1.4023 -0.2774,-2.5898 -1.7344,-3.1601 m -523.9023,98.539 c -1.0625,0.031 -1.1289,0.7422 -1.0352,1.4493 0.1211,0.9726 0.1914,2.1015 1.207,2.5312 0.7735,0.3281 1.5352,-0.2187 1.6329,-1.0391 0.1718,-1.4023 -0.961,-2.1328 -1.8047,-2.9414 m 403.3047,322.7891 c 1.3711,-0.3203 2.1953,-1.1875 2.1406,-2.6602 -0.031,-0.8203 -0.8086,-1.6093 -1.4531,-1.2187 -0.793,0.4922 -1.3555,1.5 -1.7657,2.3984 -0.3672,0.793 0.023,1.4414 1.0782,1.4805 m 2.2226,-490.1172 c 3.0039,1.0899 4.7735,1.5586 7.7031,0.5977 -2.5586,-1.8907 -4.3203,-2.3907 -7.7031,-0.5977 m -470.8711,109.918 c 0.4766,-2.0196 0.3828,-3.8477 -0.4453,-5.6485 -0.3281,-0.7109 -1.0586,-1.1992 -1.8945,-0.6796 -0.3867,0.2304 -0.9297,0.9492 -0.8399,1.0898 1.0157,1.5703 -0.2851,4.3398 3.1797,5.2383 m 226.1211,413.2617 c 1.9961,-1.5313 2.7695,-3.1797 0.8203,-5.1797 -0.2578,-0.2617 -1.1406,-0.3516 -1.4023,-0.1211 -2.3516,1.9883 -0.6289,3.5781 0.582,5.3008 m 13.8985,-14.0625 c 0,-1.0078 -0.6797,-1.3594 -1.4883,-1.2695 -1.3086,0.1406 -2.7696,0.5507 -3.0508,1.9297 -0.207,1.0117 0.9101,1.9414 1.9648,1.8203 1.3047,-0.168 2.3633,-0.9805 2.5743,-2.4805 m 72,-6.1602 c -1.2188,0.1329 -2.0118,0.793 -1.8516,2.0313 0.1328,1.0312 0.6289,2.2187 1.7891,2.3203 1.4765,0.1289 1.246,-1.2695 1.496,-2.2109 0.3477,-1.3086 -0.1054,-2 -1.4335,-2.1407 m 137.6718,2.5235 c 2.1524,-0.8516 5.1797,-0.6211 5.4649,-4.0821 -2.8086,0.3907 -4.5625,1.6993 -5.4649,4.0821 m -196.1172,-517.7301 c -0.8906,0.2891 -2.3984,0.418 -2.4961,2.0195 -0.051,0.8789 1.0665,0.9493 1.8516,1.0586 1.4375,0.2188 2.7266,0.082 2.7031,-1.7304 -0.01,-0.8086 -0.8125,-1.3008 -2.0586,-1.3477 m 262.4102,81.2695 c 0.1016,-1.3007 -0.4531,-2.0312 -1.5781,-2.2812 -1.0352,-0.2305 -2.1367,-0.1406 -2.4219,1.0391 -0.3242,1.3398 0.086,2.5703 1.75,2.6093 0.9805,0.024 2.0312,-0.207 2.25,-1.3672 m -412.8008,-79.0312 c 2.4414,0.7617 4.4063,1.3086 5.9453,-0.8516 0.4805,-0.6797 0.4922,-1.457 -0.3281,-1.8672 -2.0469,-1.0312 -3.3516,0.6875 -4.9023,1.461 -0.1836,0.09 -0.25,0.4179 -0.7149,1.2578 m 134.7969,-56.9688 c -1.5469,0.4493 -3.1875,-1.0312 -5.1211,0.7696 2.0586,0.3906 3.582,1.25 5.1211,-0.7696 m -16.2578,585.5391 c -0.336,-0.8789 -1.1797,-1.2305 -1.7227,-0.8086 -1.0703,0.8281 -3.1914,0.5899 -3.0742,2.6172 0.023,0.3516 1.168,0.9609 1.7539,0.9102 1.6211,-0.129 2.8594,-0.9297 3.043,-2.7188 m -151.6328,-172.0703 c -1.0899,0.5391 -1.1485,1.5117 -0.8946,2.4922 0.2344,0.9179 0.2969,2.25 1.7422,1.9375 1.1797,-0.25 1.4102,-1.3203 1.1446,-2.3789 -0.2579,-1.0391 -0.9415,-1.75 -1.9922,-2.0508 m 30.2773,-222.2109 c 1.7188,-1.8086 2.7969,-2.7579 3.6133,-3.879 0.4492,-0.621 0.1953,-1.6914 -0.5391,-1.9414 -0.5195,-0.1679 -1.5312,0.211 -1.8945,0.6719 -0.7578,0.9688 -1.5273,2.0391 -1.1797,5.1485 m -12.5508,6.8007 c 0.5,-2.0781 3.0039,-2.5 2.3789,-4.8281 -0.2226,-0.8203 -1.2304,-0.75 -1.9726,-0.3398 -2.0899,1.1367 -2.1211,2.6875 -0.4063,5.1679 m 534.7578,42.6602 c -0.3046,0.012 -0.6132,0.031 -0.9179,0.039 0.164,2.8125 0.3242,5.6093 0.4883,8.4101 0.1445,-0.01 0.289,-0.027 0.4296,-0.051 z m -35.4726,160.6992 c 0.6875,-2.7695 2.6914,-4.2578 2.4297,-8.1094 -1.6133,3.1602 -5.4141,3.6016 -2.4297,8.1094 m -354.625,199.8906 c -0.6485,-1.6093 -2.0899,-1.289 -3.2617,-1.1484 -0.8985,0.1094 -2.3164,0.1289 -2.0391,1.7305 0.2266,1.2695 1.2813,1.5586 2.3672,1.4882 1.3437,-0.09 2.6133,-0.4179 2.9336,-2.0703 m -104.418,-504.8789 c -2.7695,-0.5898 -4.8633,-0.7695 -6.25,1.75 -0.098,0.1797 -0.035,0.6094 0.1094,0.7383 2.1328,1.9727 3.6992,-0.4375 5.5351,-0.7695 0.1211,-0.02 0.168,-0.4375 0.6055,-1.7188 m 13.9727,31.7578 c -1.5899,0.3829 -2.9258,1.1602 -3.3047,2.8321 -0.2149,0.9297 0.6836,1.4414 1.4805,1.3203 1.621,-0.2422 2.8554,-1.211 3.25,-2.832 0.2148,-0.879 -0.4922,-1.3594 -1.4258,-1.3204 m -14.1875,11.3125 c 1.1054,-1.5625 4.4414,-1.6992 2.9609,-4.5898 -0.2656,-0.5313 -2.1016,-0.7813 -2.8867,-0.4297 -2.4649,1.1172 -0.7422,3.0899 -0.074,5.0195 m 10.832,-1.1015 c -1.1172,-0.8985 -2.4023,-2.0703 -3.8515,-2.9688 -0.293,-0.1797 -1.7344,0.6289 -1.7539,1.0196 -0.1094,2.4492 1.1406,3.8398 3.6953,3.8086 0.8281,-0.01 1.3906,-0.4805 1.9101,-1.8594 m 488.9336,94.2695 c 0.1602,-2.7578 0.3164,-3.7695 0.25,-4.7695 -0.074,-1.168 0.4063,-3.1094 -1.3945,-3 -2.2735,0.1406 -1.625,2.2812 -1.4024,3.6601 0.1485,0.9102 1.0118,1.711 2.5469,4.1094 m -605.25,149.6992 c -1.0859,2.8321 -3.75,3.4805 -3.6758,5.9727 5.2305,0.098 5.2305,0.098 3.6758,-5.9727 m 11.2461,-9.539 c -0.051,-0.668 -0.6016,-2.0977 -2.0273,-2.2188 -1.4883,-0.1289 -2.1485,1.1094 -2.1407,2.6602 0.012,1.6992 0.836,2.3008 2.4258,2.25 1.3203,-0.039 1.8633,-0.6797 1.7422,-2.6914 m 167.3086,-292.3985 c -1.7422,-1.1523 -3.2617,-2.9492 -5.3594,-1.4101 -0.9375,0.6797 -1.0742,2.7109 0.027,3.4687 2.2617,1.5508 3.6172,-0.5195 5.332,-2.0586 m -131.5193,160.1602 c 3.8711,-1 4.4414,-3.4922 5.7891,-5.6719 -6.3399,-2.0195 -3.6328,3.2227 -5.7891,5.6719 m 406.0977,311.3203 c 2.3554,-0.7305 4.6562,-1.4023 5.1562,-4.4414 0.039,-0.2578 -0.6758,-0.9414 -0.9766,-0.8984 -2.4843,0.289 -4.4414,1.3085 -4.7343,4.1406 -0.02,0.207 0.1992,0.4492 0.5547,1.1992 m -449.2227,-351.5 c -1.9414,0.4102 -1.082,1.8594 -1,3.0195 0.1094,1.5703 0.09,3.4375 2.3242,3.25 2.0742,-0.1718 2.1758,-1.8398 1.9414,-3.5195 -0.2617,-1.8594 -1.3633,-2.7227 -3.2656,-2.75 m 129.4492,360.9375 c -3.2304,-0.3477 -5.4492,-2.4492 -7.3437,-0.01 -0.8125,1.039 -0.2305,2.5898 1.0195,3.25 2.7695,1.4492 3.9727,-0.8008 6.3242,-3.2422 m -63.8281,-459.8477 c 4.1406,-0.9492 4.1406,-0.9492 3.9219,-5.0898 -2.0664,1.1484 -3.9141,2.3477 -3.9219,5.0898 m -51.5195,7.9688 c 3.0078,1.2891 6.2968,4.4219 9.0898,-2.9805 -3.5039,2.8399 -6.5312,1.4102 -9.0898,2.9805 m 401.5742,467.6406 c -0.5274,-1.6015 -1.6367,-2.539 -3.332,-2.7812 -2.0118,-0.2774 -3.0704,0.9023 -3.1407,2.6406 -0.1015,2.3789 2.2188,1.8203 3.5235,2.2305 1.5,0.4609 2.3476,-0.7618 2.9492,-2.0899 m -388.3125,-446.3008 c 1.7109,-0.4804 1.582,-2.3906 2.5586,-3.4687 1.0117,-1.1289 2.1289,-2.9297 0.078,-3.8594 -1.9688,-0.8828 -3.4766,0.5195 -4.1211,2.4492 -0.6289,1.8789 -0.3125,3.6094 1.4844,4.8789 m 96.1796,385.8711 c 1.7657,-0.9297 3.1993,-2.4414 3.2539,-4.4609 0.039,-1.5703 -1.3593,-2.9492 -3.0625,-2.8984 -4.1328,0.1171 2.5079,4.8984 -2.0625,5.0078 0.043,1.1406 0.7579,1.8007 1.8711,2.3515 m 344.2891,14.1116 c 2.164,1.6016 4.582,2.0117 5.9765,-0.25 1.0235,-1.6719 0.2618,-3.9414 -2.0546,-5.2187 -1.4961,1.6679 -3.2852,3.039 -3.9219,5.4687 m -433.3476,-377.1719 c 1.3516,-0.3789 2.2735,-1.2265 1.6797,-2.3164 -0.8515,-1.5625 -2.1367,-2.8906 -3.289,-4.2734 -0.668,-0.7969 -1.4766,-1.7774 -2.6211,-1.0977 -1.4454,0.8477 -0.8946,2.25 -0.5586,3.5196 0.6797,2.5703 4.0195,1.9492 4.789,4.1679 m 58.3672,-4.5273 c 3.1172,-2.6406 5.8711,-4.25 4.0703,-9.6406 -1.7812,3.5586 -5.2226,4.6093 -4.0703,9.6406 m 246.4375,405.039 c -4.0039,-1.5195 -6.707,-1.1992 -9.2969,0.3711 -0.75,0.4493 -0.8711,1.3086 -0.5742,2.0899 0.293,0.7578 0.7891,1.3008 1.7891,1.0195 2.4609,-0.6992 4.9765,-1.2305 8.082,-3.4805 m -270.6484,-115.539 c -0.3008,-1.6094 -1.4258,-2.0391 -2.7578,-2.2305 -2.1446,-0.3086 -3.5664,0.3399 -3.4961,2.7695 0.043,1.4415 0.8398,2.5508 2.289,2.5118 1.961,-0.051 3.1289,-1.461 3.9649,-3.0508 m 37.8203,-384.3906 c -4.8516,0.5703 -6.6172,2.4414 -5.1992,5.6289 0.2695,0.6015 1.1015,1.1211 1.7812,1.3398 1.3867,0.4492 2.2422,-0.6094 1.7227,-1.6172 -1.3008,-2.5312 3.0078,-3.0234 1.6953,-5.3515 m 259.875,-55.7383 c -4.9453,0.1562 -7.9531,-0.8321 -10.8633,-2.211 -0.3945,-0.1797 -1.5664,0.4883 -1.8359,1.0391 -0.2774,0.5586 -0.012,2.0312 0.2383,2.0898 3.5546,0.8008 7.1914,3.1719 12.4609,-0.9179 m -132.6016,52.3672 c 1.8438,-0.7578 3.5625,-2.0078 3.2227,-4.4375 -0.2578,-1.8907 -2.2031,-2.4024 -3.6445,-2.1524 -2.25,0.3789 -2.418,2.3008 -2.1446,4.2891 0.1992,1.4609 0.6211,2.4922 2.5664,2.3008 m -184.4648,399.3711 c 1.8633,2.5 2.0078,5.8281 5.8828,3.3203 1.2969,-0.8399 3.1523,-0.9297 2.5117,-2.9102 -0.9336,-2.8984 -3.4765,-1.1601 -5.3086,-1.3789 -0.664,-0.09 -1.4023,0.4102 -3.0859,0.9688 m -38.7305,-299.7618 c -2.8633,0.8907 -3.2265,3.3516 -5.3359,4.2227 -2.3516,0.9805 -0.7539,3.1289 -0.2031,4.6992 0.3398,0.9688 1.0976,1.9297 2.3007,1.75 1.8125,-0.2617 2.5508,-1.6094 2.6993,-3.3008 0.1914,-2.2812 0.3359,-4.5703 0.539,-7.3711 m 125.2891,365.6407 c -0.4805,2.5507 0.1484,4.6015 2.7812,5.5195 1.1289,0.4023 2.4375,1.1406 3.5274,-0.207 -2.543,-0.9805 1.4648,-4.5118 -1.8477,-4.9532 -1.4258,-0.1875 -2.8594,-1.2968 -4.4609,-0.3593 m -110.5078,-361.3008 c -6.0078,-0.1172 -6.0078,-0.1172 -7.4844,7.1133 6.4219,-0.9102 6.4219,-0.9102 7.4844,-7.1133 m 137.4843,392.1015 c -0.3867,-0.6015 -0.6836,-1.6484 -1.2031,-1.7695 -2.6328,-0.6289 -5.3203,0.7891 -8.1172,-0.3984 -1.0468,-0.4414 -1.0859,1.3867 -0.5273,2.3672 1.1562,2 3.4687,2.4804 5.2851,3.1992 2.4102,0.9726 3.5352,-1.3594 4.5625,-3.3985 m 1.5743,-515.8007 c 1.8281,-0.2305 3.6836,-0.3282 5.4687,-0.7383 1.4609,-0.3399 3.5391,-0.8594 2.8477,-2.8594 -0.7071,-2.0703 -3,-2.543 -4.5313,-1.1914 -2.0937,1.8594 -3.6875,2.8711 -5.6992,0.1211 -0.1055,-0.1406 -1.0156,0.1094 -1.375,0.3984 -0.668,0.5391 -0.8047,1.3516 -0.4023,2.1094 0.7734,1.4727 1.8164,2.5703 3.6914,2.1602 m -55.2071,507.5703 c 2.5117,0.051 5.1602,-1.461 5.0782,-3.2891 -0.07,-1.6914 -1.5157,-4.3008 -4.5196,-4.7812 -4.2969,-0.668 -2.1992,3.6914 -4.1758,5.1211 -0.9921,0.7109 1.9688,2.3007 3.6172,2.9492 m -48.5039,-56.8711 c -0.1679,3.6523 0.6953,6.4414 4.4492,7.9219 2.4063,0.9414 3.3633,0.1796 3.3868,-2.2305 0.039,-4.2578 -0.6407,-4.7695 -7.836,-5.6914 m -10.3672,-46.2188 c -1.2382,0.3516 -3.1953,1.4297 -3.1289,3.211 0.086,2.2304 2.25,3.0586 4.4492,3.6211 3.0586,0.7773 4.6719,-0.793 5.25,-3.2032 0.6446,-2.6875 -1.7929,-2.5976 -3.5742,-2.8867 -0.7734,-0.1328 -1.5234,-0.3711 -2.9961,-0.7422 m 168.293,101.4102 c -2.3086,-2.4805 -5.4492,-2.7383 -8.4727,-2.8906 -2.3515,-0.1289 -3.3828,1.332 -2.1757,3.5703 0.6015,1.1015 1.7226,1.9219 2.5117,2.9414 2.2969,2.9687 3.9726,3.9805 4.582,-1.0313 0.211,-1.7109 3.0156,-0.7187 3.5547,-2.5898 m -216.2344,-388.9297 c 0.168,-0.02 1.1875,-0.2695 2.2071,-0.2812 1.5312,-0.027 4.2929,-0.027 3.8164,-1.2891 -0.8438,-2.2109 -2.7618,-3.9492 -1.336,-6.5899 -1.8125,-0.5507 -4.0898,-0.7187 -5.0508,0.6602 -1.3593,1.9492 -4.1445,3.5703 -3.0273,6.6602 0.4023,1.1093 1.4219,1.3789 3.3906,0.8398 m -7.4297,95.9492 c 2.4258,-3.1875 1.1016,-6.0586 2.1016,-8.4101 0.6055,-1.418 1.6992,-2.6993 -0.055,-4.1094 -1.5273,-1.2305 -2.8828,-0.7188 -4.3164,0.1211 -1.5703,0.9297 -2.1719,2.3086 -1.6758,4 0.7813,2.6875 1.668,5.3594 3.9453,8.3984 m 281.1407,329.2227 c -0.5118,-3.8711 -1.6758,-5.9805 -4.9102,-6.1914 -2.9844,-0.1797 -4.5234,2.3593 -6.5,3.8203 -1.2188,0.8906 0.1133,2.6289 1.543,2.5078 3.0703,-0.2773 6.1054,-0.918 9.8672,-0.1367 m -248.4766,-294.461 c 1.8594,-1.2304 0.5937,-3.4726 1.7187,-5 1.2149,-1.6523 1.1485,-3.6015 -0.6836,-4.832 -3.1132,-2.0976 3.0782,-2 0.8204,-3.8281 -0.5704,-0.461 -0.8516,-1.3711 -1.461,-1.6524 -0.789,-0.3671 -1.6445,0.2422 -1.9023,0.9805 -0.7774,2.2109 -1.2422,4.5313 -2.1055,6.7109 -0.8984,2.25 -1.5469,3.961 1.875,4.5118 0.7149,0.1172 1.1524,2 1.7383,3.1093 m 120.8516,-195.332 c 0.8437,-1.9101 1.3789,-3.3906 2.1171,-4.7578 1.5938,-2.9492 -1.1093,-4.1797 -2.6015,-4.7617 -2.7383,-1.0781 -2.8086,0.5 -2.125,2.9297 0.5742,2.0507 -1.5469,1.3828 -2.6602,1.4414 -1.082,0.059 -2.664,-1.5196 -2.9414,0.8906 -0.2305,1.9687 1.375,1.7187 2.6133,2.0703 1.7383,0.5 3.3867,1.3086 5.5977,2.1875 m -77.0508,75.793 c -0.016,-1.7617 0.4414,-3.7735 -1.2344,-4.4414 -2.5078,-1.0117 -2.7812,1.2187 -3.5391,2.9414 -0.6015,1.3594 -2.1445,2.289 -2.8281,3.6367 -1.0351,2.0312 -0.957,4.4297 1.4453,5.2031 1.7618,0.5664 4.6602,0.5977 4.5625,-2.4609 -0.062,-2.0508 1.918,-3.1602 1.5938,-4.8789 m -12.7031,-29.1406 c -1.0118,-1.4102 -2.2696,-1.9415 -3.5391,-1.7305 -2.3203,0.3789 -7.2969,9.5195 -6.1523,11.5195 0.7382,1.3008 3.1601,2.6602 3.9453,1.2891 2.0195,-3.5508 2.8515,-7.7383 5.7461,-11.0781 m 18.6679,322.4179 c -3.6562,9.6211 -3.2812,10.7813 4.0391,14.9805 1.6641,-2.1211 -2.6406,-2.4102 -1.3516,-4.4609 2.7852,-4.4297 -1.2265,-7.1407 -2.6875,-10.5196 m 309.9688,-429.8789 c -3.9024,-0.4297 -7.2422,-0.8008 -9.0196,-4.2812 -0.1992,-0.3907 -1.4921,-0.5586 -2.082,-0.3399 -1.0117,0.4024 -1.3398,1.3008 -1.0703,2.5117 1.1289,5.0391 5.4688,6.3594 9.3164,8.2579 2.0742,-1.2383 1.8399,-3.5196 2.8555,-6.1485 m -148.3086,24.8906 c 2.8203,6.4375 2.8086,6.3789 8.3555,5.1172 1.957,-0.4492 4.0195,-0.4883 5.4257,-2.2695 -4.0742,-2.5898 -8.1601,-4.8789 -13.7812,-2.8477 m -115.0938,493.8594 c -0.8203,1.9492 -3.4726,-0.9805 -4.4882,1.1914 -1.125,2.3789 0.8281,3.918 2.25,5.3086 1.082,1.0508 2.5742,1.7891 4.0078,2.3594 1.9804,0.7891 4.4531,1.3906 5.4414,-1.0781 0.8476,-2.1211 0.3008,-4.8125 -1.6875,-6.1797 -1.3633,-0.9414 -3.1133,-1.9805 -5.5235,-1.6016 m -74.2968,-382.8008 c -3.0196,-1.4687 -4.5469,-4.2304 -7.5196,-1.5976 -1.4101,1.25 -3.375,1.9883 -4.8672,0.6875 -1.6406,-1.4375 -2.9687,-2.3281 -4.5703,-0.4102 -1.2304,1.4805 -1.6992,3.3594 -0.8242,5.1914 1.2344,2.5899 3.6367,1.9688 5.5117,1.3008 3.8633,-1.3711 7.5782,-3.1601 12.2696,-5.1719 m 12.8046,-49.3711 c -1.7421,-2.1367 -3.0742,-4.0273 -5.7734,-5.2773 -1.1953,2.3594 -1.6719,5.457 -5.1133,5.9297 -1.6289,0.2187 -1.9726,1.75 -0.7031,2.8711 1.4648,1.2773 -0.293,3.8398 2.1367,4.5976 5.2774,-0.289 5.8125,-5.8281 9.4531,-8.1211 m -18.5117,16.7227 c -2.039,-0.031 -3.375,1.8594 -5.332,1.0508 -1.3828,-0.5821 -2.5078,-0.07 -3.2891,1.1992 -1.7617,2.8789 -1.2382,9.0977 1.0235,11.6094 1.4414,1.5976 3.6758,0.8711 3.8125,-0.3516 0.5312,-4.6992 3.9687,-8.5898 3.7851,-13.5078 m 291.7383,-140.4219 c -1.3437,-2.1406 -3.7578,-3.168 -5.832,-4.5391 -4.9375,-3.2382 -11.2188,-3.8906 -15.711,-7.9218 -1.2734,-1.1485 -2.5039,-2.6172 -3.8711,-1.2266 -1.6328,1.6484 0.1875,3.2969 1.1172,4.7773 0.7618,1.211 2.168,1.3321 3.3438,1.8829 5.4414,2.5781 11.332,4.1796 16.3984,7.6093 1.2461,0.8399 2.8633,1.5703 4.5547,-0.582 m -81.9375,564.4414 c -1.8555,-3.6797 -4.8281,-4.8203 -7.4453,-6.4023 -0.918,-0.5469 -2.2227,-1.2188 -2.8398,-0.1797 -3.3594,5.6602 -7.4844,-0.9688 -11.0665,0.7617 -0.3671,0.1797 -0.5585,-0.5195 -0.1718,-1.1015 2.1992,-3.2891 -0.5078,-3.25 -2.4571,-3.4102 -1.8125,-0.1484 -3.6562,0.1719 -5.4843,0.1328 -1.3633,-0.019 -2.6875,-0.3125 -2.2969,1.8281 0.2187,1.1797 -0.5117,3.0703 1.457,3.0313 2.793,-0.051 4.4414,2.3594 7.2891,2.5586 7.4258,0.5 14.8047,1.7304 23.0156,2.7812 m -212.0859,-380.3203 c -2.1446,1.8594 -4.5078,2.6914 -4.9766,5.3086 -0.4766,2.6719 -0.6797,5.3906 -1.0156,8.0899 -0.1485,1.1914 -1.2188,2.8828 0.5195,3.3125 2.0586,0.5195 2.6328,-0.9922 2.3399,-2.9024 -0.1055,-0.6992 -0.1836,-1.6484 0.9218,-1.7383 1.3047,-0.09 1.8516,0.7891 1.9297,1.918 0.074,1.043 -0.1523,2.1016 -0.059,3.1406 0.2696,3.0117 1.5586,3.6524 3.836,2.2305 4.3515,-2.6992 3.5507,-8.0391 6.0859,-11.6914 0.6484,-0.9297 0.074,-2.7774 -1.1875,-3.457 -2.7031,-1.4532 -6.7656,0.4101 -8.3945,-4.211 m -11.25,282.0703 c 0.6367,-2.3711 -0.4063,-3.8906 -1.2149,-5.5508 -2.8906,-5.9296 -9.3047,-6.0703 -14.2148,-8.5898 -1.961,-1 -2.9453,1.6016 -2.0703,2.8398 1.8984,2.6993 2.1445,5.9102 3.4453,8.6602 2.4492,5.1797 5.6562,10.0313 8.914,14.7695 1.3047,1.9024 3.4727,3.2891 6.1524,1.5391 2.707,-1.7695 1.8867,-3.6367 0.9141,-6.0977 -0.9883,-2.4921 -4.2461,-4.6523 -1.9258,-7.5703 m 356.7734,-440.6601 c 3.1524,4.6797 5.5352,9.7304 12.1524,10.7382 2.6328,0.4024 6.4062,2.5196 2.9765,6.7618 -1.0586,1.3086 0.01,2.4492 0.7305,3.5078 1.6367,2.4023 3.2617,4.8125 4.9844,7.1406 5.1875,7.0313 13.625,6.6524 18.4062,-0.8594 0.5781,-0.8984 0.3047,-2.039 -0.4062,-2.9297 -2.418,-0.2187 -2.9063,4.1993 -5.9454,2.5 -0.6523,-3.4609 2.0079,-8.25 -3.9882,-9.4687 -0.9063,-0.1914 -0.9844,-1.1211 -0.668,-1.8906 1.2852,-3.1289 -1.1445,-3.6407 -3.1094,-4.25 -2.8515,-0.8789 -5.4961,-2.0586 -7.2773,-4.5313 -1.0586,-1.4609 -2.4258,-1.918 -4.0742,-1.9883 -5.0118,-0.2422 -9.5352,-1.9297 -13.7813,-4.7304 m -352.3008,80.8593 c 0.2657,-1.6992 1.5352,-1.6601 2.3438,-2.2382 1.5859,-1.1407 2.9492,-2.7032 1.3047,-4.5625 -1.4414,-1.6289 -3.2383,-2.7891 -5.1016,-0.039 -1.25,1.8594 -3.5391,2.1797 -5.5859,2.6992 -2.0118,0.5117 -2.543,1.8789 -1.668,3.5508 1.0898,2.0898 2.4062,4.0703 3.793,5.9805 1.5429,2.1289 3.4179,4.0195 4.0273,6.7304 0.3438,1.5508 1.1836,3.3204 -0.4492,4.3282 -2.2031,1.3711 -2,-3.0196 -3.9688,-2.2305 -4.6406,7.0625 2.3829,9.5898 4.9727,14.0312 0.7656,-2.1601 -0.9961,-4.9492 1.1992,-6.1289 4.1875,-2.2695 6.5547,-6.9218 11.3438,-8.2617 0.2343,-0.059 0.5781,-0.051 0.7656,0.082 6.1055,4.1484 6.0703,-2.9219 6.707,-4.7422 1.5196,-4.3907 -3.0351,-6.1602 -6.0156,-7.9805 -3.125,-1.918 -2.6641,0.6914 -3.4375,2.793 -0.707,1.9179 -4.2852,2.2578 -4.7813,-0.2813 -0.6992,-3.5703 -3.5468,-2.8906 -5.4492,-3.7305 m -19.7383,127.1993 c -5.4414,-2.8282 -5.0429,1.1328 -6.4062,3.9414 -2.957,6.1093 -4.9492,12.25 -2.8555,17.4414 2.2188,5.4883 3.3282,10.8476 2.8125,16.6875 -0.1601,1.789 0,3.7187 2.0547,4.7617 0.5352,-0.6523 1.0352,-1.2617 1.543,-1.8711 2.2851,-2.75 5.8125,-5.4805 -0.4336,-7.9219 -1.3438,-0.5195 -0.9063,-2.1484 -0.5039,-3.5195 0.8711,-2.9688 1.4961,-6.0078 2.3594,-9.5977 2.707,2.0899 5.6093,3.0977 8.4648,4.2383 1.5469,0.6094 3.8672,2.0313 2.2227,4.1211 -1.9336,2.4492 1.0039,4.2695 -0.074,7.1485 -1.7852,4.75 4.2304,1.5 5.871,3.4726 0.6641,0.7891 1.0196,1.9102 1.7969,2.5195 1.1563,0.918 2.4727,2.1172 4.1094,0.6875 -2.1016,-4.207 -2.1523,-4.2382 -5.9375,-5.9492 -1.5859,-0.7187 -2.2305,-1.7304 -1.3008,-2.9687 1.1055,-1.4688 -0.098,-3.9024 2.1406,-4.75 2.7422,0.2695 3.9063,4.25 7.293,3.1406 0.7344,-2.4023 -0.2344,-5.0703 -1.7226,-5.7109 -6.1407,-2.6407 -8.043,-7.8204 -8.7422,-13.8008 -1.043,0.3789 -1.8633,0.5703 -1.8555,0.6914 0.3516,4.0703 -2.832,4.9375 -5.4688,4.8711 -2.9062,-0.07 -3.1992,-3.0508 -3.1015,-5.4531 0.098,-2.2579 -0.074,-3.8907 -2.5195,-5.129 -4.9883,-2.5195 -4.8946,-3.0703 0.2539,-7.0507 m 42.2734,295.8711 c -2.6602,1.1093 -6.9258,-0.3516 -7.4453,4.1679 -0.3633,3.1914 3.3398,5.4805 8.7695,5.7617 0.7813,0.051 1.6172,-0.3007 2.3633,-0.1601 3.1758,0.6406 6.2969,1.4101 6.8906,5.4101 0.6133,4.1407 2.6524,4.1602 5.2539,1.6094 1.1211,-1.0976 1.918,-1.3594 3.3555,-0.4687 1.8711,1.1484 4.1172,2.9297 4.1055,4.4804 -0.019,2.8477 0.7421,5.3086 1.3085,7.9688 0.293,1.3711 -4.3789,2.6484 -1.1367,4.7617 2.2422,1.4492 3.5391,-1.3828 4.9727,-2.7305 0.7812,-0.7304 1.4414,-1.6406 2.6055,-1.5625 1.4726,0.1016 3.8359,-1.1796 4.1757,0.6602 0.2891,1.5508 -1.1406,3.6406 1.8672,3.1328 4.2813,-0.7109 6.2383,0.098 4.3594,4.8477 -0.5117,1.3007 0.1875,2.7109 1.6875,3.1328 1.5859,0.4375 3.2539,0.2969 4.0586,-1.4024 1.0781,-2.2812 1.9297,-4.6679 2.8125,-6.8476 -0.8633,-1.8321 -2.6797,-0.6328 -3.5195,-1.3438 -2.6172,-2.1797 -6.9571,-2.8984 -6.5977,-7.7695 0.2969,-4 -0.098,-4.2305 -3.6328,-2.1172 -0.9102,0.5391 -2.457,1.2305 -2.3086,0.6367 1.2617,-5.0586 -3.8555,-3.7695 -5.6406,-5.5976 -5.7227,-5.8711 -9.5274,-12.7891 -14.2305,-20.9805 4.2969,2.5 7.8203,0.6289 10.9063,1.9492 0.7968,6.7891 2.8828,10.9102 7.6796,14.0117 1.5821,1.0274 3.6914,2.3594 5.7852,0.4805 0.2109,-0.1797 1.3359,1.5 1.6484,1.7774 1.0899,0.9804 -0.8086,3.6406 1.8789,3.5117 1.2149,-0.051 3.6368,-0.3594 3.3047,-1.3711 -0.8867,-2.6875 4.461,-2.8203 2.1875,-4.4688 -3.6797,-2.6523 -3.3359,-7.6015 -7.9843,-10.1015 -6.6133,-3.5586 -12.8008,-8.6172 -15.7813,-15.9883 -2.1562,0.01 -1.5352,3.25 -3.9805,2.4883 -0.9492,-1.2774 -0.5586,-2.9688 -1,-4.4297 -0.6289,-2.1094 0.1016,-5.1875 -3.1562,-5.7188 -3.6641,-0.6015 -1.2969,4.25 -3.9883,4.6602 -4.0898,-1.3516 -5.9023,-5.5313 -10.3945,-8.7617 2.039,7.1718 7.0468,11.1914 9.0664,16.789 -4.0117,0.793 -6.8086,0.1602 -7.6719,-2.7695 -2.1836,-7.3984 -5.1875,-13.918 -12.5352,-17.6094 -1.1406,-0.5781 -1.082,-2.3594 -0.621,-3.6484 0.5312,-1.4922 1.6015,-1.7695 3.1406,-1.3711 2.4336,0.6289 4.664,-0.1094 7.8398,-2.25 -4.7226,-0.8203 -4.5039,-4.8399 -6.5039,-7.4297 -1.8984,-2.4609 -1.1719,-4.75 1.457,-6.7383 1.6602,-1.2617 4.6055,-1.8203 4.1954,-4.9531 -3.8868,-1.1094 -7.0352,0.3711 -9.7696,2.9023 -1.4843,-2.6523 1,-3.7695 1.0274,-5.5312 -4.5196,-1.5586 -6.2696,0.7109 -6.7227,4.832 -0.3125,2.7969 -0.6484,5.5899 -0.9844,8.4766 -3.5898,-0.8281 -6.9375,-1.2969 -10.8945,-0.6875 1.4102,3.2383 2.6836,6.2773 -0.9961,9 -2.2734,1.668 -1.832,4.8711 -1.6914,7.4805 0.1875,3.5 2.1055,4.5585 5.1367,2.5898 1.8946,-1.2305 3.5508,-2.1328 5.8008,-1.6094 -0.016,3.4883 -3.9609,6.2696 -3.7031,8.1992 0.4258,3.2188 3.8359,6.0391 5.9687,9.0508 0.094,0.1289 -0.055,0.4492 -0.09,0.668 -0.5039,1.8203 -3.5468,-0.5195 -3.5468,2.0586 0.7382,1.5703 2.2929,1.2305 3.4726,1.7031 3.5313,1.3867 7.9844,-1.9726 9.5781,-0.9101 2.8672,1.8984 3.9063,6.4882 7.8047,8.1093 z m 142.4687,55.4492 c 5.4688,-1.6289 11.875,1.7109 16.7774,-3.1289 0.1875,-0.1797 0.9453,0.2109 1.4375,0.3398 0.1562,2.4883 0.164,5 1.3984,7.2891 3.5039,0.031 6.2969,-1.418 8.793,-3.4492 2.7578,-2.2305 5.6328,-3.1797 9.3633,-3.0313 5.2382,0.2305 10.5351,1.1016 15.7968,0.012 0.8555,-0.1797 1.4766,-0.5312 1.6133,-1.3906 0.1446,-0.9102 -0.3984,-1.5898 -1.2109,-1.75 -3.8555,-0.8203 -7.9883,-2.7695 -11.5391,-2.0195 -5.4101,1.1406 -7.8359,-0.031 -7.7695,-6.3711 -7.5156,7.082 -15.0274,4.3515 -21.6758,1.2304 -3.9062,-1.8398 -7.5976,-3.4179 -11.793,-3.6992 -2.4609,-0.1601 -4.75,-0.6718 -6.8125,-1.8906 -3.4336,-2.0195 -7.0039,-2.2383 -10.6757,-1.0703 -1.2969,0.4101 -2.7383,1.2187 -3.4493,-0.3008 -2.4609,-5.2383 -6.9179,-4.5898 -11.25,-4.3203 v 6.9414 c 2.3516,1.7188 5.7032,-2.1289 5.6836,-0.4414 -0.051,5.0703 4.1993,2.3711 5.5039,3.9023 4.4532,5.25 11.2774,7.75 15.2188,13.4297 2.1562,3.1094 3.332,0.7696 4.8242,-0.4804 z m -139.332,-429.7813 c 1.5352,-0.4687 2.2578,2.9024 5.0352,-0.039 2.6875,-2.8477 7.0039,-4.25 7.539,-9.3282 4.8047,3.75 -3.5469,10.6875 4.5313,12.9688 0.625,-4.0781 1.3008,-7.9805 5.9336,-9.1602 -0.5977,2.9297 -3.4453,5.4297 -1.8946,8.7305 6.1875,-5.1406 6.4258,-15.7383 16.4258,-17.2187 -0.3359,-1.6915 -3.6719,-2.7305 -1.9023,-4.5313 2.4218,-2.4687 2.5547,-5.6992 3.8984,-8.4805 0.9024,-1.8593 1.4688,-3.3086 3.8359,-3.0195 2.5625,0.3203 4.6446,1.1406 4.6329,4.2305 0,1.0586 -0.1368,2.0976 -0.211,3.1484 -2.4492,1.2813 -4.8945,2.4024 -1.0898,5.1914 1.7422,1.2695 2.7656,4.7695 5.1914,3.5508 3.1797,-1.5898 0.6601,-5.4297 1.5351,-8.1406 0.016,-0.051 -1.3671,-0.1211 -1.8984,0.5781 0.039,-2.7891 1.3984,-5.457 -0.2695,-8.3867 -1.2032,-2.1133 -0.1407,-6.1602 -4.8477,-4.1406 -0.664,0.289 -1.1367,-0.5704 -1.2812,-1.4727 -0.6758,-4.2188 -1.4844,-4.7188 -4.0782,-1.9375 -3.3437,3.5781 -7.5039,6.4375 -9.8437,11.0078 -0.6055,1.1797 -1.8359,1.6602 -2.0547,3.582 -0.625,5.4805 -0.9375,11.3282 -6.125,15.0977 -0.3672,0.2695 -0.039,1.5117 -0.062,2.2227 -2.5039,-1.1211 -0.6953,-6.9532 -5.8867,-5.293 -1.0938,0.3515 -1.5586,-1.0977 -1.5117,-2.1602 0.09,-2.0586 0.2734,-4.1172 0.4218,-6.1875 1.4844,-5.4687 6.2969,-8.9297 8.4922,-13.9218 1.3282,-3.0274 2.5274,-5.7383 6.3242,-6.1993 1.8165,-0.2304 2.7774,-1.7187 2.4297,-3.4687 -0.8984,-4.5508 0.1875,-8.5899 2.3868,-12.5703 0.7148,-1.2891 0.6132,-3.0703 0.7031,-4.6407 0.047,-0.8515 -0.9453,-1.8281 -1.418,-1.5507 -1.9883,1.1601 -6.0508,0.5898 -5.3203,4.2226 0.9453,4.6797 -2.8828,6.3399 -4.7227,9.25 -0.6523,1.0391 -1.5937,2.1992 -3.1601,1.0078 -1.4375,-1.1093 -1.8008,-2.3906 -1.2149,-4.1484 0.8438,-2.543 3.711,-2.582 5.4805,-4.6406 -2.3672,-1.961 -3.0312,-5.4297 -6.6601,-6.6407 -1.7383,2.9102 -0.1485,6.1211 -1.5118,8.629 -1.6015,2.9609 0.6719,5.4414 0.6485,8.0117 -0.035,3.2578 -5.1953,1.7109 -6.3321,4.8398 -0.3632,1 -1.1367,1.8985 -0.2343,2.8281 0.8593,0.8907 1.6953,0.1797 2.7031,-0.1171 2.5976,-0.7618 5.3594,-1.7032 8.4258,-0.1719 -4.8438,5.8789 -10.4141,11.1797 -6.8555,19.4922 -5.5664,-2.3633 -5.5625,-2.3633 -5.5977,3.1679 0,0.4922 -0.1484,1.4102 -0.2265,1.4102 -4.8945,-0.019 -4.7422,5.3008 -7.793,7.3086 -4.3515,2.8711 -4.2383,3.0508 -2.4492,7.0898 -0.074,2.3516 0.4453,4.9727 -3.6289,4.0508 -2.8242,-0.6406 -3.7305,0.043 -1.043,2.4414 1.6133,1.4492 -1,1.1289 -1.0508,1.4688 -0.6953,4.3711 -4.3398,7.8203 -4.1093,12.3203 0.1562,2.9922 4.2656,3.5508 4.2812,7.6094 6.25,-5.9375 -0.1367,-11.129 1.4375,-15.5196 3.2461,-5.5781 11.2656,-0.8906 15.3594,-8.3594 -6.168,2.5313 -9.0547,-0.1679 -11.3672,-4.0117 m -22.625,68.4219 c 0.2969,-0.9492 0.6133,-1.8906 0.8828,-2.8516 0.1797,-0.6367 1.0625,-1.4179 0.016,-1.8867 -0.5508,-0.25 -1.5937,-0.1836 -2.0312,0.1992 -2.793,2.3985 -1.5039,3.6289 1.375,4.2891 2.0781,2.5898 0.7539,7.2695 5.8867,8.2813 1.7187,0.3281 3.5625,3.957 0.7265,6.6171 -0.8437,0.7813 -0.9492,1.8399 0.2696,2.5625 1.0898,0.6407 2.0078,0.2579 2.7929,-0.582 3.0157,-3.2383 4.7539,-4.0781 7.4688,-3.6094 -0.6914,-4.0586 -1.0117,-8.2695 -6.8789,-8.289 -1.168,0 -2.8945,-1.211 -3.6485,-2.7813 -1.5468,-3.2304 -4.2734,-2.3711 -6.8593,-1.9492 m 427.1211,-107.6602 c 0.027,-0.5117 0.1328,-1.0312 0.07,-1.5312 -0.2032,-1.7188 0.1211,-3.8398 -2.6055,-3.8477 -1.5273,-0.012 -3.5,-0.4296 -4.2656,1.0586 -1.0821,2.1016 0.332,3.8907 1.875,5.3399 1.0078,0.9414 2.3203,0.9804 3.6328,0.8515 0.6367,3.6289 2.2891,5.961 7.3672,5.4102 -1.8867,-3.1992 -3.0821,-5.9102 -6.0742,-7.2813 m -449.4297,287.4493 c 0.086,-1.6485 1.4336,-3.8594 -1.5508,-4.2305 -1.2344,-0.1484 -2.9219,0.3398 -2.6914,1.9805 0.2734,1.9804 2.1289,1.9218 3.7265,1.8711 0.2579,0 0.5157,0.07 0.7774,0.1015 0.1211,3.168 1.707,5.3164 4.5937,6.5586 0.3008,1.1992 -2.0117,2.2695 -0.5156,3.2383 0.8594,0.5508 2.7188,-0.2305 2.7891,-1.5273 0.062,-1.1915 -0.9219,-2.3516 -2.5664,-1.4415 1.7812,-7.0703 1.4297,-7.5703 -4.5625,-6.5507 m 184.7109,-325.3594 c -4.8242,-0.8594 -8.1992,2.8008 -12.375,3.9805 -3.6367,-0.2696 -6.9375,0.8711 -10.1367,2.4296 1.2851,-3.8398 -0.668,-6.0507 -4.7539,-7.2617 5.375,-2.2578 5.8476,-2.789 9.2851,-8.6093 0.4649,-0.7774 1.543,-1.3985 2.7383,-0.7579 1.0508,2.1289 -2.7656,4.211 0.2383,6.6993 6.2656,-3.5586 14.5664,-2.0508 20.293,-8.6485 1.8633,3.6094 0.9258,7.918 5.8867,8.9688 0.9961,-2.7891 3.3008,-4.7188 6.7422,-4.8907 0.2109,1.5586 -0.6797,3.9102 2.3242,3.5118 0.5703,-0.082 1.5,-0.8907 1.4883,-1.3516 -0.055,-2.4609 -2.1992,-1.1094 -3.3438,-1.6484 -0.2265,-0.1016 -0.4765,-0.1719 -0.7109,-0.25 -2.418,-5.6211 1.8242,-7.4532 7.1641,-9.293 -7.0235,-1.2969 -19.543,-0.6367 -25.4961,1.4023 -3,1.0196 -3.9688,0.8477 -4.5625,-2.6406 -1,-5.8086 -4.9375,-8.3203 -9.2774,-5.3008 -4.2461,2.961 -9.039,2.2305 -13.3828,3.9805 -2.5117,1.0195 -6.6719,2.6797 -9.5742,-0.8398 -3,-3.6407 -6.8086,-3.25 -10.7617,-1.9805 -5.9024,1.8906 -9.9414,6.0117 -13.6914,10.75 -2.4766,3.1406 -3.3594,5.8594 -0.7774,9.1601 1.2852,1.6407 1.9063,3.2305 -0.6875,4.8204 -1.7617,-1.3399 -1.5898,-4.3711 -3.7773,-5.1485 -5.0703,1.6485 -6.5078,5.3789 -6.8242,10.25 -0.1446,2.2578 -0.5938,3.1797 2.3125,9.7774 0.2187,-0.1289 0.496,-0.211 0.6445,-0.3907 4.3789,-5.4687 7.1797,-13.2578 16.6211,-11.2382 0.9219,-2.8711 4.6914,-0.09 5.6875,-2.6407 -0.4063,-2.4609 -3.5742,-1.0898 -4.1094,-3.5078 1.2617,-1.5312 2.5664,-3.1719 3.9258,-4.7617 0.4492,-0.5195 -0.3633,-2.4297 1.6719,-1.3203 2.6836,1.4414 6.4062,0.2695 8.5468,3.25 l -0.1289,-0.1094 c -4.9218,2.0586 -0.914,6.2383 -2.164,9.1211 -1.4922,3.4375 1.2773,5.7695 1.0976,9.8399 2.0313,-2.6407 1.5196,-4.793 4.1602,-5.8594 4.4023,-1.7813 8.5312,-3.961 13.4687,-3.3633 -1.3867,1.9727 -0.2304,3.3203 1.0742,4.6328 2.4688,-0.9922 4.8868,-1.9609 7.3125,-2.9219 1.9063,-0.75 1.9141,-2.2304 1.5157,-3.8476 5.1133,1.6562 9.2109,0.3789 12.1836,-4.1836 1.2812,1 2.3593,0.5625 3.3047,-0.5078 0.094,-0.1094 0,-0.5899 -0.1094,-0.6407 -1.4414,-0.5585 -2.4453,-0.051 -3.043,1.3399 m -67.6758,474.0508 c -3.3086,-1.6094 -6.6133,-3.2188 -9.9218,-4.8321 -0.2149,0.5625 -0.4297,1.1329 -0.6446,1.6914 3.461,1.3321 6.0586,5 10.7891,2.8907 0.9336,6.0586 0.9336,6.0586 7.7305,4.039 -2.8672,-1.3984 -5.379,-2.6289 -7.9532,-3.789 m -93.8828,-106.8907 c 3.2969,-0.1484 4.1836,-2.7109 6.5195,-5.8906 -3.7812,1.2422 -6.125,2.0117 -8.5078,2.7813 0.7578,1.1211 1.4688,2.1797 2.25,3.289 -0.2148,1.9493 -2.9179,1.5899 -3.3789,3.7813 1.8594,-0.1602 3.6172,0.7305 5.2461,-0.9297 -0.6953,-1 -1.414,-2.0117 -2.1289,-3.0313 m 421.25,-341.5312 c -0.5078,0.082 -1.043,0.1016 -1.5273,0.2695 -1.8789,0.6328 -5.5352,-2.0468 -5.4766,1.6524 0.055,3.4687 2.7305,-1.0899 4.6953,0.5078 2.1836,1.7812 2.668,1.1836 2.1133,-2.6289 1.2852,0.5898 2.5664,0.6601 2.6016,-1.0977 0.019,-1.0703 -1.2149,-1.6406 -2.2032,-1.2109 -1.3554,0.5703 -0.3164,1.6406 -0.2031,2.5078 m -313.789,425.1914 c 1.7539,1.6992 3.4609,3.5313 7.0351,2.5195 -2.3281,-2.7812 -4.9492,-2.0195 -7.2265,-2.3281 0.4453,-3.0508 -1.8594,-3.9219 -3.957,-4.8828 -1.6329,-0.75 -3.3477,-1.3281 -5.0274,-1.9883 -3.3672,-5.1015 -8.7266,-8.0312 -13.1172,-12.0117 -3.8867,-3.5391 -9.414,-4.2188 -13.3711,-7.5195 -3.4101,-2.8399 -12.2422,-6.9493 -16.789,-7.25 0.6289,-5.3789 -4.3008,-6.3907 -7.2032,-9.8907 -0.6796,4.5118 3.1485,6.7305 3.0235,10.1914 -2.0625,0.2618 -3.7383,-2.4687 -7.1524,-0.5507 3,0.8828 4.4844,5.5312 6.9258,0.332 1.5274,-0.082 3.0508,-0.1719 4.5742,-0.25 -0.8632,1.3086 -1.8047,2.75 0.3868,3.5703 2.3085,0.8672 2.2695,3.0977 3.1679,4.7695 -2.4062,1.5196 -3.7734,-2.8515 -6.9883,-0.8007 1.8829,3.0781 2.0039,7.3398 8.5704,7.5586 -1.836,-2.5586 -4.379,-4.5704 -1.7422,-6.9102 1.8554,1.3828 2.3359,3.2422 2.4414,5.5117 0.1172,2.6094 1.9218,3.3203 3.6836,1.4805 3.2265,-3.3789 5.4843,-0.6211 5.5625,1.6211 0.164,4.5781 4.3476,4.7773 6.4414,7.0586 1.4531,1.5781 4.9961,3.2109 6.8828,0.4883 1.3086,-1.879 -1.25,-3.5782 -2.793,-4.9102 -0.5039,-0.4492 -1.4883,-0.5195 -0.7109,-1.918 4.0078,-0.3906 6.4297,2.5703 8.9961,4.9805 2.6914,2.5195 5.0898,5.3789 9.3633,4.2891 1.121,4.7617 4.5234,6.5195 9.0234,6.8398 m -125.3086,-389.8906 c -0.5859,0.4297 -1.3672,0.75 -1.7148,1.332 -0.668,1.1172 -1,2.3867 0.6289,3.0781 0.9726,0.4102 2.1484,0.4805 2.8007,-0.3593 1.0313,-1.3321 -0.1289,-2.1993 -1.0117,-3.0704 -0.3476,-0.3398 -0.5976,-0.7812 -0.9023,-1.1796 2.1914,0.4492 3.6172,-0.051 3.2265,-2.6719 -0.1054,-0.6992 -0.3164,-1.6485 -1.3125,-1.3985 -1.8203,0.461 -2.25,1.8516 -1.9804,3.5391 0.039,0.25 0.1758,0.4922 0.2656,0.7305 m 508.1406,349.6601 c -1.8047,-1.3203 -3.0351,-0.3398 -3.789,1.1993 -1.4219,2.9218 -3.7969,5.0703 -5.7696,7.5429 -4.2734,5.3594 -4.3086,5.3281 -10.5312,4.6094 0.9726,-2.043 0.75,-4.0625 -0.027,-6.332 -4.2852,2.6093 -5.8203,7.4609 -9.2266,10.6093 -5.1445,4.7422 -6.0156,6.0821 -5.9531,10.711 1.0234,0.051 1.1055,-0.9102 1.6094,-1.4375 4.4804,-4.7305 6.7773,-11.6406 13.8203,-13.793 0.1328,1.3008 -0.2032,3.332 0.4843,3.7813 2.1211,1.3906 2.3985,2.5898 1.1954,4.7812 -6.4922,11.7695 -14.0547,23 -23.9727,31.8789 -4.8008,4.3008 -9.4102,9.5 -15.6836,12.2578 -2.7539,1.211 -4.3711,3.7227 -5.668,6.3711 0,0 -0.2304,0.2891 -0.2304,0.2891 -6.1797,3.8203 -12.918,6.7422 -17.1211,13.332 -1.125,1.7695 -1.961,3.3985 -2.6914,5.3281 -2.1524,5.6719 -7.9571,7.8711 -13.7461,5.4727 0.7617,4.7305 0.8281,4.8398 -2.9649,7.1992 -5.289,3.2891 -9.8203,8.0508 -16.914,8.961 0.2226,-2.7422 3.6289,-3.0625 3.8086,-6.0704 -3.2344,0.9102 -6.0469,2.4805 -9.2344,0.2305 -1.3477,-0.9531 -4.1094,-0.1328 -6.1641,0.2305 -1.3633,0.2383 -2.6445,1.3476 -0.9062,2.6172 1.6328,1.1992 1.4687,2.039 -0.1524,2.5507 -3.25,1.0196 -6.6601,2.629 -9.8789,2.3907 -3.5586,-0.2813 -6.1289,-1.0391 -6.4687,3.7304 -0.074,1 -1.6563,1.1602 -2.7227,0.7696 -7.1133,-2.6211 -14.3984,-1.6719 -21.5429,-0.5821 -5.2071,0.8008 -10.0469,-0.2695 -14.793,-1.6601 -2.7813,-0.8086 -6.207,-2.0586 -5.6367,-6.457 0.2382,-1.8399 -1.043,-2.9102 -2.9688,-2.8399 -1.5195,0.039 -3.1836,-0.332 -3.8555,1.7969 -2.2343,7.0703 -8.2109,8.2617 -14.4726,9.9336 -16.8359,4.5 -33.9688,5.1679 -51.2031,5.1562 -3.6914,-0.01 -7.4141,-0.7773 -11.0118,0.6914 -0.4765,0.1914 -1.2656,0.4102 -1.539,0.1797 -6.3438,-5.4375 -11.8164,0.6992 -17.2227,2.0117 -4.8476,1.1875 -9.7226,1.8399 -14.5429,2.8907 -2.6563,0.5781 -7.3047,-3.1211 -7.8633,3.0195 -3.4141,-3.8828 -7.3086,2.2891 -10.6524,-0.4609 -1.7773,-1.4688 -3.4648,-1.0586 -5.1836,-0.4102 -7.5703,2.8984 -13.3711,-0.012 -17.7929,-5.9102 -1.4141,-1.8984 -1.5508,-0.8398 -2.6016,-0.1601 -4.3672,2.8594 -8.5586,1.8398 -13.3945,0.3906 -9.1797,-2.7422 -17.6524,-7.4492 -27.0781,-9.3789 -1.0313,-0.2109 -2.1485,-0.3203 -3.0586,-0.8008 -12.7422,-6.7109 -25.5899,-13.2422 -38.0938,-20.3711 -3.375,-1.9297 -7.0156,-4.2304 -8.7187,-8.5 -0.9805,-2.4609 -3.6914,-4.4101 -6.4336,-3.6914 -4.2383,1.1211 -6.8047,-1.9179 -7.5039,-4.207 -1.1602,-3.7813 -2.9649,-5.293 -6.5313,-6.1016 -1.6406,-0.3789 -3.2695,-1.8593 -4.3984,-3.25 -7.8399,-9.6797 -18.75,-16.3203 -26.0664,-26.4882 -0.4571,-0.6407 -1.3633,-1.0313 -1.6407,-1.711 -2.6406,-6.4609 -7.1914,-11.3203 -12.5742,-15.5703 -0.7929,-0.6211 -1.4726,-1.6406 -1.7578,-2.6094 -2.168,-7.332 -6.7187,-13.039 -11.9609,-18.4023 -1.7344,-1.7774 -3.668,-4.1367 1.1679,-5.2383 1.7344,-0.3906 0.6211,-4.1797 -1.3437,-3.7109 -5.707,1.3515 -6.6602,-2.711 -8.1563,-6.25 -4.5742,-10.8477 -9.9335,-21.4688 -13.2929,-32.6993 -2.4024,-8 -5.2305,-14.3789 -11.7266,-20.3007 -5.3086,-4.8399 -10.8906,-9.7891 -15.7226,-15.3789 -9.023504,-10.4297 -14.101604,-22.461 -18.027404,-35.5821 -7.6875,-25.6875 -5.625,-51.539 -3.3086,-77.5078 0.3281,-3.6914 0.707,-7.3711 1.086,-11.0508 0.9453,-9.1679 4.25,-17.5703 8.5156,-25.6211 0.6054,-1.1367 1.4648,-1.9492 1.0508,-3.539 -2.0196,-7.7813 -0.5586,-14.5586 5.707002,-20.1406 1.1992,-1.0586 1.902302,-3.3282 1.855502,-5.0079 -0.066,-2.3593 0.4296,-4.1523 2.2304,-5.5703 3.25,-2.5508 3.8828,-5.7695 1.6172,-9.0508 -1.8515,-2.6992 -1.3711,-4.8984 0.1445,-7.3085 2.5547,-4.0704 6.168,-7.8711 3.293,-13.3399 -0.2656,-0.5 0.1563,-1.6133 0.5899,-2.2031 5.7109,-7.7578 5.1484,-17.5469 8.457,-26.1094 2.0859,-5.3984 4.043,-10.8281 7.1094,-15.707 1.2304,-1.961 1.1562,-4 1.789,-5.9727 1.5235,-4.7383 2.3985,-9.8398 8.2774,-11.5976 2.0586,-0.6211 2.625,-2.1602 1.3047,-4.3711 -1.5196,-2.5508 -0.2774,-5.2813 0.9609,-7.4805 3.7539,-6.6602 7.7773,-13.1719 11.8359,-19.6602 0.9571,-1.5195 2.4024,-3.75 3.7305,-3.8281 3.3477,-0.2031 3.1133,-1.6523 2.5195,-3.9922 -0.3476,-1.3593 0.4297,-2.6992 1.3711,-3.5898 5.0352,-4.7891 7.9805,-11.8399 15.0274,-14.4297 3.7226,-1.3711 2.3164,-6.4805 6.7109,-7.6289 1.293,5.3477 7.7227,3.7383 11.0117,7.2383 0.2657,0.2812 3.586,-2.3203 6.2578,-4.0899 -5.9296,-2.9609 -4.2343,-8.75 -5.3281,-13.1679 -0.7851,-3.1602 3.2188,-6.9219 5.6641,-10.043 0.8008,-1.0195 2.0351,-2.6289 2.8984,-2.5195 5.586,0.6797 9.1992,-7 15.3438,-3.5078 0.3281,0.1796 1.1445,-0.012 1.4218,-0.3125 5.2852,-5.668 5.1993,1.4101 8.7266,2.8906 -4.6641,2.1211 -7.6797,5.2304 -11.9453,4.1914 -6.9102,-1.6914 -9.8789,-0.9102 -14.4649,4.7773 3.2071,1.1133 7.1211,-1.0586 9.4415,2.8321 -4.6758,1.2382 -3.586,6.0312 -4.4805,9.5703 -0.8555,3.3906 1.5469,8.039 -4.8945,8.1093 -1.2735,0.012 -0.9649,1.7891 -0.043,2.3711 2.7031,1.7188 -1.1172,6.3672 3.4921,7.3789 0.8125,0.1797 0.055,2.4297 -1.0859,3.2813 -3.0469,2.2695 -3.7617,4.1797 0.6563,5.5703 0.4453,0.1484 0.9453,0.6367 1.1054,1.0899 1.5547,4.289 4.2891,3.2773 5.1875,0.289 1.3008,-4.3086 4.4024,-3.7812 6.6407,-2.8594 2.6367,1.0899 3.8125,0.5196 5.957,-0.9726 3.1094,-2.1485 0.8945,-3.668 0.6015,-5.8477 -0.957,-7.0312 -2.4023,-13.6797 -7.5937,-18.9922 -0.5781,-0.5898 -0.7891,-2.6289 -0.4219,-2.8789 3.6602,-2.4609 2.5977,-8.0312 7.0742,-10.4414 1.6055,3.4219 5.9727,4.8907 5.3516,9.5821 -0.1523,1.1914 1.0547,1.25 2.1328,1.5703 2.8594,0.8593 5.7461,1.9297 8.3008,3.4492 1.7891,1.0703 2.8008,0.3008 2.8828,-0.9297 0.3399,-5.1016 3.6992,-4.3789 6.7656,-3.5391 2.625,0.7188 3.1172,0.668 3.836,-2.4921 0.7812,-3.4297 3.6484,-6.5782 6.125,-9.3907 1.4883,-1.6992 3.0117,-2.4179 -0.1133,-3.75 -0.7227,-0.3086 -0.3789,-1.6992 0.4141,-1.9062 3.3671,-0.8711 4.8828,-4.9414 9.375,-5.2422 -1.1016,5.6406 -0.7266,10.4687 5.7773,12.1719 2.7148,0.707 0.9687,2.25 0.2617,3.5078 -1.4336,2.539 -0.1523,3.3398 2.2344,3.3789 -0.6211,1.3398 -1.7695,2.4023 -3.082,1.582 -4.1954,-2.6094 -4.3243,-0.4492 -3.7618,2.9102 0.1329,0.8086 -0.2382,1.5 -1.5429,1.8789 -1.6953,-2.3477 -3.6055,-5.461 -7.1016,-1.9102 0.4844,1.0703 1.3789,1.2891 2.4727,1.5313 2.2578,0.4883 3.207,2.2187 1.1953,3.6484 -4.1367,2.9414 -6.4297,7.2617 -9.3946,11.082 -1.6054,2.0782 -3.996,2.1797 -5.4375,0.7305 -1.7148,-1.75 -2.3046,-2.4023 -3.9726,-0.031 -1.1211,1.5898 -2.1055,2.289 -0.7852,4.5586 2.211,3.8125 4.4102,6.2695 9.1524,4.3125 2.2734,-0.9415 3.3945,0.3671 3.9414,2.4882 0.539,2.1016 1.039,4.3203 -0.094,6.1914 -1.1172,1.8282 -1.8555,3.2891 0.4219,4.5508 1.7539,0.9688 3.6367,2.9297 5.6484,0.7969 1.5352,-1.6289 3.8828,-1.168 5.4258,-2.9883 2.9648,-3.5 3.1367,-5 -0.4961,-7.6289 -4.3047,-3.1211 -9.3867,-5.1211 -13.3203,-9.25 4.8984,-1.3516 6.8672,-5.5117 8.6211,-9.3711 2.832,0.4297 3.4062,4.0078 6.7148,3.0078 -1.8945,-4.5586 -2.0273,-7.7187 3.9141,-9.4687 2.8945,-0.8399 5.9922,-4.1485 6.582,-8.1485 -1.8125,-1.4414 -3.5273,-1.3593 -5.2734,-0.289 2.8554,-0.3125 4.4687,-2.4414 6.8086,-4.711 -5.4336,-1.0195 -4.0274,-4.8007 -3.625,-8.1211 0.1171,-0.9687 0.5195,-2.1601 1.914,-2.1484 6.5625,0.078 8.7656,-7.5117 14.7852,-8.3633 0.1758,-4.1679 2.7344,-2.2265 4.0859,-1.2578 2.2539,1.6211 4.1133,3.7891 6.7461,6.3008 2.1367,-7.1797 1.8477,-13.5625 0.5274,-19.8711 -0.4571,-2.1992 -1.1641,-4.0586 0.8984,-5.7305 1.0351,-0.8398 2.0234,-1.8008 3.4609,-0.8984 1.2696,0.7891 0.3672,1.8086 0.2813,2.8008 -0.3867,4.2265 0.2344,4.9179 3.8242,3.039 3.5352,-1.8515 6.875,-2.082 10.5469,-1.082 5.1562,1.4023 9.1054,-0.1992 11.8047,-4.8281 -0.9922,-2.461 -2.5782,-1.211 -3.9258,-0.7227 -1.7696,0.6406 -3.1797,0.4805 -3.7149,-1.5195 -0.4492,-1.668 -0.043,-3.3086 1.6016,-4.0469 2.1484,-0.9805 4.3906,-1.9727 6.6875,-2.332 3.7344,-0.5899 4.7695,0.5898 4.8672,4.9687 0.039,1.6719 0.3906,3.1914 1.582,4.3321 1.3711,1.3007 2.9414,1.0195 4.2969,-0.07 1.625,-1.3008 0.1875,-1.9805 -0.5547,-3.0821 -3.1719,-4.707 -3.0273,-5.5195 2.3867,-6.75 6.4453,-1.457 13.0625,-1.9492 19.7735,-1.5078 1.1211,3.668 -5.8789,2.3984 -3.9805,6.2383 1.0195,2.0625 2.8125,3.7695 5.8945,4.1328 -0.6406,-3.25 1.5899,-5.8399 0.8477,-9.2617 -0.6367,-2.9414 2.0898,-5.25 4.2695,-6.961 7.668,-6.0078 15.3164,-11.7968 25.3125,-14.0586 6.3359,-1.4296 12.25,-4.761595 18.707,-6.339795 2.2735,-0.5508 3.5,-0.4492 5.5782,0.8985 3.4609,2.2422 7.3632,3.519495 11.332,-0.2969 2.7578,-2.6524 7.4531,-1.2734 10.7695,-3.8633 0.9336,-0.7305 3.8867,1.3008 5.0586,3.043 1.2617,1.8789 3.1953,2.7695 4.6953,1.789 5.8985,-3.8711 11.0625,-0.8125 15.461,2.1094 9.3593,6.210895 20.164,9.160095 29.9023,14.429695 4.0195,2.1718 8.9961,3.0703 10.6445,8.289 0.2735,0.8711 1.1485,1.4219 1.8047,1.0899 5.6641,-2.8672 8.1485,1.7695 10.7227,4.9414 2.7266,3.3594 6.7656,4.1211 10.1289,5.6719 5.668,2.6172 11.3086,5.2773 16.4375,8.4179 2.3945,-1.3984 -2.4805,-5.5898 1.2422,-4.3281 5.6172,1.8985 10.3555,-0.5312 15.25,-1.1015 9.0508,-1.0704 17.8437,0.3007 26.7422,0.621 1.7187,0.07 3.2226,0.879 3.9414,2.3282 3.7656,7.6289 11.164,11.25 17.1328,16.5625 7.2539,6.4375 15.5273,12.3086 20.7617,20.5976 2.2422,3.5508 5.3711,6.4414 8.1602,7.9219 6.0507,3.2305 9.7851,9.25 16.082,11.8086 1.832,0.75 2.6289,1.8086 1.3945,3.5508 -0.7343,1.0273 -3.2773,1.4297 -0.7773,3.1992 1.0586,0.75 2.1914,1.9297 3.3672,0.4219 1.75,-2.25 2.7031,-0.4805 4.3984,0.2383 5.8945,2.5 9.2266,7.7382 13.6953,11.75 1.8477,1.6601 0.7188,2.3086 -0.7187,3.4179 -1.5586,1.2032 -2.2071,2.6211 -0.062,4.4805 5.4609,4.7305 10.1797,9.9414 9.5937,18.0625 -0.1445,1.9805 1.4961,2.4687 3.3281,1.3789 2.5274,-1.5 4.1563,-5.5 7.668,-4.1016 2.6719,1.0704 3.3203,4.6524 5.1602,6.8633 3.332,4.0078 7.5937,7.3086 9.0781,12.6289 l 0.2109,-0.1406 c -2.2148,0.051 -4.914,-0.6992 -6.2695,1.3711 -0.7266,1.1289 -3.1172,1.6172 -2.1445,3.6094 1.0234,2.1211 2.6054,1.2109 3.8984,0.3203 1.5117,-1.0391 3.0039,-0.4727 4.5234,-0.2813 l -0.246,-0.3203 c -0.031,1.5391 -0.7188,3.5703 0.01,4.5391 7.414,9.832 9.2578,22.0234 14.0351,32.9531 5.082,11.6172 6.8125,24.3789 10.3203,36.5586 0.5821,2.0195 1.2305,4.0195 2.0821,5.9609 -1.3711,-22.2109 -9.1797,-42.8125 -17.0899,-64.7617 4.1953,2.211 4.0586,5.3906 5.1914,7.711 9.582,19.7187 14.3555,40.8593 17.6289,62.3203 2.6172,17.1601 3.6524,34.539 3.9258,51.8789 0.3086,19.3711 -1.9375,38.5898 -6.7422,57.4101 -2.2109,8.6524 -3.2812,17.6797 -8.082,25.5703 -0.8828,1.4493 -0.6563,3.6016 -0.875,5.4415 -0.5078,4.2578 -1.4102,8.6093 -4.1367,11.8398 -2.3321,2.75 -3.5078,5.6602 -3.9532,8.9883 -0.2695,1.9804 -0.9843,3.3711 -2.664,4.5508 -5.5313,3.8789 -8.7696,9.7187 -10.8399,15.7187 -1.9257,5.582 -5.4922,10.1602 -7.5781,15.5508 -1.0195,2.6289 -2.1406,6.5312 -4.2969,0.3594 -0.3593,-1.0391 -2.6445,-0.418 -3.1015,1.0507 -2.1524,6.8907 -7.4375,11.9102 -10.6211,18.1797 -0.4649,0.9102 -1.3438,1.6211 -0.1367,2.6289 0.9062,0.75 4.6562,0.2618 2.4492,2.043 -2.4531,1.9688 -1.7305,6.2188 -5.9141,6.6992 -5.1914,0.5782 -6.1719,3.3399 -3.6094,7.6485 0.7227,1.2109 3.3633,4.3906 -1.625,3.5312 -1.4179,-0.25 -1.6836,0.6992 -1.5664,1.9688 0.211,2.289 -2.0039,3.6015 -2.4257,5.6601 0.7148,1.2422 1.7187,0.8321 2.7343,0.5117 2.75,-0.8515 3.7578,0.3672 2.4532,2.711 -2.9024,5.2187 -6.0782,10.289 -11.125,15.4179 -0.211,-4.2304 2.9414,-5.9179 3.3515,-8.6796 -0.9961,-2.4805 2.9883,-3.3321 2.0664,-6.3907 -2.2734,2.0899 -2.0625,4.3321 -2.0937,6.5"
     id="path6" />
</svg>
