<?xml version="1.0" encoding="UTF-8" standalone="no"?>
<svg
   width="1200"
   height="400"
   viewBox="0 0 1200 400"
   version="1.1"
   id="svg728"
   xmlns="http://www.w3.org/2000/svg"
   xmlns:svg="http://www.w3.org/2000/svg">
  <defs
     id="defs728" />
  <path
     fill-rule="evenodd"
     fill="#000000"
     fill-opacity="1"
     d="m 1117.6372,216.33362 c -1.047,0.27484 -1.803,0.89326 -1.466,2.0615 0.1329,0.47052 1.2719,1.10477 1.3486,1.02547 0.6538,-0.65009 1.1645,-1.44835 1.7009,-2.19371 -0.5262,-0.29595 -1.0471,-0.59204 -1.5835,-0.89326 M 260.20865,198.21839 c 0.3014,-2.38411 -0.3116,-3.22447 -1.2719,-3.6686 -1.45051,-0.67661 -1.77231,0.56565 -1.93066,1.58057 -0.16855,1.07311 0.22464,2.1408 1.30249,2.47911 1.18494,0.36483 1.89497,-0.36469 1.90007,-0.39108 m 35.09553,-57.32711 c -0.33709,-0.91979 -0.3269,-2.35231 -1.82854,-1.85013 -0.44445,0.14804 -1.04712,1.17352 -0.91439,1.55404 0.33722,0.93562 0.95519,2.34176 1.63449,2.46328 1.29229,0.21679 1.13394,-1.17866 1.10844,-2.16719 M 1021.6057,72.881127 c -0.4035,-1.258094 -1.4608,-1.273927 -2.3904,-1.110051 -0.5107,0.07984 -1.374,0.7823 -1.3229,1.067695 0.2248,1.273927 1.3229,1.379749 2.3036,1.152407 0.521,-0.12179 0.9552,-0.729524 1.4097,-1.110051 M 152.67441,190.25763 c 0.0562,0.85632 -0.0301,1.82889 0.21955,2.67993 0.2759,0.94618 0.80704,0.93562 0.98579,0.069 0.12815,-0.6237 0.13795,-1.27392 0.13795,-1.92415 -0.0131,-0.90382 -0.41882,-1.21574 -1.34329,-0.82452 m 679.01871,155.13462 c 1.71112,-0.16388 2.17087,-1.48544 2.65612,-2.59549 0.58737,-1.36906 -0.48525,-1.76027 -1.41482,-1.71792 -1.12374,0.0365 -2.90128,-0.33831 -2.54889,1.82361 0.14305,0.8934 0.86327,1.68098 1.30759,2.4898 M 203.44067,294.55115 c 0.50054,1.03075 1.33819,1.65445 2.41081,1.39545 0.3014,-0.069 0.66922,-1.18935 0.52617,-1.66515 -0.3014,-0.99895 -1.01652,-1.95054 -2.19636,-1.42183 -0.40862,0.17971 -0.51075,1.11005 -0.74062,1.69153 m -12.59068,-99.41988 c 1.14924,-0.29595 1.90006,-1.09421 1.77754,-2.27301 -0.0353,-0.36469 -1.11355,-0.9091 -1.68562,-0.88271 -1.14924,0.0839 -1.97669,0.89327 -1.68052,2.15136 0.10199,0.44941 1.03692,0.67661 1.5886,1.00436 M 792.70031,356.3661 c -0.664,0.3383 -2.33929,0.84035 -2.31379,1.22101 0.11768,1.97165 1.2821,3.16628 3.36091,3.15045 1.24116,-0.0135 1.94609,-0.71356 2.01251,-1.85541 0.10723,-1.90291 -1.37402,-2.16191 -3.05963,-2.51605 M 501.14797,296.24268 c -0.66909,0.52857 -1.34852,0.79813 -1.53237,1.28448 -0.45451,1.16824 0.15835,2.02984 1.23097,2.38398 1.11355,0.39122 2.17087,-0.0271 1.96139,-1.35322 -0.13272,-0.85105 -1.08791,-1.54349 -1.65999,-2.31524 m -9.02553,2.26232 c -0.16855,-0.38052 -0.3371,-0.78757 -0.50564,-1.17879 -1.20547,0.74536 0.16854,-0.3647 -0.10723,1.04144 -0.19404,1.00437 -0.11768,1.4378 0.48525,1.12589 0.15835,-0.0839 0.0915,-0.63954 0.12815,-0.98854 m 201.01694,25.80656 c -1.09812,0.41747 -1.609,1.36378 -1.3178,2.39453 0.39333,1.45892 1.51707,2.34176 2.97779,1.66515 1.06242,-0.48635 1.06242,-1.69153 0.5926,-2.70645 -0.43425,-0.96215 -1.04712,-1.7868 -2.25259,-1.35323 M 208.65626,251.11571 c 0.60777,-0.28539 1.50164,-0.39649 1.75702,-0.86687 0.48015,-0.91979 -0.0209,-1.27393 -0.94997,-0.72953 -0.57207,0.32248 -1.09825,0.74008 -1.64992,1.12061 0.281,0.14804 0.56187,0.31192 0.84287,0.47579 M 1052.4828,99.03641 c 0,-1.353225 -0.6436,-2.12497 -1.7009,-2.204269 -0.526,-0.02571 -1.374,0.391218 -1.5578,0.840489 -0.4189,1.025474 0.1176,1.908183 1.1237,2.230657 0.9552,0.327753 1.844,0.137483 2.135,-0.866877 M 367.33988,289.64043 c -0.70492,-0.51274 -1.46084,-1.06783 -2.22199,-1.63876 -0.30127,0.52857 -0.91427,1.11005 -0.83765,1.58585 0.18385,1.37961 0.87857,2.51618 2.48757,1.94526 0.31147,-0.10555 0.35239,-1.07839 0.57207,-1.89235 M 207.05695,124.72131 c 1.07772,-0.29608 1.88476,-0.82465 1.43534,-2.16205 -0.34742,-1.03075 -1.10334,-1.76027 -2.19636,-1.61223 -1.11355,0.13749 -1.88477,0.86688 -1.48124,2.13553 0.3218,1.04672 1.15944,1.58584 2.24226,1.63875 m 105.22045,-0.4969 c 0.91426,-0.42288 2.09411,-1.00437 1.64979,-2.06164 -0.22478,-0.52329 -1.79285,-0.59204 -2.74804,-0.56551 -0.3932,0.0135 -1.12362,0.87743 -1.07262,1.27392 0.15835,1.17352 0.99599,1.6757 2.17087,1.35323 m 45.67383,-12.02044 c -0.57207,0.21666 -1.66012,0.59732 -1.66012,0.63954 0.40352,1.41669 1.51707,2.13552 2.78373,2.42105 0.43426,0.0947 1.42515,-0.55509 1.46595,-0.93562 0.20947,-1.97706 -1.38422,-1.83957 -2.58956,-2.12497 m 524.06893,243.24234 c -0.61287,-0.51274 -1.39442,-1.70209 -2.11464,-1.66514 -1.49144,0.0839 -2.16054,1.4378 -1.97669,2.96545 0.13285,1.11006 0.945,1.95054 2.01252,1.76028 1.36382,-0.24317 2.35471,-1.11005 2.07881,-3.06059 M 297.69969,83.691101 c -1.16454,-0.216787 -2.09411,0.206096 -2.4312,1.326702 -0.40863,1.342671 0.50564,2.124971 1.61906,2.029839 0.88877,-0.07984 2.17086,-0.634257 2.47226,-1.337393 0.53625,-1.247404 -0.58737,-1.813052 -1.66012,-2.019148 m -16.22736,93.916979 c 0.26048,1.42197 1.2923,1.58057 2.29849,1.50127 1.17984,-0.0947 1.95119,-0.91979 1.11355,-1.98762 -0.48525,-0.63953 -1.67542,-0.81396 -2.58969,-0.92506 -0.23498,-0.0257 -0.58737,0.98853 -0.82235,1.41141 m -40.58141,28.87757 c 0.57207,-0.28539 1.57826,-0.55496 1.58336,-0.85632 0.051,-1.89235 -1.57826,-1.79722 -2.7377,-2.04039 -0.45975,-0.0947 -1.49654,0.48634 -1.51707,0.8141 -0.10723,1.94526 1.58349,1.64917 2.67141,2.08261 m 561.51421,114.9978 c 0.74572,-0.39649 1.55277,-0.5444 1.78774,-1.01491 0.50055,-0.98854 0.23498,-2.07206 -0.82234,-2.54786 -0.90407,-0.4176 -2.07894,-0.34886 -2.11974,0.91979 -0.0262,0.86688 0.74572,1.76028 1.15434,2.64298 M 131.92657,224.60629 c -0.0719,-1.49071 -0.50565,-2.88616 -2.14014,-2.87033 -1.12884,0 -1.52217,1.23157 -1.19017,2.22011 0.3014,0.87743 0.90917,1.96109 1.65999,2.2994 1.2515,0.58148 1.49157,-0.66606 1.67032,-1.64918 m 38.97752,10.47153 c -0.13795,-2.67993 -1.04202,-3.6261 -2.45174,-3.99093 -1.13394,-0.29595 -2.04821,0.22734 -1.92569,1.50127 0.16345,1.63862 0.2759,3.65263 2.55386,3.54694 0.84288,-0.0419 1.63959,-0.94618 1.82357,-1.05728 m -1.15944,7.34761 c -0.9399,-0.36469 -1.55277,-0.042 -1.50177,0.90924 0.0771,1.3903 0.11768,3.00253 1.86436,3.28793 0.45975,0.069 1.33819,-0.59732 1.52217,-1.12589 0.64347,-1.79735 -0.86327,-2.34175 -1.88476,-3.07128 m 82.68983,28.60814 c -0.19404,-1.1524 -0.85804,-1.98761 -1.95119,-2.05636 -1.05719,-0.0839 -2.22186,0.40705 -1.55277,1.74444 0.37803,0.75592 1.52217,1.2581 2.42114,1.54349 0.69473,0.24318 1.13395,-0.40705 1.08282,-1.23157 m 530.80121,73.6979 c -1.19018,0.17443 -2.01762,1.01492 -1.64992,2.10914 0.43425,1.32683 1.47614,2.44744 3.034,2.34175 1.13905,-0.069 1.97682,-0.9727 1.68562,-2.1251 -0.36259,-1.47475 -1.60899,-2.17775 -3.0697,-2.32579 M 1120.5283,237.15002 c 1.1645,-0.14805 1.6447,-0.8934 1.5426,-2.02984 -0.077,-1.00437 -0.4445,-2.16733 -1.609,-1.49071 -0.664,0.38066 -0.9654,1.5964 -1.2004,2.50563 -0.056,0.21678 0.8224,0.67661 1.2668,1.01492 M 267.25736,115.48122 c -0.0249,-1.87124 -1.39952,-2.19372 -2.73771,-2.46328 -1.19527,-0.24318 -2.02782,0.38066 -2.11974,1.58057 -0.14305,1.81305 1.08282,2.43689 2.56916,2.45272 1.00619,0.0257 1.98689,-0.32775 2.28829,-1.57001 m 8.73433,-3.95386 c -1.56807,-0.22734 -2.64082,-0.0135 -2.77354,1.1788 -0.12814,1.13644 0.74572,2.04567 1.79284,2.20427 1.28197,0.19026 2.91646,0.19026 2.66618,-1.81319 -0.0771,-0.703 -1.33309,-1.2581 -1.68548,-1.56988 M 173.86657,198.0809 c -0.86837,0.52857 -1.75714,0.74536 -1.88986,1.18935 -0.51075,1.71792 0.3524,2.74881 2.00729,2.94963 0.92459,0.0947 2.50286,0.0947 2.28318,-1.01492 -0.22974,-1.18935 -1.57826,-2.12497 -2.40061,-3.12406 M 313.09974,84.843372 c -0.44445,-1.152271 -1.39442,-1.760276 -2.36491,-1.379613 -0.83765,0.338306 -1.80304,1.231571 -2.03802,2.066782 -0.2912,1.099495 0.70493,2.193714 1.75192,1.924151 1.19017,-0.29595 2.47226,-1.014919 2.65101,-2.61132 m 65.76278,26.710378 c 0.0615,-1.45891 -0.79685,-1.9611 -1.95119,-1.69153 -1.63449,0.39649 -1.98702,1.82902 -1.91039,3.33015 0.0562,0.9727 -0.0249,2.46328 1.59879,1.74444 1.33309,-0.59203 1.96139,-1.94526 2.26279,-3.38306 m -213.33695,86.83907 c -0.6742,-0.79827 -0.37293,-3.01837 -2.32922,-2.14094 -0.57207,0.25901 -1.02659,1.85541 -0.80691,2.60077 0.22464,0.74535 1.31779,1.64931 2.09411,1.71792 1.24116,0.11096 1.35362,-1.03076 1.04202,-2.17775 m 98.21253,107.89323 c 1.20547,-0.0271 2.11974,-0.76119 1.93576,-1.88179 -0.12814,-0.82466 -0.99586,-1.73376 -1.77231,-2.16719 -0.9501,-0.52871 -2.05331,-0.0798 -2.25769,1.13643 -0.27067,1.58585 0.51598,2.62716 2.09424,2.91255 m 376.66854,36.38919 c -2.53856,3.9751 -3.04931,7.04625 2.59989,8.19865 1.00619,-3.34084 0.37789,-6.03674 -2.59989,-8.19865 m 396.41006,-6.8507 c -1.3076,0.24317 -2.8245,0.44927 -2.3546,2.35759 0.4853,1.96109 2.1707,2.4473 3.8972,2.46327 1.1901,0.0135 1.803,-0.85632 1.7928,-1.99289 -0.041,-2.20427 -1.4659,-2.82797 -3.3354,-2.82797 m -187.73154,20.05521 c -2.30359,-0.28553 -3.28428,-0.59204 -4.22405,-0.47052 -1.84397,0.22734 -4.9699,-0.30123 -4.48465,2.52674 0.42902,2.57438 3.13613,1.71792 4.9699,0.74536 0.86314,-0.44399 1.60886,-1.17879 3.7388,-2.80158 M 290.78383,85.683861 c -1.27189,-2.732839 -3.23328,-3.277378 -5.67992,-2.045671 -0.3524,0.17443 -0.61287,1.569877 -0.38822,1.786664 1.87966,1.733888 3.90748,2.325924 6.06814,0.259007 m 673.2266,-9.82672 c -0.76115,-3.071146 1.12362,-5.941473 -2.57949,-7.34761 -0.49544,-0.174431 -1.63449,0.163876 -1.73661,0.502182 -0.9399,3.13989 0.19405,5.264861 4.3161,6.845428 M 532.5812,307.82968 c -1.38408,0.1586 -2.80923,0.40163 -2.91645,2.18843 -0.10199,1.58571 0.83764,2.65354 2.31378,2.88616 1.55787,0.25373 2.56406,-0.59731 2.69691,-2.24662 0.12815,-1.54349 -0.32689,-2.73284 -2.09424,-2.82797 m 111.98319,8.45766 c -0.0915,-0.57093 -0.0667,-0.93562 -0.20947,-1.19463 -1.0215,-1.70222 -2.68162,-2.04053 -4.41823,-2.00345 -1.12885,0.0311 -2.09424,0.77174 -1.63449,1.99276 0.53637,1.48544 2.17086,1.50127 3.42223,1.69153 0.90407,0.14805 1.90006,-0.30123 2.83996,-0.48621 m 444.72461,-3.34612 c 3.5958,1.17879 6.5379,1.89776 8.9336,-0.97257 0.2451,-0.29608 -0.5262,-2.22023 -1.1902,-2.53202 -3.1924,-1.44835 -5.9914,-1.13657 -7.7434,3.50459 m -576.36249,-9.55188 c 1.79284,0.0257 2.81433,-0.96201 2.72241,-2.46328 -0.15835,-2.36814 -1.88477,-3.50458 -4.0147,-3.59985 -1.20547,-0.069 -2.96759,0.17457 -2.58969,2.08275 0.43425,2.12497 2.05344,3.35668 3.88198,3.98038 M 941.90897,67.39948 c -1.20037,1.083663 -1.22587,2.532021 -0.82234,3.911635 0.27577,0.946175 1.34852,2.151493 2.06351,1.025474 0.6436,-0.999087 0.3269,-2.732839 0.24007,-4.138976 -0.0667,-0.851044 -0.74572,-1.120607 -1.48124,-0.798133 M 1099.239,196.55324 c -7.7639,-1.47474 -7.7639,-1.47474 -13.4795,1.09422 3.8718,-1.311 7.9886,0.57093 13.4795,-1.09422 M 235.59412,116.98248 c 0.53638,4.46673 -1.59866,7.36345 1.80304,9.35107 0.42405,0.24317 1.69582,-0.0798 1.85417,-0.45997 1.16454,-2.81741 0.27577,-5.19611 -3.65721,-8.8911 M 396.07058,330.1579 c 1.38421,-0.0839 2.44153,-0.8141 2.06351,-1.90832 -0.6538,-1.8554 -1.26667,-4.14425 -3.54476,-4.5513 -1.07261,-0.18499 -1.78774,1.07311 -1.71111,2.16733 0.14305,2.19371 0.75592,4.1548 3.19236,4.29229 M 631.14626,63.868373 c 0.26558,-2.124971 -0.46995,-3.816503 -2.49776,-3.990934 -2.65088,-0.243174 -3.46303,1.744444 -3.51416,4.165365 -0.0562,2.299401 1.22587,3.097669 3.22806,3.155857 2.27299,0.05278 2.95751,-1.30045 2.78386,-3.330288 M 400.1721,111.78637 c -0.37789,-2.1515 -1.76211,-3.00254 -3.65707,-2.53202 -1.48138,0.36469 -4.14756,-0.16388 -3.91258,2.2201 0.23497,2.44744 2.95738,2.58493 4.90347,2.82797 1.46594,0.1904 2.48744,-0.85104 2.66618,-2.51605 m 28.47088,196.66173 c -0.71002,2.53202 -3.16686,4.82087 0.0615,7.37928 0.71002,0.55509 2.44664,0.9727 2.81446,0.56565 2.69181,-2.94963 -0.14305,-5.03238 -1.38932,-7.34761 -0.12814,-0.23262 -0.59757,-0.25901 -1.48634,-0.59732 m -270.3603,-83.47711 c -0.58737,4.57241 0.46485,7.53787 1.86947,10.32362 0.3218,0.63439 1.84906,0.99909 2.72241,0.85104 1.24639,-0.20082 1.39454,-1.55404 0.9042,-2.50022 -1.40985,-2.70645 -2.08915,-5.93105 -5.49608,-8.67444 M 901.8336,354.25696 c -3.59589,-0.12179 -6.74745,-0.35428 -9.87338,-0.24318 -0.82234,0.0271 -1.72641,1.09422 -1.49144,2.28885 0.11768,0.60787 0.6538,1.60696 1.06242,1.63334 3.63158,0.32776 7.94768,2.62716 10.3024,-3.67901 M 886.45408,72.637952 c 0.78652,-1.924151 1.49144,-2.828106 1.44031,-3.694983 -0.14305,-2.325789 0.0405,-4.995297 -2.73261,-6.063128 -0.53637,-0.216651 -1.47614,-0.216651 -1.85926,0.121791 -2.39041,2.220102 -0.15325,4.397983 0.3269,6.522954 0.19914,0.824656 1.25646,1.432525 2.82466,3.113502 m -516.41755,8.76958 c 3.97377,0.729388 8.44313,3.055313 12.87665,0.903819 -4.3008,-0.29595 -8.59128,-0.607869 -12.87665,-0.903819 M 304.79979,298.69554 c 2.15557,6.15285 6.252,4.93711 10.6191,2.73284 -3.54476,-0.91979 -7.08964,-1.82902 -10.6191,-2.73284 m 425.72381,61.46067 c -0.20948,-4.5195 -3.41203,-4.54589 -6.45624,-4.58825 -1.36382,-0.0135 -2.68161,0.52857 -2.96771,2.17789 -0.383,2.24649 1.06752,3.08697 2.83486,3.37251 2.24736,0.39108 4.56638,0.703 6.58909,-0.96215 m 16.46234,0.45996 c 4.90347,0.29595 8.49935,0.74536 12.06973,0.63426 2.17074,-0.0636 2.48744,-1.41656 1.48125,-3.63679 -0.71003,-1.56988 -2.14524,-4.39799 -2.53857,-3.42529 -1.91039,4.80503 -7.26838,2.55841 -11.01241,6.42782 M 314.23905,311.049 c -2.18107,1.73375 -0.6538,4.40854 -0.9552,6.62864 -0.27067,1.93471 -1.46084,4.30285 1.32289,5.42874 0.56187,0.22734 1.46594,0.12179 1.94609,-0.21665 2.23716,-1.55946 3.40184,-3.96455 2.13504,-6.3856 -0.99599,-1.92416 -0.59247,-5.29125 -4.44882,-5.45513 M 1127.562,256.06893 c -1.2259,-4.48256 -2.1709,-8.23046 -3.3201,-11.89892 -0.3167,-0.99908 -1.4148,-1.62279 -2.5488,-1.1999 -1.0726,0.39108 -1.4659,1.406 -1.3076,2.50022 0.6129,4.31868 1.2667,8.62153 7.1765,10.5986 M 437.27022,80.567179 c 6.52777,4.503671 7.83536,4.614635 14.593,1.569877 -4.53578,-1.284482 -8.6832,-2.627152 -14.593,-1.569877 m 7.95291,7.363443 c -2.88089,-0.518015 -3.75423,-0.09473 -4.09656,1.051862 -0.3269,1.083663 0.11769,1.934707 0.83778,2.801584 1.58336,1.908319 4.03,0.8141 5.63899,1.839575 2.92666,1.87124 5.3325,2.193714 6.01179,-1.823743 0.57717,-3.494029 -2.52326,-2.193714 -4.23438,-2.637707 -1.97668,-0.518015 -3.91244,-1.152272 -4.15762,-1.231571 M 195.46252,113.00224 c 3.17196,3.22447 6.53287,1.15241 9.42905,2.27302 2.17584,0.82993 3.58046,-1.60696 3.15653,-4.13898 -0.35749,-2.15136 -1.85403,-3.1928 -3.7337,-2.12497 -2.63571,1.49071 -6.13967,0.69244 -8.85188,3.99093 M 714.10206,66.384696 c 2.89096,-8.188099 2.89096,-8.172266 -3.94841,-8.214486 -2.04311,-0.01353 -4.08112,-0.02707 -6.11914,-0.04195 -2.02768,-0.01353 -3.24335,0.666057 -2.51293,3.102946 0.56187,1.892351 0.81214,5.34416 3.54475,2.680064 4.55108,-4.466728 5.48065,1.945262 9.03573,2.473832 m 156.32367,3.652627 c 5.54197,0.0839 6.14477,-0.322474 5.6237,-4.709902 -0.11768,-0.983119 -0.3677,-2.299402 -1.03679,-2.812139 -3.32011,-2.637707 -6.68102,7.495653 -10.32803,0.06902 -0.19404,-0.422883 -1.49144,1.051862 -1.58336,2.135525 -0.20948,2.600765 -0.36783,5.238473 3.24335,5.360128 1.03183,0.04195 2.07895,-0.01624 4.08113,-0.04195 M 805.1125,348.91388 c -2.78883,1.01492 -6.80353,1.69153 -8.13663,5.3443 -1.17487,3.21919 2.40571,6.13173 6.22637,6.30616 7.33481,0.33831 0.23497,-7.82326 5.04653,-9.13427 0.32689,-0.0947 -1.07275,-2.15136 -3.13627,-2.51619 M 343.44022,113.7909 c -0.0667,-2.39453 -1.70092,-3.30376 -3.44264,-2.8438 -3.698,0.98839 -7.36031,1.56988 -11.17586,1.73375 -1.76722,0.069 -3.38641,1.74444 -2.99818,3.6686 0.48511,2.36814 2.63048,1.81305 4.14742,1.13643 3.34561,-1.49071 6.12934,-4.04912 10.02662,-0.0419 1.79285,1.85541 2.99832,-1.5964 3.44264,-3.65276 m -47.9263,-1.53293 c 5.46535,4.45617 10.98679,1.34267 15.66549,3.42542 0.9552,0.43344 2.54889,-1.01492 2.72254,-2.59549 0.16855,-1.61223 -0.86327,-2.79103 -2.18617,-3.23502 -5.32229,-1.82902 -10.51187,-2.09858 -16.20186,2.40509 m 757.85738,37.48868 c 5.2559,-0.30136 7.6465,-2.53202 7.1765,-6.70279 -0.4954,-4.43493 -5.1384,-7.46913 -10.5527,-7.06208 -3.5448,0.26956 -3.4784,2.99184 -3.4631,5.40234 0.041,5.19612 2.9268,8.57918 6.8393,8.36253 M 923.71015,65.233642 c -10.90506,-1.961095 -20.68651,-0.808688 -29.93159,-3.932745 -1.70092,-0.586758 -3.6878,0.539126 -3.31998,2.812139 0.40339,2.558409 -0.43425,7.46913 3.08501,6.750296 6.74744,-1.363781 12.82565,1.99276 19.29719,1.353226 1.33833,-0.12179 3.17706,0.05819 3.24349,-1.744443 0.13285,-4.313408 4.38253,-3.002402 7.62588,-5.238473 M 449.62593,302.29661 c -4.7042,0.13261 -5.6492,9.09205 -12.30458,5.42346 -1.48634,-0.82452 -2.95229,2.68006 -1.9206,3.80067 5.17938,5.61913 9.03573,11.96765 11.86027,19.09848 0.31159,0.80882 1.60899,1.43252 2.56419,1.6757 3.034,0.79813 5.33249,-0.5551 4.11682,-3.74776 -3.22805,-8.51057 -1.20024,-17.80872 -4.3161,-26.25055 M 680.52346,66.30675 c 6.09352,0.391218 9.85795,0.592037 13.62238,0.877432 2.02781,0.163876 3.6623,-0.512737 3.05963,-2.801583 -0.53637,-2.066782 0.3422,-7.088603 -2.57438,-5.587334 -5.55728,2.896715 -10.3432,-0.163876 -15.36422,-0.23262 -13.78073,-0.184986 -27.46966,4.794479 -41.29131,0.613282 -1.64979,-0.502182 -3.7133,0 -3.72873,2.394533 0,2.151358 0.84797,4.424372 2.92678,5.180284 1.50687,0.555093 3.37634,0.06901 5.07713,0.04195 13.53058,-0.163876 27.06626,-0.35414 38.27272,-0.48635 M 228.6274,279.66675 c -3.28429,-1.81319 -4.9954,-4.25008 -5.20998,-8.48419 -0.13782,-2.65354 0.84288,-6.83473 -3.4068,-8.06644 -3.39164,0.97798 -0.6283,5.53442 -3.61131,6.75557 -2.68148,-1.13657 -1.88987,-4.53547 -3.81033,-6.13187 -1.27189,-1.06769 -2.83486,-3.21919 -4.24968,-1.36378 -3.6572,4.79976 -4.10662,0.0798 -5.64409,-1.69153 -0.79175,-0.90923 -1.72642,-0.84049 -2.64592,-0.12179 -1.85913,2.24121 -0.83764,5.44984 -1.92556,8.34656 -2.32921,-3.86928 -1.83886,-8.37836 -4.9801,-10.80984 -2.20656,0.0636 -2.47213,1.47475 -2.79903,2.85436 -0.39332,1.66514 -0.43425,4.0069 -2.78896,3.58402 -2.12994,-0.36483 -2.36479,-2.42106 -1.73152,-4.27647 0.98579,-2.88088 0.0667,-5.68246 -0.0667,-8.5264 -0.0771,-1.59627 -0.78141,-2.83853 -2.34948,-2.96018 -1.50687,-0.12179 -2.49776,1.04144 -3.22309,2.32592 -0.89387,1.56988 -1.46084,3.23502 -1.09301,5.11682 1.58336,8.05075 3.01871,16.15413 4.84724,24.15197 0.6895,3.04476 3.03911,4.36104 6.07822,3.90108 1.22077,-4.34508 -2.23206,-8.1088 -0.25027,-11.77726 1.31779,3.95399 2.64081,7.94492 4.09132,12.31638 6.49717,-2.36814 10.80308,-6.34852 13.37734,-12.35346 6.22636,4.83156 -3.95848,7.54856 -0.71003,12.63899 3.20269,-5.14334 7.73834,-5.28083 12.61631,-3.7372 3.42224,1.08353 6.80864,2.07206 9.19905,-1.97706 4.57148,0.57092 6.63512,-1.91874 6.03742,-6.23743 -0.55677,-4.00162 -1.98689,-7.87631 -3.29958,-12.81342 -5.90967,6.86126 -1.77244,13.35783 -2.45174,19.33638 M 794.16625,63.451579 c 7.54429,5.856897 16.84036,2.828107 25.06394,5.291384 0.996,0.29595 1.97669,-0.311919 2.11974,-1.733889 0.3167,-2.748672 2.05332,-2.949626 3.30978,-1.125883 3.06984,4.48256 7.80476,3.102946 11.41594,2.912547 7.52886,-0.391082 14.87898,-0.44927 22.12186,2.188437 0.91427,-9.768531 0.91427,-9.768531 -7.41143,-10.011705 -1.03693,-0.02571 -2.05332,-0.338307 -3.09024,-0.348862 -15.42541,-0.0839 -30.77943,-2.278291 -46.2714,-1.30045 -3.67761,0.216787 -5.92497,0.808823 -6.99772,4.435062 -2.19623,-0.930343 -2.49763,-4.138976 -5.55727,-4.339795 -3.7133,-0.243175 -1.33309,5.803985 -5.46522,4.937109 -0.2759,-0.946175 -0.74585,-1.892351 -0.81214,-2.870327 -0.2606,-3.13989 -1.97159,-7.019859 -4.45916,-5.788153 -3.50395,1.728475 -8.3665,0.972564 -10.60379,5.032241 -1.71112,3.071146 0.3014,6.766129 3.73893,6.956392 6.67082,0.36483 13.3517,0.555094 20.02252,0.502182 2.74294,-0.03112 3.01871,-2.436889 2.87566,-4.73629 M 404.80491,313.661 c 0.32689,-4.81559 -1.86947,-6.18479 -6.44605,-5.19625 1.94609,2.717 3.74914,4.7892 6.31319,5.99438 -11.39031,-1.5171 -11.39031,-1.5171 -14.96069,2.58493 1.17997,1.13644 2.88089,0.0419 3.79516,0.55496 4.40802,2.43689 10.39432,-1.90818 13.79615,2.97601 2.92666,4.19717 4.49485,3.62624 6.61446,-0.36469 0.77135,-1.49071 2.91659,-3.57333 3.73893,-1.1788 2.83996,8.23032 7.63621,1.22116 11.32402,2.43689 -3.32011,-3.16641 -5.45005,-6.88778 -7.09984,-10.78358 -2.36491,-5.65594 -7.21726,-3.16628 -10.93069,-3.78998 -4.39273,-0.72953 -5.89947,2.72228 -6.14464,6.76613 M 245.02827,266.62043 c -3.03923,0.76119 -4.17318,-3.36709 -6.93128,-3.09753 -0.37803,0.36469 -0.77645,0.57093 -0.81215,0.81396 -0.6232,4.35577 -2.60499,10.44528 3.12593,11.25938 3.95848,0.55496 3.43243,-5.7512 4.3161,-9.28231 1.03693,-0.0947 2.07372,-0.31192 3.10554,-0.25901 2.64578,0.13262 4.9597,-0.17443 5.15884,-3.64207 0.0301,-0.60801 -0.28087,-1.6757 -0.68949,-1.83958 -2.50796,-0.9727 -4.83718,-0.34886 -6.32352,1.90819 -0.72022,1.11018 -0.6589,2.7488 -0.94997,4.13897 M 1113.2956,207.6072 c 1.3332,-0.20095 2.6816,-0.32247 3.9739,-0.65022 1.374,-0.33831 2.4875,-1.07839 2.3291,-2.81214 -0.026,-0.28553 -0.2758,-0.65022 -0.5107,-0.8141 -1.5528,-1.05186 -2.5233,0 -3.3865,1.12588 -0.8479,1.09422 -1.5937,2.25718 -2.3802,3.39376 -6.7985,-6.19534 -8.3155,-6.31686 -15.3387,-1.14713 4.9954,2.02984 10.4096,-2.79103 15.3131,0.90395 M 460.38781,330.61854 c 1.33309,0.0271 2.69691,0.17443 4.03,0.0528 2.87579,-0.26957 3.89728,-2.2994 1.66012,-4.00691 -2.58968,-1.98748 -5.06182,-5.88328 -9.87337,-3.7054 1.81834,2.94949 5.16395,4.3398 4.45902,7.97131 -1.51694,-0.39649 -3.20255,-1.95054 -4.48452,0.0893 -0.6283,1.01492 0.3269,2.1408 1.29217,2.48966 2.65611,0.97798 2.47226,-1.33739 2.91658,-2.89144 m 138.3597,3.02893 c -1.2974,0.33831 -1.72642,-0.71897 -2.38022,-1.5171 -0.74572,-0.8934 -1.25646,-3.00254 -2.91658,-1.21574 -0.86314,0.93562 -1.97669,2.41037 -1.80304,3.45167 0.2861,1.69154 2.14014,1.54363 3.43753,1.13658 1.28209,-0.40705 2.43134,-1.2581 3.64701,-1.90832 -0.19405,0.67661 -0.37803,1.36378 -0.613,2.04039 -0.94487,2.84394 0.72022,4.27647 2.92678,4.30285 2.30359,0.0325 4.01471,-2.39453 3.72874,-4.30285 -0.6283,-4.05968 -3.16686,0.1904 -4.6838,-0.66064 -0.53638,-0.29609 -0.89897,-0.8934 -1.34342,-1.32684 M 549.1101,306.14884 c -0.15835,-1.05728 -0.25028,-2.12498 -0.51088,-3.15045 -0.16855,-0.62384 -0.49545,-1.46433 -0.96527,-1.65459 -0.36782,-0.14804 -1.06242,0.52857 -1.60899,0.85632 0.3116,0.5551 0.52095,1.19991 0.93977,1.64931 0.70492,0.75592 1.54257,1.37962 2.32921,2.05623 -0.88877,1.8818 -3.75423,1.83958 -3.979,4.20772 -0.0863,0.91979 0.44955,2.02984 0.99599,2.8438 0.25041,0.38067 1.68562,0.50219 1.74185,0.36483 0.91426,-2.27301 5.67469,-4.03328 1.05732,-7.17317 m -203.25411,40.12625 c -2.90128,2.51619 -7.84555,-0.71883 -10.21047,4.02801 -0.44445,0.90924 -1.75204,-1.51182 -2.69181,-2.35231 -2.83996,-2.50563 0.54644,-6.21103 -1.45574,-8.91749 -6.11915,0.94618 -3.25369,6.2534 -4.72983,9.36149 -4.61737,-0.95674 -5.40402,-5.49221 -7.39091,-8.53696 -2.86036,-0.75592 -2.53346,10.27084 -7.05904,1.74444 -5.99139,-0.87743 -11.86026,-3.46237 -18.04583,-1.77083 -2.00219,0.53912 -3.94828,1.52765 -3.7133,4.32924 2.49776,2.79103 4.26497,-0.68717 6.39491,-0.72939 1.86947,-0.0419 3.38654,0.97256 4.11696,2.72228 0.3677,0.83521 0.44432,2.28357 -0.0261,2.94963 -1.24117,1.75486 -2.89096,1.60695 -4.3671,0.14791 -1.37402,-1.36906 -2.85016,-2.09845 -4.55108,-0.72939 -2.33928,1.89235 -3.17706,6.42782 -7.97318,3.46236 -4.43365,-2.73297 -9.70482,-4.12842 -10.86937,-10.36598 -0.0667,-0.35414 -0.0915,-0.71883 -0.12814,-1.06769 -0.3167,-2.0722 -1.34839,-3.37251 -3.46813,-2.74881 -1.68562,0.50218 -1.47614,2.08275 -1.21567,3.50458 0.30127,1.7868 0.46982,3.53111 -1.75204,5.84648 -1.2923,-4.64116 -2.12484,-9.11844 -5.27627,-11.85669 1.08282,-2.7434 2.96758,-2.76979 4.57147,-2.76979 3.27919,0 5.21495,-0.74535 4.77063,-4.87377 -0.3116,-2.8545 2.40571,-4.08607 4.21398,-5.67192 1.01639,-0.0271 2.10431,0.17971 3.0442,-0.12179 6.42042,-1.98761 6.40512,-2.02983 7.42674,4.03316 0.11768,0.69244 0.15835,1.42197 0.20935,2.12497 0.16855,2.35759 1.07262,4.07564 3.57038,4.41395 1.96139,0.25373 3.43753,-0.5287 4.0249,-2.45272 1.609,-5.20681 6.2673,-5.89925 9.9296,-5.4129 5.40912,0.71883 6.03742,-2.63785 6.18034,-6.08952 0.17378,-4.07037 -0.94996,-8.10352 -6.35399,-7.23665 -3.46316,0.5551 -8.14695,-4.24994 -10.53737,2.46328 -0.13285,0.37539 -3.16685,-4.58825 -6.61459,-2.82797 -2.60498,1.32142 -4.9597,4.00149 -8.3308,1.01492 -1.2719,-1.12602 -2.32922,0.64481 -2.51307,2.17775 -0.32689,2.73297 -1.78774,5.53455 0.26048,8.18809 -1.94609,-0.1797 -4.18325,0.5233 -5.08222,-2.38397 -1.11355,-3.66846 -1.69072,-7.86035 -7.49317,-5.92564 -2.30868,0.77174 -1.44031,-2.55841 -2.07881,-3.99094 -1.22587,-2.79103 -2.82466,-3.49416 -5.68502,-1.61223 -5.42952,3.58388 -5.6441,3.40945 -6.18047,-3.21919 -0.12291,-1.49071 0.2759,-3.10295 -1.62939,-3.04476 -1.47614,0.0271 -2.54876,1.62279 -2.47214,2.93366 0.20438,3.64207 0.56697,7.18373 -2.82963,10.60916 -4.18338,-3.62624 -4.45405,-8.67445 -5.37342,-13.72253 -0.79685,-4.35576 -2.94719,-4.54602 -4.6481,-0.14804 l -0.0157,-0.12179 c -3.80026,0.35428 -9.03063,-1.16283 -6.20597,6.52295 0.80194,2.17789 -0.78665,5.29139 -1.24627,7.80758 -5.23547,-2.82811 -0.48015,-16.82019 -12.67241,-11.55533 -5.53687,-8.29379 -11.29329,-6.1423 -17.01924,-0.23262 -2.28828,-3.19267 -2.03278,-7.66995 -6.03219,-10.54028 -2.53856,4.75212 -4.2651,8.8911 0.50565,13.00369 l 0.12291,-0.0135 c -1.95629,-0.57079 -4.23947,-0.67662 -4.96989,-3.19267 -0.49545,-1.7075 -1.13395,-3.46764 -1.12375,-5.21208 0.0131,-3.13989 -0.61287,-6.68683 -3.85635,-6.34853 -4.31611,0.42289 -2.93189,4.76268 -2.69182,7.70175 0.19418,2.44745 1.50688,4.81559 -0.25537,7.86035 -2.18106,-0.79813 -0.55167,-5.20681 -3.698,-4.83142 -2.67651,0.32775 -3.72363,2.04567 -5.45005,9.20302 -4.0504,-1.40614 -3.46813,-5.95217 -3.36091,-8.19866 0.43922,-9.47258 -2.86036,-18.02537 -4.76042,-26.91661 -0.45465,-2.15135 -0.98579,-4.83142 1.75191,-5.26486 3.04931,-0.48635 2.53856,2.61132 2.86546,4.53547 0.77645,4.56186 1.36382,9.14483 2.15557,13.70669 0.41882,2.41037 1.70079,4.00677 4.31597,2.94963 1.95119,-0.77174 2.27809,-2.69062 1.78264,-4.47728 -0.75592,-2.74881 -1.82853,-5.40235 -2.82453,-8.06658 -1.71111,-4.57242 -1.61409,-8.93332 1.24627,-13.04591 1.97159,-0.0365 1.67019,1.74444 2.21166,2.89671 1.18494,2.53203 -1.01129,7.79702 3.66231,7.22609 3.31998,-0.40705 1.40972,-4.83142 1.73151,-7.44274 0.25538,-2.09858 -0.0667,-4.27646 -0.21967,-6.41199 -0.49035,-6.76613 -1.34839,-7.38983 -7.72801,-5.35999 -0.96539,0.29595 -2.24239,1.28448 -2.74294,0.39108 -2.90115,-5.18028 -11.74284,-5.88328 -10.13894,-14.40969 1.07262,-1.08366 3.86655,-0.11096 3.57038,-2.5584 -0.281,-2.34176 -2.35471,-1.66515 -3.93298,-1.43253 -0.97559,-1.5171 -2.19636,-2.57438 -4.01993,-1.62807 -0.43412,0.23249 -0.93467,1.34254 -0.76102,1.62807 1.30249,2.18844 2.73784,0.56551 4.13226,0.0135 0.30636,-0.12179 0.62306,-0.20082 0.94486,-0.32247 0.12815,1.52766 0.25028,3.07115 0.37293,4.5988 -5.9302,-1.47474 -6.12934,2.70645 -6.18047,6.84543 -0.0405,3.64207 2.70201,7.51149 -1.53237,11.9253 -5.0209,-15.95318 -4.6736,-32.32937 -10.03159,-47.2836 -3.29971,10.19155 1.70091,20.32491 -1.04202,30.32606 l 0.27067,-0.26956 c -4.20875,-8.60571 -8.91308,-16.04845 -20.13484,-10.60916 -0.84785,0.40705 -2.59479,-0.76119 -3.72874,-1.50113 -1.20534,-0.79827 -1.93576,-2.14094 -1.54766,-3.68443 0.41372,-1.6757 1.76734,-2.25718 3.17706,-1.69153 2.39041,0.98853 4.55107,2.02984 5.83827,-1.51183 1.07262,-2.96545 -0.41882,-4.77851 -2.45174,-6.37491 -2.69691,-2.10913 -5.44495,-4.17077 -8.19299,-6.21117 -0.55154,-0.40705 -1.72641,-1.00436 -1.75701,-0.94617 -4.03,6.52295 -6.69121,-1.41142 -9.16845,-0.90924 -4.6481,0.91979 -9.383025,0.28553 -13.734826,2.23607 -1.103347,-3.27737 -2.344514,-5.86231 -2.794065,-8.58459 -0.58737,-3.59444 0.515977,-5.90981 4.617504,-3.75831 1.215669,0.63425 3.718402,0.60787 2.410809,-0.65023 -5.812643,-5.64552 4.898375,-9.12372 2.349614,-11.65046 1.108447,3.15058 -0.393324,10.78358 7.018114,13.47948 2.94208,-2.19371 -1.409716,-5.79356 1.76224,-7.89215 2.40061,-0.1479 1.96649,2.39467 2.96759,3.59985 0.72022,0.86688 2.11974,3.27738 2.53856,1.71792 2.05841,-7.68591 9.55157,1.58585 11.74284,-4.35562 0.92447,-2.53202 0.0968,-4.73629 -1.06242,-7.12027 -1.87967,-3.84303 -3.65211,-7.982 0.84274,-12.82926 -0.92447,7.44274 3.53456,12.61247 4.05563,19.12487 0.383,4.73629 4.89328,2.61132 7.67701,2.97602 2.23206,0.28553 4.94937,2.80158 6.69632,0.069 1.97159,-3.08698 0.76102,-7.06736 0.0301,-10.24433 -0.53637,-2.31523 -3.71853,-3.08711 -5.80244,-0.26956 -2.00742,2.71701 -3.64191,1.51183 -4.61241,-0.7348 -0.97559,-2.24649 -1.93589,-5.50803 1.71112,-5.8569 5.14865,-0.50218 11.04812,-4.07551 14.70022,3.16628 2.46194,-2.67993 0.78665,-8.72722 6.75764,-6.56517 1.42502,0.51801 2.06352,-1.43253 2.29339,-2.89685 0.49035,-3.12406 0.9807,-6.24798 1.55277,-9.89019 3.89205,1.7075 2.38531,5.968 4.3212,8.06658 1.34329,1.44836 0.16345,6.04716 4.30577,4.11245 2.59989,-1.21574 2.03292,-3.35654 0.9858,-5.43929 -2.76334,-5.55025 -1.28707,-11.77198 -2.42611,-17.71345 4.6991,8.11935 4.22405,18.00954 8.89255,26.76843 3.08003,-1.19463 0.6385,-5.68775 4.34173,-6.7978 2.02259,2.45272 2.68658,10.78873 8.95388,4.04912 6.70141,5.10099 6.22636,-3.01837 8.6832,-5.23847 2.43134,0.16388 1.67542,9.92185 6.40524,1.8818 1.74682,-2.96546 4.42843,-2.42106 5.15375,0.96201 1.08792,5.03237 3.34051,5.7619 7.33991,3.31445 2.79394,-1.7075 5.61847,-0.12179 7.98848,0.84049 5.39892,2.20427 11.15037,-1.34267 16.44717,1.63334 1.27176,0.71884 2.52836,-0.8616 2.72241,-2.43161 0.38822,-3.12933 0.6334,-6.26922 0.96029,-9.67867 2.30869,2.11441 4.29048,4.31868 7.91709,3.64207 2.46703,-0.44941 5.50104,-0.63439 6.46644,3.47819 0.47492,2.02984 3.02381,2.51619 3.25878,-0.16387 0.3371,-3.88525 2.40571,-3.23502 4.91877,-3.50472 4.60208,-0.50205 9.6588,1.15241 13.6888,-2.67993 1.20038,-1.13657 2.33942,-1.14713 3.33541,0.44927 2.11464,3.38307 4.51015,3.31432 6.00159,-0.27484 2.06365,-4.97946 5.47555,-2.5691 8.27471,-2.86505 1.95119,3.93816 -3.59588,5.83051 -1.04712,9.76853 4.64301,-1.45891 6.22637,-6.23742 9.27058,-9.27162 3.04944,-3.04476 5.83317,-4.14954 8.05503,0.69244 1.41482,3.08712 2.79904,5.68247 6.86487,5.05877 1.74171,-0.26957 3.17706,0.70827 3.07493,3.18211 -0.15835,3.85885 2.70711,5.14334 5.15375,6.86139 3.89205,-4.73629 -3.86158,-9.10788 1.17474,-13.20992 2.57439,1.90832 5.13845,8.45766 9.27057,1.0995 0.9297,-1.65446 2.77354,-2.84381 4.32631,-2.62715 9.70482,1.34267 17.87728,-5.34416 27.30633,-5.37055 2.02259,-0.0162 4.18326,-1.20518 6.09352,-0.13749 4.25987,2.38398 5.98629,-0.12179 6.27239,-3.75831 0.29107,-3.92761 -2.92678,-2.92324 -5.23037,-3.01837 -16.25299,-0.59732 -32.54168,-0.8141 -48.75897,-2.11442 -5.71562,-0.45982 -11.72741,-2.71701 -17.10083,-1.11005 -3.36091,1.01492 -4.48466,1.31628 -6.62989,-1.48544 -2.73274,-3.58916 -6.53797,-0.12179 -9.77125,-0.71883 -4.42843,-0.82466 -6.07822,1.21574 -6.17014,6.32214 -2.29849,-8.78542 -7.91199,-9.10789 -14.47545,-7.83924 -3.51416,0.67661 -6.66572,0.28539 -8.40233,-4.15481 -2.53856,-6.50712 -6.73202,-8.06117 -9.71503,-3.08184 -4.07603,6.79266 -9.3421,5.12751 -13.76032,3.48889 -6.73215,-2.50035 -13.79616,1.2474 -20.46187,-2.25718 -1.0164,-0.5444 -4.57658,0.32247 -5.83305,-1.5964 -1.97158,-3.00768 -2.82976,-1.76028 -4.3314,0.21679 -0.40352,0.53912 -2.02781,0.47038 -2.90639,0.1479 -2.7275,-1.00423 -3.23825,-7.77035 -6.44604,-4.84725 -2.90625,2.65354 -3.83085,1.97693 -6.36431,0.58148 -3.62138,-2.00345 -3.51416,3.7372 -6.26717,3.88525 -5.77694,-4.05968 -2.74803,-9.47258 -2.22696,-14.47844 0.0353,-0.36483 0.11768,-1.03075 0.13272,-1.03075 10.01643,0.93562 4.11696,-5.75121 4.90858,-9.83741 1.26679,-6.53351 1.66012,-10.31307 -6.45115,-7.54843 -1.56806,0.53913 -2.23716,-1.08366 -3.14123,-2.19371 -3.22818,-3.91164 -5.38872,-9.335095 -11.99311,-8.499884 -1.73661,0.216652 -1.58846,-2.014006 -1.21567,-3.383064 0.51075,-1.892487 1.66012,-3.367232 3.74403,-2.584932 1.85417,0.703001 2.38531,3.589161 5.18435,3.494029 3.21288,-2.801584 -0.85295,-7.728137 2.92168,-10.963159 1.20547,2.420921 2.16577,4.926554 3.60608,7.077912 1.2872,1.924152 4.42333,2.97615 5.2662,1.136575 2.02782,-4.44034 2.80924,-3.028926 4.79103,-0.121791 0.97559,1.432525 2.60498,0.05278 3.04433,-1.406001 0.89387,-2.976015 1.54257,-6.036741 2.39041,-9.472581 4.87798,1.733753 0.41373,9.160662 6.12425,9.715755 2.20146,-1.5964 1.20037,-3.980378 0.87347,-5.819953 -0.68963,-3.964546 -0.66923,-7.062215 3.99417,-8.145878 4.14756,-0.962008 8.34624,-2.473832 9.70483,3.843026 -1.43012,-0.338307 -3.09534,-2.056227 -3.95338,0.623702 -0.12814,0.391217 0.52605,1.057275 0.81725,1.5964 0.97049,-0.824656 1.94609,-1.638621 2.92168,-2.463277 1.80814,0.999087 1.83364,4.355763 4.3569,4.112589 3.14633,-0.311919 1.96139,-3.071282 2.02272,-5.005989 0.10199,-3.573328 1.28706,-3.557495 4.58167,-2.77506 7.27349,1.71792 7.37561,1.247404 10.87957,5.803986 5.6339,-4.99002 11.63549,-9.483136 19.84887,-8.008255 3.22819,0.581346 6.14974,1.041307 7.51356,4.588247 0.59757,1.54349 0.58737,3.853446 3.03401,3.409453 1.96139,-0.35414 3.06971,-2.151359 2.69181,-3.953991 -0.73042,-3.541527 0.23498,-3.56805 3.48853,-3.515139 33.78808,0.592036 67.51482,-2.680064 101.32827,-1.786664 6.07834,0.174431 12.26378,-0.216787 18.39822,-1.342671 5.307,-0.95673 10.79798,-1.474881 16.35525,-0.348861 13.0656,2.637707 25.94238,-1.342671 38.90089,-2.08275 16.03332,-0.909233 32.03603,-0.676613 48.05405,-1.004364 16.01801,-0.311784 32.0257,-1.918739 48.02842,-1.813052 9.5976,0.06901 19.16957,-0.676613 28.76704,-0.539261 6.51247,0.09473 6.51247,-0.364694 6.31842,-8.499882 5.0056,9.255794 5.0209,9.393282 14.0157,7.944924 3.77973,-0.623837 7.40124,-3.192801 11.16567,0.311919 0.69459,0.634257 2.94209,0.311783 3.24335,-1.490714 0.27591,-1.665144 0.56188,-3.583883 -1.07261,-4.926553 -1.75192,-1.432525 -3.77973,-1.311006 -5.89437,-1.26865 -7.16627,0.158598 -14.35803,0.808688 -21.49866,-0.491627 -11.41594,2.801584 -23.05143,0.407051 -34.60009,1.585846 -9.80695,0.998951 -19.82338,0.05278 -29.74775,-0.174431 -6.77294,-0.163876 -13.54588,-0.581481 -21.04924,-0.919788 4.70433,-3.060726 8.40743,-5.957441 13.71443,-3.451808 1.95119,0.919788 5.08732,0.634257 7.11514,-0.354139 8.59128,-4.181333 17.41753,-2.151494 26.08543,-1.326838 4.45916,0.422883 8.12147,-2.933794 12.09524,-2.093305 9.83245,2.093305 19.47085,-1.004364 29.27779,-0.76119 7.33482,0.190264 15.51747,-0.607869 22.83189,-2.854494 5.09752,-1.569877 9.6333,-2.516053 14.98109,-1.770696 19.01633,2.664096 38.15518,0.496769 57.2327,0.866876 2.04311,0.03654 4.09656,-0.925065 6.10894,-0.856321 5.24057,0.190264 10.2922,-0.946311 15.61449,2.383978 5.9455,3.721371 13.17806,6.602253 19.38913,-0.962143 1.26679,-1.527657 12.38133,3.087114 13.11685,5.222639 0.56188,1.622788 -0.34219,2.991982 -1.71621,3.277378 -3.34561,0.676613 -6.75764,1.147129 -10.15935,1.353225 -1.82867,0.09473 -3.43753,-0.06901 -4.18338,3.150445 5.37342,0.570926 11.62542,-0.66078 14.97103,5.49748 0.25027,0.470517 2.09411,-0.232619 2.96758,0.158598 4.54088,2.003451 8.6985,-4.09662 11.17077,-2.394533 3.93298,2.706452 7.83013,1.961095 11.67641,2.817416 2.59976,0.581481 3.64688,-1.437802 3.88185,-3.832335 0.3116,-3.356677 -2.43134,-5.508035 -4.3161,-4.313407 -5.49085,3.472918 -9.75582,-2.616598 -14.87897,-1.194628 -1.76721,0.502182 -4.29048,-0.565648 -4.59188,-3.287933 -0.32689,-2.976014 0.0667,-5.967996 3.16686,-7.236645 3.57026,-1.448358 7.36031,-2.436889 11.18097,-1.247539 5.41422,1.675699 10.87957,0.623837 16.25286,0.946311 9.9347,0.607869 19.2615,0.09472 28.20531,-4.69407 1.30759,-0.718834 2.69168,0.09473 3.63157,1.273927 4.9699,6.152982 10.72632,3.636794 17.22349,3.367231 8.47373,-0.364694 17.44303,-4.588247 25.95258,0.52857 5.36323,3.219189 10.80295,-0.243174 16.19167,-0.422883 3.29461,-0.105551 6.51247,-2.394533 9.2962,1.395582 1.20037,1.622789 3.10043,0.623702 4.79625,0.623702 3.96358,-0.04195 7.32448,-3.710816 10.6191,-3.01837 3.20255,0.66078 6.11914,3.155858 9.76602,4.154944 7.13056,1.95054 14.13835,1.976928 21.16156,0.7823 4.45915,-0.755912 8.08053,-3.150445 12.66731,1.42197 3.54488,3.504584 11.27289,-1.770831 11.92669,-7.294834 0.18384,-1.406002 0.20947,-2.838527 0.37802,-5.328327 3.25878,2.812274 1.96139,6.427822 3.16686,8.996922 0.86314,1.855408 0.79672,4.709767 3.52946,4.48256 1.84383,-0.163876 2.31378,-2.426334 3.0442,-4.049122 0.27578,-0.634392 0.6946,-1.205183 1.38932,-2.352313 3.25369,2.73284 5.6339,6.248115 11.42614,4.123144 3.42733,-1.242261 10.40962,-0.216787 12.41194,6.486011 0.24517,0.824521 1.71111,1.110051 3.03401,0.52857 2.23206,-2.833384 0.10199,-5.983829 0.21954,-9.028587 0.0405,-1.110051 0.35253,-2.299401 1.51707,-2.262458 0.90407,0.04195 2.12994,0.623837 2.56406,1.353226 0.67942,1.16824 1.10845,2.680063 1.09825,4.033289 -0.051,4.942387 -0.10723,9.557157 6.64009,5.359992 0.26047,-0.163875 0.74572,-0.338306 0.91426,-0.216651 9.62823,7.252478 21.75933,5.534423 32.30173,9.636456 10.1441,3.938022 10.2258,3.694848 4.6531,14.964783 5.7413,0.909097 10.3688,4.493115 16.2122,5.185561 6.6707,0.798132 7.013,0.851044 5.5981,-6.15826 -0.2094,-1.030752 -0.8224,-1.961095 -1.2565,-2.939071 l -0.102,0.03248 c 3.4119,0.703001 4.459,3.636795 4.3926,6.427823 -0.1429,6.100071 2.9421,8.346561 8.1572,8.346561 1.7571,-0.01624 3.4426,-0.813965 3.5601,1.987618 0.102,2.331202 -1.2309,3.044758 -3.1668,3.208634 -0.6895,0.04195 -1.425,0.12179 -2.0125,0.449271 -2.5998,1.416686 -2.4312,4.435056 -0.3269,4.720456 7.82,1.04131 8.8774,6.227 9.1123,12.83981 0.092,2.35759 1.7162,5.11682 4.8014,4.14425 2.3138,-0.72952 2.3138,-3.04475 1.9204,-5.38651 -1.0726,-6.50712 -1.9357,-13.05646 -2.1809,-19.769815 3.5295,4.979465 6.0118,9.784495 5.9607,16.656315 -0.051,7.63314 0.1072,15.64139 3.2844,23.07358 2.4057,5.64024 -0.3831,12.03099 1.6037,17.91441 0.4189,1.22101 -0.7559,2.91255 -2.3239,2.96546 -2.7736,0.0798 -5.2968,0.58148 -7.8967,1.77083 -2.5284,1.15241 -3.7543,-1.45891 -4.2803,-3.42001 -1.6447,-6.29575 0.4852,-12.02057 3.034,-17.59193 -0.807,3.3407 -0.429,6.41185 2.1452,8.87513 1.4405,1.35322 2.0534,2.70645 0.7612,4.58838 -0.945,1.35323 -2.6306,3.15045 0.4698,3.84289 2.1454,0.48635 3.1618,-1.35323 3.5449,-3.08698 0.7559,-3.58402 -0.6028,-7.05166 -0.9961,-10.5668 -0.4851,-4.4245 -3.5193,-3.49416 -6.2111,-3.35667 -0.2348,-3.12406 1.7674,-4.27647 4.1323,-5.37055 1.6856,-0.78771 1.3485,-2.31537 0.2502,-3.45181 -1.0062,-1.04144 -2.748,-1.95054 -3.5192,-0.40705 -1.7776,3.53111 -4.2088,4.24994 -7.6872,3.35668 -0.6027,-0.16388 -2.2781,1.50113 -2.2219,1.61223 2.3751,4.45076 -2.1709,9.18705 0.521,13.55865 0.378,0.59203 0.9654,1.06783 1.2668,1.69153 3.9737,8.5264 2.5385,11.69268 -6.2367,13.99208 0.2094,5.44998 -3.7235,7.65953 -8.1316,9.54133 2.7173,3.34084 6.1856,-0.30123 8.0549,2.3787 1.0319,1.47488 0.7969,5.00599 3.8054,3.04476 2.4313,-1.59641 -0.3524,-3.73193 -0.3678,-5.65608 -0.025,-3.64207 -0.4291,-7.10444 -3.6214,-9.43023 4.9699,1.76028 9.1941,3.09767 8.9182,10.70429 -0.2605,7.21012 5.6748,10.25488 15.4306,8.79597 2.467,-0.38067 4.1015,-0.42289 6.5227,0.32234 2.6918,0.82465 2.4568,10.16516 7.7127,3.07128 0.9552,3.69484 5.4806,5.50803 4.8166,10.12267 -0.5362,3.69498 1.1085,3.83247 4.311,3.25099 4.7248,-0.85632 9.5975,-0.069 14.307,1.01492 2.0942,0.48635 0.1685,4.3134 3.2944,4.69393 2.5131,-3.83234 0.2861,-8.36253 2.13,-13.64322 2.1861,8.24087 10.3841,4.03329 14.3733,8.76958 -2.2781,3.53097 -5.2047,1.55932 -7.6514,1.83944 -2.0125,0.23262 -3.2946,1.08366 -3.4631,3.18224 -0.1328,1.5964 0.7049,3.02893 2.2065,3.09767 7.6668,0.31179 4.1885,5.62956 3.7952,9.27163 -0.2248,2.23079 -2.0533,3.73192 -4.3008,4.01746 -2.656,0.3383 -3.6112,-1.48544 -3.9483,-3.84303 -0.2503,-1.66501 -1.1033,-2.56896 -2.7888,-2.25705 -2.7992,0.5233 -1.5937,2.40509 -1.3178,4.07024 1.2258,7.34761 1.2002,7.34761 8.4329,6.71321 8.5658,-0.75591 11.1553,0.33831 12.7745,5.62969 0.2861,0.93562 0.3014,2.44745 -0.2349,3.05532 -1.466,1.68097 -2.3291,-0.0636 -2.9931,-1.09422 -1.374,-2.12497 -2.5131,-1.30032 -4.2242,-0.32247 -2.8757,1.64931 -0.8786,2.93379 -0.4852,4.84197 0.669,3.31446 2.564,6.95653 -0.6793,10.89455 -0.8378,-1.61223 -1.466,-3.28793 -2.4978,-4.6306 -1.0318,-1.35323 -2.2219,-2.82797 -5.0975,-2.61118 0.3779,4.96877 -1.7674,9.97462 0.3626,15.02283 0.7866,1.8818 1.9869,4.22355 4.3161,1.21587 h -0.041 c 0.4598,7.6594 -0.48,9.1765 -6.5379,8.94388 -4.9137,-0.17443 -4.8115,3.5893 -4.7297,6.5124 0.091,3.69498 2.6509,6.93 -0.2912,11.06898 -5.7923,8.14574 -8.3513,19.10904 -19.3227,22.50266 -0.5927,0.17443 -1.037,0.85104 -1.5171,1.27392 -0.3167,0.91979 -0.081,1.50127 0.7457,1.66515 2.508,0.53912 6.303,-2.88616 7.345,0.74535 1.2055,4.12315 -3.5806,4.21828 -6.0629,5.75121 -4.3059,2.64827 -10.1084,1.74431 -14.358,5.84107 5.5827,3.04476 10.8897,-4.66755 15.7932,0.77174 -0.4954,0.61315 -0.8888,1.5171 -1.2565,1.50655 -9.8171,-0.20623 -17.8465,4.50367 -25.1966,10.35001 -10.5885,8.45766 -22.8829,11.35438 -35.6678,12.32708 -6.7116,0.51273 -12.085,3.1928 -17.3256,7.40038 6.0374,-1.63334 11.5692,3.73734 17.9794,0.25901 1.9716,-1.0677 7.4013,-1.44836 9.7764,2.78575 l -0.235,-0.26956 c -1.8132,2.3312 -4.2344,4.27646 -7.0181,4.03329 -19.9663,-1.83958 -39.5292,5.09043 -59.34227,3.28793 -8.85175,-0.79827 -16.21206,3.3989 -24.35902,4.68338 -12.77453,2.014 -24.82897,-0.0419 -37.10805,-1.86596 -2.00232,-0.30123 -3.91258,-1.66515 -6.00172,-0.85633 -5.42952,2.11442 -10.08272,1.97693 -15.26197,-1.87651 -3.72363,-2.7752 -9.68953,-0.0325 -13.11176,1.29503 -9.67919,3.73721 -19.23587,4.04912 -29.10924,3.50472 -2.05332,-0.12179 -4.26498,-0.3383 -6.07822,-1.21587 -6.57889,-3.16628 -15.83927,-4.76268 -22.31081,-3.52042 -0.66399,0.12179 -1.37402,0.0947 -2.05331,0.0419 -3.47846,-0.21678 -1.13394,5.56095 -4.78605,5.03238 -2.95229,-0.43358 -3.24349,-4.84211 -6.32849,-4.97947 -11.14017,-0.48635 -22.55598,-6.08951 -33.27733,2.2994 -1.97159,1.53294 -5.29667,1.95054 -7.89656,1.7232 -4.13225,-0.36997 -8.07033,-0.85632 -11.97781,1.21588 -1.11341,0.59731 -3.20256,1.03075 -3.88185,0.40691 -7.37574,-6.71322 -14.71042,-2.46328 -22.03504,-0.14791 -2.89095,0.90382 -5.20487,-0.0947 -7.79443,-1.34267 -5.21507,-2.53202 -10.81327,-5.96799 -14.98632,1.83958 -0.82235,1.53293 -2.29849,1.46419 -3.64688,1.08353 -4.51028,-1.2581 -8.82625,-4.22356 -13.71443,-1.33726 -3.38653,-6.10549 -7.88649,-1.63876 -11.96761,-1.41142 -0.92447,0.0582 -1.87967,-0.60787 -2.80924,-0.93034 0.25028,-2.4898 2.01252,-3.5893 3.84616,-4.27646 -7.42674,-7.14666 -13.62761,0.16387 -20.63539,1.02547 -1.19017,-4.53006 6.05272,-7.16777 2.02768,-11.67685 0.12815,-2.34162 1.86947,-2.67993 3.50396,-3.20863 1.2923,-0.41761 2.80936,-0.85105 2.10444,-2.78575 -0.57717,-1.52766 -2.11974,-1.63862 -3.42733,-1.89235 -1.47614,-0.30123 -2.96758,0.17443 -2.96758,1.87651 0,2.08803 0.60267,4.17078 0.93976,6.24284 -4.48465,-1.19463 -6.07821,-0.19026 -5.55727,5.27542 0.3167,3.15585 1.2821,8.81193 -5.30699,9.03914 -2.44664,0.0798 -3.42734,-0.87743 -5.09753,-2.31524 -3.3252,-2.86505 -7.55958,-3.63679 -11.65091,-1.66514 -9.49535,4.57769 -18.76592,2.91268 -27.90378,-0.8616 -2.69691,-1.11005 -3.83085,-0.703 -4.14755,2.16205 -0.14305,1.31615 -1.68549,2.1408 -1.80304,1.56988 -2.07881,-9.23996 -6.81374,0.45996 -10.09292,-1.5171 -1.71622,-1.02548 -4.81155,0.80354 -4.47445,-3.61028 0.19404,-2.46341 -2.28829,-1.83957 -3.94828,-1.63875 -10.50167,1.32684 -29.02765,-1.05186 -39.36064,-2.92311 -7.04362,-1.28461 -14.57758,-0.10555 -21.81027,1.23158 -2.38021,0.4494 -2.01251,2.4898 -2.70711,3.98037 -1.00619,2.1515 -3.81555,2.17789 -4.06583,0.87757 -1.38421,-7.13096 -11.72741,-2.85449 -12.21265,-10.6461 -4.13226,3.56805 -9.43926,-1.28976 -13.57138,2.02984 -1.85927,1.4853 -4.77585,2.18844 -5.57257,0.52329 -4.86268,-10.22849 -10.2514,-2.06678 -14.9046,-0.29608 -2.03802,0.77188 -3.29448,2.34176 -4.87798,0.0798 -1.81834,-2.5848 -4.61737,-3.6368 -7.14063,-3.75832 -6.03742,-0.28539 -9.74052,-2.43688 -10.21047,-9.19246 -0.23498,-3.34071 -2.79904,-4.62519 -5.70032,-5.32832 -2.31379,-0.5708 -4.13213,0.31191 -5.45502,2.05636 -1.19017,1.59626 -0.6538,3.38306 0.39319,4.95294 1.34852,2.014 2.28829,4.42437 5.02103,5.38651 -1.23097,2.94963 -4.9546,2.31524 -6.27749,4.72046 -1.40972,2.57424 -3.30468,2.39453 -5.23038,1.11005 -6.06801,-4.05967 -12.23828,-5.94147 -19.12865,-2.04039 -0.70492,0.40164 -2.01251,-0.0839 -2.94208,-0.42288 -1.45064,-0.53926 -3.84615,0.50218 -4.0249,-2.27302 -0.10723,-1.50127 0.73042,-2.63771 1.80304,-3.66859 1.56806,-1.47475 4.25987,-0.58135 5.37342,-2.85436 -6.88029,-1.96123 -9.5874,-1.86596 -10.5783,2.45272 -2.14523,9.29287 -9.84774,8.12991 -14.86877,7.44274 -4.51015,-0.62384 -8.92837,-1.15241 -13.47945,-0.97797 -3.59588,0.13748 -7.71781,-2.51619 -5.78192,-5.20668 4.3671,-6.05257 -1.34342,-6.34865 -3.26898,-8.94401 -1.92059,-2.60076 -2.66631,-5.45526 1.20534,-6.72918 2.33941,-0.75591 3.03401,-2.44745 4.23438,-4.20772 2.07894,-3.07115 -1.45065,-5.70886 -0.49545,-7.83383 1.46594,-3.27737 5.11295,0.86688 7.44204,-1.16296 0.88877,-0.77174 1.25136,-1.73375 0.87347,-2.81742 -0.40353,-1.18935 -1.40972,-1.16296 -2.50797,-1.1206 -5.31209,0.13261 -10.63439,0.15846 -15.99251,0.22721 1.08295,-4.50368 6.17027,-0.10556 7.79456,-4.84198 -5.52157,-0.2061 -10.82857,-3.86942 -15.49707,2.02984 -0.51075,0.63425 -0.3524,1.60695 -1.95119,1.0413 -4.93917,-1.7443 -5.0056,-1.54349 -7.78933,3.85359 -1.81834,-3.19281 -1.2821,-8.15644 -7.04871,-7.42691 -8.56579,1.09421 -8.61691,0.66078 -11.99312,8.17226 -2.94208,-0.66078 -0.52094,-6.04729 -5.11295,-5.6826 -1.22587,2.7752 -1.07262,5.87287 -0.96526,8.95984 0.14292,4.54603 0.75592,7.78105 6.62989,5.10112 2.57425,-1.18935 5.50614,1.97693 9.20414,-0.23262 3.47846,-2.08275 3.68781,3.93816 6.252,5.81996 1.60899,-5.14334 2.62538,-11.51298 9.76602,-5.53456 6.26219,-4.65699 6.74744,-2.31523 5.43985,4.22355 -0.74572,3.80067 2.32908,7.374 3.24348,11.12189 1.16454,4.78907 -1.26679,7.09389 -5.97622,5.64553 -4.17305,-1.30045 -8.14683,-1.15241 -12.21266,-0.042 1.19017,-1.32684 2.48234,-2.55841 3.50396,-3.99094 0.87857,-1.24753 0.72022,-2.7488 -0.14305,-3.98037 -0.3167,-0.444 -1.24117,-0.90396 -1.63449,-0.72953 -1.41482,0.62384 -1.80304,2.05623 -1.84384,3.50472 -0.0405,1.73375 0.10199,3.46236 0.16855,5.21195"
     id="path321"
     style="stroke-width:1.33021" />
</svg>
