<?xml version="1.0" encoding="UTF-8" standalone="no"?>
<svg
   width="800"
   height="800"
   viewBox="0 0 800 800"
   version="1.1"
   id="svg728"
   sodipodi:docname="brush.svg"
   inkscape:version="1.4.2 (f4327f4, 2025-05-13)"
   xmlns:inkscape="http://www.inkscape.org/namespaces/inkscape"
   xmlns:sodipodi="http://sodipodi.sourceforge.net/DTD/sodipodi-0.dtd"
   xmlns="http://www.w3.org/2000/svg"
   xmlns:svg="http://www.w3.org/2000/svg">
  <defs
     id="defs728" />
  <sodipodi:namedview
     id="namedview728"
     pagecolor="#ffffff"
     bordercolor="#000000"
     borderopacity="0.25"
     inkscape:showpageshadow="2"
     inkscape:pageopacity="0.0"
     inkscape:pagecheckerboard="0"
     inkscape:deskcolor="#d1d1d1"
     inkscape:zoom="0.20822611"
     inkscape:cx="2353.2111"
     inkscape:cy="1054.1425"
     inkscape:window-width="1920"
     inkscape:window-height="991"
     inkscape:window-x="-9"
     inkscape:window-y="-9"
     inkscape:window-maximized="1"
     inkscape:current-layer="svg728">
    <inkscape:page
       x="0"
       y="0"
       width="800"
       height="800"
       id="page2"
       margin="0"
       bleed="0" />
  </sodipodi:namedview>
  <path
     fill-rule="evenodd"
     fill="#000000"
     fill-opacity="1"
     d="m 575.03333,102.28291 c -0.0423,-1.25794 -0.79081,-1.75305 -1.66908,-1.8374 -1.20232,-0.11369 -2.15509,0.55379 -2.2977,1.94375 -0.0747,0.75917 0.75514,0.97554 1.35141,1.01222 1.00462,0.055 2.1487,0.37408 2.61537,-1.11857 M 475.31688,84.877151 c -2.75467,-1.991429 -5.0362,-0.704147 -7.34362,-0.03676 2.27506,0.139363 4.482,1.877738 7.34362,0.03676 M 269.22431,97.298832 c 0.36621,-0.524446 1.79212,0.421755 1.55882,-1.268951 -0.0747,-0.579448 -0.67086,-1.349615 -1.17644,-1.536648 -1.03706,-0.377762 -1.52638,0.619786 -1.7435,1.547657 -0.23985,1.015888 0.54765,1.0709 1.36112,1.257942 M 694.52508,338.0161 c -0.008,2.9743 1.12135,4.20657 2.85515,4.81537 0.19123,0.066 0.80376,-0.52445 0.82964,-0.85452 0.1588,-2.48654 -1.59449,-3.01465 -3.68479,-3.96085 M 145.56484,102.679 c 0.66437,0.70415 1.46158,0.96821 2.3561,0.92053 1.08891,-0.0477 2.20695,-0.066 2.82918,-1.28729 0.15879,-0.31906 0.10048,-1.02321 -0.10694,-1.33128 -1.01109,-1.532996 -2.28153,-0.79951 -3.50003,-0.37774 -0.91394,0.31173 -1.38708,1.05255 -1.57831,2.07578 M 495.14418,86.061741 h -6.78626 c 2.00933,0.216381 3.86633,1.859408 5.96632,1.0709 0.1588,-0.0587 0.25604,-0.311742 0.81994,-1.0709 M 740.33061,547.78735 c -2.288,-0.31906 -4.27135,-3.31538 -7.54132,-0.72249 2.76438,1.96209 5.15932,1.26527 7.54132,0.72249 M 608.43308,107.78776 c 4.43015,3.20169 4.43015,3.20169 7.31773,-1.55133 -2.67047,2.28116 -4.70244,-0.45843 -7.31773,1.55133 m 24.68198,5.65155 c 3.68479,1.64302 7.23668,4.22491 12.15623,2.48653 -4.15793,-3.75547 -8.52976,-0.45842 -12.15623,-2.48653 M 85.490045,604.80532 c 1.850444,2.6369 4.222735,2.43153 6.562587,2.04644 1.21203,-0.20537 1.76947,-1.3973 1.568529,-2.71391 -0.19115,-1.21027 -1.127738,-1.20293 -1.999531,-0.97554 -1.999614,0.52443 -4.005616,1.07089 -6.131585,1.64301 M 459.59574,88.350236 c -2.00924,-2.035443 -3.04629,-3.209024 -4.20656,-4.213903 -0.63194,-0.546454 -1.41944,-1.250611 -2.29123,-0.480444 -0.94306,0.836178 -1.01118,2.105129 -1.00139,3.315382 0,1.389973 1.02727,1.323942 1.83104,1.360634 1.47776,0.06601 2.96208,0.01833 5.66814,0.01833 m 168.79092,24.806685 c -2.33006,-4.07454 -5.83341,-3.49142 -8.87656,-4.14055 -0.76476,-0.16871 -1.24447,0.33007 -1.49402,1.04155 -0.41483,1.15525 0.15888,1.93275 1.05332,2.24449 2.8875,1.01221 5.81723,1.66136 9.31726,0.85451 m 83.40544,79.87723 c -0.57361,-1.90341 -1.669,-1.80072 -2.92973,-0.9572 -0.12312,0.0844 -0.19115,0.49878 -0.12312,0.67848 0.66114,1.577 1.68202,0.80684 2.62832,0.46943 0.19115,-0.077 0.36621,-0.24572 0.54118,-0.37775 0.93659,2.4132 2.55373,1.59535 4.22929,1.19192 -1.28662,-1.78238 -2.6542,-2.30682 -4.34594,-1.00488 M 118.02123,106.03836 c 2.39817,0.49144 5.39271,2.73226 5.84967,-2.54155 0.19771,-2.3105 1.88289,-2.28116 3.36074,-2.77993 6.77647,-2.281168 13.84472,-2.094126 20.7638,-3.080675 16.96884,-2.394842 34.0414,-3.696799 51.16589,-3.689466 4.27135,0 8.52005,-0.403414 12.81737,0.667486 2.87779,0.733485 5.60982,-2.328843 8.79557,-1.503664 1.00139,0.253063 2.84537,-0.79584 3.14354,-0.319063 3.3672,5.380152 8.21226,1.936417 12.27943,2.882618 0.90415,0.209039 1.99962,0.469435 2.37876,-0.476767 1.96718,-4.844707 5.9825,-3.737136 9.16826,-3.616114 11.45949,0.414423 22.78284,-1.877738 34.22292,-1.848399 3.66853,0 7.19453,0.366753 11.3849,1.228603 -3.07226,3.94252 -6.85428,3.341055 -11.04466,3.803147 6.60482,1.709036 12.95028,1.437653 20.76713,-1.00488 -3.05285,-0.366743 -4.26496,-2.966969 -6.6955,-1.287281 -0.87179,0.601465 -1.70144,-0.150362 -1.76624,-1.342294 -0.068,-1.052549 0.33054,-2.04643 1.3676,-2.14179 5.8237,-0.524446 11.64749,-0.982872 17.69801,-1.481646 -0.47314,4.386271 -3.67832,4.001198 -5.64226,5.061079 0.53156,2.413193 1.88297,2.178481 3.17606,2.130801 3.94082,-0.150361 7.88164,-0.289734 11.82246,-0.432763 2.67362,-0.08434 5.17882,-0.09176 6.94505,2.996308 1.3028,2.281163 4.01533,1.481657 5.99868,2.460873 2.12274,1.048897 3.70105,-0.469434 3.60059,-2.713926 -0.21712,-4.646666 1.61067,-3.099 3.85652,-2.27382 3.71724,1.360634 7.29509,-0.271384 10.8697,-1.378965 4.21303,-1.316621 4.22273,-1.268931 7.59964,2.328842 0.46344,-1.852065 0.89453,-3.539095 1.40003,-5.548864 -2.91023,-1.822737 -7.79735,2.299493 -9.62191,-4.206581 5.51583,-0.08434 10.90853,-4.12222 15.94473,1.353302 -0.93011,1.492645 -2.81947,1.162583 -3.02041,3.058652 0.25926,0.319063 0.45697,0.817837 0.78103,0.938869 2.07412,0.799507 4.06394,0.865527 6.35526,0.432764 6.32929,-1.202931 12.75258,-2.827616 19.20499,-0.630805 0.41482,0.143029 1.06294,0.396082 1.27035,0.190709 3.91494,-4.103879 9.2007,-1.045227 14.61929,-3.627112 -5.35056,-2.149132 -9.80021,-0.344746 -14.104,-0.722488 -4.33938,-0.374085 -8.72746,0.733486 -13.09929,-0.234722 0.21389,-2.636908 1.90562,-2.523207 3.38339,-2.721248 5.40888,-0.722498 10.81137,-2.244492 16.27858,-0.704157 2.17135,0.608797 3.63293,-1.558676 5.66491,-1.529337 2.84543,0.04408 5.71676,-0.396081 8.28999,1.397306 0.65467,3.021981 -3.21165,2.413194 -2.97179,5.493852 1.75005,1.613688 4.29732,2.618567 6.39732,1.602679 6.50434,-3.11733 11.39146,-1.228603 15.53969,6.10265 2.16488,-8.372804 7.98858,-7.499945 13.54655,-7.771349 -3.06903,-3.803146 -3.15979,-4.114877 -5.98897,-3.00364 -2.58941,1.012222 -4.72841,-0.601465 -7.09414,-0.649135 -1.144,-0.01833 -1.40974,-1.041571 -1.36112,-2.064781 0.0515,-1.239602 0.96248,-1.371633 1.84398,-1.551333 3.05931,-0.619806 6.11216,0.01833 9.15855,0.04768 7.83302,0.08434 15.58822,-0.319074 23.49583,0.524446 5.31812,0.575793 11.23259,-0.693148 16.90729,-0.872859 6.56258,-0.205373 13.07664,1.353292 19.67166,0.630805 1.64311,-0.179711 4.0057,-0.377741 2.43061,3.124672 -1.06294,2.376512 0.53148,3.16502 2.0903,3.550104 1.22829,0.311731 2.5052,-0.440096 3.83388,0.385084 2.8033,1.745707 3.70753,0.432763 2.98482,-2.787269 -0.21388,-0.968208 -0.68703,-1.936416 0.29171,-2.622233 1.26064,-0.872859 1.74997,0.377752 2.62176,1.11858 3.6492,3.043988 5.29223,8.226109 9.48261,10.741974 4.45612,2.673579 4.87741,2.768938 7.89135,-1.822716 4.20332,-6.421724 9.32382,-6.157673 12.63269,1.02321 0.81347,1.764058 2.15833,1.305622 2.33985,1.08924 2.65745,-3.238362 4.91956,-2.732256 7.2853,0.451104 0.43108,0.590447 1.68526,0.282392 2.38855,-0.506116 l -0.13291,-0.168702 c 2.9718,2.328833 5.88203,4.665008 9.03535,0.168702 1.03059,-1.474324 3.02041,-1.888747 4.2487,-1.034228 5.7395,3.942519 12.34423,2.226151 18.44993,3.821497 4.65706,1.210263 9.39185,2.24448 14.08781,3.36305 9.4242,2.24082 18.88417,4.33494 28.36678,6.21268 2.20694,0.43276 4.388,0.97555 6.24824,2.12345 2.74496,1.69071 5.41543,3.16502 8.62707,2.99266 0.92033,-0.0441 1.89259,0.33007 1.71762,1.55867 -0.24956,1.6907 -1.91532,0.55378 -2.81309,1.54032 0.70653,2.47921 3.52601,2.34718 4.57932,4.55499 0.72918,1.51099 2.20047,2.58188 3.89221,2.23348 1.59126,-0.3374 1.50049,-3.97919 4.00561,-2.78727 1.238,-3.38139 -2.00608,-2.21514 -2.79358,-3.5501 6.05385,-0.57212 6.4622,-0.28239 6.55296,4.67601 0.0489,3.23103 0.29809,3.81048 2.0255,4.74935 0.75506,0.41444 9.89743,2.67726 10.93449,2.46088 1.45189,-0.28974 2.50512,0.67481 3.73341,1.11856 5.19176,1.8484 9.97841,5.0501 15.58823,5.58555 2.2232,0.21638 4.40426,2.03543 5.3182,4.0562 1.95738,4.2726 4.87741,6.02564 8.81823,6.50607 0.81339,0.10268 1.68518,0.68582 1.52639,2.54522 -5.24362,-0.48043 -10.99283,-6.16866 -15.72114,1.0489 0.81994,2.05744 2.63155,1.34229 4.01532,1.80439 2.19732,0.72249 4.93581,0.36674 4.9617,4.54398 0.008,1.81172 2.07411,2.41319 3.54217,2.83494 1.64312,0.46944 3.36074,0.60147 5.12697,0.90219 -2.91994,5.0611 -2.91994,5.0611 2.45658,6.83614 l -0.14908,-0.20903 c -2.29771,3.53176 -2.29771,3.53176 1.8667,5.55986 -3.26997,0.50611 -5.83996,2.62956 -9.9979,2.28848 4.56305,3.90585 9.08396,2.94865 13.7961,4.03788 -2.77731,3.33372 -6.5464,2.00977 -9.63169,4.50732 4.11587,3.11733 8.04044,6.12098 11.99752,9.05861 0.91061,0.67848 1.98982,1.0819 2.91023,1.75671 0.77456,0.56479 1.238,1.46332 0.79074,2.53422 -0.30141,0.71514 -0.95601,0.91319 -1.63657,0.82884 -3.73341,-0.49877 -7.39231,1.29461 -11.13219,0.40343 -1.77594,-0.42543 -3.4612,-0.44377 -5.22744,1.76404 8.721,2.19681 16.84249,5.49385 24.93801,8.87157 2.03521,0.84719 4.08344,1.67237 6.14785,2.4242 1.33515,0.47676 1.78565,1.36062 1.0305,2.70291 -0.56382,1.00488 -1.51991,0.94621 -2.30741,0.34841 -0.713,-0.54645 -1.20232,-1.48532 -1.9315,-1.97309 -1.89267,-1.23959 -3.8274,-2.5929 -6.25802,-1.08924 -0.22359,3.22003 2.57323,3.68213 4.00885,5.10878 2.10009,2.07211 1.87318,3.53909 0.19124,5.50118 -1.7338,2.0171 -3.63618,3.47308 -6.27421,3.62345 -1.66576,0.10267 -3.54865,-0.72249 -5.23391,1.26894 2.38201,1.9621 5.10101,0.44743 7.45711,1.24694 1.00462,0.33006 2.37553,0.26405 2.5408,1.77504 0.13938,1.28729 -0.7227,2.26283 -1.55883,3.11734 -1.92502,1.99144 -4.48207,1.86674 -6.77978,2.61123 -1.669,0.54279 -3.53571,0.48778 -5.09453,1.26528 -1.66577,0.82518 -5.15941,0.54644 -4.5112,3.099 0.68703,2.72126 0.19771,6.59041 3.26673,8.2151 1.03059,0.5538 3.06256,-0.12101 2.41435,2.34717 -0.41482,1.59535 -0.89444,3.13568 -2.53755,4.07455 -1.68518,0.96822 -5.37644,-1.27627 -4.91948,2.84596 0.28839,2.57089 3.35095,1.44497 5.13345,2.08311 7.50888,2.68458 15.00814,5.35081 22.68236,7.47427 4.0413,1.11491 6.05709,6.15768 9.70944,7.67966 -0.243,2.39485 -1.56206,3.29337 -2.28153,3.17236 -4.32321,-0.69315 -7.31125,3.23836 -9.152,5.64422 -2.5797,3.35938 -5.26957,4.35326 -10.16317,4.73101 6.07974,4.1699 11.16779,3.60511 16.02902,3.75548 0.46344,-0.93887 0.32406,-1.30562 -0.17505,-1.60634 -1.36112,-0.84352 -4.26488,0.0843 -3.74311,-2.88995 0.48293,-2.73227 2.84867,-1.51468 4.48207,-1.23962 2.15509,0.37409 4.3135,0.85452 6.42976,1.46332 2.08059,0.59046 3.7496,1.6907 2.81948,4.69435 h 0.068 c -2.06757,3.088 2.56999,4.22491 1.54911,7.77501 -0.89444,3.10633 -4.32968,2.66624 -4.44632,5.8496 -0.0324,0.95721 -0.76161,1.89608 -0.72926,2.83495 0.40511,12.80675 -7.89782,18.83238 -15.43914,25.41548 -0.82964,0.72982 -2.15841,0.71147 -3.02049,1.41563 -2.86162,2.35817 -6.42976,-2.28849 -9.60574,1.97309 -1.88611,2.52321 -6.24823,0.97555 -9.50202,0.88019 -3.30888,-0.0917 -6.65982,-0.34474 -9.20717,2.59289 -2.26527,2.61123 -3.98288,-0.46943 -5.95653,-0.51711 -0.98852,1.03422 -0.94638,2.13079 -0.39217,3.3704 1.41297,3.18335 0.77132,4.88138 -1.91533,5.15644 l -3.61676,2.83494 c -1.387,2.82395 -3.12735,4.92907 -6.32282,3.52076 -1.04353,-0.45109 -2.03196,-0.92052 -3.22781,-0.35573 -0.54766,2.15645 1.05323,2.20413 2.15841,2.53421 2.27181,0.67481 4.56305,0.71149 6.3876,3.17235 1.70145,2.29216 4.61168,0.5171 6.91909,0.72249 1.83435,0.1687 4.81261,-1.1736 4.20656,-5.06843 -0.058,-0.38508 0.87179,-1.4083 1.27691,-1.36062 1.95746,0.19436 3.92464,0.52444 5.8237,1.07823 2.50844,0.72249 2.72232,2.72125 2.08391,5.25913 -0.38247,1.51099 0.58008,2.24082 1.85044,2.2885 1.28661,0.0587 2.56353,0.011 5.49965,0.011 -3.51621,1.27626 -5.56768,2.02809 -5.79774,4.98407 -0.0747,0.92053 -0.44079,2.3105 -1.03058,2.61855 -4.54689,2.37652 -3.73341,6.97551 -3.24409,10.92904 0.29818,2.37651 0.0356,3.72979 -1.51021,5.07209 -0.84582,0.72983 -1.96394,1.33128 -2.13244,2.69192 -0.58656,4.77135 -3.74959,6.93148 -6.98396,9.09896 -2.04815,1.37162 -4.30703,2.62957 -4.48848,6.61976 4.33939,0.70416 9.02565,-0.27139 13.15762,3.00365 3.55196,2.8056 9.03543,2.07577 11.83225,7.79335 -2.88111,0.77016 -5.99229,-1.41931 -7.95623,1.4083 -2.60558,3.73714 -3.26025,8.60753 -5.26958,12.71141 -0.72262,1.49265 0.16536,1.61368 0.94638,1.8594 1.857,0.58312 2.63803,3.48409 5.06856,2.90095 0.87826,-0.19804 2.27182,0.58314 1.70791,1.42665 -3.19215,4.82637 1.15379,3.58677 2.71585,4.56231 1.3417,0.83618 4.79311,0.46944 1.64958,3.8325 -0.0843,0.0843 0.35642,1.10757 0.46344,1.08924 6.73756,-1.12958 1.17959,5.90461 3.85977,7.54762 0.25603,0.15771 -0.70653,1.49999 -1.16997,1.11857 -3.58432,-2.97796 -3.22782,0.53179 -3.74312,2.76893 -1.37729,6.05498 -3.10146,11.72487 -9.03534,14.23341 -1.11156,0.46944 -2.71253,1.58434 -3.11118,3.9902 5.1205,2.28115 9.24276,6.4107 13.64056,9.96081 -1.00462,5.03176 -3.4515,7.21022 -7.85568,5.8496 -2.95561,-0.9132 -3.61029,2.77626 -5.37005,3.4254 -2.39495,0.88386 -4.239,2.20781 -6.53671,3.93519 3.99915,2.83494 7.64179,4.02686 11.58909,1.9034 0.30788,-2.29949 -2.02226,-1.19926 -2.02226,-3.17235 2.27181,-1.17358 4.47884,-2.62957 6.98396,0.0477 0.74867,0.80682 1.84405,1.45597 2.86161,1.66135 2.53109,0.50611 5.5613,-0.0844 7.428,1.82272 1.53286,1.56601 -0.43108,5.35082 2.33985,7.17355 1.23468,0.80684 0.36297,2.86062 -0.44079,2.97431 -4.72186,0.67482 -3.21812,4.87405 -3.71724,7.89604 -0.52175,3.16502 1.84082,6.03663 0.72271,9.38869 -0.36621,1.07823 0.69683,2.44253 1.64958,3.00364 4.06726,2.40586 6.13159,7.05986 9.21688,10.53661 1.83427,2.06478 2.64773,4.61 6.00847,3.84716 2.28152,-0.51711 1.76623,2.34718 1.97364,3.83984 0.29171,2.10512 -1.0792,2.34717 -2.53108,2.14179 -5.91447,-0.86553 -11.82894,0.0368 -18.01884,0.52445 4.01532,2.09412 7.95614,4.39361 12.07848,6.12098 1.06295,0.44377 3.61668,2.00244 4.05747,-1.93274 0.21712,-1.93275 2.28154,-0.54279 3.31212,-0.19805 4.81908,1.64302 7.63855,5.95229 10.46127,10.25421 -3.47739,3.43641 -7.29177,0.37408 -10.76915,1.01222 -0.19124,0.57213 -0.55744,1.19192 -0.43108,1.36063 4.15479,5.78359 4.15479,5.77625 -1.92504,8.79823 -0.62223,0.30074 -0.98843,0.93887 -0.90414,1.90707 1.77594,2.53422 4.66353,-0.54645 6.95153,1.8484 -0.55421,3.04399 -2.72879,3.68214 -5.12697,3.91685 -2.78064,0.27873 -3.06904,1.54768 -2.12273,4.47796 1.29308,4.03787 1.00138,4.15891 3.78202,6.30804 -4.61168,-0.92054 -7.15247,1.63568 -9.06778,5.72856 -0.89768,1.92542 -2.40466,3.55745 -3.83389,5.06843 -2.19724,2.34718 -5.58385,3.83982 -4.16441,8.44249 -2.24909,0.93887 -3.28615,2.60756 -2.79682,5.42417 0.094,0.5171 -0.69673,1.16625 0.0257,1.8044 0.87179,0.77749 3.68487,-2.34718 2.81308,1.55865 -0.41482,1.85941 -2.382,3.60513 -4.14823,2.86429 -3.80153,-1.58801 -5.59365,2.48653 -8.50388,3.23836 -0.38247,0.10267 -0.69682,0.57214 -1.04676,0.88019 -0.81348,0.72249 -0.995,1.61736 -0.34033,2.52689 0.49912,0.69314 1.13753,0.31906 1.75976,0.0368 4.48847,-2.03544 4.49826,-2.03544 10.90206,-1.04155 -4.00886,1.7457 -6.84459,3.55009 -10.30579,3.78482 -5.68108,0.38507 -5.78155,1.07822 -3.84681,7.04151 0.76161,2.33617 2.39494,3.23837 3.70752,5.02075 -2.28154,2.44253 -4.82879,0.90219 -7.40203,0.81784 -0.81994,4.12222 -1.575,8.17843 -2.48893,12.18697 -0.0747,0.31907 -1.144,0.35574 -2.36259,0.69315 3.69135,3.50243 8.02102,4.95106 11.20678,8.29212 0.53148,0.55378 2.14862,-0.23472 1.8926,1.75671 -0.19125,1.49266 -0.17498,3.06966 -2.14862,2.94497 -0.62225,-0.0368 -1.27044,0.28239 -1.94129,0.45109 -0.3565,2.44253 1.75976,3.23104 2.4954,4.92907 1.31259,3.03299 -2.28152,2.4902 -2.19723,4.77136 2.66391,3.19069 6.09923,4.97673 10.18906,5.29582 2.91031,0.23471 4.45287,1.69803 2.12273,4.62832 -1.8181,2.28849 -1.04353,4.23225 -0.0157,6.04397 1.48432,2.62956 -0.058,3.44742 -1.95747,4.621 1.46814,1.37163 2.99453,2.08312 4.62794,2.36551 3.96671,0.66748 3.769,4.88139 5.10423,7.698 0.62871,1.32394 -0.67408,2.07578 -1.7922,2.34717 -1.17959,0.27139 -2.72223,-0.62714 -3.37691,1.58801 0.41482,2.87162 3.81447,0.0917 4.49503,3.17235 -2.81948,2.41318 -6.6113,1.62468 -9.56359,2.90095 -1.51029,2.02811 -0.12644,3.5501 0.28191,5.07944 0.49588,1.91441 0.65468,3.40706 -1.41944,4.07454 -1.40982,0.45109 -2.10655,1.66136 -2.56352,3.13568 -1.7338,5.64422 -5.81724,7.07086 -10.46135,7.22856 -14.82669,0.49877 -29.52048,0.0293 -44.26936,-2.75793 -15.76328,-2.98531 -31.80209,-4.13323 -47.70467,-6.21635 -29.24504,-3.82882 -58.46743,-7.84835 -87.72865,-11.61483 -15.90266,-2.03544 -31.84092,-3.6528 -47.75329,-5.58554 -3.22782,-0.38509 -6.77008,-3.22003 -9.49232,-0.0733 -1.90885,2.21514 -3.95708,2.88996 -6.22234,3.35206 -1.94776,0.40342 -3.14362,1.49998 -4.05747,3.33005 -2.16488,4.38628 -5.7395,5.7469 -9.9137,6.10265 -10.30246,0.86552 -20.58236,2.1528 -30.89454,2.7726 -19.75596,1.18092 -39.52494,2.52321 -59.29707,2.86061 -18.68324,0.31174 -37.35675,-0.89853 -55.46968,-7.07819 -2.11626,-0.71149 -4.66999,-0.95721 -5.79126,-3.17236 -1.96394,-3.85816 -5.25016,-4.14055 -8.41967,-4.84471 -4.3135,-0.94986 -8.69511,-1.60634 -11.41734,-6.25301 -0.99491,-1.69803 -2.77086,-1.34229 -4.18068,-1.74571 -6.53022,-1.8594 -13.23219,-2.55622 -19.56149,-5.75791 -3.8274,-1.93275 -8.48114,0.55745 -12.88539,-0.18703 -1.94129,-0.32641 -4.21635,0.3484 -6.35526,-0.40343 -0.80369,-0.28239 -1.8926,-0.43276 -2.58941,-0.0367 -7.66453,4.37528 -15.39708,0.89119 -23.0972,0.36675 -3.06911,-0.21639 -6.15432,-0.63814 -9.20717,-0.44377 -9.62523,0.60147 -19.20823,0.35942 -28.81403,-0.46943 -3.88241,-0.32641 -7.89136,-0.48778 -11.71552,1.29828 -1.36112,0.63814 -3.02689,0.66748 -4.5468,0.62714 -15.33875,-0.35575 -30.6386,-1.54034 -45.8963,-3.41808 -3.15979,-0.39241 -5.79134,-1.03056 -7.1849,-5.18945 -0.83612,-2.50854 -3.39956,-4.19924 -5.946906,-5.14544 -1.584708,-0.60146 -3.328292,-1.0599 -4.190295,-3.11734 2.138911,-1.76405 3.111174,0.97554 4.637558,1.32395 1.143999,0.26405 2.197233,-0.46943 2.573233,-1.75671 0.52823,-1.81173 -0.84915,-2.11979 -1.860235,-2.16748 -2.456583,-0.10267 -4.663526,-0.87284 -6.718229,-2.41318 1.011174,-3.099 4.355644,-0.28972 5.755673,-3.37039 -4.702354,0.80684 -8.370967,-2.56356 -12.694255,-2.88262 -1.889354,-0.13203 -2.670383,-1.44499 -2.676854,-3.46575 -0.01,-2.03543 0.978733,-3.47308 2.628236,-3.72614 3.616762,-0.53545 7.061786,-3.17235 10.928021,-1.23959 0.563911,0.28239 1.234763,-0.22372 1.565294,-1.00489 -0.45365,-1.99876 -1.831029,-1.44498 -3.117645,-1.54767 -4.546795,-0.35941 -9.210321,0.85452 -13.630844,-1.15525 -3.675001,-1.67235 -3.360649,-1.48531 -1.286532,-5.26647 1.383767,-2.51587 4.669997,-3.86917 3.872707,-8.02073 -0.230061,-1.21759 1.727407,-2.00609 3.137142,-1.99876 2.897292,0.0293 5.583853,-0.99389 8.934878,-2.16013 -2.894056,-2.2995 -5.600114,-3.2017 -8.643257,-3.19069 -1.105089,0 -2.274974,-0.38509 -2.573148,-1.82273 -0.298176,-1.43398 0.466675,-2.36551 1.610674,-2.78727 2.505119,-0.93887 0.670853,-1.86674 0.08131,-2.94864 -2.022264,-3.69678 -4.164411,-7.19921 -1.69165,-12.00724 0.920409,-1.79339 1.669,-3.3044 3.312115,-4.12223 3.41582,-1.6907 5.723233,-4.41196 6.394085,-8.73222 -4.977879,-2.75793 -10.03026,-5.49019 -15.014693,-8.35447 -3.726856,-2.14913 -4.339384,-4.89972 -1.43562,-8.09408 2.064409,-2.28115 3.73988,-4.79704 5.758908,-7.8777 -4.067259,0.077 -8.082582,1.51465 -11.258553,-1.92174 0,0 0.132827,0.15035 0.132827,0.15035 2.122733,-5.55985 5.616375,-8.94125 11.216489,-8.55617 2.190764,0.14303 3.675002,-1.16258 5.622763,-2.37285 -0.969027,-2.79093 -3.059321,-2.67724 -5.010318,-3.33371 4.712143,0.42176 7.350171,-3.90585 12.10446,-5.43517 -3.558438,-2.37651 -5.76538,-5.00609 -8.860377,-6.24569 0.239852,-0.30806 0.340239,-0.57212 0.521766,-0.65648 1.12135,-0.60879 2.864852,-0.50611 2.955615,-2.40217 0.09723,-1.89608 -1.487556,-2.19682 -2.706058,-2.5379 -4.04129,-1.1149 -8.105314,-2.14912 -12.146522,-3.22002 -4.527464,-1.19926 -4.611674,-1.34961 -4.378376,-8.09041 2.952379,0.4291 5.856142,0.95721 8.818229,-0.57213 1.94129,-0.99754 4.281141,0.13937 6.306641,1.26528 2.586174,1.43764 3.101467,-0.82518 4.154703,-2.73959 0.54765,-0.99755 0.930117,-1.50365 0.132827,-2.24448 -0.479619,-0.4511 -1.260648,-0.46944 -1.79212,-0.88386 -0.88797,-0.68582 -1.873176,-1.37896 -2.472761,-2.34717 -1.383768,-2.20415 -2.696351,-2.1968 -5.010235,-1.39731 -4.812613,1.66136 -9.780786,0.75916 -15.423046,0.0843 1.792202,-4.16989 3.169499,-7.42659 4.589024,-10.65762 0.54765,-1.2396 1.899061,-2.11246 0.936588,-3.92419 -1.163496,-2.18579 0.340238,-2.56355 1.717617,-2.55255 1.293087,0.0183 2.62832,0.2714 3.87279,0.69315 2.067562,0.68582 3.892203,1.08191 4.637558,-2.0171 0.606057,-2.49753 3.843586,-1.29828 4.439936,-4.0012 -1.085676,-2.98531 -4.089908,-2.40218 -5.989052,-3.94251 -1.477766,-1.20293 -3.360732,-1.98044 -2.91347,-4.32761 0.531472,-2.77993 3.169499,-2.2078 4.371823,-1.64302 2.514907,1.17359 3.626468,0.82518 4.870937,-1.99876 0.81994,-1.85206 3.791734,-0.7995 5.026496,-2.88261 -0.936588,-2.09412 -2.994526,-1.9621 -4.319969,-3.22004 -1.694968,-1.61735 -2.599116,-3.29704 -2.174586,-5.76524 0.414823,-2.4792 1.617147,-4.0012 3.947292,-4.23592 0.871793,-0.0918 1.727324,-0.56111 2.58941,-0.54278 3.111174,0.0733 4.339465,-1.58801 5.758908,-4.82638 1.043529,-2.36551 4.984343,2.26283 7.051993,0.2714 2.74497,-2.64791 5.28252,-2.75059 8.43584,-1.75672 1.68518,0.51712 3.42877,-0.54278 5.12697,-1.04888 6.11532,-1.83374 12.28914,-3.43642 18.63461,-1.55868 1.52638,0.45111 2.43061,-0.0843 3.4612,-1.21393 1.09538,-1.19925 2.52129,-3.16135 3.60698,-3.00365 3.24408,0.45111 3.1047,-1.2836 2.64772,-3.76281 -0.27543,-1.46698 1.07921,-1.17358 1.60098,-1.77505 0.72917,-0.85451 0.62223,-1.85939 0.10046,-2.70291 -0.54117,-0.86553 -1.39355,-1.26894 -2.22319,-0.42543 -3.51953,3.61612 -7.295,2.61123 -11.58262,1.90708 -7.26911,-1.19193 -14.45402,-2.67724 -21.66157,-4.18823 -3.51953,-0.74083 -7.39224,0.40341 -11.06085,1.03423 -2.06441,0.35573 -3.733407,-0.30074 -5.632551,-0.95721 -3.260262,-1.13691 -6.131585,-4.69435 -10.305785,-1.61736 -1.549033,1.14792 -3.350943,-2.55988 -5.56444,-3.16135 -2.69635,-0.73349 -2.605587,-2.77993 -2.291234,-5.7359 0.298175,-2.82761 -3.318586,-3.12834 -4.563056,-5.35449 -1.866705,1.77506 -0.499116,4.10389 -1.58479,5.72858 -0.340239,-0.0294 -0.862003,0.10267 -1.027269,-0.12104 -0.56391,-0.75182 -0.988524,-1.62468 -1.47785,-2.44252 -3.34447,-5.49386 -3.292617,-5.88627 2.770854,-6.51707 1.824641,-0.18704 2.647817,-1.47066 3.914936,-2.24083 2.514825,-1.54032 4.157939,-4.38627 3.519527,-7.18453 -0.505587,-2.21516 -3.344554,-3.00366 -5.64226,-2.71393 -4.637558,0.60146 -7.541322,-1.61369 -8.594641,-6.69311 -0.349944,-1.66135 -0.904148,-2.90097 -2.365737,-3.08067 -3.908464,-0.47676 -3.208409,-5.51952 -5.807526,-7.33125 -0.70329,-0.48777 -0.447262,-1.97309 0.07467,-2.76159 1.429232,-2.14914 4.216263,-0.56112 5.849672,-2.77626 2.37229,-3.19437 2.754675,2.01709 5.026496,1.64302 -0.03899,-4.33861 2.057938,-6.13199 5.917703,-5.44618 0.537942,0.10267 1.717617,-0.61247 1.701439,-0.87285 -0.42453,-5.77626 2.751439,-3.88018 5.373205,-3.3814 0.547733,0.1137 1.419526,-0.17604 1.753292,-0.63813 2.080587,-2.90097 4.819085,-2.67726 7.755287,-2.72126 3.525997,-0.0477 4.631087,-1.84107 4.48847,-5.42784 -0.07467,-1.66136 -1.43562,-3.79215 0.05808,-4.87406 1.776025,-1.2946 3.658907,0.0294 5.493178,1.72739 1.4357,-4.36428 -0.92033,-8.37281 -0.24948,-12.56839 0.53794,-3.35205 -3.046379,-4.44129 -5.159405,-6.0183 -3.444942,-2.58188 -9.790493,-10.5256 -11.349315,-13.52191 -1.429149,-2.76893 -0.8815,-4.29092 1.575083,-4.91806 4.738028,-1.19192 7.923705,-6.21635 12.966462,-6.54642 0.207412,-0.007 0.563911,-0.15036 0.589796,-0.27871 1.101859,-7.37161 6.552879,-4.1149 10.146989,-5.66256 5.18529,-2.23349 10.32844,-3.70047 15.82808,-3.77383 2.39818,-0.0292 4.79636,-0.0954 7.19461,0 1.64959,0.055 3.06904,-0.11369 3.8922,-2.62956 -2.54078,-0.97554 -5.27928,-1.58801 -7.62561,-3.02198 -4.32975,-2.62957 -8.76961,-5.38016 -8.50388,-12.30066 0.12313,-3.03299 -1.68525,-4.96573 -3.68478,-6.66377 -0.67086,-0.58312 -1.51021,-1.20293 -1.16997,-2.39485 0.41482,-1.46698 1.62685,-1.75671 2.6542,-1.55867 2.40797,0.46944 4.71538,0.50611 7.26912,-0.81784 -2.50512,-2.81661 -5.2598,-4.47797 -8.72747,-4.25426 -4.13205,0.26407 -8.24785,-0.55378 -12.41226,0.31174 -3.04314,0.62713 -6.131584,0.21638 -7.907608,-4.92172 4.407498,1.2506 8.115018,-0.72983 11.848428,0.0477 2.49865,0.51711 3.09492,-1.2396 3.85977,-2.90097 1.04353,-2.2518 0.77779,-4.53297 -1.28006,-5.82024 -3.93112,-2.44254 -7.63864,-6.4144 -12.716992,-2.71392 -0.988441,0.71515 -2.595881,0.66747 -3.668531,-1.31296 1.312501,-2.76158 2.015709,-5.42784 6.364883,-4.20657 4.35564,1.21026 6.54649,-1.93643 7.2497,-8.12342 0.19123,-1.75305 3.62647,-3.22003 4.68949,-1.52933 4.46259,7.1002 9.11633,2.22615 13.7475,0.77018 l -0.13291,0.18703 c 1.21858,-1.54767 1.75006,-3.39607 1.98983,-5.41684 0.0843,-0.72249 0.34031,-1.41564 0.52184,-2.11979 4.81253,2.0061 4.86115,-6.63809 9.41773,-5.39849 0.81994,0.2127 1.70144,-0.81785 1.88289,-1.79339 0.19123,-1.01589 -0.47963,-1.99144 -1.24448,-2.42419 -2.6542,-1.49999 -5.79126,-2.00977 -7.70011,-5.01342 -0.19771,-0.30072 -1.00138,-0.51711 -1.20879,-0.32641 -2.77094,2.53422 -7.12011,1.5 -9.37567,5.39851 -1.22183,-1.77505 -2.82279,-4.15156 -2.03198,-5.75792 1.05971,-2.18579 3.32506,-3.7738 5.3246,-5.17111 2.06764,-1.44864 5.01031,-0.94987 5.58393,-5.11977 0.53147,-3.81049 1.05323,-3.71514 -1.19585,-10.56228 -2.40465,0.17238 -5.14314,0.48044 -6.26127,3.02566 -1.47128,3.29337 -3.21164,4.71267 -6.40702,3.99018 -0.40512,-0.0953 -0.97874,0.78851 -2.34641,1.99143 2.17135,-5.62587 5.14323,-9.10995 8.75991,-11.63317 3.28623,-2.29216 6.95152,-4.18823 10.52938,-5.59653 2.62831,-1.04157 5.10108,-2.23349 6.47837,-4.47064 2.68988,-4.36427 5.98259,-7.52929 10.29608,-9.06962 -0.11664,-1.21027 -0.17497,-2.10145 -0.92041,-2.24082 -9.9979,-1.80439 -18.97493,-7.4266 -28.81404,-9.8508 -1.24447,-0.30805 -2.57962,-1.02321 -3.49356,-1.99876 -3.27644,-3.47307 -6.39408,-7.13686 -9.9039,-11.10872 1.59126,-1.71637 5.41543,0.38508 5.28252,-3.94252 -0.0324,-1.37163 1.61068,-1.04156 2.73203,-0.74083 3.14353,0.84352 6.1802,2.44986 10.16964,2.22615 -0.9204,-2.18948 -2.19732,-2.64056 -3.55844,-3.08066 -3.58432,-1.15525 -7.16864,-2.34717 -10.72708,-3.61612 -1.88288,-0.67481 -3.95052,-1.3973 -4.26488,-4.06355 -0.47962,-3.99018 -3.12735,-4.04521 -5.77508,-4.71267 -5.856148,-1.49267 -11.637789,-3.36306 -17.464727,-5.03176 -1.889437,-0.54646 -2.346324,-1.95476 -2.096849,-3.92418 0.239851,-1.93642 1.351411,-2.44252 2.835732,-2.15279 7.019555,1.34228 13.19337,-4.23225 20.186964,-3.13568 0.63849,0.10267 1.2672,-0.39243 1.42599,-1.2396 0.22359,-1.19192 -0.38894,-1.79339 -1.28661,-2.15648 -3.807916,-1.56966 -7.807061,-0.76282 -11.70582,-1.23226 -4.148232,-0.48777 -8.338527,-0.37407 -12.519199,-0.51711 -1.759763,-0.066 -3.47738,-0.11001 -5.010319,-1.4083 -2.605587,-2.22248 -2.605587,-4.68334 0.596351,-5.67722 3.859764,-1.20293 4.115793,-5.47552 6.403792,-7.94372 1.785731,-1.92542 -2.271821,-3.39973 -1.160177,-6.3117 4.802905,-1.566 10.163169,-0.48777 15.22534,-2.13079 2.527767,-0.82517 4.977882,-1.8594 7.457032,-2.78727 1.2024,-0.45109 1.52646,-1.70904 1.22829,-3.05132 -0.39865,-1.79339 -1.62685,-1.20293 -2.64773,-1.05989 -2.851915,0.42175 -5.632558,2.43885 -8.627002,0.92786 0.07467,-2.43886 1.617148,-3.00365 2.728708,-2.87162 6.238614,0.75184 11.731704,-3.63445 17.937874,-3.088 1.65929,0.15037 3.60058,0.20539 4.6052,-2.0281 z m 0,0"
     id="path3"
     style="stroke-width:0.88257" />
</svg>
